<svg width="147" height="40" fill="none" xmlns="http://www.w3.org/2000/svg"><path d="M17.546 7.176C7.503 6.117-.942 14.823.085 25.176.77 32.94 6.818 39.058 14.236 39.882c10.043 1.059 18.488-7.647 17.461-18-.685-7.765-6.733-13.883-14.151-14.706zm-.57 25.059c-5.479.706-10.158-4.118-9.473-9.883.456-3.882 3.538-7.059 7.304-7.53 5.592-.705 10.271 4.119 9.586 9.883-.57 3.883-3.538 7.06-7.418 7.53zm23.28-24.352c-2.282 0-4.108 2.118-3.652 4.588.343 1.765 1.94 3.059 3.766 3.059h10.386L34.663 37.412c-.57.706 0 1.765.799 1.765h25.335c1.826 0 3.424-1.176 3.766-3.059.457-2.47-1.369-4.588-3.651-4.588H48.359L64.45 9.648c.571-.706 0-1.765-.799-1.765H40.257zm101.228 0c-1.712.353-2.853 2-2.853 3.882v12.706L118.545 8c-.684-.589-1.712 0-1.712.823v26.47c0 1.765 1.142 3.412 2.854 3.883 2.396.47 4.565-1.294 4.565-3.765v-12.94l20.085 16.47c.685.589 1.712 0 1.712-.823v-26.47c0-2.354-2.168-4.236-4.565-3.765zm-52.383 6.823c8.56 0 14.836 4.588 14.836 8.706 0 4.118-6.39 8.706-14.836 8.706-8.445 0-14.836-4.588-14.836-8.706 0-4 6.391-8.706 14.836-8.706zm0-7.647c-12.325 0-22.254 7.294-22.254 16.47C66.847 32.707 76.776 40 89.101 40c12.326 0 22.254-7.411 22.254-16.47.115-9.06-9.928-16.47-22.254-16.47z" fill="#fff"/><path d="M91.155 20.706l-2.625-1.647c-.228.352-3.31 5.764-4.337 12.706 1.028.235 1.94.352 3.082.47.913-6.47 3.766-11.53 3.88-11.53z" fill="#fff"/><path d="M84.65 6.47c-1.14 2.471-2.282 4.942-2.739 7.648-.456 2.705-.456 5.53.685 8 1.141 2.47 3.652 4.353 6.277 4.353s5.021-1.883 6.733-4c3.995-4.706 6.163-11.06 5.935-17.295-1.712 3.295-2.74 2.353-5.82 4.471.114-3.765-.229-4.353-1.028-7.882-1.712 2.706-2.967 3.059-5.135 5.294.228-3.294-.343-3.883-.114-7.059-1.598 2.118-3.767 4.118-4.794 6.47zm7.419 25.648c2.967-3.177 8.559-8.824 8.787-12.824-2.625 2.942-8.902 7.412-12.325 10.236-1.027.823-1.94 1.647-2.74 2.588 1.028.118 2.17.235 3.31.235 1.028-.117 2.055-.117 2.968-.235z" fill="#fff"/></svg>