<svg width="156" height="40" fill="none" xmlns="http://www.w3.org/2000/svg"><g clip-path="url(#clip0)"><path fill-rule="evenodd" clip-rule="evenodd" d="M153.521 17.71c.908 0 1.706-.773 1.706-1.725 0-.938-.798-1.683-1.706-1.683-.934 0-1.719.745-1.719 1.683 0 .952.785 1.724 1.719 1.724zm0-6.111a1.72 1.72 0 001.706-1.724c0-.938-.798-1.696-1.706-1.696-.934 0-1.719.758-1.719 1.696 0 .98.785 1.724 1.719 1.724zm-53.06 1.352c0 2.193-1.512 3.848-3.74 3.848s-3.741-1.655-3.741-3.848c0-2.193 1.513-3.862 3.74-3.862 2.229 0 3.741 1.669 3.741 3.862zm-10.905 0c0 4.11 3.04 7.158 7.165 7.158 4.126 0 7.165-3.062 7.165-7.158 0-4.11-3.067-7.173-7.165-7.173-4.126 0-7.165 3.063-7.165 7.173zm-4.209 6.662c.633.648 1.691.675 2.338.027.633-.62.701-1.696.069-2.345l-4.305-4.455 4.14-4.289c.619-.648.564-1.71-.069-2.317-.633-.649-1.692-.62-2.311.027l-4.277 4.414c-.37.386-.632.441-.907.441-.426 0-.785-.29-.785-.73V7.433c0-.924-.77-1.67-1.691-1.67s-1.692.746-1.692 1.67V18.44c0 .924.77 1.67 1.692 1.67.921 0 1.691-.746 1.691-1.67v-3.13c0-.427.359-.717.785-.717.275 0 .536.056.907.441l4.415 4.58zm62.301-10.331c.936 0 1.678-.731 1.678-1.655 0-.897-.742-1.655-1.678-1.655h-2.557c-4.181 0-7.152 2.993-7.152 7.006 0 4.014 2.971 7.007 7.152 7.007h2.557c.936 0 1.678-.731 1.678-1.655 0-.897-.742-1.655-1.678-1.655h-2.654c-2.228 0-3.698-1.573-3.698-3.697s1.47-3.696 3.698-3.696h2.654zm-15.1 3.669c0 2.193-1.513 3.848-3.741 3.848s-3.741-1.655-3.741-3.848c0-2.193 1.513-3.862 3.741-3.862s3.741 1.669 3.741 3.862zm-10.906 0c0 4.11 3.038 7.158 7.165 7.158 4.125 0 7.166-3.062 7.166-7.158 0-4.11-3.068-7.173-7.166-7.173-4.127 0-7.165 3.063-7.165 7.173zm-67.507.468l-3.969-6.813c-.454-.772-1.416-1.048-2.241-.675a1.664 1.664 0 00-.62 2.317l4.744 8.032c-.574.38-1.194.515-1.869.574-.921.083-1.54.745-1.54 1.614 0 1.034.839 1.614 1.692 1.614 1.925 0 3.602-.98 4.813-2.345 1.1-1.242 1.94-2.814 2.723-4.29l2.792-5.254c.426-.814.165-1.877-.702-2.29-.81-.387-1.801-.042-2.227.758l-3.596 6.758zm11.944-4.15v9.171c0 .938.784 1.67 1.72 1.67.948 0 1.718-.732 1.718-1.67V9.268h2.558c.935 0 1.692-.745 1.692-1.682 0-.91-.757-1.67-1.692-1.67h-8.568c-.936 0-1.692.76-1.692 1.67a1.68 1.68 0 001.692 1.682h2.572zm40.504 9.171a1.706 1.706 0 001.704 1.67c.921 0 1.692-.746 1.692-1.67v-3.82h5.57v3.82c0 .924.783 1.67 1.705 1.67s1.692-.746 1.692-1.67V7.434c0-.924-.783-1.67-1.706-1.67-.921 0-1.691.746-1.691 1.67v3.82h-5.584v-3.82c0-.924-.77-1.67-1.691-1.67s-1.691.746-1.691 1.67V18.44z" fill="#fff"/><path d="M48.568 31.419l2.49-3.455c.107-.147.246-.263.447-.263.316 0 .439.216.439.48v4.382c0 .255-.139.472-.455.472-.324 0-.47-.217-.47-.472v-3.23l-2.505 3.431c-.1.131-.239.27-.432.27-.285 0-.439-.177-.439-.471V28.18c0-.255.139-.479.462-.479.317 0 .463.224.463.48v3.238zm4.872.541c.347 0 .54.255.54.541 0 .294-.193.534-.54.534-.347 0-.532-.24-.532-.534 0-.286.185-.54.532-.54zm1.85 0c.347 0 .54.255.54.541 0 .294-.193.534-.54.534-.346 0-.531-.24-.531-.534 0-.286.185-.54.532-.54zm4.286-.541l2.49-3.455c.107-.147.246-.263.446-.263.316 0 .44.216.44.48v4.382c0 .255-.14.472-.455.472-.324 0-.47-.217-.47-.472v-3.23l-2.505 3.431c-.1.131-.24.27-.432.27-.285 0-.44-.177-.44-.471V28.18c0-.255.14-.479.463-.479.316 0 .463.224.463.48v3.238zm5.104.541c.346 0 .539.255.539.541 0 .294-.193.534-.54.534-.347 0-.531-.24-.531-.534 0-.286.184-.54.532-.54zm2.08 0c.347 0 .54.255.54.541 0 .294-.193.534-.54.534-.346 0-.531-.24-.531-.534 0-.286.185-.54.531-.54z" fill="#fff"/><path fill-rule="evenodd" clip-rule="evenodd" d="M75.417 30.368c0-1.53-.864-2.743-2.536-2.743-1.673 0-2.528 1.213-2.528 2.743 0 1.539.855 2.744 2.528 2.744 1.672 0 2.536-1.206 2.536-2.744zm-.972 0c0 1.075-.516 1.917-1.564 1.917-1.04 0-1.557-.842-1.557-1.917 0-1.066.516-1.916 1.557-1.916 1.048 0 1.564.85 1.564 1.916z" fill="#fff"/><path d="M79.719 30.724h-2.451v1.839c0 .263-.162.472-.463.472-.308 0-.463-.21-.463-.472V28.18c0-.262.155-.479.463-.479.3 0 .462.216.462.48v1.715h2.452V28.18c0-.262.154-.479.462-.479.3 0 .463.216.463.48v4.382c0 .263-.162.472-.463.472-.308 0-.462-.21-.462-.472v-1.84zm5.448-3.023c.309 0 .463.216.463.48v4.382c0 .263-.154.472-.463.472-.308 0-.462-.21-.462-.472v-4.035H83.28c-.015.936-.076 2.373-.354 3.363-.177.634-.57 1.182-1.18 1.182-.447 0-.655-.27-.57-.603.062-.255.262-.278.447-.278.193 0 .378-.154.486-.518.2-.641.3-1.816.323-3.494.008-.293.17-.479.44-.479h2.296z" fill="#fff"/><path fill-rule="evenodd" clip-rule="evenodd" d="M87.69 31.528h1.98l.432 1.144c.108.293.34.433.632.324.27-.1.3-.41.208-.641l-1.788-4.398c-.077-.186-.208-.332-.447-.332-.216 0-.37.115-.47.378l-1.734 4.36c-.1.262-.085.533.154.633.339.14.54-.108.632-.379l.401-1.09zm1.718-.727h-1.472l.725-1.948.747 1.948zm3.3-4.406c-.131.124-.115.317 0 .472.193.262.632.494 1.218.494.585 0 1.009-.232 1.202-.494.115-.155.154-.348.008-.472-.177-.154-.355-.062-.501.085a.942.942 0 01-.71.286.965.965 0 01-.716-.293c-.146-.14-.324-.248-.501-.078zm2.512 1.57l-2.49 3.454v-3.238c0-.255-.145-.48-.461-.48-.324 0-.463.225-.463.48v4.382c0 .294.154.472.44.472.192 0 .33-.14.431-.27l2.505-3.433v3.231c0 .255.146.472.47.472.316 0 .455-.217.455-.472v-4.382c0-.263-.123-.48-.44-.48-.2 0-.339.116-.447.263z" fill="#fff"/><path d="M100.794 30.724h-2.451v1.839c0 .263-.162.472-.463.472-.308 0-.462-.21-.462-.472V28.18c0-.262.154-.479.462-.479.3 0 .463.216.463.48v1.715h2.451V28.18c0-.262.154-.479.462-.479.301 0 .462.216.462.48v4.382c0 .263-.161.472-.462.472-.308 0-.462-.21-.462-.472v-1.84z" fill="#fff"/><path fill-rule="evenodd" clip-rule="evenodd" d="M36.452 4.333A4.326 4.326 0 0032.132 0H4.32A4.327 4.327 0 000 4.333v17.389C0 31.817 8.16 40 18.226 40c10.066 0 18.226-8.183 18.226-18.278V4.333z" fill="#fff"/><path fill-rule="evenodd" clip-rule="evenodd" d="M23.114 26.555c0-.942-.776-1.703-1.716-1.703s-1.715.761-1.715 1.703c0 .943.775 1.72 1.715 1.72.94 0 1.716-.777 1.716-1.72zm-6.087 0c0-.942-.775-1.703-1.732-1.703a1.7 1.7 0 00-1.7 1.703c0 .943.76 1.72 1.7 1.72a1.73 1.73 0 001.732-1.72z" fill="#81356E"/></g><defs><clipPath id="clip0"><path fill="#fff" d="M0 0h155.556v40H0z"/></clipPath></defs></svg>