<svg width="335" height="41" fill="none" xmlns="http://www.w3.org/2000/svg"><path d="M10.358 39.302L.138.723h6.704l7.853 29.63L23.112.721l6.25.002 8.445 29.788L45.696.73 52.4.72 42.175 39.295l-7.771-.008-8.165-28.81-8.172 28.817-7.709.008zM57.024.743h6.383v38.533h-6.383V.743zm20.027 32.489h15.537v6.044H70.802V.743h6.25v32.489zM112.22.788c5.237 0 9.595 1.866 13.028 5.555 3.477 3.689 5.238 8.267 5.238 13.689 0 5.378-1.761 9.956-5.238 13.689-3.433 3.689-7.791 5.556-13.028 5.556H97.21V.742h15.01v.045zm0 32.489c3.609 0 6.558-1.245 8.758-3.734 2.289-2.489 3.434-5.689 3.434-9.467 0-3.866-1.145-6.977-3.434-9.466-2.244-2.49-5.193-3.734-8.758-3.734h-8.715v26.4h8.715zm51.936-5.008c0 3.157-1.099 5.78-3.344 7.87s-4.886 3.157-8.143 3.157h-16.33V.743h15.141c3.126 0 5.766 1.067 7.923 3.068 2.201 2.046 3.258 4.58 3.258 7.604 0 3.38-1.322 5.959-3.874 7.871 3.345 1.779 5.369 4.98 5.369 8.983zM142.633 6.702V16.84h8.891c2.773 0 4.886-2.223 4.886-5.069s-2.113-5.07-4.886-5.07h-8.891zm10.079 26.636c2.905 0 5.195-2.357 5.195-5.38 0-3.025-2.29-5.381-5.195-5.381h-10.079v10.805h10.079v-.044zm23.636-.089h16.903v6.047h-23.152V.743h22.888v6.048h-16.639v10.005h15.274v6.003h-15.274v10.45zm44.28 6.047l-8.099-14.051h-7.395v14.051h-6.25V.743h15.273c3.434 0 6.338 1.2 8.671 3.646 2.376 2.357 3.61 5.292 3.61 8.76 0 4.892-3.038 9.383-7.571 11.162l8.67 14.985h-6.909zM205.134 6.702v12.895h8.98c3.344 0 5.985-2.846 5.985-6.447 0-3.558-2.684-6.448-5.985-6.448h-8.98zm48.901 32.594l-8.055-14.059h-7.395v14.06h-6.249V.722h15.272c3.434 0 6.339 1.201 8.672 3.648 2.376 2.358 3.61 5.295 3.61 8.765 0 4.894-3.038 9.388-7.571 11.167l8.67 14.993h-6.954zm-15.45-32.611v12.902h8.98c3.345 0 5.986-2.847 5.986-6.451 0-3.56-2.685-6.451-5.986-6.451h-8.98zM265.567.728h6.251v38.569h-6.251V.727zm19.895 32.521h16.902v6.047h-23.153V.743h22.888v6.048h-16.637v10.005h15.272v6.003h-15.272v10.45zm21.259-2.728l5.414-3.2c1.54 4.356 4.666 6.489 9.462 6.489 4.754 0 7.087-2.045 7.087-5.067 0-1.6-.66-2.755-1.892-3.555-1.233-.845-3.522-1.778-6.778-2.756-3.654-1.11-5.458-1.822-8.012-3.51-2.464-1.779-3.697-4.312-3.697-7.779 0-3.422 1.189-6.088 3.609-8.088 2.378-2.045 5.283-3.023 8.672-3.023 6.118 0 10.827 3.2 13.292 8.49l-5.282 3.066c-1.585-3.556-4.269-5.378-8.01-5.378-3.654 0-5.987 1.867-5.987 4.8 0 2.845 1.849 4.178 7.703 6 1.453.489 2.509.845 3.169 1.111.704.222 1.628.622 2.817 1.111 1.233.49 2.201 1.067 2.773 1.556 2.025 1.6 4.181 4.222 3.917 7.91 0 3.468-1.232 6.267-3.741 8.312-2.465 2.044-5.722 3.022-9.771 3.022-7.395-.044-12.765-3.6-14.745-9.51z" fill="#fff"/></svg>