<svg width="913" height="383" fill="none" xmlns="http://www.w3.org/2000/svg"><path d="M224.552 226.153c12.438-3.398 32.02-17.102 28.217-33.182-1.588-6.815-8.134-12.175-13.908-14.813-25.965-12.318-60.889 12.627-53.728 32.998 2.117 6.18 6.452 10.99 12.299 13.763 6.543 3.095 14.099 3.551 20.853 2.522 2.252-.343 4.296-.748 6.267-1.288zm-38.077-26.705c12.85-31.342 58.976-27.461 64.622-7.319 5.125 18.854-30.487 41.555-52.692 31.045-10.791-5.162-15.053-16.288-11.93-23.726z" fill="#59204B"/><path d="M217.173 192.475c3.68-2.857 16.996 4.081 16.584-6.681-1.027 12.933-16.048-2.325-20.179 10.016-1.126 3.397-1.673 5.61-5.418 6.41-2.044.405-14.613-.31-11.935 6.265-1.086-3.947 3.468-5.184 7.723-5.039 13.378.28 8.664-7.812 13.225-10.971z" fill="#59204B"/><path d="M196.982 202.148s.124-.415.86-.986c3.005-2.494 9.508 1.495 12.627-1.757.86-.987 2.387-13.318 14.66-8.956-12.35-6.762-15.451 7.813-15.782 8.166-1.978 2.463-6.849.209-10.303 1.549-1.898.676-2.062 1.984-2.062 1.984zm30.465-3.535c-6.937-2.534-8.139 4.915-8.336 5.195-.776 1.465-3.1 1.673-6.638 2.535-1.971.541-3.195.852-3.195.852 1.578.021 4.794-.145 7.046-.488 1.774-.26 3.403-.79 4.044-2.182.652-1.05.747-6.68 7.079-5.912zm-17.92-11.601c1.392.644 2.157-1.164.765-1.808-1.184-.582-2.084 1.299-.765 1.808zm13.096.082c.488.259 1.308.166 1.494-.457.258-.489-.106-1.164-.594-1.424-1.392-.643-2.292 1.237-.9 1.881zm6.601.622c-.903-.384-1.348.728-.579 1.185.903.384 1.483-.8.579-1.185zm-27.09 3.982c1.392.643 2.157-1.164.765-1.808-1.257-.717-2.022 1.091-.765 1.808z" fill="#59204B"/><path d="M204.528 195.811c1.111.447 1.752-.946.776-1.465-1.184-.582-1.753.946-.776 1.465zm-3.813 11.645c.5.603 1.297-.177.736-.571-.561-.395-1.162.104-.736.571zm-8.867-2.887c1.184.582 1.888-1.018.704-1.6-1.184-.581-1.888 1.019-.704 1.6zm24.935-2.817c.612-.156.86-.987.226-1.517-1.756-1.319-2.197 2.057-.226 1.517zm14.161-3.108c.258-.488-.106-1.163-.729-1.35-.207-.062-.55-.052-.685.021-1.836.467.503 2.867 1.414 1.329zm6.386-10.419c-.383.904 1.144 1.475 1.392.644.123-.416-.095-.821-.376-1.018-.415-.125-.892-.042-1.016.374zm-28.57 19.947c-.478.084-.798.78-.58 1.185.292.54.78.8 1.257.716.612-.156 1.006-.716.714-1.257-.083-.477-.779-.799-1.391-.644zm17.567-14.534c-1.464-.779-2.426 1.309-.961 2.088 1.599.706 2.561-1.382.961-2.088zm-2.959 12.58c1.195.925 2.23-1.028.642-1.392-.208-.062-.343.011-.416-.124-.612.155-1.067.924-.226 1.516zm-19.752 4.032c-.219-.405-.634-.529-1.319-.509-.343.011-.685.021-.809.437-.496 1.662 3.209 1.755 2.128.072zm19.338 2.295c.415.124.82-.094.882-.302.349-1.932-2.274-.342-.882.302zm6.227-6.847c.022.685.79 1.143 1.257.717l.134-.073c.332-.353.04-.894-.24-1.091-.623-.187-1.235-.031-1.151.447zm-7.905-24.328c-.55-.052-.736.572-.517.977 1.351 1.537 2.572-1.039.517-.977zm-3.716 12.466c-.321.696.386 1.361.998 1.205 1.493-.458-.554-2.317-.998-1.205zm-8.409-1.391c-.55-.052-.944.509-.652 1.049.739 1.693 2.914-1.05.652-1.049zm8.285-4.645c-.977-.519-1.618.873-.642 1.392.904.385 1.545-1.007.642-1.392zm-17.806 9.258c-.634-.53-1.381-.301-1.297.177.011.342.084.477.229.748.645.872 2.055-.063 1.068-.925zm37.321-12.116c.612-.156.725-.914.299-1.382-1.694-1.527-2.135 1.85-.299 1.382zm5.064 6.16c.904.384 1.483-.8.579-1.184-.903-.385-1.482.8-.579 1.184zm-7.664 2.566c-.551-.052-.944.509-.383.904.281.197.696.322.893.041.342-.01.113-.758-.51-.945z" fill="#59204B"/><path d="M247.006 197.126c.299-1.382.463-2.69.503-3.584a17.76 17.76 0 00-.211-2.327c-.084-.478-.23-.748-.23-.748s.011.343.095.821c.084.478.178 1.298.003 2.265-.62 14.979-26.611 31.966-46.899 25.652-7.341-2.316-11.479-7.406-11.789-12.818-.452 22.386 51.444 20.19 58.528-9.261z" fill="#59204B"/><path d="M241.822 200.098c-12.661 20.081-40.655 23.678-51.179 9.655 9.467 15.29 40.504 12.493 51.179-9.655z" fill="#59204B"/><path d="M202.69 215.631c10.788 2.898 20.737 1.017 28.199-5.799-8.544 5.133-17.051 7.107-28.199 5.799zm38.673-4.127c-3.877 3.137-7.961 6.213-12.949 8.904l-2.426 1.309c.82-.094 1.432-.25 2.791-.634 5.02-1.663 9.447-4.748 12.584-9.579zm-44.965 8.917c1.195.924 2.317 1.714 3.844 2.285.488.26 1.111.447 1.599.706 4.507 1.579 9.032 1.578 13.294-.198-7.72.852-12.9-.363-18.737-2.793zm-8.029-17.462c1.724-6.16 4.282-9.806 8.074-13.422-5.465 2.774-8.394 7.667-8.074 13.422zm46.241-22.681c2.711 1.153 5.578 2.919 5.578 2.919s-.78-.8-2.39-1.849c-1.33-.852-2.233-1.236-2.929-1.558-2.576-1.226-5.129-1.766-7.953-2.16-.892-.042-1.65-.156-3.228-.177-1.847.125-2.936.364-2.936.364s6.838-.551 13.858 2.461zM30.224 33.526c1.11-3.34 2.498-9.88 1.943-10.436-.694-8.487-7.355-15.166-13.322-18.644C-8.77-11.416-52.485 18.36-47.627 43.544c1.526 7.792 5.55 13.636 11.657 17.253 6.8 3.896 19.29 4.314 29.142 2.087.694 5.427 10.963 20.454 25.257 28.663 38.024 21.845 61.338-33.254 11.796-58.021zM-34.581 58.57c-11.519-6.54-14.433-20.314-9.715-29.498C-24.59-9.05 27.31-3.068 30.363 21.977c2.776 23.237-41.354 50.23-64.945 36.594zm54.815 30.75c-9.992-5.705-18.457-16.14-24.84-26.437.693 1.114 19.289-10.296 21.648-12.244 0 0 .139 0 .139.14 4.718-3.897 9.853-9.323 13.183-14.75.278-.417 22.343 9.462 25.95 32.003 3.054 18.505-12.628 34.924-36.08 21.288z" fill="#59204B"/><path d="M17.735 84.451c-6.245-4.035-10.963-9.044-13.878-12.94-1.387-1.948-2.359-3.757-2.914-5.009a22174.398 22174.398 0 01-.971-1.948s0 .14.138.557c.14.417.278.834.417 1.53.416 1.252 1.249 3.2 2.498 5.427 2.359 4.035 5.412 7.513 9.159 10.574a65.487 65.487 0 004.58 3.34c3.191 2.087 6.66 3.617 9.852 4.452 6.384 1.809 11.657 1.392 16.653-.556-8.882 2.087-17.763-.557-25.534-5.427zM5.661 61.771c1.25-.417 2.637-.974 4.025-1.809 3.608-1.948 6.244-4.313 8.465-7.235-4.857 3.34-9.853 6.4-16.098 9.044-.971.418-1.665.696-2.22.974-.555.279-.833.279-.833.279s.278 0 .833-.14c.555 0 1.387-.139 2.359-.417.971 0 2.22-.278 3.47-.696zM-8.355 21.42c4.719-3.339 18.735 5.566 19.845-7.791-3.192 16-17.763-3.34-24.563 11.827-1.804 4.174-2.775 6.957-7.216 7.652-2.498.418-16.653-.834-14.71 7.375-.555-4.87 4.718-6.261 9.575-5.983 15.543.696 11.518-9.323 17.07-13.08z" fill="#59204B"/><path d="M-32.778 32.83s.277-.556 1.11-1.113c3.747-2.922 10.685 2.226 14.571-1.809 1.11-1.113 4.857-16.418 18.04-10.574-13.044-8.488-18.873 9.044-19.289 9.461-2.637 2.922-7.771.14-11.934 1.67-2.082.835-2.498 2.365-2.498 2.365zM26.06 46.048c14.155 5.844 10.131 16.976 13.323 21.706 1.804 2.783 8.049 4.87 6.383 8.766-1.387-5.426-5.69-6.122-7.632-8.07-.833-.835-1.388-1.948-1.388-3.34-.139-1.39 0-2.782 0-4.313-.139-1.53-.416-2.922-.971-4.174-1.943-3.757-5.829-6.818-11.102-6.54 13.183 1.531 9.298 13.915 10.963 17.532.277.835.833 1.53 1.388 1.948 1.804 1.53 10.13 4.035 8.326 12.801.694-1.809.971-3.618.416-5.844 2.637-3.757-3.885-7.096-5.273-9.6-.555-.975-.833-1.948-.971-3.2-.14-1.392.277-14.75-13.461-17.672zm11.519 31.724c-4.58-2.226-7.216-5.844-8.465-10.157-.417-1.809-.417-3.478-.417-5.148.139-3.34-.832-6.957-4.024-7.096 2.914.974 2.914 4.035 2.637 7.096-.14.835-.278 1.67-.14 2.783 0 .974.14 1.948.417 3.06 1.249 4.175 4.58 8.071 9.992 9.462zM2.47 29.352c-7.355-3.34-9.992 5.844-10.27 6.261-1.11 1.809-3.885 1.948-7.91 2.922-2.358.557-3.746.974-3.746.974 1.804 0 5.412-.14 8.049-.417 1.943-.279 3.885-.835 4.996-2.505.832-1.392 1.804-8.488 8.881-7.235zM-1.138 15.02c.555.279 1.526.14 1.804-.556.277-.696.139-1.392-.555-1.81-1.527-.834-2.776 1.531-1.25 2.366zm7.355.835c-.972-.556-1.665.835-.833 1.392.972.695 1.665-.835.833-1.392zm.139 13.497c.416-.557 0-1.53-.694-1.67-.278 0-.555-.14-.833 0-1.943.556.417 3.618 1.527 1.67zm9.02-12.662c-.555 1.113 1.11 1.809 1.526.835.278-.418.139-.974-.277-1.252-.417-.14-.972 0-1.25.417zM2.054 23.23C.527 22.395-.86 24.76.666 25.595c1.527.974 2.914-1.53 1.388-2.365zm35.804 26.019c.277-.557.138-1.253-.417-1.67-.555-.278-1.388-.14-1.665.417-.833 1.531 1.388 2.644 2.082 1.253zm5.827 7.652c1.11.696 2.22-1.113.972-1.809-1.11-.556-2.22 1.253-.971 1.81z" fill="#59204B"/><path d="M43.964 65.11c.555-1.112-1.11-1.947-1.666-.973-.555 1.113 1.11 1.948 1.666.974zm-11.52-3.06c.278-.557.139-1.531-.833-1.67-1.11-.14-1.665.974-.971 1.809.694.834 1.526.417 1.804-.14zm5.83 10.435c-1.11-.696-2.081 1.113-.971 1.809 1.11.556 2.22-1.113.971-1.809zm11.518-.835c1.11.696 2.082-1.113.971-1.67-1.11-.695-2.081.974-.971 1.67zm-30.947-9.322c-.555 1.113 1.11 1.948 1.665.974.417-1.252-1.249-1.948-1.665-.974zm.001 9.462c1.11.556 2.081-1.114.971-1.67-1.11-.696-2.082.974-.971 1.67zm10.546-28.246c-.417-1.113-1.388-.974-1.666-.417-.694 1.67 2.082 1.947 1.666.417zm9.992 38.82c1.11.696 2.081-1.113.971-1.809-1.11-.556-2.081 1.252-.971 1.809zm9.158-1.252c.555.278 1.388 0 1.388-.557.277-2.644-3.33-.417-1.388.557zM3.302 37.978c-.138.835.694 1.392 1.25.835h.138c.417-.417.278-1.113-.139-1.252-.555-.417-1.249-.14-1.249.417zM-1.693 7.785c-.555 0-.972.696-.694 1.252 1.11 1.948 2.914-1.252.694-1.252zm40.8 46.612c.971.556 1.665-.835.833-1.392-.972-.556-1.805.835-.833 1.392zm-13.6-5.566c.832-.417.277-1.67-.556-1.53-.416.139-.693.556-.555.974 0 .556.555.834 1.11.556zm18.872 21.01c1.11.696 2.082-1.113.971-1.808-1.11-.557-2.081 1.113-.971 1.808zM29.808 74.99c-.694-.279-1.249.556-1.11 1.113.139.556 1.11.974 1.527.417l.138-.139c.278-.557.278-1.113-.555-1.391zM15.514 12.655c.833-.278.972-1.113.417-1.67-1.665-1.948-2.637 2.226-.416 1.67zm4.719 7.792c.971.556 1.804-.974.832-1.392-.832-.556-1.665.835-.832 1.392zm-9.159 3.061c-.694-.14-1.11.556-.555 1.113.277.278.694.417.971.139.417-.278.278-1.113-.416-1.252zm-6.107 45.22c-.139-.278-.416-.556-.555-.834-.139-.279-.277-.418-.416-.696l-.833-1.252s.278.556.555 1.39c.139.28.278.418.278.697l.416.834c.278.557.694 1.392 1.11 2.087 2.36 3.757 5.135 6.958 9.16 10.019a45.722 45.722 0 006.522 3.756c1.11.418 2.081.835 3.053 1.253.555.139.971.278 1.387.417 3.747.974 4.58.974 6.8 1.252-3.053-.834-4.163-1.113-7.91-2.782-.971-.418-1.804-.835-2.914-1.392-1.943-1.113-4.024-2.365-6.106-3.896-4.58-3.478-7.494-6.678-10.547-10.853z" fill="#59204B"/><path d="M24.951 27.96c.555-1.67.971-3.2 1.11-4.452.139-1.252.139-2.226.139-2.922 0-.696-.139-.974-.139-.974v.974c0 .696 0 1.67-.277 2.783C22.73 41.874-9.742 62.049-31.807 53.84c-8.05-3.06-11.935-9.461-11.38-16.14-4.024 27.689 55.37 26.297 68.138-9.74z" fill="#59204B"/><path d="M18.568 31.578C.944 55.928-31.529 59.545-41.243 42.013c8.326 19.063 43.99 16.558 59.811-10.435z" fill="#59204B"/><path d="M-28.477 49.527c11.796 4.035 23.314 1.809 33.028-6.4-10.546 6.122-20.538 8.209-33.028 6.4zm44.685-4.035c-4.995 3.896-9.991 7.374-16.236 10.575l-3.053 1.53c.971-.14 1.665-.278 3.33-.696 6.107-1.809 11.657-5.565 15.96-11.41zM13.71 6.95c2.776 1.53 5.967 3.757 5.967 3.757s-.832-1.113-2.497-2.366c-1.388-1.113-2.22-1.53-3.192-2.087-2.776-1.53-5.551-2.365-8.604-2.922a22.888 22.888 0 00-3.747-.278c-2.082 0-3.47.278-3.33.418-.14 0 7.77-.418 15.403 3.478zm39.967 60.526c-.139 0 .277 1.113.416 2.922 1.11 10.575-5.967 15.305-5.967 15.305.278.835 8.465-5.009 6.522-15.305-.277-1.809-.832-2.922-.971-2.922zm-43.02-5.426c1.665-.974 4.163-3.34 3.747-3.757-.139-.14-1.665 1.67-4.163 3.06-2.498 1.392-4.719 1.81-4.719 1.949 0 .696 3.747-.557 5.135-1.252zm46.381 61.043c-.013-.277-.158-.408-.158-.408.145.131.29.263.158.408z" fill="#59204B"/><path d="M182.646 179.657c4.061-7.958-1.027-15.767-6.617-16.616 5.117-12.031-2.818-24.285-14.999-32.456.449-8.068-5.127-14.466-8.594-17.357-3.045-2.771-6.763-5.094-9.861-6.06-.316-.817-.764-1.49-1.489-2.15l-1.595-1.451c-3.916-3.563-9.439-5.941-13.75-6.156l-.29-.264c-4.931-4.487-13.592-5.747-18.668-4.539-1.78.5-4.219 1.723-4.377 4.228-4.904-3.933-11.483-5.152-17.02-4.894-9.848.044-18.26 6.957-17.97 7.221-2.136-1.149-4.944-1.85-7.158-1.747-3.178.287-5.88 1.8-8.017 3.565-1.331 1.172-2.267 1.91-3.085 2.225l-.685.171c-3.56.999-8.214 2.326-10.93 9.389-2.717 7.064-1.11 14.619 4.243 19.224 1.16 1.056 2.452 1.967 3.862 2.456.936 2.176 7.237 6.321 12.63 5.931.711.383 1.291.91 2.28 1.28 3.995 2.311 8.767 6.389 14.66 4.865l.58.528 1.885 1.716.29.263 2.175 1.98c1.305 1.188 3.322 2.758 5.326 4.052l1.147.779c2.293 1.557 3.862 2.455 7.422 1.457l1.885 1.715 2.03 1.848c3.731 2.6 7.725 4.911 12.142 4.427.329 1.094 1.212 2.163 2.808 3.615 1.45 1.319 3.308 2.481 4.455 3.26 4.878 3.379 9.874 3.423 10.125 2.857.554-.026.962-.184.962-.184 5.906 4.58 14.501 10.283 23.031 8.775 1.055 4.667 6.103 8.732 11.667 9.027.448.673.751 1.214 1.331 1.742 4.06 3.695 11.628 2.37 15.122-.013 8.596-5.95 6.883-12.807 3.047-14.709zM58.052 138.584c-1.411-.489-4.878-.466-8.61-3.067 3.06.135 5.894-1.523 7.424-4.37 1.41-2.424 1.411-5.337.304-8.199.58 3.441-1.808 17.426-14.767 7.487-8.476-6.124-5.152-23.759 7.676-25.329 5.892 4.303 10.955 8.644 12.668 15.501 1.726 7.133.064 13.038-4.696 17.977zm1.7.753c4.931-4.254 7.331-12.135 5.763-18.859-1.555-6.448-6.893-13.69-13.538-16.293.673-.448 1.622-.909 2.426-1.501 3.64-2.251 7.001-4.489 12.248-2.098 1.134.502 2.149 1.426 3.15 2.073 4.285 2.574 7.739 11.014 7.884 11.146 1.226-.473-3.902-9.113-6.71-12.727.58.528 1.147.779 1.727 1.306 9.413 8.301 13.076 26.997 3.846 40.053l-1.16 1.858c-7.239 2.418-10.297-3.543-15.636-4.958zm33.511 16.192c-.962.184-2.346.249-4.192-.636.567.251 2.162-1.211 2.426-1.501 1.846-2.028 2.281-4.546 2.703-7.34-1.714 4.797-4.246 6.996-6.553 8.075-1.002-.647-1.872-1.439-2.597-2.099l-.29-.263-.145-.132c2.558-1.646 4.39-3.951 5.788-6.652 2.915-5.824.964-8.924 1.083-9.346-1.254 5.747-3.495 11.123-8.466 14.546l-.435-.396c-1.595-1.451-3.467-2.89-5.18-3.92l-.146-.132c3.732-3.226 6.105-8.747 6.923-14.89.779-4.059.199-7.501.199-7.501-.54-8.437-4.006-17.154-10.822-23.356-.434-.396-1.014-.924-1.581-1.175.408-.158.962-.183 1.37-.341 9.967 8.275 11.456 16.251 11.956 18.032.804 2.32.384-9.452-10.202-19.085.132-.145 15.637-6.696 24.324.945 6.525 5.938 12.337 26.06 3.199 43.967-1.398 2.701-3.23 5.007-4.918 7.444-1.306 1.725-2.743 3.596-3.89 5.731l-.554.025zm37.387 16.012l-2.149 1.488c-.422-.119-.553.026-.83.039-2.492.116-4.443-.07-7.462-2.288l-.145-.132c28.491-13.538 33.095-39.28 32.054-40.757 0 0-2.745 23.99-34.084 38.91-1.819-.331-3.546-1.638-4.851-2.826l-1.45-1.319-.725-.66s5.986-5.413 6.052-9.855c-.765 1.423-4.497 7.563-8.9 8.323-2.479.393-5.168-.73-8.898-3.33l-.146-.132c21.479-18.067 15.443-45.809 15.482-39.151-.226 15.687-6.133 28.587-17.353 37.712l-1.292-.911c3.718-3.503 6.54-8.351 8.583-12.054 6.119-11.384 7.294-24.618 2.299-39.229-1.437-3.956-2.571-7.371-1.001-9.387 1.714-1.884 5.721-2.21 13.421-.765 2.096.318 3.665 1.216 5.101 2.259 5.076 4.618 2.952 12.486 3.822 13.278.989.37 1.913-6.471.054-10.546-.303-.54-.751-1.214-1.331-1.741 4.627 1.032 11.14 3.78 13.288 8.119l.013.277.026.554c1.7 15.32-6.172 27.757-5.302 28.548.145.132.553-.025.553-.025 2.163-4.125 3.904-8.368 5.077-12.862.818-3.229 1.491-6.59 2.019-10.083.105-.698.211-1.397.184-1.951.119-.421-.184-.962.37-.988.685-.171 1.542.344 2.254.727.857.515 1.846.885 2.702 1.4 2.149 1.426 4.034 3.141 5.933 5.133 1.173 1.333 2.346 2.666 3.11 4.156 1.516 2.704 2.215 5.723 2.069 8.505-.132 3.058-1.094 6.155-2.215 8.843-1.372 3.255-3.31 6.259-5.248 9.263-2.202 3.293-4.681 6.6-7.028 9.761l-.264.29c-6.144 7.917-9.23 10.142-13.792 13.407zm3.309 5.395c9.875-5.317 18.472-14.18 23.311-23.285 2.796-5.402 1.82-5.496 1.82-5.496s-1.279 2.28-2.057 3.426c-5.881 10.541-14.649 18.719-25.513 23.666l-1.015-.924c7.054-3.382 20.265-17.317 29.179-34.103.884-1.845 1.978-5.087 2.071-6.062l5.075 4.618c3.19 2.904 6.103 5.82 7.724 10.738 3.111 9.982-3.442 18.057-6.488 21.113-12.829 13.223-21.636 14.744-34.107 6.309zm24.889 12.85c5.458.994 13.765-5.221 13.606-5.63-.145-.132-9.44 5.713-15.188 4.455l-.58-.528c-1.305-1.187-2.346-2.665-3.124-4.432 9.176-2.509 19.303-14.219 21.558-19.319 5.392 2.523 6.986 6.888 4.718 11.711 0 0 1.675-2.714 1.767-3.69 1.12 8.965-13.107 21.977-22.757 17.433zm6.104 2.906c7.185-.613 14.332-7.883 16.903-12.165 7.738 8.101-7.53 19.635-16.903 12.165z" fill="#59204B"/><path d="M96.8 116.103c-.989-6.196-3.744-11.617-8.147-16.683-.158-.409 8.16 16.96 8.146 16.683zm21.212 8.444c1.977 6.566-4.59 20.191-4.59 20.191.145.132 2.439-4.137 2.571-4.282 5.024-8.142 2.928-14.287 2.019-15.909zm38.255 34.284c.132-.145.765-1.423.343-1.542-.145-.132-.395.434-.395.434-6.105 8.748-13.964 15.635-16.139 16.569.817-.315 1.648-.354 2.452-.947.132-.145 6.487-3.632 11.3-10.377.91-1.291 1.819-2.582 2.439-4.137zm13.812 33.76l.422.119c3.296-.709 6.131-2.367 8.227-4.962.264-.29-8.649 4.843-8.649 4.843zm-20.181-18.896c13.382-4.509 15.044-13.327 15.044-13.327-5.393 9.131-10.232 9.495-15.044 13.327zm14.331-2.056c-2.136 1.764-5.643 3.87-9.401 6.543 5.208-1.353 9.796-6.978 9.401-6.543zM57.54 116.133c4.06 6.609 2.873 7.913 1.673 11.853 1.978-2.173 2.004-4.533 2.004-4.533-.672-5.379-3.677-7.32-3.677-7.32zm5.444-2.196s3.705 4.96 4.614 9.496c.909 4.535-1.979 10.913-1.979 10.913 1.319-1.449 3.164-3.477 3.178-9.027.159-5.418-5.668-11.25-5.813-11.382zm10.428 3.397c-2.188-5.17-8.186-8.774-8.331-8.906 0 0 4.179 3.273 7.33 8.259 2.701 4.313 1.277 12.288 1.277 12.288.58-2.386 1.912-6.471-.276-11.641zm38.947-15.414c1.358 2.295 2.135 6.976 2.319 7.938.752-4.613-2.464-8.07-2.319-7.938zm-70.937 40.702C4.152 97.243-73.85 95.005-113.157 124.715c-37.881 28.285-44.805 87.706 69.449 107.241 99.183 17.093 128.714-36.425 85.13-89.334zm-11.608-8.546c-6.925-3.053-16.7-3.053-23.218-.814-4.277-7.123-13.034-14.041-21.18-16.076 3.869.407 19.144 2.238 23.013 2.849 8.147 3.866 15.275 8.546 21.385 14.041zm-134.824-12.21c10.794-3.459 12.423-3.866 24.847-7.326-1.222 0-6.518.204-12.22 1.221 13.238-5.291 27.901-8.14 42.158-8.343-6.517.61-43.584 5.291 4.48 1.424 26.476-2.035 42.973 6.716 45.417 7.123-14.053-1.628-18.534-.204-16.497.814 0 0 12.016 7.122 17.108 12.006 2.444 2.442 5.702 6.308 5.702 6.308s14.256-4.884 28.31 4.68c-6.722-1.831-12.22-2.035-18.33-1.628 3.258.611 12.22 1.628 24.439 6.716 1.222 1.221 2.444 2.849 3.666 4.477-9.98-6.512-25.865-8.14-26.476-7.733-1.018 1.221 2.444 6.715 3.666 9.564 7.128 15.059 7.739 29.507 2.444 45.786 0-2.035-.611-4.07-1.426-6.105-4.684-29.506-28.105-50.466-29.53-49.449-14.053-2.645-26.07-2.238-38.493 3.663-.203 1.221.815 31.745 6.721 49.246-9.572-16.28-20.773-33.17-28.309-50.467a1.12 1.12 0 00-1.018-.61c-9.98-3.256-50.101 24.215-42.769 18.518 0 0 6.925-5.902 13.442-10.582 5.295-3.866 10.794-7.326 16.7-10.175 5.906-2.645 8.146-2.645 8.146-4.273 0-1.017-2.85-5.494-3.462-6.308 0 0-6.11-8.751-7.535-10.785-.204-.204-.408-.407-.611-.407-2.648 0-13.646-.204-26.273 6.104 3.666-2.442 4.277-2.442 5.703-3.459zm-29.327 36.425c7.331-32.966 38.899-35.408 48.064-37.443.61-.203 1.222.204 1.425.611 2.037 3.256 9.165 13.838 9.98 14.855-11.813 3.663-23.421 10.378-32.586 18.925-31.364 29.506 4.277-1.221 37.88-8.547h.205c6.517 12.617 13.645 25.233 21.18 37.239a109.866 109.866 0 004.074 6.309l3.055 4.273c.407.407.814 1.018 1.221 1.425 3.259 2.238 1.222-5.291 1.019-6.716-.611-3.459-1.222-6.918-1.833-10.581-1.222-7.326-2.444-14.855-2.851-22.385-.204-2.035-1.222-10.174 1.832-10.988 11.405-2.035 22.2-4.07 33.808-1.832 20.57 16.483 29.531 58.199 30.346 57.792 0 .611 16.904-33.373-3.055-57.995 31.364 8.75 29.938 12.006 35.03 26.861 33.807 98.084-206.513 66.339-188.794-11.803z" fill="#59204B"/><path d="M-61.834 218.322c-40.936-10.378-54.785-22.791-65.172-37.036 8.758 18.111 23.829 28.896 64.357 39.681 27.698 7.53 92.462 15.262 110.588-12.616-18.94 25.843-83.908 16.686-109.773 9.971zm36.252-103.985c12.22 8.546 22.199 17.093 31.771 30.524a145.887 145.887 0 018.758 14.651c1.222 2.442 2.24 4.681 3.055 6.919.407 1.017 1.018 2.035 1.221 3.256.408 1.017.815 2.035 1.019 3.052.814 1.832 1.222 3.663 1.629 5.088.204.814.407 1.424.611 2.238.204.611.407 1.221.407 1.832.611 2.238.815 3.459.815 3.459s-.204-1.221-.407-3.459c0-.611-.204-1.221-.204-1.832 0-.61-.204-1.424-.407-2.238-.408-1.628-.611-3.46-1.222-5.291-.204-1.018-.611-2.035-.815-3.053-.204-1.017-.61-2.238-1.018-3.255-.611-2.239-1.63-4.681-2.648-7.123-2.24-4.884-5.091-10.174-8.554-15.262-9.368-13.837-20.366-22.384-34.011-29.506z" fill="#59204B"/><path d="M13.113 160.53c-4.277-11.396-11.608-21.367-22.606-29.71 2.444 3.256 12.016 14.651 21.384 30.32a808.294 808.294 0 003.259 5.495s-.204-.611-.408-1.628a85.865 85.865 0 01-1.629-4.477zm7.74-2.035c-1.018-5.698-4.277-12.82-9.776-18.518-1.629-1.628-2.647-2.442-2.647-2.442l1.629 3.256c3.462 7.122 7.535 13.43 10.794 17.704zm8.35 58.606c-42.77 8.547-92.666-1.221-132.177-19.128 38.9 21.773 90.222 31.134 132.177 19.128zm3.055-56.978c-1.833-.407-2.24 2.442-.611 2.645 1.833.407 2.444-2.238.61-2.645zm-26.68-33.577c1.426.407 2.648-2.238-.204-2.645-1.222-.204-2.24 1.831.204 2.645zm31.567 46.397c-.814-1.018-2.24 0-1.629 1.221.407 2.035 3.666-.204 1.63-1.221zm-9.572-21.367c.61-.203.814-.61.61-1.017-1.018-2.849-2.443 1.831-.61 1.017zm19.755 43.141c1.833.407 2.444-2.646.611-2.849-1.833-.407-2.444 2.442-.61 2.849zm40.844 61.002c16.971 14.319 56.93 29.562 79.255 10.927 9.346-7.947 11.775-21.468 10.773-31.549-4.516-46.296-76.678-73.14-102.59-46.185-8.031 8.266-11.627 18.162-10.601 28.528 1.147 11.787 7.493 22.419 15.377 30.918a97.937 97.937 0 007.786 7.361zm7.222-74.919c61.979-8.663 98.726 57.965 71.482 82.742-25.114 22.879-94.52-6.918-98.301-46.26-1.777-19.179 12.106-34.382 26.82-36.482z" fill="#59204B"/><path d="M135.002 217.12c7.967 2.765 9.173 27.004 26.075 16.987-21.654 9.701-11.206-23.968-34.718-19.264-6.467 1.404-10.529 2.463-15.206-2.011-2.646-2.497-13.19-20.364-21.147-11.246 5.323-4.744 11.34.333 15.285 6.3 11.931 19.038 20.533 5.713 29.711 9.234z" fill="#59204B"/><path d="M100.829 197.524s.983-.226 2.323.377c6.628 2.161 6.377 14.352 14.508 15.671 2.323.377 23.53-7.855 27.857 12.684-.93-22.687-26.735-14.64-27.612-14.852-5.499-.682-6.794-9.163-12.121-12.866-2.729-1.775-4.955-1.014-4.955-1.014zm33.983 39.228c-2.414-11.537-15.203-7.022-16.056-6.95-3.128.264-5.539-2.826-10.191-7.016-2.493-2.367-4.32-3.644-4.32-3.644 1.461 2.024 4.846 6.464 7.387 9.399 1.9 2.131 4.214 4.083 7.342 3.82 1.966-.453 11.164-5.094 15.838 4.391zm1.772-34.656c.194 2.275 3.891 1.963 3.697-.312-.348-2.404-3.89-1.962-3.697.312zm11.99 18.032c.227.983 1.022 1.918 2.005 1.692.983-.226 1.918-1.021 1.691-2.004-.218-2.559-3.89-1.963-3.696.312zm5.113 9.591c-.145-1.706-2.55-1.36-2.275.192.145 1.706 2.55 1.36 2.275-.192zm-31.249-34.018c.194 2.275 3.89 1.963 3.697-.312-.194-2.274-3.89-1.962-3.697.312z" fill="#59204B"/><path d="M118.031 202.802c.17 1.99 3.298 1.726 3.128-.264-.324-2.12-3.297-1.726-3.128.264zm-22.115 4.3c-.472 1.185 1.437 1.74 1.624.578.057-1.007-1.128-1.479-1.624-.578zm-3.535-14.594c.17 1.99 3.451 1.857 3.258-.418-.324-2.12-3.582-1.702-3.258.418zm27.491 31.902c.926.781 2.453.223 2.64-.938.279-3.46-5.263-1.274-2.64.938zm18.04 16.805c1.137-.096 1.763-1.151 1.382-2.265-.179-.414-.357-.829-.796-.935-2.005-1.692-3.844 3.618-.586 3.2zm22.763-.058c-1.836.298-1.334 2.833.218 2.559.699-.202 1.219-.819 1.17-1.388-.048-.568-.665-1.089-1.388-1.171zm-58.445-22.132c-.617-.52-2.063-.685-2.56.216-.495.901-.577 1.624.064 2.429.642.805 2.063.685 2.714-.086.65-.771.399-2.038-.218-2.559zm39.384 11.856c-.218-2.559-4.199-2.223-3.981.335.218 2.559 4.353 2.354 3.981-.335zm-22.799 6.36c-.351 2.607 3.76 2.117 2.843-.24-.024-.284-.178-.414-.332-.544-.642-.805-2.218-.815-2.511.784zm-24.641-23.693c.366-.747.318-1.315-.324-2.12-.332-.545-.795-.936-1.494-.733-3.258.418-.084 5.734 1.818 2.853zm-.608-2.096s.13-.155 0 0c.13-.155.13-.155 0 0zm14.94 30.812c.049.569.666 1.089 1.364.887 3.186-1.271-1.582-3.446-1.364-.887zm16.675 2.459c-.13.155-.13.155 0 0-1.243.535-1.122 1.956.194 2.275l.154.13c.878.212 1.528-.558 1.455-1.411-.202-.699-1.104-1.196-1.803-.994zm31.413-31.285c-.487-.675-1.624-.579-1.99.167-1.179 2.964 3.939 2.532 1.99-.167zm-23.308 5.402c-1.552.274-1.715 1.719-.944 2.37 2.006 1.692 3.218-2.562.944-2.37zm-5.663-12.695c-.487-.675-1.648-.863-2.299-.092-1.926 2.596 4.426 3.206 2.299.092zm15.226 7.306c-.145-1.706-2.834-1.336-2.559.216.015 1.86 2.705 1.49 2.559-.216zm-31.477-16.531c.163-1.446-.762-2.227-1.567-1.586a1.284 1.284 0 00-.78.925c-.862 1.647 1.948 2.699 2.347.661zm54.202 41.246c.926.781 2.169.247 2.356-.914.847-3.508-4.979-1.299-2.356.914zm-5.263 12.184c.275 1.552 2.55 1.36 2.405-.346-.121-1.421-2.55-1.36-2.405.346zm-11.318-8.494a.892.892 0 00-1.706.144c-.106.438.097 1.137.69 1.373.463.391 1.243-.534 1.016-1.517z" fill="#59204B"/><path d="M155.311 262.227c2.511-.784 4.583-1.675 6.086-2.517 1.503-.843 2.722-1.662 3.527-2.302.804-.641 1.064-.949 1.064-.949s-.414.178-1.219.819c-.804.64-1.893 1.305-3.551 2.017-24.482 11.801-75.567-9.662-84.55-42.838-3.186-12.188 1.263-22.156 9.43-27.14-36.094 18.364 15.801 88.011 69.213 72.91z" fill="#59204B"/><path d="M145.751 257.592c-43.712-.465-75.52-36.011-62.866-62.278-15.7 25.808 17.527 66.246 62.866 62.278z" fill="#59204B"/><path d="M84.571 216.792c5.198 17.316 17.531 29.305 35.384 33.813-15.951-7.389-26.822-17.353-35.384-33.813zm42.76 49.8c-8.667-2.562-17.252-5.847-26.242-10.53-2.395-1.23-2.395-1.23-4.353-2.353.95 1.065 1.722 1.716 3.727 3.408 7.073 5.704 16.25 9.225 26.868 9.475zm-56.324-54.383c-.22 2.453-.466 4.621-.248 7.18.073.853.3 1.836.372 2.689 1.662 7.735 5.89 13.678 12.712 18.114-8.289-9.896-11.111-17.82-12.836-27.983zm20.429-25.777c11.358-2.82 19.7-2.378 28.911-.148-9.477-5.357-19.761-5.063-28.911.148zm79.398 44.561c.542 4.679.588 10.259.588 10.259s.553-1.908.726-4.929c.066-2.583-.055-4.005-.176-5.426-.672-4.525-1.734-8.588-3.803-12.709-.69-1.373-1.355-2.463-2.841-4.771-1.794-2.57-3.182-3.741-3.312-3.587-.285.024 6.77 8.879 8.818 21.163z" fill="#59204B"/><path d="M-69.286 314.276c8.907 15.256 23.327 28.817 37.323 39.199 4.03 2.967 8.483 5.933 12.936 8.688 2.333 1.483 4.665 2.754 7.21 4.238 1.06.635 5.09 3.39 6.362 3.178-4.453 1.059-8.27 2.966-9.543 7.628-.212.212-.424.424-.424.636-2.545 4.026-4.665 8.475-6.15 13.137-.636 1.907-1.484 3.602-1.06 5.509 7.21 31.148 76.98 63.567 132.328 52.337 13.36-2.755 18.661-6.357 23.115-18.647.212-.635 2.333-8.051 1.272-7.628 9.543-4.661 11.664-5.509 15.905-16.527 1.909-4.662 3.817-9.535 4.453-14.62 1.697-3.179 2.545-6.781 2.545-10.807.424-15.044-8.907-27.122-20.994-35.597 44.533-65.05-144.628-145.78-205.278-70.983-10.18 12.077-7.635 27.333 0 40.259zm106.88 81.365c-9.119-4.873-18.238-10.17-22.267-20.129-2.544-6.145-3.18-13.561 0-19.494 7.635-14.62 24.6-4.238 40.08-11.866 53.228-26.062 93.521 6.569 97.126 32.419 4.241 30.512-58.106 49.159-114.939 19.07zm88.219 25.003c-58.53 18.647-111.758-10.382-119.392-41.53 1.484-4.238 2.544-8.476 4.029-12.713.848 6.144 1.696 11.23 5.301 16.527 3.181 4.662 7.635 8.264 12.3 11.23 46.442 29.665 99.67 23.52 119.604 5.509-7.634 16.74-2.332 14.621-21.842 20.977zm-140.599-36.657c2.12 7.628 9.119 14.621 14.633 19.282 21.206 18.647 52.804 31.36 81.644 27.334 17.39 1.483 33.931.212 49.411-6.992-.848 4.873-6.786 15.256-6.15 15.044-4.241 2.754-35.202 13.985-81.008 1.271-35.627-9.959-52.38-26.91-63.62-45.98 1.485-4.026 3.182-5.933 4.454-8.899.212-.212.424-.636.636-1.06zm13.784-12.289c9.967-3.39 4.878-.636 4.03 9.111-.212 2.967.424 3.602 1.696 6.357 8.695 20.765 30.537 32.419 51.956 38.987-16.117-3.178-31.598-8.687-46.018-18.858-7.846-5.509-18.45-13.561-21.843-23.096-1.484-4.449-.636-8.263 3.817-10.382 2.121-1.06 4.454-1.484 6.362-2.119zm53.865-96.622c63.831-12.925 99.882 36.657 79.948 67.593-49.623-31.36-76.767-.636-88.855 1.059-6.574.848-28.417-1.695-32.87 16.316-.212.212-.424.424-.424.636-6.786-3.391-12.088-10.383-12.512-18.859 0-2.542.212-5.085.848-7.204 1.273-4.238 3.393-7.416 4.878-9.323 1.696-1.907 2.757-2.755 2.545-2.966 0-.212-1.485.423-3.393 2.33-1.909 1.695-4.454 4.662-6.15 9.323-.849 2.331-1.485 4.874-1.485 7.628-.212 9.536 5.514 17.799 13.148 22.037-.424.848-1.06 2.119-1.272 2.755-11.452-4.662-17.177-16.952-17.177-26.91 0-.848 0-1.696.212-2.543.212-1.695.636-3.39 1.06-5.085 1.697-6.569 5.302-12.502 9.33-17.587 17.39-21.401 45.807-38.14 75.496-36.021 38.171 2.542 52.804 27.545 52.804 27.545 2.544-1.483-23.115-34.326-67.86-29.452-5.302.635-10.816 1.695-16.33 3.602-11.027 3.602-22.055 9.747-32.233 18.01-5.09 4.238-9.968 8.9-14.42 14.197-8.06 9.747-11.028 18.01-11.664 26.91-.637 9.535 5.301 22.46 15.056 28.605-.212 0-.424 0-.636.212-40.716-23.308-3.605-81.578 51.956-92.808zm-32.234-26.91l-2.545.636s20.57-.212 52.592 12.289c-2.757-.211-15.269-.211-15.056 1.272h.424c4.24 0 8.694.635 12.936 1.271 7.422 1.271 15.48 2.967 22.266 6.357-23.75-4.45-50.471 1.271-70.83 13.349-29.688 17.587-51.107 51.065-33.717 75.856-1.273-.847-2.545-1.695-3.818-2.754-12.511-20.765 0-41.742 0-41.742-1.484-1.06-13.148 17.163-5.725 37.716-2.333-1.483-4.454-3.178-6.786-4.874-2.333-25.003 7.422-49.794 28.204-66.109 5.09-4.026 10.18-6.992 14.845-9.323 4.665-2.119 8.906-3.814 12.3-4.662 6.573-1.907 15.692-3.178 8.058-2.331-2.333.212-6.15.848-8.27 1.484a74.033 74.033 0 00-12.724 4.237c-4.878 2.119-9.967 5.086-15.27 8.9-21.205 15.891-31.809 40.259-30.748 65.262-.425-.212-.849-.636-1.273-.848-4.453-25.215 9.755-45.344 9.755-45.344-1.272-1.06-15.693 18.222-13.784 42.166 0 0-1.272-1.06-2.757-2.331-2.12-9.323-.848-18.011 1.273-23.943 2.12-6.569 4.665-9.959 4.453-10.171-.212-.212-3.393 2.966-6.362 9.535-2.757 6.357-4.03 13.773-3.393 21.189-.848-.636-2.757-2.543-3.605-3.39 5.726-53.397 52.168-74.374 52.168-74.374s-.849.212-2.333.848c-.848.212-1.697.636-2.757 1.271a20.13 20.13 0 00-3.605 1.907c-23.115 12.714-41.989 36.657-46.654 67.381l-.424-.424c-1.06-10.806 1.272-20.765 4.029-27.333 2.757-6.781 8.695-15.68 3.181-8.688-1.272 1.695-3.181 4.238-4.877 7.84-2.97 5.721-5.726 14.197-5.938 23.944l-.637-.636c-.636-12.29 2.545-23.308 5.938-30.724 3.393-7.204 10.18-16.527 3.818-9.111-1.485 1.695-3.606 4.449-5.726 8.263-3.605 6.357-7.21 15.892-7.847 27.122-1.06-1.271-1.908-2.754-2.757-4.026 1.273-9.111 3.818-15.044 5.302-18.858.636-1.271 1.06-2.331 1.697-3.602.424-1.271 1.06-2.331 1.696-3.39.636-1.06 1.273-2.119 1.697-3.179 2.544-4.025 5.09-7.839 7.846-11.018 5.514-6.357 10.603-10.594 14.42-13.137.849-.636 1.697-1.271 2.545-1.695.848-.424 1.485-.848 1.909-1.271 1.06-.636 1.484-1.06 1.484-1.06s-.636.212-1.696.636c-.636.212-1.273.635-2.12 1.059-.85.424-1.698.848-2.758 1.483-4.029 2.331-9.543 6.357-15.268 12.714-2.97 2.966-5.726 6.78-8.483 11.018-3.605 5.933-7.422 12.713-10.391 23.732 1.06-9.959 4.453-18.647 7.422-24.579 3.605-7.205 6.998-11.019 6.574-11.231-.848-.635-7.21 8.052-8.482 10.171-3.394 5.509-6.999 13.349-8.907 22.884 0-.212-.212-.636-.212-.847 0-19.07 11.663-33.267 11.663-33.267-.636-.848-10.39 9.111-13.996 23.096.212-22.037 31.173-54.032 92.036-46.616z" fill="#59204B"/><path d="M15.54 393.099c-2.545-3.391-4.242-6.993-4.878-9.535-.424-1.272-.636-2.331-.636-3.179 0-.847-.213-1.271-.213-1.271s.212.424.637 1.059c.424.636.848 1.696 1.484 2.755 1.273 2.331 3.181 5.297 5.726 8.476 2.545 3.178 4.877 5.721 6.998 7.416 1.697 1.483 1.909 1.695 3.18 2.754-1.483-.635-2.332-.847-4.028-1.907-2.545-1.059-5.726-3.178-8.27-6.568zm25.023 1.059c-4.241-2.331-8.058-4.873-10.815-7.628-1.485-1.271-2.757-2.543-3.817-3.814s-1.909-2.543-2.757-3.602c-.636-1.06-1.485-2.119-1.909-2.967-.636-.847-.848-1.695-1.272-2.33-.636-1.272-.848-1.907-.848-2.119 0 0 .424.635 1.272 1.695.424.636.848 1.271 1.484 2.119.637.847 1.273 1.695 2.121 2.754.848 1.06 1.909 2.119 2.969 3.391 1.272 1.059 2.333 2.33 3.817 3.602 2.969 2.542 6.574 4.873 10.815 6.992 18.45 9.535 68.285 19.494 92.884 4.238 2.969-1.695 5.302-4.026 7.423-6.357 2.12-2.331 3.817-5.085 4.665-8.052 6.786-22.036-30.325-40.259-38.596-41.742 5.302.424 22.267 5.933 32.87 17.375 6.574 6.992 10.816 15.892 8.059 25.215-.848 3.39-2.757 6.357-5.09 8.899-2.332 2.543-4.877 5.086-8.058 6.993-25.872 16.527-76.555 5.721-95.217-4.662zm-22.478-48.523c-2.97 1.696-4.03 3.179-5.302 4.45.849-1.483 1.697-3.39 4.454-5.509 1.696-1.483 4.24-2.543 6.998-3.602 11.24-3.602 22.69-.212 32.446-5.721-9.543 9.323-27.357 4.026-38.596 10.382zm82.068-26.486c-3.393-1.271-1.484-6.356 1.909-5.085 3.393 1.059 1.484 6.357-1.909 5.085zm-15.905-5.509c-2.757-1.059-1.272-5.297 1.484-4.238 2.757.848 1.273 5.298-1.484 4.238zm-17.178 9.323c-3.181-1.059-1.484-5.933 1.696-4.873 2.97 1.059 1.485 5.933-1.696 4.873zm-10.18-20.129c2.546.847 1.061 4.873-1.484 4.026-2.544-1.06-1.06-4.874 1.485-4.026z" fill="#59204B"/><path d="M99.517 372.122c-2.545-.848-1.272-4.874 1.485-4.026 2.544.847 1.06 4.873-1.485 4.026zm-24.6-8.9c-2.332-.847-1.06-4.449 1.273-3.602 2.332.848 1.06 4.45-1.273 3.602zm-43.897-4.661c1.272-3.179 5.726-1.06 4.665 1.695-1.272 2.966-5.725 1.059-4.665-1.695zm100.943 26.062c-1.272.636-3.181-.212-3.393-1.695v-.212c-.212-2.331 2.333-3.602 4.029-1.907l.212.212c1.061 1.059.637 2.966-.848 3.602zm-13.149-25.003c-.424.212-.636.212-1.06.424-1.272.424-2.545-.848-2.545-1.907-.424-4.874 7.847-1.272 3.605 1.483zm-79.099-34.75c-1.484-.635-2.545-2.542-1.909-4.026.637-1.695 2.333-2.542 4.03-1.907 4.029 1.484 1.696 7.416-2.12 5.933zm-16.965 8.264c-.849-1.483.212-3.39 1.908-3.602 2.97-.424 4.454 3.602 1.697 4.873-1.485.636-2.97 0-3.605-1.271zm3.817-21.825h-.212c-1.273-.212-2.12-1.483-1.697-2.542.424-1.272 1.909-1.696 2.97-1.06 0 0 .211 0 .211.212 1.485.848.636 3.602-1.272 3.39zm57.47-15.68c-2.12-.847-1.06-3.814 1.06-3.178.212 0 .424.212.848.424 1.909.847.849 3.814-1.908 2.754zm44.957 33.479c-1.908.424-2.756-1.271-2.332-2.543 1.272-3.814 6.15 1.695 2.332 2.543zM50.53 382.08s0-.211.212-.211c.636-1.06 2.545-.424 2.333.847v.212c-.212 2.119-3.605 1.059-2.545-.848zm47.291-27.121c.424-.424.636-1.06.424-1.696-1.06-3.178-8.058-5.297-10.815-2.966-.636.636-1.273 1.695-.848 3.602.212.636.636 1.483 2.12 1.907 2.757.848 7.635.636 9.119-.847zm-1.06-1.06c-.424.636-4.878 1.483-7.422.424-.637-.212-1.06-.424-1.06-.848-.213-1.271.211-1.695.423-1.907.849-.847 2.97-.847 4.878 0 .212 0 .424.212.636.212 1.484.636 2.333 1.483 2.545 2.119zm-29.689-58.27c.424-.847.848-2.118 0-4.025-2.121-4.026-14.42 3.39-7.21 5.721 2.12.847 5.725.423 7.21-1.696zm-5.726.424c-.424 0-.848-.212-1.272-.212-.425-.212-.849-.423-1.06-.847-.213-.848 4.24-3.602 6.149-2.967 1.484.636 1.06 4.45-3.817 4.026zm-36.9 25.215c.424-.847.848-2.119 0-4.026-.212-.424-.636-.847-1.272-1.059-2.757-1.06-9.755 2.754-8.059 5.297.425.636 1.06 1.059 1.909 1.483.424.212 1.06.212 1.697.424 2.12.212 4.665-.212 5.725-2.119zm-1.272-.847c-.636 1.059-2.333 1.695-4.241 1.483-.425 0-.849-.212-1.273-.212-.424-.212-.848-.424-1.06-.848-.212-.847 4.241-3.602 6.15-2.966.212 0 .212.212.212.212.424 1.059.424 1.695.212 2.331zm96.7-1.696c5.09-4.237-3.605-8.475-8.27-4.237-3.181 2.754 4.665 7.204 8.27 4.237zm-1.06-1.271c-1.696 1.483-5.938 0-6.362-1.695.212-.636 4.03-1.907 6.15-1.059 1.273.423 1.06 2.118.212 2.754zm-63.83 48.311c1.06-.848 1.484-1.907 1.272-3.178-.212-1.06-.848-1.696-1.908-2.331-1.909-1.06-5.302-.848-6.998 1.059-1.06 1.06-1.06 2.331-.425 3.814.425.848 1.06 1.483 1.909 1.695 1.697.848 4.453.424 6.15-1.059zm-1.06-1.271c-1.273 1.059-3.181 1.483-4.454 1.059-.424-.212-.848-.424-1.06-.848-.424-.847-.212-1.483.212-2.118.848-1.06 3.18-1.484 4.665-.848.212 0 .212 0 .424.212.637.212.849.636.849 1.059.212.636-.425 1.272-.637 1.484zm79.522 5.721c-.212 0-.212-.212 0 0-2.757-2.543 2.968-5.298 3.393-1.907v.211c0 2.119-2.121 2.967-3.393 1.696zM9.601 282.069c-2.12-.636-.848-4.026 1.06-3.179 2.121.848 1.06 4.026-1.06 3.179zm14.209-25.427c2.332.847 1.06 4.449-1.273 3.602-2.332-.848-1.06-4.45 1.273-3.602zm22.478 9.535c.848.635.424 2.119-1.484 1.483-1.485-.212-.637-2.966 1.484-1.483zm859.23 57.577a99.78 99.78 0 00-8.087-11.515c-8.332-10.045-20.341-20.335-36.27-30.135-2.695-1.96-5.636-3.92-8.577-5.88l-9.557-5.88c-3.921-2.205-7.842-4.41-11.763-6.37-7.352-3.675-14.459-8.821-22.056-12.496-6.862-3.43-14.458-5.635-21.565-8.085-3.676-1.225-7.107-1.47-10.783-2.45-6.372-1.96-12.498-5.88-18.87-8.085-21.565-8.33-36.269-5.39-35.044-4.655-11.763-5.635-23.526-9.31-35.534-10.535-11.273-1.225-22.546-.735-32.593 1.225-.98 0-1.961.245-3.186.245-13.969 1.715-23.526 10.29-25.977 22.05-2.45 11.515 1.961 24.256 13.234 36.016 11.273 11.76 26.467 20.825 40.925 29.155 41.171 23.766 85.282 39.201 128.903 50.716 20.83 5.635 42.886 12.25 62.981 13.23h1.471c35.043 3.675 48.522-18.62 32.348-46.551zm-55.139-46.55c1.96 1.715 4.166 3.675 6.371 5.635 5.882 5.39 11.273 10.045 15.194 13.475 3.676 3.185 6.127 5.39 6.372 5.635-.245-.245-2.206-2.695-5.392-6.125-2.695-2.94-6.371-6.86-10.537-10.78 21.075 15.925 30.633 35.525 35.044 48.021-7.352-17.151-30.878-42.631-50.728-58.066.98.735 2.45 1.47 3.676 2.205zm-59.55-28.911c.98.49 1.96 1.225 3.185 1.96.981.735 2.206 1.47 3.431 2.205 1.226.735 2.451 1.715 3.676 2.45 2.451 1.715 5.146 3.675 7.842 5.636 5.391 4.165 11.028 8.82 16.664 14.21 5.637 5.39 10.538 10.535 14.704 15.435 1.961 2.45 4.166 4.9 5.637 7.105.735 1.225 1.715 2.205 2.45 3.185.735.98 1.471 2.205 2.206 3.185 1.47 1.96 2.45 3.675 3.676 5.39l1.47 2.205c.49.735.735 1.225.98 1.96 1.226 2.205 1.961 3.43 1.961 3.43s-.49-1.225-1.716-3.675c-.245-.49-.49-1.225-.98-1.96-.245-.735-.735-1.47-1.225-2.205-.98-1.715-1.961-3.43-3.186-5.39-.735-.98-1.225-1.96-1.96-3.185-.736-1.225-1.471-2.205-2.206-3.43-1.47-2.45-3.431-4.9-5.391-7.35-4.167-5.145-9.068-10.535-14.704-15.925-2.451-2.205-4.656-4.41-7.107-6.37 5.636 4.41 11.273 9.31 16.419 14.7 17.155 18.13 24.997 37.975 36.76 57.331-13.234-12.005-40.681-55.616-74.744-83.057 1.715 1.225 3.43 2.45 5.146 3.921 4.411 3.43 9.312 7.595 14.213 12.005 4.902 4.41 9.313 8.82 13.234 12.74 1.96 1.96 3.676 3.92 5.391 5.88 1.716 1.715 3.186 3.675 4.411 5.145 1.471 1.47 2.451 3.185 3.676 4.41.981 1.225 1.961 2.45 2.696 3.43l2.206 2.94s-.736-.98-1.716-2.94a19.673 19.673 0 00-2.206-3.43c-.98-1.225-1.96-2.94-3.185-4.655-1.226-1.715-2.451-3.43-4.166-5.39-1.471-1.96-3.186-3.92-5.147-6.125-3.676-4.165-8.087-8.82-13.233-13.23a198.987 198.987 0 00-14.704-12.006c-2.45-1.715-4.656-3.43-6.862-4.655-2.205-1.47-4.166-2.695-6.126-3.92-1.961-1.225-3.676-2.205-5.146-2.94-1.471-.98-2.941-1.47-3.921-2.205 0 0-.245 0-.245-.245-.736-.49-1.226-.735-1.961-.98 2.206.735 5.882 2.205 9.803 4.41zm2.205 35.771c-.245-.49-.735-.98-.98-1.715-.49-.49-.735-1.225-1.225-1.96-.981-1.47-1.961-2.94-3.186-4.655-.735-.735-1.226-1.715-1.961-2.695l-2.205-2.94c-1.471-1.96-3.431-3.92-5.392-6.125-3.921-4.165-9.312-8.821-14.458-13.231-5.392-4.41-17.645-12.495-25.977-17.395 0 0 23.036 11.515 35.289 23.765 6.862 6.616 12.988 13.231 17.644 19.356 4.657 6.37 8.333 12.25 11.028 17.15 2.696 4.9 4.411 9.065 5.392 12.005.49 1.47.98 2.45 1.225 3.185.245.49.245.98.49.98 0-.245 0-.49-.245-.98-.245-.735-.49-1.96-.735-3.185-.735-2.94-2.206-6.86-4.411-12.005-2.206-5.145-5.637-11.27-10.293-17.64-4.656-6.615-10.538-13.475-17.889-20.091-7.352-6.615-14.949-12.25-22.301-16.66-6.862-4.165-13.479-7.35-19.115-9.8 24.261 7.35 47.052 27.44 58.325 41.651 15.929 20.335 21.81 41.405 31.368 62.476-18.135-22.541-29.653-47.286-50.238-69.091-6.127-6.616-12.988-12.741-20.34-18.621-11.518-9.065-15.684-10.535-20.585-13.72 2.94.245 18.624 10.29 30.877 20.335 5.147 4.165 9.803 8.576 13.724 12.496 1.96 1.96 3.921 3.92 5.636 5.88.736.98 1.716 1.715 2.451 2.695.735.98 1.47 1.715 2.206 2.45 1.47 1.715 2.45 3.185 3.676 4.41.49.735.98 1.225 1.47 1.715s.735.98 1.225 1.47l2.206 2.94s-1.471-.49-2.696-2.45zm-35.044 25.97c-12.988-19.11-30.388-37.975-49.257-53.901-17.645-14.945-38.965-27.685-60.531-32.585 35.534-9.8 96.065 32.095 109.788 86.486zm116.16 57.331c-23.281-.245-139.686-26.215-213.205-75.951-15.193-10.29-29.897-24.255-32.103-39.446-1.47-10.29 2.941-19.6 11.028-24.745 6.862-4.41 17.645.735 26.467 4.655 7.842 3.43 15.194 7.595 22.546 12.495 19.114 12.25 35.779 27.931 50.237 44.101 7.107 7.84 12.989 16.66 20.586 24.01.49.49.245-2.45.245-2.45-.245-1.225-.49-2.45-.981-3.675-.735-2.205-1.47-4.655-2.205-6.86-1.716-4.655-3.676-9.31-5.882-13.72-4.656-9.065-10.537-17.885-17.644-26.216-13.724-15.925-32.103-29.89-52.444-36.505a91.725 91.725 0 00-11.027-2.94c8.577-.49 17.399-.245 26.957 1.47 40.68 7.35 73.273 38.711 96.799 72.766 4.901 7.35 9.558 14.7 14.704 21.805 2.451 3.675 5.146 7.105 8.087 10.781 1.96 2.45 5.636 7.595 8.577 9.065.98.49-2.205-10.291-2.45-11.271-1.226-4.165-2.941-8.575-4.412-12.74-2.94-7.595-6.616-15.19-10.782-22.785-6.862-12.005-15.439-24.01-26.467-34.546-11.028-10.535-24.751-20.09-39.21-24.99 34.064 8.085 62.981 30.136 86.017 56.106 9.067 10.29 17.154 20.825 25.486 31.36a264.736 264.736 0 0010.538 12.741c1.47 1.715 3.186 3.675 4.901 5.39l5.637 5.635c.735.735 1.715.49 1.47-.49-.98-3.185-2.941-5.635-3.921-7.84-1.47-3.185-2.941-6.616-4.656-9.801a254.926 254.926 0 00-10.783-19.355c-8.332-12.985-18.625-25.235-31.613-36.015-10.292-8.331-23.526-17.641-35.779-22.296 23.281 9.065 46.072 21.806 65.677 38.221 13.478 11.27 25.241 24.255 34.309 37.73 2.94 4.41 5.881 9.066 8.087 13.476.245.49.49.735.735.98s.735.49 1.225.49c.49 0 .49-.735.245-1.225-1.47-5.88-3.921-11.516-6.371-17.396-3.431-7.35-7.843-14.945-14.459-21.56 10.537 10.29 20.585 19.355 26.957 31.116.98 2.45 1.47 4.9 1.715 6.86.49 3.185.49 5.635.245 7.35 0 .735-.245 1.47-.245 1.96v.735s0-.245.245-.49c.245-.49.49-.98.49-1.715.49-1.47.981-3.92.735-7.105 6.617 22.54-11.272 33.32-34.308 32.83z" fill="#59204B"/><path d="M900.861 351.685c.245-.735.49-1.225.735-1.47.245-.245.245-.49.245-.49s0 .245-.245.49-.49.735-.735 1.47c-.735 1.225-1.961 2.94-4.166 4.655-2.206 1.715-5.391 3.43-9.558 4.655-4.166 1.225-9.557 1.715-15.684 1.47-6.126-.245-13.233-1.47-20.83-2.94-3.921-.735-7.842-1.715-11.763-2.695l-12.498-2.94c-17.154-4.41-36.269-10.045-56.119-17.15-39.7-14.211-75.235-31.361-99.741-45.571-6.126-3.675-11.518-7.35-15.929-10.78-4.411-3.43-7.842-6.615-10.538-9.555-2.695-2.695-4.411-5.145-5.636-6.615-1.225-1.715-1.715-2.45-1.715-2.45s.49.735 1.715 2.45c.98 1.715 2.941 3.92 5.391 6.86 2.451 2.94 6.127 6.37 10.293 9.8 4.411 3.675 9.803 7.35 15.684 11.27 24.506 14.945 60.04 32.586 99.986 47.041 20.095 7.105 39.21 12.74 56.609 16.905 4.411.98 8.577 1.96 12.743 2.94 4.166.735 8.087 1.715 12.008 2.45 7.597 1.47 14.949 2.45 21.076 2.45 6.371.245 11.763-.49 15.929-1.96 4.166-1.225 7.352-3.185 9.312-5.145 1.716-1.96 2.941-3.92 3.431-5.145z" fill="#59204B"/><path d="M667.317 284.554c1.715.98 3.43 2.205 5.391 3.43 1.96 1.225 4.166 2.45 6.371 3.92 2.206 1.225 4.657 2.94 7.352 4.165 10.293 5.88 22.791 12.25 36.76 18.375 13.968 6.125 29.652 12.251 46.072 17.886a978.295 978.295 0 0046.561 14.7c14.214 4.165 27.202 8.085 37.985 10.29 10.783 2.205 19.36 2.45 24.751 1.96.736 0 1.226-.245 1.961-.245.49 0 1.225-.245 1.715-.245s.981-.245 1.471-.245c.49 0 .735-.245 1.225-.245a18.068 18.068 0 001.961-.49s-.736.245-1.961.49c-.245 0-.735.245-1.225.245-.49 0-.981 0-1.471.245-.49 0-.98.245-1.715.245-.49 0-1.225 0-1.961.245-5.391.49-13.968-.245-24.751-2.695-10.783-2.45-23.526-6.615-37.74-11.025-14.213-4.41-29.897-9.31-46.316-14.945-16.42-5.636-31.858-11.516-45.827-17.396-13.969-5.88-26.467-12.005-36.759-17.395-2.696-1.225-4.902-2.695-7.352-4.165-2.206-1.225-4.411-2.45-6.372-3.675-1.96-1.225-3.921-2.45-5.636-3.43-1.716-.98-3.186-1.96-4.657-2.94-5.391-3.675-8.577-5.635-8.577-5.635s2.941 2.205 8.332 5.88c1.226.735 2.696 1.715 4.412 2.695zm8.087-57.086c.735.245 1.715.735 2.696 1.225 1.96.98 4.166 1.715 6.371 2.94 1.225.49 2.451 1.225 3.676 1.96 1.225.735 2.451 1.47 3.921 2.205 2.696 1.47 5.637 3.185 8.577 5.145 5.882 3.92 12.008 8.33 18.135 13.475 5.881 5.146 11.273 10.536 15.684 15.681 2.205 2.45 4.166 4.9 5.881 7.35.736 1.225 1.716 2.205 2.451 3.43.735 1.225 1.47 2.205 2.206 3.185 1.47 1.96 2.45 3.92 3.43 5.635.491.735.981 1.47 1.226 2.205.245.735.735 1.47.98 1.96 1.225 2.45 1.96 3.675 1.96 3.675l-1.47-3.675c-.245-.49-.49-1.225-.735-1.96-.245-.735-.735-1.47-1.225-2.45a42.012 42.012 0 00-2.941-5.635c-.735-.98-1.225-2.205-1.961-3.185-.735-1.225-1.47-2.205-2.45-3.43-1.471-2.45-3.676-4.9-5.637-7.595-4.411-5.145-9.557-10.78-15.684-16.171-6.126-5.39-12.743-9.8-18.869-13.72-3.186-1.715-5.882-3.43-8.823-4.9-1.47-.735-2.695-1.47-4.166-1.96-1.225-.49-2.695-1.225-3.921-1.715-2.45-1.225-4.656-1.96-6.616-2.695-.981-.245-1.961-.735-2.696-.98-.735-.245-1.716-.49-2.206-.735-2.695-.735-4.166-1.225-4.166-1.225s1.471.49 4.166 1.715c.735-.245 1.471 0 2.206.245z" fill="#59204B"/><path d="M702.606 246.823c4.901 3.675 9.557 7.35 13.478 10.78 1.961 1.716 3.676 3.431 5.391 5.146l2.451 2.45 2.206 2.205c1.47 1.47 2.45 2.695 3.431 3.92.49.49.98 1.225 1.47 1.715s.735.98 1.225 1.47c1.226 1.715 2.206 2.695 2.206 2.695s-.735-.98-1.716-2.695c-.245-.49-.49-.98-.98-1.47-.245-.49-.735-1.225-1.225-1.715-.98-1.225-1.961-2.695-3.186-4.165-.735-.735-1.225-1.47-1.961-2.45-.735-.735-1.47-1.715-2.205-2.45-1.47-1.715-3.431-3.43-5.146-5.391-3.921-3.675-8.333-7.595-13.479-11.27-5.146-3.675-10.292-6.615-15.194-9.31-2.45-1.225-4.656-2.45-6.861-3.185-.981-.49-2.206-.98-3.186-1.225-.981-.49-1.961-.735-2.941-.98-1.961-.735-3.676-1.225-5.146-1.715l-2.206-.735c-.735-.245-1.225-.245-1.715-.49-2.206-.49-3.186-.735-3.186-.735s1.225.49 3.186 1.225c.49.245.98.49 1.715.735.735.245 1.225.49 1.961.735 1.47.49 3.185 1.225 4.901 1.96.98.49 1.96.735 2.941 1.225l2.94 1.47c2.206.98 4.411 2.205 6.617 3.43 4.166 2.205 9.312 5.39 14.214 8.82zm46.562 72.766c8.822 3.92 21.075 9.066 34.553 13.721 13.724 4.655 25.977 7.84 34.799 9.8 4.411.98 8.087 1.715 10.538 2.205 2.451.49 3.921.735 3.921.735s-1.47-.49-3.921-.98c-2.451-.735-6.127-1.715-10.538-2.94-8.822-2.695-21.075-6.37-34.799-10.78-13.478-4.655-25.731-9.066-34.553-12.496-4.411-1.715-8.087-3.185-10.538-4.165-2.451-.98-3.921-1.47-3.921-1.47s1.225.735 3.676 1.96c2.941.735 6.617 2.45 10.783 4.41zm-265.145-68.512c12.388-28.97 29.862-32.951 41.365-26.759-19.687-6.855-32.074 12.606-41.365 26.759zm-28.533 73.2c-5.309-7.962-4.203-16.365 0-29.413 2.654-7.961 7.078-14.374 10.618-18.576 2.212-2.433 4.424-4.423 6.414-6.192-1.327 1.327-3.096 3.317-5.53 6.634-3.096 4.423-7.078 10.836-9.511 18.576-4.424 13.712-6.194 20.346-1.991 28.971zm166.342-36.49c-20.351-13.268-40.701-26.98-63.042-42.902-2.655-1.769-4.867-3.317-7.079-4.644a28.797 28.797 0 00-5.972-2.212c-1.77-.221-3.097-.221-3.982 0-.442 0-.884.221-1.106.221h-.442s.221 0 .442-.221c.222 0 .664-.221 1.106-.221.885-.221 2.212-.442 3.982-.221s3.982.663 6.194 1.769c2.212 1.106 4.866 2.433 7.52 4.202 23.226 14.596 43.577 28.086 63.485 42.018 14.599 9.951 19.023 18.576.221 34.499 16.369-15.923 13.493-22.557-1.327-32.288zm-78.305 96.42c-1.548-.884-2.875-1.769-4.424-2.653-72.554-44.009-49.77-34.72-65.033-49.537 19.245 16.807-13.935 0 66.36 47.325 54.858 32.067 31.411 5.75 58.397-32.508 6.415-9.067 12.83-15.481 20.572-22.336-7.3 7.077-13.272 13.711-19.466 22.999-14.82 22.557-12.387 63.469-43.134 45.114-3.097-1.769-5.972-3.981-8.848-5.75-1.327-.884-2.875-1.769-4.424-2.654z" fill="#59204B"/><path d="M543.527 377.131c-2.876-1.769-5.751-3.539-8.185-5.087-7.299-4.423-12.829-8.403-15.926-10.836 3.539 1.99 7.521 4.644 16.59 9.509 2.654 1.327 5.53 2.875 8.406 4.645 20.129 11.057 28.534 22.114 36.276-1.548 1.328-3.981 2.434-7.962 3.761-11.721.663-1.991 1.327-3.76 2.212-5.308.885-1.769 1.769-3.317 2.654-4.865 1.77-3.096 3.761-5.75 5.53-8.182 4.203-5.529 8.185-9.952 12.387-14.596-4.866 6.634-7.963 10.394-11.281 15.48-1.548 2.433-3.318 5.308-4.866 8.183-11.503 21.009-5.973 51.306-38.047 29.854-1.548-1.105-3.318-1.99-4.866-2.874-1.77-.885-3.318-1.77-4.645-2.654zm26.102-93.988s-3.097-.663-3.318-4.423c-.221-3.096 2.433-5.307 5.53-4.644 1.106.221 2.212.885 2.875 1.548 1.328 1.327 1.106 2.654 1.106 2.433-3.539-6.856-12.166.663-6.193 5.086zm-32.959 4.202s-.663 0-1.548-1.106c-.442-.442-.664-1.105-.885-1.99-.221-.885 0-1.99.664-2.875.663-.884 1.548-1.327 2.433-1.548.885-.221 1.548 0 2.212.221 1.106.443 1.327 1.327 1.548 1.327-3.981-1.548-7.078 2.875-4.424 5.971zm-15.705 46.662c-.663-.442-1.327-1.106-1.548-1.99-.443-.885-.443-2.212.221-3.317.664-1.106 1.77-1.77 2.876-1.991 1.106-.221 1.99 0 2.433.443 1.327.663 1.548 1.769 1.548 1.548 0 0-.221-.222-.442-.222-.221-.221-.664-.442-1.327-.442-4.646-.663-4.646 5.087-1.328 6.413-.221 0-1.106.443-2.433-.442zm45.124-13.932c1.106-.221 2.212.221 2.876.663 1.548.885 1.548 1.991 1.548 1.991l-.442-.443c-.221-.221-.885-.442-1.549-.663-1.327-.221-3.318 0-4.202 1.548-.885 1.327-.222 3.538.663 4.423.443.442.885.884 1.327 1.106.443.221.664.221.664.221s-1.106.442-2.433-.664c-.664-.442-1.327-1.327-1.77-2.211-.442-1.106-.442-2.433.221-3.76.664-1.327 1.991-1.99 3.097-2.211z" fill="#59204B"/><path d="M572.504 355.458c.664.221.885.885 1.106 1.327.443.885 0 1.548 0 1.548-.442-.884-1.99-1.548-2.654-1.105-.885.442-1.327 1.769-.885 2.874 0 0-.663 0-1.106-.884-.221-.442-.442-1.106-.221-1.769 0-.664.442-1.548 1.327-1.77.885-.663 1.77-.663 2.433-.221zm34.729-45.998s-.664 0-1.549-.885c-.442-.442-.663-1.106-.663-1.99 0-.885.221-1.769 1.106-2.433.884-.663 1.769-.884 2.654-.663.885.221 1.327.442 1.77.884.884.885.663 1.548.663 1.548-2.212-2.874-6.636.885-3.981 3.539zm-139.135 7.076h-1.327c-1.106-.221-2.654-1.105-2.875-3.096-.222-1.99 1.106-3.317 1.99-3.759.443-.221.885-.221 1.328-.221h.442c-3.097 1.769-1.991 6.413.885 7.076h-.443zm51.54-81.16c1.327-1.106 3.097-.664 3.76-.222.664.664.664 1.327.664 1.106-2.212-1.548-4.867 1.327-3.539 3.317 0 0-.664 0-1.106-.884-.664-.443-1.106-2.212.221-3.317zm-19.023 57.498s-1.106.442-2.654-.664c-.664-.442-1.549-1.548-1.549-2.875-.221-3.096 3.761-5.307 6.194-3.538 1.106.885 1.548 1.99 1.548 2.875.221 1.99-.885 2.654-.885 2.654s0-.221.222-.664c.221-1.327-.443-2.875-1.77-3.317-1.548-.663-3.539.442-3.76 2.212-.222 1.326.884 2.653 1.99 3.317h.664zm-.222-40.691c-1.106-1.327-4.424-1.106-3.981 1.769 0 .663.442 1.106.442 1.106s-.664 0-1.327-.885c-.221-.442-.664-1.106-.664-1.769 0-.664.221-1.548 1.106-2.212.664-.663 1.77-.663 2.433-.442.664.221 1.328.442 1.549.885.663.884.442 1.548.442 1.548zm-24.554 37.374s-.442.221-1.106-.443c-.663-.442-1.327-1.548-.442-2.875s2.212-1.105 2.875-.663c.664.442.664.884.664.884-1.77-.221-3.097 1.77-1.991 3.097z" fill="#59204B"/><path d="M500.393 225.424c-15.263 11.278-23.447 35.826-28.314 41.354-2.433 2.875-5.087 5.971-7.963 9.51-3.318 4.201-5.972 8.624-8.184 13.047-1.106 2.212-1.77 4.423-2.434 6.635-.663 2.211-1.327 4.423-1.769 6.634-3.539 13.49-4.203 25.211 11.502 29.192-15.705-2.875-16.369-14.817-13.051-29.634.443-2.212 1.106-4.423 1.549-6.635.663-2.432 1.327-4.644 2.433-7.076 1.991-4.644 4.866-9.288 8.184-13.711 2.876-3.76 5.53-6.856 7.964-9.731.442-.663 10.617-21.23 18.802-31.182 17.253-21.23 36.719-17.691 43.134-5.971-7.079-11.057-21.457-10.172-31.853-2.432z" fill="#59204B"/><path d="M552.596 395.044c5.751 3.98 11.06 9.73 18.802 8.846 15.263-.443 17.917-9.731 21.678-16.808 3.981-7.519 6.857-15.48 10.617-22.999 15.927-32.066 53.088-49.316 39.374-74.969-5.309-9.73-18.581-13.932-27.429-19.682-37.383-24.768-36.498-29.634-53.088-38.479-4.424-2.433-9.069-3.318-13.935-4.644-.443-.222-.885-.443-1.328-.443-3.096-.884-3.76-1.99-5.751-4.644-1.548-1.99-3.318-3.759-5.309-5.529-27.428-23.883-54.636 13.269-65.475 37.595-4.645 10.616-11.502 13.933-18.359 28.528-2.876 6.414-5.309 12.827-7.3 19.461-8.406 28.086 10.175 42.018 26.102 37.374 11.502 18.798 68.572 47.547 81.401 56.393zm-13.935-166.303c-.222.221-.443.442-.443.664-3.981-12.606-19.908-20.346-32.737-15.481 21.677-12.826 37.825 10.394 33.18 14.817zm45.124 167.408c7.079-9.067 9.733-24.768 17.696-38.037 27.429-45.777 63.264-55.729 15.706-82.267-40.922-22.778-55.3-45.556-78.748-45.777 1.106 0 2.434-1.106 3.761-.885 7.521.222 14.157 1.548 20.571 5.308 9.512 5.529 17.475 13.49 26.102 20.124 33.401 25.432 53.309 25.875 54.415 44.009.885 17.249-15.041 24.989-33.622 50.642-11.724 16.365-19.023 40.249-25.881 46.883zm-22.341 1.327c-39.595-27.201-71.447-40.912-83.613-55.508-1.549-1.769-2.434-4.201-3.982-5.749-2.433-2.433-6.857 0-9.733-.222-9.511 0-18.138-9.951-17.696-22.114.221-6.414 2.655-12.163 4.424-18.355 1.991-6.635 4.645-12.827 7.963-18.798 3.982-6.856 9.512-12.605 13.715-19.461 7.521-12.605 14.82-25.874 26.544-35.162 16.147-12.606 35.392-2.654 37.825 9.73.221.664.885 1.327 1.548 1.327 13.051-.885 24.775 8.183 34.729 15.702 25.217 19.018 44.24 28.97 56.848 39.585 23.89 20.124-13.493 28.97-36.055 77.18-5.973 12.384-12.609 45.556-32.517 31.845zM395.008 153.247c-35.534-9.065-151.939-3.185-131.353 70.806.49 1.47.98 2.94 1.225 4.655.49 1.96 2.206 3.92 2.451 5.88-8.823-3.43-18.625-4.165-27.937-4.165-31.123.49-56.365 3.675-52.199 34.546.245 1.715 4.411 7.105 6.372 7.105-9.313.735-19.85.735-28.672 4.41-5.392 2.205-6.127 4.9-6.127 17.64 0 5.635-2.206 6.86 5.636 9.31 2.206.735 12.499 4.655 14.704 5.635 2.941 1.225 5.637 2.45 8.577 3.675-10.537-.735-21.565-.98-32.103 1.96-2.205.49-4.166 1.47-6.371 1.715-1.961.245-3.921.49-5.392 1.716-2.941 2.45-1.715 6.86-.49 10.045.98 2.695 2.451 5.145 4.411 7.105 8.332 8.575 22.056 11.025 33.329 12.495 55.384 7.105 125.717-13.965 127.432-18.62 5.392-1.715 14.949-5.88 14.459-10.29 1.225.49 14.213 3.43 21.81-1.716 15.929 3.186 18.38-8.82 63.962-15.925 9.312-1.47 19.605-2.45 28.427-6.615 22.056-10.535 8.822-54.391 12.253-84.036.49-3.185 2.696-5.88 2.696-9.065 0-25.971-31.123-41.651-57.1-48.266zm-202.421 93.346c3.43-4.9 56.119-26.705 94.839 2.695-2.451 5.391-4.411 11.271-5.882 17.886-11.273-6.125-52.933-18.131-91.163-6.125.49-1.715 1.961-13.231 2.206-14.456zm-30.633 53.656c0-6.37-.735 5.39.735-19.845 50.238-13.475 116.405.245 85.037 21.07-27.692-10.29-80.136-2.94-85.772-1.225zm3.676 1.47s38.475-2.45 55.139-2.45c20.34 0 35.289 10.535 66.657 24.011-3.186.245-6.127.735-9.068 1.225-7.842-1.47-23.28-4.165-43.376-6.37-62.981-6.861-42.886-10.536-69.352-16.416zm132.333 25.971l-.245-.245c.245 0 .245 0 .491.245 0-.245-.246 0-.246 0zm-23.28-2.695c-39.456 6.37-60.776 19.355-125.718-5.88 31.614-8.576 60.776 1.47 125.718 5.88zm-46.807 20.825c-23.036 2.94-84.547-1.96-83.322-25.235 0 0 .736-.245.981-.245 26.711 18.865 78.175 18.62 87.977 16.66-1.47 2.94-3.431 7.105-5.636 8.82zm2.94-.49c2.206-2.205 6.617-9.8 6.862-10.535 14.949-3.92 33.819-6.615 45.827-7.84-49.013 13.475-40.681 12.25.49 2.205-2.451.735-25.732 8.085-25.242 8.82l2.941-.735c12.253-3.43 21.076-5.635 33.574-8.82-8.087 3.43-33.574 12.495-64.452 16.905zm87.488-24.5c-28.428-16.906-30.633-16.906-1.716 1.715-1.225.98-2.205 1.715-3.431 2.205l.49-.735c-15.193-7.351-23.035-9.556-2.205 1.715-1.225.49-2.206.98-3.431 1.47-4.166-3.185-52.688-22.786-54.159-23.276-3.921-1.47-.735-2.94.98-5.145 2.206-2.695 3.431-6.37 3.186-10.045.245-.245.245-.49.245-.735 34.064 10.535 56.12 27.44 61.511 30.626v.245c-.49.735-.98 1.225-1.47 1.96zm3.431-4.166c-5.147-8.33-54.404-32.095-63.962-30.625 0 0-.735-1.715-.98-1.715-2.451-3.675-7.352-5.635-11.273-6.86-37.74-13.475-43.866 3.43-55.629-13.72 53.178-10.78 75.969 2.45 90.183 6.37 3.186 3.185 37.985 32.83 49.012 46.795-2.45-.49-4.901-.49-7.351-.245zm22.79-2.205c-12.008-9.31-13.478-9.31-1.96 1.47-12.988 8.331-23.771-24.5-59.305-46.06 1.96-.735 5.146-17.15 5.636-20.091 10.783 13.721 24.506 24.746 37.25 36.506 6.371 5.88 13.968 12.005 18.134 19.845.49.98 1.226 2.205 1.471 3.675-9.313-8.575-16.42-14.945-16.665-14.7-.245.245 6.862 8.085 16.42 17.885-.245.49-.491.735-.981 1.47zm3.676-.49c0-.245.245-.245.245-.49 2.696-.49 5.147-1.47 6.617-2.205 1.715-.735 2.451-1.47 2.451-1.715-.245-.245-3.431.735-7.842 1.47 1.47-6.86-10.293-14.945-44.357-49.49-1.47-1.47-14.703-14.701-16.909-15.436-3.676-4.41-9.802-8.33-18.38-11.27-.245-.98-4.166-13.72-4.656-15.19-18.87-52.431 83.812-70.561 91.899-20.09 1.225 7.595-.736 15.435-2.451 23.03-1.225 5.635-1.961 12.005-2.206 17.885-.49 12.496.981 25.236 3.431 37.731a128.09 128.09 0 002.941 13.23c1.715 7.105 8.577 21.315-10.783 22.54zm92.879-26.95c-10.048 10.78-54.894 8.82-76.95 23.52 3.676-7.105-16.174-64.191-5.636-90.161 24.016-6.615 35.534-.735 48.032-2.695 13.969-2.205 16.909-9.555 29.653-6.37 3.186.735 7.106 1.715 10.047.245-5.636 33.565 3.186 66.641-5.146 75.461zm-6.617-78.646c-10.047-1.715-22.3 4.41-31.858 5.88-15.194 2.45-31.613-3.675-44.111 4.41h-.245c7.107-16.905.98-35.036-14.949-44.101-15.929-9.31-37.74-8.33-51.953-3.92-5.637 1.715-12.743 4.655-17.4 8.82 3.676-3.43 8.578-7.35 13.234-9.8 47.542-22.54 141.401-24.5 158.31 26.216 4.411 12.005 3.676 14.945-11.028 12.495z" fill="#59204B"/><path d="M287.671 195.878c-2.696 0-5.392 2.45-5.392 5.145 0 1.47.49 2.45 1.471 2.94 1.715.98 2.695 0 2.695 0h-.735c-1.225 0-2.45-1.225-2.205-2.94.245-1.715 2.205-3.675 3.921-3.92 1.47-.245 2.94.98 3.185 1.96v.735c.245-.49.245-1.715-.49-2.695-.245-.735-1.47-1.225-2.45-1.225zm13.233 21.805c-1.225 0-2.205.49-2.94 1.225-.49.735-.735 1.715-.735 2.45 0 .245 0 .49.245.49v.245l.245.245c.245.245.49.245.735.245.49 0 .245-.49.245-.49h-.245c-.245 0-.245-.245-.245-.245-.49-3.185 5.636-3.43 4.656 1.96 0 0 .245-.245.245-.49.245-.245.49-.735.49-1.47s0-1.47-.49-2.205c0-.98-.98-1.715-2.206-1.96zm25.487 20.335c.98.245 1.715 1.715 1.715 2.695 0 .49 0 .98-.245 1.225 0 .245-.245.49-.245.49s.735-.245 1.226-1.47c.245-.49.245-1.47 0-2.205-.245-.735-.981-1.715-2.206-2.205-1.225-.245-2.206 0-2.941.49-.735.49-1.225 1.225-1.225 1.96-.245 1.225.245 1.96.245 1.96v-.49c0-.245.245-.735.49-1.225.735-.735 2.206-1.47 3.186-1.225zm-39.701-3.185c-.245-.49-.98-.98-1.715-1.225-.735-.245-1.715 0-2.696.49-.735.49-1.225 1.715-.98 2.695.245.98.735 1.47 1.47 1.47.491.245.981.245 1.226.245s.49-.245.49-.245h-.49c-.245 0-.49-.245-.735-.49s-.491-.735-.491-1.225c0-.49.246-.735.491-.98.49-.245.735-.49 1.225-.49.49 0 .98.245 1.225.245.49.245.735.49.98.735l.246.245v-.49c.245-.245 0-.735-.246-.98zm28.183-54.146c-.736-.735-1.716-1.47-2.941-1.47-.49 0-1.225 0-1.716.245-.49.245-.98.735-1.47.98-.735.98-.735 1.96-.49 2.695 0 .245.245.245.245.49s.245.245.245.49h.735c.49-.245.245-.49.245-.49.245-.49-.49.98-.735 0-.98-2.205 3.431-5.635 6.862 1.47v-.49c0-.49 0-.98-.245-1.47 0-.98-.245-1.715-.735-2.45zm-1.47 76.932c-.735.245-1.226.735-1.716 1.225-.49.49-.735 1.225-.735 1.96 0 1.225.735 2.205 1.471 2.94.735.49 1.47.735 1.96.735h.735s-.245 0-.735-.245-.98-.49-1.225-.98c-.49-.49-.735-1.47-.49-2.205 0-.735.735-1.47 1.47-1.715.98-.245 1.96-.245 2.451.245.735.49.98 1.225 1.225 1.96.245.735.245 1.47.49 1.715v.735s0-.245.245-.735c0-.49.245-.98.245-1.96 0-.735-.245-1.96-1.225-2.94-1.225-.98-2.696-1.225-4.166-.735zm28.427 5.39c.49.49.49 1.225.49 1.96 0 .49 0 1.225-.245 1.47 0 .245-.245.49-.245.49s.245 0 .49-.49c.245-.245.49-.735.735-1.47s.245-1.715 0-2.695c-.49-.98-1.225-1.96-2.451-2.205-1.225-.245-2.45 0-3.43.735-.736.735-.981 1.715-.981 2.45 0 .735.245 1.225.49 1.715l.491.49s0-.245-.245-.49v-1.47c.245-.49.49-1.225 1.225-1.47.49-.245 1.225-.49 1.96-.245.736 0 1.471.49 1.716 1.225zm-74.255-65.171c0 1.225.49 3.185 1.471 3.185-.245-.245-.491-.49-.491-1.47 0-1.225.736-3.92 1.961-4.165 2.451-.735 1.715 2.45 1.96 1.225 0 0 .246 0 .246-.49 0-.245 0-.98-.246-1.47-1.47-1.715-4.901-.49-4.901 3.185zm81.361 93.101c-.49-.735-1.47-1.47-2.696-1.47-1.225 0-2.205.735-2.695 1.715-.49.98-.49 1.96-.245 2.45.49 1.225 1.47 1.47 1.47 1.47s-.245-.245-.245-.49c-.245-.245-.245-.735-.245-1.225 0-.49.245-.98.49-1.47.49-.49.98-.735 1.47-.735 1.226 0 2.206 1.225 2.941 2.205.245.49.49.98.49 1.225 0 .245.245.49.245.49v-1.96c0-.735-.245-1.47-.98-2.205zm-17.399-15.19c-.735 0-1.47.245-2.206.735-.49.735-.735 1.47-.49 2.205 0 .735.49 1.225.735 1.47.736.735 1.471.49 1.226.49l-.245-.245c-.245-.245-.245-.49-.49-.735-.246-.735 0-1.715.245-2.205.49-.49 1.47-.735 1.96-.49.245 0 .735.245.735.245.245 0 .245.245.245.245s0-.49-.735-1.225c.245-.245-.49-.49-.98-.49zm-61.511-3.43c-.98-.245-1.961 0-2.941.735-.735.735-1.225 1.96-.98 2.695.245.98.98 1.715 1.715 1.715.735 0 1.226-.245 1.471-.735.245-.245 0-.49 0-.49s0 .245-.245.245c-.246.245-.736.245-.981 0s-.49-.735-.49-1.225c0-.49.245-.98.735-1.47s.981-.735 1.471-.735c.49 0 .98.245 1.47.49s.735.735.735.98c.245.245.245.49.245.49s.245-.735-.49-1.96c0 0-.735-.49-1.715-.735zm-49.503-8.82c-.245.98.245 1.47.49 1.47h.245c.245 0 .49 0 .735-.245v-.245c0 .245-.49 0-.245 0 .98-1.47 2.451-1.715 3.186-1.225 0 0 0-.49-.49-.98-1.471-.98-3.676-.245-3.921 1.225zm24.751 4.655c-.98-.245-2.205 0-2.94.735-.491.98-.245 2.205.245 2.94.735 1.225 1.715 1.96 2.695 1.96h.49c-.49-.245-.735-.735-1.225-1.225-.49-.735-.735-1.47-.98-2.45 0-.49-.245-.98 1.47-.98.981 0 1.961 0 2.941.49.245 0 .49.245.49.245s0-.245-.245-.49c-.49-.49-1.715-1.225-2.941-1.225zm42.887 23.765c.245.245.735-.245.49-.49 0 0 0 .245-.245.245-.49 0 0-2.205 0-2.695.49-1.225 1.715-1.225 2.696-.98.98.49 1.96 1.225 2.94 1.96 0 0 0-.245-.245-.49-.49-1.225-.98-2.205-1.96-2.695-1.471-.98-3.431-.735-4.166.49-.736.98-.736 2.205-.245 3.43.245.49.245.98.735 1.225zm-75.479 15.19c-.735-.245-1.961 0-2.696.735-.735.98-.735 2.205-.49 3.185s.98 1.47 1.716 1.715h.245c.735-.49.735-1.225.49-1.47 0 .245-.245.49-.49.735-2.451-2.695 2.45-5.145 3.676-1.715 0 0 .245-.735-.491-1.715-.49-.735-1.225-1.225-1.96-1.47zm24.016 7.84c-2.696-1.96 1.47-4.9 2.45-1.96 0 0 .246-.49 0-1.47a2.952 2.952 0 00-1.225-1.225c-1.715-.735-3.431.49-3.186 2.45 0 .735.49 1.225.736 1.47.49.735 1.225.735 1.225.735zm-47.297-7.35c.245.49.735.735.98.735h.491s-.245 0-.245-.245c-.245-.245-.246-.49-.246-.735s.246-.735.491-.98.49-.49.98-.49c.98-.245 1.96 0 2.941 0h1.47c-5.882-3.675-7.597 0-6.862 1.715zm17.643 16.906c-.735.245-1.225.735-1.47.98-.735.735-.98 1.225-.98 1.225s.49-.245 1.47-.49 1.961-.735 3.186-.245c.49.245.98.49 1.225.735.245.245.245.735.245 1.225 0 .49-.245.735-.49.98h-.49.49c.245 0 .735-.245.98-.735s.491-1.225.245-2.205c-.735-1.47-2.695-2.205-4.411-1.47zm23.282 2.94s.49-.245.49-1.225c-.245-2.695-3.921-3.43-6.127-.49.981 0 5.392-.98 5.637 1.715zm-47.542-9.065c-.98-.246-2.206 0-2.941.49-.735.49-1.225.98-1.715 1.47-.245.49-.49.98-.735 1.225v.49s0-.245.245-.49l.98-.98c.98-.735 2.205-1.225 3.676-.98 1.225.245 2.205 1.47 2.45 2.45.246.49.246.98 0 1.225 0 .245-.245.49-.245.49s.736-.49.981-1.715c0-.735 0-1.47-.49-2.205-.246-.49-1.226-1.225-2.206-1.47zm67.883-4.656s-.245-.49.49-.735c1.226-.245 3.186-.98 4.167-.245.49.245 1.225.98.98 1.715v.491s.735-.246.735-1.471c0-1.47-1.225-2.695-2.941-2.695-1.715 0-4.166 1.47-3.921 2.695.245.245.49.245.49.245zm95.819-85.261c-.245-.735-.735-1.47-1.471-1.96-.98-.49-1.715-.245-2.45 0-.735.245-1.226.735-1.471 1.225-.49.98-.245 1.715-.245 1.47 0 0 0-.245.245-.245l.736-.735c.735-.49 1.715-.735 2.45-.245.735.245 1.226 1.225 1.226 2.205v.98c0 .245-.246.49-.246.49s.736-.245.981-1.225c.49-.735.49-1.225.245-1.96zm-24.016-14.21c6.371-6.37-3.431-11.025-3.676-3.92 3.186-4.165 5.391-1.715 3.676 3.92zm13.479-16.17c.49-.735.98-2.205.735-3.43-.49-4.655-6.617-3.675-5.882-.735 0 .245.245.49.245.49s.245-1.715 1.961-1.715c2.451.245 2.941 3.43 2.941 5.39z" fill="#59204B"/><path d="M353.103 197.593c.735 2.205.98 4.41.98 6.37v4.9c0 1.47-.245 2.45-.245 3.185 0 .735-.245.98-.245.98s0-.49.245-.98c.245-.735.49-1.715.735-3.185.245-.735.245-1.47.245-2.205 0-.49 0-.98.245-1.225v-1.47c0-1.96 0-4.165-.49-6.615s-1.225-5.145-2.695-7.84c-11.273-20.336-51.464-26.706-75.97-2.45 29.163-23.521 71.313-12.741 77.195 10.535zm65.921 93.101c-5.881.49-13.968 1.715-22.546 3.675-8.822 1.96-16.419 4.655-22.055 6.615-2.696.98-4.901 1.96-6.372 2.695-1.47.735-2.45.98-2.45.98s3.43-.98 9.312-2.45a765.194 765.194 0 0122.056-5.39c8.577-1.96 16.419-3.675 22.3-4.9a633.38 633.38 0 019.313-1.96c-2.696.245-4.902.49-9.558.735zm-37.003 2.45c-2.451.98-3.921 1.96-3.921 1.96s1.715-.245 4.166-.735c2.695-.49 6.126-.98 10.047-1.96 3.921-.98 7.352-1.96 9.803-2.695 2.45-.735 4.166-1.225 4.166-1.225h-4.166c-2.696 0-6.372.49-10.293 1.225-3.921 1.225-7.352 2.45-9.802 3.43zm-25.243 1.715c-.245-1.47-.735-2.94-1.225-4.9-.735-3.675-1.715-7.84-2.451-12.495-.735-4.655-1.47-10.045-1.96-15.435-.49-5.635-.735-10.78-.98-15.681v-12.74c0-1.715.245-3.43.245-4.9 0-1.47.245-2.695.245-3.675.245-1.96.245-3.185.245-3.185s-.245 1.225-.49 3.185c-.245.98-.49 2.205-.736 3.675-.245 1.47-.49 3.185-.735 4.9-.49 3.675-.735 8.085-.98 12.985 0 4.901 0 10.291.49 15.926s1.471 10.78 2.451 15.68c.98 4.655 2.205 9.065 3.186 12.495.49 1.715.98 3.43 1.47 4.655.49 1.47.98 2.45 1.225 3.43.735 1.96 1.226 2.94 1.226 2.94s-.245-.98-.736-3.185c0-.98-.245-2.205-.49-3.675zm39.946-86.241c-5.636.49-12.253-.735-17.889-.49-3.921.245-6.127.98-8.577 2.205-.736.49-.736.49-1.226.98 0 0 .245 0 .735-.245.981-.49.491-.245 1.961-.735 5.391-1.96 11.763-.49 18.625.49 2.205.245 4.411.49 6.861.245 14.459-.98 26.712-11.27 41.416-6.125-14.214-7.35-28.672 2.45-41.906 3.675z" fill="#59204B"/><path d="M381.039 205.923c7.842 2.695 18.38 1.715 24.996-1.47-7.597.245-20.34.98-24.996 1.47zm58.817 71.541c1.715-17.64 1.715-42.386 0-60.026-1.471 17.64-1.471 42.386 0 60.026zm-5.147-19.11c1.715-7.841 2.205-18.866.735-26.951-1.716 8.085-2.206 19.11-.735 26.951zm-11.519-87.467c-1.715-.735-2.941-1.225-3.921-1.715-.98-.245-1.47-.49-1.47-.49s.49.245 1.225.735c.735.49 1.961 1.225 3.431 2.205 9.067 6.37 15.684 14.701 20.83 24.501-2.695-11.761-10.537-20.581-20.095-25.236z" fill="#59204B"/><path d="M423.19 176.277c2.206 2.94 8.578 10.291 14.214 15.436-2.206-6.615-8.332-12.986-14.214-15.436zm-51.218-15.68c5.637.49 10.783.98 15.684 1.715 2.451.49 4.657.735 6.862 1.225 2.206.49 4.166.98 5.882 1.47 1.715.49 3.431.98 4.901 1.225 1.47.49 2.696.735 3.676.98 1.96.735 3.186.98 3.186.98s-.981-.49-2.941-1.225c-.98-.49-2.206-.98-3.431-1.47-1.47-.49-2.941-1.225-4.656-1.715-1.716-.49-3.676-1.225-5.882-1.715-2.205-.735-4.411-1.225-6.861-1.715-4.902-.98-10.293-1.715-15.929-2.205-15.439-.98-27.692.98-40.681 4.655 12.989-2.205 24.506-3.185 40.19-2.205z" fill="#59204B"/><path d="M384.96 166.722c1.716.245 3.186.49 4.411.735.98.245 1.471.245 1.471.245l-1.471-.735c-.98-.49-2.45-.98-4.166-1.47-3.431-1.225-8.577-2.45-14.459-2.695-7.597-.245-13.968.98-20.34 3.185 4.166-.49 10.538-1.225 20.095-.735 5.882.245 10.783.735 14.459 1.47zm-7.351 2.94s-3.431-1.47-7.597-1.47c-4.166-.245-7.597.98-7.597.98s3.431 1.47 7.597 1.47c4.166.245 7.597-.98 7.597-.98zM242.334 296.329c-12.498-6.125-25.241-7.35-38.965-2.94 17.645-.98 28.182.735 38.965 2.94zm-3.676-6.37c-6.861-3.675-17.399-4.41-24.996-1.225 13.724.49 20.34.98 24.996 1.225zm13.234-34.3a162.547 162.547 0 0117.154 4.655c2.206.735 3.921 1.47 5.147 1.715 1.225.49 1.96.735 1.96.735s-.49-.49-1.715-.98c-.981-.735-2.696-1.47-4.902-2.695-1.96-.98-4.656-2.205-7.596-3.185-2.941-.98-6.127-1.96-9.558-2.695-3.431-.735-6.862-.98-9.802-1.226-2.941-.245-5.882-.245-8.088 0-3.675.246-5.146.491-7.351.736 4.656.245 12.743.49 24.751 2.94zm6.617-3.43c3.431.98 6.371 1.715 8.577 2.45l3.676 1.225s-1.225-.98-3.186-2.205c-1.96-1.225-4.901-2.696-8.577-3.676-3.431-.98-6.862-.98-9.312-.98-2.451.245-3.921.49-3.921.49s1.47.245 3.676.735c2.695.49 5.636 1.225 9.067 1.961zm4.901-3.921c1.47.49 3.186.49 4.166.49h1.96s-.49-.49-1.47-1.225c-.98-.735-2.451-1.225-3.921-1.715-1.715-.49-3.186-.49-4.411-.245-1.225 0-1.961.245-1.961.245s.736.49 1.716.98c.735.735 2.205 1.225 3.921 1.47zm-28.919 36.016c-4.656-3.185-12.008-3.185-16.419-.49 5.147.735 12.008.735 16.419.49zm23.773 16.415c6.126 4.655 15.439 9.065 22.79 11.025-6.126-4.655-15.438-9.065-22.79-11.025zm43.62-23.765c-3.431-3.185-6.862-5.635-9.558-7.105-2.696-1.715-4.411-2.45-4.411-2.45s1.47 1.225 3.676 3.43c2.206 1.96 5.146 4.9 8.577 8.085 4.656 4.165 10.538 9.31 12.498 11.025-1.96-3.43-6.126-8.575-10.782-12.985zM196.018 341.41c-7.597-.735-14.458-1.715-19.36-2.695-2.45-.49-4.411-.98-5.881-1.225-1.471-.245-2.206-.49-2.206-.49s.735.245 1.961.98c1.225.49 3.186 1.225 5.636 2.205 2.451.735 5.392 1.715 8.577 2.45 3.431.735 7.107 1.225 10.783 1.715 3.921.245 7.597.245 11.028.245 6.617-.245 11.273-.98 17.154-2.45-5.391 0-14.458.49-27.692-.735zm126.207-162.683c12.498 1.47 21.565 8.331 25.976 17.641.735 1.47 1.226 2.94 1.716 3.92.245.98.49 1.47.49 1.47v-1.47c0-.98-.245-2.45-.735-4.165-3.431-12.741-16.665-19.601-27.447-17.396zm64.696 41.406c-8.577-3.43-17.644-2.205-25.241 3.675 5.881-1.47 12.253-3.185 25.241-3.675zm-198.5 73.256c-7.352-1.96-16.91-.245-22.791 2.94 6.126.245 15.684-.98 22.791-2.94zm121.305-88.936c2.205.245 1.96-3.185-.245-2.45h-.491c-.735.49-.98 2.205.736 2.45zm18.625 1.47c.245 2.94 4.411 2.205 4.166-.245-.245-2.94-4.411-2.205-4.166.245zm-11.272 19.6c-.49.245-1.226.98-.981 1.715.246.735.736 1.225 1.716.98.735-.245 1.225-.98.98-1.96-.245-.49-.98-.98-1.715-.735zm-35.29-9.31c-.98.49-.735 2.205.491 1.96.735 0 1.96-.245 2.45-.98l.49-.49c0-.245 0-.49-.245-.735s-.49-.245-.735-.245c-.98-.245-1.715 0-2.451.49zm14.95-21.805c-.735.735-.735 1.715.245 2.45 1.47 1.47 3.431.245 3.431-1.47-.49-1.96-2.696-2.205-3.676-.98zm34.798 31.85c-.735 0-1.715.98-1.47 1.715 0 .49.245.735.49 1.225.245.245.49.49.49.735.245.735 1.47.49 1.715-.245 0-.245.245-.49.491-.98.245-.49.245-.735.245-1.225-.245-.735-1.226-1.47-1.961-1.225zm-23.526 19.355c-.98 0-1.715 1.225-1.47 2.205v.49c.49 1.47 2.695 1.225 2.94-.245v-.49c.491-.98-.245-1.96-1.47-1.96zm26.712 8.331c-.49-1.47-2.941-1.225-3.186.245v.49c-.245.98.735 2.205 1.716 1.96 1.225 0 1.715-1.225 1.47-2.205v-.49zm-75.724 17.64c-2.451.245-1.961 3.92.245 3.675 2.45-.245 2.205-3.92-.245-3.675zm-48.277-4.165c.245 2.695 3.921 1.96 3.676-.245-.491-2.695-4.166-1.96-3.676.245zm68.862 11.515c-1.96.245-1.715 2.94.245 2.94 1.961-.245 1.716-3.185-.245-2.94zm-57.1 24.99c-.49.245-.98.735-.98 1.225-.245.98.735 1.96 1.715 1.47.49 0 .981-.49.981-1.225.245-1.225-.491-1.96-1.716-1.47zm-24.016 4.655c-1.47.245-1.47 2.695.246 2.45 1.715 0 1.47-2.45-.246-2.45zm45.581 4.655c2.451.49 2.206-3.675-.245-2.94h-.49c-.98.49-1.225 2.45.735 2.94zm-23.771 14.456c-.49-.245-.98 0-1.225.245-1.471 1.225-.245 2.94.98 2.94.735 0 1.225-.49 1.47-.98 0-.98-.49-1.715-1.225-2.205zm-23.77-2.94c-.491-.49-1.226-.49-1.716.245-.245.245-.245.49-.245.735-.245.735.49 1.47 1.225 1.47.736 0 1.471-.98.981-1.715 0-.245 0-.49-.245-.735zm-27.692-4.165s-.245 0-.245.245c-.735.49-.735 1.715.245 1.96 0 0 .245 0 .245.245.98.49 1.961-.245 1.961-1.47 0-.98-1.226-1.47-2.206-.98zm72.538-57.821c-2.205.245-1.96 3.675.245 3.43 2.206-.245 1.961-3.675-.245-3.43zm103.662-53.411c-.245.49 0 .98.245 1.47.49.735 1.715.735 2.205 0s.49-1.96-.49-2.205c-.735-.245-1.47-.245-1.96.735zm-7.842 42.876c1.716-.245 1.471-2.696-.245-2.451-1.47 0-1.47 2.451.245 2.451zm32.593 1.715c2.451.49 2.941-2.205 1.226-2.695-2.206-.735-3.186 2.205-1.226 2.695zm24.506-19.601c-.735 0-1.225.735-.98 1.715.735 3.43 3.921-1.96.98-1.715zm.98 37.241c0-1.47-2.695-1.715-2.45.49.245 1.47 2.45 1.715 2.45-.49zm17.89-29.646c2.205.49 1.96-3.43-.245-2.45 0 0-.245 0-.245.245-1.226.245-1.226 1.715.49 2.205z" fill="#59204B"/></svg>