<svg width="984" height="313" fill="none" xmlns="http://www.w3.org/2000/svg"><path d="M59.47 179.69c-27.493-1.888-57.464 11.21-72.685 34.455-6.844 10.502-10.738 23.009-7.788 35.635 2.596 11.327 10.03 21.239 19.233 28.083 10.03 7.434 21.24 10.266 33.393 9.794 15.458-.472 31.033-4.012 44.603-11.682 18.29-10.266 38.467-32.449 32.803-55.576-6.372-23.364-25.37-38.939-49.559-40.709zm-74.81 42.597c11.564-24.426 38.94-38.821 65.135-40.591 12.861-.826 26.077 1.652 36.933 9.086 10.501 7.197 17.109 18.171 20.531 30.325.944 3.658 1.062 7.315.59 10.973-3.068 6.608-8.496 10.148-15.222 12.744-5.192 2.006-10.855 2.596-15.575 5.428-4.956 3.068-8.732 7.67-13.57 10.973-5.31 3.54-10.974 4.248-17.345 4.012-4.838-.118-9.676-.59-14.514.236-5.664.944-10.738 3.776-16.283 5.074-10.384 2.478-21.476-1.062-29.027-8.496-.945-1.534-1.77-3.185-2.596-4.837-5.31-11.446-4.484-23.6.944-34.927zm61.359 62.066c-12.862 2.124-26.55 2.714-38.703-3.186-3.068-1.534-6.018-3.304-8.732-5.428.354.236.826.354 1.18.236h.118c.944-.118 1.18-1.652.472-2.242 0 0-.118 0-.118-.118-.826-.59-2.006-.354-2.242.708-.118.472.118.944.354 1.18-3.068-2.36-5.9-5.192-8.378-8.26 1.652 1.18 3.422 2.36 5.31 3.186a.649.649 0 00-.354.59c-.118.826.59 1.534 1.416 1.298.118 0 .236-.118.236-.118.472-.118.59-.59.59-.944 4.012 1.652 8.378 2.478 12.862 2.242 6.608-.236 12.271-3.304 18.525-5.074 6.49-1.77 13.098-.826 19.706-.826 1.534 0 3.067-.118 4.601-.236-1.297.944.118 3.068 1.534 2.124.944-.59.59-1.888-.236-2.36 3.186-.472 6.136-1.416 8.968-3.068 6.962-4.13 11.564-11.091 19.352-13.923 2.95-1.062 5.9-1.888 8.85-2.832 0 .708.59 1.18 1.297 1.062.118 0 .236 0 .236-.118.59-.118.826-1.062.236-1.416l-.118-.118c2.596-.944 5.074-2.006 7.434-3.54 0 .236 0 .472.236.826.472.708 1.18.708 1.888.354h.118c.708-.354.708-1.298.354-1.888-.118-.236-.354-.354-.708-.472 1.298-.944 2.596-2.006 3.658-3.186-.118.354-.236.59-.354.944-.59-.118-1.062.236-1.18.826v.472c0 .354.236.59.472.708-4.366 11.092-13.334 20.885-22.065 27.375-10.502 8.142-23.482 13.098-36.815 15.222z" fill="#59204B"/><path d="M42.479 234.44c7.08-1.534 18.997-6.725 21.475-14.277.59-1.652.708-3.776.118-6.372-2.596-10.03-17.7-9.44-25.84-7.788-8.143 1.77-24.78 8.968-21.712 20.296 2.832 10.265 18.29 9.793 25.959 8.141zm-.59-1.888c-4.72 1.062-13.924 1.77-19.352-1.534 4.248-5.781 11.092-8.141 17.818-9.911 5.31-1.416 16.166-4.602 21.357-.826-2.95 6.844-13.805 10.973-19.823 12.271zm-3.776-24.307c.472-.118.944-.236 1.534-.354-.236.236-.472.472-.472.826-.118.826.472 1.77 1.416 1.652h.118c1.298-.236 1.534-1.652.472-2.36l-.118-.118s-.118 0-.118-.118c7.198-1.18 17.227-2.124 20.531 4.956-.708-.472-7.787-1.888-10.265-.944-.708.236-.59 1.18.118 1.416 2.714.708 10.62-.236 11.327 3.658 0 .354 0 .708-.118 1.062-5.663-3.776-14.277-1.298-20.177 0-7.906 1.77-17.11 4.366-21.121 12.035l-.236-.236c-2.124-2.831 8.731-9.439 10.03-10.619.353-.354.117-.944-.355-.826-2.36.708-10.265 4.602-11.563 8.496-.118-.354-.236-.59-.354-.944-2.596-9.794 12.271-16.048 19.351-17.582zm42.715-2.478c.472.354.826.708 1.416.944.944.354 1.77-.59 1.298-1.416-.59-1.062-2.124-1.77-3.186-2.242-.59-.236-1.18-.118-1.416.472-.236.472 0 1.298.472 1.534l1.416.708zm-7.788 26.195c-1.298.826-2.124 2.242-3.304 3.068-1.416 1.062-2.832 1.652-4.484 2.124-1.062.354-.59 2.006.59 1.652 2.95-.708 7.67-2.832 8.496-6.136.118-.59-.708-1.062-1.298-.708zm15.693-6.843c1.298-.826 3.304-2.596 3.068-4.366-.118-.59-.708-1.062-1.298-.59-.59.472-.826 1.062-1.298 1.77-.472.59-.944 1.18-1.652 1.652-.944.708.118 2.242 1.18 1.534zM65.37 202.817c.59.944 2.242.236 1.77-.826-.708-1.652-2.124-3.186-3.54-4.248-.826-.708-2.006.472-1.18 1.298 1.298 1.062 2.006 2.36 2.95 3.776zM53.334 192.08c1.062-.354 2.36-.944 2.478-2.124.118-.59-.354-1.062-.944-1.062-.826 0-1.534.59-2.36.944-.826.354-1.652.472-2.596.472-1.18-.118-1.18 1.77-.117 2.006 1.18.118 2.36.118 3.54-.236zm-23.127 4.011c.708.354 1.416.708 2.124.236.354-.236.59-.826.472-1.298-.236-.826-1.062-.944-1.77-1.179-.59-.118-1.18-.354-1.77-.472-1.18-.354-1.888 1.651-.708 2.123.59.118 1.18.354 1.652.59zm-15.693 11.328c.708-.708 0-1.77-.944-1.888-.59 0-1.18.236-1.77.236-.59 0-1.062-.236-1.534-.59-1.062-.59-2.242 1.062-1.18 1.77 1.416 1.18 4.13 1.888 5.428.472zm-9.912 15.222a10.103 10.103 0 012.242-2.242c.826-.59 1.652-.826 2.124-1.652.354-.472-.118-1.18-.59-1.298-2.242-.472-4.484 2.36-5.546 3.894-.59 1.18 1.062 2.242 1.77 1.298zm9.322 15.221c.826.472 1.534 1.18 2.124 1.888.354.472.708.59 1.298.472.354-.118.471-.354.707-.59.236-.354.119-.826-.117-1.18-.708-1.18-1.888-2.006-3.068-2.596-1.298-.472-2.242 1.416-.944 2.006zm-1.889 15.812c.826 1.652 3.068 4.602 5.192 3.54.472-.236.472-.944.236-1.298-.354-.708-1.298-.944-1.888-1.416a5.225 5.225 0 01-1.416-1.77c-.472-1.298-2.714-.236-2.124.944zm24.308-6.608c-.708-.118-1.534-.354-2.242-.708-1.298-.59-2.36 1.416-1.062 2.124.826.472 1.652.826 2.596 1.062.826.236 2.006.472 2.832.118.826-.354 1.18-1.77.118-2.124-.59-.354-1.416-.354-2.242-.472zm18.643 5.074c-1.061.236-1.887.59-3.067.354-1.534-.354-2.006 2.006-.472 2.36 1.416.354 3.304.354 4.484-.59 1.18-.826.236-2.478-.944-2.124zm45.193-33.039c0-1.652-.236-3.658-1.534-4.956-.472-.472-1.298 0-1.18.59.118.708.354 1.416.59 2.124.236.708.236 1.534.236 2.36 0 1.18 1.888 1.062 1.888-.118zm-10.266 18.761c1.77.118 4.838-.944 4.838-3.068 0-.59-.59-.944-1.18-.826-.708.236-1.18.826-1.77 1.18-.59.354-1.298.472-2.006.472-1.416 0-1.298 2.242.118 2.242zm-16.991-23.363c-.118.826 0 1.652 0 2.478 0 .826-.118 1.652-.118 2.596 0 1.062 1.652 1.416 2.006.472.59-1.652.826-4.248-.236-5.782-.59-.708-1.534-.472-1.652.236zm2.832-22.655c.59.354.944.708 1.652.708.236 0 .59-.236.59-.59.118-1.77-2.124-2.596-3.54-2.714-.59 0-1.062.236-1.18.826-.118.472.236 1.18.826 1.18.59.118 1.18.236 1.652.59zM21.24 272.671c-.119.59.117 1.298.59 1.652.59.472 1.533.59 2.123.118.354-.236.708-.59.826-1.062.118-.472-.118-.944-.354-1.298-.708-1.298-2.95-.826-3.186.59zm6.135-1.062h.354c.354 0 .472-.59.118-.826-.118 0-.236-.118-.354-.118-.708-.354-.944.944-.118.944zm4.838-2.478c-.236-.708-1.18-1.062-1.77-.708-.59.472-.708 1.416-.118 1.888.944 1.062 2.242.236 1.888-1.18zm66.196-22.065c-.118.118-.236.236-.354.236-.354.354-.118 1.062.472 1.18.59.118 1.062-.472.826-.944 0-.118-.118-.236-.236-.354s-.472-.236-.708-.118zm-2.949 5.9c-1.417.944-.001 3.186 1.415 2.242s0-3.186-1.416-2.242zm-22.066 18.997c-12.862 4.248-24.897 8.85-38.349 10.856-.59.118-.472.944 0 .944 13.098-1.534 27.14-4.248 38.703-10.974.354-.354 0-.944-.354-.826z" fill="#59204B"/><path d="M34.927 210.723s0 .118 0 0c.118 0 .118-.118 0 0zm2.832.59c1.298-.826 0-2.95-1.298-2.006-1.416.826 0 2.832 1.298 2.006zm9.676-3.776c0 .118 0 .118 0 0 .118.118.118 0 0 0zm2.478 2.36c.59-.472.826-1.298.354-2.006-.473-.708-1.298-.826-2.006-.472-.59.472-.826 1.298-.354 2.006.354.708 1.298.944 2.006.472zM57.953.048c-3.629.497-5.443 4.725-4.838 8.206.483 2.984 2.902 4.974 5.805 4.725 3.266-.373 4.96-3.233 5.08-6.466-.12-3.481-2.298-6.963-6.047-6.465zm.967 10.817c-1.814.249-3.386-.746-3.75-2.61-.604-2.239.364-5.472 2.662-6.218 2.66-.746 4.112 1.99 4.233 4.352-.121 2.114-1.089 4.103-3.145 4.476zm281.531 167.749c-.128-.257-.384-.513-.513-.77-.513-.898-1.539-1.668-2.694-1.539.129 0 .257.128.129 0h-.257c-1.155-.257-1.924.385-2.437 1.411 0 .128-.129.256-.129.385.257-.385.385-.642.642-1.027l-.129.129c-.641.769-1.282 1.924-.769 2.95.128.257.256.642.385.898.384.77.769 1.411 1.411 1.925.898.513 1.924.513 2.822.128 1.668-.642 2.566-2.822 1.539-4.49zm-7.048-24.65c-3.959.498-5.938 4.732-5.278 8.218.528 2.989 3.167 4.981 6.333 4.732 3.563-.373 5.41-3.238 5.542-6.475 0-3.487-2.507-6.849-6.597-6.475zm1.055 10.833c-1.979.249-3.694-.747-4.09-2.615-.66-2.241.396-5.479 2.903-6.226 2.903-.747 4.486 1.992 4.618 4.358 0 2.117-1.056 4.11-3.431 4.483zm62.824 18.05c-.257.642-.385 1.283-.642 1.925a319.07 319.07 0 0015.908 3.848c.128-.641.256-1.154.384-1.796v-.128c-5.259-1.155-10.391-2.438-15.65-3.849z" fill="#59204B"/><path d="M487.98 200.551s0-.129 0 0c1.796-3.336 1.796-7.826 2.309-11.418 0-.256 0-.641-.128-.769 2.309-3.464 2.309-7.954 2.951-12.188 0-.384-.129-.641-.385-.898 1.667-3.207 1.796-7.312 2.309-11.032v-.385c0-4.105-6.03-6.799-8.98-8.21-9.237-4.49-19.5-7.184-29.506-9.494-4.875-1.154-9.878-2.309-14.881-3.335.898.641 1.796 1.283 2.694 2.309.128.128.128.128.128.257 11.161 2.181 22.45 4.875 33.098 8.723 3.207 1.155 16.036 5.003 15.651 9.878-.642 2.694-5.901 3.207-7.954 3.592-1.924.257-3.848.513-5.644.642h-.898c-1.155.128-2.438.128-3.592.128h-3.336c-1.668 0-3.72-.128-5.26.385-.898.385-1.154.769-1.924 1.283 4.105.128 8.082.128 12.187-.129 3.464-.128 11.931 0 16.036-2.95-.77 5.388-1.924 10.134-8.21 11.93-.385.129-.898.129-1.155.129-3.592.641-7.312.898-11.032.898-1.155 0-2.181-.129-3.336-.129a381.674 381.674 0 01-24.374-1.539c-.128.513-.385 1.026-.642 1.539v.129c0 .128-.128.256-.128.384 9.622 1.027 19.243 1.668 28.864 1.412h1.54c2.437 0 5.131 0 7.697-.513 3.335-.385 6.799-1.027 8.98-2.566-.77 5.516-1.924 10.263-8.339 12.059-5.003 1.411-10.391 1.154-15.522 1.026a463.907 463.907 0 01-42.206-3.464c-.642-.128-1.155-.128-1.796-.256-.257.256-.385.641-.513 1.026-.129.257-.129.385-.257.641l2.309.385c15.779 2.053 31.815 3.592 47.723 3.592 4.874 0 10.519-.256 14.881-2.822.256-.128.513-.385.769-.513-.256 2.181-.384 4.49-1.154 6.542-1.54 4.49-6.286 5.517-10.391 6.158-6.03 1.026-12.316.513-18.345-.256-12.059-1.54-24.246-1.668-36.433-3.079-.129.769-.257 1.411-.514 2.181.514.128 1.155.128 1.668.256 7.697.77 15.523.898 23.22 1.54 7.441.641 14.753 2.18 22.193 2.309 5.645.128 11.931-.513 17.062-3.336.257-.128.385-.256.642-.385-.513 5.388-2.181 10.392-8.595 11.29-6.415.898-13.342-.129-19.756-.257-12.059-.385-24.888.257-36.69-2.181-5.516-1.154-10.648-3.207-16.036-4.618-3.848-1.026-7.697-1.796-11.546-2.566-.256.77-.641 1.54-1.026 2.309 2.053.385 4.105.898 6.03 1.283 7.568 1.668 14.752 4.49 22.193 6.03 7.825 1.667 16.036 1.539 23.989 1.796 7.569.256 15.138.513 22.707.641 5.26 0 12.316 1.155 16.677-2.566 2.438 7.056-5.901 11.033-11.93 12.059-5.132.898-10.391.898-15.651.898a223.18 223.18 0 01-36.947-3.079c-13.085-2.181-25.785-5.773-38.229-9.878-4.49-1.539-9.365-2.437-13.598-4.746-6.03-3.207-6.286-9.365-4.105-15.01 3.207 4.362 10.006 7.056 14.753 8.724 1.924.641 3.848 1.283 5.901 1.796 0-.77.256-1.54.385-2.438-4.747-1.283-9.365-2.95-13.727-5.516-3.079-1.796-6.414-4.105-6.927-7.954-.257-2.565.513-5.003 1.154-7.44.128.256.385.513.513.769 3.721 4.619 10.263 6.158 15.523 8.082 2.309.898 4.618 1.796 6.927 2.566v-.256c0-.642-.128-1.412-.256-2.053l-1.155-.385c-5.003-1.924-10.648-3.335-15.394-6.029-3.592-2.053-6.286-5.003-6.286-9.237 0-1.283.256-2.309.256-3.335 0 0 0 .128.129.128 3.335 3.849 8.467 5.773 13.085 7.312 2.694.898 5.516 1.796 8.339 2.694v-.77c0-.384 0-.898.128-1.282-1.026-.257-1.925-.642-2.951-.898-4.875-1.411-10.006-2.951-14.111-5.773-1.925-1.283-3.721-2.951-4.619-5.26-1.026-2.822 0-5.773.898-8.723 1.668 2.565 5.388 4.49 8.852 5.901 1.924.898 3.849 1.539 5.645 2.181.128 0 .128 0 .256.128 2.31.898 4.619 1.668 7.056 2.437.128-.641.128-1.411.128-2.052-.641-.257-1.411-.385-2.052-.642-1.411-.385-2.951-.898-4.362-1.283-2.822-1.026-5.516-2.18-8.21-3.592-.385-.256-1.027-.513-1.668-.898-1.924-1.282-3.72-2.95-4.618-5.259-1.027-2.823 0-5.773.898-8.724 2.181 3.207 7.825 6.415 11.674 7.826 1.154.513 2.437 1.026 3.592 1.539-1.796-3.079-6.158-5.516-8.082-6.542-1.411-.77-4.234-2.053-5.645-3.849l-.385-.77c-1.924-4.49 8.724-5.131 11.161-5.388 14.368-1.539 29.249-.385 43.874 1.796 0-.256.128-.385.257-.513.128-.128.256-.128.384-.256 0-.257.129-.514.385-.642.257-.128.513-.256.77-.256-15.009-2.181-30.275-3.208-45.028-1.925-3.721.385-11.803.642-13.727 4.747-.128.256-.257.641-.257.898v.128c-.898 4.105-2.565 7.954-1.796 11.674 0 .128-.128.128-.128.257-1.026 4.875-3.207 9.365-1.026 13.726-.513 3.721-1.155 6.928.128 10.007-1.924 3.848-3.335 8.851-1.411 12.957-2.951 3.72-3.72 9.108-1.539 13.47 2.437 4.874 8.21 6.542 12.828 8.082 15.523 4.874 30.661 10.006 46.825 12.572 15.009 2.437 30.788 3.72 46.054 2.694 5.645-.385 12.444-1.155 16.806-5.132 3.463-3.207 4.746-8.21 2.309-12.315 1.539-2.694 1.924-6.928 1.924-10.776z" fill="#59204B"/><path d="M410.88 198.241c-5.388-1.282-10.647-2.95-15.907-4.874 0 .641-.129 1.411-.129 2.181a175.74 175.74 0 0015.908 5.003c0-.77 0-1.54.128-2.31z" fill="#59204B"/><path d="M483.747 212.994c8.851 3.977 34.637 17.191 16.805 26.812-13.342 7.184-31.173 7.441-45.926 7.313-21.937-.257-44.002-3.464-65.041-9.237-16.036-4.362-33.996-10.135-47.081-21.039-3.464-2.822-8.852-7.954-6.415-12.957 1.668-3.464 6.158-5.26 9.494-6.542 5.901-2.053 12.058-2.951 18.216-3.592 1.411-.129 1.155-2.31-.256-2.181-8.596.898-37.203 4.49-28.865 19.756 2.951 5.259 8.467 9.108 13.47 12.059 8.595 5.259 18.089 9.108 27.582 12.315 24.246 8.21 50.16 12.7 75.688 13.214 10.52.256 21.039-.129 31.302-1.796 6.799-1.155 13.983-2.694 20.013-6.286 18.345-11.161-8.467-25.786-18.217-30.019-1.154-.385-2.181 1.667-.769 2.18z" fill="#59204B"/><path d="M359.951 197.215c-4.106 1.027-9.365 3.336-9.237 8.211 0 4.618 4.747 7.568 8.21 9.621 12.957 7.697 28.223 12.315 42.72 16.036 15.137 3.848 30.66 6.158 46.311 6.671 7.569.256 15.138.128 22.706-.513 5.645-.514 11.674-1.155 16.678-3.849 8.082-4.233 5.644-11.289-1.412-15.01-.898-.513-1.796.898-.898 1.54 2.951 2.053 7.313 5.516 4.106 9.236-3.592 4.234-11.29 4.875-16.293 5.389-15.009 1.539-30.404.897-45.285-1.027-14.753-2.052-29.377-5.388-43.617-10.134-6.799-2.31-13.47-4.747-19.884-7.954-3.079-1.54-6.543-3.207-8.98-5.773-2.566-2.566-2.823-5.773-.257-8.595 1.283-1.411 3.977-2.053 5.645-2.694 1.026-.128.385-1.411-.513-1.155z" fill="#59204B"/><path d="M470.533 168.736c-3.72-.642-6.029.641-8.082 3.72-1.924 2.822-3.335 6.029-7.697 4.105-1.026-.385-1.796-.898-2.566-1.283-3.976-2.309-8.082.513-9.621 4.619-1.283 3.335-1.539 7.953-5.26 9.493-3.335 1.411-5.003-.513-7.184-1.925-2.822-3.207-7.055-1.026-8.595 2.438-1.283 2.694-1.154 5.516-.898 8.467.257 3.079.128 7.056-3.849 7.44-3.72.385-5.388-3.079-5.003-6.157 1.283-3.592 1.796-6.928 1.668-10.648-.128-3.592 1.924-7.056.641-10.648-1.667-4.746-6.67-5.516-10.647-3.72h-.129c-6.927 2.822-7.312 10.263-8.466 16.805-.77 4.747-1.796 9.493-3.208 14.112-.769 2.566-1.667 5.26-4.105 4.618-8.082-2.181.257-11.417.385-16.036.128-3.72-1.924-7.055-1.411-10.904.385-3.464 1.411-6.799 1.668-10.263.385-5.131-.257-10.391-3.464-14.624-1.539-1.925-3.592-3.464-5.773-4.747-2.566-1.668-9.365-3.72-10.006-7.056-.128-.641-1.155-.769-1.155 0-.641 5.132 10.135 8.211 13.085 10.776 8.211 6.928 4.875 16.677 3.721 25.786-.385 3.72 1.026 6.542 1.411 10.006.385 4.618-3.464 7.825-3.849 12.187-.256 3.336 1.668 6.158 4.619 6.799 3.72.898 5.259-2.052 6.414-5.644 1.411-4.49 2.566-9.109 3.335-13.727 1.027-6.029 1.411-11.417 6.03-15.522 3.592-1.925 8.082-1.796 9.621 2.95.642 2.181-.898 4.875-1.154 7.056-.129 1.539.256 3.079.256 4.618-.128 2.566-.898 5.003-1.154 7.441-1.412 4.618 1.924 9.878 7.312 8.852 2.566-.514 4.49-2.31 5.003-4.747.385-1.668.128-3.336 0-5.003-.128-1.54-.256-2.951 0-4.362.257-1.668 2.951-9.108 6.286-4.49.257.385.642.513 1.026.385.898.898 1.668 1.796 2.951 2.181 2.053.641 4.49.513 6.286-.513 5.773-3.079 4.49-15.266 11.674-14.24 2.822 1.539 5.773 3.592 8.98 1.924 4.49-2.181 4.875-9.75 10.776-8.98.77-.128.898-1.411.128-1.539z" fill="#59204B"/><path d="M393.69 159.371c10.776 4.49 22.578 7.697 34.381 8.21.384 0 .384-.513.128-.513-11.674-2.052-22.963-4.362-34.124-8.339-.513-.256-.77.385-.385.642zm47.337 9.493c4.875 1.026 10.263 1.924 15.266 1.155.257 0 .257-.514 0-.514-5.131-.513-10.134-.384-15.137-1.411-.514-.128-.642.642-.129.77zm7.313-21.809c-.129-1.667-2.951-2.822-4.49-3.463-3.207-1.668-6.543-3.849-10.263-4.234-3.207-.256-7.569.129-10.648 1.027-2.052.513-2.181 1.282-2.566 3.335-.641 3.72-1.283 5.901 1.412 7.569 3.72 2.309 11.545 5.901 12.187 6.158 1.539.641 8.595-1.412 11.802-2.438 2.053-.77 2.694-5.773 2.566-7.954zm-12.829-6.029c1.796.641 7.826 4.105 8.98 4.747-2.95.256-6.799 2.18-8.595 1.924-.641-.128-2.437-.642-3.592-1.283-2.822-1.411-5.645-2.822-8.467-4.105-.128 0-.256-.128-.256-.128 3.207-1.668 9.878-1.796 11.93-1.155zM421.4 148.21c-.257-1.026.641-4.747.769-4.875 1.283.513 2.566 1.411 3.592 2.053 1.54.769 3.208 1.667 4.747 2.437 1.155.513 3.464 1.668 4.362 2.181.898.513-.257 4.105-.385 5.388-2.309-1.283-5.132-2.181-7.441-3.335-1.924-.898-5.131-1.796-5.644-3.849zm22.578 5.388c-2.566.77-5.26 1.283-7.825 1.796.256-1.668.256-3.464.769-5.388.129-.641 6.415-2.053 9.622-2.181-.129 1.026-.129 2.181-.257 3.207-.385 1.668-.641 1.925-2.309 2.566zm7.954 42.206a386.477 386.477 0 01-29.634-3.079c-1.539-.256-1.924 2.309-.385 2.438 10.006 1.026 20.013 1.411 30.019 1.539.385-.128.385-.898 0-.898zM434.1 198.37c-3.977-.77-8.339-1.54-12.315-1.668-.898 0-1.155 1.283-.257 1.411 3.977.77 8.467.898 12.572.898.385 0 .385-.641 0-.641zm-22.193-6.158c1.411.128 1.668-1.668.385-2.052-3.721-1.027-7.697-1.155-11.546-1.796-.257 0-.513.384-.128.513 3.592 1.283 7.312 3.079 11.289 3.335zm-.128 1.796c-1.283-.128-2.695 0-3.977-.256l-3.849-.77c-.385-.128-.641.513-.257.641 1.155.385 2.31.898 3.592 1.155 1.412.385 2.694.898 4.106 1.154 1.283.257 1.539-1.667.385-1.924zm28.864-5.388c5.645 1.283 12.7 1.026 18.473.77.513 0 .513-.898 0-.898a435.05 435.05 0 00-18.216-1.54c-1.155-.128-1.412 1.412-.257 1.668zm2.181-3.464c2.95.257 6.029.514 8.98.257.385 0 .385-.641 0-.77-2.823-.769-5.773-.898-8.724-1.283-1.154-.128-1.411 1.668-.256 1.796zm-65.17-15.009c2.823 1.411 6.03 2.951 9.237 3.335 1.411.257 1.796-2.052.385-2.309-3.207-.513-6.158-.77-9.237-1.796-.513 0-.77.513-.385.77zm2.951 3.849c-.513-.129-.77.513-.385.769 1.924.77 3.977 1.796 6.158 1.925.898 0 1.026-1.155.256-1.283-2.052-.642-4.105-.642-6.029-1.411zm4.618 9.236l-5.388-1.539c-1.924-.514-4.105-.77-5.901-1.668-.385-.257-.898.385-.385.77 3.079 2.181 7.569 3.078 11.161 4.233 1.283.385 1.796-1.411.513-1.796zm1.412 4.233c-.77-.513-1.668-.513-2.566-.769-1.026-.257-2.181-.385-3.207-.642-.385-.128-.513.513-.257.642 1.026.385 2.053.77 3.079 1.026.898.257 1.668.642 2.566.642.513 0 .769-.642.385-.899zm77.612-11.032c-1.154-.128-1.411 1.668-.256 1.796 1.155.256 1.411-1.54.256-1.796zm1.155-1.796c-.642.898.898 1.668 1.154.77.385-.77-.641-1.411-1.154-.77zm22.578-3.592c-.898-.128-1.154 1.283-.256 1.539 1.026.129 1.154-1.411.256-1.539zm1.668-.257c.257.257.641.385 1.026.129h.129a.792.792 0 00-.385-1.412c-.77-.256-1.155.642-.77 1.283 0-.128 0-.128 0 0zm-27.838 14.753c-.77-.128-1.026 1.155-.256 1.283.898.257 1.154-1.154.256-1.283zm.898 2.951h-.257c-.385 0-.513.513-.385.77.257.256.77.256.898-.129 0-.128.128-.128.128-.256 0-.129-.128-.257-.384-.385zm5.901-5.516c-1.026-.129-1.283 1.411-.257 1.539.898.128 1.155-1.411.257-1.539zm-89.672-23.605c-1.026-.128-1.283 1.539-.256 1.668 1.154.128 1.411-1.54.256-1.668zm2.822 3.848c.898.129 1.155-1.282.257-1.411-1.026-.256-1.155 1.283-.257 1.411zm.898-3.591c-1.026-.129-1.283 1.411-.256 1.667 1.026.129 1.283-1.539.256-1.667zm-11.673 19.756c-1.027-.129-1.283 1.539-.257 1.667 1.155.257 1.411-1.411.257-1.667zm-2.31-4.491c-.77-.128-1.026 1.155-.256 1.283.898.129 1.026-1.154.256-1.283zm5.388-2.309c-1.283-.256-1.539 1.796-.256 1.925 1.282.128 1.539-1.796.256-1.925zm.77-1.539c1.155.128 1.411-1.54.257-1.668-1.155-.256-1.412 1.411-.257 1.668zm9.622 24.118c-.257-.385-.642-.642-1.155-.513-.385.128-.77.513-.77 1.026v.128c.129.642.642 1.026 1.155.77.513-.128.898-.77.641-1.283.257 0 .129-.128.129-.128zm-.77-.898c1.154.128 1.411-1.668.256-1.796-1.154-.129-1.411 1.667-.256 1.796zm-4.362 2.694c-.128-.129-.257-.257-.513-.257-.642-.257-1.283.128-1.411.77-.129.641.513 1.154 1.154 1.154.128 0 .385 0 .513-.128.642-.385.77-1.026.257-1.539zm1.924 1.667c-.128 0-.128 0 0 0-1.411.898.129 2.951 1.283 2.053l.129-.128c1.154-.898-.129-2.823-1.412-1.925zm56.703.129c-1.027-.129-1.283 1.539-.257 1.667 1.026.257 1.283-1.411.257-1.667zm4.233 1.924h-.128c-.385.128-.641.513-.385.898.257.385.77.257 1.026-.128 0 0 0-.129.129-.129.128-.256-.257-.769-.642-.641zm13.598-6.414c-.128 0-.128 0 0 0-.769-.513-1.667-.257-1.796.513-.128.77.642 1.411 1.411 1.154h.129c.641-.256.769-1.282.256-1.667zm3.592-1.027c-1.411-.256-1.667 1.925-.384 2.181 1.411.129 1.796-1.924.384-2.181zM421.4 205.682c-1.411-.256-1.668 1.924-.385 2.181 1.411.128 1.796-2.053.385-2.181zm2.437-.385s.128 0 .128-.128c.385-.128.642-.641.514-1.155-.129-.384-.514-.769-1.027-.769h-.128c-.513.128-1.026.641-.77 1.154.129.77.77 1.155 1.283.898zm0 2.951c-1.154-.128-1.539 1.668-.256 1.924 1.154.257 1.411-1.668.256-1.924zm-15.009-4.875c-.129-.513-.77-.77-1.155-.513-.513.128-.641.641-.641 1.026 0 .513.513.77 1.026.77.257 0 .513-.257.641-.385.129-.257.257-.641.129-.898zm.384 3.207c0-.128 0-.128 0 0-.898-.128-1.411.77-.898 1.411.385.642 1.412.385 1.54-.385v-.128c.128-.513-.128-.898-.642-.898zm-3.848-8.082h-.128c-.642-.128-1.412.385-1.412 1.026-.128.642.385 1.411 1.027 1.411h.128c.641 0 1.283-.384 1.411-1.026.128-.77-.385-1.283-1.026-1.411zm9.237-54.65c-11.418-2.052-24.246-1.154-35.664.129-.641.128-.513 1.026.129 1.026 5.644-.642 11.289-.898 16.933-1.026 6.158 0 12.316.898 18.474 1.026.769.128.898-1.026.128-1.155zm68.761 17.576c-9.75-6.158-20.654-9.75-32.072-11.418-1.154-.128-1.411 1.539-.256 1.668 11.289 1.026 21.937 5.003 31.815 10.647.384.385 1.026-.513.513-.897zm3.72 24.63c1.283.257 1.54-1.796.257-1.924-1.155-.256-1.54 1.796-.257 1.924zm2.053-4.618c-1.411-.257-1.796 2.053-.385 2.309 1.54.257 1.796-2.052.385-2.309zm.256-.641c.129 0 .129 0 0 0 .257-.129.385-.385.129-.513h-.129c-.513-.642-.641.769 0 .513zm-4.105 12.572c-1.154-.129-1.411 1.539-.256 1.796 1.154.128 1.411-1.668.256-1.796zm2.438-1.925c-.514-.256-1.027 0-1.283.514-.257.513.128 1.282.769 1.411 1.027 0 1.54-1.411.514-1.925zM100.772 5.628c-.825-.495-1.814-.825-2.803-.495C96.319 5.628 95 7.112 95 8.926c0 2.968 3.298 4.782 5.772 3.298 2.474-1.32 2.639-5.277 0-6.596zm22.645 234.504c.165-.165.33-.33.495-.66-.989.66-1.814 1.485-2.804 2.144.165 0 .33 0 .495-.165 1.155-.165 2.639-1.319 3.134-2.473.659-1.32.824-2.639.494-3.958 0-.165 0-.33-.165-.495 0 .495.165.825.165 1.319 0-.989-.165-1.814-.659-2.638-.66-1.155-1.814-1.979-3.134-2.144-1.154-.165-1.979 0-2.968.495-.33.164-.495.329-.825.329-.989.495-2.144 1.979-2.473 3.134-.33 1.484-.165 2.638.494 3.958 0 .165.165.165.165.33-.165-1.155-.33-2.309-.494-3.629 0 .165-.165.495-.165.66-.66 2.144.659 4.453 2.638 5.277.825.33 1.979.495 2.969.165l.989-.495c.825 0 1.319-.494 1.649-1.154zm1.441-18.133c.095-.09.19-.181.285-.361-.571.361-1.047.812-1.618 1.173.096 0 .191 0 .286-.09.666-.09 1.523-.722 1.808-1.354.381-.722.476-1.444.286-2.167 0-.09 0-.18-.095-.27 0 .27.095.451.095.722 0-.542-.095-.993-.381-1.445a2.464 2.464 0 00-1.808-1.173c-.666-.09-1.142 0-1.713.271-.191.09-.286.18-.476.18-.571.271-1.238 1.083-1.428 1.715-.19.813-.095 1.445.286 2.167 0 .09.095.09.095.18-.095-.631-.191-1.263-.286-1.986 0 .091-.095.271-.095.362-.381 1.173.381 2.437 1.523 2.888.476.181 1.142.271 1.713.091l.571-.271c.476 0 .762-.271.952-.632zm-10-7c.095-.09.19-.181.285-.361-.571.361-1.047.812-1.618 1.173.096 0 .191 0 .286-.09.666-.09 1.523-.722 1.808-1.354.381-.722.476-1.444.286-2.167 0-.09 0-.18-.095-.27 0 .27.095.451.095.722 0-.542-.095-.993-.381-1.445a2.464 2.464 0 00-1.808-1.173c-.666-.09-1.142 0-1.713.271-.191.09-.286.18-.476.18-.571.271-1.238 1.083-1.428 1.715-.19.813-.095 1.445.286 2.167 0 .09.095.09.095.18-.095-.631-.191-1.263-.286-1.986 0 .091-.095.271-.095.362-.381 1.173.381 2.437 1.523 2.888.476.181 1.142.271 1.713.091l.571-.271c.476 0 .762-.271.952-.632zM39.417 35.132c.165-.165.33-.33.495-.66-.99.66-1.814 1.485-2.803 2.144.164 0 .33 0 .494-.165 1.155-.165 2.639-1.319 3.134-2.473.66-1.32.824-2.639.494-3.958 0-.165 0-.33-.165-.495 0 .495.165.825.165 1.32 0-.99-.165-1.815-.66-2.64-.659-1.154-1.813-1.978-3.133-2.143-1.154-.165-1.979 0-2.968.495-.33.165-.495.33-.825.33-.99.494-2.144 1.978-2.473 3.133-.33 1.484-.165 2.638.494 3.958 0 .165.165.165.165.33-.165-1.155-.33-2.31-.494-3.629 0 .165-.165.495-.165.66-.66 2.144.66 4.453 2.638 5.277.825.33 1.98.495 2.969.165l.99-.495c.824 0 1.319-.494 1.648-1.154zm143.336 49.931c-4.948.66-7.421 6.267-6.597 10.885.66 3.957 3.958 6.596 7.916 6.266 4.453-.495 6.762-4.287 6.926-8.575-.164-4.618-3.133-9.236-8.245-8.576zm1.319 14.348c-2.474.33-4.617-.99-5.112-3.463-.825-2.969.495-7.257 3.628-8.246 3.628-.99 5.607 2.638 5.772 5.772-.165 2.803-1.484 5.442-4.288 5.937zm166.067 58.695c-4.947.66-7.421 6.267-6.597 10.884.66 3.958 3.958 6.597 7.916 6.267 4.453-.495 6.762-4.288 6.927-8.575-.165-4.453-3.299-9.071-8.246-8.576zm1.319 14.348c-2.473.329-4.617-.99-5.112-3.464-.825-2.968.495-7.256 3.628-8.245 3.628-.99 5.607 2.638 5.772 5.772-.165 2.803-1.484 5.607-4.288 5.937zM168.404 24.27c-11.709-4.452-24.572-7.09-37.105-6.266-1.485-.66-3.134-1.154-4.783-1.484-5.277-1.154-10.884-.165-16.161.824-6.267 1.32-12.534 2.969-18.14 5.937-11.05 0-21.44 6.267-30.345 12.039-8.575 5.607-17.316 12.698-21.604 22.263-5.772 4.123-9.894 9.73-13.852 15.337-1.98 2.969-3.958 5.937-5.443 9.236-.165.164-.165.33-.165.494-.66 1.484-1.154 3.134-1.484 4.783a25.173 25.173 0 00-.494 4.947c-1.32 2.474-2.31 5.113-3.299 7.916-.165.165-.33.33-.33.66v.165c-3.133 8.905-4.617 18.635-5.112 28.035-.495 12.533.99 26.386 7.751 37.27 5.607 9.071 14.842 13.523 24.572 7.916 11.71-6.761 18.636-19.295 28.365-28.365 6.762-1.979 12.369-7.586 16.986-13.523.99.165 2.144.165 3.134-.165 2.309-.33 4.453-1.484 6.431-2.803a809.859 809.859 0 0015.173-10.06c6.761-4.453 13.522-8.905 20.284-13.193 1.979-1.319 4.123-2.639 5.772-4.453 1.319-1.484 1.979-3.133 2.474-4.782 7.256-1.98 14.677-4.948 19.13-10.39 12.203-5.277 26.386-6.761 37.27-15.007 8.905-6.761 8.576-16.986 2.309-25.727-7.421-10.39-19.625-17.15-31.334-21.603zM47.688 166.922c-4.618 4.288-11.05 8.905-17.646 6.926-6.597-1.978-10.72-8.905-13.193-15.007-3.793-9.73-4.948-19.789-4.288-30.014 3.133 6.432 8.41 12.039 13.358 16.821.165.165.33-.165.165-.33-5.772-6.101-9.07-13.028-13.358-19.954.165-1.814.33-3.628.66-5.442 4.617 11.049 13.357 19.624 22.428 27.046.494.329 1.154-.33.66-.825-9.236-8.576-17.646-17.811-22.594-29.684.66-3.299 1.32-6.432 2.144-9.565 4.123 15.007 15.667 28.365 27.706 37.105.494.33.989-.33.66-.66-6.927-5.277-12.864-11.708-17.482-19.13-4.452-6.926-6.926-14.017-9.73-21.438.495-1.979 1.155-3.793 1.814-5.607 1.485 8.74 6.267 17.645 10.885 24.242 7.091 10.06 17.646 20.284 29.684 24.077 2.309.66 4.453.99 6.432.99-6.267 6.761-11.38 14.347-18.305 20.449zm8.08-25.726c-10.224-5.278-18.965-13.688-25.067-23.418-5.112-8.081-10.884-19.625-9.07-29.52 1.98 7.421 6.597 14.018 10.884 20.285.33.494.99 0 .825-.495-4.618-7.421-8.576-14.677-10.72-23.088.66-1.979 1.485-3.793 2.474-5.607 1.484 11.379 9.236 20.779 15.997 29.684.495.495 1.32 0 .825-.659-7.092-9.73-13.194-19.625-15.502-31.499 1.319-1.979 2.638-4.123 4.122-5.937 1.32 16.162 11.38 29.355 22.264 40.734.495.495 1.154-.165.824-.66C43.234 98.647 33.34 85.289 32.35 68.797c2.144-2.638 4.453-4.947 6.597-7.42-2.474 8.575-.495 17.48 3.298 25.396 6.597 13.688 17.646 26.056 28.86 36.116 3.793 3.463 8.576 7.586 13.688 9.07-7.586 9.236-16.821 15.502-29.025 9.236zm67.285-31.664c-9.4 6.267-18.8 13.358-28.695 18.8-5.607 3.134-10.884.99-15.832-2.473-11.214-7.916-20.779-19.46-28.53-30.674-6.267-9.07-12.038-20.45-9.235-31.829a28.758 28.758 0 013.298-8.08c-2.638 16.49 8.411 33.147 18.636 45.021.494.495 1.319 0 .824-.495-5.607-7.42-11.049-15.007-14.512-23.747-3.134-8.246-3.463-16.162-2.144-24.737.99-1.155 1.979-2.31 3.133-3.464-2.473 16.162 7.916 31.17 17.481 43.208.165.33.66 0 .495-.33-9.4-13.853-17.481-28.035-15.502-45.186.99-.825 1.979-1.814 3.133-2.639 2.969 15.832 13.193 29.355 23.088 41.723.33.495.99 0 .66-.495-9.4-13.522-18.14-26.715-21.604-42.877 1.32-.99 2.639-1.979 4.123-2.968 3.463 7.256 8.576 13.852 13.028 20.449 4.948 7.42 10.06 14.677 15.172 22.098.66.825 1.814 0 1.32-.824-4.783-7.586-9.565-15.172-14.348-22.593-4.288-6.597-8.41-14.018-13.688-19.955 1.65-1.154 3.299-2.144 5.113-3.298C81.99 43.73 90.895 56.924 99.635 70.94c.33.495.99 0 .66-.494-7.586-13.853-16.162-28.53-29.52-37.6 1.155-.66 2.31-1.32 3.464-1.815.164 0 .164.165.33.165 16.656 4.948 26.55 17.81 35.456 31.993.165.33.659 0 .495-.33-7.586-13.522-17.481-29.19-33.643-32.982 1.32-.66 2.639-1.154 3.958-1.65.165 0 .165.166.33.166 8.74 2.144 15.997 5.442 22.593 11.709 6.762 6.431 11.544 14.512 16.162 22.593.329.66 1.154 0 .824-.495-7.091-14.513-18.8-31.993-35.951-35.127a43.362 43.362 0 016.432-.99c9.235-.329 16.656 4.948 22.428 11.71 8.905 10.554 15.502 23.747 20.779 36.446 2.804 6.761 7.421 17.15 3.463 24.242-2.803 4.782-10.389 8.081-14.842 11.049zm18.47-15.337c.33-3.793-.494-7.75-1.484-11.214-3.958-14.512-11.709-29.355-20.449-41.723-5.607-8.08-13.193-15.832-23.088-17.48 2.309-.826 4.617-1.65 6.926-2.31 15.007 7.257 23.418 21.769 30.839 36.116.33.495 1.319.165.99-.494-6.267-14.513-14.678-29.025-29.025-36.446 2.309-.66 4.782-1.155 7.091-1.485 10.225 6.762 16.986 16.162 23.253 26.716.33.66 1.154 0 .824-.66-5.607-9.73-11.379-20.613-21.273-26.385 1.979-.165 3.958-.33 5.937-.165 7.091 5.442 12.203 11.873 17.48 19.13.33.495.99 0 .825-.495-4.123-6.596-8.74-13.688-15.007-18.305 10.389 1.979 19.13 11.873 24.737 20.119 6.267 9.235 10.554 20.284 11.709 31.499.659 6.101-.33 12.038-4.783 16.49-4.452 3.794-10.06 5.608-15.502 7.092zm60.194-35.291c.165 7.091-6.102 11.379-11.874 14.182-8.74 4.453-18.305 6.267-27.376 9.73.825-1.814 1.485-3.958 1.65-6.266 1.154-12.534-4.123-26.222-10.72-36.611-4.288-6.762-10.554-14.678-17.975-19.46 1.649.165 3.463.33 5.112.494 5.937 5.608 11.709 10.72 16.326 17.646 4.948 7.256 8.576 15.172 10.72 23.583.165.495.989.33.824-.33-3.463-14.842-11.544-30.839-23.912-40.404 3.298.495 6.596.99 9.73 1.65 9.235 9.235 14.677 20.778 18.965 32.817.165.66 1.154.33.989-.33-3.463-11.544-8.081-23.087-16.656-31.828 1.814.495 3.628.99 5.277 1.484 4.948 6.762 10.225 12.699 13.688 20.614.165.165.495.165.33-.164-2.639-6.762-5.772-14.183-10.884-19.46 10.059 3.463 19.294 8.41 27.045 16.161 4.453 4.123 8.741 9.895 8.741 16.492z" fill="#59204B"/><path d="M14.375 138.391c-.825.66 0 1.979.99 1.319.659-.659-.166-1.979-.99-1.319zm15.337 17.316c-.825.33-.99.99-.66 1.649.33.495 1.155.66 1.65.165l.164-.165c.66-.824-.165-1.979-1.154-1.649zm6.762-5.112c-.825-.495-1.815.165-1.98.989-.164.825.495 1.814 1.485 1.649h.165c1.319-.33 1.649-1.979.33-2.638.164 0 .164 0 0 0zM43.4 121.57c-.66.33-.825.824-.66 1.484.165.99 1.65 1.319 2.309.495.66-.66.165-1.649-.495-1.979a1.408 1.408 0 00-1.154 0zm-.99-5.772c-.66-.165-1.32.66-.824 1.319.494.66 1.319.33 1.484-.33v-.164c.165-.33-.165-.825-.495-.825h-.165zm19.13 8.41c0-.659-.33-.824-.824-1.154-.99-.824-2.144.66-1.32 1.484.495.33.825.66 1.32.66.494-.165.824-.495.824-.99zm-4.453-6.431c.33-.165.66-.495.66-.99 0-.494-.33-.824-.66-1.154-.494-.495-1.484-.33-1.814.33-.33.659.165 1.484.825 1.649.33.165.66.33.99.165zm19.295.495c-.164 0-.33 0-.66.164-.659.165-.989 1.155-.659 1.65.33.494 1.32.659 1.814.165.165-.165.165-.33.33-.495.33-.66-.165-1.649-.825-1.484zm9.071 3.958s0 .164 0 0c-.99.659-.66 2.143.33 2.308.989.165 1.814-.989 1.319-1.814v-.165c-.495-.494-1.155-.659-1.65-.329zm-2.639-11.215c-.66-.659-1.979-.165-2.144.66-.165.99.825 1.979 1.65 1.484h.164c.99-.33 1.154-1.319.33-2.144.165 0 .165 0 0 0zm13.358 7.422c-.495 0-.825.164-1.154.494-.66.33-.825 1.32-.33 1.979.495.66 1.32.825 1.979.33.33-.33.66-.495.824-.989.33-.825-.33-1.814-1.319-1.814zm2.144-6.432c-.33.824.165 1.814.99 1.979.824.165 1.813-.495 1.649-1.484 0-1.32-1.98-1.814-2.639-.495zm34.632-29.355c.165 0 .33 0 .66-.165.659-.165.989-1.154.659-1.649-.33-.495-1.319-.66-1.814-.165-.165.165-.165.33-.33.495-.33.825.165 1.65.825 1.484zm-.66 8.576c-.659.33-.824 1.154-.494 1.649v.165c.659.824 1.979.66 2.308-.495.33-1.154-.824-1.979-1.814-1.32zm-9.4-6.762c0 .165 0 .165 0 0 .495.99 1.484 1.32 2.144.495l.165-.165c.66-.66.165-1.979-.66-2.144-1.154 0-2.144.99-1.649 1.814zm2.638 14.183c-.329.33-.659.495-.824.99-.33.989.165 1.978 1.319 1.813.495 0 .825-.164 1.155-.494.659-.33.824-1.32.329-1.98-.494-.494-1.319-.824-1.979-.329zm-9.07 2.144c.165 1.484 2.144 1.979 2.804.495.329-.825-.165-1.814-.99-1.98-.989-.164-1.979.495-1.814 1.485zm-45.351 36.116c-.33.33-.495.66-.495 1.154-.33 1.484 1.98 1.979 2.31.495.164-.495 0-.825 0-1.319-.33-.66-1.32-.99-1.815-.33zm8.081-1.814c-.825-.825-2.309 0-1.814 1.154v.165c.165.66 1.154.99 1.649.66.66-.495.66-1.484.165-1.979zm53.762-75.201s0-.165 0 0c-.165-.165-.165 0 0 0zm5.772 6.927s0 .164 0 0c.824 1.484 2.968 0 1.979-1.155 0 0 0-.165-.165-.165-.825-1.154-2.639 0-1.814 1.32zm5.772-8.576c-.495.33 0 1.32.659.825.495-.33 0-1.155-.659-.825zm5.442 11.544c0 .165 0 .165-.165.33-.33.825 0 1.649.989 1.979.99.165 1.484-.495 1.649-1.32v-.33c.165-1.483-1.979-1.813-2.473-.659zm24.737-3.957c-1.485.989 0 3.132 1.484 2.143 1.319-.825 0-3.133-1.484-2.144zm9.895-8.906c-.165-.495-.33-.99-.825-1.155-.659-.164-1.484.165-1.649.99-.165.66.33 1.32.99 1.484.659.165 1.649-.495 1.484-1.32zm4.617 5.442c-1.484-.33-1.979 2.144-.495 2.474h.33c1.484.164 1.979-1.98.495-2.31-.165-.164-.33-.164-.33-.164zm-1.484-14.183c-.825.495-.825 1.65-.165 2.31l.165.164c.989.99 2.638-.165 2.144-1.484v-.165c-.33-.99-1.484-1.32-2.144-.825zm-82.292 48.32c-.825-.33-1.814.33-1.649 1.32 0 .494.33.989.66 1.154.494.165.824.165 1.319 0s.66-.825.495-1.32c0-.66-.33-.99-.825-1.154zm3.298 12.698c-1.979 1.32 0 4.288 1.979 2.969 1.979-1.319 0-4.288-1.979-2.969zm104.061 100.853c-3.628.495-4.123 4.452-2.804 7.256.165.33.165.66.33.825 1.155 2.803 3.793 5.277 7.091 4.617 7.916-1.649 1.65-13.688-4.617-12.698zm-31.004 7.091c-2.803.495-3.133 3.463-2.144 5.607 0 .165.165.495.33.66.99 2.144 2.969 3.958 5.442 3.463 5.937-1.154 1.155-10.39-3.628-9.73zm-25.396 3.133c-1.814 2.144-.165 4.618 1.979 5.607.164.165.494.165.659.33 2.144.99 4.783 1.155 6.432-.824 3.628-4.783-5.937-8.741-9.07-5.113z" fill="#59204B"/><path d="M235.359 217.805c-5.937-8.411-14.348-14.678-23.583-19.295-18.47-9.07-42.218-12.534-61.677-4.288-8.246 3.463-16.492 9.4-19.955 17.976-3.793 9.07.165 20.119 4.618 28.365 9.894 17.81 28.53 27.87 48.319 30.014 20.285 2.144 52.938-1.649 60.194-24.572 2.144-9.565-2.474-20.779-7.916-28.2zm-44.362 50.793c-17.646-.33-35.456-6.267-47.33-19.79-6.597-7.586-12.039-17.48-12.533-27.705-.495-10.719 7.75-18.8 16.656-23.253 16.491-8.41 37.105-6.926 54.091-.989 9.73 3.463 19.13 8.74 26.552 16.161 7.586 7.751 15.007 20.944 12.698 31.993-6.102 19.625-32.653 23.748-50.134 23.583z" fill="#59204B"/><path d="M223.651 255.9c-17.646 4.288-34.303 1.154-50.959-5.442-16.326-6.597-34.961-16.987-36.281-36.776 0-.825-1.484-.99-1.484 0 1.154 18.965 17.316 29.849 33.148 36.611 16.986 7.256 37.6 13.193 55.576 6.596.989-.33.659-1.154 0-.989zm-59.699-48.98c1.979.33 4.452.165 5.936-1.319 1.32-1.319 1.485-3.463.33-4.782-1.319-1.485-3.298-2.309-5.277-1.815-.66.165-1.319.495-1.979.99-1.319.825-2.639 2.144-2.639 3.793 0 1.814 1.815 2.804 3.629 3.133zm52.772 38.755c1.649.825 3.793.495 5.112-.825 1.485-1.319 1.814-3.463 1.32-5.277-.66-1.814-2.309-3.793-4.288-3.628-2.309 0-3.463 2.639-3.793 4.618a2.809 2.809 0 000 1.649c-.33 1.319.33 2.638 1.649 3.463zm-45.846 15.502c-8.74-3.298-16.491-7.751-22.923-14.512-.33-.33-.824.164-.495.494 6.267 6.927 14.183 12.369 23.253 14.678.33 0 .495-.495.165-.66zm28.035 5.112c-7.091-1.319-13.853-1.649-20.779-4.123-.495-.165-.66.66-.165.825 6.432 2.474 13.853 4.782 20.779 4.123.495-.165.66-.825.165-.825zm35.127-37.105h-.165c-.825-.33-1.649.494-1.649 1.154 0 .825.824 1.484 1.649 1.155h.165c1.154-.33 1.154-1.815 0-2.309zm3.463 10.224c-.989 0-.989 1.485 0 1.485.99 0 .99-1.485 0-1.485zm-.824 8.741s-.165 0 0 0c-.99-.66-2.144.165-2.144.989 0 .825 1.154 1.649 1.979 1.155 0 0 .165 0 .165-.165.824-.495.824-1.484 0-1.979zm-5.608 5.442c-.66-.165-1.484.33-1.484 1.154 0 .66.66 1.32 1.484 1.155 1.319-.495 1.319-1.979 0-2.309zm-90.867-42.383h.165c.825.165 1.649-.33 1.649-1.154 0-.825-.824-1.32-1.649-1.155h-.165c-1.154.165-1.154 2.144 0 2.309zm6.762 4.123c.824 0 1.484-.825 1.154-1.649-.495-1.154-1.979-1.154-2.474 0-.165.824.495 1.649 1.32 1.649zm-.495-9.895c1.649 0 1.649-2.474 0-2.474s-1.649 2.474 0 2.474z" fill="#59204B"/><path d="M142.842 222.092s.165 0 0 0c.825-.494.825-1.649.165-2.144 0 0-.165.001-.165-.164-.824-.495-1.978.165-1.978 1.154 0 1.154 1.154 1.814 1.978 1.154zm45.352-22.758c1.154.495 2.309-.494 1.649-1.649-.165-.165-.33-.33-.33-.495-.494-.494-1.484-.494-1.979 0-.494.495-.494 1.485 0 1.979.33 0 .495.165.66.165zm7.916 6.102c.989 0 1.649-1.319.824-2.144l-.165-.165c-.33-.494-1.154-.494-1.484 0l-.165.165c-.659.825-.165 2.144.99 2.144zm4.947-3.133c.824.165 1.319-.495 1.154-1.155 0-.165-.165-.329-.165-.494-.329-.66-1.319-.825-1.814-.165-.494.494-.33 1.319.165 1.814h.66zm.495 36.281c0 1.154 1.649 1.649 2.309.659v-.164c.164-.33.164-.66 0-.99v-.165c-.66-.989-2.309-.495-2.309.66zm-4.618-7.916c.495 1.319 1.814 1.319 2.309 0 .33-.66-.495-1.484-1.154-1.484-.825 0-1.485.824-1.155 1.484zm-11.049 16.326c.99 1.32 2.969-.659 1.814-1.814-.165-.164-.33-.329-.495-.329-.989-.66-2.308.659-1.649 1.649 0 0 .165.33.33.494zm-19.13-10.224c.165 0 .165-.165 0 0 0-.165 0 0 0 0zm-3.463-.495c-.66.66-.33 1.649.494 1.979.165 0 .33.165.495.165.66.33 1.484-.495 1.154-1.154 0-.165-.164-.33-.164-.495-.33-.825-1.32-1.155-1.979-.495zm152.545-54.586c-3.628-.495-5.112 3.133-4.782 6.102v.989c.33 2.968 2.144 6.102 5.442 6.432 8.081.659 5.442-12.699-.66-13.523zm-31.828-2.144c-2.804-.33-3.958 2.309-3.628 4.782v.66c.33 2.309 1.649 4.618 4.123 4.947 6.266.495 4.287-9.73-.495-10.389zm-25.232-4.453c-2.309 1.484-1.484 4.453.165 5.937l.495.495c1.649 1.649 4.288 2.474 6.431.989 5.113-3.463-3.133-10.059-7.091-7.421z" fill="#59204B"/><path d="M335.132 195.542c-3.298-9.73-9.4-18.306-16.986-25.232-15.007-14.018-36.776-24.243-57.72-22.099-8.905.99-18.635 4.288-24.242 11.379-6.267 7.586-5.772 19.295-3.793 28.366 4.288 19.954 19.13 34.961 37.6 42.712 18.8 7.916 51.123 13.688 64.811-6.102 4.453-8.245 3.298-20.119.33-29.024zm-57.225 35.786c-16.821-5.277-32.158-16.327-39.579-32.653-4.123-9.07-6.432-20.284-3.958-30.014 2.638-10.39 12.863-15.667 22.758-17.481 18.14-3.299 37.435 4.123 52.113 14.842 8.41 6.102 15.831 14.018 20.614 23.253 4.947 9.565 8.41 24.407 2.968 34.467-11.709 16.656-38.26 12.863-54.916 7.586z" fill="#59204B"/><path d="M312.868 228.689c-18.14-.989-33.147-8.905-47.165-19.954-13.688-11.05-28.53-26.387-24.077-45.682.164-.824-1.155-1.319-1.32-.329-4.452 18.47 7.916 33.477 21.109 44.691 14.018 11.874 32.158 23.583 51.288 22.428.825-.164.825-1.154.165-1.154zm-43.042-64.151c1.814.824 4.123 1.484 6.102.494 1.649-.824 2.474-2.803 1.649-4.617-.824-1.814-2.473-3.133-4.452-3.298-.825 0-1.485.165-2.144.494-1.484.33-3.134 1.32-3.628 2.804-.495 1.814.989 3.298 2.473 4.123zm39.25 52.277c1.319 1.32 3.463 1.485 5.112.825 1.814-.825 2.803-2.804 2.639-4.618 0-1.814-1.155-4.287-3.134-4.782-2.309-.66-4.123 1.484-4.947 3.298-.33.495-.495.99-.495 1.484-.33 1.155-.165 2.804.825 3.793zm-48.32 1.649c-7.421-5.607-13.688-12.203-17.811-20.614-.165-.494-.825-.165-.66.33 4.123 8.411 9.895 15.832 18.141 20.779.33.165.659-.33.33-.495zm25.397 13.029c-6.432-3.299-12.864-5.607-18.636-9.895-.494-.33-.824.33-.494.659 5.442 4.288 11.873 8.741 18.8 9.895.33.165.824-.494.33-.659zm44.361-25.232s-.165-.165 0 0c-.824-.66-1.814-.165-2.144.66-.164.824.33 1.649 1.155 1.649h.165c1.319-.165 1.814-1.649.824-2.309zm.33 10.719c-.989-.33-1.319 1.155-.495 1.485.99.329 1.485-1.155.495-1.485zm-3.298 8.081c-.66-.989-1.979-.495-2.309.33-.33.824.66 1.979 1.484 1.649h.165c.99-.33 1.155-1.154.66-1.979zm-6.926 3.628c-.66-.495-1.485 0-1.65.66-.164.659.33 1.484.99 1.484 1.319-.165 1.814-1.484.66-2.144zm-74.706-66.955h.165c.659.33 1.649.165 1.979-.659.329-.825-.33-1.485-1.155-1.65h-.165c-1.319-.164-1.979 1.814-.824 2.309zm5.277 5.937c.66.165 1.649-.33 1.649-1.154-.165-1.155-1.649-1.649-2.308-.66-.66.66 0 1.649.659 1.814zm2.474-9.565c1.484.495 2.308-1.979.659-2.309-1.484-.494-2.308 1.814-.659 2.309z" fill="#59204B"/><path d="M245.254 172.948s.165 0 0 0c.989-.329 1.319-1.319.824-1.979 0 0 0-.165-.164-.165-.66-.659-1.815-.494-2.144.495-.33.99.494 1.979 1.484 1.649zm50.134-8.575c.989.824 2.309.165 2.144-1.155 0-.164-.165-.494-.165-.659-.33-.66-1.155-.825-1.814-.495-.66.33-.99 1.154-.495 1.814 0 .165.165.33.33.495zm5.607 8.081c.989.329 1.814-.825 1.484-1.815v-.164c-.33-.495-.99-.66-1.484-.495h-.165c-.99.824-.825 2.144.165 2.474zm5.772-1.485c.66.33 1.484 0 1.484-.824v-.66c-.165-.659-.989-1.154-1.649-.824-.66.329-.824 1.154-.33 1.814.165.329.33.329.495.494zm-10.06 34.797c-.33 1.155 1.155 1.979 1.979 1.155.33-.165.33-.66.33-.99v-.165c-.33-1.154-1.979-1.154-2.309 0zm-2.144-8.905c0 1.319 1.319 1.814 2.144.659.495-.659 0-1.484-.66-1.814-.66-.165-1.649.33-1.484 1.155zm-15.337 12.368c.66 1.485 3.133.165 2.144-1.154-.165-.165-.33-.33-.33-.495-.824-.824-2.309 0-1.979 1.155 0 0 0 .165.165.494zm-15.172-15.337s0-.165 0 0c-.165-.165-.165 0 0 0zm-3.298-1.484c-.824.495-.824 1.484 0 1.979.165.165.33.165.33.33.495.495 1.484-.165 1.484-.825v-.494c-.165-.825-.989-1.485-1.814-.99zm-30.344-62.172c-7.256-15.337-27.706-19.46-43.043-19.46-24.737 0-51.453 9.235-69.593 26.386-7.421 7.421-13.853 16.821-12.864 27.705.825 9.401 6.762 16.162 15.667 18.471 25.892 6.761 55.246.659 79.818-8.906 17.316-6.596 40.239-22.593 30.015-44.196zm0 11.544c-.825 12.038-10.39 20.779-20.285 25.891-19.295 10.06-42.877 15.667-64.646 15.832-10.884.165-29.025.659-35.291-10.06-7.421-12.369.659-25.727 9.4-34.632 15.007-14.347 34.961-21.768 55.411-24.737 14.512-2.144 31.168-1.484 43.867 6.762 7.091 4.452 12.038 12.038 11.544 20.944z" fill="#59204B"/><path d="M218.043 144.253c-11.379 12.864-30.509 17.481-46.34 22.099-9.071 2.638-17.976 4.452-27.541 5.112-10.389.66-19.79-.989-30.014-2.474-.33 0-.66.495-.33.66 17.481 7.916 39.579 3.628 57.225-.989 9.565-2.474 19.13-5.937 28.2-9.73 7.586-3.134 14.183-7.257 19.46-13.853.495-.66-.165-1.319-.66-.825zm-57.225-12.698c1.814.165 4.123-1.154 5.607-2.144 1.484-1.154 2.804-2.803 2.144-4.782-1.484-4.288-7.751-1.814-8.905 1.319 0 .165-.165.33-.165.66-1.484 1.979-1.484 4.617 1.319 4.947zm-33.312 17.646c4.123.33 14.677-5.772 9.07-10.225-2.639-2.144-8.411-.165-10.389 2.968-.66.66-1.155 1.485-1.485 2.309-.989 2.309 0 4.783 2.804 4.948zm5.112-6.597s0-.165 0 0l.33-.33c.165-.165.165-.165 0 .165-.165 0-.33 0-.33.165zm64.976-3.133c1.979.659 4.123-.165 5.772-1.32 1.484-1.154 3.463-3.298 2.474-5.277-.825-1.979-3.299-2.144-5.113-2.144-2.144.165-4.617.99-5.112 3.299-.165.494-.165.989 0 1.319-.66 1.814 0 3.628 1.979 4.123zm-44.362 18.305c2.804.33 11.379-3.463 7.257-7.256-2.474-2.309-9.071-.495-10.225 2.968-.165.33-.33.495-.495.825-.33 2.144 1.814 3.298 3.463 3.463zm27.871-20.449c1.814 0 1.814-2.804 0-2.804-1.979-.164-1.979 2.804 0 2.804zm7.256-9.4c1.484 0 1.484-2.309 0-2.309s-1.484 2.309 0 2.309zm8.081-8.411c.33.495.989.495 1.484 0l.165-.165c.495-.659-.165-1.484-.825-1.484-.659 0-1.319.825-.824 1.484-.165.165 0 .165 0 .165zm15.666 3.134c.165 0 .495.164.66 0 .66.164 1.154-.33.99-.99V121c-.33-.824-1.32-1.154-2.144-.494-.825.824-.495 1.979.494 2.144zm7.916 6.101c-1.649 0-1.649 2.639 0 2.639 1.65-.165 1.65-2.639 0-2.639zm-18.635 38.92c-12.038 6.102-24.077 10.06-37.6 11.544-.33 0-.33.495 0 .33 13.193-.495 26.551-4.288 37.93-11.379.165-.165 0-.495-.33-.495z" fill="#59204B"/><path d="M181.597 157.281c1.979 0 1.979-3.133 0-3.133s-1.979 3.133 0 3.133zm-51.123-.494c-.495 0-.989.165-1.484.33-.825.329-.99 1.484-.66 2.144.33.824 1.155 1.154 1.979.989.33-.165.66-.165.99-.495.659-.494.989-1.154.824-1.814-.33-.495-.989-1.154-1.649-1.154zm-9.73 7.256c.165 0 .165 0 0 0 .495-.66.495-1.319 0-1.814-.824-.825-2.309-.165-2.309.989 0 .99 1.485 1.65 2.309.825zm18.305-30.179c.495.989 1.979.989 2.474 0v-.165c.495-.99-.165-2.309-1.319-2.309-1.155 0-1.649 1.319-1.155 2.474 0-.165 0-.165 0 0zm-21.108 22.428s.165-.165 0 0c.495-.495.495-1.154 0-1.484-.66-.66-1.814-.165-1.814.824 0 .825 1.154 1.32 1.814.66zm105.05-12.533s0 .164 0 0c.494 1.154 1.814 1.154 2.143.164v-.164c.33-.66-.494-1.485-1.154-1.485-.66 0-1.319.825-.989 1.485zm-5.277 14.017c-1.649.99-2.804 2.639-4.288 3.793-1.814 1.485-3.628 2.804-5.607 3.793-.33.165 0 .495.165.33 3.463-1.484 8.575-3.793 10.224-7.421.33-.33 0-.825-.494-.495zm593.041 59.771c-2.639-30.205-22.287-53.519-51.466-60.997-33.138-8.504-72.727.88-96.48 25.953-9.971 10.411-17.156 23.754-17.596 38.27.88.293 1.76.44 2.493.733.147-10.557 3.959-20.674 10.411-29.618 19.648-27.273 56.304-38.71 88.709-35.044 15.835 1.906 31.524 7.918 43.108 19.354 11.144 11.144 16.862 26.1 18.182 41.642.293 4.693-.294 9.238-1.613 13.637-5.132 7.478-12.757 10.557-21.408 12.17-6.745 1.319-13.783.733-20.234 3.226-6.745 2.639-12.464 7.477-19.062 10.263-7.331 3.226-14.369 2.64-21.994 1.027-5.865-1.173-11.73-2.933-17.742-2.933-7.184-.146-13.929 2.2-20.967 2.493-12.317.586-24.34-5.279-31.965-14.809-.586 1.173-1.173 2.199-1.906 3.079 2.933 6.158 6.892 11.877 11.437 16.862 10.557 11.29 23.607 17.302 38.709 19.501 19.062 2.933 38.856 2.053 57.038-4.252 24.34-8.358 54.105-31.085 52.346-60.557zm-7.918 22.874c-.586-.147-1.466.147-1.759.733 0 .147-.147.293-.147.44v.147c0 .439.147.733.44 1.026-7.771 12.61-20.968 22.58-33.138 28.446-15.102 7.331-32.111 10.557-48.973 10.117-16.276-.293-33.138-2.64-46.481-12.61-3.372-2.493-6.598-5.425-9.384-8.651.293.293.88.586 1.466.586h.147c1.173 0 1.906-1.759 1.026-2.639l-.146-.146c-.88-.88-2.346-.88-2.786.439-.293.587-.147 1.173.146 1.613-3.225-3.665-6.158-7.624-8.504-11.876 1.76 1.906 3.666 3.665 5.865 5.131-.293.147-.44.294-.586.734-.44.879.44 2.052 1.466 1.906h.44c.586-.147.88-.587 1.026-1.027 4.546 2.933 9.678 4.839 15.249 5.572 8.065 1.173 15.689-1.319 23.754-2.053 8.358-.733 16.129 1.907 24.193 3.373 1.906.293 3.813.586 5.719.733-1.76.88-.587 3.812 1.319 2.932 1.32-.586 1.173-2.199.147-2.932 3.959.147 7.771-.293 11.584-1.76 9.384-3.519 16.715-10.997 26.832-12.609 3.959-.587 7.771-1.027 11.437-1.467-.147.88.44 1.613 1.32 1.613h.44c.733-.146 1.173-1.173.733-1.759l-.147-.147c3.373-.586 6.598-1.32 9.824-2.639-.147.293 0 .586.147 1.026.44.88 1.319 1.173 2.199.88h.147c.88-.293 1.173-1.466.88-2.2a1.77 1.77 0 00-.734-.733c1.76-.879 3.666-1.906 5.279-3.079l-.44.88z" fill="#59204B"/><path d="M726.298 219.6c9.09-.293 24.779-3.959 29.472-12.61 1.026-1.906 1.759-4.545 1.466-7.771-.88-12.757-19.502-15.543-29.765-15.249-10.411.293-32.258 5.425-31.085 19.941 1.173 13.05 20.088 15.982 29.912 15.689zm-.294-2.493c-6.011.147-17.448-1.026-23.313-6.158 6.451-6.158 15.396-7.478 24.046-8.211 6.892-.587 20.821-2.053 26.247 3.666-5.132 7.917-19.355 10.557-26.98 10.703zm.733-30.498h1.907c-.294.147-.734.44-.734.88-.293.879.294 2.199 1.32 2.346h.147c1.613 0 2.346-1.76 1.173-2.786l-.147-.147-.146-.146c9.09.146 21.554 1.319 23.9 10.703-.733-.733-9.091-3.959-12.317-3.372-.88.147-1.026 1.32-.147 1.759 3.08 1.467 13.05 2.053 13.05 7.038-.146.44-.146.88-.293 1.174-6.012-5.866-17.155-4.839-24.78-4.399-10.117.44-21.847 1.466-28.446 9.97l-.293-.293c-2.053-3.959 12.757-9.677 14.516-10.704.587-.293.44-1.173-.293-1.026-3.079.293-13.636 3.372-15.982 7.771-.147-.44-.147-.88-.147-1.319-.88-12.757 18.768-17.156 27.712-17.449zm52.933 6.598c.586.44.879 1.027 1.466 1.466 1.026.734 2.346-.293 1.906-1.466-.586-1.466-2.199-2.639-3.519-3.372-.587-.44-1.466-.293-1.906.293-.44.587-.293 1.466.293 1.906.587.293 1.173.733 1.76 1.173zm-15.542 30.205c-1.76.587-3.08 2.2-4.839 3.079-1.906.88-3.959 1.467-6.012 1.613-1.466.147-1.026 2.2.293 2.2 3.813-.294 9.971-1.76 11.731-5.572.586-.733-.294-1.613-1.173-1.32zm20.674-4.838c1.76-.734 4.545-2.346 4.692-4.692 0-.734-.733-1.467-1.32-1.027-.879.44-1.319 1.173-1.906 1.76-.733.733-1.466 1.173-2.346 1.613-1.466.879-.586 3.079.88 2.346zm-23.461-32.552c.587 1.32 2.64.734 2.346-.586-.439-2.199-1.906-4.399-3.372-6.012-.88-1.026-2.493.147-1.613 1.32 1.173 1.613 1.76 3.372 2.639 5.278zm-12.316-15.835c1.32-.147 3.079-.587 3.519-2.053.293-.733-.147-1.32-.88-1.466-1.026-.147-2.053.44-3.079.586-1.173.293-2.199.147-3.372-.146-1.32-.294-1.906 1.906-.587 2.346 1.466.733 2.933.879 4.399.733zm-29.179-.147c.88.587 1.466 1.173 2.493.733.586-.146.88-.879.733-1.466-.147-1.026-1.026-1.466-1.906-1.906-.733-.293-1.32-.733-2.053-1.026-1.32-.734-2.639 1.466-1.32 2.346.88.586 1.467.879 2.053 1.319zm-21.7 10.264c1.026-.733.44-2.199-.733-2.493-.733-.146-1.467.147-2.2-.146-.733-.147-1.319-.587-1.759-1.027-1.173-1.026-2.933.88-1.906 1.906 1.612 1.76 4.692 3.226 6.598 1.76zm-15.543 16.422c1.027-.879 2.053-1.613 3.226-2.199 1.173-.44 2.199-.587 3.079-1.613.44-.587.147-1.466-.44-1.613-2.639-1.173-6.011 1.906-7.624 3.519-1.027 1.173.733 2.933 1.759 1.906zm-12.17 9.531c-.44-1.173-.587-2.346-.44-3.666.147-1.173.88-2.346.293-3.372-.293-.587-.879-.88-1.466-.587-1.466.587-1.613 2.64-1.759 3.959 0 1.613.293 3.226.879 4.692.587 1.76 3.079.733 2.493-1.026zm20.088 11.144c1.026.733 1.613 1.759 2.199 2.785.293.587.733.88 1.467.88.439 0 .733-.293.879-.586.294-.294.294-1.027.147-1.467-.587-1.466-1.906-2.785-3.226-3.812-1.32-.88-2.786 1.173-1.466 2.2zm-23.167 14.516c1.173-.294 1.173-1.613.88-2.493-.44-1.173-.88-2.346-1.027-3.519-.146-1.906-3.079-1.613-2.932.44 0 1.319.586 6.011 3.079 5.572zm17.448 4.398c.587 2.2 2.786 6.305 5.572 5.426.587-.147.733-1.027.587-1.613-.293-1.027-1.32-1.32-1.906-2.053-.733-.733-1.027-1.613-1.32-2.493-.586-1.613-3.372-.879-2.933.733zm31.232-2.639c-.88-.293-1.76-.733-2.493-1.319-1.466-1.027-3.226 1.173-1.759 2.346.879.733 1.906 1.319 2.932 1.759 1.026.44 2.346 1.026 3.519.733 1.027-.293 1.76-1.906.587-2.492-.88-.587-1.906-.734-2.786-1.027zm21.554 10.264c-1.32 0-2.493.293-3.812-.293-1.76-.733-2.786 2.052-1.027 2.786 1.613.733 3.959 1.173 5.719.293 1.32-.733.733-2.786-.88-2.786zm62.61-30.059c.44-2.052.44-4.545-.733-6.304-.44-.587-1.613-.294-1.613.439 0 .88.146 1.76.293 2.64.147 1.026 0 1.906-.147 2.932-.293 1.32 1.907 1.613 2.2.293zm-16.716 20.528c2.2.44 6.159 0 6.599-2.786.146-.733-.587-1.319-1.173-1.173-.88.147-1.613.733-2.347 1.027-.879.293-1.759.293-2.639.146-1.906-.293-2.199 2.493-.44 2.786zm-15.542-32.404c-.293 1.026-.44 2.052-.587 3.079-.146 1.026-.586 2.053-.733 3.079-.293 1.32 1.613 2.053 2.346 1.026 1.173-1.906 1.906-4.985 1.027-7.184-.44-.88-1.76-.88-2.053 0zm8.651-27.126c.586.586 1.026 1.026 1.906 1.173.293 0 .733-.147.88-.587.586-2.052-2.053-3.665-3.813-4.105-.733-.147-1.319 0-1.613.733-.293.586 0 1.466.734 1.759.586.294 1.319.587 1.906 1.027zm-119.648 43.548c.587-.88.44-1.906.44-2.933 0-1.026.147-2.052.44-3.079.44-1.759-2.346-2.053-2.786-.44a14.473 14.473 0 00-.44 3.519c0 1.173 0 2.346.88 3.08.44.439 1.173.293 1.466-.147zm34.898 43.255c-.293.733-.147 1.613.293 2.199.587.733 1.76 1.027 2.493.733.44-.293 1.026-.586 1.319-1.173.147-.586 0-1.173-.146-1.759-.587-1.906-3.373-1.76-3.959 0zm7.624 0h.44c.44.146.733-.587.293-.88-.146-.147-.293-.147-.293-.293-.88-.587-1.466 1.026-.44 1.173zm6.452-1.906c-.147-1.027-1.173-1.613-2.053-1.173-.88.44-1.173 1.613-.586 2.346 1.026 1.319 2.932.586 2.639-1.173zm85.923-12.17c-.147.146-.293.146-.44.293-.587.44-.44 1.32.293 1.613.587.293 1.32-.293 1.32-1.027 0-.146-.147-.293-.147-.586-.293-.293-.733-.44-1.026-.293zm-4.986 6.451c-1.906.88-.586 3.813 1.32 3.079 1.906-.879.587-3.959-1.32-3.079zm-31.231 18.329c-16.569 2.346-32.405 5.278-49.413 4.545-.733 0-.88 1.026-.147 1.173 16.422 1.026 34.164.88 49.706-4.839.587-.146.44-1.026-.146-.879z" fill="#59204B"/><path d="M722.486 188.955c-.147 0-.147.147 0 0 0 0 0-.147 0 0zm3.225 1.32c1.76-.734.587-3.519-1.173-2.786-1.906.733-.586 3.519 1.173 2.786zm12.61-2.346s0 .146 0 0c.147 0 .147-.147 0 0zm2.493 3.372c.88-.44 1.32-1.466.88-2.346-.44-.88-1.466-1.32-2.346-1.026-.88.439-1.32 1.466-.88 2.346.44.879 1.466 1.319 2.346 1.026zm-151.465 79.912c8.064 2.199 15.249-2.786 22.434-5.719 8.211-3.372 17.302-1.466 25.366-4.985.88-.293.293-1.613-.44-1.32-7.038 2.786-14.809 1.613-21.994 3.666-8.797 2.493-15.689 7.771-25.073 7.331-.733.147-.88.88-.293 1.027zm-9.384-19.942c6.745 4.839 16.569 7.771 24.486 4.546.587-.147.294-1.027-.293-1.027-8.651.88-15.982.733-23.313-4.545-.587-.587-1.613.44-.88 1.026z" fill="#59204B"/><path d="M639.202 277.811c2.346-2.2 4.252-4.839 5.571-7.918 2.786-3.373 3.08-8.651 3.373-12.757 2.053-3.812 3.666-8.064 4.839-11.876 5.425-4.399 8.651-10.704 5.865-18.182-.147-.293-.44-.587-.587-.733-.586-.88-1.32-1.613-2.639-2.493-3.519-2.346-7.625-3.812-11.437-5.278-7.038-2.64-14.076-5.279-21.114-7.625h-.147c-29.179-10.85-58.651-20.968-88.416-30.059-4.399-1.319-8.651-2.639-13.05-3.958-3.372-1.027-7.184-2.64-10.85-2.493-1.906 0-3.812.733-4.545 2.053-3.226 3.225-7.332 7.624-5.279 12.463 0 .147.147.147.147.293-2.053 3.666-3.813 7.918-3.666 12.024-2.199 3.519-3.959 7.478-4.692 11.436 0 .147 0 .44-.147.587-1.906 3.226-2.639 6.598-2.492 9.824-1.76.147-3.519.733-4.106 2.053-3.226 3.226-7.331 7.624-5.278 12.463 1.319 3.079 4.838 6.012 7.184 8.358 3.226 3.372 6.598 6.598 9.971 9.824 13.49 12.756 27.126 25.366 41.642 36.803 7.038 5.572 14.369 11.29 21.994 16.276 5.718 3.812 12.023 4.252 18.768 3.372 15.543-2.053 31.965-7.478 46.188-13.93 8.211-4.105 15.102-11.29 12.903-20.527zm-138.856-69.355c4.985 6.012 13.783 7.918 19.795 12.757 4.252 3.372 7.331 7.771 10.264 12.316-13.93 2.2-30.939-10.703-30.059-25.073zm-2.786-1.026c.147 0 .294 0 .44-.147l.147-.146c-.147.146-.293.44-.293.586l-.294-.293zm33.724 28.299c.147 0 .147 0 .294-.147 4.545 7.478 8.797 15.103 16.715 19.648 4.399 2.493 8.944 4.399 13.343 6.745-17.302 5.572-30.645-9.824-30.645-26.393.147.147.293.147.293.147zm97.361 41.349c3.812-1.027 8.504-2.053 12.17-4.106-4.986 6.305-12.904 10.117-20.382 12.317-8.064 2.346-15.102 1.026-22.58-.88 5.132-.587 10.41-1.466 15.249-3.226 5.279 0 10.557-1.466 15.249-4.252-.146.147 0 .147.294.147zm-26.98-1.467c1.173-.293 2.2-.733 3.373-1.026 4.105-1.466 7.771-3.959 11.876-5.279 5.572-1.906 12.17-.733 18.182-1.906-8.504 10.704-21.407 13.05-33.431 8.211zm-3.812.88c2.346 1.613 4.985 2.933 7.624 3.666-4.252.733-8.357 1.613-12.609 2.053a33.65 33.65 0 01-5.426 0c.294-.44.147-.88-.293-1.173-.733-.294-1.173.439-1.173 1.026-4.692-.733-8.797-2.933-13.343-5.572-4.252-2.493-8.504-4.839-12.61-7.331-1.613-.88-3.372-2.053-5.132-3.226 2.933 0 5.865-.587 8.798-1.906.293-.147.44-.293.586-.44 2.053 1.173 4.106 2.639 6.012 4.252 5.279 4.399 10.264 8.065 17.302 9.091 3.519.44 6.892.293 10.264-.44zm-49.413-11.29c2.786 2.786 7.478 4.692 10.557 6.451 5.132 2.933 10.264 6.159 15.542 9.091 3.519 2.053 6.892 3.373 10.411 3.959-4.252 1.613-8.211 3.666-13.05 3.079-5.718-.586-10.704-3.665-14.809-7.331-6.305-5.572-11.584-12.61-16.862-19.355 2.346 1.76 5.132 3.226 8.211 4.106zm-15.103-10.557c12.17 15.542 31.085 47.067 54.399 30.498l.146-.147h3.226c7.038 2.64 14.663 4.253 21.994 3.813-9.677 3.665-19.794 7.331-29.912 9.384-9.677 1.906-15.249-2.493-22.14-7.332-10.557-8.797-21.848-16.862-32.258-25.806-9.971-8.504-19.502-17.448-29.032-26.393 4.692 3.226 9.97 5.865 14.956 8.211 6.011 2.933 12.17 5.719 18.621 7.772zm106.891 15.835c-2.493 1.613-5.425 2.786-8.358 3.813a27.152 27.152 0 006.012-6.892c.147-.293.147-.44.147-.733 1.173-.44 2.346-.88 3.372-1.613 1.32-.88 2.639-2.053 3.666-3.372-.587 3.372-1.467 6.598-4.839 8.797zM511.49 176.492c2.199-.294 4.985 1.173 6.891 1.613 8.065 2.346 15.983 4.838 24.047 7.331 14.223 4.399 28.592 8.944 42.668 13.783 12.464 4.105 24.927 8.504 37.244 12.903 8.944 4.106 18.621 6.598 27.565 10.85 2.493 1.173 6.745 3.373 6.452 5.865-.293 0-.733.294-.587.734v.439c-.439.587-1.173 1.173-2.199 1.613-5.278 2.786-10.997 4.839-16.422 6.892-10.997 4.105-22.434 8.651-34.017 10.85-9.678 1.906-15.25-2.493-22.141-7.331-10.557-8.798-21.848-16.862-32.258-25.806-11.877-10.118-23.314-20.821-34.604-31.672-1.613-1.466-3.666-3.226-4.985-4.839-1.613-2.052 1.319-3.079 2.346-3.225zm-8.211 6.598c0 1.466.733 2.932 2.052 4.545 4.253 4.986 9.238 10.411 14.517 14.223.586.44 1.612-.293 1.026-.88-2.346-2.932-5.132-5.278-7.771-7.917-3.519-3.52-9.531-7.625-6.745-13.05 2.053 4.105 7.771 7.918 10.704 10.85 6.744 6.598 13.636 12.903 20.527 19.208 7.332 6.598 14.81 13.05 22.434 19.208 6.159 4.986 12.463 10.411 19.062 15.103 7.184 5.572 14.956 9.237 24.34 7.478 14.662-2.933 29.472-8.944 43.255-14.663 2.492-1.026 6.451-2.493 9.09-4.399-1.906 7.918-17.595 12.903-23.606 15.396-.44.147-.294 1.027.293.88 6.745-1.173 13.05-4.252 18.621-8.065 2.933-2.199 6.012-4.692 6.452-8.064.147 11.437-16.422 16.275-25.513 19.648-8.358 2.932-16.862 5.718-25.513 7.625-3.666.733-7.478 1.466-11.29 1.612-6.452.147-10.997-2.346-16.129-6.011-14.956-10.704-29.179-22.434-42.815-34.751-6.892-6.305-13.93-12.463-20.675-18.915-3.519-3.372-7.038-6.744-10.264-10.41-2.346-3.079-3.519-5.572-2.052-8.651zm64.955 67.302c-6.891-.587-12.61-4.693-17.595-9.531-5.278-4.986-10.41-10.264-15.542-15.396-5.132-5.132-9.678-10.117-13.93-15.542 12.463 11.583 25.073 23.167 38.416 33.724 2.786 2.346 5.719 4.545 8.651 6.745zm-60.41-53.373c2.2 2.346 4.546 4.546 6.892 6.745 6.011 9.971 13.343 17.889 21.7 26.1 9.384 9.384 19.942 23.9 34.897 22.874h.147c3.373 2.492 6.745 4.838 10.117 7.184 5.719 3.813 12.024 4.252 18.769 3.373 15.542-2.053 31.964-7.478 46.187-13.93a18.73 18.73 0 002.932-1.613c-2.199 5.132-4.252 10.704-8.65 14.076-6.452 4.986-16.129 2.2-23.607 4.253-8.358 2.199-14.81 7.771-23.901 8.357-13.782.88-22.433-10.85-33.577-16.862-3.666-1.906-7.625-3.079-11.144-5.278-3.372-2.2-6.158-4.986-8.504-8.211-3.812-5.132-6.598-11.144-10.264-16.276-4.399-6.305-9.97-10.41-16.862-13.783-4.545-2.346-10.704-4.985-12.61-10.264-1.613-4.105 0-8.797 1.613-12.903 1.466 2.2 4.106 4.252 5.865 6.158zM498 204.497c-.44.44-.44 1.32.44 1.467h.147c0 .146.146.146.146.293l-.44.44v-.147c-.146-.293-.293-.44-.439-.733-1.027-.733-1.907.733-1.173 1.32-.734.146-1.027 1.319-.147 1.613.44.146 1.32.439 1.613-.294-.88 12.17 10.117 23.314 21.994 26.54-.587.146-.88 1.319-.147 1.466.293.147.587.147 1.027.147.586 0 .879-.587.439-.88-.146-.147-.293-.44-.586-.587 1.906.44 3.959.733 5.865.733-.44.294-.587 1.027.147 1.32.586.293 1.466 0 1.466-.88 0-.146-.147-.293-.293-.44-.147 0-.147 0-.294-.146.587 0 1.173 0 1.613-.147-.586 5.132.44 10.264 2.493 14.663-1.466-1.026-2.786-2.199-4.252-3.226.88-.44.44-1.759-.587-1.466h-.146c-.294.146-.44.293-.44.586-6.452-4.985-12.903-9.97-18.915-15.542-2.933-2.786-8.065-6.745-10.997-10.997.88.147 1.466-1.32.44-1.76-.587-.293-1.027.147-1.173.587-1.027-1.76-1.613-3.519-1.32-5.279 0-.44.147-1.026.293-1.466 0 .733 1.613 1.173 1.613.147v-.147c0-.733-.733-1.173-1.319-.586l-.147.146-.147.147c.587-2.639 1.76-5.425 3.08-7.918-.147.586 0 .733.146 1.026zm.587 20.528c8.357 8.944 17.888 17.009 27.859 24.34-7.038-2.932-13.93-6.012-20.675-9.677-4.838-2.786-10.85-6.159-12.756-11.73-1.173-3.373-1.173-7.185-.293-10.704.879 2.932 3.372 5.132 5.865 7.771zm-5.132 7.771c-1.467-1.319-3.226-2.639-4.252-4.252-.147-.293-1.027-.88-1.027-1.173 0-.44 1.027-1.173 1.906-1.759.733 2.492 1.76 4.985 3.373 7.184zm118.327 68.035c-8.357 2.933-16.862 5.719-25.513 7.625-3.665.733-7.478 1.466-11.29 1.613-6.451.146-10.997-2.346-16.129-6.012-14.956-10.704-29.179-22.434-42.815-34.751-6.891-6.305-13.929-12.463-20.674-18.914-3.519-3.373-7.038-6.745-10.264-10.411-2.346-2.639-3.519-5.132-2.053-8.211 0 1.466.733 2.932 2.053 4.545 4.252 4.986 9.237 10.411 14.516 14.223.587.44 1.613-.293 1.026-.88-2.346-2.932-5.132-5.278-7.771-7.917-3.519-3.519-9.531-7.625-6.745-13.05 2.053 4.105 7.772 7.918 10.704 10.85 6.745 6.598 13.636 12.903 20.528 19.208 7.331 6.598 14.809 13.05 22.434 19.208 6.158 4.986 12.463 10.411 19.061 15.103 7.185 5.572 14.956 9.237 24.34 7.478 14.663-2.933 29.472-8.944 43.255-14.663 2.493-1.026 6.452-2.492 9.091-4.399-1.906 7.918-17.595 12.904-23.607 15.396-.44.147-.293 1.027.293.88 6.745-1.173 13.05-4.252 18.622-8.065 2.932-2.199 6.012-4.692 6.452-8.064.293 11.144-16.423 15.982-25.514 19.208z" fill="#59204B"/><path d="M584.07 303.47c-8.651.88-15.982.734-23.314-4.545-.733-.587-1.613.587-.879 1.026 6.744 4.839 16.568 7.772 24.486 4.546.587-.293.294-1.027-.293-1.027zm69.648-73.46c1.173.587 2.493-.439 2.346-1.759v-.147c-.147-1.173-1.613-1.906-2.639-1.173h-.147c-.88.88-.733 2.493.44 3.079zm-3.226 2.933s.147 0 .147-.147c1.173-.586.293-2.786-.88-2.492h-.147c-.879.146-1.466 1.026-1.173 1.906.294 1.026 1.32 1.173 2.053.733zm-3.226-6.012c.587.44 1.173.294 1.76 0 .439-.146.586-.586.439-1.026 0-.44-.293-.88-.733-1.173-.586-.293-1.319 0-1.613.586-.439.44-.439 1.173.147 1.613zm-3.959 6.012c.88.44 1.76-.147 1.906-1.026v-.147c.294-1.32-1.613-2.199-2.346-1.026v.146c-.586.733-.44 1.613.44 2.053zm-3.959-6.745c1.173.587 2.053-1.319.88-1.759-1.173-.587-2.053 1.319-.88 1.759zm-5.131 7.918c.733.293 1.466-.44 1.173-1.173v-.147c-.147-.44-.587-.586-1.027-.44h-.146c-.734.294-.734 1.467 0 1.76zm.146 3.226s-.147 0 0 0c-1.027 1.319 1.32 2.493 1.613.88v-.147c.146-.88-1.173-1.466-1.613-.733zm-13.929 2.932c-.88.294-.587 1.467.146 1.613.587.147 1.467-.146 1.32-.88 0-.733-.88-.879-1.466-.733zm-97.801-50.586c.294.293.587.293.88.293.587 0 1.027-.293 1.173-.879.147-.734-.44-1.32-1.173-1.32-.293 0-.586.147-.88.44-.44.44-.44 1.026 0 1.466zm4.106-3.666c.587-.293 1.173-.879.88-1.466-.293-.733-1.173-.733-1.76-.586-.586.146-.879.879-.586 1.466.293.586 1.026.88 1.466.586zm-10.997-3.519c.733.294 1.613 0 1.906-.733.293-.733 0-1.613-.733-1.906-.733-.293-1.613 0-1.906.733-.293.733 0 1.613.733 1.906zm11.584 12.464c.586.293 1.319 0 1.613-.587 0-.146.146-.44.146-.586.147-1.027-1.319-1.76-1.906-.88-.147.147-.293.293-.293.586-.44.587-.147 1.32.44 1.467zm4.985-7.332c.146 0 .146 0 0 0 .88 0 1.319-1.026.88-1.613v-.146c-.44-.587-1.467-.587-1.907.146-.439.88.294 1.613 1.027 1.613zm11.144 1.32c.293 0 .439 0 .586-.147 1.173-.293.733-1.906-.293-2.052h-.733c-1.173 0-1.027 2.199.44 2.199zm-9.385 7.478c1.32.586 2.346-1.466 1.027-2.199-1.467-.587-2.346 1.466-1.027 2.199zm107.331 71.847c.294.147.587 0 .733-.293.147-.294.147-.44.147-.587-.146-1.173-1.759-.44-1.319.44 0 .293.146.293.439.44zm-1.759 2.199c-.147 0-.147 0 0 0-.147.147-.147.147 0 0-.147 0-.147 0 0 0z" fill="#59204B"/><path d="M638.322 268.867c.147.293.294.586.587.733-.147 0-.147.146-.293.293-.294.586.439 1.173.879.733.147-.147.294-.293.147-.44.147.293 0-.146 0-.146 0-.147-.147-.147-.293-.294.146 0 .146-.146.146-.293 0-.293 0-.586-.146-1.026 0-.733-1.32-.294-1.027.44zm-49.413 12.023c.88.293 1.32-.88.586-1.32-.733-.293-1.319 1.027-.586 1.32zm4.398-1.026c.147.293.294.293.587.293.586-.147.88-1.027.147-1.32-.587-.293-1.027.44-.734 1.027zm-8.65-.44c-.294-1.32-2.053-.587-1.467.586 0 0 0 .147.147.147.44.733 1.613.146 1.466-.587-.146 0-.146 0-.146-.146zm-3.959-1.76c-.44-.293-1.173.147-1.027.733.147.733.587.88 1.173.587.44-.44.44-1.173-.146-1.32zm-4.692-1.613c-.88-.44-1.467 1.027-.587 1.466.88.294 1.466-1.026.587-1.466zm-7.186-2.347c0-.143-.144 0 0 0zm-8.21-6.597c0-.147-.147-.147-.293-.147-.294-.146-.587 0-.734.294-.293.586.44 1.319.88.879.293-.146.44-.44.293-.733.147.147-.146-.293-.146-.293zm2.786 1.466c-1.027-.44-1.613 1.027-.733 1.467 1.026.439 1.612-1.027.733-1.467zm-37.244-25.366c-.293-.293-.439-.44-.879-.44-1.173-.147-1.027 1.759 0 1.466.293-.146.586-.146.879-.44.147-.146.147-.293 0-.586zm.734-2.933a.937.937 0 000-.879c-.147-.147-.294-.294-.44-.294-.294 0-.44.147-.587.44-.586 1.027.733 1.613 1.027.733z" fill="#59204B"/><path d="M528.059 239.834c.146-.146.293-.146.293-.293.147-.293 0-.586-.293-.733h-.44c-1.026 0-.293 1.613.44 1.026zm-32.405-24.34c.294.294.587.44 1.027.44.293 0 .44-.293.586-.586.147-.293 0-.587-.146-.88-.294-.44-.88-.733-1.32-.44-.587.44-.587 1.173-.147 1.466zm27.273 23.167s.146 0 0 0c.293-.146.293-.439.293-.586-.147-.733-1.173-.88-1.466-.293-.293.733.586 1.319 1.173.879zm48.827-40.029c1.906.587 3.812 1.173 5.865 1.613.293 0 .439-.293.146-.44-1.906-.733-3.812-1.173-5.718-1.759-.587-.294-.88.44-.293.586zm13.343 3.813c17.595 6.451 34.897 13.636 52.785 19.061.44.147.88-.586.294-.733-17.302-7.185-35.338-12.61-52.933-18.768-.293-.147-.586.293-.146.44zm-41.789 6.158c10.264 9.384 21.114 18.182 32.111 26.686 6.452 4.985 16.276 14.956 25.367 12.023.293-.146.146-.586-.147-.586-11.73-.147-21.261-9.824-30.059-16.716-9.09-7.184-18.035-14.662-26.979-21.994-.146-.146-.586.294-.293.587zm67.888 35.484c-2.199.146-4.252 1.026-6.305 1.759-.733.293-.293 1.173.44 1.026 2.053-.586 4.252-1.173 6.158-2.199.147-.147 0-.586-.293-.586zm366.273 2.586c-4.398-10.264-10.557-20.088-18.768-27.712-.586-1.467-1.173-2.786-1.906-3.959-2.639-4.106-6.598-7.185-10.41-9.824-4.692-3.226-9.531-6.305-14.956-7.918-6.745-7.185-17.156-9.971-26.393-12.17-8.944-2.053-18.768-3.373-27.566-.147-6.158-1.173-12.317-.44-18.475.587-3.079.44-6.305 1.026-9.237 2.199-.147 0-.294 0-.44.147-1.32.586-2.786 1.173-3.959 2.052-1.173.734-2.346 1.76-3.519 2.786-2.346.733-4.839 1.613-7.185 2.64-.147 0-.44 0-.586.146-7.772 3.519-14.81 8.505-21.115 13.93-2.932 2.639-5.865 5.425-8.504 8.504.293.88.586 1.613.88 2.493 2.786-3.519 6.011-6.598 9.384-9.531-2.2 5.865-2.639 12.757-2.639 18.915 0 .147.293.147.293 0 .293-7.478 2.786-13.93 4.692-20.821 1.319-1.026 2.493-1.906 3.812-2.933-4.105 9.824-4.399 20.528-3.666 31.085 0 .587.88.587.88 0-.146-11.29.587-22.434 5.132-32.698 2.493-1.612 4.985-3.079 7.478-4.545-7.038 11.877-8.651 27.566-6.891 40.616 0 .44.879.44.879 0-.879-7.772-.293-15.396 1.467-23.021 1.613-7.038 4.692-13.05 7.918-19.354a69.548 69.548 0 014.692-2.346c-4.692 6.304-7.478 14.809-8.798 21.847-2.199 10.704-2.199 23.753 2.639 33.871.88 1.906 2.053 3.372 3.373 4.692-8.211 0-16.276 1.319-24.34.733a52.264 52.264 0 01-6.452-.88c-.293.733-.44 1.466-.733 2.199 11.29 3.08 23.314 0 34.897.587 5.425 3.079 12.463 3.226 19.062 2.639.586.733 1.173 1.467 2.052 2.053 1.76 1.32 3.666 1.906 5.719 2.493 5.132 1.319 10.41 2.346 15.689 3.519 7.038 1.613 13.929 3.226 20.967 4.838 2.053.44 4.253 1.027 6.452.88a12.4 12.4 0 004.692-1.319c5.719 3.519 12.17 6.451 18.475 6.011 10.85 4.546 20.674 12.757 32.551 14.663 9.824 1.613 16.129-4.839 17.889-14.223 2.052-11.437-1.027-23.46-5.426-33.724zm-144.28-.44c-2.933-9.824-2.786-20.528-.44-30.498 2.053-8.211 6.012-19.062 13.49-24.047-3.519 5.865-4.986 12.903-6.305 19.501-.147.44.586.733.733.147 1.906-7.625 4.252-14.516 8.211-21.114 1.613-.733 3.372-1.32 5.132-1.906-6.305 7.917-7.771 18.768-9.238 28.592-.146.586.88.88.88.146 1.906-10.557 4.545-20.527 10.704-29.325 2.053-.44 4.252-.733 6.451-1.026-9.53 10.703-11.876 25.366-12.61 39.296 0 .586.88.586 1.027.146 1.613-14.223 3.959-28.739 14.076-39.589 2.933-.147 5.865-.293 8.798-.293-7.038 3.665-11.437 10.41-14.223 17.742-4.692 12.61-5.865 27.419-5.572 40.762.147 4.545.44 10.117 2.639 14.369-10.703.733-20.381-1.319-23.753-12.903zm77.859 26.246c-4.839 1.32-11.584-1.466-16.129-2.492-9.824-2.2-20.088-3.813-29.619-6.892-5.425-1.759-7.331-6.451-8.064-11.73-1.76-12.023-.294-25.366 2.199-37.097 2.053-9.677 5.865-20.234 14.809-25.513 2.2-1.319 4.692-2.199 7.185-2.785-12.17 8.357-16.129 25.806-17.449 39.589 0 .586.734.733.88.146 1.32-8.211 2.786-16.275 6.305-23.9 3.373-7.185 8.211-12.17 14.663-16.569 1.319-.146 2.786-.146 4.105-.146-11.876 8.357-15.249 24.193-17.155 37.829 0 .294.44.44.587.147 3.079-14.516 7.184-28.446 19.501-37.683 1.173.147 2.346.147 3.519.44-8.358 11.73-10.704 26.539-12.757 40.469 0 .44.587.586.734.146 2.932-14.369 6.011-28.005 14.222-40.322l4.399.88c-2.493 6.598-3.519 14.076-5.132 20.968-1.759 7.771-3.226 15.542-4.838 23.313-.147.88 1.172 1.173 1.319.293 1.906-7.771 3.812-15.395 5.719-23.167 1.612-6.891 3.812-14.076 4.398-21.114l5.279 1.32c2.199 14.516-.88 28.445-4.545 42.522-.147.439.586.586.733.146 4.252-13.343 8.504-28.006 6.011-42.082 1.173.294 2.2.733 3.373 1.027 0 .146 0 .146.146.293 7.038 13.636 4.839 28.006 1.32 42.375-.147.293.44.44.587.147 4.105-13.197 8.064-29.179.586-41.936 1.173.44 2.346 1.027 3.519 1.613 0 .147 0 .147.147.294 4.105 6.891 6.305 13.636 6.305 21.7 0 8.358-2.2 16.276-4.546 24.194-.146.586.733.733.88.146 4.985-13.489 8.944-31.671.44-44.721 1.613 1.027 3.226 2.2 4.545 3.519 5.865 5.719 7.038 13.783 6.305 21.554-1.319 12.17-5.718 24.634-10.704 35.777-2.932 6.012-6.744 15.396-13.782 17.302zm19.061 5.132c-5.132-.146-9.824-2.639-14.076-5.278 2.639-2.053 4.692-4.986 6.305-7.772 6.891-11.583 11.583-25.659 14.223-38.856 1.612-8.504 2.052-18.181-2.933-25.659 1.906 1.026 3.812 1.906 5.719 3.079 4.545 14.223.439 28.445-4.253 41.935-.146.587.733.88.88.293 5.425-12.903 9.677-27.126 5.572-41.055a70.05 70.05 0 015.425 3.666c1.906 10.703 0 20.821-2.932 31.231-.147.587.733.733.879.147 2.933-9.531 6.305-19.942 3.959-29.912 1.32 1.173 2.639 2.346 3.813 3.665.879 7.772-.147 15.25-1.613 23.021-.147.44.586.733.733.146 1.613-6.744 3.372-13.929 2.639-20.967 5.132 7.918 4.106 19.501 2.346 28.152-2.053 9.824-6.451 19.208-13.05 26.833-3.665 4.399-7.918 7.478-13.636 7.331zm51.026-4.105c-.147 5.571-1.173 11.73-5.278 15.835-4.546 4.546-10.997 2.933-16.423 1.173-8.211-2.932-15.249-8.064-23.02-11.73 1.76-.586 3.372-1.466 4.985-2.786 8.798-6.891 14.37-18.768 17.009-29.472 1.76-6.891 2.933-15.835 1.466-23.607.88 1.173 1.906 2.346 2.786 3.519 0 7.185.293 14.077-1.319 21.408-1.613 7.625-4.546 14.809-8.505 21.407-.293.44.44.88.733.44 7.478-11.29 12.757-26.392 11.291-40.322 1.759 2.346 3.372 4.839 4.985 7.331-.147 11.584-4.399 22.141-9.384 32.405-.293.44.44.88.733.44 5.278-9.384 9.824-19.502 10.117-30.352.88 1.466 1.613 2.933 2.346 4.252-1.319 7.332-1.906 14.37-4.839 21.408-.146.146.147.293.294.146 2.786-5.865 5.572-12.463 5.865-19.061 3.812 8.944 6.305 18.035 6.158 27.566z" fill="#59204B"/><path d="M809.435 217.788c-.88-.147-1.173 1.173-.293 1.466 1.026.146 1.319-1.32.293-1.466zm5.865 21.847c-.146-.733-1.172-1.027-1.759-.587-.587.44-.733 1.467-.147 1.907 0 0 .147-.001.147.146.88.733 2.053 0 1.906-1.173l-.147-.293zm22.874-13.49c-.586-.146-1.026 0-1.319.44-.587.733.146 1.906 1.026 1.76.88 0 1.173-.88 1.026-1.467-.146-.293-.293-.586-.733-.733zm3.08-4.105c-.44-.587-1.173-.44-1.467.293-.146.733.587 1.173 1.173.88 0 0 .147 0 .147-.147.44-.147.44-.586.147-1.026.146.146.146 0 0 0zm6.304 17.302c.294-.44.294-.734.294-1.32-.147-1.026-1.76-1.026-1.613.147 0 .439 0 .879.44 1.173.146.293.586.439.879 0zm1.466-6.745c.294.146.734.146 1.027-.147.293-.293.293-.733.293-1.173 0-.733-.733-1.173-1.32-.88-.733.147-.879 1.027-.586 1.613.147.294.293.44.586.587zm11.438 12.756c-.147-.146-.294-.146-.44-.293-.587-.44-1.32.147-1.466.733-.147.587.439 1.32 1.026 1.173.147 0 .293 0 .586-.146.587-.147.88-1.173.294-1.467zm3.079 8.211s-.147 0 0 0c-1.027-.293-1.76.88-1.32 1.613.44.733 1.76.587 2.053-.293v-.147c.146-.439-.293-1.026-.733-1.173zm5.718-8.504c0-.88-1.026-1.466-1.759-.88-.734.44-.734 1.613 0 2.053h.146c.733.293 1.466-.147 1.613-1.173-.147.147 0 0 0 0zm3.226 13.05c-.293-.293-.587-.44-1.027-.587-.733-.146-1.319.294-1.466 1.027-.146.586.293 1.466 1.027 1.466.439 0 .733.147 1.173 0 .733-.147.879-1.173.293-1.906zm5.572-2.493c-.734.294-1.173 1.173-.734 1.906.44.734 1.467.88 2.053.147.88-.88 0-2.346-1.319-2.053zm40.176 4.252c.146.147.293.147.439.294.587.439 1.32-.147 1.467-.734.146-.586-.44-1.319-1.027-1.173-.146 0-.293 0-.586.147-.587.147-.88 1.173-.293 1.466zm-5.866 4.839c-.146 0-.146 0 0 0-.586-.147-1.173.147-1.319.733v.147c-.147.88.879 1.613 1.612 1.173.734-.587.587-1.906-.293-2.053zm-1.613-10.264s0 .147 0 0c-.44.88.147 1.76.88 1.76h.147c.879 0 1.466-1.027.879-1.76-.293-.733-1.466-.88-1.906 0zm-7.477 10.411c-.44 0-.734-.147-1.173 0-.88.293-1.027 1.319-.44 1.906.293.293.586.44 1.026.586.733.147 1.32-.293 1.466-1.026.294-.587-.146-1.32-.879-1.466zm-6.892-4.546c-.88.88 0 2.493 1.319 2.053.734-.293 1.174-1.173.734-1.906-.44-.587-1.467-.733-2.053-.147zm-51.026-6.891c-.44 0-.733.146-1.027.293-1.173.733 0 2.493 1.173 1.76.294-.294.587-.44.733-.88.147-.44-.293-1.32-.879-1.173zm6.011 4.105c0-1.026-1.466-1.466-1.906-.586v.146c-.293.587 0 1.32.733 1.467.587.146 1.173-.294 1.173-1.027zm81.378-11.73c.147 0 .147-.146 0 0 0-.146 0 0 0 0zm-.879 7.918v.147c-.44 1.319 1.906 1.759 2.052.44v-.147c.147-1.32-1.613-1.613-2.052-.44zm9.09-1.466c-.586-.147-.733.733-.146.88.586.146.733-.734.146-.88zM937 262.802c-.146 0-.146.147-.293.147-.733.293-1.026 1.026-.587 1.759.44.733 1.32.733 1.907.147.146 0 .146-.147.293-.147.733-.733-.293-2.346-1.32-1.906zm17.596 13.49c-1.467-.294-2.053 1.906-.587 2.346 1.613.293 2.053-2.053.587-2.346zm11.876.879c.294-.44.44-.733.147-1.173-.293-.586-1.026-.879-1.613-.44-.44.294-.733 1.027-.293 1.467.293.586 1.32.733 1.759.146zm-.733 6.305c-.733-1.173-2.639 0-1.906 1.173 0 .147.147.147.147.294.88 1.173 2.493 0 1.759-1.173.147-.147.147-.294 0-.294zm8.211-9.677c-.879-.147-1.466.44-1.466 1.32v.146c0 1.173 1.76 1.613 2.346.587v-.147c.293-.88-.146-1.759-.88-1.906zm-81.524-23.167c-.293-.733-1.32-.88-1.906-.293a1.14 1.14 0 00-.294 1.173c.147.44.44.586.88.879.44.147.88-.146 1.173-.586.294-.44.293-.733.147-1.173zm-6.158 9.971c-2.053-.44-2.64 2.639-.734 3.079 2.053.44 2.786-2.64.734-3.079zM641.859 141.236c3.666 0 3.666-5.719 0-5.719-3.812 0-3.812 5.719 0 5.719zm-16.915-.205c.147-.44.293-.733.44-1.173.44-.88.587-1.613.44-2.639-.147-.88-.44-1.76-1.173-2.493-.587-.44-1.173-.88-1.906-1.027-1.173-.439-2.2 0-3.226.44-.44.147-.733.294-1.173.44-1.466.587-2.346 2.64-2.346 4.106 0 1.319.44 2.492 1.32 3.372.879.88 2.052 1.32 3.372 1.32 1.76 0 3.666-.88 4.252-2.346zm8.909 6.541c-4.288.574-6.432 5.452-5.718 9.469.572 3.444 3.431 5.739 6.862 5.452 3.859-.43 5.86-3.73 6.003-7.46-.143-4.017-2.716-8.035-7.147-7.461zm1.144 12.482c-2.145.287-4.003-.861-4.432-3.013-.714-2.582.429-6.312 3.145-7.173 3.145-.861 4.86 2.295 5.003 5.021-.143 2.439-1.144 4.735-3.716 5.165zm-14.694 5.518c-4.618.574-6.927 5.452-6.157 9.469.616 3.444 3.694 5.739 7.389 5.452 4.156-.43 6.311-3.73 6.465-7.46-.154-4.017-3.079-8.035-7.697-7.461zm1.232 12.482c-2.309.287-4.31-.861-4.772-3.013-.77-2.582.462-6.312 3.386-7.173 3.387-.861 5.234 2.295 5.388 5.021-.154 2.439-1.385 4.735-4.002 5.165zm-16.278-31.109c-3.986 1.332-7.381 6.511-5.905 10.803 1.181 3.403 5.167 5.031 8.562 4.735 4.281-.444 6.938-3.7 7.086-7.991-.148-5.327-4.429-9.323-9.743-7.547zm2.805 13.022c-2.215.296-4.872-.444-6.053-2.367-1.624-2.664.443-6.364 2.805-7.843 3.838-2.368 7.529.443 7.676 4.587 0 2.96-1.476 5.179-4.428 5.623zm-11.822 42.581c.147 0 .147.147.293.147 1.32.44 2.64.88 4.106 1.32-1.466-.587-2.933-1.027-4.399-1.467z" fill="#59204B"/><path d="M684.509 142.871c2.933-5.132 4.399-10.557 2.639-16.568-2.492-8.212-8.064-12.904-14.955-15.396-5.132-2.786-7.478-6.745-11.291-10.851-3.812-3.959-8.651-5.865-14.076-6.598-5.425-.733-11.144-.586-16.422.44-6.598 1.173-12.023 5.572-19.062 4.399h-.439c-12.317-3.666-25.074 1.32-32.258 12.317-2.933 4.545-3.813 9.677-3.666 14.955-1.613 5.572-5.572 9.531-9.677 13.783-3.959 4.253-7.772 8.651-10.557 13.783-5.719 10.118-8.065 22.141-4.253 33.431.147.293.147.44.294.587.733.146 1.319.44 2.052.586-.586-1.613-1.173-3.079-1.466-4.839-2.932-13.489 2.639-26.979 11.144-37.243 4.545-5.572 10.117-10.41 12.756-17.008 0 .439.147.733.147 1.173.88 7.184 2.786 14.516-3.372 19.941-12.757 10.557-16.129 29.765-6.159 42.082a56.142 56.142 0 014.546 1.613c-3.959-3.226-6.892-7.625-7.918-13.197-2.2-10.85 2.932-21.994 11.143-28.885 7.625-6.598 4.106-16.129 3.519-24.78-1.026-13.783 10.558-27.273 24.927-27.566 9.971-.147 19.061 6.305 28.299 9.384 5.278 1.76 10.85 2.786 16.422 2.786 8.065 0 15.836-1.466 23.754 1.173 8.504 2.933 15.542 10.704 15.542 20.088 0 3.079-1.026 5.718-2.346 8.358 0 0 0 .146-.147.146-2.492 4.399-6.158 8.358-8.797 12.464-3.959 6.011-6.012 12.17-5.425 19.501.146 1.759.293 3.372.293 4.985.293-.293.586-.586 1.026-.88a4.477 4.477 0 011.027-.733c-.147-1.173-.147-2.199-.294-3.372-.733-10.851 4.986-18.035 10.851-26.246-1.027 7.184.293 14.369 1.173 21.7.146-.146.44-.293.586-.293.44-.44.88-.88 1.32-1.466-1.173-8.211-2.639-15.982-.88-23.754zm-33.284-34.31c-7.771.586-15.249-.44-22.581-3.226l-4.398-1.76c5.718-.439 11.29-2.346 17.155-2.199 4.692.147 7.918 1.613 11.29 4.839.88.879 1.613 1.613 2.493 2.199-1.466 0-2.786 0-3.959.147zm6.891-.147c-5.278-3.079-7.771-7.771-14.369-8.65-7.771-1.027-15.542 2.199-23.314 2.199-1.173-.587-2.492-1.027-3.665-1.613 1.759-.294 3.665-.88 5.571-1.613 6.892-2.786 13.93-3.666 21.408-3.08 8.064.587 13.49 3.52 18.328 9.678 1.173 1.466 2.2 2.786 3.519 3.812-2.492-.44-4.985-.733-7.478-.733zm-15.688 109.677s.146 0 .146.147c1.613-.294 3.226-.734 4.692-1.173v-2.346c-3.079 1.026-6.158 1.612-9.384 1.906 1.613.586 3.079 1.026 4.546 1.466z" fill="#59204B"/><path d="M679.524 170.291c-.44-3.226-1.027-6.305-.587-9.531.147-.733-1.173-.88-1.319-.147-.587 3.519.146 7.038.586 10.557l1.32-.879zm-117.888-17.009c-6.011 8.798-8.944 20.528-6.011 31.085.146.293.733.293.586-.147-1.466-11.143 0-21.114 6.159-30.498.293-.44-.44-.88-.734-.44zm105.131 27.126c-.879-7.478-3.812-14.956-.733-22.287 3.813-9.091 13.93-15.25 14.076-25.807 0-.586-.879-.586-.879 0-.88 11.437-11.877 16.569-15.396 26.833-2.639 7.625.44 15.249 1.32 22.874.586-.587 1.026-1.173 1.612-1.613zm-82.844-65.542c-6.158 11.583 3.08 24.486-3.372 35.777-4.399 7.771-16.569 14.662-13.05 25.219.147.44.733.294.733-.146-1.319-12.17 10.704-16.716 14.663-26.686 4.399-10.997-4.106-23.167 1.32-33.871.44-.293-.147-.733-.294-.293zm10.851 82.55c9.384.147 16.862 8.212 24.926 12.757.147 0 .294.147.44.147 2.64.879 5.279 1.759 7.918 2.786 2.053.293 4.252 0 6.598-.734.733-.293.587-1.466-.146-1.466-15.689 1.027-24.487-14.956-39.736-14.956-.88 0-.88 1.466 0 1.466z" fill="#59204B"/></svg>