<svg width="690" height="363" fill="none" xmlns="http://www.w3.org/2000/svg"><g clip-path="url(#clip0)" fill="#fff"><path d="M437.072 326.419c3.47 0 5.074-2.359 5.074-5.738v-8.357c0-3.413-1.354-5.693-5.074-5.693-3.72 0-5.074 2.28-5.074 5.693v8.357c-.011 3.379 1.604 5.738 5.074 5.738zm-51.254-19.402h-4.482v7.008h4.744c2.924 0 4.482-1.225 4.482-3.413-.011-1.781-.898-3.595-4.744-3.595zm81.971 3.583c0-1.769-.888-3.583-4.744-3.583h-4.483v7.008h4.744c2.913-.012 4.483-1.236 4.483-3.425zm-60.855-3.583v7.008h4.744c2.924 0 4.482-1.225 4.482-3.413 0-1.769-.887-3.584-4.744-3.584h-4.482v-.011zm-214.28-66.268a3.248 3.248 0 00-3.277 3.22 3.247 3.247 0 003.231 3.266 3.249 3.249 0 003.277-3.22c.011-1.781-1.434-3.243-3.231-3.266zm1.991-89.571a1.825 1.825 0 001.843-1.803 1.826 1.826 0 00-3.652-.034 1.825 1.825 0 001.809 1.837zm262.837 122.614c0 3.289 2.674 5.953 5.973 5.953s5.973-2.664 5.973-5.953c0-3.288-2.674-5.953-5.973-5.953-3.288 0-5.973 2.665-5.973 5.953zm-118.65-140.87c-3.299 0-5.973 2.664-5.973 5.953 0 3.288 2.674 5.953 5.973 5.953s5.973-2.665 5.973-5.953c0-3.289-2.674-5.953-5.973-5.953zM238.98 64.363a3.3 3.3 0 00-3.31-3.3 3.301 3.301 0 00-3.311 3.3c0 1.826 1.479 3.3 3.311 3.3a3.301 3.301 0 003.31-3.3zm9.796 209.429c0-1.825-1.479-3.3-3.311-3.3a3.302 3.302 0 00-3.311 3.3c0 1.826 1.479 3.3 3.311 3.3a3.301 3.301 0 003.311-3.3zm-237.411-6.599a3.3 3.3 0 00-3.31 3.299 3.3 3.3 0 003.31 3.3 3.301 3.301 0 003.311-3.3 3.308 3.308 0 00-3.31-3.299zM242.291 6.6a3.301 3.301 0 003.311-3.3c0-1.826-1.479-3.3-3.311-3.3a3.301 3.301 0 00-3.311 3.3 3.31 3.31 0 003.311 3.3zm218.502 219.895a3.3 3.3 0 00-3.31-3.3 3.301 3.301 0 100 6.6 3.3 3.3 0 003.31-3.3zm-125.269-58.943a3.302 3.302 0 00-3.311 3.3c0 1.826 1.479 3.3 3.311 3.3a3.3 3.3 0 003.31-3.3c0-1.814-1.479-3.3-3.31-3.3zm300.938-38.338c6.792 0 12.31-5.489 12.31-12.27 0-6.769-5.507-12.269-12.31-12.269-6.792 0-12.31 5.488-12.31 12.269.012 6.781 5.518 12.27 12.31 12.27zm-29.513-15.343a4.11 4.11 0 004.119 4.105 4.11 4.11 0 004.118-4.105 4.11 4.11 0 00-4.118-4.105 4.11 4.11 0 00-4.119 4.105zm78.306 105.605a8.601 8.601 0 00-7.27-.227c-2.81-.986-4.801-3.765-5.017-7.042.501-.68.808-1.519.808-2.438a4.11 4.11 0 00-4.119-4.105 4.11 4.11 0 00-4.118 4.105 4.11 4.11 0 004.118 4.105c.217 0 .433-.022.649-.056 2.537 1.406 4.152 4.422 3.834 7.767a7.944 7.944 0 01-.193 1.179c-.103.171-.205.341-.296.511a8.49 8.49 0 00-.694 1.95c-.08.352-.148.715-.182 1.077a8.615 8.615 0 004.698 8.539c4.255 2.143 9.454.442 11.593-3.81 2.162-4.241.444-9.423-3.811-11.555zM627.7 325.183a4.11 4.11 0 00-4.118 4.105 4.11 4.11 0 004.118 4.105 4.11 4.11 0 004.119-4.105 4.11 4.11 0 00-4.119-4.105zM21.935 172.519a4.112 4.112 0 004.118-4.105 4.112 4.112 0 00-4.118-4.105 4.112 4.112 0 00-4.119 4.105 4.112 4.112 0 004.119 4.105zM131.048 23.196a8.756 8.756 0 000-12.412c-3.438-3.428-9.014-3.428-12.452 0a8.756 8.756 0 000 12.412c3.438 3.427 9.014 3.427 12.452 0z"/><path d="M645.926 201.957c-5.062-1.327-8.942-2.688-11.911-4.026-10.433-.215-18.829-8.709-18.829-19.164 0-8.38 5.393-15.489 12.901-18.109v-15.104c0-12.315-10.978-21.545-23.675-21.545-13.379 0-23.675 9.23-23.675 21.545v52.332h-8.976c-.91 1.315-1.843 3.594-2.696 7.393.091 2.381-1.058 4.638-3.163 5.738-3.015 1.576-6.86.181-8.589-3.096a7.072 7.072 0 01-.819-3.651c-.273-1.1-1.377-3.969-5.677-6.373h-12.981c16.348-37.647 30.148-68.604 45.586-103.858a8.652 8.652 0 009.636-.942 8.586 8.586 0 003.118-6.554c2.036-2.177 5.381-2.892 8.475-1.78a4.054 4.054 0 001.923 1.712 4.119 4.119 0 005.415-2.12c.911-2.076-.045-4.49-2.127-5.398a4.119 4.119 0 00-5.415 2.12c-.091.205-.16.409-.205.613-2.298 1.757-5.723 2.03-8.681.408-.352-.193-.694-.42-1.012-.646a12.44 12.44 0 00-.353-.477 8.899 8.899 0 00-1.513-1.417 7.967 7.967 0 00-.921-.59 8.004 8.004 0 00-1.468-.635c.853-1.95 1.706-3.912 2.571-5.908.25-.567.489-1.122.74-1.69.056-.147.125-.283.182-.419 1.376-3.073 1.376-5.477 1.376-7.53 0-1.11-.102-2.199-.296-3.265.774-1.304 1.593-1.996 1.98-2.257a7.649 7.649 0 002.036-1.848 7.26 7.26 0 00-1.501-10.183 7.275 7.275 0 00-6.087-1.224c-2.764.544-4.937.77-6.644.793a26.222 26.222 0 00-5.188-2.698l-.853-.307c-2.309-.782-4.71-1.224-7.099-1.224-8.919 0-17.85 5.136-21.275 13.335l-25.427 58.308c-11.115 2.279-22.582-3.765-26.781-14.719-.546-1.429-1.706-3.969-2.741-6.543a19.887 19.887 0 00-2.037-6.974c-3.322-6.61-10.182-11.158-18.112-11.158-10.944 0-19.852 8.641-20.239 19.459-.023-.012-.034-.023-.057-.034a19.175 19.175 0 01-.182 1.587c-1.319 8.335-7.645 14.64-15.438 16.363-20.057-38.543-60.445-64.873-107.01-64.873-21.069 0-40.865 5.398-58.089 14.866a20.234 20.234 0 01-7.293 1.372c-11.069 0-20.034-8.879-20.034-19.833 0-1.258.125-2.483.352-3.685.626-1.678.967-3.504.967-5.398 0-8.629-7.019-15.625-15.677-15.625s-15.677 6.996-15.677 15.625c0 8.392 6.633 15.24 14.96 15.604-.011.034-.034.056-.045.09a17.483 17.483 0 011.547-.068c10.694 0 19.375 8.641 19.375 19.311 0 3.924-1.172 7.575-3.197 10.614-21.366 20.162-35.325 48.034-37.407 79.161-2.73 3.878-7.941 5.296-12.275 3.107a9.6 9.6 0 01-1.57-.986 7.484 7.484 0 00-2.105-1.565c-3.345-1.678-7.327-.669-9.511 2.2-.034-.046-.068-.08-.102-.125a8.053 8.053 0 01-.353.782c-.034.069-.08.125-.114.193-2.696 5.046-9.534 6.793-15.654 4.082v-27.384c0-12.315-10.979-21.545-23.675-21.545-2.981 0-5.802.464-8.396 1.304-8.374-2.699-15.245-8.8-18.988-16.715a9849.49 9849.49 0 0016.746-38.305c1.377-3.073 1.377-5.477 1.377-7.53 0-3.968-1.32-7.744-3.515-11.021a3.307 3.307 0 003.06-3.289c0-1.825-1.479-3.3-3.311-3.3a3.297 3.297 0 00-3.197 2.473c-4.516-4.332-10.66-7.099-16.712-7.099-8.919 0-17.85 5.137-21.275 13.335L80.73 72.89c-4.368 1.69-7.44 1.066-8.487.737a10.894 10.894 0 00-4.05-.748c-5.973.045-10.785 4.808-10.74 10.66.023 3.288 1.582 6.213 3.994 8.14 3.39 2.983 5.71 5.455 7.258 7.519 5.916 1.213 10.376 6.429 10.376 12.689 0 7.155-5.814 12.95-12.993 12.95-2.594 0-5.017-.76-7.042-2.076l-23.789 54.702c-1.638.295-2.787.034-3.253-.113a6.362 6.362 0 00-2.424-.465c-3.572 0-6.473 2.891-6.473 6.452a6.42 6.42 0 002.332 4.955c1.513 1.373 2.651 2.563 3.527 3.606l-2.435 5.591c-2.059 4.445-3.435 10.602-3.435 11.974 0 5.999 2.366 11.657 6.439 15.898-1.195 6.078-6.223 10.92-12.685 11.578-.91.091-1.81.091-2.697.011a11.632 11.632 0 00-3.981-.295c-6.246.635-10.786 6.192-10.148 12.417.637 6.226 6.211 10.75 12.457 10.115 6.075-.624 10.535-5.897 10.194-11.906a.166.166 0 00.068.022 11.896 11.896 0 01-.16-1.111c-.784-7.688 4.824-14.56 12.55-15.354.83-.079 1.66-.09 2.468-.034a25.07 25.07 0 005.392 1.52c.262.136.535.272.786.431.01-.102.01-.204.01-.307 1.184.159 2.413.25 3.664.25h75.53v28.054c0 12.315 10.296 21.545 23.675 21.545 13.38 0 23.676-9.23 23.676-21.545v-28.054h4.459c5.552 0 10.546-1.746 14.449-4.661a5.59 5.59 0 005.358 4.196c3.083.023 5.609-2.449 5.632-5.522a5.586 5.586 0 00-4.983-5.591 20.83 20.83 0 002.525-9.978c0-1.905-.296-3.777-.83-5.568a39.009 39.009 0 0110.33-1.384c3.97 0 7.816.601 11.479 1.724 10.694 29.732 32.822 54.033 61.093 67.651-1.752 10.229-8.714 19.266-19.124 23.144a30.067 30.067 0 01-5.381 1.441c-2.742.011-5.53.487-8.249 1.496-.557.204-1.103.443-1.649.692-5.484-1.123-9.591-5.965-9.545-11.714.011-.771.091-1.53.239-2.268.364-.986.58-2.052.591-3.163.046-5.16-4.118-9.378-9.295-9.423-5.176-.046-9.408 4.104-9.454 9.264-.045 5.023 3.891 9.14 8.874 9.4a.237.237 0 01-.034.057c.307-.023.614-.034.922-.034 6.393.057 11.547 5.273 11.49 11.646 0 .124-.011.249-.023.374-6.826 6.327-9.533 16.363-6.075 25.605 4.585 12.246 18.26 18.46 30.535 13.89 11.946-4.445 18.169-17.451 14.29-29.426.045 0 .102.012.147.023a33.426 33.426 0 01-.921-2.154c-4.938-13.188.284-27.68 11.764-34.926 13.413 5.137 27.975 7.96 43.208 7.96 19.034 0 37.032-4.411 53.039-12.246 8.032-1.361 12.105 1.53 13.185 2.472.103.102.205.192.308.283.523.488 1.103.93 1.729 1.327 1.729 10.92-12.15 11.997-23.777 13.936-24.358 4.082-42.072-7.178-59.103 11.952-7.338 8.244-18.089 38.112-9.693 48.703 13.152 16.59 34.062.964 49.057-4.128 24.619-8.368 42.833-9.287 68.192-1.905 20.33 5.92 59.25 28.735 78.739 9.628 14.835-14.549.33-24.108-2.526-40.38-4.266-24.324 6.143-28.859-22.708-30.98-25.359-1.871-49.978.737-62.106-18.279a10.217 10.217 0 00-.842-2.189c-1.592-3.526-2.628-6.384-3.253-8.72 22.355-19.912 37.202-48.011 39.818-79.58 12.628 2.336 24.028 10.409 30.069 22.815a42.376 42.376 0 012.412 6.134l-.478 1.089c-2.059 4.445-3.436 10.603-3.436 11.975 0 3.56.842 7.007 2.378 10.114-1.763 6.351-7.713 10.886-14.562 10.569a14.534 14.534 0 01-2.662-.386 11.663 11.663 0 00-3.891-.873c-6.269-.283-11.582 4.547-11.866 10.795-.285 6.248 4.562 11.544 10.831 11.839 6.097.272 11.285-4.287 11.831-10.285a.237.237 0 01.057.034 19.112 19.112 0 010-1.123c.353-7.722 6.917-13.698 14.676-13.346.444.022.888.068 1.331.124 4.176 3.561 9.762 5.784 16.246 5.784h75.496v28.053c0 12.315 10.296 21.546 23.675 21.546a28.54 28.54 0 004.881-.42c5.95 1.837 9.682 7.858 8.476 14.05a12.27 12.27 0 01-.671 2.245 9.752 9.752 0 00-1.206 3.107c-1.024 5.227 2.4 10.296 7.656 11.317 5.256 1.02 10.33-2.393 11.354-7.632.99-5.091-2.23-10.013-7.235-11.215.011-.022.034-.034.045-.056a9.067 9.067 0 01-.944-.148c-6.485-1.258-10.728-7.518-9.466-13.993.046-.226.103-.431.16-.657 6.473-3.754 10.637-10.342 10.637-18.166v-20.355c5.29-15.104 13.823-17.723 16.2-18.165a14.598 14.598 0 005.325-1.565c7.019-3.652 9.738-12.292 6.063-19.289-1.99-3.867-5.631-6.441-9.67-7.302zm-522.944-64.329v52.331h-42.89c13.038-30.027 24.46-55.813 36.394-82.914a32.75 32.75 0 019.614 19.629c-1.991 3.175-3.118 6.894-3.118 10.954zm67.135 57.752c-4.016-3.334-9.341-5.421-15.302-5.421h-1.206a7.034 7.034 0 01-2.799 0h-.466v-.113a7.7 7.7 0 01-2.128-.964c-5.893-3.81-3.06-13.766 2.151-16.431 3.242-4.604 10.148-5.953 16.177-2.925.16.079.319.17.478.26a7.474 7.474 0 002.173 1.645c3.652 1.837 8.078.453 10.069-3.062.011.011.022.034.034.045.091-.227.193-.465.307-.68 2.264-4.468 7.611-6.339 12.15-4.377-.011.68-.023 1.361-.023 2.041 0 3.05.114 6.078.342 9.083-4.972 9.48-12.697 16.918-21.957 20.899zm63.732-24.562a3.272 3.272 0 01-3.276-3.266 3.271 3.271 0 013.276-3.265 3.272 3.272 0 013.277 3.265 3.273 3.273 0 01-3.277 3.266zm50.797-91.476c3.664 0 6.622 2.96 6.622 6.6 0 3.651-2.97 6.6-6.622 6.6-3.663 0-6.621-2.96-6.621-6.6 0-3.64 2.97-6.6 6.621-6.6zm15.962 170.513c-4.209 0-7.634-3.402-7.634-7.609 0-4.196 3.413-7.609 7.634-7.609 4.209 0 7.622 3.402 7.622 7.609s-3.413 7.609-7.622 7.609zm57.93 3.73a3.272 3.272 0 01-3.276-3.266 3.272 3.272 0 013.276-3.265 3.272 3.272 0 013.277 3.265 3.273 3.273 0 01-3.277 3.266zm10.547-47.444c-1.275 5.704-7.043 9.276-12.867 7.971a10.771 10.771 0 01-3.778-1.632c-1.114-.635-4.846-2.325-11.024-.647a52.615 52.615 0 01-11.422 5.772c-.773.454-1.206.59-1.354.465a49.716 49.716 0 01-6.223 1.622 14.005 14.005 0 0010.979 14.956l-.046.046c5.7 2.007 8.851 8.153 7.065 13.981-1.831 5.988-8.18 9.355-14.187 7.53-6.006-1.826-9.385-8.153-7.554-14.141a11.204 11.204 0 011.809-3.538c.41-.782.762-1.61 1.035-2.483 1.787-5.851-.375-11.963-4.96-15.535a55.17 55.17 0 01-4.346.181c-28.965 0-52.435-23.404-52.435-52.263 0-28.871 23.481-52.264 52.435-52.264 28.966 0 52.436 23.405 52.436 52.264 0 6.622-1.24 12.949-3.493 18.767.967 2.54 2.787 5.828 5.87 10.137 1.935 2.404 2.788 5.602 2.06 8.811zm-20.274 125.256h-11.217c-2.071 0-3.936-.714-3.936-2.994v-23.745c0-1.474 1.399-2.993 3.253-2.993h11.468c1.604 0 2.958 1.27 2.958 2.744 0 1.519-1.354 2.619-2.958 2.619h-8.806v6.793h7.998c1.479 0 2.924 1.134 2.924 2.653 0 1.52-1.274 2.699-2.924 2.699h-7.998v6.872h9.227c1.57 0 2.958 1.179 2.958 2.619.011 1.508-1.343 2.733-2.947 2.733zm25.006.34c-1.058 0-1.945-.465-2.491-1.304l-7.111-11.09h-2.878v9.661c0 1.474-1.399 2.79-3.003 2.79-1.57 0-2.924-1.27-2.924-2.79v-24.312c0-1.644 1.479-3.039 3.219-3.039h7.361c7.953 0 10.501 4.514 10.501 8.947 0 4.173-2.241 6.917-5.882 8.097l5.802 8.686c1.388 2.109-.694 4.354-2.594 4.354zm58.818-27.045c0-1.644 1.479-3.039 3.22-3.039h7.361c7.952 0 10.5 4.514 10.5 8.947 0 4.173-2.241 6.917-5.881 8.097l5.802 8.686c1.399 2.109-.672 4.343-2.583 4.343-1.058 0-1.945-.465-2.491-1.304l-7.111-11.09h-2.878v9.661c0 1.474-1.399 2.789-3.004 2.789-1.57 0-2.923-1.27-2.923-2.789v-24.301h-.012zm-26.576 7.632c0-5.987 3.095-11.056 11.001-11.056 7.919 0 11.002 5.057 11.002 11.056v8.357c0 6.157-3.686 11.09-11.002 11.09-7.315 0-11.001-4.933-11.001-11.09v-8.357zm-32.947-124.825c0-3.606 2.935-6.532 6.553-6.532s6.553 2.926 6.553 6.532-2.935 6.531-6.553 6.531-6.553-2.925-6.553-6.531zM422.089 310.6c0 4.173-2.242 6.917-5.882 8.097l5.802 8.686c1.399 2.109-.683 4.343-2.583 4.343-1.058 0-1.945-.465-2.491-1.304l-7.11-11.09h-2.879v9.661c0 1.474-1.399 2.789-3.003 2.789-1.57 0-2.924-1.27-2.924-2.789v-24.301c0-1.644 1.479-3.039 3.22-3.039h7.36c7.953 0 10.49 4.514 10.49 8.947zm76.679-134.781c-.535 0-1.058-.023-1.581-.045l-.023.068c-16.235 4.604-33.641-.669-44.483-13.177-.387-17.179-4.392-33.451-11.286-48.125 4.494-4.547 11.013-6.951 17.805-5.885 1.888.295 3.663.839 5.324 1.599v-.057a20.217 20.217 0 0010.637 3.005c4.039 0 7.805-1.19 10.967-3.22 12.151-3.697 25.257 2.529 29.853 14.503.58 1.508.978 3.05 1.24 4.581 5.313 4.933 8.646 11.952 8.646 19.765-.022 14.9-12.15 26.988-27.099 26.988zm68.625 47.286a3.301 3.301 0 110-6.6 3.3 3.3 0 013.31 3.3 3.323 3.323 0 01-3.31 3.3zm86.269-40.868a3.301 3.301 0 003.311-3.3c0-1.825-1.479-3.3-3.311-3.3a3.3 3.3 0 100 6.6z"/></g><defs><clipPath id="clip0"><path fill="#fff" d="M0 0h690v363H0z"/></clipPath></defs></svg>