<svg width="105" height="93" fill="none" xmlns="http://www.w3.org/2000/svg"><g clip-path="url(#clip0)"><g filter="url(#filter0_d)"><path d="M50.742 11.475c.239.405-.238.971-1.032 1.295-.795.323-1.59.242-1.828-.081-.238-.405.239-.971 1.033-1.295.795-.404 1.589-.323 1.827.081zM41.05 13.74c.239.405-.238.971-1.033 1.295-.794.324-1.588.243-1.827-.08-.238-.405.239-.972 1.033-1.295.794-.324 1.668-.324 1.827.08zm10.328 3.318c.238.404-.238.97-1.033 1.294-.794.324-1.589.243-1.827-.08-.238-.405.238-.971 1.033-1.295.794-.405 1.589-.324 1.827.08zm8.66-4.612c.238.405-.239.97-1.033 1.295-.795.323-1.59.242-1.828-.081-.238-.405.239-.971 1.033-1.295.795-.324 1.669-.324 1.828.081zM45.42 8.643c.238.405-.239.971-1.033 1.295-.794.323-1.589.243-1.827-.081-.239-.405.238-.97 1.033-1.295.873-.323 1.668-.323 1.827.081zm-1.907 11.166c.08.404-.556.89-1.43 1.052-.874.161-1.668-.081-1.748-.567-.08-.404.556-.89 1.43-1.052.874-.161 1.669.081 1.748.567zm16.047.161c.24.405-.238.972-1.032 1.295-.794.324-1.589.243-1.827-.08-.239-.405.238-.972 1.032-1.295.795-.405 1.59-.324 1.828.08zm-8.103 2.023c.16.405-.397.971-1.27 1.214-.795.243-1.67.08-1.749-.324-.159-.404.398-.97 1.271-1.213.874-.243 1.669-.081 1.748.323zm14.3-7.443c.318.161.16.809-.238 1.456-.397.728-.953 1.133-1.271 1.052-.318-.162-.159-.81.238-1.457.477-.728 1.033-1.213 1.271-1.051z" fill="#FF9E0C"/><path d="M95.231 56.46c-.715 24.516-19.225 28.4-42.9 28.4-23.674 0-41.946-3.48-42.9-28.4-1.112-28.399 19.226-28.318 42.9-28.318 23.754 0 43.933-6.391 42.9 28.319z" fill="#DC78AD"/><path d="M9.431 53.224c2.781 3.398 5.641-8.414 6.753-3.802 2.78 11.165-3.813 17.719 5.958 19.094 6.515.971 7.786-7.2 8.024-10.356.318-3.156 4.926 1.213 8.104 1.052 6.911-.243-1.271 15.453 10.09 12.055 4.05-1.214 4.686-2.185 4.845-8.01.239-5.825 5.561-3.722 5.164 1.052-.397 4.773.636 15.696-10.169 16.424 0 0 15.333 4.693 27.806 0 7.229-2.75 13.505-4.045 16.524-11.408 1.748-4.288 3.098-9.79 2.622-19.418-.08-2.104-1.033-5.42-1.192-7.848C91.656 9.695-3.597 37.042 9.431 53.224z" fill="#C4498A"/><path d="M52.106 6.162c-30.42-.681-44.718 11.051-45.989 22.48-1.032 8.78-.159 22.708 2.621 22.102 2.701-.605 5.084-8.78 7.07-8.326 1.985.53 2.7 10.672 2.62 12.867-.158 2.271-1.19 6.434 2.225 6.964 3.415.53 5.083-2.498 4.686-5.298-.397-2.877.794-10.067 3.415-9.537 2.622.53 2.066 3.254 3.972 4.39 5.242 3.254 10.087.151 10.087 6.282 0 1.74-.238 6.964 2.86 6.585 3.097-.378 5.322-2.12 5.083-6.358-.238-4.239 1.589-7.72 4.687-8.553 3.097-.832 8.578 4.541 7.545 9.916-2.383 12.489 5.56 10.445 5.243 7.039-.398-3.33-1.748-14.306 0-17.03 1.826-2.726 4.924-7.116 8.657-1.893 4.845 6.737.531 7.181 4.662 13.54 1.191 1.74 4.51-.521 4.033-3.019-3.257-17.257.837-17.257 3.776-19.452 2.859-2.12 3.177 8.477 5.56 9.385 2.462.833 2.541.757 3.256-5.98 2.86-28.232-16.203-35.347-46.069-36.104z" fill="#511F14"/><path d="M52.65 80.814c-20.418 0-37.737-5.016-40.438-11.408 2.94 11.165 19.623 16.182 39.96 16.182 20.815 0 37.578-5.34 40.358-16.263-3.019 6.311-19.86 11.49-39.88 11.49z" fill="#511F14"/><path d="M15.072 17.139c-9.613 9.952-6.355 21.764-2.622 19.58 3.734-2.185 5.244-3.237 6.753.08 1.986 4.37 3.019 5.745 8.66 4.612 6.514-1.375 8.897 3.641 11.996 4.774 3.098 1.133 4.21 8.091 6.435 8.172 2.224.08 3.018-5.825 4.607-7.686 1.59-1.942 7.786-2.832 9.375.404 1.589 3.156 2.462 8.172 3.972 4.855 1.589-3.398 8.183-13.188 13.744-8.577 5.56 4.612 5.958-1.699 7.626-3.964 1.669-2.266 5.64-7.687 7.468-4.127 1.668 3.399 6.753-9.142-4.846-18.042C67.108.795 24.685 7.187 15.072 17.139z" fill="#6B2E26"/><path opacity=".15" d="M91.1 23.611c0 8.415-17.636 15.211-39.325 15.211-21.767 0-39.325-6.796-39.325-15.21C12.371 15.197 30.008 8.4 51.776 8.4 73.463 8.4 91.1 15.197 91.1 23.61z" fill="#fff"/><path d="M49.63 38.337c.08 1.052-13.982-.243-24.071-3.398-6.912-2.185-14.38-8.577-13.029-10.195 1.35-1.618 2.86 4.693 14.618 8.738 9.454 3.237 22.403 3.803 22.482 4.855z" fill="#9A716B"/><path opacity=".4" d="M13.563 32.269c-.477 1.133-1.828 1.699-2.463 1.213-.954-.728-1.271-1.86-.795-2.993.477-1.133 1.748-1.376 2.463-1.052.795.324 1.271 1.699.795 2.832z" fill="#FFE4B6"/><path d="M12.689 55.57c1.589 0 .476 9.386 4.766 13.027 7.945 6.796 22.88 6.554 22.642 8.9-.238 2.427-21.212-1.214-25.66-7.363-4.211-5.744-3.337-14.563-1.748-14.563z" fill="#FFB8BD"/><path opacity=".2" d="M54.238 29.841c-15.412 0-27.964-5.501-27.964-12.217 0-3.155 2.7-5.34 7.23-6.796-9.058 2.184-15.095 6.068-15.095 10.437 0 6.796 14.3 12.298 32.016 12.298 16.445 0 30.03-4.773 31.777-10.922-5.64 4.207-17 7.2-27.964 7.2z" fill="#fff"/><path opacity=".6" d="M89.988 55.409c0 .89-.318 1.699-.795 1.699-.397 0-.794-.728-.794-1.7 0-.89.318-1.698.794-1.698.477 0 .795.809.795 1.699zm-1.033 7.362a.89.89 0 01-.874.89.89.89 0 01-.874-.89.89.89 0 01.874-.89c.477-.08.874.324.874.89zm-10.963-3.155c0 .485-.398.89-.795.89-.476 0-.794-.405-.794-.89 0-.486.397-.81.794-.81s.795.325.795.81zm-3.733-2.67c0 .162-.08.244-.239.244-.16 0-.239-.082-.239-.244 0-.162.08-.243.239-.243.08 0 .239.081.239.243zm1.35 6.715c0 .486-.398.971-.954.971a.975.975 0 01-.953-.97c0-.486.397-.971.953-.971.556.08.954.485.954.97zm-1.032-3.559c0 .242-.16.404-.398.404-.239 0-.398-.162-.398-.404 0-.243.16-.405.398-.405.16-.081.398.162.398.404zm3.416-3.399c0 .243-.159.405-.398.405-.238 0-.397-.162-.397-.405 0-.242.159-.404.397-.404.24 0 .398.162.398.404zM60.911 76.688a.803.803 0 01-.794.809c-.477 0-.794-.405-.794-.81 0-.485.397-.808.794-.808s.794.323.794.809zm0-4.288a.548.548 0 01-.556.566.548.548 0 01-.556-.566c0-.324.238-.567.556-.567.318 0 .556.243.556.567zm1.511 2.508c0 .243-.16.404-.398.404-.239 0-.398-.161-.398-.404 0-.243.16-.405.398-.405.239.081.398.243.398.405z" fill="#FF9FA6"/><path d="M35.171 63.419a.719.719 0 01-.715.728.719.719 0 01-.715-.728c0-.405.318-.728.715-.728.398.08.715.404.715.728zm.001 3.803c0 .162-.159.324-.318.324s-.318-.162-.318-.324.16-.324.318-.324c.16 0 .319.162.319.324zm2.701-2.832a.719.719 0 01-.715.728.719.719 0 01-.715-.728c0-.405.317-.648.715-.648.397-.08.715.243.715.648zm-4.847 1.618a.803.803 0 01-.794.809c-.477 0-.794-.404-.794-.81 0-.485.397-.808.794-.808.397-.081.794.323.794.809zm4.29 5.097a.719.719 0 01-.715.728.719.719 0 01-.715-.728c0-.404.318-.728.715-.728.398.08.715.404.715.728zM15.549 54.842a.548.548 0 01-.556.567.548.548 0 01-.556-.567c0-.323.238-.566.556-.566.317.08.556.324.556.566zm.476 3.156c0 .404-.317.809-.794.809a.803.803 0 01-.794-.81c0-.404.317-.808.794-.808.477 0 .794.404.794.809zm-1.985-3.884c0 .243-.158.405-.397.405-.239 0-.398-.162-.398-.405 0-.242.159-.404.398-.404.159 0 .398.242.398.404z" fill="#FF9FA6"/></g><path d="M63.85 8.618s-.635-4.774 7.31-6.15c0 0-1.59 4.612-2.225 5.34-.556.729 2.78-.809 7.468.81 0 0-3.575 3.398-5.244 3.56 0 0 .636 1.86 5.244 2.427 0 0-5.482 5.664-10.01-.081-4.608-5.745-3.019-3.803-2.542-5.906z" fill="#73A414"/><path opacity=".3" d="M64.407 8.051s3.654-2.265 4.528-3.317c.874-1.052-2.304 4.126-1.589 4.288.715.162 5.561.728 6.832 0 1.35-.728-2.383 3.56-5.243 2.67-2.86-.89 2.78 4.288 4.449 3.722 1.748-.485-8.898 4.531-8.977-7.363z" fill="#000"/><path d="M68.935 18.65c0 5.826-5.005 8.82-14.22 8.82-9.216 0-20.418-1.295-20.418-7.12 0-5.826 11.202-16.425 20.418-16.425 9.215-.081 14.22 8.819 14.22 14.725z" fill="#D50506"/><path opacity=".2" d="M55.748 5.381s11.36 6.311 4.29 13.189c-6.99 6.877-23.992 3.479-24.31.647-.318-2.832-3.734 4.773 5.085 6.796 8.897 1.942 27.09 3.48 27.964-6.23.953-9.628-9.533-15.13-13.029-14.402z" fill="#BF0D0E"/><path opacity=".4" d="M59.799 13.472c.318 3.237-2.542 5.098-8.183 5.583-5.56.485-12.472.324-12.79-2.832-.318-3.236 5.879-9.547 11.44-10.033 5.64-.485 9.215 4.127 9.533 7.282z" fill="#FF9E0C"/><path opacity=".2" d="M54.158 11.45c.16 1.941-1.51 3.074-4.846 3.317-3.336.242-7.468.162-7.626-1.7-.239-1.941 3.495-5.744 6.832-5.987 3.337-.242 5.481 2.509 5.64 4.37z" fill="#FFF7EF"/><path d="M49.718 10.088c.238.405-.318 1.052-1.192 1.457-.874.404-1.748.323-1.986-.081-.238-.486.318-1.133 1.192-1.457.873-.404 1.747-.323 1.986.081z" fill="#FF9E0C"/></g><defs><clipPath id="clip0"><path fill="#fff" transform="translate(0 .39)" d="M0 0h105v91.879H0z"/></clipPath><filter id="filter0_d" x="1.698" y="6.134" width="100.76" height="87.454" filterUnits="userSpaceOnUse" color-interpolation-filters="sRGB"><feFlood flood-opacity="0" result="BackgroundImageFix"/><feColorMatrix in="SourceAlpha" values="0 0 0 0 0 0 0 0 0 0 0 0 0 0 0 0 0 0 127 0"/><feOffset dy="4"/><feGaussianBlur stdDeviation="2"/><feColorMatrix values="0 0 0 0 0 0 0 0 0 0 0 0 0 0 0 0 0 0 0.25 0"/><feBlend in2="BackgroundImageFix" result="effect1_dropShadow"/><feBlend in="SourceGraphic" in2="effect1_dropShadow" result="shape"/></filter></defs></svg>