<svg width="90" height="98" fill="none" xmlns="http://www.w3.org/2000/svg"><g clip-path="url(#clip0)"><path d="M15.406 28.012c.6.105.917.379 1.644.179-.042-.59.073-1.042-.264-1.61-.17-.285-.327-.422-.496-.706-.01-.147.706-.495.368-1.063-.042-.59.063-1.19.02-1.779.159.137.327.421.622.4.306.126.791.684 1.202.21.116-.452.147-2.084.526-3l.59-.042c.116-.452.084-.894.505-1.22.296-.022.601.104.886-.064-.053-.737-.297-2.052-.223-3.095l.59-.042c.41-.473.653-1.231 1.211-1.716.127-.305-.2-.726.221-1.052.443-.032.896.084 1.476-.106-.032-.442-.254-1.463-.318-2.347.454.116.918.379 1.37.494-.03-.442-.063-.884.053-1.336.295-.021.59-.043 1.044.073-.022-.295-.054-.737.073-1.042l1.529.631c.326.421.358.863 1.254.947l-.106-1.473c.295-.022.907.23 1.486.041-.358-.863-.822-1.126-.602-2.178.306.126.749.094 1.065.368-.042-.59.074-1.042.031-1.632.317.274.928.526 1.255.947l.02-1.778c.464.263.633.547 1.381.641-.032-.442-.358-.863-.095-1.326.306.126.474.41.917.379.4-.621.526-.927 1.064-1.706l-.063 1.19c.148-.01.306.126.601.105.169.284.506.852.686 1.284.274-.316.674-.937.948-1.253 0 0 .37 1.01.39 1.305.264-.463.685-.79 1.096-1.263.453.115.464.263 1.044.073.126-.305.094-.747.22-1.053.443-.031.78.537 1.192.063-.011-.147.115-.452.105-.6.295-.02.738-.053 1.043.074.4-.621.516-1.074 1.064-1.706.211.874.117 1.621.476 2.484.306.126.58-.19.759.242.169.284.19.579.359.863.284-.169.41-.474.853-.506.148-.01.622.4 1.065.369.126-.306.095-.748.526-.927.296-.021.601.105.738-.053s.369-1.063.959-1.105c0 0 .359.863.95.82l.59-.042c.031.442-.084.895.084 1.18.432-.18.559-.485 1.149-.527.274-.316.39-.769.674-.937.158.136.348.715.78.536.285-.168.57-.337.843-.653.296-.02-.316-.273.59-.042l-.03 1.632.59-.043c.432-.179.854-.505 1.613-.263.274-.316.706-.495.674-.937.496.705.38 1.157 1.687.768.274-.316.685-.79 1.275-.832.158.137.327.42.474.41.685-.79.927-1.547 1.802-1.758.021.295.338.568.222 1.02.706-.494 1.264-.978 2.276-1.347l.59-.042c.443-.032.917.378 1.339.052.137-.158.263-.463.4-.621.148-.01.612.252 1.191.063.58-.19 1.307-.39 1.908-.285-.22 1.053-.62 1.674-1.453 2.474-.432.179-.864.358-1.286.684l-.073 1.042c-.875.211-1.054-.22-1.728.716l-.074 1.042c-.569.337-1 .516-1.243 1.274.158.137.158.137.485.558a5.308 5.308 0 00-1.053 1.853c.317.273.76.242 1.086.662-.4.622-.516 1.074-1.401 1.138.464.263 1.043.073 1.244.8.443-.033.727-.201 1.18-.085-.126.305-.547.631-.21 1.2l-.167 1.789c-.116.452-.242.758-.358 1.21l1.191.063.053.737c.59-.042 1.18-.085 1.792.168-.274.316-.379.916-.969.958.01.147.475.41.211.873l-.663 1.085c.18.431.79.684.707 1.578 0 0-.695.642-1.286.685.59-.043 1.023-.222 1.634.03.021.296.2.727.074 1.032.612.253 1.223.505 1.972.6-.422.326-1.127.82-1.844 1.168.306.127.727-.2.917.38-.569.336-1.001.515-1.412.989l.738-.053c-.695.642-1.117.969-2.118 1.485.306.126 1.001-.516.928.526-.559.484-.97.958-1.064 1.705.306.126.212.873.77.39-.274.315-.822.947-1.412.989.01.147.759.242.485.558-.284.168-.706.495-1.127.82.759.243 1.518.485 2.245.285-1.117.968-1.907 2.358-3.382 2.463.169.284.485.558.517 1-.422.326-.843.653-1.412.99.01.147.643.694.38 1.157-.886.064-1.93-.01-2.825-.093.18.431.633.547.38 1.157h-2.077c.022.295.76.243.201.727l-.706.495c-.126.305.2.726-.231.905-.875.21-1.434.695-2.488.474-.453-.115-.875.211-1.17.232.064.884.77.39 1.076.516.58-.19 1.054.22 1.054.22-.253.61-1.127.822-1.275.832-.274.316-.105.6-.073 1.042-.285.169-.728.2-1.16.38-.663 1.084.022.294-.084.894-.842.653-1.75.422-2.782.496l.064.884c-.285.168-.58.19-.865.358-.242.758-.42.326-.842.653-.886.063-1.792-.168-2.689-.252-.073 1.042.654.841.981 1.262-.432.18-.874.211-1.306.39-3.058-1.262-.559.484-.843.653-.285.168-.59.042-1.033.074l.042.59c-.569.336-1.17.231-1.907.284-.243.758.38 1.158.548 1.442-.695.642-1.591.558-2.613.78-.127.305.042.589.21.873-.59.042-1.19-.063-1.633-.031l.074 1.031c-.874.211-1.623.117-2.508.18.032.442.348.715.517 1 .18.431.337.568.506.852-.58.19-1.033.074-1.475.106-.285.168.031.442.042.59-.443.03-1.486-.043-1.634-.032l.075 1.031c-.443.032-1.487-.041-1.634-.03-.411.473-.253.61-.063 1.189-.422.326-.875.21-1.318.242.011.148-.115.453-.105.6-.41.474-.864.358-1.317.242-.263.464.19.58.359.863-.274.316-1.012.37-1.012.37-.263.462-.2 1.346-.189 1.494-.864.358-1.634-.031-2.382-.126-.105.6.222 1.021.412 1.6-.264.463-.58.19-.864.358-.116.453-.39.768-.506 1.22-.169-.283-.664-.988-.664-.988-.105.6-.4.62-.664 1.084-.59.042-.906-.231-1.212-.357l-2.066.147c-.19-.578-.348-.715-.823-1.126-1.191-.062-1.993-.894-2.478-1.451-1.243 1.274-1.716 2.937-2.211 4.305-.59.042-1.677-.62-1.824-.61 1.053-1.853 1.347-3.947 2.569-5.516-1.613.264-2.867-.683-4.112-1.482.454.115.58-.19.865-.359-1.371-.494-1.445-1.525-1.984-2.82-.211-.873-.875-1.863-1.066-2.441.285-.169.411-.474.696-.643-.633-.547-1.14-1.4-1.477-1.967.453.115.57-.337.854-.506-.644-.694-.855-1.568-.93-2.6.159.138.465.264.623.4-.19-.578-.38-1.157-.707-1.578.432-.179.738-.053 1.18-.084-.622-.4-1.128-1.253-1.455-1.674.442-.031.896.084 1.338.053-.654-.842-1.139-1.4-1.371-2.568l.738-.053c-.043-.59-.517-1-.844-1.42-.022-.295.115-.453.242-.758-.043-.59-.064-.885-.244-1.316.454.116.918.379 1.371.494-.938-.673-.739-2.02-.676-3.21l-.138-1.915c-.053-.737.189-1.495.283-2.242.454.115.96.968 1.118 1.105.095-.748.2-1.347.305-1.947.284-.169.59-.043.885-.064-.053-.737-.095-1.326-.001-2.073.285-.169.59-.043.885-.064-.358-.863-.264-1.61-.328-2.494.896.084.98-.81 1.075-1.558-.064-.884.252-.61.41-.474z" fill="url(#paint0_radial)"/><path d="M62.94 37.198c-4.743 2.117-9.897 2.634-14.387 4.14 1.046 4.22 3.058 1.262 4.597 2.04-2.75.938-6.103-.303-8.802-.702-3.688 2.337-7.788 3.075-11.91 3.519-1.095 1.263-1.885 2.652-2.822 4.053 3.342 1.093 5.881-.718 8.812-1.224l12.32-1.919c-3.91 1.317-8.146 2.213-11.93 3.224 2.056-.295 3.732.325 5.26.956-4.785-.545-10.055.424-13.343 2.14.401 1.453 1.772 1.947 2.732 2.916-2.076 2.073-5.25 1.264-7.683 2.475-1.297.537-1.665 1.6-2.34 2.537 2.246.284 4.133-.296 6.199-.444-2.94 2.433-7.756 3.518-10.34 2.666-.772-6.61 9.95-20.41 14.977-24.77 2.866-1.39 3.086-4.516 5.34-6.158 3.098-2.295 4.15-6.221 6.964-8.348 2.687-1.822 3.94-5.022 5.424-7.054 1.412-.99 1.791-1.905 2.74-3.158 3.782-3.085 7.163-7.622 11.304-9.844-4.562 2.548-6.162 7.106-9.449 10.896 2.14-1.19 4.9-1.98 6.935-2.57-4.869 2.422-9.2 6.139-12.855 8.918 4.752-1.97 10.012-3.086 13.88-4.992-7.895 1.602-15.068 11.15-20.495 14.056 7.736-1.739 14.015-7.224 20.844-9.194-8.482 5.791-15.3 9.982-23.962 13.268-1.528 1.443-7.123 6.138-3.265 6.158 8.728-.328 16.78-3.867 25.254-3.585z" fill="url(#paint1_radial)"/><path d="M68.162 25.272c-2.561 1.516-5.828 3.527-8.968 5.233.759.242 1.17-.232 1.824.61-2.361.17-4.406.612-6.419 1.497-2.856 1.537-6.618 2.843-9.77 4.402-2.76.79-5.385 1.422-8.083 3.096 1.063-3.778 11.15-5.834 13.92-10.623 2.192-.453 4.427-.317 6.767-.781 2.887-1.096 6.417-3.57 8.767-5.96l-.02 1.779c.917.379 1.338.052 1.981.747zm-.77-20.977c-2.73 1.232-5.364 3.79-8.03 5.907-1.495 1.884-2.232 4.01-5.004 4.654-1.158 2.452-3.065 4.81-5.299 6.748-1.274 2.905-3.433 5.874-6.563 7.727-1.526 3.516-3.97 6.653-6.741 9.37-1.4 3.21-2.959 6.284-6.236 8.148-1.316 2.316-2.242 5.937-5.425 7.053-.653 1.232 1.52 2.557-1.811 3.684-.938 1.4-2.211 4.306-3.897 5.611-3.563-.04-11.282-6.301-5.527-27.3 1.9 5.788 3.421 12.492 8.062 17.196-.003-6.22-3.57-12.482-3.468-19.303.042-1.484.072-3.115.725-4.347.69 7.504 1.842 15.272 6.02 21.786-4.422-9.903-.075-21.62-2.167-32.133.57 1.736 1.298 3.61 2.437 5.01.03-3.706-1.468-5.968-1.575-9.515.506.852.991 1.41 1.782 2.094.358-1.21.547-2.705 1.052-3.926 1.113 11.324-3.697 24.85-.012 36.88 2.946-10.579 4.785-22.115 3.967-33.46.59-.043 1.202.21 1.908-.285l.01-1.927c-.413-1.6-1.404-3.01-.952-4.967.475.41 1.118 1.105 1.75 1.652.232-.906.316-1.8 1-2.59-.12 10.673-4.025 22.357-2.048 33.324.959-1.106 2.318-2.832 3.413-4.096 3.126-10.147 2.509-20.767 5.687-30.177.19.579.053.737.538 1.294.39-.768.6-1.968 1.285-2.758-1.86 9.168-5.46 18.905-4.602 28.767 2.17-2.821 4.56-6.695 4.516-11.431.317.273.443-.032.644.694 2.263-5.642 4.304-12.305 5.323-18.747-.818 7.168-2.237 14.23-4.563 21.062 1.022-.221 1.75-.421 2.74-1.084.01-1.927-.434-3.968.492-5.516.075 1.032.023 2.368.803 2.905 2.443-5.21 2.724-11.6 5.715-17.442-.42 4.473-3.084 8.663-2.723 13.673 1.549-1.148 2.676-1.969 3.096-4.369.368-3.136 1.8-5.905 3.369-8.831-.747 1.979-1.452 4.547-.966 7.178.263-.463.97-.958 1.074-1.558.938-1.4 1.274-2.905 1.758-4.421-.105.6-.2 1.347-.146 2.084 2.676-1.969 5.385-3.496 8.588-4.318zM58.653 6.55c.105-.6.358-1.21.495-1.368-.116.452-.38.915-.495 1.368zm7.533 11.902c-1.527 3.516-4.498 5.506-8.735 6.402-4.152 2.074-8.79 3.591-12.467 6.076 4.014-3.99 9.916-6.486 14.351-10.803-.231.906 2.15 1.031-.726 2.274 3.035-1.106 5.016-2.433 7.577-3.95zm-.772-4.536c-2.718 3.453-6.123 3.549-9.958 5.897-1.602.41-3.478 1.137-4.943 1.39.843-.652 1.812-1.61 2.792-2.421 4.68-.928 8.463-1.94 12.109-4.866zm-.54-5.442c-2.108 1.632-4.005 2.065-5.185 4.223 1.898-.433 3.363-.686 5.08-1.55-2.676 1.97-5.395 3.35-8.862 4.634 1.949-1.768 3.877-3.832 5.489-6.169 1.328-.095 2.181-.6 3.477-1.138z" fill="#508A0F"/><path d="M44.183 5.366c-.728.2-.99.663-1.876.726-.874 2.285-1.906 4.432-2.326 6.832-.895 1.99-.894 4.063-1.641 6.041-.463 1.811-1.754 12.715-.878 14.578-.149-2.063.637-11.746 1.995-13.473.663-3.157.883-6.283 2.441-9.357.368-1.063.6-1.968 1.748-2.495l.537-2.852zm4.722-.339c0 2.074-.483 3.59-1.126 4.969-.072 3.115-3.978 10.652-3.302 13.862.294-2.095 2.082-10.22 5.073-13.99.242-.757.495-1.368.737-2.125.379-.916.916-1.695.842-2.727-.886.064-1.623.117-2.224.011zm10.361-.297c-.727.2-1.17.232-1.876.727-.326 1.652-.82 3.02-1.01 4.515.275-.316 1.055.22 1.233-1.421.495-1.368 1-2.59 1.653-3.821zm-4.859.496c-.39.768-.811 1.095-.747 1.979-.516 1.074-1.032 2.147-1.084 3.484-.579 2.263-1.632 4.116-1.894 6.652l.432-.179c.853-2.579 1.6-4.558 2.758-7.01.38-.916.748-1.98.82-3.021 0 0 .664-1.084 1.413-.99-.485-.558-1.097-.81-1.698-.915zm-20.542 3.1c.107 3.547-1.43 8.989-1.618 10.483a23.546 23.546 0 01-1.526 5.59l.035 4.588c-.589 4.19-.565 8.631.87 12.083-.043-2.663-1.1-7.03-.67-11.356.22-3.126.346-3.432 1.177-6.305-.56-1.59 2.494-8.62 2.725-9.526.832-2.874-.993-5.557-.993-5.557z" fill="url(#paint2_linear)"/><path d="M60.461 30.192c-12.257-2.347-29.886 13.576-28.375 27.656.168 10.057 7.723 17.264 13.936 23.466 10.074 8.213 27.703 6.537 37.945-3.352 8.731-12.571 6.548-29.668 2.183-43.915-.504-3.352-18.805-3.52-25.689-3.855z" fill="url(#paint3_radial)"/><path d="M43.335 35.89c-6.884 5.532-12.089 14.08-11.081 21.958.168 10.057 7.723 17.264 13.936 23.466 10.074 8.213 27.703 6.537 37.945-3.352 2.854-4.023 4.533-8.549 5.373-13.242a34.21 34.21 0 000-5.866c-.672 7.375-5.037 15.085-11.585 18.94 7.22-7.207 12.592-25.477 6.548-35.534-3.358 13.242-7.556 25.31-24.01 28.997 10.746-5.866 20.148-19.275 20.484-31.847-4.701 11.901-13.768 25.31-29.047 26.316 3.862-3.017 9.738-5.699 11.585-10.56-5.037 3.688-10.577 6.37-16.79 7.543 8.06-5.7 17.294-11.733 22.163-20.281-8.563 7.542-18.469 12.57-27.871 18.772 2.014-6.872 6.044-13.074 11.753-18.772-4.87 2.849-13.097 11.062-16.79 15.755 1.343-4.693 5.205-13.074 11.585-18.102-6.213 2.011-13.6 12.571-13.6 20.281.336-1.34-.168-14.917 11.92-24.304-1.007 0-1.846-.167-2.518-.167z" fill="url(#paint4_radial)"/><path d="M60.125 30.192h-.335c.671 1.173 1.175.168 2.014 1.006l5.373.503-4.869 1.005c.84 0 3.526.67 4.198.335 2.182-.67 4.03.168 5.708.67-2.35 1.007-2.183 1.174-4.365 1.845l-3.19 2.179c.84-.336 3.19-.838 3.358-.838 1.679.167 3.19-.67 4.7-1.006.672-.335 1.344-.503 1.848-.67-2.855 1.005-4.366 1.676-6.716 4.022-.672.838-1.175.503-1.68.838 1.848.168 3.023-.167 4.366-.838 1.343-.335 2.35-.335 3.526-.67l-.84.67c1.176-.168 2.015-.503 3.19-.838.504 1.006-.167 1.173-.167 2.18.671-.504 1.007-.169 1.847-.504 1.007.168 1.847-.67 2.35-.838v3.855c1.008.336 1.343-.67 2.183-1.005-.504 2.681.504 4.86.504 7.542-.168 3.185-2.183 5.867-3.022 8.549.839-.838 2.182-1.677 3.022-2.347-.336-1.006.168-1.676.168-2.347 1.51-.503 1.846-1.843 2.686-3.352-.168-1.34.336-3.855.504-4.358v3.017c1.175 1.676 1.007 3.52 1.007 5.699.84-1.173 1.343-1.844 1.847-3.185 0 2.682.336 4.861.84 7.375.335-8.213-1.512-16.593-3.862-24.136-.504-3.352-18.805-3.52-25.521-3.855-.336-.503-.504-.503-.672-.503z" fill="url(#paint5_radial)"/><path d="M59.286 31.197c-6.884-.167-12.593 2.85-16.79 7.04 2.854-.838 6.548-3.017 9.738-3.017-1.511 1.174-3.526 1.844-4.701 3.855 3.022-1.676 5.54-3.184 9.066-3.184 1.68-1.174 2.351-2.18 4.702-2.347-3.19 0-6.045.168-9.067 1.006 2.686-.67 4.701-1.341 7.052-3.353zm7.723 9.052c-3.694 2.01-17.462 9.889-20.987 17.096 4.197-5.531 13.767-12.403 20.987-17.096zm10.074.167c-3.861 5.699-7.052 9.722-9.906 15.924 5.373-3.353 8.227-9.722 9.906-15.924zM71.71 41.59c-5.708 5.028-9.57 12.403-16.622 17.264C61.468 54.83 70.535 49.3 71.71 41.59zM55.088 58.686c-.84.503-1.679 1.006-2.35 1.509.84-.336 1.51-.838 2.35-1.509zm.336-16.426c-6.044 1.34-10.578 7.207-13.264 11.9 3.526-4.525 10.242-8.883 13.264-11.9zm2.519 1.508c-7.556 2.85-13.265 9.554-14.944 14.75 3.694-4.525 9.235-10.392 14.944-14.75zm6.883 1.509c-7.555 3.855-16.79 10.392-22.162 17.264 3.358-5.028 12.088-9.721 22.162-17.264z" fill="#BC682A"/><path d="M57.103 33.376c-5.037 1.174-11.92 2.515-14.775 7.878 1.847-.335 3.526-1.34 5.708-1.843-2.182 1.173-6.548 6.034-8.227 10.056 2.687-2.681 6.884-7.542 10.914-8.716-4.533 3.353-6.044 6.202-8.227 9.22 2.518-2.515 4.03-4.694 9.066-6.202-2.686 1.843-7.051 9.889-7.22 10.056 2.855-5.363 14.944-13.576 20.82-16.426-3.022.168-6.212 1.006-8.73 1.844 1.678-1.341 4.365-2.85 7.387-4.19-3.694.335-8.563 2.011-10.578 3.017 2.015-1.676 6.884-2.85 10.074-4.023-1.846.335-3.526.67-5.372 1.173.84-.503 4.7-1.676 5.708-1.844-5.373-.335-11.081 2.347-13.936 3.353 2.015-1.341 5.037-2.682 7.388-3.353zm9.067 6.37c-3.358.67-11.921 6.704-15.783 10.895 6.38-3.855 11.081-7.208 15.783-10.895z" fill="url(#paint6_radial)"/><path d="M79.434 46.953c-3.526 4.023-7.22 8.884-11.25 13.41 0-.168.169-.336.169-.504-5.877 5.196-16.119 7.878-23.674 10.56 1.846-.838 3.357-1.006 4.7-2.514 7.388-3.185 15.28-9.554 19.31-16.594-2.52 3.688-3.359 5.196-7.556 6.872-6.716 3.688-13.432 8.549-21.492 8.046 8.563-6.034 18.973-8.549 24.85-18.103-7.892 5.867-15.783 11.398-24.514 15.589-1.175.502-2.182.67-3.358 1.676 1.176-5.7 3.023-10.56 6.38-15.42-3.525 4.022-7.22 8.045-8.563 13.744-.335-4.19-.167-8.549-.167-12.907a72.332 72.332 0 00-2.183 6.202v.838c.168 10.057 7.723 17.264 13.936 23.466 10.074 8.213 27.703 6.537 37.945-3.352.336-.503.504-1.006.84-1.341-7.052 3.52-11.585 5.531-19.98 5.196 4.197-1.844 8.563-4.19 11.249-8.38-5.54 5.53-16.118 4.525-23.842 4.86 13.432-6.034 27.2-2.682 31.901-23.298-3.19 8.715-15.279 21.119-26.36 17.599 10.074-4.358 18.133-16.761 21.659-25.645z" fill="#802D03"/><path d="M51.73 37.734c-5.54 1.341-8.73 4.023-10.913 9.22 3.526-4.023 6.044-6.873 10.913-9.22zm14.608.67c-8.395 2.012-11.25 5.197-14.608 8.717 6.213-4.526 12.089-7.878 14.608-8.716z" fill="#CF8D5E"/><path d="M60.461 32.538c-7.052-.503-12.593 1.341-17.126 6.705 4.533-3.352 11.082-5.531 17.126-6.705zm-15.95 8.381c4.365-2.85 12.424-6.37 16.118-6.872-6.884.503-13.432 2.346-16.118 6.872z" fill="#CF8D5E"/><path d="M34.269 65.223c1.679-4.86 5.372-10.56 8.563-14.247-1.847 2.514-3.358 8.045-3.358 8.045 1.679-1.843 7.22-11.9 21.49-16.426C44.679 52.82 37.795 67.57 38.97 69.916c-.84 1.676-2.855-4.358-4.701-4.693z" fill="url(#paint7_linear)"/><path d="M57.271 53.155c-11.753 8.716-18.805 10.56-19.98 13.074 0-3.52.672-7.04 2.015-10.56-1.847 3.52-3.862 6.872-3.694 11.565-1.008-1.843-1.68-4.022-2.183-6.536 0 1.34 0 2.514.168 3.855 2.519 6.704 7.891 12.068 12.593 16.761 8.73 7.04 22.666 6.872 32.908.503-6.884 2.011-15.11 2.85-21.995.67 6.716 1.341 16.79-1.005 20.652-8.716-2.686 3.353-13.264 7.878-19.98 6.202 7.555-.503 22.666-6.537 25.689-20.784-5.541 14.582-31.062 20.784-33.748 18.773 5.372-1.006 14.103-3.185 18.637-6.035-5.541 1.677-10.746 3.52-17.126 2.85 11.417-4.19 21.827-10.224 26.528-22.46-5.205 9.386-14.943 19.946-29.383 18.94 3.862-1.006 7.556-2.85 11.25-5.531-5.205 2.347-13.096 5.196-19.141 3.687 3.022-.838 15.615-4.358 19.309-9.386-5.205 3.855-13.097 7.71-16.79 5.699 6.548-3.352 9.906-6.202 14.271-12.571zM39.306 55.5c.336-.838.84-1.676 1.175-2.514-.336.838-.84 1.676-1.175 2.514z" fill="url(#paint8_radial)"/><path d="M33.261 50.138c1.847-8.381 11.082-16.762 16.79-17.935-7.555 5.364-16.622 18.94-17.126 25.98-.84-1.005.504-6.704.336-8.045z" fill="#BC682A"/><path d="M46.022 37.232c-5.877 2.178-9.235 8.38-10.242 13.576 1.343-6.37 8.395-8.883 10.242-13.576z" fill="#CF8D5E"/><path d="M45.686 69.581c10.578-.335 19.812-7.208 27.2-14.08-4.701 10.225-16.455 15.924-27.2 14.08z" fill="url(#paint9_linear)"/><path d="M89.172 51.814c-.671.67-.84 2.346-1.343 3.017 1.175 11.9-5.205 21.957-10.074 26.818 11.081-5.196 13.264-18.773 11.417-29.835z" fill="#BC682A"/><path d="M41.656 39.746c-3.19 1.005-5.205 4.525-6.548 7.542 1.343-2.681 4.03-5.028 6.548-7.542zm4.366.335c-8.731 1.844-13.096 14.08-13.768 18.773 2.35-6.034 6.884-15.924 13.768-18.773z" fill="url(#paint10_radial)"/><path d="M36.283 44.942c-3.526 4.693-4.533 9.721-3.526 15.42.84-6.704 3.19-13.241 7.22-18.437-1.847 1.005-3.694 2.85-3.694 3.017z" fill="#A14302"/><path d="M1.947 58.663C-.273 68.56.023 76.684 4.758 84.808c6.51 12.26 18.792 15.953 28.557 10.636 6.955.443 12.281-1.773 14.945-8.272 4.439-4.875 6.806-9.602 7.398-16.1-3.7-8.716-51.196-20.976-53.711-12.409z" fill="#953F05"/><path d="M4.462 78.31c-.148 1.329-.444 2.658-.888 4.135.296.739.74 1.625 1.184 2.364 6.51 12.26 18.791 15.952 28.557 10.635 6.954.443 12.281-1.773 14.945-8.272 1.331-1.477 2.515-2.954 3.55-4.58l-.295-.295c-2.072 2.807-4.587 4.284-8.286 2.364-2.22 1.181-4.883 1.92-7.547 2.215-.443.444-1.331.739-1.48 1.478-10.653 8.272-30.036 1.772-29.74-10.045z" fill="url(#paint11_linear)"/><path d="M25.473 88.058c-2.96 1.773-10.062-.148-13.909-.148 4.883 3.102 15.24 4.284 19.68 1.773 1.035-.296 1.923-1.182 2.515-1.625.148 1.625-.888 2.954-1.332 3.988 2.516-.295 4.587-2.954 5.475-5.17 2.663-.295 4.587-.738 6.806-2.068 5.327-1.477 8.434-5.613 10.358-9.749-3.7 4.875-31.665 8.715-31.665 8.715-.887-2.658-11.393-2.215-13.316-1.181 3.699 4.874 10.21 5.17 15.388 5.465z" fill="url(#paint12_linear)"/><path d="M8.605 47.881c-.444 1.625-.74 2.955-2.22 3.693C-1.012 57.63-.124 62.653.172 69.891c2.516 12.703 23.526 20.384 35.364 15.066 1.183-.295 2.367-.295 3.55-.59 3.7.442 6.955-2.217 9.618-3.546 6.955-3.693 9.914-13.885 2.516-17.578-4.735-9.453-8.582-9.305-17.164-11.078-3.551-.295-7.25-.295-10.357-1.773-4.735-1.477-12.43-2.51-15.093-2.51z" fill="url(#paint13_linear)"/><path d="M10.38 52.164c-2.219 1.182-3.846 3.25-5.77 4.875-4.291 10.635-2.663 7.09-1.924 8.715 1.628-2.807 4.143-2.66 6.807-2.955 3.699-.147 6.066.591 9.174 1.92.148-3.397-.296-6.055-1.036-9.157 2.663-.296 5.327 1.772 7.694 2.954 3.107.59 5.623 1.181 8.73 1.477 1.627-.739 6.954-1.477 7.25-1.477-2.367-3.988-8.286-4.58-11.541-5.318-.592.886-1.036 2.068-1.48 2.954-4.143-1.92-10.801-2.51-11.985-2.954-4.143 2.807-5.179-.886-5.918-1.034z" fill="#F8E8C7"/><path d="M20.294 55.71c2.368 1.18 3.848 2.363 5.623 3.397 1.628.886 3.7 1.624 5.03 2.51 1.185.592 2.368 1.626 3.256 2.512-.148 1.33.296 2.51.74 3.693.592.738 1.184 1.477 1.776 1.92-.444 2.068-.888 3.988-1.036 6.204 0 .443.148.886.296 1.33-2.516-3.25-5.623-7.239-8.73-10.34-2.664-3.25-5.031-8.273-6.955-11.227z" fill="#F8E8C7"/><path d="M22.366 65.163c.444 2.216 1.331 3.84 2.367 5.465 4.291 1.773 8.878 3.545 11.245 7.238-.295-2.954-1.923-6.204-2.071-8.272-2.96-7.68-12.577-10.635-16.572-15.805 3.847 3.397 4.29 6.795 5.03 11.374z" fill="url(#paint14_radial)"/><path d="M44.56 58.073c-1.48.443-2.515.738-3.403 1.92-3.255.886-5.622 1.33-7.99 1.33 2.072 1.624 3.847 2.806 6.807 2.953 1.331-.59 2.071-1.033 3.107-1.92.888.591 1.627 1.182 2.811 1.33 1.184-.148 2.22-.148 3.403-.887-.74-1.181-1.627-2.954-2.367-4.431-.888-.148-1.628.148-2.367-.295zm-25.301 5.17c-.444 1.477-.888 2.954-.592 4.726-.592 0-1.036-.443-1.628-.147-1.923.59-3.995 1.329-5.77 2.806 1.035-.148 2.367-.443 3.55-.148 2.516 0 5.18.148 7.695-.147-1.036-2.66-1.48-5.466-3.255-7.09z" fill="#EFCD92"/><path d="M.171 68.708c-.296 3.397.296 6.647 2.22 7.976 1.035.591 1.183 1.92 2.811 1.477.888 2.807.148 3.25 3.403 3.989 2.072.886 3.255 1.477 5.623 2.215 1.627.591 3.255 1.182 4.735 1.33.591 0 1.183-.148 1.923-.148 3.7.59 8.138 1.773 12.43.59 1.33-.738 2.515-1.476 4.142-1.92 1.332.148 2.664.444 3.995.296.592-.59 1.184-.739 1.184-1.92.888-.148 1.923-.148 2.96-.148 4.882-2.363 8.433-6.056 9.617-11.67-2.367 1.773-4.587 4.728-8.434 4.875-1.924.739-3.403.296-5.623-.59-.148-.74-.296-2.069-.148-3.103-1.183 2.216-3.995 3.25-4.143 5.909.444 1.182.592 1.182 1.776 1.92l-2.663 1.773c-1.924.59-4.143 1.477-6.51 1.034-1.037.147-2.072 0-2.812.886-4.735 0-9.914-1.33-14.649-2.806-.296-.591-.74-1.034-1.183-1.625-1.184-.739-2.96-.591-3.7-2.216-1.775-1.772-3.107-2.068-2.81-5.318-.889-.147-1.924-.147-2.812-.295C.319 69.446.17 69.742.17 68.708z" fill="#FAEED5"/><path d="M28.137 60.436c1.627 2.216 5.178 2.216 7.694 3.988.148.739.296 1.477.444 2.068l.148.148c.295.59.74 1.181 1.035 1.625-.592 2.658-1.035 4.283-1.331 6.942.148-2.954-1.036-5.022-1.924-6.942-.592-3.989-3.847-5.761-6.067-7.83z" fill="#CB9E74"/><path d="M17.483 93.671c5.918 2.511 11.69.739 16.868-2.806-2.96 6.351-12.577 7.09-16.868 2.806z" fill="#8E3F05"/><path d="M2.39 76.98c-.295 0-.591 0-.887.147.592 2.66 1.628 5.17 3.107 7.681 3.403 6.5 8.434 10.488 13.909 12.113.296-.148 6.806.738 7.102.443-7.102-.443-14.5-4.58-16.424-8.124 2.663 3.545 13.021 6.942 19.975 4.727-5.918.295-18.051-3.25-22.342-8.715 5.03 4.43 13.464 5.022 12.725 4.43-3.995-.59-12.873-4.43-14.205-8.123-1.184-.886-2.22-3.398-2.96-4.58z" fill="url(#paint15_linear)"/><path d="M4.758 57.186c-.592-2.954.74-4.283 3.255-5.465.296-.739 1.184-2.068 1.48-2.511 1.627-.296 2.367.295 3.699.886 2.072.296 3.995 1.034 6.067 1.625h-5.475c-1.184 0-1.48.886-2.368 1.477-3.107.443-4.438 2.068-6.658 3.988z" fill="#ECC37D"/><path d="M.763 70.628c.444-4.136 1.332-7.386 1.332-11.521.887-2.364 2.22-3.545 3.699-4.58 1.331-1.772 3.107-3.101 4.587-4.578 1.627-.591 3.107-.74 4.883-.74-1.924-.885-3.552-1.18-5.771-1.329-.592-1.624-1.036.148-1.332.296-.444 2.363-2.515 3.988-3.699 5.022-2.071 1.773-2.663 2.954-3.403 4.875-1.184 3.397-.74 7.385-.74 11.078.148 2.806.444 1.92.444 1.477z" fill="#EABF73"/><path d="M35.239 77.57c.74 2.66 2.515 3.25 3.847 5.466 2.22.147-9.026 1.92-8.434 1.477-1.48-.443 8.434-1.477-1.776-9.158l6.363 2.215z" fill="#EFCD92"/></g><defs><radialGradient id="paint0_radial" cx="0" cy="0" r="1" gradientUnits="userSpaceOnUse" gradientTransform="rotate(-154.192 24.226 11.24) scale(37.5796 94.282)"><stop stop-color="#5D931E"/><stop offset=".658" stop-color="#699D22"/><stop offset="1" stop-color="#86B52C"/></radialGradient><radialGradient id="paint1_radial" cx="0" cy="0" r="1" gradientUnits="userSpaceOnUse" gradientTransform="matrix(-45.44427 71.18234 -30.79049 -19.65728 51.38 23.039)"><stop stop-color="#A1C43E"/><stop offset="1" stop-color="#71A125"/></radialGradient><radialGradient id="paint3_radial" cx="0" cy="0" r="1" gradientUnits="userSpaceOnUse" gradientTransform="rotate(54.962 -12.45 71.894) scale(56.2027 50.7288)"><stop stop-color="#B8642A"/><stop offset=".153" stop-color="#D39268"/><stop offset=".539" stop-color="#9F4405"/><stop offset=".676" stop-color="#A34300"/><stop offset="1" stop-color="#8C3D06"/></radialGradient><radialGradient id="paint4_radial" cx="0" cy="0" r="1" gradientUnits="userSpaceOnUse" gradientTransform="rotate(-24.105 194.614 -96.226) scale(62.6961 58.8913)"><stop stop-color="#802D03"/><stop offset=".588" stop-color="#8C3604"/><stop offset="1" stop-color="#8F3806"/></radialGradient><radialGradient id="paint5_radial" cx="0" cy="0" r="1" gradientUnits="userSpaceOnUse" gradientTransform="matrix(-15.0687 16.65814 -26.79761 -24.2407 80.71 31.459)"><stop stop-color="#DFD0C3"/><stop offset=".53" stop-color="#C49978"/><stop offset="1" stop-color="#B26F3F"/></radialGradient><radialGradient id="paint6_radial" cx="0" cy="0" r="1" gradientUnits="userSpaceOnUse" gradientTransform="matrix(7.41953 -13.19827 21.68073 12.18801 52.81 39.788)"><stop stop-color="#DCAE92"/><stop offset=".513" stop-color="#D39269"/><stop offset="1" stop-color="#D59062"/></radialGradient><radialGradient id="paint8_radial" cx="0" cy="0" r="1" gradientUnits="userSpaceOnUse" gradientTransform="matrix(53.52972 -35.62475 17.01542 25.56736 50.493 77.314)"><stop stop-color="#4C2103"/><stop offset="1" stop-color="#772B03"/></radialGradient><radialGradient id="paint10_radial" cx="0" cy="0" r="1" gradientUnits="userSpaceOnUse" gradientTransform="rotate(120.463 8.076 33.126) scale(22.9851 16.9768)"><stop stop-color="#E68C53"/><stop offset="1" stop-color="#9F4507"/></radialGradient><radialGradient id="paint14_radial" cx="0" cy="0" r="1" gradientUnits="userSpaceOnUse" gradientTransform="matrix(26.60633 28.83704 -13.98243 12.9008 23.93 61.85)"><stop stop-color="#96450C"/><stop offset="1" stop-color="#F1D5A3"/></radialGradient><linearGradient id="paint2_linear" x1="44.077" y1="6.275" x2="43.39" y2="36.766" gradientUnits="userSpaceOnUse"><stop stop-color="#A1C43E"/><stop offset="1" stop-color="#71A125"/></linearGradient><linearGradient id="paint7_linear" x1="40.937" y1="60.69" x2="62.234" y2="33.767" gradientUnits="userSpaceOnUse"><stop stop-color="#642703"/><stop offset="1" stop-color="#B15C20"/></linearGradient><linearGradient id="paint9_linear" x1="56.003" y1="66.799" x2="82.989" y2="46.397" gradientUnits="userSpaceOnUse"><stop stop-color="#652703"/><stop offset="1" stop-color="#802D03"/></linearGradient><linearGradient id="paint11_linear" x1="27.499" y1="85.844" x2="27.378" y2="101.462" gradientUnits="userSpaceOnUse"><stop stop-color="#743303"/><stop offset=".579" stop-color="#652C03"/><stop offset="1" stop-color="#8D3E04"/></linearGradient><linearGradient id="paint12_linear" x1="21.254" y1="87.269" x2="67.896" y2="78.184" gradientUnits="userSpaceOnUse"><stop stop-color="#723204"/><stop offset=".548" stop-color="#743303"/><stop offset="1" stop-color="#753304"/></linearGradient><linearGradient id="paint13_linear" x1="9.734" y1="53.686" x2="63.343" y2="99.469" gradientUnits="userSpaceOnUse"><stop stop-color="#F1D5A3"/><stop offset="1" stop-color="#FAEED5"/></linearGradient><linearGradient id="paint15_linear" x1="5.026" y1="84.162" x2="34.06" y2="100.521" gradientUnits="userSpaceOnUse"><stop stop-color="#B45312"/><stop offset="1" stop-color="#953F05"/></linearGradient><clipPath id="clip0"><path fill="#fff" transform="translate(0 .894)" d="M0 0h90v96.873H0z"/></clipPath></defs></svg>