<svg width="114" height="95" fill="none" xmlns="http://www.w3.org/2000/svg"><g clip-path="url(#clip0)"><path d="M13.959 56.072c-.387.828-.635 1.625-.449 2.515-.867-.445-1.95-.184-2.785.337-2.167 1.334-3.003 3.955-4.101 6.224a22.025 22.025 0 01-3.947 5.627 35.837 35.837 0 006.84-3.036c1.115-.644 2.213-1.35 3.111-2.254 1.733-1.732 2.677-4.062 3.497-6.362.047.169.093.322.14.49.743-.505 1.346-2.023 1.718-2.85A39.531 39.531 0 0020.985 46a34.327 34.327 0 00-7.026 10.072z" fill="#3D4C00"/><path d="M15.97 64.367c-1.562 4.829-4.812 9.106-9.053 11.942-.294-4.798 2.152-9.674 6.206-12.326-1.934 1.196-3.993 2.239-6.206 2.79-2.213.552-4.75.43-6.902-.321 2.136 0 4.256-.69 5.958-1.963 1.053-.782 1.95-1.763 3.034-2.483 1.098-.72 2.8-1.12 4.023-.675-2.228-1.794-2.646-5.136-1.764-7.865.867-2.729 2.786-4.997 4.658-7.174 1.3 4.721.712 9.535-.774 14.196.65-3.526 1.347-7.175 3.482-10.072 1.053-1.426 2.43-2.607 3.838-3.71.016 2.406-.046 4.844-.634 7.19-.604 2.33-1.795 4.599-3.699 6.101-.526 1.947-1.547 2.453-2.166 4.37z" fill="#4F6800"/><path d="M53.638 82.518c-.68-.905-2.089-.598-3.188-.291-8.217 2.207-16.806-1.901-25.318-1.626l-9.858-1.686c-.758-.69-2.104.046-2.305 1.043-.202.996.355 1.993 1.005 2.774 3.776 4.661 10.338 5.888 16.327 6.639 6.113.766 12.458 1.364 18.308-.552 2.383-.782 4.905-2.315 5.308-4.783.077-.522.046-1.089-.279-1.518z" fill="#561F1D"/><path opacity=".2" d="M48.593 88.834c2.383-.782 4.906-2.315 5.308-4.783.093-.521.047-1.104-.263-1.518a1.28 1.28 0 00-.588-.444c-1.207.276-2.399.766-3.56 1.241.728 1.212.14 2.852-.959 3.756-1.083.905-2.538 1.227-3.93 1.472-3.544.613-7.15.874-10.74.629-3.003-.215-16.188-1.932-13.418-6.93.495-.889 1.254-1.44 1.61-2.146l-6.779-1.15c-.758-.69-2.104.046-2.305 1.043-.202.996.355 1.993 1.005 2.774 3.776 4.661 10.338 5.887 16.327 6.639 6.097.736 12.458 1.334 18.292-.583z" fill="#190F0C"/><path d="M48.593 84.526c-1.579.736-3.405 1.18-5.262 1.395-7.119.813-14.918-.49-21.681-2.713-5.091-1.671-10.446-4.37-10.864-10.272-.557-8.003 5.107-22.766 14.656-23.44 2.089-.154 4.116.628 6.02 1.486 5.664 2.591 11.25 6.148 15.475 10.855 3.405 3.786 6.825 9.06 7.01 14.273.17 4.246-2.12 6.914-5.354 8.416z" fill="#D50506"/><path d="M24.265 67.402c.975-.26 2.074-1.395 1.037-2.33-.897-.828-1.95-1.043-3.172-1.135-1.347-.092-2.677 1.12-1.61 2.392.759.904 2.647 1.38 3.745 1.073zm-5.245 5.09c-1.084.597-1.316 2.115-.403 2.958.82.767 2.708 1.135 3.73.614 1.191-.614 1.16-2.193.077-2.898.03.03.062.046.093.077-.82-.675-2.492-1.303-3.498-.751zm9.331-14.151c1.316-.49 1.47-1.993.666-3.005-.697-.889-2.136-1.395-3.22-.95-1.253.506-1.33 1.916-.618 2.882.68.92 2.043 1.487 3.172 1.073zm-4.148-7.037c.697.644 2.152 1.196 3.096.844.928-.353 1.377-1.625.758-2.407-.851-.2-1.718-.307-2.6-.245a8.843 8.843 0 00-1.904.337c-.03.521.233 1.073.65 1.471zm-7.892 24.453c.929-1.226-.155-2.514-1.377-2.898-1.068-.337-3.25-.996-3.652.63-.31 1.287 1.052 2.375 2.104 2.759.96.337 2.229.429 2.925-.491zm.248-19.531c-.124 1.502 2.274 2.36 3.466 2.499 1.532.184 2.693-1.104 2.012-2.56-.82-1.794-5.262-2.546-5.478.06zm7.165 24.023c-1.145-1.211-5.618-1.993-4.86.859.341 1.272 1.966 1.947 3.188 1.962 1.47.015 2.91-1.518 1.672-2.821zm8.295-28.285c-1.16.03-1.764.92-1.223 1.977.48.92 1.64 1.503 2.677 1.319a1.322 1.322 0 00.929-1.962c-.449-.844-1.44-1.365-2.383-1.334zm-17.704 12.74c-1.1.414-1.1 1.67-.34 2.422.711.705 1.918 1.272 2.94.889.882-.337 1.268-1.518.541-2.208-.774-.72-1.996-1.517-3.141-1.103z" fill="#A00707"/><path d="M12.845 73.043c-.588.552-.093 1.549.325 2.055.402.475 1.222.98 1.795.49.665-.567.093-1.425-.34-1.916-.418-.475-1.146-1.227-1.78-.629zm3.59-7.006c-.418-.337-1.083-.674-1.625-.352-.572.352-.356 1.042.046 1.425.372.353.99.598 1.455.276.418-.291.557-1.011.124-1.349zm4.643-9.397c-.14-1.212-2.29-1.442-2.925-.537-1.27 1.809 3.606 2.499 2.925.536zm6.112-6.347c-.464-1.656-2.909-.276-1.841.49.588.414 2.182.72 1.841-.49zm-1.408 5.963c.14 1.365 3.126 1.87 2.817.383-.248-1.195-3.003-2.085-2.817-.383zm-4.039 8.356c-1.47.475.882 2.744 1.997 1.778 1.284-1.104-1.084-2.07-1.997-1.778zm-1.486 10.455c.851.307 2.028-.629 1.254-1.472-.155-.245-.387-.383-.65-.49-.078-.031-.279-.108-.325-.108-.186-.03-.325-.015-.526 0a.629.629 0 00-.109.031c-1.021.445-.541 1.717.356 2.039zm1.486 5.488c-.464-.245-1.377-.597-1.872-.199-.45.368-.078.905.278 1.211.403.353 1.068.72 1.594.414s.557-1.119 0-1.425zm12.102-27.089c-.51-1.089-2.445-.552-1.501.506.17.184.48.43.743.475.588.107 1.021-.444.758-.981z" fill="#D8351E"/><path opacity=".4" d="M28.057 84.94c-2.987-8.171-2.12-17.66 2.383-25.127-4.209 2.82-7.583 6.868-9.548 11.513-.619 1.472-1.346 3.205-2.925 3.527-1.083.214-2.213-.399-2.863-1.288-.65-.89-.913-1.993-1.083-3.082-.666-4.492.232-9.214 2.491-13.154a20.744 20.744 0 016.918-7.19c.31-.199.68-.368 1.068-.536-8.992 1.533-14.269 15.576-13.712 23.318.418 5.887 5.773 8.6 10.864 10.271 2.059.69 4.21 1.273 6.407 1.748z" fill="#190F0C"/><path opacity=".4" d="M26.324 76.018c-1.811 1.103-4.132 1.533-6.314 1.61-1.718.045-3.498-.077-5.076-.737-1.904-.797-3.343-2.406-4.163-4.277 0 .108.015.23.015.337.418 5.888 5.773 8.601 10.864 10.272.867.291 1.749.552 2.646.797.418-.322.805-.69 1.161-1.088a8.122 8.122 0 001.377-2.407 31.907 31.907 0 01-.51-4.507z" fill="#190F0C"/><path d="M22.61 84.541c-1.27-9.842 1.547-20.144 7.645-28.024.99-1.273 2.104-2.514 3.404-3.45a3.278 3.278 0 013.606-.092c3.993 2.484 7.63 5.397 10.833 8.846 3.621 3.925 6.33 8.846 6.825 14.135.185 1.947.046 4.017-.944 5.703-1.502 2.56-4.581 3.756-7.49 4.43-7.614 1.795-16.466.967-23.88-1.547z" fill="#5D2723"/><g opacity=".5" fill="#190F0C"><path opacity=".5" d="M26.293 81.276c.619-2.82.835-5.718 1.841-8.462 1.037-2.79 2.46-5.458 4.055-7.988 1.61-2.545 3.265-5.228 5.788-6.975 1.13-.782 2.383-1.395 3.683-1.886a70.243 70.243 0 00-2.167-1.564c-.882.445-1.717.935-2.414 1.395-2.739 1.81-4.642 4.462-6.345 7.206-1.718 2.76-3.203 5.687-4.116 8.815-.898 3.066-1.64 6.378-.604 9.444.047.138.248.168.279.015zM51.1 65.623c-1.377.169-2.321 1.38-3.296 2.27a75.951 75.951 0 01-3.962 3.418 47.867 47.867 0 01-4.21 3.035c-1.423.905-2.986 1.656-4.317 2.683-.65.506.093 1.319.712 1.212 3.203-.506 6.236-2.96 8.713-4.891 1.238-.966 2.414-1.993 3.59-3.035-.96 1.655-1.687 3.449-2.275 5.273-.588 1.825-1.207 3.971-.263 5.765.263.52 1.145.414 1.269-.169.371-1.717.557-3.342 1.176-5.013.604-1.595 1.3-3.158 2.167-4.63a15.075 15.075 0 012.336-3.066 29.431 29.431 0 00-1.64-2.852z"/><path opacity=".5" d="M37.745 70.115c-.944 1.825-2.399 4.14-2.012 6.255.03.153.232.215.356.138 1.656-.996 2.383-3.189 3.234-4.829 1.037-2.024 2.167-4.017 3.467-5.872 1.253-1.793 2.708-3.51 4.441-4.86 0 0 .016-.015.031-.015a49.068 49.068 0 00-2.91-2.76c-2.909 1.58-5.555 4.293-7.567 6.24-2.12 2.04-3.76 4.339-5.076 6.96a41.56 41.56 0 00-1.718 4.002c-.541 1.425-1.16 2.744-1.13 4.292 0 .138.17.215.28.108 1.748-1.717 2.785-4.477 3.961-6.608 1.377-2.499 2.708-4.814 4.767-6.837 1.841-1.81 3.76-3.618 5.85-5.136.108-.077.216-.154.324-.215A27.973 27.973 0 0041.8 63.6c-1.578 2.023-2.878 4.231-4.054 6.515z"/></g><path opacity=".2" d="M54.938 76.125c-1.238 1.487-2.894 2.652-4.705 3.388-3.404 1.38-7.227 1.38-10.863.767-5.107-.859-10.338-3.112-13.062-7.482-1.083-1.732-1.671-3.756-1.78-5.78-1.98 5.596-2.677 11.637-1.918 17.508 7.397 2.53 16.249 3.358 23.863 1.564 2.91-.69 5.989-1.87 7.49-4.43.975-1.641 1.145-3.634.975-5.535z" fill="#190F0C"/><path opacity=".2" d="M54.35 80.908a20.92 20.92 0 01-2.43 1.365c-4.828 2.269-10.477 2.606-15.645 1.272-2.801-.72-5.603-2.039-7.197-4.43-1.547-2.33-1.686-5.32-1.392-8.095.68-6.286 3.45-12.295 7.691-16.987.449-.49.882-.935 1.3-1.364a3.271 3.271 0 00-3.018.383c-1.315.92-2.43 2.162-3.404 3.45-6.098 7.88-8.899 18.182-7.645 28.024 7.397 2.53 16.249 3.358 23.863 1.564 2.91-.69 5.989-1.87 7.49-4.43a4.95 4.95 0 00.387-.752z" fill="#190F0C"/><path opacity=".4" d="M22.764 54.08c-1.702 1.18-3.141 2.744-4.039 4.599-.758 1.563-2.306 5.365-.17 6.515 1.857 1.012 3.265-1.211 4.055-2.483a32.206 32.206 0 015.88-7.022c1.146-1.027 2.91-3.603.387-4.262-1.841-.444-4.75 1.717-6.113 2.652zM41.15 70.514c2.444 1.073 5.029 1.87 7.242 3.357.557.368 1.098.797 1.733.966.79-2.023-.186-4.293-1.254-6.194-2.089-3.71-5.122-8.477-9.1-10.424-4.75-2.33-6.468 4.476-4.626 7.65 1.284 2.238 3.698 3.633 6.004 4.645z" fill="#FFEDE9"/><path opacity=".4" d="M39.787 66.022c.542.414 1.3.582 1.92.291.665-.322.959-1.104 1.083-1.824.325-1.932-.96-5.305-3.529-4.14-2.244 1.012-.944 4.554.526 5.673z" fill="#FFEDE9"/><path opacity=".6" d="M23.662 60.656c-.17.521-.542.95-.944 1.334-.743.705-2.167 1.671-3.188.904-.604-.444-.82-1.088-.635-1.809.14-.582.558-1.027.93-1.456.757-.858 1.934-1.732 3.11-1.058.712.414.975 1.334.727 2.085zm1.44-7.052c-.837-.43-1.672-.061-2.214.629-.387.506-.68 1.333-.449 1.962.264.69.82.981 1.548.874.588-.092 1.145-.644 1.47-1.12.48-.735.51-1.885-.356-2.345z" fill="#FFEDE9"/><path d="M39.06 53.45c-5.416 1.748-9.053 6.777-11.405 11.698-2.492 5.197-3.776 11.069-2.09 16.665.062.214.45.199.434-.062-.62-5.595.975-10.885 3.699-15.744 1.222-2.177 2.522-4.324 4.023-6.317 1.64-2.177 3.93-3.403 5.99-5.105.54-.444-.032-1.334-.65-1.134z" fill="#B25B44"/><path d="M52.385 66.175c-1.61-3.158-5.959 1.058-7.398 2.315-2.662 2.3-5.23 4.722-8.31 6.424.232-2.698 1.455-5.167 3.002-7.436a67.633 67.633 0 016.392-7.972c.48-.506.294-1.395-.418-1.579-4.41-1.18-9.286 3.557-11.638 6.715-1.501 2.024-2.646 4.247-3.59 6.577-.51 1.273-.96 2.576-1.285 3.91-.402 1.61-.387 3.111-.603 4.721-.031.169.2.246.263.077.418-1.104 1.068-2.131 1.516-3.25.434-1.104.852-2.208 1.285-3.312.867-2.177 1.919-4.292 3.25-6.224 2.027-2.928 5.03-6.025 8.604-7.021-1.81 2.468-4.256 4.522-6.004 7.036-1.95 2.806-3.235 6.071-2.972 9.52.062.752.913 1.457 1.656.936 2.476-1.717 4.952-3.388 7.227-5.381 1.176-1.027 2.306-2.116 3.575-3.036.588-.413 1.795-1.41 2.879-1.809-1.687 1.825-3.436 3.542-4.612 5.81-1.176 2.285-2.26 5.566-.712 7.911.232.353.96.384 1.037-.138.402-2.698.294-5.09 1.687-7.573 1.253-2.254 3.11-4.492 5.076-6.178.263-.26.263-.72.093-1.043z" fill="#B25B44"/><path d="M37.513 55.214c-2.26.122-4.395 2.453-5.726 4.078-1.625 1.977-2.724 3.97-2.956 6.515-.016.2.232.215.325.092 1.424-1.885 2.646-3.955 4.178-5.764 1.3-1.548 3.39-2.867 4.318-4.66.077-.108 0-.277-.14-.261zm5.215 3.373c-1.997-.644-4.782 2.176-6.067 3.434-1.919 1.87-3.652 3.97-4.24 6.607-.062.26.248.43.449.26 1.903-1.67 3.405-3.694 5.246-5.426.867-.813 1.795-1.549 2.708-2.315.759-.644 1.857-1.288 2.059-2.315 0-.123-.047-.215-.155-.245zm1.609 1.379c-2.383 1.487-4.147 3.204-5.865 5.427-1.455 1.87-2.987 4.11-2.956 6.547 0 .199.279.337.418.168 1.625-1.793 2.708-4.047 4.179-5.979 1.547-2.023 3.11-3.802 4.38-6.01.076-.091-.047-.214-.156-.153zm5.695 6.025c-1.176-.138-2.368.859-3.25 1.518-.882.66-2.166 1.472-2.43 2.606-.061.276.14.675.48.629 1.146-.138 2.12-1.196 2.987-1.901.851-.705 2.12-1.457 2.414-2.576.047-.153-.061-.26-.2-.276zM48.098 69.9c-1.888 1.825-3.869 4.508-3.033 7.252.062.215.34.23.464.061 1.47-2.054 2.337-4.69 2.91-7.113.046-.2-.186-.353-.341-.2z" fill="#E08573"/><path d="M17.951 90.122c-.665-1.12-2.073-1.64-3.157-2.33-.557-.353-1.13-.69-1.717-.982-.557-.26-1.176-.276-1.718-.52-.294-.139-.681.152-.464.459.371.567.464 1.15.913 1.702.464.567 1.006 1.058 1.578 1.518 1.053.827 2.136 1.87 3.544 1.947.913.046 1.47-1.043 1.021-1.794zm7.398 2.254c0-.062-.016-.108-.031-.17l.015.016c-.03-.276-.247-.49-.48-.644-.587-.536-1.547-.337-2.197-.061-.634.276-.665 1.242-.216 1.671.34.322.711.506 1.176.567.247.031.51.031.742-.03.186-.046.325-.138.465-.246h.015c.387-.168.573-.69.51-1.103zm7.722-1.12c-.913-1.15-3.637-1.119-4.627-.06-.325.352-.449.919-.17 1.333.913 1.395 3.575 1.748 4.797.628.588-.536.449-1.349 0-1.9zm3.977.982c-.712-.154-1.532-.016-2.073.49-.31.291-.356.797-.155 1.165.356.598 1.099.966 1.78 1.028.727.076 1.593-.353 1.686-1.135.093-.767-.526-1.395-1.238-1.548zm16.435-3.235c-1.114-.077-2.073.49-3.11.812-1.037.322-2.136.46-3.142.874-.773.322-1.176 1.487-.263 1.947 2.167 1.104 6.422.675 7.691-1.61.527-.935-.139-1.947-1.176-2.023zm-9.92 4.691a1.38 1.38 0 00-.48-.506c-.185-.107-.37-.276-.665-.337-.495-.108-.975-.138-1.454.092-.34.168-.511.598-.45.95.063.399.31.644.682.782.123.046.325.123.356.138.2.061.417.138.634.138.217-.015.31-.03.31-.03.061 0 .108 0 .17.015.232 0 .418-.092.619-.184.387-.215.464-.72.278-1.058z" fill="#5D2723"/></g><g clip-path="url(#clip1)"><path d="M24.723 49.331s6.268-2.862 8.799.679c0 0 8.157-1.313 9.542 5.504 0 0 5.27-2.08 9.32 8.454l4.718-11.951-2.605-7.555-9.14-6.89-12.297.088-7.116 6.876-1.22 4.795z" fill="#381915"/><path opacity=".2" d="M57.102 52.017l-2.605-7.555-9.14-6.89-12.297.088-7.116 6.876-.967 3.807c.133-.089.267-.163.372-.222 2.248-1.269 4.778-1.977 7.31-1.092.178.06.371.133.55.104.268-.03.476-.266.655-.458.908-1.003 2.07-1.859 3.394-2.169 1.34-.31 2.858.015 3.767 1.033.119.133.238.295.416.354.283.104.581-.103.849-.25 1.623-.915 3.99.206 4.302 2.036.09.53.045 1.106.343 1.534.416.62 1.295.679 1.95 1.033 1.131.605 1.533 2.095 1.235 3.32-.297 1.24-1.131 2.272-2.01 3.202-.044.059-.103.103-.148.162 1.429 1.225 2.992 3.364 4.406 7.038l4.734-11.951z" fill="#050202"/><path opacity=".2" d="M54.393 47.502c.298-.856.357-1.904-.238-2.582-.73-.827-2.144-.694-3.022-.03-.879.664-1.355 1.726-1.802 2.73a771.597 771.597 0 00-3.468 8.041 6.472 6.472 0 011.608.87 8.262 8.262 0 01.7-1.52c1.681-2.817 5.135-4.44 6.222-7.51zm-23.611.841c.774-.974 1.623-1.933 2.189-3.025.327-.62.536-1.416.119-1.977-1.668.369-3.052 1.475-4.362 2.538-.953.767-2.56 1.711-3.826 2.759l-.179.693s3.276-1.505 6.06-.988zm10.138 3.378c.491.414.938.93 1.31 1.565.626-.842 1.28-1.668 1.906-2.494 1.712-2.302 3.305-4.854 3.617-7.702.06-.576-.074-1.343-.655-1.417-.238-.029-.476.089-.685.222-1.235.767-2.04 2.066-2.68 3.35-1.071 2.08-1.86 4.337-2.813 6.477zm-3.305-1.549c1.638-2.892 2.933-5.975 3.782-9.177.149-.531.163-1.284-.372-1.446-.209-.06-.447 0-.64.088-1.713.709-2.517 2.627-3.157 4.353-.64 1.741-1.295 3.497-1.935 5.238-.09.221-.164.457-.268.679.715 0 1.638.059 2.59.265zm17.597 6.64a1.588 1.588 0 00-.12-.28c-.446-.768-1.622-.841-2.411-.399-.79.443-1.28 1.24-1.787 1.977a34.34 34.34 0 01-.863 1.18c.804 1.181 1.608 2.716 2.367 4.693l2.814-7.171z" fill="#050202"/><path d="M101.227 7.413L74.267 6.01l-1.176-.84-25.114 4.573-1.176-.84-25.114 4.573s-5.88 6.27-5.702 9.665c.104 1.859 4.63 14.828 8.724 26.174a44.85 44.85 0 003.2-1.755c1.385-.827 2.665-2.022 4.08-2.76.922-.472 1.875.237 2.634-.398.685-.56 1.042-1.682 1.653-2.36.878-.974 2.024-1.58 3.35-1.683 1.413-.103 2.217.458 2.798 1.668.253.516.09.22.387.723a3.01 3.01 0 01.476-.266c.834-.384 1.772-.502 2.695-.398 1.876.191 3.007 1.711 3.364 3.482.015.059.015.133.03.206 1.4-.133 2.948.104 3.811 1.21 1.31 1.697.715 4.161-.774 5.519-.521.472-1.831.973-2.114 1.608-.313.678.238 2.08.432 2.715.685 2.346 1.22 4.736 1.682 7.141L114 55.336l-.015-7.333-12.758-40.59z" fill="#4C241E"/><path opacity=".2" d="M81.918 30.135l-1.175-.84-25.115 4.573-1.965-.56-6.297 9.236c1.057.605 1.712 1.756 1.965 3.025.015.059.015.133.03.206 1.4-.133 2.948.104 3.811 1.21 1.31 1.697.715 4.161-.774 5.519-.521.472-1.831.973-2.114 1.608-.313.678.238 2.08.432 2.715.684 2.346 1.22 4.736 1.682 7.141L114 55.336l-.015-7.333-32.067-17.868zM27.18 48.018c-2.278-6.345-4.481-12.719-6.446-19.107-1.161-3.792-2.233-7.998-1.935-11.863-1.46 1.977-2.888 4.397-2.8 6.094.105 1.859 4.63 14.828 8.725 26.174a38.947 38.947 0 002.456-1.298z" fill="#050202"/><path opacity=".2" d="M112.869 44.447c-1.117-.236-2.323-.177-2.948.31 1.042 1.963.089 4.515-1.623 5.961-1.712 1.446-3.96 2.036-6.148 2.553-16.554 3.85-33.57 5.208-50.407 7.628.224 1.018.447 2.036.64 3.069L114 55.336l-.015-7.333-1.116-3.556z" fill="#050202"/><path d="M46.816 8.903s-3.186-.56-5.658-.546c0 0-17.417 1.402-19.457 5.12l6.968 21.129 25.084-3.276-6.938-22.427z" fill="#5B2C25"/><path d="M32.063 25.133l-3.395 9.488 25.085-3.276-3.945-8.277-17.745 2.065z" fill="#4C241E"/><path opacity=".2" d="M53.753 31.345l-3.945-8.277-.477.059c.372 1.8-.327 3.836-1.622 5.223-1.638 1.741-4.005 2.626-6.357 3.172a30.03 30.03 0 01-9.602.635c-.521-.045-1.057-.118-1.503-.399a1.374 1.374 0 01-.402-.428l-1.176 3.306 25.084-3.29z" fill="#050202"/><path d="M46.816 8.903s-3.186-.56-5.658-.546c0 0-17.417 1.402-19.457 5.12l6.908-2.213 17.417-2.08.79-.28z" fill="#381915"/><path d="M53.753 31.346L46.815 8.904l-.803.295 3.796 13.87 3.945 8.277z" fill="#230E0C"/><path d="M30.157 11.087L44.836 9.33c.684-.074 1.31.34 1.503 1.003l3.067 11.2a1.354 1.354 0 01-1.176 1.71L33.269 25c-.685.074-1.34-.354-1.504-1.032l-2.784-11.2a1.368 1.368 0 011.176-1.681z" fill="#603329"/><path d="M28.609 11.264s-3.335.428-6.908 2.213l6.967 21.129 3.395-9.487-3.454-13.855z" fill="#773C32"/><path opacity=".2" d="M29.264 29.442c-.447.988-.893 1.977-1.325 2.98l.73 2.199 3.394-9.488-3.454-13.87s-3.335.429-6.908 2.214l.18.531c.55-.192 1.086-.442 1.413-.501 1.236-.222 2.56-.06 3.618.634 1.548 1.018 2.248 2.877 2.828 4.618.64 1.889 1.25 3.851 1.087 5.843-.164 1.697-.863 3.29-1.563 4.84z" fill="#FFEDE9"/><path opacity=".2" d="M49.391 21.533l-.52-1.888a10.164 10.164 0 01-4.467 3.01 10.31 10.31 0 01-6.729-.104c-.967-.354-1.876-.855-2.739-1.416-.61-.384-1.206-.797-1.682-1.343-1.027-1.166-1.37-2.818-1.295-4.367.089-1.77.73-3.453 1.86-4.766l-3.662.443a1.374 1.374 0 00-1.176 1.682l2.784 11.199a1.388 1.388 0 001.504 1.032l14.946-1.74c.849-.133 1.4-.945 1.176-1.742z" fill="#FFEDE9"/><path d="M73.106 5.17s-3.186-.56-5.657-.546c0 0-17.418 1.402-19.457 5.12l6.967 21.129 25.084-3.276L73.106 5.17z" fill="#5B2C25"/><path d="M58.338 21.4l-3.38 9.488 25.085-3.276-3.945-8.292-17.76 2.08z" fill="#4C241E"/><path opacity=".2" d="M80.043 27.612l-3.945-8.277-.476.059c.372 1.8-.328 3.836-1.623 5.223-1.638 1.741-4.005 2.626-6.357 3.172a30.032 30.032 0 01-9.602.635c-.52-.045-1.057-.118-1.503-.399a1.374 1.374 0 01-.402-.428l-1.176 3.305 25.084-3.29z" fill="#050202"/><path d="M73.106 5.17s-3.186-.56-5.657-.546c0 0-17.418 1.402-19.457 5.12l6.907-2.213 17.418-2.08.789-.28z" fill="#381915"/><path d="M80.043 27.613L73.106 5.17l-.804.295 3.796 13.855 3.945 8.292z" fill="#230E0C"/><path d="M56.447 7.354l14.679-1.756c.685-.074 1.31.34 1.503 1.003l3.067 11.2a1.354 1.354 0 01-1.176 1.71l-14.946 1.742c-.685.074-1.34-.354-1.504-1.033L55.286 9.021c-.223-.782.328-1.579 1.161-1.667z" fill="#603329"/><path d="M54.9 7.53s-3.335.429-6.908 2.214l6.967 21.129 3.394-9.487L54.899 7.53z" fill="#773C32"/><path opacity=".2" d="M55.554 25.709c-.446.988-.893 1.977-1.325 2.98l.73 2.199 3.394-9.488-3.454-13.87s-3.334.429-6.907 2.214l.178.531c.551-.191 1.087-.442 1.415-.501 1.235-.222 2.56-.06 3.617.634 1.548 1.018 2.248 2.877 2.829 4.618.64 1.889 1.25 3.851 1.086 5.843-.163 1.697-.863 3.29-1.563 4.84z" fill="#FFEDE9"/><path opacity=".2" d="M75.681 17.8l-.52-1.888a10.163 10.163 0 01-4.467 3.01 10.311 10.311 0 01-6.729-.104c-.967-.354-1.875-.855-2.739-1.416-.61-.384-1.206-.797-1.682-1.343-1.027-1.165-1.37-2.818-1.295-4.367.09-1.77.73-3.453 1.86-4.766l-3.661.443a1.374 1.374 0 00-1.176 1.682l2.783 11.199a1.388 1.388 0 001.504 1.032l14.946-1.77a1.383 1.383 0 001.176-1.712z" fill="#FFEDE9"/><path d="M99.38 1.437s-3.185-.56-5.656-.546c0 0-17.418 1.402-19.457 5.12l6.967 21.144 25.084-3.276-6.937-22.442z" fill="#5B2C25"/><path d="M84.628 17.668l-3.394 9.487 25.099-3.276-3.96-8.292-17.745 2.08z" fill="#4C241E"/><path opacity=".2" d="M106.333 23.88l-3.945-8.278-.491.044c.372 1.8-.328 3.836-1.623 5.223-1.637 1.741-4.004 2.627-6.356 3.173a30.032 30.032 0 01-9.603.634c-.52-.044-1.056-.118-1.503-.398a1.374 1.374 0 01-.402-.428l-1.176 3.305 25.099-3.276z" fill="#050202"/><path d="M99.38 1.437s-3.185-.56-5.656-.546c0 0-17.418 1.402-19.457 5.12l6.907-2.213 17.418-2.08.789-.28z" fill="#381915"/><path d="M106.333 23.88L99.381 1.438l-.789.295 3.781 13.855 3.96 8.292z" fill="#230E0C"/><path d="M82.722 3.62l14.679-1.755c.685-.074 1.31.34 1.504 1.003l3.066 11.2a1.354 1.354 0 01-1.176 1.71L85.849 17.52c-.685.074-1.34-.354-1.504-1.033L81.561 5.288c-.208-.782.343-1.579 1.161-1.667z" fill="#603329"/><path d="M81.174 3.798s-3.334.428-6.907 2.213l6.967 21.144 3.394-9.488-3.454-13.87z" fill="#773C32"/><path opacity=".2" d="M81.844 21.976c-.446.988-.893 1.977-1.325 2.98l.73 2.199 3.394-9.488-3.454-13.87s-3.334.429-6.907 2.214l.178.531c.551-.192 1.087-.442 1.415-.501 1.235-.222 2.56-.06 3.617.634 1.548 1.018 2.248 2.877 2.829 4.618.64 1.889 1.25 3.851 1.086 5.843-.163 1.697-.878 3.29-1.563 4.84z" fill="#FFEDE9"/><path opacity=".2" d="M101.956 14.067l-.506-1.888a10.163 10.163 0 01-4.466 3.01 10.311 10.311 0 01-6.729-.104c-.967-.354-1.876-.855-2.739-1.416-.61-.384-1.206-.797-1.682-1.343-1.027-1.165-1.37-2.818-1.295-4.367.089-1.77.73-3.453 1.86-4.766l-3.662.443a1.374 1.374 0 00-1.176 1.682l2.784 11.199a1.388 1.388 0 001.504 1.032l14.946-1.74c.834-.133 1.385-.945 1.161-1.742z" fill="#FFEDE9"/><path d="M31.988 44.816c.923-.472 1.876.236 2.635-.398.685-.56 1.042-1.682 1.653-2.36.878-.975 2.024-1.58 3.35-1.683 1.413-.103 2.217.458 2.798 1.667.253.517.09.222.387.723.149-.103.313-.191.476-.265.834-.384 1.772-.502 2.695-.399 1.876.192 3.007 1.712 3.364 3.483.015.059.015.132.03.206 1.4-.133 2.948.103 3.811 1.21 1.31 1.697.715 4.16-.774 5.518-.521.472-1.831.974-2.114 1.609-.313.678.238 2.08.432 2.715 0 .014.015.029.015.044l10.688-1.402-6.937-22.427s-3.186-.561-5.657-.546c0 0-17.417 1.401-19.457 5.12l2.412 7.333c.044-.06.119-.103.193-.148z" fill="#5B2C25"/><path d="M52.383 52.504c-.52.472-1.83.973-2.114 1.608-.312.678.239 2.08.432 2.715 0 .014.015.03.015.044l10.689-1.402-3.945-8.277-3.9.457c.744 1.623.133 3.674-1.177 4.855z" fill="#4C241E"/><path opacity=".2" d="M50.701 56.812c0 .015.015.03.015.044l10.689-1.401-3.945-8.278-.477.06c.372 1.8-.327 3.835-1.622 5.222-1.34 1.432-3.186 2.287-5.092 2.848.12.575.328 1.166.432 1.505z" fill="#050202"/><path d="M54.467 33.042s-3.185-.56-5.657-.546c0 0-17.417 1.402-19.457 5.12l6.908-2.213 17.417-2.08.79-.281z" fill="#381915"/><path d="M61.404 55.47l-6.937-22.427-.804.28 3.797 13.87 3.944 8.277z" fill="#230E0C"/><path d="M57.043 45.657l-3.067-11.199a1.4 1.4 0 00-1.504-1.003l-14.678 1.756a1.374 1.374 0 00-1.176 1.682l1.012 4.072a4.757 4.757 0 011.98-.59c1.415-.103 2.218.458 2.799 1.667.253.517.09.222.387.723a3.01 3.01 0 01.476-.265c.834-.384 1.772-.502 2.695-.399 1.876.192 3.007 1.712 3.364 3.483.015.059.015.132.03.206 1.4-.133 2.948.103 3.811 1.21.164.207.298.428.402.65l2.308-.266c.818-.104 1.384-.915 1.16-1.727z" fill="#603329"/><path d="M31.988 44.816c.923-.472 1.876.236 2.635-.398.685-.56 1.042-1.682 1.653-2.36a5.367 5.367 0 011.37-1.093l-1.385-5.577s-3.335.428-6.908 2.213l2.412 7.333c.074-.03.149-.073.223-.118z" fill="#773C32"/><path opacity=".2" d="M30.931 37.63c1.236-.22 2.56-.058 3.618.635 1.131.753 1.801 1.948 2.322 3.217a4.5 4.5 0 01.774-.531l-1.384-5.578s-3.335.428-6.908 2.214l.179.53c.536-.176 1.072-.427 1.4-.486z" fill="#FFEDE9"/><path opacity=".2" d="M37.645 40.965a4.915 4.915 0 011.965-.59 7.641 7.641 0 010-.826c.09-1.77.73-3.453 1.861-4.766l-3.662.443a1.374 1.374 0 00-1.176 1.682l1.012 4.057zm19.398 4.692l-.521-1.888a10.228 10.228 0 01-3.811 2.759c.163.133.312.28.446.457.164.207.298.428.402.65l2.308-.266c.833-.089 1.4-.9 1.176-1.712z" fill="#FFEDE9"/><path d="M80.743 29.294s-3.186-.56-5.657-.546c0 0-17.418 1.402-19.458 5.12l6.967 21.144 25.085-3.276-6.938-22.442z" fill="#5B2C25"/><path d="M65.99 45.524l-3.394 9.488 25.099-3.276-3.945-8.277-17.76 2.065z" fill="#4C241E"/><path opacity=".2" d="M87.695 51.736L83.75 43.46l-.477.059c.372 1.8-.327 3.836-1.622 5.223-1.638 1.741-4.005 2.626-6.357 3.172a30.032 30.032 0 01-9.602.635c-.521-.045-1.057-.118-1.504-.399a1.373 1.373 0 01-.402-.428l-1.176 3.306 25.085-3.29z" fill="#050202"/><path d="M80.743 29.294s-3.186-.56-5.657-.546c0 0-17.418 1.402-19.458 5.12l6.908-2.213 17.418-2.08.789-.28z" fill="#381915"/><path d="M87.695 51.737l-6.952-22.442-.79.295 3.797 13.87 3.945 8.277z" fill="#230E0C"/><path d="M64.084 31.478l14.678-1.756c.685-.074 1.31.34 1.504 1.003l3.067 11.2a1.354 1.354 0 01-1.176 1.71L67.21 45.378c-.684.074-1.34-.354-1.503-1.033l-2.784-11.199c-.209-.782.342-1.579 1.161-1.667z" fill="#603329"/><path d="M62.536 31.655s-3.335.428-6.908 2.213l6.968 21.144 3.394-9.487-3.454-13.87z" fill="#773C32"/><path opacity=".2" d="M63.206 49.833c-.447.989-.893 1.977-1.325 2.98l.73 2.199 3.393-9.487-3.453-13.87s-3.335.428-6.908 2.213l.179.531c.55-.191 1.087-.442 1.414-.501 1.236-.222 2.56-.06 3.618.634 1.548 1.018 2.248 2.877 2.828 4.618.64 1.889 1.25 3.851 1.087 5.843-.164 1.697-.878 3.29-1.563 4.84z" fill="#FFEDE9"/><path opacity=".2" d="M83.318 41.924l-.521-1.888a10.163 10.163 0 01-4.466 3.01 10.311 10.311 0 01-6.729-.104c-.968-.354-1.876-.855-2.739-1.416-.61-.384-1.206-.797-1.682-1.343-1.027-1.165-1.37-2.818-1.295-4.367.089-1.77.73-3.453 1.86-4.766l-3.662.443a1.374 1.374 0 00-1.176 1.682l2.784 11.199a1.388 1.388 0 001.504 1.032l14.946-1.74c.849-.133 1.4-.945 1.176-1.742z" fill="#FFEDE9"/><path d="M107.033 25.561s-3.186-.56-5.657-.546c0 0-17.418 1.402-19.457 5.12l6.967 21.13 25.084-3.276-6.937-22.428z" fill="#5B2C25"/><path d="M92.28 41.791l-3.394 9.488 25.084-3.276-3.945-8.292-17.745 2.08z" fill="#4C241E"/><path opacity=".2" d="M113.97 48.003l-3.945-8.277-.476.059c.372 1.8-.328 3.836-1.623 5.223-1.638 1.741-4.005 2.626-6.357 3.172a30.03 30.03 0 01-9.602.635c-.52-.044-1.057-.118-1.503-.399a1.374 1.374 0 01-.402-.427l-1.176 3.305 25.084-3.29z" fill="#050202"/><path d="M107.033 25.561s-3.186-.56-5.657-.546c0 0-17.418 1.402-19.457 5.12l6.907-2.213 17.418-2.08.789-.28z" fill="#381915"/><path d="M113.97 48.004l-6.937-22.442-.804.295 3.796 13.855 3.945 8.292z" fill="#230E0C"/><path d="M90.374 27.745l14.679-1.756c.685-.074 1.31.34 1.503 1.003l3.067 11.2a1.354 1.354 0 01-1.176 1.71l-14.946 1.742c-.685.074-1.34-.354-1.504-1.033l-2.784-11.199c-.208-.782.343-1.579 1.161-1.667z" fill="#603329"/><path d="M88.826 27.922s-3.334.428-6.907 2.213l6.967 21.13 3.394-9.488-3.454-13.855z" fill="#773C32"/><path opacity=".2" d="M89.481 46.1c-.446.989-.893 1.977-1.325 2.98l.73 2.199 3.394-9.488-3.454-13.869s-3.334.428-6.907 2.213l.178.531c.551-.191 1.087-.442 1.415-.501 1.235-.222 2.56-.06 3.617.634 1.548 1.018 2.248 2.877 2.829 4.618.64 1.89 1.25 3.852 1.086 5.843-.163 1.697-.863 3.29-1.563 4.84z" fill="#FFEDE9"/><path opacity=".2" d="M109.608 38.191l-.521-1.888a10.163 10.163 0 01-4.466 3.01 10.31 10.31 0 01-6.729-.104c-.967-.354-1.875-.855-2.739-1.416-.61-.384-1.206-.797-1.682-1.343-1.027-1.165-1.37-2.818-1.295-4.367.09-1.77.73-3.453 1.86-4.766l-3.661.443a1.374 1.374 0 00-1.177 1.682l2.784 11.199a1.388 1.388 0 001.504 1.032l14.946-1.74c.849-.133 1.4-.945 1.176-1.742z" fill="#FFEDE9"/><path opacity=".5" d="M52.532 44.698c-1.131-.693-1.98-.472-2.71-1.726-1.012-1.77-2.5-2.67-4.63-2.464-.505.044-1.041.354-1.518.369-1.101.059-1.16-.517-1.905-.974-.76-.472-1.742-.575-2.605-.428-2.084.34-3.633 2.11-4.377 3.97-.03.088.09.176.164.117 1.533-1.121 3.409-3.526 5.582-2.45.7.355.968 1.048 1.801 1.181.879.148 1.668-.413 2.516-.53 1.072-.148 2.114.442 2.814 1.239.521.59.67 1.401 1.28 1.918.492.398.968.427 1.563.56.804.177 1.28.37 1.936.841.357.251.372.443.833.65.239.103.551-.015.551-.31-.015-.9-.55-1.52-1.295-1.963z" fill="#FFEDE9"/><path opacity=".5" d="M42.618 42.898c-.015-.044-.075-.074-.12-.044-.61.383-.774 1.24-1.042 1.874-.312.737-.759 1.49-.848 2.301-.015.178.223.251.342.133.596-.53.879-1.328 1.176-2.05.268-.665.76-1.49.492-2.214zm-2.055 4.943c-.03-.074-.164-.089-.208-.03-.209.236-.283.473-.387.768-.09.265-.254.575-.18.855.046.148.194.178.314.119.297-.133.431-.532.506-.812.074-.325.104-.605-.045-.9zm8.099-2.213c-.64.885-.998 1.947-1.489 2.921-.447.886-.908 1.727-1.22 2.67-.06.163.178.281.282.163 1.34-1.416 2.59-3.703 2.829-5.65.03-.222-.298-.252-.402-.104zm-3.216 6.669c0-.074-.104-.103-.149-.044-.104.177-.283.295-.387.472-.104.177-.194.354-.298.531-.208.354-.387.708-.58 1.062-.075.133.074.28.208.207.387-.236.73-.531.968-.93.104-.177.193-.368.253-.575.074-.266-.015-.443-.015-.723zm39.629 2.316c-2.665-.206-5.33.236-7.995.236a77.924 77.924 0 00-7.651.414 236.3 236.3 0 00-7.295.93c-2.68.368-5.136 1.15-7.726 1.888-.343.103-.268.62.09.62 2.694.014 5.27.117 7.964-.178a670.07 670.07 0 007.636-.885 83.96 83.96 0 007.19-1.21c2.591-.546 5.286-.62 7.846-1.313.313-.074.224-.472-.06-.502zm15.69-2.95c-1.488-.163-2.962.22-4.436.457-1.816.28-3.647.546-5.463.782-.581.074-.61.974 0 .93 1.875-.163 3.751-.34 5.627-.576 1.504-.192 3.067-.28 4.451-.93.342-.177.119-.634-.179-.663z" fill="#FFEDE9"/><path d="M30.931 53.094c-.357-1.18-1.876-1.55-2.992-1.55-1.31.015-2.501.399-3.29 1.446-.402.532.149 1.27.744 1.27.909 0 1.802-.252 2.71-.237.833.015 1.712.251 2.486-.118.298-.118.432-.531.342-.811zm5.747 1.549a2.428 2.428 0 00-.983-.472c-.134-.03-.268-.03-.402-.06.075.045.045.03-.09-.029a.44.44 0 00-.237-.059c-.328-.044-.626.251-.447.576.06.103.12.177.194.265.074.399.238.768.416 1.122.239.486.655 1.136 1.236 1.224.372.06.834-.03 1.027-.413.432-.826-.045-1.638-.714-2.154zm3.587 3.969c-.238.192-.208.605 0 .812.968.93 2.293 1.357 3.23 2.346.954 1.018 1.192 2.523 2.204 3.437.372.34 1.027.414 1.385 0 2.768-3.172-3.618-9.25-6.819-6.595zm14.932 9.208c-2.01-.444-4.273.338-6.297.5-.55.045-.804.768-.283 1.078 1.25.738 2.322 1.092 3.811.93 1.236-.133 2.442-.547 3.126-1.624.209-.324.015-.811-.357-.885zm13.844-2.952c-1.265-.693-2.367-.664-3.78-.384-.685.133-1.385.31-2.025.605-.64.28-1.191.87-1.831 1.122-.417.162-.373.767.104.796.625.03 1.25.37 1.876.458.729.088 1.473.059 2.203-.03 1.459-.162 2.575-.472 3.588-1.549.282-.295.253-.811-.135-1.018zm12.893-2.272c-.745-.34-1.504-.325-2.308-.207-.461.074-.938.133-1.399.222-.506.103-1.012.324-1.504.398-.61.074-.893 1.048-.163 1.18 1.116.207 1.995.487 3.156.34.967-.118 1.816-.413 2.411-1.21.15-.207.045-.605-.193-.723zM22.059 49.45c-.15-.34-.581-.576-.894-.768-.223-.148-.476-.266-.7-.413-.252-.177-.67-.118-.892.059-.268.206-.358.516-.283.84.089.444.283.842.595 1.167.372.383 1.057.708 1.593.53.64-.22.848-.855.58-1.416zm63.432 13.53c-.476-.28-1.146-.163-1.533.22a1.743 1.743 0 00-.283.37.729.729 0 00-.119.295c-.015.073-.015.162-.03.236.03.25.03.31.03.162.03.266.194.575.477.62l-.075-.03c.075.03.134.06.209.089.089.03.193.03.282.03.12 0 .239-.015.373-.03.401-.06.803-.266 1.012-.62.268-.487.119-1.077-.343-1.343zm4.094-2.258c-.446-.236-.908-.221-1.354 0-.328.162-.521.502-.67.826-.134.31-.12.65.178.856.268.207.64.177.879-.059l.014-.015h.015c.03 0 .03-.014.045-.014h-.045c.06-.015.134-.015.194-.03.074-.03.119-.044.149-.059.03 0 .06-.015.074-.015.045-.015.09-.015.134-.03.134-.044.268-.117.387-.176.521-.236.477-1.033 0-1.284zm12.773-.044c-1.28-.502-2.62-.325-3.93-.045-1.355.28-2.799.576-3.945 1.402-.7.502-.625 1.55.238 1.83 2.367.738 6.357-.015 7.95-1.977.372-.443.223-.989-.313-1.21zm-44.035 7.761c-.506-.163-.968-.074-1.43.162-.758.384-.743 1.608 0 1.977.462.236.924.31 1.43.148.491-.163.893-.62.893-1.151s-.402-.989-.893-1.136zm-13.77.133c-.09-.118-.134-.222-.253-.325a1.154 1.154 0 00-.357-.177 1.386 1.386 0 00-.551-.015c-.253.03-.462.118-.655.266a1.044 1.044 0 00-.239.28c-.387.354-.134.989.358 1.062.044.03.089.045.104.06.104.029.223.044.327.058.12.03.239.015.358-.014h.089a.671.671 0 00.298-.06c.208-.088.461-.235.55-.471.09-.207.09-.487-.03-.665z" fill="#4C241E"/></g><defs><clipPath id="clip0"><path fill="#fff" transform="translate(0 46)" d="M0 0h55v48.936H0z"/></clipPath><clipPath id="clip1"><path fill="#fff" transform="translate(16 .891)" d="M0 0h98v69.908H0z"/></clipPath></defs></svg>