<svg width="122" height="98" fill="none" xmlns="http://www.w3.org/2000/svg"><g clip-path="url(#clip0)"><path d="M120.57 41.56c0-4.795-59.382-20.885-66.089-20.565-6.598.32-50.08 26.851-52.784 32.392-.109.213-.109.32-.109.533v.106c-.757 10.549.325 12.467 1.298 15.344 1.407 4.049 64.467 28.023 70.308 27.703 6.057-.32 46.295-32.391 47.268-37.72v.107c2.272-12.68.108-17.9.108-17.9zM1.913 54.559v.107-.107zm118.225 3.73c0-.107.108-.214.108-.214 0 .213.108.32.108.533-.108-.107-.108-.213-.216-.32z" fill="#E48B0C"/><path d="M120.137 22.592c0-5.115-59.383-22.376-66.089-22.056-6.49.32-50.08 28.875-52.785 34.842-.108.213-.108.426-.108.533v.106c-1.622 10.55-.433 16.73 0 18.54v.107c0 .107.108.32.216.533 4.003 5.54 65.549 27.384 71.39 27.064 6.057-.426 46.294-34.842 47.268-40.596v.106c2.271-13.425.108-19.18.108-19.18zM1.48 36.657c0-.107 0-.107 0 0zm118.224 3.942c0-.106.109-.213.109-.213 0 .213.108.426.108.533 0-.107-.108-.213-.217-.32z" fill="#5B2720"/><path opacity=".3" d="M90.825 15.987C89.85 10.66 61.404 4.267 52.318 5.332 43.232 6.504 4.4 30.265 7.97 34.634c2.163 2.664 22.715-16.303 50.838-19.925 17.739-2.345 32.45 3.835 32.017 1.278zm16.657 23.015c0-.106.108-.106.108-.213 0 .213 0 .32.109.426-.109 0-.109-.106-.217-.213zm-87.83 2.131c12.872 5.754 44.78 15.45 52.244 15.45 6.814 0 22.498-15.45 22.498-15.45.65-3.729-11.465.853-28.123 2.664-19.037 1.918-49.756-4.155-46.62-2.663zm9.735-11.72s0 .106 0 0c0 .106 0 0 0 0zm70.415 2.45s0-.106.109-.106v.32c0-.107-.109-.213-.109-.213z" fill="#fff"/><path opacity=".5" d="M25.817 52.108c-.973-.426-9.41.96-10.167 1.705l-.108.107c-.974 1.491 6.598 11.294 7.571 11.614.866.32 3.678-13 2.704-13.426z" fill="#fff"/><path opacity=".7" d="M33.497 17.266c.433.64-3.57 4.049-9.086 7.565-5.408 3.516-10.167 5.86-10.6 5.114-.433-.639 3.57-4.049 9.086-7.565 5.408-3.41 10.168-5.753 10.6-5.114z" fill="#fff"/><path opacity=".25" d="M89.202 30.052c0 6.82-7.355 11.614-20.984 12.147-20.227.746-31.476-3.516-31.476-10.335 0-6.82 11.033-12.254 24.662-12.254s27.798 3.73 27.798 10.442z" fill="#070001"/><path d="M20.193 52.108c-.65-1.385-3.353-1.491-6.058-.213h-.108v-.106c-.324-2.877-1.838-5.221-3.353-5.008-1.514.106-2.488 2.664-2.163 5.54.216 2.345 1.19 4.156 2.38 4.795 1.081.746 3.353.64 5.516-.426 2.704-1.065 4.435-3.196 3.786-4.582zm26.176 14.385c.432 1.811 3.677 2.77 7.463 2.024h.108v.107c-.432 3.73.757 6.926 2.596 7.139 1.947.213 3.894-2.557 4.327-6.287.324-2.876-.325-5.54-1.514-6.606-1.082-1.172-3.894-1.705-6.923-1.065-3.678.745-6.382 2.877-6.057 4.688zm-1.407-6.073c0 2.45-2.271 4.475-5.083 4.475-2.813 0-5.084-2.025-5.084-4.476 0-2.45 2.271-4.475 5.084-4.475 2.812 0 5.084 2.025 5.084 4.475zm-13.195 3.41c0 1.278-1.082 2.343-2.38 2.343-1.298 0-2.38-1.065-2.38-2.344s1.082-2.344 2.38-2.344c1.298 0 2.38 1.066 2.38 2.344zM68.65 75.656c0 1.386-1.08 2.451-2.487 2.451-1.298 0-2.488-1.065-2.488-2.45 0-1.386 1.082-2.451 2.488-2.451s2.488 1.065 2.488 2.45zm19.362-5.646c.974-1.173.974-4.69-1.298-6.607 0 0 .541.32.433.32 0 0-.54-.32-.433-.32 2.596-1.492 4.76-3.41 4.002-4.688-.757-1.28-3.46-1.173-6.057.213-2.055 1.172-3.461 2.77-3.57 4.049-.216 1.278.325 3.196 1.731 5.22 1.623 2.451 4.219 2.984 5.192 1.812zm15.252-19.074c0 1.492-.866 3.517-1.947 3.517-1.082 0-2.38-.853-1.947-3.517.216-1.918.865-2.983 1.947-2.983 1.081.106 1.947 1.492 1.947 2.983zm12.871-8.417c0 1.491-.757 2.663-1.73 2.663-.974 0-1.731-1.172-1.731-2.663 0-1.492.757-2.664 1.731-2.664.973 0 1.73 1.172 1.73 2.664zm-7.571 8.737c0 .959-.433 2.238-.974 2.238-.54 0-1.081-1.599-1.081-2.558 0-.959.541-1.491 1.081-1.491.541 0 .974.852.974 1.811z" fill="#B46733"/><path opacity=".6" d="M11.323 49.977c0 .214-.216.427-.433.427-.216 0-.54-.214-.54-.427s.216-.426.54-.426c.217 0 .433.213.433.426zm0 2.451c0 .214-.216.32-.433.32-.216 0-.54-.106-.54-.32 0-.213.216-.32.54-.32.217-.106.433.107.433.32zM42.8 59.887c0 .32-.109.532-.325.532-.108 0-.325-.213-.325-.532 0-.32.109-.533.325-.533.216 0 .324.32.324.533zm15.575 8.418c0 .213-.324.32-.757.32s-.757-.107-.757-.32c0-.214.324-.32.757-.32.325 0 .757.106.757.32zm-.108 3.515c0 .214-.325.427-.757.427-.433 0-.757-.213-.757-.427 0-.213.324-.426.757-.426s.757.213.757.426zm-1.514-7.991c0 .213-.108.426-.325.426-.216 0-.324-.213-.324-.426s.108-.426.324-.426c.217 0 .325.213.325.426z" fill="#fff"/><path d="M84.551 64.575c0 .213-.216.426-.54.426-.325 0-.541-.213-.541-.426s.216-.426.54-.426c.325 0 .541.213.541.426z" fill="#fff"/><path opacity=".6" d="M94.719 57.33c0 .426-.217.745-.541.745-.325 0-.541-.32-.541-.746s.216-.745.54-.745c.217 0 .542.32.542.745zm-27.582 9.59c0 .532-.325.958-.65.958-.324 0-.648-.426-.648-.959 0-.533.324-.959.649-.959.324 0 .649.426.649.96zm-1.947 3.515c0 .213-.109.427-.325.427-.216 0-.325-.213-.325-.427 0-.213.109-.426.325-.426.216 0 .325.213.325.426zM33.497 52.854c0 .426-.216.853-.432.853-.217 0-.433-.32-.433-.853 0-.426.216-.852.433-.852.216 0 .432.426.432.852zm-18.063-7.565c0 .32-.325.64-.866.64-.432 0-.865-.32-.865-.64s.324-.64.865-.64c.433 0 .866.214.866.64zM6.24 43.051c0 .427-.325.746-.65.746-.324 0-.649-.32-.649-.746s.325-.745.65-.745c.324 0 .648.32.648.745z" fill="#fff"/><g opacity=".7"><path opacity=".7" d="M81.63 54.772c-7.787 6.074-11.79 5.328-18.387 3.197-54.3-16.622-59.708-19.073-50.73-15.45 8.87 3.622 58.085 20.99 59.6 20.884 1.513-.107 1.513 11.614 1.513 11.614.974 0 1.84-11.401 1.731-12.573 9.302-4.688 27.799-24.507 6.274-7.672z" fill="#fff"/><path opacity=".25" d="M120.137 42.519s0 .106 0 0c.109-.32.109-.64.217-.96.865-3.835.432-15.982-.217-18.433-1.514-4.262-31.26-13.852-32.882-12.573-2.596 2.025 23.364 7.778 25.527 14.917 2.488 8.418-37.317 36.228-27.257 32.818 5.732-1.917 19.361-15.45 20.875-13.745 1.515 1.705-28.447 36.441-33.206 37.613-4.651 1.172-33.315-10.016-33.964-10.229-.65-.213 32.99 12.893 34.613 13.212 1.622.214 2.055 6.713 1.838 8.312-.108 1.491 25.095-26.851 28.123-25.36 3.029 1.492-4.759 11.72-4.759 11.72 12.115-9.163 21.525-20.457 21.525-20.457 1.623-10.868-.433-16.835-.433-16.835z" fill="#070001"/><path opacity=".3" d="M49.181 89.402c2.272-19.073-10.167-36.015-23.147-37.187C13.919 51.043 6.997 60.739 7.97 72.886c6.598 3.303 38.29 15.557 41.211 16.516z" fill="#fff"/><path opacity=".7" d="M72.977 49.338c-.216 2.024-1.297 5.967-5.84 5.54-4.543-.532-17.74-4.581-17.523-6.605.216-2.025 7.03-1.28 11.682-.746 4.542.426 11.898-.214 11.681 1.811z" fill="#fff"/><path opacity=".3" d="M48.748 88.975c1.623-13.745-7.247-25.892-16.657-26.744-8.653-.853-13.629 6.073-12.98 14.81 4.867 2.451 27.69 11.189 29.637 11.934z" fill="#fff"/></g><path d="M74.6 10.233s-.865-7.565 9.518-9.802c0 0-2.055 7.352-2.812 8.524-.757 1.172 3.678-1.385 9.735 1.385 0 0-4.651 5.434-6.923 5.754 0 0 .758 2.983 6.923 3.836 0 0-7.139 9.163-13.088-.107-6.057-9.27-4.002-6.18-3.353-9.59z" fill="#3B8D14"/><path opacity=".3" d="M75.249 9.381s4.76-3.623 5.949-5.328c1.19-1.704-2.92 6.607-2.055 6.926.865.32 7.247 1.172 8.978 0 1.73-1.172-3.137 5.648-6.923 4.262-3.786-1.385 3.678 6.926 5.84 5.967 2.272-.852-11.573 7.246-11.79-11.827z" fill="#000"/><path d="M81.198 26.323c0 9.376-7.463 15.024-21.633 13.212-11.898-1.598-24.337 1.812-23.688-10.442.54-9.377 14.602-26.318 26.716-26.318C74.6 2.668 81.198 16.946 81.198 26.323z" fill="#D50506"/><path d="M59.24 8.315c.325.64-.324 1.705-1.514 2.345-1.082.639-2.271.532-2.596-.213-.324-.64.325-1.705 1.514-2.345 1.19-.532 2.38-.426 2.596.213zm-1.73 9.803c.216.64-.325 1.599-1.406 2.131-1.082.533-2.056.427-2.38-.213-.216-.64.325-1.598 1.406-2.13.974-.534 2.055-.427 2.38.212zm-12.656 3.73c.217.639-.324 1.598-1.406 2.13-1.082.533-2.055.427-2.38-.212-.324-.64.325-1.599 1.407-2.131.973-.533 2.055-.427 2.38.213zm13.413 5.221c.324.639-.325 1.598-1.406 2.13-1.082.533-2.055.427-2.38-.212-.325-.64.325-1.599 1.406-2.131 1.082-.533 2.163-.427 2.38.213zm11.357-7.353c.217.64-.324 1.599-1.406 2.131-1.082.533-2.055.427-2.38-.213-.324-.639.325-1.598 1.407-2.13 1.081-.427 2.055-.427 2.38.212zm-19.037-6.073c.216.64-.324 1.598-1.406 2.131-1.082.533-2.055.426-2.38-.213-.216-.64.325-1.598 1.407-2.131.973-.533 2.055-.426 2.38.213zm-2.596 17.901c.108.64-.757 1.385-1.839 1.598-1.081.213-2.163-.107-2.271-.852-.108-.64.757-1.386 1.839-1.599 1.19-.213 2.163.107 2.271.853zm20.984.213c.217.64-.324 1.598-1.406 2.13-1.082.534-2.055.427-2.38-.212-.324-.64.325-1.598 1.407-2.131 1.081-.426 2.055-.426 2.38.213zM58.483 35.06c.217.64-.54 1.492-1.622 1.918-1.082.426-2.164.213-2.38-.533-.216-.64.54-1.492 1.623-1.918 1.081-.426 2.163-.213 2.38.533zm18.605-11.934c.324.213.216 1.279-.325 2.344-.54 1.066-1.298 1.812-1.623 1.599-.324-.213-.216-1.279.325-2.345.54-1.065 1.298-1.81 1.623-1.598z" fill="#FF9E0C"/><path opacity=".4" d="M69.3 18.118c.432 5.115-3.353 8.098-10.6 8.844-7.356.746-16.334.533-16.766-4.582-.433-5.114 7.68-15.343 14.927-16.089 7.355-.64 12.006 6.713 12.439 11.827z" fill="#FF9E0C"/><path opacity=".2" d="M61.945 14.922c.216 3.09-1.947 4.901-6.382 5.327-4.327.427-9.735.32-9.951-2.77-.217-3.09 4.542-9.164 8.977-9.59 4.327-.533 7.14 3.943 7.356 7.033z" fill="#FFF7EF"/><path opacity=".2" d="M55.563 4.48s10.167 1.81 9.626 11.08c-.54 9.27-5.624 16.516-8.76 8.737 0 0 5.948-3.942 6.056-7.458.217-3.517-6.922-12.36-6.922-12.36z" fill="#000"/><path opacity=".2" d="M73.951 9.7c-.865-2.024-2.704-4.155-2.704-4.155-.325-.213-.65.32-1.082 1.279-2.488-1.492-4.867-2.131-6.273-1.705 0 0 2.812 1.918 5.192 5.008-.866 3.09-1.623 7.032-2.056 9.59-.432 2.877 1.298 4.901 3.462 5.327l-.974 1.279c-9.194 11.081-31.368 5.54-31.692 1.065-.433-4.475-4.976 7.672 6.706 10.869 3.894 1.065 8.545-.96 13.737 0 9.843 1.918 21.958.426 22.715-10.016.757-8.205-2.813-14.598-7.031-18.54z" fill="#000"/><path opacity=".2" d="M45.72 15.774s.973 1.812 2.271 2.131c1.298.32 5.3 6.82 1.623 10.336-3.678 3.516-8.005-.853-7.355-2.558.757-1.598.54-9.163 3.46-9.909z" fill="#000"/><path d="M44.53 16.84s2.38-2.345 4.002-2.664c1.623-.426 6.274 1.811 8.004 4.049 1.73 2.237.866 2.024.433 3.303-.433 1.172-1.406 4.049 2.055 4.688 3.461.64 6.274-6.82 5.516-12.786-.865-6.18-12.98-14.704-16.224-4.262 0 0 4.326-2.344 6.814-1.066 2.488 1.279 5.084 7.246 4.11 7.992-.973.64-4.543-6.18-9.302-5.648-4.76.533-8.112 3.09-8.112 4.902 0 1.811-5.192.533-4.327 7.672 0 0 2.488-1.172 3.353.106.866 1.172.974 5.754 5.409 5.221 4.542-.533 5.408-8.204-1.731-11.507z" fill="#511F14"/><path d="M56.536 4.267s9.086 1.172 10.276 5.54c1.19 4.476-1.19 10.87 1.947 13.107 3.137 2.13 5.84-.427 5.3-5.434-.54-5.008-2.704-6.5-2.596-10.336.108-3.836-5.084-7.565-9.735-5.86-4.76 1.598-5.625 2.344-5.192 2.983z" fill="#511F14"/><path opacity=".3" d="M56.428 3.84s10.6.32 11.357 6.287c.758 5.967 1.515 8.204 2.38 7.458.973-.745.433-4.794.54-7.245 0-1.918-1.08-7.459-1.946-8.098-.865-.533 2.596.533 2.704 5.434.108 4.902 2.271 3.943 2.704 10.336.433 6.393-4.218 5.327-4.76 5.008-.54-.32-2.27-1.066-2.27-7.14 0-5.86.648-9.482-10.709-12.04z" fill="#070001"/><path opacity=".3" d="M57.51 5.119s6.382 5.114 5.408 10.016c-.974 4.901-2.38 3.09-3.353 2.45-.974-.639-5.625-3.835-6.274-3.516-.649.32 5.192 4.05 5.192 5.434 0 1.386-1.947 2.877-1.73 3.943.216 1.065 1.622 3.516 3.677 1.918 2.055-1.599 8.762-13.213-2.92-20.245zM42.907 15.774s3.678-3.41 6.707-2.344c2.92.959-.758-.64-2.92 1.385-2.164 2.025-4.652 1.705-3.787.96zm-.54 4.795c-.866 4.688 4.975 8.311 6.49 5.221 1.514-2.983-5.084-12.786-6.49-5.221z" fill="#070001"/><path opacity=".2" d="M68.975 7.143c-.108.746-2.92-2.877-5.3-3.303-2.38-.32-3.786-.32-3.677-1.065.108-.746 2.704-1.812 4.975-1.385 4.002.852 4.327 4.368 4.002 5.753z" fill="#fff"/><path opacity=".4" d="M66.704 4.586c0 .426-1.73-1.492-3.029-1.492-1.298-.106-2.055 0-2.055-.426s1.406-1.065 2.596-.959c2.272.213 2.488 2.131 2.488 2.877z" fill="#fff"/><path opacity=".2" d="M50.154 6.93s.541-2.13 3.137-2.344c2.596-.106 7.03 2.664 8.329 6.606 1.298 3.943-1.298 5.008-1.622 3.09-.217-1.918-2.38-5.434-4.435-6.5-2.056-1.171-6.166.533-5.409-.852z" fill="#fff"/><path opacity=".4" d="M54.914 5.971c0 .533-.758.853-1.731.853-.973 0-1.73-.426-1.73-.853 0-.532.757-.852 1.73-.852.974 0 1.73.426 1.73.852z" fill="#fff"/><path opacity=".2" d="M53.616 12.897c0 .64-2.488-.426-4.76-.426-2.271 0-4.759 1.811-4.759 1.279 0-.64 2.596-2.664 4.868-2.664 2.163 0 4.65 1.172 4.65 1.811z" fill="#fff"/><path opacity=".4" d="M51.669 12.258c0 .426-1.73 0-3.245 0-1.514 0-3.245 1.279-3.245.852 0-.426 1.73-1.811 3.245-1.811 1.514 0 3.245.533 3.245.959z" fill="#fff"/><path opacity=".2" d="M42.8 16.946c.432.533-.65.96-1.84 1.811-1.081.853-1.839 2.451-2.163 1.918-.433-.532-.324-2.13.757-2.983 1.082-.746 2.813-1.279 3.245-.746z" fill="#fff"/><path opacity=".4" d="M40.744 18.012c.217.213 0 .639-.432.959-.433.32-.866.426-1.082.213-.216-.213 0-.64.433-.96.54-.319.973-.425 1.081-.212z" fill="#fff"/></g><defs><clipPath id="clip0"><path fill="#fff" transform="translate(.29 .43)" d="M0 0h121.253v96.643H0z"/></clipPath></defs></svg>