<svg width="106" height="102" fill="none" xmlns="http://www.w3.org/2000/svg"><g clip-path="url(#clip0)"><path d="M105.404 48.536c.177 3.35-43.448 52.722-47.775 53.427C53.302 102.669.404 56.118.404 52.592c0-.177-.265-3.174.177-3.791.265-.353.971 1.763 1.413 1.322C10.118 39.984 47.12 4.366 50.652 4.366c3.974 0 43.184 31.563 52.721 41.437.618.617 1.325-1.499 1.678-1.058.353.53.353 3.527.353 3.791z" fill="#C34206"/><path d="M104.963 44.745c.177 3.35-43.183 52.457-47.51 53.075C53.126 98.525.582 52.15.582 48.713.67 45.538 46.59.84 50.565.84c4.504 0 54.31 40.555 54.398 43.905z" fill="url(#paint0_linear)"/><path d="M86.594 34.077c0 .618-7.418 9.081-8.212 9.17-.707.088-9.803-7.847-9.803-8.464 0-.53 7.948-8.288 8.566-8.288.883.088 9.45 7.053 9.45 7.582zm13.158 11.197c0 .617-7.417 9.081-8.212 9.17-.707.087-9.803-7.847-9.803-8.465 0-.529 7.948-8.287 8.566-8.287.883 0 9.45 6.965 9.45 7.582zM89.067 57.793c0 .617-7.418 8.993-8.213 9.17-.706.176-9.802-7.847-9.802-8.464 0-.53 7.948-8.288 8.566-8.288.795.089 9.36 7.053 9.449 7.582zm-15.631 8.464s5.122 3.174 4.857 4.056c-.265.881-7.86 8.992-9.537 8.551-1.678-.44-4.15-3.79-4.946-4.231-.706-.353 9.626-8.376 9.626-8.376zM59.925 76.22s6.093 3.262 5.917 4.937c-.177 1.675-8.037 10.315-10.51 9.257-2.472-1.058-9.537-6.348-9.184-7.758.53-1.5 7.418-8.64 13.777-6.436zM74.23 23.322c0 .617-8.477 9.433-9.272 9.521-.706.088-9.449-8.287-9.449-8.816 0-.53 8.213-8.376 8.92-8.376.794 0 9.802 7.053 9.802 7.67zM60.631 13.27c0 .618-7.153 8.112-7.948 8.2-.706.088-10.508-8.111-10.508-8.728 0-.53 7.24-7.406 7.947-7.406.795.088 10.51 7.318 10.51 7.935zm-10.773 9.434c0 .617-7.595 7.759-8.302 7.847-.706.088-10.155-8.64-10.067-9.257.088-.53 7.595-7.053 8.301-6.965.707 0 10.068 7.758 10.068 8.375zm-3.003 44.258s6.093 3.262 5.917 4.938c-.177 1.675-8.036 10.315-10.509 9.257-2.384-1.058-9.537-6.348-9.184-7.759.53-1.498 7.418-8.728 13.776-6.436zM24.513 49.506c0 .617-7.153 8.111-7.948 8.2-.707.087-10.509-8.112-10.509-8.729 0-.529 7.241-7.406 7.948-7.406.795.089 10.509 7.406 10.509 7.935z" fill="#C34206"/><path opacity=".6" d="M23.365 26.584S3.407 44.922 2.435 47.83c-.971 2.91 2.65 4.849 7.595 9.257 4.945 4.496 8.036 4.76 5.387 1.587-3.886-4.496-13.688-8.904-9.361-12.343 3.886-3.174 20.664-18.426 17.309-19.748z" fill="#fff"/><path opacity=".7" d="M71.228 28.876c.442.088 4.77-2.645 5.564-4.761l.088.088c2.738 2.292 7.772 6.172 12.187 9.434a76.125 76.125 0 00-2.56 2.645C82.09 40.953 79 45.186 79.53 45.715c.53.44 4.503-2.91 8.919-7.67a433.768 433.768 0 002.65-2.91c5.916 4.32 9.713 6.7 2.825.53-12.452-11.197-30.82-24.863-34.44-27.86-3.621-2.998-6.977-6.172-9.008-5.995-2.031.176-16.956 13.665-13.158 13.489 0 0 .971-.97 2.296-2.38.441.616 1.236 1.322 2.12 2.115 1.765 1.499 3.443 2.469 3.708 2.116.265-.353-.883-1.851-2.65-3.35-.794-.706-1.677-1.323-2.295-1.675 3.62-3.527 9.36-8.552 10.862-7.67 2.031 1.322 15.984 11.99 23.578 17.985.53 1.763-4.768 6.26-3.709 6.436z" fill="#fff"/><path opacity=".5" d="M102.843 45.186c-.265-.264-4.239 4.408-10.332 11.55-.795-.706-1.59-1.5-2.56-2.293-3.975-3.438-7.507-5.819-7.86-5.378-.354.441 2.56 3.527 6.535 6.965.883.794 1.766 1.499 2.649 2.204-3.003 3.527-6.358 7.494-10.156 11.814-12.186 13.93-23.313 24.862-22.872 25.303.442.44 11.657-9.61 23.755-23.54 12.187-13.93 21.283-26.272 20.841-26.625zM56.04 94.822c-.354.44-4.416-1.41-6.624-2.998-2.208-1.587-4.68-4.408-4.327-4.849.353-.44 3.62 1.587 5.828 3.174s5.475 4.232 5.122 4.673z" fill="#fff"/><path opacity=".5" d="M58.689 15.475c0 .44-5.564 6.348-6.182 6.436-.618.088-8.213-6.348-8.213-6.789 0-.44 5.652-5.73 6.182-5.73.618-.089 8.213 5.642 8.213 6.083zm13.069 11.02c0 .441-5.563 6.348-6.181 6.436-.618.089-8.213-6.347-8.213-6.788 0-.441 5.652-5.73 6.182-5.73.618-.09 8.212 5.553 8.212 6.082zm12.717 10.404c0 .44-6.005 6.612-6.535 6.7-.53.088-6.535-7.053-6.535-7.494 0-.352 5.122-5.29 5.652-5.201.53 0 7.418 5.642 7.418 5.995zm13.511 10.667c0 .441-5.828 6.789-6.358 6.877-.618.088-7.86-5.907-7.86-6.348 0-.44 6.447-6.171 7.065-6.171.53 0 7.153 5.202 7.153 5.642zm-10.862 12.52c0 .44-5.828 6.788-6.358 6.876-.618.088-7.86-5.907-7.86-6.347 0-.441 6.447-6.172 7.065-6.172.618 0 7.153 5.202 7.153 5.643zM76.35 72.781c0 .441-6.004 6.26-7.417 5.995-1.502-.264-6.977-6.083-6.977-6.524 0-.44 5.652-5.995 6.182-5.995.53.088 8.212 6.083 8.212 6.524zM63.899 84.242c0 .441-5.564 6.436-7.771 6.26-2.915-.264-8.478-5.466-8.478-5.907 0-.44 7.153-6.348 7.683-6.348.53 0 8.566 5.555 8.566 5.995zM23.188 51.357c0 .441-5.828 6.789-6.358 6.877-.618.088-7.86-5.907-7.86-6.348 0-.44 6.447-6.171 7.065-6.171.53-.088 7.153 5.202 7.153 5.642z" fill="#FFB364"/><path opacity=".15" d="M50.123 5.336c-.177-.088-.354.088-.707.44-.618.442-1.766 1.323-3.267 2.734-2.473 2.469-4.151 3.88-3.974 4.144.176.264 1.324 1.587 2.207 2.116 0 0 1.06-2.116 2.296-4.32 2.12-2.998 3.798-1.235 3.798-1.235.265.088 1.678-2.733 10.155 3.968 0 .088-7.33-6.436-10.508-7.847zm27.199 21.248c-.177-.089-2.473 1.763-3.974 3.173-2.473 2.469-4.15 3.88-3.974 4.144.177.265 1.325 1.587 2.208 2.116 0 0 .088-.265 1.324-2.469 2.12-2.997 4.063-2.645 4.063-2.645.265.089 1.148-3.438 9.625 3.174 0 0-6.181-6.171-9.272-7.493zM90.48 37.692c-.177-.088-2.473 1.763-3.974 3.174-2.473 2.469-4.857 4.937-4.68 5.202.176.264 1.06 1.498 1.943 2.027 0 0 1.06-1.675 3.444-3.967 2.296-2.292 3.532-2.204 3.532-2.204.265.088.618-3.35 9.096 3.262-.088 0-6.27-6.171-9.361-7.494zm-13.158 25.92s2.207-6.436 3.532-6.083c1.325.352 6.358 2.38 6.358 2.821 0 .44 1.855-2.557 1.855-2.557s-7.86-7.14-9.36-7.582c0 0-2.297 1.058-2.738 2.557-.442 1.41-.177 10.932.353 10.844zm-3.886 2.733s5.122 3.174 4.857 4.056c-.265.881-7.86 8.992-9.537 8.552-1.678-.441-4.15-3.791-4.946-4.232-.706-.441 9.626-8.376 9.626-8.376zm-23.932 20.19s5.21-4.409 7.507-3.086c2.296 1.322 4.68 3.35 4.062 3.88-.53.528 6.446-5.467 4.239-7.319-2.208-1.85-8.478-7.67-15.013-1.586-6.535 6.171-4.504 3.967-.795 8.11z" fill="#000"/><path opacity=".2" d="M46.855 66.874s6.093 3.262 5.917 4.937c-.177 1.675-8.036 10.315-10.51 9.258-2.472-1.058-9.537-6.348-9.183-7.759.53-1.499 7.418-8.728 13.776-6.436z" fill="#000"/><path opacity=".15" d="M24.69 49.506c0 .617-7.154 8.111-7.949 8.2-.706.087-10.508-8.112-10.508-8.729 0-.529 7.241-7.406 7.948-7.406.706.089 10.508 7.406 10.508 7.935z" fill="#000"/><path opacity=".3" d="M53.478 12.037c-.618-.353-2.207-1.058-2.56-1.058-.442 0-2.032.705-2.65 1.146-1.59 1.058-2.473 2.468-2.031 3.085.441.618 2.031.265 3.62-.793.354-.264.707-.529 1.06-.882a5.5 5.5 0 001.06.794c1.59 1.058 3.18 1.322 3.62.705.354-.617-.53-1.94-2.119-2.998zm39.74 32.003c-.442-.265-1.767-.794-2.032-.794-.353 0-1.59.53-2.03.882-1.237.882-1.944 1.94-1.59 2.468.353.53 1.59.177 2.826-.617.265-.176.53-.44.794-.705.265.265.53.44.795.617 1.237.794 2.561 1.058 2.826.53.353-.53-.353-1.588-1.59-2.381zm2.56 3.879c.265.265-.441 1.499-1.677 2.645-1.237 1.234-2.385 1.94-2.738 1.587-.265-.265.442-1.499 1.678-2.733 1.236-1.058 2.472-1.852 2.737-1.499z" fill="#fff"/><path opacity=".2" d="M84.298 61.408c0 .97-.971 1.675-2.12 1.675-1.147 0-2.119-.793-2.119-1.675 0-.97.972-1.763 2.12-1.763 1.148.088 2.12.793 2.12 1.763z" fill="#fff"/><path opacity=".3" d="M82.709 35.84c.53.53.176 1.676-.795 2.646-.971.97-2.12 1.322-2.65.793-.53-.529-.176-1.675.796-2.645.883-.882 2.119-1.322 2.649-.793z" fill="#fff"/><path opacity=".15" d="M83.504 36.458c0 .264-3.798 4.144-4.151 4.232-.353 0-4.15-4.408-4.15-4.673 0-.265 3.267-3.35 3.532-3.35.353 0 4.769 3.526 4.769 3.79zm13.423 12.166c0 .353-4.593 5.378-5.034 5.378-.442.089-6.182-4.672-6.182-5.025 0-.353 5.122-4.937 5.564-4.849.441 0 5.651 4.144 5.651 4.496zM57.805 15.563c0 .264-3.797 4.232-4.15 4.32-.353 0-5.564-4.32-5.564-4.584 0-.265 3.798-3.88 4.15-3.88.442 0 5.564 3.88 5.564 4.144zM85.446 61.32c0 .176-2.737 3.262-3.09 3.262-.265 0-3.798-2.821-3.71-3.086 0-.176 3.091-2.997 3.356-2.91.265 0 3.444 2.558 3.444 2.734zM58.865 87.152c0 .176-2.296 2.645-3.179 2.557-1.236-.089-3.444-2.293-3.444-2.469 0-.176 2.914-2.645 3.18-2.645.176.088 3.443 2.38 3.443 2.557z" fill="#fff"/><path opacity=".15" d="M104.963 44.745s-20.665 34.472-47.334 57.13c0 0-54.134-42.318-57.048-52.722 0 0 11.039 12.608 26.581 25.391 15.542 12.784 26.67 21.16 29.142 21.865 2.473.705 9.802-6.789 12.01-9.08 2.208-2.205 29.584-32.533 30.644-33.944 1.148-1.322 5.21-7.317 6.005-8.64z" fill="#000"/><path opacity=".15" d="M20.45 71.635s2.208 4.144 4.858 2.204c2.737-1.94 3.179-.793 4.592.705 1.413 1.5 10.508 8.993 19.516 5.731 9.008-3.262 20.488-2.645 23.049-4.32 2.472-1.675 14.57-23.099 4.769-37.47-9.715-14.37-60.67 30.505-56.783 33.15z" fill="#000"/><path d="M64.694 26.672c-2.473-5.82-3.798-7.582-9.626-8.993-5.828-1.322-7.86-.529-13.865.088s-5.828 8.552-15.366 12.52c-9.625 3.967-4.15 18.514-3.62 22.04.53 3.527-3.444 4.232-4.592 13.225-1.148 8.992 8.3 6.347 10.244 5.29 1.942-1.058 3.09 5.466 10.597 7.67 7.506 2.292 15.366-1.852 20.487-1.852 5.123 0 9.891-.352 13.6-3.262 3.62-2.997 6.182-9.433 6.094-26.978-.089-17.632-11.48-14.018-13.953-19.748z" fill="#6B2E26"/><path opacity=".15" d="M56.657 45.715c0 1.851-2.384 4.055-5.563 4.055-3.18 0-5.917-2.204-5.917-4.055 0-1.852 2.561-3.35 5.74-3.35 3.18 0 5.74 1.498 5.74 3.35zm6.093-11.373c.442 1.499-1.854 4.144-5.563 5.202-3.709 1.146-7.506.264-7.947-1.235-.442-1.498 2.207-3.614 5.916-4.76 3.71-1.059 7.153-.706 7.595.793zm-18.014 6.877c.441 1.498-1.855 4.143-5.564 5.201-3.709 1.058-7.506.265-7.948-1.234-.441-1.499 2.208-3.615 5.917-4.76 3.797-1.059 7.153-.706 7.595.793z" fill="#000"/><path d="M76.174 38.045c-3.003-5.995-7.948-3.615-6.358-1.587 1.148 1.41 1.942 8.11 1.854 12.784-.618-1.94-3.356-2.734-6.093-1.852-2.738.882-4.504 3.174-3.886 5.114.53 1.675 6.27 3.262 6.535 4.937.177 1.675-4.062 4.584-7.771 4.408-6.8-.353-17.132 4.937-19.693 2.38-2.561-2.556-1.678-11.02-6.005-12.254-4.504-1.323-5.299-3.968-7.507-2.38-2.207 1.674 1.06 8.022 1.502 10.226.441 2.204-4.063 4.232-6.447 8.464-2.384 4.232 4.062 3.174 5.564.705 1.5-2.557 7.241 4.056 11.215 7.318 3.974 3.35 25.345-1.852 30.29-2.733 5.034-.882 7.86-9.17 6.8-11.902-1.325-2.822 3.002-17.545 0-23.628z" fill="#5B2720"/><path opacity=".15" d="M73.083 25.79c.088 2.028-2.826 4.585-6.976 4.849-4.15.265-7.86-1.851-7.948-3.88-.088-2.027 3.09-3.878 7.241-4.143 4.15-.264 7.595 1.146 7.683 3.174zm-10.95 52.281c0 1.94-2.473 4.232-5.829 4.232-3.355 0-6.181-2.292-6.181-4.232 0-1.94 2.737-3.527 6.005-3.527 3.355 0 6.005 1.587 6.005 3.527zM21.775 53.12c0 2.117-2.12 4.673-5.033 4.673-2.826 0-5.387-2.468-5.387-4.672 0-2.116 2.296-3.88 5.21-3.88s5.21 1.764 5.21 3.88z" fill="#000"/><path d="M54.096 22.44c0 1.587-2.737.617-6.358.617-3.532 0-6.623.882-6.623-.617 0-1.587 2.914-3.88 6.447-3.88 3.709 0 6.535 2.293 6.535 3.88zM22.923 61.584c-1.854 2.028-1.766 5.82-2.737 5.378-.884-.529-2.296-4.408-.354-6.26 3.003-2.909 4.24-8.904 5.122-8.375.972.441.265 6.7-2.03 9.257z" fill="#90635E"/><path opacity=".8" d="M48.003 52.944c0 2.116-2.208 4.85-4.945 4.85-2.738 0-6.094-4.32-6.094-6.437 0-2.115 2.738-3.438 5.476-3.438 2.737 0 5.563 2.91 5.563 5.025z" fill="#90635E"/><path d="M68.403 26.055c-2.738 2.82-7.242 2.909-10.068.176-2.826-2.733-2.914-7.23-.176-10.05 2.737-2.822 7.241-2.91 10.067-.177 2.826 2.821 2.914 7.317.177 10.05z" fill="#D50506"/><path opacity=".2" d="M69.02 18.296s1.502 5.995-4.591 7.23c-3.798.793-6.447-2.204-7.507-4.144-.706-1.323-1.148 4.408 4.24 6.083 5.474 1.587 10.861-3.879 7.859-9.169z" fill="#020000"/><path opacity=".3" d="M68.49 18.825c-.97.882-1.677 1.146-3.531.617-1.943-.617-3.268-2.292-2.826-3.526.353-1.146 1.943-1.587 3.885-.97-.176-.088-.353-.176-.53-.176-2.296-.706-4.327-.441-4.768.97-.442 1.498 1.236 3.879 3.532 4.584 2.12.705 3.797-.088 4.239-1.499zm-9.272 1.058c-.618.705-1.148 1.323-1.677.97-.442-.353-.354-1.323.265-2.116.618-.705 1.5-1.058 1.942-.705.53.44.089 1.146-.53 1.851z" fill="#fff"/><path opacity=".6" d="M61.338 17.503c-.089 0-.53-.441-.53-1.058-.088-.617.265-1.146.353-1.146.088 0 0 .529 0 1.146.088.529.353 1.058.177 1.058z" fill="#fff"/><path d="M65.135 17.855s2.738-4.232 3.886-6.171c1.06-1.94 3.09-5.025 3.532-5.29.442-.353-1.06-1.322-1.236-.705-.177.529-3.003 3.967-3.798 5.907-.794 1.94-4.15 7.141-2.384 6.26z" fill="#D50506"/><path opacity=".3" d="M67.608 18.649c-.089-.353-1.237-.177-2.385-1.058.177-.265 2.65-4.232 2.826-4.497.089-.176 3.091-5.113 3.268-5.377.265-.265.53-.882.883-1.058.441-.089 0-.53 0-.53.177.177.177.441-.442.177-.618-.265-.53-.53-.53-.53-.264.09 0 .442.089.53.088.176-.177.705-.442 1.146-.176.44-2.03 3.35-2.384 3.967-.353.706-1.148 1.94-1.855 2.998-.618.793-1.5 2.116-1.854 2.557-.088-.088-.177-.177-.177-.265-.706-1.058 0-1.499 0-1.499.795-.705-3.09-.352-1.148 2.116 1.678 2.38 4.24 1.764 4.15 1.323z" fill="#020000"/><path opacity=".2" d="M71.229 6.13s-.265.793-1.06 1.851c-.795 1.058-1.943 3.086-2.208 3.703-.265.617-2.296 3.967-2.826 4.584-.353.353 1.855-2.733 2.385-4.232.176-.705.176-1.41 3.709-5.906zM65.4 22.88c-2.473 1.852-4.769 2.028-6.888-.264-3.532-3.614 1.325-7.405 1.413-6.7.088.617.088 2.116 1.59 3.703 2.384 2.292 6.093 1.587 3.885 3.262z" fill="#fff"/><path d="M55.068 80.275c-3.71-.176-6.623-3.35-6.447-7.053.177-3.703 3.356-6.612 7.065-6.436 3.709.176 6.623 3.35 6.447 7.053-.177 3.703-3.356 6.612-7.065 6.436z" fill="#D50506"/><path opacity=".2" d="M61.073 75.779s-3.268 4.849-8.036 1.322c-2.914-2.204-2.473-5.995-1.767-7.935.53-1.322-3.885 2.028-1.59 6.877 2.209 4.85 9.45 5.202 11.393-.264z" fill="#020000"/><path opacity=".3" d="M60.278 75.779c-1.236-.177-1.943-.441-2.65-2.116-.794-1.763-.352-3.703.707-4.232 1.06-.44 2.385.44 3.091 2.116-.088-.176-.088-.353-.177-.53-.883-2.027-2.384-3.35-3.709-2.82-1.324.617-1.942 3.262-1.06 5.378.972 2.115 2.473 2.733 3.798 2.204zm-6.535-5.907c-.883 0-1.678 0-1.678-.53 0-.528.795-1.057 1.678-1.145.883 0 1.678.352 1.767.97-.089.528-.884.705-1.767.705z" fill="#fff"/><path opacity=".6" d="M56.834 69.872c-.088-.088 0-.617.353-1.058.354-.441.972-.53 1.06-.441.088.088-.353.264-.795.705-.353.353-.618.882-.618.794z" fill="#fff"/><path d="M58.953 72.781s4.77-.705 6.8-1.146c2.031-.44 5.475-.97 6.005-.794.53.177.265-1.587-.265-1.322-.53.176-4.768.353-6.623 1.058-1.943.617-7.683 1.499-5.917 2.204z" fill="#D50506"/><path opacity=".3" d="M59.837 74.985c.176-.264-.707-.97-.707-2.292.265-.088 4.68-.794 4.946-.794.264 0 5.563-1.058 5.916-1.058.353 0 .972-.176 1.325-.088.353.177.353-.352.353-.352 0 .264-.265.352-.353-.177-.177-.617 0-.793 0-.793-.265-.177-.265.264-.353.44-.089.177-.618.265-1.06.442-.442.176-3.709.617-4.327.793a23 23 0 01-3.268.529c-.971.088-2.472.264-3.002.264 0-.088 0-.176.088-.352.265-1.146 1.06-.882 1.06-.882.971.088-1.678-2.38-2.296.53-.618 2.732 1.501 4.143 1.678 3.79z" fill="#020000"/><path opacity=".2" d="M71.052 69.784s-.707.352-1.943.44c-1.236.088-3.356.617-3.974.794-.618.176-4.327.882-5.034.793-.441 0 3.091-.44 4.504-.97.53-.352 1.06-.793 6.447-1.057zm1.501.53c-.088 0-.176-.177-.176-.354-.089-.176 0-.353 0-.353.088 0 .176.177.176.353v.354zm-17.132 5.817c-2.826-.529-4.415-2.116-4.15-5.025.353-4.76 6.093-3.703 5.651-3.262-.441.44-1.5 1.41-1.59 3.438-.087 3.086 2.65 5.378.09 4.85z" fill="#fff"/><path d="M22.04 45.186c2.208 2.91 1.59 7.141-1.413 9.345-2.914 2.204-7.153 1.587-9.36-1.41-2.12-2.91-1.502-7.053 1.5-9.257 2.915-2.204 7.065-1.587 9.273 1.322z" fill="#D50506"/><path opacity=".2" d="M14.269 50.828c1.236 1.675 2.56 2.645 1.854 3.174-.706.53-2.826.088-4.062-1.587-1.766-2.468-1.236-4.76-.53-5.29.795-.528 1.325 1.764 2.738 3.703z" fill="#020000"/><path opacity=".1" d="M18.86 47.566c1.59 2.028 2.209 4.32 2.915 3.703.707-.617.53-3.35-1.06-5.378-3.002-3.967-7.33-2.204-8.036-1.587-.618.617 3.62.089 6.182 3.262z" fill="#fff"/><path d="M12.503 44.04s-3.621-4.585-7.948-1.587c0 0-.972 2.91-.53 2.38 2.384-2.645 4.504-2.82 7.86.177 2.649 2.38 1.06-.53.618-.97z" fill="#D50506"/><path opacity=".2" d="M4.113 43.864s2.385-2.645 4.592-1.587c2.208 1.057 3.356 2.115 3.444 2.027.089-.088-.706-2.116-3.709-2.82-3.002-.706-4.238 2.115-4.327 2.38z" fill="#020000"/><path opacity=".4" d="M17.978 45.803c-1.06-.705-1.943-.97-1.678-1.41.353-.441 1.59-.618 2.65.088 1.5 1.058 1.677 2.468 1.324 2.91-.265.44-1.06-.794-2.296-1.588z" fill="#fff"/><path opacity=".2" d="M18.508 52.768c.441-1.058 0-2.468.53-2.292.441.176.794 1.322.353 2.38-.707 1.587-1.943 1.94-2.473 1.764-.441-.265 1.06-.618 1.59-1.852zm.882-6.788c0 1.498-1.589 2.733-3.62 2.733-1.943 0-3.62-1.235-3.62-2.734 0-1.498 1.589-2.645 3.62-2.645 2.031-.088 3.62 1.147 3.62 2.645z" fill="#fff"/><path d="M25.75 37.075c-.354 3.262-3.18 5.554-6.448 5.29-3.267-.353-5.563-3.174-5.298-6.436.353-3.262 3.18-5.555 6.447-5.29 3.179.353 5.563 3.262 5.298 6.436z" fill="#D50506"/><path opacity=".2" d="M22.128 31.697s4.063 3.086.795 7.053c-2.031 2.469-5.298 1.94-6.976 1.146-1.148-.529 1.59 3.438 5.916 1.763 4.24-1.763 4.857-8.022.265-9.962z" fill="#020000"/><path opacity=".3" d="M22.04 32.314c-.177 1.058-.442 1.675-1.943 2.204-1.59.617-3.267.176-3.62-.793-.354-.97.441-2.028 1.942-2.645a.675.675 0 00-.441.176c-1.855.706-3.003 1.94-2.561 3.086.441 1.146 2.826 1.851 4.592 1.146 1.766-.617 2.473-1.94 2.031-3.174zm-5.475 5.466c0 .794-.088 1.499-.53 1.499-.53 0-.883-.705-.883-1.499 0-.793.442-1.498.883-1.498.442.088.53.793.53 1.498z" fill="#fff"/><path opacity=".6" d="M16.742 35.135c-.089.089-.53 0-.884-.352-.353-.353-.441-.882-.353-.97.088-.088.265.353.618.705.265.353.707.53.619.617z" fill="#fff"/><path d="M19.39 33.372s-.352-3.174.177-4.937c.619-1.94 1.502-5.025 1.59-5.466.177-.441-1.501-.53-1.325-.088.177.44-1.324 4.232-1.501 6.436-.088 1.763.353 5.554 1.06 4.055z" fill="#D50506"/><path opacity=".3" d="M21.334 32.667c-.265-.177-.884.529-2.032.529 0-.265-.088-3.35-.088-3.527 0-.176 1.59-5.73 1.59-6.083 0-.264.176-.264.353-.617.177-.265-.442-.353-.442-.353.265 0 .442.177-.088.353-.53.088-.795-.265-.795-.265-.176.177.53.53.618.53.089.087-.883 2.644-.794 2.997.088.44-1.148 3.262-1.06 4.232v2.468c-.088 0-.177-.088-.265-.088-1.06-.353-.706-.97-.706-.97.088-.881-2.12 1.41.353 2.028 2.296.705 3.62-.97 3.355-1.234z" fill="#020000"/><path opacity=".2" d="M17.271 22.704s.265.706.265 1.764.354 2.997.442 3.526c.088.53.618 3.791.53 4.408-.088.353-.265-2.733-.707-3.967-.176-.529-.53-.97-.53-5.73zm.619-1.234c0 .088-.089.088-.265.177h-.354c0-.089.089-.089.265-.177a.426.426 0 01.354 0zm4.238 15.076c-.618 2.469-2.03 3.703-4.592 3.35-4.15-.529-2.914-5.466-2.56-5.113.352.352 1.147 1.322 2.914 1.498 2.737.441 4.768-1.94 4.238.265z" fill="#fff"/><path d="M62.574 29.581c.618 2.116-2.208 6.26-7.241 8.2-5.034 1.939-10.332.44-10.862-1.235-.442-1.322 2.207-6.26 7.241-8.2 4.945-1.939 10.332-.528 10.862 1.235z" fill="url(#paint1_linear)"/><path opacity=".2" d="M61.161 29.052c.265 1.234-2.472 2.998-5.74 4.408-3.444 1.41-6.976.794-7.241-.176-.177-.794 2.03-3.791 5.563-4.937 3.621-1.146 7.242-.353 7.418.705z" fill="#FFDB0D"/><path opacity=".3" d="M61.69 28.7c.09 0 .09.088.178.177-.088-.178-.177-.178-.177-.178z" fill="#000"/><path opacity=".2" d="M61.868 28.877c.706.97-1.237 5.025-6.712 7.14-3.267 1.235-7.506.883-9.449.618-1.943-.793 3.886-7.141 3.886-7.141-4.77 3.526-5.21 6.348-5.21 7.053a.387.387 0 01-.266-.088l.265.264c3.533 4.056 13.688 1.235 16.514-2.821 2.296-3.262 1.413-4.673.972-5.025z" fill="#000"/><path opacity=".4" d="M61.78 28.876c-.177.529-5.034 2.468-7.949 2.91.795-.794 2.561-2.91 3.798-2.91 1.501 0-.707-.794-2.65.97-1.236 1.146-1.678 1.763-1.854 2.027-1.325.353-3.003 1.235-4.416 2.116.442-.705.707-1.851.795-2.204.618-1.587 3.003-2.38 1.237-1.851-1.767.529-2.826 4.496-2.826 4.496-1.502.97-2.65 1.763-2.65 1.763.177.882 2.826-1.675 7.33-3.262.353.53 3.267.53 4.416.353 1.324-.176 3.708-1.675 2.914-1.41-.53.176-1.06.352-2.473.793-.971.264-2.826.176-3.886 0 .619-.177 1.325-.353 1.943-.53 6.094-1.145 6.447-3.878 6.27-3.261z" fill="#fff"/><path opacity=".2" d="M59.483 28.788c.089.529-1.677 1.41-3.797 2.116-2.208.705-4.239.529-4.327.088-.088-.353 1.501-1.764 3.709-2.38 2.208-.618 4.327-.265 4.416.176z" fill="#FFF7EF"/><path d="M24.248 13.976c-2.561 2.557-1.59 10.58 4.327 17.016 5.917 6.436 15.013 8.287 17.132 6.26 1.678-1.588 1.59-10.58-4.327-17.016-5.917-6.436-15.013-8.464-17.132-6.26z" fill="url(#paint2_linear)"/><path opacity=".2" d="M26.72 14.24c-1.412 1.588 1.237 6.084 5.034 10.492 4.062 4.585 9.802 6.348 10.95 5.025.884-.97 0-6.876-4.415-11.108-4.415-4.32-10.42-5.73-11.569-4.408z" fill="#FFDB0D"/><path opacity=".3" d="M26.279 13.27c-.177 0-.265 0-.353.09.176-.09.353-.09.353-.09z" fill="#000"/><path opacity=".2" d="M25.837 13.359c-1.854.881-2.119 8.022 4.416 15.164 3.886 4.232 10.42 6.788 13.511 7.846 3.444.353-.176-13.136-.176-13.136 4.415 8.552 2.737 12.872 2.119 13.93.265.088.442.088.442.088-.177.088-.354.088-.619.088-8.389 3.262-21.194-8.287-22.254-16.222-.794-6.083 1.59-7.406 2.561-7.758z" fill="#000"/><path opacity=".4" d="M26.014 13.447c-.177.97 5.475 7.23 9.537 9.963-.53-1.675-1.5-6.084-3.355-6.877-2.296-1.058 1.678-.53 3.179 3.35.971 2.469 1.148 3.791 1.148 4.32 1.678 1.499 3.444 3.968 4.945 6.26-.177-1.41.442-3.086.53-3.791.353-2.733-2.561-5.555-.442-3.527 2.208 2.028.707 8.552.707 8.552a71.489 71.489 0 012.56 4.585c-.97 1.058-2.913-4.497-8.3-10.051-.972.44-5.299-1.763-6.712-2.733-1.766-1.235-4.15-5.114-3.179-4.144.707.617 1.236 1.323 3.003 2.91 1.236 1.146 4.15 2.292 5.74 2.909-.795-.705-1.59-1.499-2.561-2.204-8.213-6.348-6.623-10.492-6.8-9.522z" fill="#fff"/><path d="M27.78 41.66c.618 2.115 5.299 4.055 10.51 2.997 5.298-1.058 9.007-5.202 8.565-6.877-.353-1.322-5.298-4.055-10.509-2.997-5.387 1.146-9.096 5.113-8.566 6.877z" fill="url(#paint3_linear)"/><path opacity=".2" d="M28.663 40.513c.442 1.235 3.71 1.235 7.153.617 3.71-.705 6.359-3.085 6.005-4.055-.264-.794-3.709-2.116-7.33-1.146-3.62.97-6.27 3.614-5.828 4.584z" fill="#FFDB0D"/><path opacity=".3" d="M27.957 40.425c0 .088-.089.177-.089.265.089-.177.089-.265.089-.265z" fill="#000"/><path opacity=".2" d="M27.956 40.69c-.088 1.234 3.71 3.526 9.537 2.38 3.445-.705 6.8-3.262 8.302-4.496 1.236-1.675-7.154-3.968-7.154-3.968 5.917.353 7.772 2.557 8.125 3.174l.177-.176c0 .088-.089.264-.089.353-.794 5.378-10.862 8.375-15.454 6.524-3.62-1.5-3.62-3.174-3.444-3.791z" fill="#000"/><path opacity=".4" d="M28.045 40.602c.442.352 5.564-.618 8.213-1.852-1.06-.264-3.709-1.058-4.769-.353-1.236.882.177-1.057 2.738-.617 1.678.265 2.384.53 2.65.706 1.324-.441 3.178-.617 4.856-.617-.795-.353-1.501-1.147-1.854-1.411-1.325-.97-3.798-.353-2.031-.882 1.766-.529 4.857 2.292 4.857 2.292 1.766 0 3.267.089 3.267.089.265.793-3.356.088-7.948 1.234 0 .617-2.473 2.204-3.532 2.645-1.236.529-3.974.617-3.18.352.53-.176 1.06-.264 2.473-.705.972-.264 2.473-1.41 3.268-2.116-.618.177-1.325.353-1.943.617-5.828 2.38-7.595.265-7.065.617z" fill="#fff"/><path opacity=".2" d="M29.9 39.367c.265.53 2.207.265 4.327-.264 2.208-.53 3.885-1.852 3.709-2.293-.177-.352-2.208-.705-4.416 0-2.207.706-3.797 2.116-3.62 2.557z" fill="#FFF7EF"/><path d="M56.04 40.778c.97 3.262-.884 6.612-4.151 7.582-3.268.97-6.624-.882-7.595-4.144-.971-3.262.883-6.612 4.15-7.582 3.18-.882 6.624.97 7.595 4.144z" fill="#D50506"/><path opacity=".2" d="M47.473 43.158c.53 1.852 1.413 3.086.53 3.35-.795.265-2.473-.793-3.002-2.645-.795-2.644.441-4.496 1.236-4.76.883-.177.618 1.94 1.236 4.055z" fill="#fff"/><path opacity=".2" d="M52.507 41.836c.706 2.292.618 4.408 1.325 4.055.794-.352 1.5-2.733.794-4.937-1.413-4.408-5.651-4.232-6.446-3.879-.795.264 3.179 1.146 4.327 4.76z" fill="#020000"/><path d="M48.092 36.722s-1.678-5.113-6.359-3.879c0 0-1.766 2.204-1.236 1.94 2.914-1.5 4.769-.97 6.711 2.645 1.59 2.909 1.148-.177.884-.706z" fill="#D50506"/><path opacity=".2" d="M40.938 33.99s2.914-1.5 4.504.087c1.59 1.587 2.208 2.91 2.296 2.822.088 0 .088-2.116-2.384-3.615-2.385-1.587-4.328.529-4.416.705z" fill="#020000"/><path opacity=".4" d="M46.767 42.277c.265 1.146.706 1.94.265 2.027-.53.088-1.413-.529-1.678-1.675-.353-1.587.441-2.733.883-2.821.441-.176.177 1.146.53 2.469z" fill="#fff"/><path opacity=".1" d="M51.535 42.012c.619 2.116.619 4.937-1.5 5.554-2.12.618-4.416-1.763-5.034-3.879-.619-2.116.088-4.849 2.296-5.466 2.03-.705 3.62 1.675 4.238 3.791z" fill="#fff"/><path opacity=".2" d="M50.564 46.156c.707-.794.795-2.116 1.148-1.764.353.353.265 1.411-.441 2.205-1.06 1.146-2.297 1.058-2.65.705-.265-.353 1.06-.176 1.943-1.146z" fill="#fff"/><path d="M72.023 46.861c0 3.968-3.267 7.23-7.241 7.23-3.974 0-7.241-3.263-7.241-7.23 0-3.967 3.267-7.23 7.24-7.23a7.211 7.211 0 017.242 7.23z" fill="#D50506"/><path opacity=".2" d="M61.603 46.685c0 2.204.53 3.967-.442 3.967-.971 0-2.56-1.763-2.56-3.967 0-3.262 2.03-4.937 3.002-4.937 1.06 0 0 2.292 0 4.937z" fill="#fff"/><path opacity=".2" d="M67.696 46.861c.088 2.821-.795 5.202.177 5.114.971-.089 2.649-2.557 2.56-5.378-.088-5.467-4.945-6.613-5.916-6.525-.971 0 3.09 2.293 3.179 6.789z" fill="#020000"/><path d="M64.517 39.632s-.177-6.436-5.917-6.436c0 0-2.737 1.851-2.03 1.763 3.796-.705 5.74.529 6.71 5.202.795 3.703 1.325.176 1.237-.53z" fill="#D50506"/><path opacity=".2" d="M57.364 34.077s3.797-.705 5.034 1.587c1.236 2.38 1.5 3.968 1.678 3.968.176 0 .794-2.292-1.413-4.85-2.208-2.556-5.122-.793-5.299-.705z" fill="#020000"/><path opacity=".4" d="M61.161 45.362c-.088 1.323.177 2.38-.441 2.38s-1.502-1.145-1.413-2.468c.088-1.94 1.413-2.91 1.942-2.91.619.089 0 1.411-.088 2.998z" fill="#fff"/><path opacity=".1" d="M66.636 46.773c0 2.645-.97 5.73-3.62 5.73-2.65 0-4.416-3.526-4.416-6.083 0-2.645 1.767-5.378 4.416-5.378 2.65-.088 3.62 3.086 3.62 5.73z" fill="#fff"/><path opacity=".2" d="M64.164 51.093c1.06-.617 1.59-2.116 1.942-1.675.265.44-.176 1.675-1.236 2.292-1.59.882-3.002.44-3.267-.088-.354-.353 1.236.264 2.56-.53z" fill="#fff"/></g><defs><linearGradient id="paint0_linear" x1=".629" y1="49.355" x2="105.001" y2="49.355" gradientUnits="userSpaceOnUse"><stop stop-color="#FF943F"/><stop offset=".444" stop-color="#F3902A"/><stop offset="1" stop-color="#E28A09"/></linearGradient><linearGradient id="paint1_linear" x1="53.489" y1="36.079" x2="53.552" y2="29.657" gradientUnits="userSpaceOnUse"><stop stop-color="#6F951A"/><stop offset=".489" stop-color="#7EAC24"/><stop offset="1" stop-color="#8BBF2D"/></linearGradient><linearGradient id="paint2_linear" x1="41.895" y1="29.934" x2="27.125" y2="20.667" gradientUnits="userSpaceOnUse"><stop stop-color="#6F951A"/><stop offset=".489" stop-color="#7EAC24"/><stop offset="1" stop-color="#8BBF2D"/></linearGradient><linearGradient id="paint3_linear" x1="38.882" y1="42.301" x2="35.384" y2="36.911" gradientUnits="userSpaceOnUse"><stop stop-color="#6F951A"/><stop offset=".489" stop-color="#7EAC24"/><stop offset="1" stop-color="#8BBF2D"/></linearGradient><clipPath id="clip0"><path fill="#fff" transform="translate(.404 .84)" d="M0 0h105v101.035H0z"/></clipPath></defs></svg>