<svg width="28" height="28" fill="none" xmlns="http://www.w3.org/2000/svg"><path d="M24.997 4.79c-.104-.01-.21-.01-.314 0H3.194a1.535 1.535 0 00-.406.062l11.09 11.044L24.997 4.79z" fill="#fff"/><path d="M26.133 5.919L14.959 17.047a1.535 1.535 0 01-2.164 0L1.72 6.003a1.535 1.535 0 00-.054.384v15.349a1.535 1.535 0 001.535 1.535H24.69a1.535 1.535 0 001.535-1.535V6.387a1.532 1.532 0 00-.092-.468zM4.253 21.736H3.187v-1.098l5.579-5.533 1.082 1.082-5.595 5.549zm20.422 0H23.6l-5.594-5.549 1.082-1.082 5.58 5.534.007 1.097z" fill="#fff"/></svg>