<svg width="1920" height="310" fill="none" xmlns="http://www.w3.org/2000/svg"><g filter="url(#filter0_d)"><path d="M0 0v144.721h2.204c21.306 0 29.388 12.073 33.796 16.704 11.51 11.744 21.796 27.621 42.612 27.787 25.225 0 36.49-21.336 56.082-32.087 19.102-10.585 49.714-10.254 68.082.993 17.387 10.419 26.448 29.274 49.469 31.425 8.571.827 17.388-1.158 25.959-.993 31.102.166 55.347 25.14 85.959 21.336 35.755-4.465 46.041-43.829 82.286-44.16 42.857-.496 40.408 58.219 83.51 58.55 47.265.496 45.551-74.924 90.857-76.744 21.306-.827 35.511 13.893 46.286 26.133 10.776 12.404 29.143 25.801 49.469 21.501 12.98-2.812 21.062-12.405 34.286-14.389 20.572-3.143 35.021 13.066 43.347 26.132 8.082 13.232 25.225 28.613 45.061 23.652 10.286-2.647 16.408-10.42 26.449-13.232 25.959-7.608 49.47 19.847 77.633 17.532 32.327-2.812 32.571-38.372 61.963-47.799 20.32-6.451 44.08 2.977 59.75 13.893 15.67 10.916 29.39 24.644 50.94 29.109 19.59 4.135 42.61-1.323 54.37-12.57 16.41-15.878 15.92-43.499 44.08-47.468 42.37-6.12 58.77 53.919 100.41 45.814 18.36-3.473 24.49-18.358 35.02-29.109 10.53-10.751 18.12-2.812 44.57-2.812s36.98-36.387 56.33-10.089c19.34 26.298 39.67 31.591 56.08 20.344 8.08-5.458 10.77-12.736 16.9-18.69 6.12-6.12 20.32-11.743 34.53-2.15 9.3 6.285 24.98 7.277 35.75 2.481 8.33-3.639 12.98-9.924 18.61-15.216 5.64-5.459 13.96-10.586 23.76-10.42 6.37.165 12.24 2.481 17.63 4.796 20.33 8.435 42.12 16.87 65.88 17.036 5.63 0 11.26-.331 16.9.496 18.85 2.977 27.18 19.517 46.04 22.659 15.43 2.481 30.36-5.293 39.92-13.893 8.81-7.939 17.87-18.028 32.57-18.69 6.36-.165 12.73 2.316 19.1 1.985 29.39-.827 20.57-19.682 43.59-19.682h1.96V.166H0V0z" fill="#E49C6B"/></g><path d="M0 0v139.794h2.204c21.306 0 29.388 11.663 33.796 16.136 11.51 11.343 21.796 26.681 42.612 26.841 25.225 0 36.49-20.61 56.082-30.995 19.102-10.225 49.714-9.905 68.082.959 17.387 10.065 26.448 28.278 49.469 30.355 8.571.799 17.388-1.118 25.959-.958 31.102.159 55.347 24.284 85.959 20.609 35.755-4.313 46.041-42.337 82.286-42.657 42.857-.479 40.408 56.237 83.51 56.557 47.265.479 45.551-72.374 90.857-74.131 21.306-.799 35.511 13.42 46.286 25.243 10.776 11.982 29.143 24.923 49.469 20.769 12.98-2.716 21.062-11.982 34.286-13.899 20.572-3.036 35.021 12.621 43.347 25.242 8.082 12.782 25.225 27.64 45.061 22.847 10.286-2.557 16.408-10.065 26.449-12.781 25.959-7.35 49.47 19.171 77.633 16.935 32.327-2.716 32.571-37.066 61.963-46.172 20.32-6.231 44.08 2.875 59.75 13.42 15.67 10.544 29.39 23.805 50.94 28.118 19.59 3.995 42.61-1.278 54.37-12.142 16.41-15.337 15.92-42.018 44.08-45.852 42.37-5.911 58.77 52.083 100.41 44.255 18.36-3.355 24.49-17.734 35.02-28.119 10.53-10.385 18.12-2.716 44.57-2.716s36.98-35.148 56.33-9.746c19.34 25.403 39.67 30.516 56.08 19.652 8.08-5.273 10.77-12.302 16.9-18.054 6.12-5.911 20.32-11.343 34.53-2.077 9.3 6.071 24.98 7.03 35.75 2.397 8.33-3.515 12.98-9.586 18.61-14.699 5.64-5.272 13.96-10.225 23.76-10.065 6.37.16 12.24 2.397 17.63 4.633 20.33 8.148 42.12 16.296 65.88 16.456 5.63 0 11.26-.319 16.9.479 18.85 2.876 27.18 18.853 46.04 21.888 15.43 2.397 30.36-5.112 39.92-13.42 8.81-7.669 17.87-17.414 32.57-18.053 6.36-.16 12.73 2.236 19.1 1.917 29.39-.799 20.57-19.012 43.59-19.012h1.96V.16H0V0z" fill="#fff"/><defs><filter id="filter0_d" x="-50" y="-25" width="2020" height="335" filterUnits="userSpaceOnUse" color-interpolation-filters="sRGB"><feFlood flood-opacity="0" result="BackgroundImageFix"/><feColorMatrix in="SourceAlpha" values="0 0 0 0 0 0 0 0 0 0 0 0 0 0 0 0 0 0 127 0"/><feOffset dy="25"/><feGaussianBlur stdDeviation="25"/><feColorMatrix values="0 0 0 0 0 0 0 0 0 0 0 0 0 0 0 0 0 0 0.2 0"/><feBlend in2="BackgroundImageFix" result="effect1_dropShadow"/><feBlend in="SourceGraphic" in2="effect1_dropShadow" result="shape"/></filter></defs></svg>