<svg width="320" height="119" fill="none" xmlns="http://www.w3.org/2000/svg"><path d="M264.604 119h5.071c-.31-.312-.517-.52-.724-.624-1.967-1.249-3.933-2.394-5.9-3.746-7.97-5.307-13.767-12.487-17.907-21.124-2.588-5.515-4.555-11.238-5.279-17.274a62.984 62.984 0 01-.311-12.486c.207-3.018.621-6.036 1.346-9.053.104-.417.207-.729.414-1.353.207.416.414.728.518 1.04.621 1.457 1.345 2.914 2.277 4.267.414.52.724.936 1.138 1.456 2.278 2.498 5.072 3.226 8.281 1.978 1.242-.417 2.484-.937 3.726-1.457 2.692-1.249 4.969-.729 6.832 1.665.621.728 1.242 1.456 1.967 2.08.828.73 1.863 1.354 2.794 2.082-.31 1.249-.724 2.393-1.035 3.642-.621 3.018-.517 6.035.414 8.845 1.242 4.058 3.002 8.012 5.383 11.55 3.933 5.723 9.419 8.95 16.251 9.47 6.314.52 11.696-1.77 16.044-6.452 1.345-1.457 2.38-3.226 3.519-4.787.31-.416.517-.728.724-1.248.311.312.518.624.725.832.518.52.932 1.145 1.553 1.665 1.759 1.56 3.933 2.081 6.21 1.353a79.122 79.122 0 002.691-.937c1.553-.52 3.106-.728 4.762-.52 1.345.104 2.588.624 3.519 1.56.518.417.932.937 1.346 1.458 1.138 1.144 2.173 2.393 3.416 3.642a4.898 4.898 0 01-.518 1.04c-2.381 4.579-5.796 8.325-9.73 11.655a56.12 56.12 0 01-14.284 8.74c-.414.209-.932.417-1.346.625 0 0 0 .104-.103.208.31 0 .621.104.931.104h6.832c.621 0 1.139-.104 1.76-.416 6.314-3.538 12.007-8.013 16.354-13.84 4.14-5.619 6.728-11.967 8.074-18.73 1.035-4.995 1.656-10.094 1.656-15.089.103-8.844-1.346-17.377-5.486-25.39-7.453-14.36-21.737-23.517-35.4-25.494-4.969-.728-10.041-1.144-15.112-.832-4.969.312-9.834 1.353-14.595 2.705-5.486 1.665-10.765 3.642-15.734 6.452-4.657 2.601-8.901 5.827-12.524 9.781-4.658 4.995-7.349 11.03-8.902 17.586-1.035 4.787-1.242 9.573-1.242 14.36.104 9.157 2.691 17.482 6.935 25.494 4.658 8.845 11.386 15.921 19.563 21.54 1.242.728 2.174 1.353 3.106 1.977zm73.18-64.62c.414 0 .414.417.518.625.724 2.601 1.138 5.203 1.449 7.908v.52h-.207c-.621-3.017-1.139-6.035-1.76-9.053v-.52h.104c0 .208 0 .416-.104.52zm-80.012-4.89l-2.795-2.498c-.31-1.248-.517-2.497-.828-3.746.207 0 .311 0 .414.104.828.833 1.76 1.665 2.484 2.394.311 1.04.518 1.873.725 2.705v1.04zm-2.484-9.47c-.414-.416-.725-.832-1.449-.728.724.728 1.345 1.457 2.07 2.081.207.937.517 1.77.621 2.81-1.035-.937-1.967-1.77-2.795-2.706-.31-1.769-.931-3.434-1.035-5.203.518-.416 1.035-.832 1.656-1.248.518 1.56.828 3.017 1.139 4.578 0 .104-.207.208-.207.416zm2.484 13.736c.207-.312-.104-.52-.311-.728a13.119 13.119 0 00-1.345-1.145c-.207-1.04-.518-2.081-.828-3.538 1.242 1.04 2.173 1.873 3.105 2.706.621 2.08 1.139 4.266 1.76 6.451l-2.485.312c-.414-1.56-.931-3.017-1.138-4.682.621.312.931.416 1.242.624zm9.523-11.758c-.828-.105-1.139-.833-1.863-1.353-.311-1.77-.621-3.642-.932-5.515-.31-1.873-.828-3.746-.828-5.62.725-.312 1.346-.728 2.07-.832.621 2.914 1.035 6.972.828 7.909-.517-.105-.828-.729-1.656-.52.828.728 1.449 1.248 2.174 1.872-.104 1.457 0 2.81.207 4.059zm-15.527 7.075c1.45.833 2.485 2.082 3.83 3.122.414 2.081 1.139 3.954 1.449 6.035-.828.313-1.656.625-2.484 1.041-.103-.312-.207-.416-.31-.624-.828-2.914-1.553-5.724-2.381-8.637-.104-.312-.104-.624-.104-.937 0-.104-.103-.104-.103-.104h.103v.104zm80.53 31.946c-.103-.208-.31-.52-.414-.728-.517-2.498-1.138-4.995-1.656-7.597-1.035-5.619-2.277-11.238-3.105-16.96-.828-5.1-1.242-10.303-1.863-15.401-.207-1.77-.207-3.642-.311-5.515 0-.104.104-.104.207-.209.104.105.311.209.518.313.103.104.207.312.414.416 0 .416 0 .832.103 1.248.104 5.516.621 10.927 1.346 16.442.828 7.075 2.174 14.151 3.726 21.123.311 2.29 1.035 4.475 1.035 6.868 0 .312.104.52.207.832h-.207v-.832zm-60.966-18.73c-.518-3.122-1.035-6.348-1.45-9.574.622-1.352 1.243-2.705 2.071-4.474.724 3.85 1.345 7.284 1.966 10.718a127.874 127.874 0 01-2.587 3.33c-.518.728-1.035 1.56-1.553 2.289-1.656-.833-2.381-1.249-3.209-2.393-.517-.625-1.138-1.25-1.345-1.977-.725-2.602-1.243-5.203-1.76-7.805.207-.208.414-.416.517-.624-.31-.52-.621-.937-.931-1.353-.104-.728-.311-1.56-.518-2.393.725 0 1.035.936 1.967.624-.828-.832-1.553-1.56-2.381-2.497-.207-.729-.31-1.665-.517-2.602.31.104.414.209.517.209l2.899 2.913c.414.416.621.937.724 1.457.414 2.081.828 4.058 1.242 6.14.518 2.497 1.139 5.098 1.656 7.596.104.52.311 1.04.518 1.456.103-3.017-.725-5.931-1.139-8.845a5.034 5.034 0 001.139-.416c.103.416.207.729.207 1.04.414 1.978.828 3.85 1.242 5.828.104.416.414.937.725 1.353zm20.08-6.244c.725.104 1.967.104 3.209.312 6.832 1.353 11.49 5.307 13.456 12.175.414 1.665.621 3.33.621 4.995 0 8.325-3.726 14.88-10.04 19.875-2.588 2.081-5.797 3.017-9.212 2.81-2.485-.105-4.865-.729-7.142-1.874-.725-.416-1.553-.832-2.174-1.352-4.658-3.85-7.867-8.637-9.419-14.568-.621-2.394-.725-4.683-.207-7.076 1.138-5.932 4.554-10.198 9.936-12.903 3.209-1.561 6.728-2.29 10.972-2.394zM329.4 88.72c0-.208-.207-.52-.207-.832l-1.553-7.492c-.31-1.353-.621-2.81-.207-4.163.104-.208 0-.416 0-.624-.103-2.497-.103-5.099-.207-7.596 0-.416 0-.937-.414-1.145-.724-.312-.931.416-1.449.625-1.656-5.828-3.83-31.322-2.898-35.172.518.416 1.035.833 1.553 1.145.103 1.665.207 3.226.31 4.786.207 6.14 1.035 12.28 1.967 18.315 1.656 9.989 3.83 19.874 6.21 29.656.518 2.185 1.035 4.37 1.657 6.868a200.117 200.117 0 01-4.762-4.37zm-12.835.416c-1.76-7.388-4.451-34.234-3.933-38.813 1.552-1.04 2.38-1.353 3.622-1.457.311 13.32 1.657 26.535 3.727 39.646-1.346.624-2.07.833-3.416.624zm19.667 3.33c-.828-2.497-1.346-4.994-1.967-7.388.311-.416.621-.728.932-1.248v-1.665c-.104-1.249-.207-2.394-.414-3.642-.311-1.977-.725-3.955-1.139-6.036-.104-.624-.311-1.248-1.139-1.352-.621.624-.621.624-.931 1.665-.932-4.059-1.656-8.117-2.277-12.071-.621-4.058-1.035-8.117-1.553-12.279-.725-5.41-.932-10.822-.518-12.175.518.625 1.036 1.145 1.553 1.665.621 8.429 1.967 16.754 3.519 24.974a380.723 380.723 0 005.486 24.454c-.31 1.664-.724 3.33-1.552 5.098zm1.863-7.284c-.414-1.769-.932-3.434-1.242-5.203-2.277-10.093-4.348-20.187-5.693-30.384-.414-2.81-.621-5.62-.932-8.429v-1.457c.932.833 1.346 1.561 1.449 2.602.621 5.827 1.553 11.654 2.899 17.377 1.449 5.828 3.001 11.655 4.554 17.586.31 1.04.517 2.081.207 3.122-.104.312-.104.624-.104.936-.414 1.249-.414 2.602-1.138 3.85zm-16.976 3.122c-.621-.728-.931-1.457-1.035-2.29-.103-.936-.31-1.768-.414-2.705-.621-5.307-1.138-10.718-1.759-16.025-.104-1.04-.104-2.08-.104-3.121 1.346-.417 1.346-.417 2.691-1.561.932 8.428 1.967 16.857 2.899 25.39-.725 0-1.45.208-2.278.312zm1.553-30.697c.621 3.85 1.242 7.7 1.967 11.55.207 1.457.31 2.81.103 4.267a22.746 22.746 0 000 3.746c0 .52.207 1.04.518 1.353.207.312.724.416 1.242.624.31 1.457.621 3.018.931 4.579.311 1.56.829 3.017.932 4.682-1.449-.208-2.691-.416-4.037-.624-.103-.416-.207-.833-.207-1.249-.414-3.434-.828-6.972-1.242-10.406-.517-4.786-.828-9.469-1.346-14.255-.207-1.561.414-2.914 1.139-4.267zm17.079 18.73c-1.967-3.954-7.453-29.864-6.935-33.194.931 1.353 1.656 2.602 2.381 3.85.517.937.828 1.977 1.035 3.018 1.138 5.931 2.277 11.863 3.519 17.794.311 1.665.621 3.33.414 4.995-.31 1.04-.31 2.08-.414 3.537zm-34.054-52.028c-.518 11.342-.104 22.476.517 33.818-.828-.52-1.345-.936-1.967-1.56-.31-5.62-.517-11.239-.828-17.066.311 0 .518.104.725.104.207 0 .414.104.725.104-.104-.312-.104-.416-.104-.52l-1.242-1.873c-.414-4.37-.518-12.279-.207-13.528.724.209 1.449.313 2.381.52zm6.831 21.852c-.103-.312-.103-.52-.103-.833 0-5.93.103-11.862.207-17.793 0-.313.103-.52.31-.937 1.242.624 2.381 1.249 3.623 1.769v1.665c-.104 3.018-.207 6.035-.311 8.949v5.515c0 .416-.103.728-.103 1.145-1.346.208-2.484.416-3.623.52zm-5.486 12.903c-.724-4.058-1.035-31.946-.414-34.339.621-.104 1.242.208 1.76.416v22.373c-.828.728-1.863 1.248-1.863 2.393.207 1.145 1.138 1.457 1.863 1.873.414 5.099.414 7.908 0 9.053a7.919 7.919 0 00-1.346-1.77zm8.488 29.552c-2.174-1.248-2.691-3.642-3.519-5.723 1.035-3.434 1.345-7.076 1.035-10.614-.311-3.746-1.449-7.18-3.623-10.197-.104-3.538-.207-6.972-.311-10.406.725-.416 1.449-.729 2.278-.729.621 12.695 2.277 25.182 4.14 37.67zm-15.733-34.547c-.311-2.29-.725-13.32-.414-14.568.621.312 1.035 1.249 1.966.937.207-1.145-1.035-1.665-1.345-2.602.31-.52.621-1.04 1.035-1.56.621.832 1.138 1.56 1.656 2.184.31 5.724.517 11.343.828 16.858v.416s0 .104-.104.104c0 0-.103 0-.207.104l-3.415-1.873zm-8.281-18.21l.931 16.545c-.517 0-.931.104-1.345.104-.414 0-.828 0-1.242-.104-.518-5.41-.725-10.718-1.139-16.129-.103-.936 0-1.769-.103-2.705 0 0 0-.104.103-.104 0 0 .104 0 0 0 1.035.832 1.967 1.56 2.795 2.393zm-15.941 5.203a141.35 141.35 0 013.52 2.81c.414 1.248 1.345 9.677 1.138 10.926-1.035.52-1.966 1.144-3.105 1.56-.517-5.098-1.035-9.99-1.553-15.296zm35.918-14.984c0 .312.104.416.104.52l-.311 19.459v.104l-.207.208c-.414.104-.828.312-1.346.416h-.414c-.414-1.977-.103-19.77.414-21.54.621.416 1.243.625 1.76.833zm-50.202 15.608c-.724-2.393-1.966-8.845-1.863-10.093.828-.52 1.76-1.04 2.898-1.353.311 1.56.621 3.018.828 4.37.207 1.457.725 2.914.725 4.475-.932-.416-1.346-1.353-2.588-1.561.932 1.249 1.967 1.977 3.002 3.018.311 1.352.518 2.81.932 4.578-1.657-1.144-2.795-2.289-3.934-3.434zm24.221-4.578c.104 2.705.311 5.307.414 7.908.104 2.602.518 5.203.414 7.908-.931.209-1.759.417-2.691.625 0-1.665-.414-3.226-.31-4.89 1.449-.417 1.656-1.458 1.449-2.81-.104-.937-.311-1.77-.621-2.706a25.336 25.336 0 00-.828-2.601c0-.104 0-.208.103-.313h1.035c-.621-.728-1.138-1.248-1.759-1.873-.518-1.352-.414-2.81-.414-4.578 1.242 1.249 2.173 2.29 3.208 3.33zm-.31-14.048c0 4.266.31 8.325.31 12.695-1.242-1.145-2.277-2.081-3.312-3.122-.103-3.017-.517-6.035-.31-9.157 1.035-.104 2.07-.208 3.312-.416zm-12.111 7.804c.932 1.249.725 2.498.828 4.059-.414-.313-.621-.417-.828-.625-.621-.52-1.138-1.04-1.656-1.56-.103-.105-.414-.105-.621-.209 0 .104-.103.104-.103.208 1.138 1.145 2.38 2.29 3.519 3.434.103.833.207 1.665.103 2.602-1.345-.937-2.38-1.873-3.519-2.81-.414-3.018-.828-5.931-1.242-8.949 1.242-.52 2.381-.936 3.623-1.248.414 1.56.207 3.121.517 4.474l-.621.624zm1.139 27.888c-.207-1.457-.311-2.706-.414-3.85-.414-2.706-.828-5.307-1.346-8.013-.207-1.248 0-2.393.518-3.642.828.52 1.449 1.145 2.07 1.665.207 2.081.414 4.058.725 6.035.207 1.977.414 4.059.621 6.036-.725.624-1.346 1.04-2.174 1.769zm-22.255 1.457c-.724-1.665-4.347-17.066-4.45-18.835.31-.312.621-.624 1.035-1.145.621 2.186 1.138 4.163 1.552 6.036-.207.312-.207.52-.207.416.311.833.725 1.457.828 2.185.932 3.122 1.76 6.14 2.588 9.261.104.417.207.833.311 1.353-.414.208-.725.416-1.139.52 0 .104-.311.104-.518.209zM291.93 22.85c.931-.208 1.76-.208 2.588.104 0 .416.103.728.103 1.145v6.971s0 .104-.103.104h-.207c-.621-.312-.932-1.352-1.864-1.456.414 1.56 1.76 2.393 2.381 3.85v3.954s0 .104-.103.104c0 0-.104 0-.207.104-.725-.728-1.45-1.457-2.278-2.185-.103-4.266-.414-8.429-.31-12.695zm-42.749 37.46c-.828-1.872-3.416-14.36-3.52-16.544.311-.313.621-.833 1.139-1.457.518 2.185 1.035 4.162 1.449 6.14.518 1.976.932 4.057 1.449 6.034.518 1.977 1.035 3.85 1.449 6.036-.828-.104-1.449-.104-1.966-.208zm52.686-36.732c.414 2.29.621 11.03.31 12.28-.621-.625-1.138-1.354-1.656-2.082l-1.553-2.185v-5.723c0-.937-.207-1.77.208-2.81 1.035.208 1.863.416 2.691.52zm-47.511 23.83c.311 1.144.518 2.185.828 3.642-1.552-1.25-2.795-2.29-4.037-3.434-.724-2.602-1.449-5.307-1.966-8.013l1.242-1.248c.414-.417.828-.937 1.449-1.145.725 2.29 1.967 7.596 1.863 8.637-.724-.625-1.346-1.145-1.967-1.665-.103-.104-.414-.104-.621-.208 0 .104-.103.208-.103.208 1.035 1.04 2.174 2.08 3.312 3.225zm43.37-16.65c.932 1.665.828 3.33.621 5.203-1.242-1.04-1.966-2.185-2.794-3.122-.311-4.37-.207-8.844.207-9.99.724.105 1.552.21 2.38.313v7.18l-.414.416zM256.84 41.373a132.546 132.546 0 00-1.656-6.868c1.035-.832 1.863-1.56 3.106-1.977.517 2.602 1.035 4.995 1.552 7.596-.828-.208-1.138-1.04-2.174-1.04.725 1.249 1.76 1.873 2.485 2.913.207.833.414 1.77.621 3.018-1.449-1.248-2.588-2.497-3.934-3.642zm60.553 4.058c-.414-1.664-.207-14.568.311-16.128.517.104.931.416 1.345.728.104 5.203.207 10.302.414 15.505-.828 0-1.449-.105-2.07-.105zm-29.189-22.58c1.035-.104 1.966-.312 2.898 0 0 1.977.103 3.85.103 5.723 0 1.977.414 3.85.207 5.931-1.035-.936-1.863-1.769-2.794-2.601-.104-2.914-.311-5.827-.414-9.053zm7.659 23.1c.932-1.768 1.76-3.33 2.588-4.89.414 2.393.725 11.654.414 12.695-.932-.312-1.863-.52-2.795-.833-.103-2.497-.207-4.89-.207-6.971zm24.221 10.094c-.724 1.249-1.449 2.498-2.484 4.058-.31-4.162-.414-8.012-.414-11.862.828-.104 1.449-.624 2.381-.416.207 2.601.31 5.41.517 8.22zm-45.44-24.453c0-2.081-.518-4.058-.311-6.14.932-.312 1.864-.728 2.899-.728.31 3.226.621 6.451.931 9.885a26.562 26.562 0 01-3.519-3.017zm-26.705 27.575c-.104 0-.207.104-.311.104-.517-.728-1.139-1.353-1.656-2.185-1.656-2.602-2.381-5.62-2.588-8.637-.103-1.249.621-2.185 1.553-3.226 1.035 4.787 1.967 9.365 3.002 13.944zm32.501-35.38c.311 1.25.725 6.14.621 7.7-.517-.311-1.035-.624-1.863-1.144.621 1.249 1.449 1.665 2.07 2.497.104.729.104 1.665.207 2.394-.517.312-.931.624-1.449.936-.31-.208-.517-.52-.828-.728-.31-3.746-.724-7.388-.931-11.238.828-.104 1.449-.208 2.173-.417zm6.935 29.032c-.31-4.89-.621-9.573-.724-14.464.621.52 1.139.833 1.553 1.25.31 4.37.724 8.636.931 13.006-.621 0-1.035.104-1.76.209zm-26.291 4.787c-.31-1.665-1.035-3.33-1.242-5.203 1.863 1.249 1.863 1.249 2.588 1.353-.725-1.457-2.277-1.977-3.209-3.226-.103-.936-.621-1.977-.621-3.226 1.346 1.353 2.588 2.498 3.726 3.746.621 2.706 1.242 5.412 1.864 8.221-1.139-.624-2.071-1.04-3.106-1.665zm60.139-26.222a183.63 183.63 0 00.931 21.435c-.31.313-.517.625-.724.937-.104.104-.207.104-.311.104-.517-2.393-1.035-21.124-.621-22.893.207.105.414.313.725.417zm-40.472 10.51c.414 2.289 0 4.786 1.76 6.66.103 1.664.31 3.433.414 5.202a5.017 5.017 0 00-.725.312c-.31.104-.517.104-.932.208-.414-4.266-.931-8.324-1.345-12.59.31.103.517.207.828.207zm12.421 10.613c-.207-2.497-.311-4.786-.414-7.18.828.313 1.553.52 2.381.833 0 1.04.103 2.08.103 3.122 0 1.04.207 2.185 0 3.433-.724 0-1.345-.104-2.07-.208zM269.675 35.13c-.931-.52-1.552-.937-2.38-1.353-.104-.937-.311-1.873-.311-2.81 0-.936-.517-1.873-.207-2.81.311-.103.518-.207.725-.311.31-.104.517-.208.931-.313.518 2.498.828 4.995 1.242 7.597zm1.243 2.393c.103-.104.207-.104.207-.208 1.138.936 2.173 1.873 3.312 2.81-.104 1.04.414 2.08.103 3.433-1.138-.936-2.173-1.769-3.208-2.497 0-1.353-.207-2.393-.414-3.538zm3.829-4.37c.104 0 .207-.104.311-.104a880.906 880.906 0 003.209 2.913c.103 1.145.207 2.081.207 3.226-1.346-1.04-2.381-2.081-3.52-3.122 0-.936-.103-1.977-.207-2.913zm-13.559 13.215c.207.832.414 1.665.517 2.601-1.552-.936-2.691-2.185-3.933-3.434-.207-.832-.414-1.768-.621-2.601.103 0 .207-.104.207-.104a61.658 61.658 0 013.83 3.538zm25.463-15.713c.414.416.725.833 1.139 1.249.103 1.977.207 3.954.414 5.931-.725-.208-1.036-.624-1.553-1.144-.207-1.873-.207-3.955 0-6.036zM267.398 43.35c.828 3.226.828 4.683-.207 6.66-.31-.624-.31-1.145-.31-1.77.207-.103.414-.103.724-.207-.414-.625-.828-1.145-1.242-1.77-.207-1.248-.621-2.705-.621-4.37.621.625 1.139 1.041 1.656 1.457zm.518-4.058c.103 0 .207-.104.31-.104.828 1.04 2.485 1.457 2.588 3.122-.414.624-.724 1.248-1.139 1.977-.414-.416-.828-.625-1.138-.937l-.621-4.058zm1.966-3.018c.208 1.145.311 2.29.518 3.85-1.035-.832-1.863-1.456-2.484-2.08-.207-1.145-.414-2.186-.311-3.33.932.208 1.449.936 2.277 1.56zm5.279 1.353c.104 0 .207-.104.311-.104 1.139 1.04 2.174 2.081 3.312 3.122.104.624.207 1.248.311 2.185a223.572 223.572 0 01-3.623-2.914c-.104-.728-.207-1.456-.311-2.289zm12.007-14.776c.104 2.705.415 5.099.415 7.7-.415-.312-.829-.416-1.139-.728-.104-2.185-.104-4.475-.207-6.764.31-.104.517-.104.931-.208zm7.764 16.545c-.414.52-.828 1.04-1.242 1.457-.311.416-.622.936-1.036 1.56-.31-2.393-.31-4.682 0-5.514.725.936 1.45 1.769 2.278 2.497zm40.575 54.838c-.724-1.144-2.691-9.053-2.898-11.55 1.656 3.746 2.174 7.388 3.209 11.03 0 .104-.207.208-.311.52zm-38.091-57.44c-.518.625-.828 1.25-1.656 1.562 0-.625-.104-1.25-.104-1.77s-.207-1.144.207-1.872c.518.728 1.035 1.352 1.553 2.08zm-17.7 3.33c-.207-1.04-.414-1.977-.207-3.121.31.312.517.52.724.624.104.937.207 1.977.414 3.122-.414-.312-.724-.52-.931-.625zm20.598-4.89h-1.138v-1.457c.414.52.724.832 1.138 1.457zm-31.467 9.677h.207c0 .208 0 .416-.103.624h-.207c0-.208.103-.416.103-.624zM17.313 23.221c-.226.15-.465.363-.691.514-2.815 1.652-3.925 4.236-4.156 7.324-.064.64.01 1.243.01 1.896-1.006.776-1.674 1.817-2.29 2.933-1.587 2.684-3.312 5.405-4.547 8.29-1.626 3.852-3.24 7.64-4.502 11.63-.391 1.293-.858 2.635-.936 3.99-.167 2.122.295 4.044 1.51 5.79 1.314 1.899 2.554 3.847 4.02 5.645 1.878 2.338 3.984 4.526 5.963 6.689 1.228 1.358 2.695 2.502 4.25 3.535 2.659 1.712 5.317 3.424 8.177 4.784 1.97.92 3.952 1.45 6.11 1.756 1.783.229 3.466-.02 5.011-.883a62.516 62.516 0 004.324-2.654c.98-.65 1.847-1.39 2.778-2.116 4.236-3.52 8.686-6.802 13.06-10.034 1.76-1.277 3.407-2.643 5.054-4.008l.302-.2c.828.101 1.581.253 2.36.28 3.364.156 6.13-1.898 7.051-5.173.442-1.543.508-3.163.435-4.744-.036-.791.153-1.406.782-1.932 1.911-1.704 2.618-3.913 2.597-6.398a21.492 21.492 0 00-1.055-6.744c.352-.451.692-.84.969-1.24.503-.879.693-1.82.695-2.8a12.673 12.673 0 00-.346-3.138c-.698-3.014-1.836-5.79-3.476-8.342a14.975 14.975 0 00-1.566-1.949c-.438-.415-.965-.717-1.542-1.095.114-.238.29-.464.466-.69 1.02-1.818 1.676-3.775 1.328-5.935-.087-.54-.174-1.08-.411-1.52-.851-1.608-1.916-3.129-3.219-4.437-3.384-3.295-9.134-3.28-12.628-.524-.24.213-.466.363-.704.576-3.172-2.403-9.085-2.551-12.402-1.327-.351.125-.703.25-.992.388-.513-.692-.889-1.42-1.503-1.936-1.642-1.572-3.65-2.304-5.947-1.919-1.281.199-2.324.837-3.104 1.79a14.847 14.847 0 00-1.46 2.056c-.416.765-1.032 1.229-1.898 1.315-.665.062-1.356.249-2.034.373-1.646.387-2.877 1.314-3.759 2.768-.956 1.505-1.474 3.099-1.69 4.818-.215.74-.33 1.632-.394 2.598zm46.25-7.841a.9.9 0 00.213.239c.05.075.1.15.163.163.2.302.338.59.538.892.99 1.571 2.04 3.155 3.03 4.726-.05.25-.151.426-.19.615a.483.483 0 00-.238-.114c-1.051-1.91-2.115-3.757-3.166-5.667-.037-.138-.012-.264-.037-.465a295 295 0 01-.15-.226s-.05-.075-.163-.163zm3.423 2.127l.063.013-.063-.013a.885.885 0 00-.213-.239l-2.053-3.091c.125.025.264-.013.314.063a7.477 7.477 0 011.753 2.64c.05.075-.051.25-.064.313.1.15.15.226.263.314zm-4.512 3.269a.9.9 0 00.213.239l.15.226c.05.076.113.088.226.176l.15.226c.075.277.476.554.275.905.138-.038.25.05.213.239.05.075.1.15.163.163l.15.227.15.226.15.226c.402.277.514.691.626 1.106-.326-.327-.651-.654-.626-1.106l-.15-.226-.15-.226-.15-.227c-.05-.075-.1-.15-.163-.163a.882.882 0 00-.213-.24c-.075-.276-.2-.627-.275-.904a295 295 0 00-.15-.226c-.05-.075-.1-.15-.226-.176a295 295 0 01-.15-.226.882.882 0 01-.213-.239c-.063-.013-.05-.075 0 0zm-7.38-1.293l.15.226.15.226.151.226.15.227.15.226c.114.088.302.126.34.264 1.126 1.534 2.24 3.13 3.368 4.663.1.151.138.29.225.503-.326 0-.577-.051-.765-.09-1.077-1.784-2.116-3.43-3.143-5.14-.05-.075-.024-.2-.075-.276l-.15-.226-.15-.226a295 295 0 00-.3-.452l-.1-.151zm6.727 1.618c-.038.189.087.214.225.176a.485.485 0 00-.225-.176c-.05-.075-.1-.15-.213-.239-.301-.452-.539-.892-.84-1.344a.489.489 0 01-.062-.34c.376.403.677.855.915 1.295.05.076.012.264 0 .327l.2.301zm.023.854l.15.226.15.226.15.227.151.226c.138.289.288.515.488.817l.501.754c.15.226.363.465.3.779-.589-.642-.964-1.37-1.327-2.162l.038-.188a295 295 0 00-.15-.226l-.15-.227-.15-.226c.012-.063-.1-.15-.15-.226zm-.803.099l.15.226.15.226.15.227.15.226.15.226.064.013-.063-.013-.15-.226a295 295 0 01-.15-.226l-.151-.227-.15-.226c-.038-.138-.088-.213-.15-.226l-.15-.226a63.877 63.877 0 00-1.729-2.439l-.05-.075.075-.05c.063.012.189.038.239.113.5.754.939 1.496 1.427 2.313.05.075-.038.188-.05.25.288-.137.276-.074.238.114zm-1.585 1.378c.05.076.163.164.213.24.05.075.025.2.075.275.05.076.113.088.163.164.05.075.1.15.075.276l.15.226.15.227.15.226.15.226.151.226.15.227.15.226.063.012-.15-.226-.15-.226a295 295 0 00-.15-.226l-.15-.226-.15-.227-.151-.226a295 295 0 01-.15-.226c-.05-.075-.1-.15-.088-.214-.05-.075-.1-.15-.226-.176-.05-.075-.037-.138-.074-.276l-.2-.302c-.05-.075.012-.063 0 0zm-.954-.127l.063.013c.013-.063-.05-.076-.063-.013a295 295 0 01-.15-.226c-.1-.151-.188-.365-.3-.453-1.49-1.998-3.031-4.072-4.522-6.071-.213-.239-.35-.528-.563-.767.1-.175.201-.351.377-.577.213.24.364.465.526.629.752 1.131 1.516 2.2 2.267 3.33.701 1.056 1.34 2.1 2.04 3.155.151.227.377.403.238.766-.063-.012.037.139.087.214zm2.747 1.6l.15.225.15.227.15.226c-.012.063.05.075.05.075l.014-.063-.15-.226-.151-.226a.87.87 0 01-.213-.239l-.15-.226c-.213-.239-.426-.478-.577-.704-2.154-2.916-4.233-5.883-6.387-8.799a3.523 3.523 0 00-.476-.553c.214-.414.453-.627.73-.702a.882.882 0 01.212.239c2.129 3.368 4.27 6.673 6.335 10.029.1.15.075.276.113.415l.2.301zm-5.234-.6l.15.226.15.227c.402.276.402.276.451.678-.15-.226-.237-.44-.388-.666l-.15-.226c-.1-.15-.213-.239-.213-.239-.05-.075-.063-.013 0 0zm-10.09 41.586c.89.441 2.32 1.448 2.27 1.7-.214.087-.44.237-.68.45-.563-.767-1.077-1.458-1.59-2.15zm16.693-48.417c.087.214.187.365.338.591 1.051 1.584 2.09 3.23 3.08 4.801.15.226.3.453.438.742-.164.162-.315.263-.403.375-.112-.088-.175-.1-.163-.163a351.424 351.424 0 01-3.14-5.793c-.1-.15-.126-.352-.15-.553zm-21.2 5.387c.425.478.462.942.436 1.394-.089.766-.166 1.469-.38 2.21-.392 1.618-1.223 3.148-1.98 4.628-.327.652-.654 1.305-.92 1.97-.567 1.518.06 2.623 1.552 2.99l.44.089c1.757.354 3.502.119 5.148-.594 1.281-.525 2.4-1.214 3.48-2.04.39-.313.83-.551 1.22-.864.302-.2.59-.338 1.067-.111.339.264.514.69.613 1.168.125.678.3 1.432.36 2.097.123 1.984-.194 3.88-.7 5.736-.316 1.243-.77 2.522-1.023 3.777-.14.69-.291 1.443-.23 2.109.073 1.582 1.076 2.437 2.67 2.302a6.019 6.019 0 002.45-.812 11.376 11.376 0 002.891-2.355c1.422-1.542 2.504-3.348 3.412-5.254.352-.778.705-1.556 1.045-2.27.202-.352.416-.766.843-.94.615.189.74.214 1.292.717.765.742 1.516 1.547 2.331 2.364 1.14 1.145 2.218 2.276 3.912 2.618 1.05 2.89 1.308 5.815.512 8.789-.416 1.418-1.197 2.697-2.529 3.473-.741.438-1.082 1.153-1.196 2.044-.026.452-.065.967-.09 1.419-.04 1.167-.268 2.297-.621 3.4-.594 1.97-1.99 3.06-3.998 3.308-.478.1-.992.061-1.507.023-1.356-.078-2.635-.532-3.802-1.225-.702-.403-1.418-.416-2.196-.117-.352.125-.78.3-1.131.425-2.84 1.125-7.37.603-9.574-2.715l-.15-.227c-.564-.766-1.342-1.12-2.258-1.108l-1.582.072c-1.72.11-3.414-.232-5.045-.887-2.283-.983-4.076-2.455-5.051-4.742-.188-.364-.376-.729-.5-1.08-.4-.93-1.04-1.647-1.93-2.088-.715-.34-1.493-.693-2.208-1.033-1.555-.706-2.947-1.574-4.213-2.744-1.667-1.447-2.606-3.269-2.677-5.503-.024-.528-.061-.992-.023-1.507.103-1.48-.36-2.75-1.374-3.869-.426-.478-.865-.893-1.215-1.42-1.44-1.924-2.19-4.034-1.973-6.406.192-1.92.848-3.552 2.82-4.264l.075-.05c1.294-.588 1.961-1.629 1.989-3.06.04-.84.066-1.619.105-2.46.09-1.092.355-2.083.746-3.05.605-1.38 1.686-2.206 3.217-2.354.34-.062.666-.062 1.055-.048 1.695.015 2.826-.736 3.582-2.216.214-.414.504-.878.718-1.292 1.183-1.981 3.682-2.391 5.326-1.799 1.217.442 2.182 1.16 2.757 2.516l-.867.413c-1.445 1.014-2.565 2.356-3.233 4.05-.643 1.567-.269 2.949.859 4.156.639.717 1.467 1.145 2.37 1.523 1.092.416 2.246.519 3.414.558a7.436 7.436 0 011.468.166zm30.31 18.72c-.816.162-1.28-.127-1.732-.48a155.288 155.288 0 01-2.92-2.352c-.615-.516-1.292-1.044-1.932-1.435-1.103-.68-2.045-.543-2.963.447a15.323 15.323 0 00-1.17 1.592c-.668 1.041-1.272 2.095-1.94 3.136a18.221 18.221 0 01-2.704 3.372c-.73.702-1.584 1.378-2.514 1.778-.364.188-.729.375-1.155.224-.264-.314-.2-.628-.137-.942l.481-2.384c.367-1.82.873-3.677.99-5.547.09-1.745.055-3.515-.456-5.186-.188-.69-.437-1.394-.913-1.947-.627-.78-1.404-1.133-2.422-.946-.615.137-1.18.35-1.746.562-.791.363-1.52.738-2.249 1.113-1.382.7-2.889 1.05-4.37 1.273-.403.05-.804.1-1.231-.052-.062-.34.077-.703.14-1.017.34-1.041.681-2.082 1.085-3.111.568-1.518 1.06-2.986 1.188-4.593a8.375 8.375 0 00-.035-1.77c-.11-1.067-.687-1.771-1.804-2.062-.74-.215-1.493-.367-2.284-.657-.614-.19-1.23-.379-1.819-.694-1.354-.73-1.78-1.86-1.161-3.303.126-.301.252-.602.428-.828.667-1.04 1.56-1.905 2.653-2.469 1.03-.575 2.148-.937 3.366-1.149 2.65-.51 5.173-.066 7.707.641.427.152.929.253 1.167.693l-.945 1.768c-1.36 2.86-1.29 5.748.6 8.35 1.88 2.664 4.526 4.113 7.752 4.307 2.636.205 5.11-.406 7.347-1.783.075-.05.213-.087.289-.137.74.214.978.328 1.417.743.326.327.59.641.84 1.018 2.429 3.494 3.464 7.425 3.72 11.657.037.464-.064.966-.153 1.405-.126.301-.302.527-.415.765zm-42.07 15.607c.763 1.069 1.402 2.112 2.128 3.042.777 1.006 1.73 1.786 2.833 2.466 1.041.667 2.145 1.02 3.425 1.474-7.352 4.72-14.09 9.956-20.553 15.77a60.53 60.53 0 01-5.026-4.54c2.15-1.917 3.786-4.2 5.685-6.167 1.911-2.03 3.873-3.986 5.785-6.016s3.823-4.06 5.723-6.029zM26.91 85.041c.164-.163.176-.226.264-.338 1.949-1.566 3.91-3.195 5.922-4.748C38.275 75.972 43.516 72 48.758 68.03c.151-.1.29-.138.44-.238 1.405.48 2.861.708 4.343.484 1.545-.21 2.839-.798 4.02-1.8.74.214 1.318.592 1.882 1.032l-.717.64c-1.622 1.24-3.18 2.492-4.852 3.657-2.527 1.84-5.179 3.656-7.705 5.497a490.247 490.247 0 00-6.436 4.71c-1.609 1.177-3.268 2.279-5.027 3.23-.88.475-1.797.813-2.852.861-1.757-.028-3.313-.407-4.944-1.063zM3.094 63.909c4.57-7.763 9.894-15.048 14.314-23.037.2.628.161 1.143.123 1.657-.056 2.863.806 5.388 2.648 7.588.15.226.363.465.576.704-.251.276-.44.564-.68.777-2.138 2.507-4.339 5.001-6.49 7.571-2.478 2.896-5.006 5.716-7.096 8.952a5.906 5.906 0 01-.415.438c-1.052-1.584-2.129-3.042-2.98-4.65zm56.358-45.31c-1.18.023-2.181-1.812-1.903-2.866.316-1.242 1.196-2.044 2.828-1.715 1.317.266 2.081 1.335 1.765 2.577-.342 1.694-1.385 2.333-2.69 2.004zM12.94 62.369c.453-.627.906-1.253 1.472-1.792 1.553 2.011 3.056 3.947 4.396 6.046a31.612 31.612 0 00-1.572 1.642c-1.49-1.999-2.93-3.922-4.296-5.896zm19.95 6.638c.714.667 4.195 5.745 4.545 6.6-.54.412-1.018.838-1.659 1.1-1.452-2.186-2.842-4.36-4.282-6.61.453-.3.93-.726 1.396-1.09zm.54-.413c.528-.35.93-.726 1.458-1.077l1.24 1.621c.413.541.764 1.069 1.177 1.61.414.54.827 1.08 1.228 1.684.35.528.84 1.018 1.039 1.646-.54.413-1.018.84-1.672 1.165a475.162 475.162 0 00-4.47-6.649zm.423 9.554a2.375 2.375 0 01-.313-.39l-3.957-5.957.013-.063.025-.125c.402-.376.867-.74 1.395-1.09a115.64 115.64 0 014.496 6.523l-1.66 1.102zm-9.914-2c.651.654 3.907 5.555 4.232 6.209-.465.363-.943.789-1.533 1.127-1.415-2.049-2.768-4.085-4.183-6.134.54-.413 1.018-.84 1.484-1.202zM14.788 60c.353-.451.693-.84 1.058-1.354 1.69 1.974 3.32 3.935 4.797 5.996-.566.54-.943 1.116-1.534 1.454-1.352-2.036-2.843-4.035-4.32-6.096zm15.38 20.866a416.35 416.35 0 01-4.055-6.434c.402-.376.804-.752 1.231-.927 1.166 1.345 3.983 5.505 4.27 6.347-.452.3-.905.6-1.445 1.014zm-7.827-17.84c-.478.426-.767.89-1.195 1.065-1.515-1.873-2.918-3.658-4.384-5.456-.1-.15-.2-.302-.363-.465 0 0 .012-.063-.05-.076l.025-.125c.34-.389.642-.915 1.107-1.279 1.666 2.1 3.27 4.186 4.86 6.336zm-9.905-.105c1.566 1.949 3.082 3.822 4.397 5.72-.49.488-.843.94-1.308 1.303-1.216-1.42-3.996-5.117-4.221-5.619.352-.451.704-.903 1.132-1.404zm9.835-10.553c2.02 1.321 4.102 2.33 6.499 2.747.175.428.375.73.613 1.17-.402.375-.73.7-1.12 1.014-.389.313-.666.714-1.106.952-1.691-1.974-3.257-3.922-4.886-5.883zm9.821 27.058c-1.19-1.546-3.982-5.832-4.244-6.473.377-.25.704-.576 1.169-.94.563.767 1.077 1.459 1.515 2.2.513.692.964 1.37 1.415 2.049.438.741 1.027 1.383 1.39 2.174a9.36 9.36 0 01-1.245.99zm-17.677-35.37a399.04 399.04 0 00-3.23-5.68c.378-.577.618-1.116 1.183-1.655 1.127 1.86 2.279 3.594 3.343 5.441-.39.64-.83 1.204-1.296 1.894zm3.43 12.12c.265-.338.542-.74.882-1.128 1.779 2.187 3.507 4.3 5.085 6.512-.415.438-.679.777-1.119 1.015-1.653-2.163-3.257-4.25-4.847-6.399zm6.167 27.692c-1.076-1.784-2.053-3.418-3.08-5.127.39-.313.667-.714 1.157-.877 1.503 1.936 2.856 3.972 4.27 6.021-.25.276-.427.501-.666.715a27.664 27.664 0 01-1.68-.732zm1.812-24.188l-.188-.038c-1.716-2.175-3.432-4.35-5.211-6.537l-.05-.075s.012-.063-.038-.139c.19-.288.39-.64.705-.902 1.103 1.006 5.25 6.022 5.625 6.751-.264.338-.591.664-.843.94zm-1.61 1.504a410.498 410.498 0 00-5.022-6.5l-.05-.075.025-.125c.252-.276.327-.653.817-.815a106.576 106.576 0 015.274 6.55c-.327.326-.654.652-1.043.965zM12.482 73.378a180.472 180.472 0 00-1.529-1.81c-.476-.553-.952-1.106-1.415-1.722-.464-.616-1.078-1.132-1.466-1.798.402-.376.73-.702 1.069-1.09 1.166 1.019 4.172 4.564 4.435 5.205-.327.325-.667.714-1.094 1.215zm33.4-4.034c-1.04-.994-4.034-4.602-4.31-5.18.34-.062.616-.137.892-.212a4.44 4.44 0 01.88-.149c1.578 1.56 3.42 3.76 3.846 4.564-.453.3-.905.6-1.308.977zm-35.08-4.468c1.44 1.924 2.906 3.721 4.296 5.57-.34.388-.667.714-1.006 1.102-1.529-1.81-3.02-3.482-4.498-5.217.428-.502.767-.89 1.208-1.455zm17.822 17.18a207.736 207.736 0 00-4.158-6.259 3.165 3.165 0 011.245-.99 210.515 210.515 0 014.07 6.372c-.378.25-.692.514-1.157.877zm11.413-8.341a456.538 456.538 0 00-4.696-6.499c.377-.25.741-.438 1.055-.7.965 1.043 4.209 5.68 4.571 6.472a8.314 8.314 0 01-.93.727zm1.458-1.077c-.99-1.245-4.27-6.021-4.483-6.586.24-.213.49-.489.88-.476 1.54 2.074 3.081 4.148 4.596 6.348-.377.25-.678.45-.993.714zm1.383-1.027c-1.578-2.213-3.056-4.274-4.571-6.474.226-.15.465-.363.767-.563.476.553.84 1.018 1.265 1.496 1.203 1.484 2.393 3.03 3.595 4.513l.05.076-.025.125c-.377.25-.691.514-1.081.827zm-32.02-32.583c.978 1.307 2.955 4.776 3.18 5.605-.264.338-.416.765-.88 1.128a265.266 265.266 0 01-3.105-5.328c.29-.464.516-.941.806-1.405zM8.68 42.703c1.139 1.797 2.115 3.43 3.142 5.14-.29.463-.642.915-.944 1.442-1.027-1.71-2.016-3.28-2.992-4.914l.794-1.669zm35.73 27.78c-1.666-2.099-3.219-4.11-4.948-6.222.528-.024.917-.011 1.243-.01 1.692 1.647 4.323 4.79 4.636 5.506-.24.213-.54.413-.93.727zM8.335 53.148a860.71 860.71 0 01-2.416-3.884c.265-.664.454-1.28.845-1.919.951 1.433 1.853 2.79 2.679 4.198-.365.514-.667 1.04-1.108 1.605zm3.751-5.643c-1.064-1.847-2.078-3.62-3.054-5.253.353-.778.353-.778.818-1.14a85.398 85.398 0 013.092 5.064c-.29.464-.49.815-.856 1.329zm.092 26.401a4.405 4.405 0 00-.377.577c-.013.063-.076.05-.138.037-1.304-.981-4.412-4.35-4.812-5.28.239-.214.465-.364.717-.64a325.208 325.208 0 014.61 5.306zM6.991 46.541c.227-.477.265-.991.592-1.317.677.855 2.667 3.934 2.917 4.637-.201.352-.466.69-.755 1.154a210.488 210.488 0 00-2.754-4.474zm51.193-20.688c-.188-.038-.314-.063-.364-.139-1.89-2.602-3.77-5.266-5.66-7.868.088-.44.089-.766.29-1.117.852.955 5.109 7.692 5.734 9.124zM5.566 50.04c.902 1.358 1.653 2.489 2.392 3.683-.303.526-.605 1.053-1.095 1.542-.726-1.257-1.34-2.425-2.028-3.544.24-.54.466-1.016.731-1.68zm11.303-9.735c-.29.464-.579.928-.881 1.455-1.19-1.873-2.266-3.657-3.343-5.442.176-.225.34-.388.453-.627 1.978 3.469 2.066 3.03 3.771 4.614zm3.435 38.961c.677.855 2.104 3.168 2.366 3.808-1.041-.34-3.374-1.725-3.95-2.43.54-.413 1.031-.902 1.584-1.378zm42.305-64.34l.351.527c1.302 2.287 2.54 4.561 3.842 6.848.05.076.15.227.188.365.088.213.062.339-.214.414a192.04 192.04 0 01-3.919-6.146c-.187-.69-.199-1.28-.248-2.009zM5.314 57.76c-.39.64-.768 1.217-1.246 1.97-.438-.742-.851-1.283-1.177-1.936.178-.879.468-1.669.783-2.585.15.226.263.314.363.465.464.616.84 1.345 1.277 2.086zm58.065-45.03c.038.138.125.351.225.502 1.264 2.149 2.479 4.222 3.743 6.371.1.151.2.302.175.428.037.138 0 .326-.051.577-1.803-2.715-3.494-5.342-5.197-7.906l.013-.062.025-.126 1.067.215zM3.99 54.294c.19-.615.304-1.18.682-1.756.675 1.181 1.314 2.224 1.94 3.33-.29.464-.567.865-.92 1.317a87.781 87.781 0 00-1.701-2.89zm51.75-29.588c-.076.05-.089.113-.164.163-.176-.1-.289-.189-.464-.29-.866-.566-1.48-1.408-2.093-2.25-.55-.83-.888-1.747-.962-2.676-.037-.138.063-.313.127-.627 1.24 1.948 2.366 3.808 3.555 5.68zm6.388-6.743c1.54 2.4 3.28 5.756 3.266 6.471-.74-.867-1.315-1.898-1.904-2.865-.65-.98-1.226-2.011-1.878-2.991.177-.226.34-.389.516-.615zM3.78 60.194c-.215.414-.403.703-.592.991-.19.288-.378.577-.592.99-.311-1.368-.272-2.536.182-3.489.363.465.714.993 1.002 1.508zm55.958-39.121c1.065 1.194 2.705 3.745 3.067 4.537-.075.05-.138.037-.276.075-1.002-1.508-1.865-3.054-2.791-4.612zm1.333-8.874c.35.528.639 1.043.926 1.559-.389-.014-.614-.19-.916-.316l-.903-.378c-.313-.39-.313-.39-.425-.804.402-.05.79-.037 1.318-.06zm-4.425 3.482c-.915-.968-1.629-1.96-1.578-2.212.138-.037.29-.137.503-.225l1.202 1.81-.127.627zm.897-3.149c.54-.087.942-.136 1.343-.186.15.226.238.44.389.666-.415.112-.767.237-1.181.35l-.551-.83zm-.417 1.744c-.364-.465-.614-.842-.977-1.307.289-.138.49-.162.703-.25.15.226.313.39.413.54.1.152.188.365.276.579-.151.1-.24.213-.415.438z" fill="#D7A7A5"/><path d="M57.325 58.592c.652.328 1.241.643 1.856.832 1.82.694 3.464.307 4.835-.983 1.295-1.24 1.926-2.746 2.08-4.478.025-.452-.012-.59-.3-1.106-.302.2-.302.527-.428.828-.278.728-.568 1.518-.908 2.233-.139.364-.39.64-.58.928-1.409 1.806-3.443 2.179-5.45 1.12-.062-.012-.05-.075-.1-.15 2.099-1.34 2.64-2.08 2.303-3.323-.339.062-.59.338-.767.564-1.358 1.554-2.99 1.877-4.947.569-.752-.479-1.48-1.083-1.98-1.837-.15-.226-.35-.528-.778-.353-.214.414-.089.766.111 1.068.3.452.664.917 1.04 1.32.815.817 1.793 1.471 2.934 1.963-1.748 2.194-4.36 2.842-6.356 2.048-.539-.24-1.003-.53-1.467-.819a1.506 1.506 0 01-.651-.98l.679-.45c.527-.351.93-.727 1.232-1.254.214-.414.29-.79-.06-1.318a6.793 6.793 0 00-.805.425c-.226.15-.477.426-.766.564-1.207.801-2.462.874-3.679.106-.99-.591-1.893-1.296-2.544-2.276-.15-.227-.376-.403-.477-.553-.401.049-.502.225-.414.438.124.352.174.754.374 1.055.952 1.433 2.168 2.527 3.736 3.17.477.227 1.004.203 1.569.317a.2.2 0 00.112.088c.5 1.733 1.841 2.527 3.31 3.019 2.459.757 4.62.083 6.43-1.772.327-.326.591-.664.855-1.003zM24.933 31.093c-.506 1.857.069 3.54.832 5.262-.755.827-.782 1.932-.922 2.948-.013.39-.014.716.036 1.118.007 3.201 3.354 6.032 6.97 5.26.616-.138 1.181-.35 1.66-.776.326-.326.59-.664.365-1.167-.376-.076-.678.124-.954.2-2.425 1.012-5.022-.035-6.11-2.41-.538-1.218-.673-2.486-.533-3.829.038-.188.139-.364.177-.552.288.189.576.378.802.554.69.465 1.43.68 2.234.581.464-.037.892-.212 1.068-.764-.213-.239-.527-.302-.84-.365-1.72-.217-2.81-1.286-3.335-2.894-.337-.917-.524-1.934-.447-2.963a.485.485 0 00-.074-.276c-.44-.09-.44-.09-.93.073z" fill="#D7A7A5"/><path d="M46.467 50.263c-.276.075-.327.326-.315.59.073 1.255 2.166 3.505 4.025 3.032.828-.225 1.143-.488 1.433-1.278-.288-.19-.577-.052-.854.023-1.494.286-2.874-.319-3.65-1.65-.15-.227-.238-.44-.4-.604-.05-.075-.176-.1-.24-.113zM33.488 34.648l-.903-.378c-.903-.378-1.718-.87-2.345-1.649-.363-.465-.65-.98-.788-1.595-.025-.201-.125-.352-.212-.566-.352.125-.528.35-.466.69.05.402.15.879.261 1.294.35.854.927 1.558 1.516 2.199.488.49 1.09.743 1.73.806.653.002 1.018-.186 1.207-.8zM44.197 48.89c-.401-.276-.703-.076-1.054.049-1.206.475-2.185.147-2.886-.909-.15-.226-.313-.39-.514-.691-.113.238-.201.35-.24.54a.692.692 0 00.1.476c.475 1.206 2.457 2.39 3.99 1.59.377-.251.691-.514.604-1.054zM29.413 24.422c-.011-.916-2.262-5.942-2.95-7.06-.15-.227-.326-.327-.54-.566-.15.426-.013.715.124 1.004 1.026 2.036 1.977 4.122 3.003 6.157.1.15.263.314.363.465zm-4.486-4.954c.062.34.124.678.262.967.863 1.872 1.726 3.744 2.664 5.566.038.139.213.24.313.39.026-.125.177-.226.127-.301-.85-1.935-1.626-3.92-2.476-5.855-.125-.351-.4-.603-.601-.904-.15.1-.226.15-.289.137zm3.559-3.396c-.277.402-.227.803-.102 1.155.137.615.35 1.18.486 1.796.525 1.608.986 3.203 1.51 4.81.038.14.088.215.239.44.05-.25.151-.426.164-.489-.1-.477-.2-.954-.362-1.444-.524-1.934-1.123-3.818-1.71-5.765-.037-.138-.137-.29-.225-.503zm-5.368 4.925c-.076.376.049.728.186 1.017l2.439 5.39c.1.15.2.301.439.415-.038-.138 0-.327-.1-.477-.8-1.86-1.6-3.72-2.388-5.641-.138-.29-.288-.515-.576-.704zm7.795 7.646c-.464-.29-.878-.504-1.28-.78l-1.015-.793c-.315.59-.202 1.004.475 1.532.727.604 1.103.68 1.82.041zm11.033 15.548c.253-1.255.079-2.335-.082-3.477-.137-.942-.137-.942-.55-1.483l-.076.377.52 4.219c-.025.125.087.213.188.364zM23.628 30.112c.065-.967-.707-4.91-1.032-5.564-.227.803.445 4.27 1.032 5.564zM39.85 43.246c.141-1.343.018-2.674-.118-3.942-.025-.201-.188-.364-.325-.653-.064.313-.164.489-.14.69.123 1.33.184 2.649.32 3.917.125.025.188.038.264-.012zm-1.096 2.848c.254-1.581-.02-3.139-.03-4.708l-.188-.038c-.088.113-.164.163-.189.289-.053 1.556.183 2.975.407 4.457zm-8.31-29.692c-.05.251-.164.49-.139.69.11 1.394.284 2.8.47 4.144a.853.853 0 00.238.44c.025-.126 0-.327.026-.452l-.408-3.805-.187-1.017zm6.89 29.928c.304-1.18.017-2.348-.51-2.976-.126.627.148 2.184.51 2.976zm20.729-8.225c-.025-.2-.037-.464-.125-.678a154.149 154.149 0 00-1.648-4.773c-.125-.352-.263-.64-.69-.792-.214.414-.013.715.112 1.067.387.993.825 2.06 1.212 3.053.213.565.412 1.193.625 1.758.037.139.137.29.225.503.15-.1.213-.087.289-.138zM47.765 25.71c-.038-.139 0-.327-.05-.402-.5-1.407-.949-2.739-1.449-4.146-.137-.289-.262-.64-.701-.729.024.2.074.276.112.415.65 1.633 1.362 3.278 2.012 4.912.013-.063.076-.05.076-.05zm7.9 12.303c-.113.239-.126.302-.138.364-.013.063-.038.188.012.264.324 1.306.585 2.6.91 3.906-.013.063.112.088.225.176.038-.188.139-.364.101-.502-.248-1.356-.41-2.825-1.11-4.208zm.355-2.409c.024.854.973 4.245 1.448 5.124.202-.677-.148-1.205-.235-1.745-.137-.615-.35-1.18-.55-1.809-.15-.553-.299-1.105-.662-1.57zm2.636.531c.227-.476.026-.778-.161-1.142-.575-1.357-1.012-2.751-1.99-4.059-.15.427 0 .653.15.88.55 1.155 1.05 2.236 1.6 3.392.138.289.263.64.4.93zM44.73 24.574c-.177.226-.09.44-.015.716.35 1.18.687 2.424.973 3.592a.9.9 0 00.213.239c.051-.251.076-.377.039-.515-.136-1.268-.548-2.461-1.023-3.667.025-.126-.15-.227-.188-.365zm.555-2.108c.013.264.025.528.1.804l.898 3.316c.037.138.087.213.237.44.051-.251.152-.427.114-.565-.274-1.23-.61-2.474-.947-3.718-.113-.088-.2-.301-.401-.277zm-1.266 5.949c-.04 1.167.322 2.285.534 3.503a.486.486 0 00.176-.226c.077-1.029-.122-1.983-.447-2.963-.05-.076-.163-.164-.263-.314zm11.558 16.829c.24-.865.305-1.832.256-2.887-.252.602-.38 1.883-.256 2.887zM41.89 18.255c.215-.74.14-1.343-.11-2.047-.252.602-.203 1.33.11 2.047zm.144-3.302c0 .327-.077.703.262.967a5.856 5.856 0 01-.262-.967zm.286 1.495a4.4 4.4 0 00-.087-.54c-.038.188-.214.414.087.54zm.063.012c-.025.126-.113.239-.139.364l.126.026c-.037-.139-.012-.264.013-.39z" fill="#D7A7A5"/></svg>