<svg width="257" height="142" fill="none" xmlns="http://www.w3.org/2000/svg"><path d="M.001 92.327c.301 27.936 57.7 45.266 127.904 38.693 70.203-6.424 126.849-34.361 126.547-62.298-.301-27.937-57.699-45.266-127.903-38.693C56.345 36.602-.301 64.539.001 92.327z" fill="url(#paint0_linear)"/><path d="M135.979 128.353c66.838-7.173 118.691-34.334 115.818-60.666-2.874-26.332-59.387-41.862-126.225-34.69C58.735 40.172 6.882 67.333 9.755 93.665c2.874 26.332 59.386 41.862 126.224 34.689z" fill="#fff"/><path d="M86.174 44.222s10.244-9.711 12.353-10.607c2.11-.897 4.52-2.39 4.52-2.39l2.411 1.941 11.901-11.503s4.52 4.034 8.286.448c3.766-3.585 15.668-17.479 15.668-17.479l4.971 4.78 9.491-9.411 18.832 21.96s4.519-.447 5.273-1.643c0 0 5.875 4.183 9.491 9.263 0 0 6.93-.299 11.148 3.585 4.218 3.885 4.971 4.781 8.135 5.827 3.164 1.195 7.683 4.183 8.135 5.378H86.174v-.15z" fill="#fff"/><path d="M86.174 44.222s10.244-9.711 12.353-10.607c2.11-.897 4.52-2.39 4.52-2.39l2.411 1.941 11.901-11.503s4.52 4.034 8.286.448c3.766-3.585 15.668-17.479 15.668-17.479l4.971 4.78 9.491-9.411 18.832 21.96s4.519-.447 5.273-1.643c0 0 5.875 4.183 9.491 9.263 0 0 6.93-.299 11.148 3.585 4.218 3.885 4.971 4.781 8.135 5.827 3.164 1.195 7.683 4.183 8.135 5.378H86.174v-.15zm93.103-22.26s-2.561 1.195-3.465 1.942c-.904.747-1.356 1.344-3.465 1.643-1.958.15-.753.598-1.958.15-1.206-.3-3.465-.747-3.465-.747s0 .298-.904.298h-1.959s-.904-.597-.904 0c0 .598-.15 1.644-.15 2.241 0 .598-1.055 1.195 0 1.345 1.054.15 1.205 0 1.807 0h1.808c.302 1.046.302 1.942.302 1.942s-.603 1.046-1.206 1.942c-.602.897-2.109 2.241-2.109 2.241s-.904 1.046-1.657 1.046h-1.958c-.754 0 0-.15-1.658.299-1.657.597-.15-.3-1.657.597-1.506.897-1.054.747-2.109 1.644l-1.054.896s1.054.747 2.711-.15c1.657-.896 3.465-1.045 3.465-1.045l1.055 1.195 1.054.747s-.301 0 .904-.598c1.205-.597.151-.149 1.205-.597 1.055-.448 2.26-.747 2.863-.747.602 0 .753-.15 1.657-.15s.904-4.93.904-4.93 1.356-.896 2.109-1.045c.753-.15 1.055-.598 1.657-.897.603-.299.904-.15 1.205-.896.302-.747-.15 1.942.302-.747l.602-2.69s-1.205.3 0 0c1.206-.298.151-.298 1.206-.298h2.259s0-2.24.302-2.988c.602-.299.301-1.643.301-1.643zM155.775 2.989l-8.135 8.665v1.195l1.205.15s.151 1.194-.753 1.792c-.904.597-1.356 1.046-2.109 1.195-.753.15-1.657 1.046-1.657 1.046s-1.205.15-1.205 1.344c0 1.195-1.055 1.345-1.055 2.988s-1.205 2.092-1.205 2.092-.754.448-.754 1.344c0 .897.603 1.644.151 2.092-.452.448-.301.597-.301.597s-1.657 1.195-2.26 1.942c-.753.747-1.055 1.345-1.055 1.345s.754.747 1.356.15c.603-.598 1.206-.897 1.808-1.046.603-.15.753-.3 1.205-.3h.603s1.055.599.904 1.047c-.151.597.151.298-.301 1.195-.603.896-1.658 2.54-1.658 2.54l-.903 1.643s.15.299 1.054-.299l.904-.747s1.055-1.195 1.657-1.344c.603-.15-.602-.15.603-.15s0-.747 1.054 0l1.055.747 1.054-2.091s-.301-.598 0-1.046c.302-.448.754-1.643 1.808-1.942l1.055-.3s1.356-.148 1.356-.746 0-1.195-.603-1.793c-.602-.597-1.054-.747-1.205-1.793-.151-1.045-.603-1.195-.753-2.091-.151-.896-.603-.896-.151-1.793.452-.896-.904.15.301-.896 1.206-1.046 1.206-1.345 1.959-1.793.753-.448 2.109-1.942 2.109-1.942s.151-.747.151-2.24c0-1.495.15-2.84.15-3.736 0-.896.151-2.54.151-2.54s1.054-1.195 1.808-1.942c.753-.747.602-2.54.602-2.54zM140.71 8.217s-8.436 9.263-12.203 14.044c-3.766 4.78-6.026 4.481-6.026 4.481l-1.205-.298.603 1.195s.301 0 .301.747-.301 1.793-.904 1.942c-.603.15-2.109 1.643-2.109 1.643l1.054.299s0-.15 1.055-.598c1.055-.448 1.205-.149 1.958-.896.754-.747.603-.598 1.356-1.046.904-.597 1.055-1.046 1.356-1.643.301-.598 1.808-1.195 1.808-1.195s.904-.897.904.15v2.09c0 .598.603.3 0 1.196l-.452.896s-.753.15-1.055 1.046c-.301.896-.301 1.046-.301 1.643v1.943c0 .597.301.597 0 1.195-.301.597-.151.747-.603 1.344-.451.598-.903 1.345-.903 1.345l-.904 1.045c.602.15 1.958-.597 1.958-.597s1.356-.598 1.657-1.046c.151-.597 1.206-1.195 1.206-1.195l.753-.896a23.875 23.875 0 001.356-1.793s.602 0 .602-.747-.15-1.195-.15-2.69c0-1.493-.151-.896 0-2.688.15-1.793.15-2.241.15-2.988 0-.747-.15-1.046.151-1.942.301-.897.753-2.839.753-2.839s-.602-.747.301-.896c.904-.15 2.712-.15 2.712-.15l1.808-.149.753-.15s-.301-2.24-.301-2.838c0-.597-.301-1.344.301-1.793.603-.448 1.055-.747 1.657-1.195.603-.597 1.055-.747 1.356-1.195.302-.598.754-.15.754-1.195v-1.046c0-1.046-1.507-2.54-1.507-2.54zM115.853 24.8l-1.055.747-2.109 2.092-1.055 1.942h4.219v-3.137l1.355-.15-.15-2.24-1.205.746zm-15.668 12.101c1.356-.15 2.862-1.793 1.356-2.091-1.507-.3-4.972 2.54-5.575 3.137.151 0 2.863-.896 4.219-1.046zm7.834 2.241s1.054-.597 2.259-1.195c1.206-.747 0 0 .603-.299s.753-.597 1.205-1.046c.603-.597.753-1.195.753-1.195l1.356-.896.603-1.345h-1.808c-.753 0-1.054.598-3.164 1.196-2.109.597-2.109 2.54-2.109 2.54l1.657.149-1.355 2.091zm74.271-3.137c-4.971-.15-6.478 5.378-6.478 5.378 3.766-1.494 6.478-5.378 6.478-5.378zm1.055 4.033c1.054.3 2.561-1.643 2.561-1.643l1.054-.896c1.055-.897 0 0 .753-.299.754-.299 1.206-.299 1.206-.299h.904c.904 0 1.355-.896 1.355-.896l1.658-1.644c1.657-1.643 0 0 .753-.597.753-.598 0 0 .904-.299s.753-.15 1.205-.15c.603 0 1.055.15 2.109-.149l-.904-.896-1.808-.299-1.205-.299h-1.958s-1.356 0-1.959.15c-.602.15-.753.896-.753.896s-.904.598-1.958.897c-1.055.298-.302 1.344-1.055 3.734-.753 2.241-3.917 2.54-3.917 2.54s0-.15 1.055.15z" fill="url(#paint1_radial)"/><path d="M158.637 39.59l.603.747 2.26 1.494.15-.597-1.355-.897-.754-.896c-.301 0-.602.15-.904.15z" fill="url(#paint2_linear)"/><path d="M162.253 27.639c0-.448 0-.897.151-1.345v-.896c0-.448.301-.896.753-1.046-.15 0-.301-.15-.452-.15-.602 0-1.205.449-1.205 1.196v.896c0 .448-.151 1.046-.151 1.345 0 0-.15.15-.15.299-.151.298-.452.747-.301 1.344.301.598.903.747 1.205.747.301 0 .753.15.904.15h.452-.452c-.151 0-.904-.15-1.206-.747-.301-.598 0-1.046.302-1.345 0-.299.15-.448.15-.448z" fill="url(#paint3_linear)"/><path d="M188.618 30.925c-.603.15-1.054.747-1.205 1.046-.301.15-.904.448-1.507.598-1.205.448-1.205 1.344-1.356 2.24 0 .598 0 1.196-.301 2.092-.452 1.644-3.013 1.793-3.164 1.793l-.301 1.793 1.055.298c.15 0 .301.15.602.15h.302l-1.055-.299.301-1.793s2.561-.149 3.164-1.792c.301-.897.301-1.494.301-2.092 0-.747.151-1.793 1.356-2.24.603-.15 1.205-.449 1.507-.598.15-.449.602-.897 1.205-1.046.603-.15 1.958-.15 2.26-.15h-.904c-.301-.298-1.507-.298-2.26 0z" fill="url(#paint4_linear)"/><path d="M165.266 24.501h.904v-.448l-.904-.15v.598z" fill="url(#paint5_linear)"/><path d="M158.939 35.407h-.151c-.15 0-.301 0-.753.15-.151 0-.452.149-.753.298-.151 0-.151 0-.302.15h-.301c-.301 0-.452 0-1.205.597-1.055.598-1.205.747-1.657 1.196a2.09 2.09 0 01-.603.448l-1.958 1.643 1.054.747c.151 0 .753.448 1.657.448h.452c-.602-.15-1.054-.299-1.205-.448l-1.054-.747 1.958-1.643c.301-.3.452-.449.603-.449.452-.448.602-.448 1.657-1.195.753-.448.904-.597 1.205-.597h.301s.151 0 .302-.15c.301-.149.602-.149.753-.298.301-.15.301-.15.452-.15h-.452z" fill="url(#paint6_linear)"/><path d="M163.007 34.66c0-.15 1.506-1.494 2.109-2.24.452-.598.904-1.196 1.054-1.644 0-.15 0-.448-.15-.896h-.904c.151.299.151.597.151.896a13.505 13.505 0 01-1.055 1.643c-.603.897-2.109 2.241-2.109 2.241-.301.3-.753.747-.904.747h.904c.151 0 .602-.298.904-.747z" fill="url(#paint7_linear)"/><path d="M141.313 30.477h-.301c-.151 0-.302 0-.452.15v.448s0 .15-.151.299c-.452.896-1.507 2.39-1.657 2.39l-1.055 1.942.151.448c.151.299.452.598 1.054.598.151 0 .302 0 .452-.15a2.07 2.07 0 01-.602-.448l-.151-.15 1.055-1.941s1.054-1.644 1.657-2.39c.151-.15.151-.3.151-.3v-.448c0-.299 0-.299-.151-.448z" fill="url(#paint8_linear)"/><path d="M95.364 37.35c.452-.598 3.465-3.138 5.423-3.586h-.753c-.452.15-.904.448-1.205.597-.753.3-3.013 2.241-5.574 4.482l-.603.747 1.356-.448 1.356-1.793z" fill="url(#paint9_linear)"/><path d="M106.211 40.636l1.657-2.988-1.055-.15v-.746c0-.15 0-2.39 2.712-3.287 1.054-.299 1.657-.597 1.958-.896a2.56 2.56 0 011.507-.448h-.904c-.603 0-1.055.149-1.506.448-.452.15-1.055.448-1.959.896-2.712.896-2.712 3.287-2.712 3.287v.747l1.055.15-1.959 3.585 1.206-.598z" fill="url(#paint10_linear)"/><path d="M140.258 7.321c-1.054 1.046-2.41 2.69-3.917 4.332 2.109-2.39 3.767-4.183 3.767-4.183l.15-.149z" fill="url(#paint11_linear)"/><path d="M126.85 28.535v.598c0 .298.151.597.151.747l-.452.747c-.452.149-.904.597-1.356 1.493-.452.897-.452 1.196-.452 1.943v1.942c0 .298.15.597.15.747v.15c-.15.447-.301.746-.301.895 0 .15 0 .3-.151.449-.301.597-.753 1.195-.753 1.344l-1.657 2.092 1.356.448c.151 0 .301.15.452.15h.602l-1.355-.449 1.657-2.091s.452-.598.753-1.345c.151-.299.151-.299.151-.448 0-.15.15-.448.301-.897v-.149c0-.15-.151-.448-.151-.747v-1.942c0-.598 0-.896.452-1.942.302-.897.904-1.195 1.356-1.494l.452-.747c-.151-.15-.151-.448-.151-.747v-1.195c-.452 0-.903.299-1.054.448z" fill="url(#paint12_linear)"/><path d="M117.511 31.075l-1.206 1.046 3.767 1.195v-.299l-2.863-.896 1.206-1.046c.602-.598 1.807-1.494 2.41-1.793.151-.15.301-.448.301-.896l-1.356-3.138-1.054-.298 1.506 3.585c0 .448-.15.747-.301.896-.603.15-1.808 1.046-2.41 1.644z" fill="url(#paint13_linear)"/><path d="M121.125 24.352h.452c-1.356-.15-2.711-.598-3.615-1.195v.448a7.048 7.048 0 003.163.747z" fill="url(#paint14_linear)"/><path d="M126.248 22.709c-.302.299-.603.448-.904.747-1.356 1.494-2.411 1.942-3.013 2.24l.452.15c.301 0 2.259-.299 5.122-4.034a1720.07 1720.07 0 005.724-6.872c-2.862 3.138-5.875 6.275-7.381 7.769z" fill="url(#paint15_linear)"/><path d="M110.128 30.477l.753-1.494-1.506 1.494h.753z" fill="url(#paint16_linear)"/><path d="M208.353 39.59c-2.712-1.045-3.767-1.942-6.629-4.482-.603-.448-1.055-1.045-1.808-1.643-.452-.448-1.054-.747-1.506-1.195l1.205 1.195-.452.15c.603.597 1.205 1.045 1.657 1.493 2.712 2.54 3.766 3.437 6.629 4.482 2.26.897 4.821 2.39 6.327 3.586h.904c-1.657-1.046-4.218-2.69-6.327-3.586z" fill="url(#paint17_linear)"/><path d="M145.38 10.608l.452-.448-4.369-4.183-.452.448 4.369 4.183z" fill="url(#paint18_linear)"/><path d="M104.403 34.361l.452-.448-1.958-1.643c-.151.15-.302.15-.603.299l2.109 1.792z" fill="url(#paint19_linear)"/><path d="M146.285 10.458l-.603.747v2.39l1.205.15c0 .15-.15.15-.15.15-.302.149-.603.448-.904.597a8.612 8.612 0 01-1.055.598c-.753.15-1.506.747-1.808 1.045-.753.15-1.657.897-1.657 2.241 0 .3-.15.448-.301.747-.301.448-.753 1.046-.753 2.241 0 .897-.754 1.345-.754 1.345h-.15c-.151 0-.904.597-.904 1.942 0 .448.151.896.151 1.195 0 .15.15.299.15.448l-.301.3c-.452.298-1.657 1.344-2.26 1.941-.753.747-1.205 1.494-1.205 1.643l-.301.598.452.448c.15.15.753.598 1.506.598h.452a2.116 2.116 0 01-1.055-.598l-.452-.448.302-.598c0-.149.452-.896 1.205-1.643.603-.597 1.958-1.643 2.26-1.942l.301-.299c0-.15 0-.299-.151-.448-.15-.299-.15-.747-.15-1.195 0-1.345.904-1.942.904-1.942h.15s.754-.299.754-1.345c0-1.195.452-1.793.753-2.24.301-.3.301-.449.301-.748 0-1.344 1.055-2.091 1.657-2.24.302-.3 1.055-.897 1.808-1.046.301-.15.603-.3 1.055-.598.301-.15.602-.299.904-.598.15 0 .15-.149.15-.149l-1.205-.15v-2.39l9.34-9.86-.15-.149-9.491 9.262z" fill="url(#paint20_linear)"/><path d="M180.332 22.41c1.959 1.643 5.122 4.482 7.382 7.47l.302.448h.903l-.301-.448c-2.712-3.735-6.93-7.171-8.587-8.366l.151.298s0 .3.15.598z" fill="url(#paint21_linear)"/><path d="M192.535 30.627h.904c-1.808-.449-3.465-.449-3.917-.449h-.452c.753.15 2.109.15 3.465.449z" fill="url(#paint22_linear)"/><path d="M195.548 34.362h.301c0-.15-.151-.15-.301 0-.151 0-.302 0-.302-.15h-.15c.15.15.301.15.452.15z" fill="url(#paint23_linear)"/><path d="M144.326 34.212c-.151 0-.302.15-.603.15h-.15l1.657 1.045.301-.448-1.205-.747z" fill="url(#paint24_linear)"/><path d="M174.306 23.306c-.151.15-.301.15-.452.3-.603.597-1.055.895-2.561 1.045-.452 0-.753.15-.904.15.151 0 .151 0 .301.149h.302c.301-.15.753-.15 1.355-.3 1.356-.148 1.808-.447 2.561-1.045.151-.15.302-.15.452-.299a3.293 3.293 0 011.206-.747c-.452.15-.904.15-1.356.15-.302.15-.603.299-.904.597z" fill="url(#paint25_linear)"/><path d="M156.679 3.437l16.572 19.272h.904L156.529 2.092l.15.747v.598z" fill="url(#paint26_linear)"/><path d="M12.204 91.58c.301 25.247 52.126 40.934 115.851 35.107 63.726-5.826 114.948-31.074 114.647-56.321-.302-25.248-52.277-40.935-115.852-35.108C63.275 41.084 11.752 66.332 12.204 91.58z" fill="#BF0D0E"/><path opacity=".5" d="M54.236 97.854c-3.314 9.263-11.148 12.101-16.571 12.699-5.876.747-12.655-1.494-12.203-14.193.452-13.445 4.971-31.223 20.338-33.016 5.423-.598 9.943 1.046 9.792 7.022-.15 3.286-1.205 5.826-4.218 6.125-.904.15-2.26 0-3.314-1.195 1.506-.598 2.711-3.735 2.711-5.379 0-1.045-.15-4.332-3.917-3.884-6.93 1.046-11.901 17.18-12.202 28.086-.302 8.068 1.054 11.354 7.382 10.607 4.52-.597 8.737-2.988 10.997-7.17l1.205.298z" fill="#000"/><path opacity=".5" d="M66.74 76.192l-.753 3.137c2.11-1.942 4.52-3.585 6.93-3.884 2.561-.299 4.068 1.046 4.068 3.436 0 2.092-1.657 4.93-4.52 5.229-3.314.448-1.506-3.884-3.314-3.586-1.808.15-2.712 1.046-4.068 2.39l-5.574 24.651-8.286 1.046 7.081-31.373 8.436-1.046z" fill="#000"/><path opacity=".5" d="M73.972 96.21c.15-7.768 3.766-21.81 14.312-23.155 4.82-.598 7.382 1.195 7.23 5.527-.15 7.47-7.984 12.699-13.407 14.043-.15 1.046-.301 1.942-.301 2.69-.151 4.033 1.807 5.079 4.067 4.78 2.712-.299 5.122-2.24 7.533-4.78-.15 6.573-5.273 8.963-11.148 9.561-5.575.747-8.437-3.287-8.286-8.665zM89.94 76.193c-3.315.448-6.177 7.62-7.533 13.595 5.273-.747 9.19-5.976 9.491-10.308.15-1.345-.15-3.436-1.958-3.287zm34.199 23.753l6.628-29.73-11.901 30.327-7.985.897.754-26.144-8.437 27.04-4.67.598 14.161-43.773c-5.875 2.689-9.491 7.918-9.792 14.94-.151 3.137.602 3.585.753 4.033-4.068.448-6.177-.747-6.026-5.229.15-7.47 10.244-16.881 19.283-17.927 1.356-.15 2.712-.15 3.917.15l-1.054 35.406 13.709-36.9 9.039-1.046L132.123 98.9l-7.984 1.046zm37.964-26.593c.302.3.904.449 1.657.3 2.712-.3 4.068-2.54 6.177-3.736l.151 1.195c-1.808 2.54-4.972 4.93-8.286 6.425-1.507 12.4-7.985 19.271-13.709 20.018-6.177.747-8.738-1.643-8.587-8.963.451-15.09 7.833-22.41 15.818-23.455 5.574-.747 6.779 3.735 6.779 8.216zm-4.67 5.379c-1.657.15-2.41-1.046-2.41-2.54 0-1.793 1.054-3.735 2.711-4.631-.15-1.942-.753-3.138-2.41-2.839-5.423.598-8.135 13.446-8.286 18.376-.151 3.735 1.507 4.482 3.766 4.183 3.616-.448 5.876-6.574 6.629-12.55z" fill="#000"/><path opacity=".5" d="M188.015 82.616c-.151.747-.301 1.344-.301 1.942 0 1.345.602 2.241 2.862 1.942 2.26-.299 3.315-2.24 5.574-4.482l1.959-.299c-2.712 3.138-7.382 10.309-11.902 10.757-4.519.597-7.08-1.195-6.93-5.826 0-1.046.151-1.943.452-3.138l2.561-11.354c.151-.597.151-1.195.151-1.643 0-2.241-1.055-3.436-2.561-3.287-1.356.15-2.411.747-3.616 1.793l-5.574 25.397-8.286 1.046 7.081-31.373 8.286-1.046-.753 3.436c2.41-2.091 5.122-3.884 7.683-4.183 3.163-.299 6.628 2.839 6.478 6.872 0 .449 0 1.046-.151 1.494l-3.013 11.952z" fill="#000"/><path opacity=".5" d="M209.71 49.6s-1.055 4.332-2.26 9.86l3.465-.448-.603 2.54-3.465.447c-4.519 19.87-4.519 20.468-4.519 20.766 0 1.345.452 2.241 2.862 1.942 2.26-.298 5.423-4.033 7.834-6.274l1.958-.299c-2.711 3.137-9.491 12.101-14.01 12.55-4.52.597-7.081-1.196-6.93-5.827.15-3.287 3.465-16.583 4.67-21.961l-1.959.299.603-2.54 1.959-.299 1.958-8.665 8.437-2.091z" fill="#000"/><path opacity=".5" d="M212.12 79.777c.151-7.768 3.766-21.811 14.312-23.156 4.821-.597 7.382 1.195 7.231 5.528-.15 7.47-7.984 12.698-13.408 14.043-.151 1.046-.301 1.942-.301 2.689-.151 4.034 1.808 5.08 4.067 4.78 2.712-.298 5.123-2.24 7.533-4.78-.151 6.573-5.273 8.964-11.148 9.561-5.574.747-8.437-3.286-8.286-8.665zm16.12-20.019c-3.315.449-6.177 7.62-7.533 13.595 5.273-.747 9.19-5.975 9.491-10.308 0-1.344-.301-3.585-1.958-3.287z" fill="#000"/><path d="M53.332 97.107c-3.315 9.263-11.148 12.101-16.572 12.699-5.875.747-12.655-1.494-12.203-14.192.452-13.446 4.972-31.224 20.338-33.017 5.424-.597 9.943 1.046 9.793 7.022-.15 3.286-1.206 5.826-4.219 6.125-.904.15-2.26 0-3.314-1.195 1.507-.598 2.712-3.735 2.712-5.378 0-1.046-.15-4.333-3.917-3.885-7.08.897-12.203 17.031-12.504 27.937-.301 8.067 1.054 11.354 7.382 10.607 4.52-.597 8.737-2.988 10.997-7.17l1.507.447z" fill="#fff"/><path d="M65.836 75.445l-.753 3.137c2.11-1.942 4.52-3.585 6.93-3.884 2.561-.299 4.068 1.046 4.068 3.436 0 2.092-1.658 4.93-4.52 5.23-3.314.447-1.507-3.885-3.314-3.586-1.808.149-2.712 1.045-4.068 2.39l-5.574 24.65-8.286 1.046 7.08-31.373 8.437-1.046z" fill="#fff"/><path d="M73.067 95.464c.15-7.769 3.767-21.812 14.312-23.156 4.821-.598 7.382 1.195 7.231 5.527-.15 7.47-7.984 12.699-13.408 14.044-.15 1.045-.3 1.942-.3 2.689-.152 4.033 1.807 5.079 4.067 4.78 2.711-.299 5.122-2.24 7.532-4.78-.15 6.573-5.273 8.963-11.148 9.561-5.574.747-8.436-3.436-8.286-8.665zm16.12-20.168c-3.314.448-6.177 7.619-7.533 13.595 5.273-.747 9.19-5.976 9.491-10.309 0-1.344-.15-3.436-1.958-3.286zm34.198 23.903l6.629-29.73-11.902 30.327-7.984.897.753-26.144-8.437 27.04-4.52.598 14.162-43.773c-5.875 2.69-9.491 7.918-9.792 14.94-.151 3.137.602 3.585.753 4.033-4.068.448-6.177-.747-6.026-5.229.15-7.47 10.244-16.881 19.283-17.927 1.356-.15 2.712-.15 3.917.15l-1.054 35.406 13.709-36.9 9.039-1.046-10.395 46.312-8.135 1.046zm37.814-26.742c.301.299.904.448 1.657.299 2.712-.299 4.068-2.54 6.177-3.735l.15 1.195c-1.807 2.54-4.971 4.93-8.286 6.424-1.506 12.4-7.984 19.272-13.709 20.02-6.177.746-8.738-1.644-8.587-8.965.452-15.088 7.834-22.409 15.818-23.454 5.575-.598 6.78 3.734 6.78 8.216zm-4.52 5.378c-1.657.15-2.41-1.045-2.41-2.54 0-1.792 1.054-3.734 2.712-4.63-.151-1.943-.754-3.138-2.411-2.839-5.423.598-8.135 13.446-8.286 18.376-.15 3.734 1.507 4.481 3.767 4.183 3.615-.3 5.724-6.424 6.628-12.55z" fill="#fff"/><path d="M187.111 81.87c-.15.746-.301 1.344-.301 1.941 0 1.345.603 2.241 2.862 1.942 2.26-.299 3.315-2.24 5.575-4.481l1.958-.3c-2.712 3.138-7.382 10.309-11.901 10.757-4.52.598-7.081-1.195-6.93-5.826 0-1.046.15-1.942.451-3.138l2.562-11.354c.15-.597.15-1.195.15-1.643 0-2.24-1.054-3.436-2.561-3.287-1.356.15-2.41.747-3.616 1.793l-5.574 25.397-8.286 1.046 7.081-31.373 8.286-1.046-.753 3.436c2.41-2.091 5.122-3.884 7.683-4.183 3.164-.298 6.629 2.839 6.478 6.873 0 .448 0 1.045-.151 1.493l-3.013 11.952z" fill="#fff"/><path d="M208.804 48.703s-1.054 4.333-2.259 9.86l3.465-.448-.603 2.54-3.465.448c-4.519 19.87-4.519 20.467-4.519 20.766 0 1.345.451 2.241 2.862 1.942 2.26-.299 5.423-4.033 7.834-6.274l1.958-.3c-2.711 3.138-9.491 12.102-14.01 12.55-4.52.598-7.081-1.195-6.93-5.826.15-3.287 3.465-16.583 4.67-21.961l-1.959.298.603-2.54 1.958-.298 1.959-8.665 8.436-2.092z" fill="#fff"/><path d="M211.215 79.03c.151-7.768 3.767-21.811 14.312-23.156 4.821-.597 7.382 1.196 7.232 5.528-.151 7.47-7.985 12.699-13.408 14.043-.151 1.046-.302 1.942-.302 2.69-.15 4.033 1.808 5.079 4.068 4.78 2.712-.299 5.122-2.241 7.532-4.78-.15 6.573-5.272 8.963-11.148 9.56-5.423.748-8.436-3.436-8.286-8.664zm16.12-20.168c-3.314.448-6.177 7.62-7.532 13.595 5.272-.747 9.189-5.976 9.491-10.308 0-1.345-.151-3.436-1.959-3.287z" fill="#fff"/><path d="M45.047 64.838c-2.41.299-6.026 2.39-9.19 10.607-2.11 5.378-3.616 12.25-3.766 17.927-.151 5.379.451 8.217 1.958 9.711 1.055 1.046 2.41 1.494 4.369 1.494h.602c-1.657-.149-2.862-.598-3.766-1.494-1.506-1.643-2.109-4.482-1.958-9.71.15-5.678 1.657-12.55 3.766-17.928 3.314-8.217 6.78-10.308 9.19-10.607h.15-.602c-.301-.15-.603-.15-.753 0zm7.683.149c-1.205-1.195-3.164-1.942-5.725-1.942h-.602c2.26.15 4.067.747 5.122 1.942 1.054 1.046 1.657 2.69 1.506 4.632-.15 3.286-1.356 5.228-3.615 5.527h1.054c2.41-.299 3.616-2.091 3.767-5.527.15-1.942-.453-3.586-1.507-4.632zm-2.411 35.108c-3.917 6.872-10.696 8.665-14.613 9.263-.452 0-.754 0-1.206.149h.452c.603 0 1.206 0 1.808-.149 4.52-.598 12.354-2.839 15.819-11.802l-.302-.15c-.452.896-1.205 1.793-1.958 2.689zm12.655-19.869l1.355-1.345h.151l.603-2.838-1.205.149-.904 4.034zm4.369-1.046h-.151c-1.958.299-3.164 1.195-4.369 2.689l-.15.15-5.424 24.351-6.026.597v.15l7.08-.897 5.575-24.202.15-.15c1.206-1.194 2.26-2.24 3.917-2.539-.15-.15-.452-.15-.602-.15zm7.532-3.137c-.452-.449-1.205-.747-2.11-.747h-.602c.603.149 1.206.298 1.507.747.452.448.753 1.195.753 2.091 0 1.643-1.205 4.183-3.616 4.631.151 0 .302.15.452.15h.302c2.56-.3 3.917-2.988 3.917-4.78.15-.897-.151-1.644-.603-2.092zM91.748 74.1c.753.897 1.205 2.092 1.205 3.736-.15 7.17-7.683 12.25-12.956 13.594l-.452.15v.448c-.15 1.046-.301 1.942-.301 2.689 0 1.942.301 3.436 1.205 4.332.603.747 1.507 1.046 2.712 1.046h.602c-.904-.15-1.506-.448-2.109-1.046-.904-.896-1.355-2.39-1.205-4.332 0-.747.15-1.793.301-2.69v-.447l.452-.15c5.273-1.344 12.806-6.424 12.956-13.595 0-1.643-.3-2.987-1.205-3.734-.753-.897-2.109-1.345-3.917-1.345h-.602c1.506.15 2.56.598 3.314 1.345z" fill="#D29357"/><path d="M87.982 74.847c-3.616.449-6.478 7.77-7.985 14.044l-.15.747.903-.15h.302l.15-.597c1.356-5.976 4.219-13.147 7.684-13.894-.151 0-.302-.15-.603-.15-.15-.149-.15-.149-.301 0zm-7.835 28.684h-.451c.15.15.3.15.451 0h1.206c6.177-.747 9.641-3.137 10.395-7.47-.452.449-1.055.897-1.507 1.345-1.205 3.586-4.52 5.528-10.094 6.125zm59.96-50.794l-10.093 44.968-5.876.597v.15l7.081-.747 10.094-45.117-1.206.15zm-29.377 5.229c-6.176 2.838-9.792 8.515-10.093 15.537 0 2.091.301 2.988.452 3.585h1.205c-.301-.597-.452-1.494-.452-3.585.151-7.022 3.766-12.55 9.943-15.388l.151-.598-1.206.449zm7.834-2.988l-1.054 34.958 1.205.15.15-.15 1.055-34.809c-.603-.15-1.055-.15-1.808-.15h-.602 1.054zm-9.34 19.422l-8.286 26.741-2.11.299-.15.149 3.465-.448 8.135-26.592-1.054-.15z" fill="#D29357"/><path d="M128.206 69.32l-11.6 29.879-5.876.747v.149l6.93-.896 11.601-29.58-1.055-.3zm29.527-3.287c1.205 1.195 1.808 3.436 1.808 6.424v.299l.15.15c.452.298.904.597 1.507.597h.602c-.452 0-.753-.299-1.054-.448l-.151-.15v-.298c0-3.138-.602-5.23-1.808-6.424-.753-.747-1.958-1.196-3.314-1.196h-.603c1.206 0 2.109.3 2.863 1.046zm-1.957 11.205h.301v-.15l-.301.15zm12.805-7.171c-.452.299-.904.747-1.356 1.046-.603.597-1.356 1.045-2.109 1.493-1.658 1.494-3.616 2.69-5.725 3.586l-.301.15v.298c-1.507 12.4-7.834 18.824-13.258 19.421-.452 0-.904.15-1.356.15h.603c.603 0 1.205 0 1.958-.15 5.424-.597 11.751-7.021 13.258-19.42v-.3l.301-.15c3.164-1.344 6.026-3.585 7.985-5.975v-.15z" fill="#D29357"/><path d="M148.243 91.132h.602c-.753-.15-1.506-.449-1.958-.897-.754-.747-1.205-2.091-1.055-3.884.151-3.884 2.411-17.927 8.587-18.824h-1.054c-6.328.747-8.738 14.94-8.738 18.973 0 1.793.301 3.138 1.055 3.885.602.298 1.506.747 2.561.747zm38.266-27.489c1.205 1.195 1.808 2.988 1.808 4.631 0 .448 0 .897-.151 1.345l-2.712 11.951c-.15.747-.301 1.494-.301 2.092 0 .896.151 1.494.603 1.942.452.448 1.054.747 2.109.747h.602c-.602-.15-1.205-.299-1.506-.598-.452-.448-.603-1.045-.603-1.942 0-.597.151-1.344.302-2.091l2.711-11.952c.151-.448.151-.896.151-1.344 0-1.793-.603-3.437-1.808-4.632-1.054-1.045-2.26-1.643-3.465-1.643h-.603c.904 0 1.959.598 2.863 1.494zm-12.655 3.585l1.356-1.195h.151l.753-3.137-1.205.15-1.055 4.182zm21.694 14.492c-.603.597-1.206 1.195-1.658 1.793-.753.896-1.506 1.643-2.41 2.24-2.26 2.69-4.821 5.23-7.382 5.528h-.904.603c.452 0 .904 0 1.356-.15 3.314-.448 6.93-4.93 9.641-8.216.302-.448.603-.897.904-1.195h-.15zm-17.325-15.687h-.302c-.753.15-1.356.299-2.109.598l-.753.747v-.299c-.452.299-.753.448-1.205.896l-.151.15-5.574 25.098-5.876.747v.15l7.081-.897 5.574-25.098.151-.15c1.356-1.045 2.41-1.643 3.766-1.792-.301-.15-.452-.15-.602-.15zm29.678-5.826l-3.465.448-.15.448c-4.52 19.72-4.52 20.467-4.52 20.915 0 .598 0 1.345.603 1.942.452.449 1.054.747 1.958.747h.603c-.603 0-1.055-.298-1.507-.597-.602-.598-.602-1.345-.602-1.942 0-.3 0-1.196 4.519-20.916l.151-.448 3.465-.448.301-1.345-1.205.15-.151 1.046zM196.603 61.7h.602l.151-.149h-.753v.15zm15.818 16.583c-.452.449-1.055 1.046-1.507 1.644-1.205 1.195-2.41 2.39-3.465 3.286-2.862 2.988-6.026 6.126-8.436 6.424h-.753.602c.452 0 .904 0 1.356-.149 3.616-.448 9.19-7.17 12.203-10.756.15-.15.301-.449.452-.598l-.452.15zm-7.533-19.72l-.151.747 1.205-.15.151-.597c.904-4.033 1.657-7.47 2.109-8.963l-1.205.298c-.603 1.644-1.356 4.93-2.109 8.665zm25.008-.896c.753.896 1.205 2.092 1.205 3.735-.15 7.17-7.683 12.25-12.956 13.595l-.452.15v.447c-.15 1.046-.301 1.943-.301 2.69 0 1.942.301 3.436 1.205 4.332.603.747 1.507 1.046 2.712 1.046h.603c-.904-.15-1.507-.448-2.109-1.046-.904-.896-1.356-2.39-1.206-4.332 0-.747.151-1.793.302-2.69v-.448l.452-.15c5.272-1.344 12.805-6.423 12.956-13.594 0-1.643-.302-2.988-1.206-3.735-.753-.896-2.109-1.345-3.917-1.345h-.602c1.506.15 2.561.598 3.314 1.345z" fill="#D29357"/><path d="M226.13 58.414c-3.615.448-6.478 7.769-7.984 14.043l-.151.747.904-.15h.301l.151-.597c1.356-5.976 4.218-13.146 7.683-13.893-.15 0-.301-.15-.602-.15 0-.15-.151-.15-.302 0zm-7.834 28.684h-.452c.15.15.452.15.452 0h1.205c6.177-.747 9.642-3.137 10.395-7.47-.452.448-1.055.897-1.507 1.345-1.205 3.585-4.519 5.527-10.093 6.125z" fill="#D29357"/><defs><linearGradient id="paint0_linear" x1=".001" y1="80.604" x2="254.447" y2="80.604" gradientUnits="userSpaceOnUse"><stop offset=".006" stop-color="#95691E"/><stop offset=".326" stop-color="#FFEF98"/><stop offset=".522" stop-color="#FDF5D7"/><stop offset=".708" stop-color="#FAE795"/><stop offset="1" stop-color="#95691E"/></linearGradient><linearGradient id="paint2_linear" x1="162.909" y1="-35.321" x2="159.701" y2="53.945" gradientUnits="userSpaceOnUse"><stop stop-color="#fff"/><stop offset="1" stop-color="#A87846"/></linearGradient><linearGradient id="paint3_linear" x1="164.527" y1="-35.263" x2="161.319" y2="54.003" gradientUnits="userSpaceOnUse"><stop stop-color="#fff"/><stop offset="1" stop-color="#A87846"/></linearGradient><linearGradient id="paint4_linear" x1="189.027" y1="-34.383" x2="185.819" y2="54.883" gradientUnits="userSpaceOnUse"><stop stop-color="#fff"/><stop offset="1" stop-color="#A87846"/></linearGradient><linearGradient id="paint5_linear" x1="167.876" y1="-35.143" x2="164.669" y2="54.123" gradientUnits="userSpaceOnUse"><stop stop-color="#fff"/><stop offset="1" stop-color="#A87846"/></linearGradient><linearGradient id="paint6_linear" x1="158.031" y1="-35.496" x2="154.824" y2="53.77" gradientUnits="userSpaceOnUse"><stop stop-color="#fff"/><stop offset="1" stop-color="#A87846"/></linearGradient><linearGradient id="paint7_linear" x1="166.155" y1="-35.205" x2="162.947" y2="54.062" gradientUnits="userSpaceOnUse"><stop stop-color="#fff"/><stop offset="1" stop-color="#A87846"/></linearGradient><linearGradient id="paint8_linear" x1="142.122" y1="-36.068" x2="138.914" y2="53.198" gradientUnits="userSpaceOnUse"><stop stop-color="#fff"/><stop offset="1" stop-color="#A87846"/></linearGradient><linearGradient id="paint9_linear" x1="99.464" y1="-37.601" x2="96.257" y2="51.665" gradientUnits="userSpaceOnUse"><stop stop-color="#fff"/><stop offset="1" stop-color="#A87846"/></linearGradient><linearGradient id="paint10_linear" x1="111.674" y1="-37.162" x2="108.467" y2="52.104" gradientUnits="userSpaceOnUse"><stop stop-color="#fff"/><stop offset="1" stop-color="#A87846"/></linearGradient><linearGradient id="paint11_linear" x1="139.92" y1="-36.147" x2="136.713" y2="53.119" gradientUnits="userSpaceOnUse"><stop stop-color="#fff"/><stop offset="1" stop-color="#A87846"/></linearGradient><linearGradient id="paint12_linear" x1="127.604" y1="-36.59" x2="124.397" y2="52.676" gradientUnits="userSpaceOnUse"><stop stop-color="#fff"/><stop offset="1" stop-color="#A87846"/></linearGradient><linearGradient id="paint13_linear" x1="121.234" y1="-36.819" x2="118.027" y2="52.448" gradientUnits="userSpaceOnUse"><stop stop-color="#fff"/><stop offset="1" stop-color="#A87846"/></linearGradient><linearGradient id="paint14_linear" x1="122.018" y1="-36.791" x2="118.811" y2="52.476" gradientUnits="userSpaceOnUse"><stop stop-color="#fff"/><stop offset="1" stop-color="#A87846"/></linearGradient><linearGradient id="paint15_linear" x1="129.99" y1="-36.504" x2="126.783" y2="52.762" gradientUnits="userSpaceOnUse"><stop stop-color="#fff"/><stop offset="1" stop-color="#A87846"/></linearGradient><linearGradient id="paint16_linear" x1="112.577" y1="-37.13" x2="109.37" y2="52.137" gradientUnits="userSpaceOnUse"><stop stop-color="#fff"/><stop offset="1" stop-color="#A87846"/></linearGradient><linearGradient id="paint17_linear" x1="209.085" y1="-33.662" x2="205.878" y2="55.604" gradientUnits="userSpaceOnUse"><stop stop-color="#fff"/><stop offset="1" stop-color="#A87846"/></linearGradient><linearGradient id="paint18_linear" x1="144.997" y1="-35.965" x2="141.79" y2="53.302" gradientUnits="userSpaceOnUse"><stop stop-color="#fff"/><stop offset="1" stop-color="#A87846"/></linearGradient><linearGradient id="paint19_linear" x1="106.217" y1="-37.358" x2="103.01" y2="51.908" gradientUnits="userSpaceOnUse"><stop stop-color="#fff"/><stop offset="1" stop-color="#A87846"/></linearGradient><linearGradient id="paint20_linear" x1="147.111" y1="-35.889" x2="143.904" y2="53.377" gradientUnits="userSpaceOnUse"><stop stop-color="#fff"/><stop offset="1" stop-color="#A87846"/></linearGradient><linearGradient id="paint21_linear" x1="186.671" y1="-34.468" x2="183.464" y2="54.799" gradientUnits="userSpaceOnUse"><stop stop-color="#fff"/><stop offset="1" stop-color="#A87846"/></linearGradient><linearGradient id="paint22_linear" x1="193.709" y1="-34.214" x2="190.502" y2="55.051" gradientUnits="userSpaceOnUse"><stop stop-color="#fff"/><stop offset="1" stop-color="#A87846"/></linearGradient><linearGradient id="paint23_linear" x1="197.958" y1="-34.065" x2="194.751" y2="55.205" gradientUnits="userSpaceOnUse"><stop stop-color="#fff"/><stop offset="1" stop-color="#A87846"/></linearGradient><linearGradient id="paint24_linear" x1="147.163" y1="-35.888" x2="143.956" y2="53.38" gradientUnits="userSpaceOnUse"><stop stop-color="#fff"/><stop offset="1" stop-color="#A87846"/></linearGradient><linearGradient id="paint25_linear" x1="175.648" y1="-34.864" x2="172.441" y2="54.403" gradientUnits="userSpaceOnUse"><stop stop-color="#fff"/><stop offset="1" stop-color="#A87846"/></linearGradient><linearGradient id="paint26_linear" x1="167.039" y1="-35.173" x2="163.832" y2="54.093" gradientUnits="userSpaceOnUse"><stop stop-color="#fff"/><stop offset="1" stop-color="#A87846"/></linearGradient><radialGradient id="paint1_radial" cx="0" cy="0" r="1" gradientUnits="userSpaceOnUse" gradientTransform="matrix(48.8054 0 0 48.3981 151.419 22.025)"><stop offset=".004" stop-color="#A03903"/><stop offset="1" stop-color="#6E0E00"/></radialGradient></defs></svg>