<svg width="140" height="197" fill="none" xmlns="http://www.w3.org/2000/svg"><g clip-path="url(#clip0)"><path d="M24.378 41.655c.925.162 1.413.582 2.533.275-.066-.906.112-1.601-.408-2.475-.26-.436-.504-.647-.764-1.083-.016-.227 1.087-.76.567-1.634-.065-.905.096-1.828.03-2.733.245.21.505.647.96.614.47.194 1.218 1.051 1.85.324.179-.696.226-3.203.81-4.61l.909-.065c.178-.695.128-1.374.777-1.876.455-.032.926.162 1.365-.097-.083-1.132-.457-3.154-.345-4.755l.91-.065c.632-.728 1.005-1.892 1.865-2.636.194-.47-.31-1.116.34-1.618.681-.048 1.38.13 2.273-.162-.05-.679-.392-2.248-.49-3.606.698.178 1.413.582 2.111.76-.049-.68-.098-1.359.08-2.054.455-.033.91-.065 1.608.113-.033-.453-.082-1.132.112-1.601l2.356.97c.503.647.553 1.326 1.933 1.455l-.164-2.264c.455-.032 1.397.356 2.29.064-.553-1.326-1.268-1.73-.928-3.347.47.194 1.153.145 1.64.566-.066-.906.113-1.602.047-2.507.487.42 1.43.808 1.933 1.455l.03-2.733c.716.404.976.84 2.129.986-.05-.679-.553-1.326-.148-2.038.471.194.731.631 1.413.583.616-.955.811-1.424 1.638-2.62l-.096 1.827c.228-.016.471.194.926.162.26.436.78 1.31 1.057 1.973.422-.486 1.038-1.44 1.46-1.925 0 0 .57 1.552.602 2.005.406-.711 1.055-1.213 1.687-1.94.699.177.715.404 1.608.112.195-.469.145-1.148.34-1.617.682-.049 1.202.825 1.835.097-.016-.226.178-.695.162-.922.454-.032 1.136-.08 1.607.113.617-.954.795-1.65 1.638-2.62.326 1.342.18 2.49.734 3.817.47.194.893-.291 1.17.372.26.436.292.89.552 1.326.439-.259.633-.728 1.315-.777.227-.016.959.615 1.64.566.195-.469.146-1.148.811-1.423.455-.032.926.162 1.137-.08.21-.244.567-1.635 1.476-1.7 0 0 .553 1.327 1.463 1.262l.909-.065c.05.68-.129 1.375.131 1.812.666-.275.86-.744 1.77-.809.421-.485.6-1.18 1.038-1.44.244.21.537 1.1 1.202.825.438-.259.877-.517 1.298-1.003.455-.032-.487-.42.91-.064l-.047 2.506.909-.064c.666-.275 1.315-.777 2.484-.405.422-.485 1.088-.76 1.038-1.44.764 1.084.586 1.78 2.6 1.181.421-.485 1.054-1.213 1.963-1.278.244.21.504.647.731.631 1.055-1.213 1.427-2.378 2.775-2.701.033.453.52.873.342 1.569 1.088-.76 1.948-1.505 3.506-2.07l.909-.066c.682-.048 1.413.582 2.063.081.211-.243.405-.712.616-.954.227-.016.942.388 1.835.097.893-.292 2.013-.599 2.939-.437-.34 1.617-.956 2.571-2.238 3.8-.666.276-1.331.55-1.981 1.052l-.112 1.601c-1.348.324-1.624-.34-2.662 1.1l-.113 1.602c-.876.517-1.542.792-1.915 1.957.244.21.244.21.748.857a8.15 8.15 0 00-1.622 2.847c.488.42 1.17.371 1.674 1.018-.617.955-.795 1.65-2.159 1.747.715.404 1.608.113 1.917 1.23.682-.05 1.12-.308 1.819-.13-.195.469-.844.97-.324 1.843l-.258 2.75c-.178.696-.372 1.165-.55 1.86l1.835.097.082 1.132c.909-.065 1.818-.13 2.76.259-.422.485-.583 1.407-1.493 1.472.017.226.732.63.326 1.342l-1.022 1.666c.277.663 1.219 1.051 1.09 2.426 0 0-1.071.987-1.98 1.051.909-.064 1.575-.34 2.517.049.033.453.309 1.116.115 1.585.942.388 1.884.776 3.037.921-.649.502-1.737 1.262-2.841 1.796.471.194 1.121-.308 1.414.582-.877.518-1.542.793-2.175 1.52l1.136-.08c-1.071.986-1.72 1.488-3.262 2.28.471.194 1.542-.792 1.43.809-.86.744-1.493 1.472-1.638 2.62.471.194.325 1.343 1.185.598-.421.486-1.265 1.456-2.174 1.52.016.227 1.169.373.747.858-.438.259-1.087.76-1.736 1.262 1.169.372 2.338.743 3.459.436-1.721 1.488-2.937 3.623-5.21 3.785.26.437.748.857.797 1.537-.649.501-1.299 1.002-2.175 1.52.016.227.991 1.068.586 1.78-1.364.096-2.972-.017-4.352-.146.276.663.975.84.586 1.779h-3.2c.034.453 1.17.372.31 1.116l-1.087.76c-.195.47.31 1.116-.356 1.391-1.348.324-2.208 1.068-3.832.728-.698-.177-1.348.324-1.802.356.098 1.359 1.186.599 1.657.793.892-.291 1.624.34 1.624.34-.39.937-1.737 1.261-1.964 1.277-.422.485-.162.922-.113 1.601-.438.26-1.12.308-1.785.583-1.022 1.666.032.453-.13 1.375-1.298 1.002-2.694.647-4.286.76l.099 1.359c-.438.258-.893.29-1.331.55-.373 1.164-.65.501-1.299 1.002-1.364.098-2.76-.258-4.14-.387-.113 1.6 1.007 1.294 1.51 1.94-.665.275-1.347.324-2.012.599-4.71-1.94-.86.744-1.299 1.003-.438.259-.909.065-1.59.113l.065.906c-.877.517-1.802.356-2.939.437-.373 1.164.586 1.779.846 2.216-1.07.986-2.451.857-4.026 1.197-.195.469.066.905.326 1.342-.91.065-1.835-.097-2.517-.048l.114 1.585c-1.347.323-2.5.178-3.864.275.05.68.537 1.1.797 1.536.276.664.52.874.78 1.31-.893.292-1.591.114-2.273.162-.438.26.05.68.066.906-.682.049-2.29-.064-2.517-.048l.115 1.585c-.682.048-2.29-.065-2.517-.049-.633.728-.39.939-.097 1.828-.649.502-1.347.324-2.029.372.016.227-.178.696-.162.922-.633.728-1.33.55-2.03.372-.405.712.294.89.554 1.326-.422.486-1.559.567-1.559.567-.405.711-.307 2.07-.29 2.296-1.331.55-2.517-.048-3.67-.193-.162.922.342 1.568.635 2.458-.405.712-.893.291-1.331.55-.178.695-.6 1.181-.778 1.876-.26-.437-1.024-1.52-1.024-1.52-.162.922-.617.954-1.022 1.666-.91.065-1.397-.356-1.868-.55l-3.182.227c-.293-.89-.537-1.1-1.268-1.731-1.835-.097-3.07-1.374-3.818-2.231-1.915 1.957-2.643 4.512-3.405 6.615-.91.065-2.583-.954-2.81-.938 1.622-2.847 2.074-6.065 3.956-8.475-2.484.404-4.417-1.051-6.334-2.28.698.178.893-.291 1.33-.55-2.11-.76-2.226-2.345-3.055-4.334-.326-1.343-1.35-2.863-1.643-3.753.438-.258.633-.727 1.071-.986-.975-.841-1.755-2.151-2.275-3.025.698.178.876-.517 1.314-.776-.991-1.067-1.317-2.41-1.431-3.995.243.21.714.405.958.615-.293-.89-.586-1.78-1.09-2.426.666-.275 1.137-.081 1.819-.13-.959-.614-1.74-1.924-2.243-2.571.682-.049 1.38.13 2.062.08-1.007-1.293-1.755-2.15-2.113-3.946l1.136-.08c-.065-.906-.797-1.537-1.3-2.184-.033-.453.178-.695.372-1.164-.065-.906-.098-1.359-.375-2.022.699.178 1.413.582 2.112.76-1.446-1.035-1.14-3.105-1.043-4.933l-.213-2.944c-.082-1.132.29-2.296.436-3.444.698.177 1.478 1.487 1.722 1.698.145-1.149.307-2.07.469-2.993.438-.258.91-.064 1.364-.097-.082-1.132-.148-2.038-.003-3.186.439-.259.91-.065 1.364-.097-.553-1.326-.407-2.475-.506-3.833 1.38.13 1.51-1.246 1.655-2.394-.099-1.359.389-.938.633-.728z" fill="url(#paint0_radial)"/><path d="M97.606 55.785c-7.305 3.251-15.245 4.044-22.16 6.358 1.612 6.485 4.71 1.94 7.082 3.137-4.238 1.44-9.403-.469-13.56-1.083-5.68 3.591-11.996 4.724-18.345 5.404-1.687 1.94-2.903 4.076-4.347 6.227 5.149 1.681 9.06-1.1 13.574-1.877l18.98-2.946c-6.023 2.023-12.55 3.398-18.378 4.951 3.166-.453 5.749.5 8.104 1.471-7.373-.84-15.49.648-20.555 3.285.619 2.232 2.73 2.992 4.209 4.48-3.197 3.186-8.085 1.941-11.835 3.801-1.996.825-2.563 2.459-3.602 3.898 3.46.437 6.365-.453 9.548-.68-4.528 3.737-11.947 5.403-15.927 4.094-1.192-10.157 15.322-31.362 23.063-38.058 4.415-2.136 4.752-6.939 8.225-9.462 4.772-3.526 6.391-9.56 10.724-12.827 4.139-2.798 6.068-7.715 8.355-10.836 2.175-1.521 2.758-2.928 4.218-4.853 5.826-4.74 11.033-11.71 17.412-15.123-7.028 3.914-9.49 10.918-14.553 16.74 3.295-1.828 7.549-3.04 10.682-3.947-7.5 3.72-14.169 9.43-19.8 13.7 7.32-3.024 15.422-4.74 21.379-7.667-12.16 2.459-23.207 17.13-31.567 21.594 11.917-2.67 21.589-11.097 32.109-14.122-13.065 8.896-23.567 15.334-36.91 20.381-2.353 2.216-10.97 9.43-5.027 9.462 13.444-.503 25.846-5.938 38.902-5.502z" fill="url(#paint1_radial)"/><path d="M105.647 37.46c-3.944 2.33-8.976 5.42-13.813 8.04 1.17.372 1.802-.355 2.81.938-3.637.26-6.787.939-9.888 2.298-4.399 2.362-10.194 4.368-15.048 6.762-4.254 1.213-8.296 2.184-12.451 4.756 1.636-5.807 17.173-8.962 21.439-16.321 3.377-.696 6.82-.486 10.424-1.198 4.448-1.683 9.885-5.484 13.504-9.156l-.031 2.734c1.414.582 2.063.08 3.054 1.148zm-1.192-32.234c-4.205 1.893-8.262 5.823-12.368 9.075-2.303 2.895-3.438 6.162-7.708 7.15-1.783 3.768-4.72 7.391-8.16 10.367-1.962 4.465-5.287 9.026-10.108 11.873-2.35 5.402-6.115 10.223-10.382 14.396-2.157 4.933-4.556 9.656-9.605 12.52-2.027 3.558-3.452 9.122-8.355 10.837-1.005 1.892 2.342 3.93-2.788 5.66-1.444 2.152-3.406 6.616-6.002 8.622-5.49-.064-17.383-9.687-8.523-41.955C23.384 62.667 25.73 72.97 32.88 80.2c-.007-9.56-5.503-19.182-5.348-29.663.063-2.28.11-4.788 1.116-6.68 1.064 11.532 2.842 23.468 9.28 33.48-6.815-15.22-.122-33.222-3.349-49.38.88 2.669 2.002 5.548 3.757 7.699.045-5.694-2.264-9.17-2.43-14.621.78 1.31 1.528 2.167 2.747 3.218.55-1.86.841-4.157 1.62-6.033 1.717 17.403-5.69 38.187-.008 56.674 4.535-16.255 7.363-33.982 6.1-51.418.91-.065 1.852.323 2.94-.437l.013-2.96c-.635-2.458-2.163-4.625-1.467-7.634.732.63 1.723 1.698 2.698 2.54.356-1.392.485-2.767 1.54-3.98-.183 16.4-6.195 34.355-3.146 51.208 1.476-1.699 3.57-4.351 5.257-6.292 4.811-15.593 3.858-31.912 8.751-46.372.293.89.082 1.132.83 1.99.6-1.182.923-3.025 1.978-4.239-2.864 14.088-8.407 29.05-7.08 44.205 3.341-4.335 7.023-10.287 6.953-17.566.487.42.682-.048.991 1.067 3.487-8.67 6.629-18.909 8.197-28.806-1.259 11.014-3.443 21.867-7.024 32.365 1.575-.34 2.695-.647 4.22-1.666.015-2.96-.67-6.098.758-8.476.115 1.585.035 3.64 1.237 4.464 3.762-8.006 4.193-17.824 8.798-26.801-.644 6.874-4.748 13.312-4.19 21.01 2.385-1.763 4.122-3.024 4.769-6.712.565-4.82 2.77-9.074 5.186-13.57-1.15 3.04-2.235 6.987-1.486 11.03.406-.712 1.493-1.472 1.655-2.394 1.444-2.151 1.962-4.464 2.707-6.793-.162.922-.307 2.07-.225 3.202 4.122-3.024 8.294-5.37 13.23-6.632zm-13.46 3.462c.162-.922.551-1.86.762-2.102-.178.695-.584 1.407-.762 2.102zm11.608 18.292c-2.351 5.403-6.928 8.46-13.455 9.835-6.395 3.187-13.539 5.517-19.203 9.334 6.182-6.13 15.273-9.964 22.105-16.596-.356 1.39 3.314 1.585-1.118 3.494 4.675-1.7 7.727-3.737 11.671-6.067zm-1.191-6.97c-4.185 5.305-9.43 5.45-15.338 9.058-2.468.631-5.358 1.747-7.615 2.136 1.299-1.003 2.792-2.475 4.3-3.72 7.21-1.425 13.038-2.978 18.653-7.475zm-.834-8.363c-3.246 2.508-6.168 3.171-7.984 6.487 2.922-.663 5.179-1.052 7.825-2.378-4.123 3.024-8.31 5.144-13.652 7.117 3.002-2.717 5.972-5.888 8.454-9.478 2.046-.146 3.36-.923 5.357-1.748z" fill="#508A0F"/><path d="M68.706 6.866c-1.12.307-1.526 1.02-2.89 1.116-1.345 3.51-2.934 6.81-3.58 10.497-1.378 3.057-1.376 6.243-2.527 9.284-.712 2.782-2.697 19.537-1.348 22.4-.23-3.17.978-18.05 3.07-20.702 1.02-4.852 1.358-9.656 3.757-14.379.567-1.633.924-3.024 2.693-3.833l.825-4.383zm7.274-.518c.002 3.186-.743 5.515-1.732 7.634-.11 4.787-6.126 16.368-5.083 21.3.452-3.218 3.204-15.704 7.81-21.494.374-1.165.763-2.103 1.135-3.268.584-1.407 1.411-2.603 1.296-4.188-1.364.097-2.5.178-3.426.016zm15.961-.454c-1.12.307-1.802.356-2.89 1.116-.5 2.54-1.262 4.642-1.553 6.938.422-.485 1.624.34 1.898-2.183.762-2.103 1.54-3.979 2.545-5.871zm-7.485.76c-.6 1.181-1.249 1.683-1.15 3.041-.795 1.65-1.59 3.3-1.669 5.354-.89 3.477-2.512 6.324-2.915 10.221l.665-.274c1.313-3.963 2.463-7.004 4.247-10.772.583-1.407 1.15-3.04 1.263-4.642 0 0 1.022-1.666 2.175-1.52-.748-.858-1.69-1.246-2.616-1.407zm-31.643 4.758c.166 5.45-2.199 13.812-2.49 16.109a36.099 36.099 0 01-2.348 8.588l.054 7.052c-.904 6.437-.867 13.262 1.345 18.566-.068-4.091-1.696-10.803-1.035-17.45.337-4.804.532-5.273 1.811-9.688-.862-2.442 3.839-13.247 4.195-14.637 1.28-4.416-1.532-8.54-1.532-8.54z" fill="url(#paint2_linear)"/><path d="M93.792 45.014c-18.884-3.606-46.047 20.86-43.72 42.491.26 15.452 11.9 26.525 21.472 36.054 15.522 12.619 42.685 10.043 58.465-5.151 13.453-19.314 10.09-45.582 3.364-67.471-.777-5.15-28.974-5.408-39.58-5.923z" fill="url(#paint3_radial)"/><path d="M67.405 53.77C56.798 62.267 48.779 75.401 50.33 87.505c.259 15.452 11.9 26.525 21.471 36.054 15.522 12.619 42.685 10.043 58.465-5.151 4.398-6.18 6.985-13.133 8.279-20.344.258-2.833.258-5.923 0-9.013-1.035 11.331-7.761 23.177-17.85 29.1 11.124-11.074 19.402-39.144 10.089-54.595-5.174 20.344-11.641 38.886-36.993 44.551 16.556-9.013 31.043-29.615 31.56-48.93-7.243 18.285-21.213 38.887-44.754 40.432 5.95-4.635 15.004-8.756 17.85-16.224-7.76 5.665-16.298 9.786-25.87 11.588 12.418-8.755 26.646-18.026 34.148-31.16C93.533 75.402 78.27 83.127 63.783 92.656c3.104-10.559 9.313-20.087 18.109-28.843-7.503 4.378-20.179 16.997-25.87 24.207 2.07-7.21 8.02-20.087 17.85-27.812-9.572 3.09-20.954 19.314-20.954 31.16.517-2.06-.259-22.92 18.367-37.34-1.552 0-2.846-.258-3.88-.258z" fill="url(#paint4_radial)"/><path d="M93.275 45.014h-.518c1.035 1.802 1.811.257 3.105 1.545l8.278.772-7.502 1.546c1.293 0 5.432 1.03 6.467.515 3.363-1.03 6.209.257 8.796 1.03-3.622 1.545-3.363 1.803-6.726 2.833l-4.916 3.347c1.294-.515 4.916-1.287 5.174-1.287 2.587.257 4.916-1.03 7.244-1.545 1.035-.516 2.069-.773 2.845-1.03-4.397 1.545-6.726 2.575-10.347 6.18-1.035 1.288-1.811.773-2.587 1.288 2.845.257 4.656-.258 6.726-1.288 2.069-.515 3.621-.515 5.432-1.03l-1.293 1.03c1.811-.258 3.104-.773 4.915-1.288.776 1.546-.259 1.803-.259 3.348 1.035-.772 1.553-.257 2.846-.772 1.552.257 2.846-1.03 3.622-1.288v5.923c1.552.515 2.069-1.03 3.363-1.545-.776 4.12.776 7.468.776 11.589-.259 4.892-3.363 9.013-4.657 13.133 1.294-1.287 3.363-2.575 4.657-3.605-.518-1.545.259-2.575.259-3.605 2.328-.773 2.845-2.833 4.139-5.15-.259-2.061.517-5.924.776-6.697V73.6c1.811 2.575 1.552 5.408 1.552 8.756 1.293-1.803 2.069-2.833 2.846-4.893 0 4.12.517 7.468 1.293 11.331.517-12.619-2.328-25.495-5.95-37.084-.776-5.15-28.974-5.408-39.322-5.923-.517-.772-.776-.772-1.034-.772z" fill="url(#paint5_radial)"/><path d="M91.982 46.559c-10.607-.258-19.403 4.378-25.87 10.816 4.398-1.288 10.09-4.636 15.004-4.636-2.328 1.803-5.432 2.833-7.243 5.924 4.656-2.576 8.537-4.893 13.97-4.893 2.586-1.803 3.621-3.348 7.243-3.606-4.915 0-9.313.258-13.97 1.545 4.14-1.03 7.244-2.06 10.866-5.15zm11.899 13.906c-5.69 3.09-26.904 15.194-32.336 26.268 6.467-8.499 21.213-19.057 32.336-26.268zm15.522.258c-5.95 8.756-10.865 14.936-15.263 24.465 8.278-5.15 12.676-14.937 15.263-24.465zm-8.278 1.802c-8.796 7.726-14.746 19.057-25.61 26.526 9.83-6.181 23.799-14.68 25.61-26.526zm-25.61 26.268c-1.294.773-2.588 1.545-3.623 2.318 1.294-.515 2.329-1.288 3.622-2.318zm.517-25.237c-9.313 2.06-16.298 11.073-20.437 18.284 5.432-6.953 15.78-13.649 20.437-18.284zm3.88 2.317c-11.641 4.378-20.437 14.68-23.024 22.662 5.691-6.953 14.228-15.966 23.024-22.662zm10.606 2.318c-11.64 5.923-25.869 15.966-34.147 26.525 5.174-7.726 18.626-14.936 34.147-26.525z" fill="#BC682A"/><path d="M88.618 49.907c-7.76 1.802-18.367 3.863-22.765 12.103 2.846-.515 5.433-2.06 8.796-2.832-3.363 1.802-10.09 9.27-12.676 15.451 4.139-4.12 10.606-11.588 16.815-13.391-6.985 5.15-9.313 9.528-12.676 14.164 3.88-3.863 6.208-7.211 13.97-9.529-4.14 2.833-10.866 15.194-11.125 15.452 4.398-8.241 23.024-20.86 32.079-25.238-4.657.258-9.572 1.545-13.453 2.833 2.587-2.06 6.727-4.378 11.383-6.438-5.691.515-13.193 3.09-16.298 4.636 3.105-2.576 10.607-4.378 15.522-6.181-2.846.515-5.433 1.03-8.278 1.803 1.293-.773 7.243-2.576 8.795-2.833-8.278-.515-17.073 3.605-21.471 5.15 3.104-2.06 7.76-4.12 11.382-5.15zm13.97 9.786c-5.174 1.03-18.368 10.3-24.318 16.739 9.83-5.923 17.074-11.074 24.318-16.74z" fill="url(#paint6_radial)"/><path d="M123.024 70.766c-5.432 6.18-11.124 13.649-17.332 20.602 0-.257.258-.515.258-.772-9.054 7.983-24.834 12.103-36.476 16.224 2.846-1.288 5.174-1.545 7.244-3.863 11.382-4.893 23.541-14.68 29.75-25.495-3.881 5.665-5.174 7.983-11.642 10.558-10.347 5.666-20.695 13.134-33.112 12.362C74.907 91.111 90.946 87.248 100 72.569c-12.158 9.013-24.317 17.512-37.77 23.95-1.81.772-3.362 1.03-5.173 2.575 1.81-8.756 4.657-16.224 9.83-23.692-5.432 6.18-11.123 12.36-13.193 21.117-.517-6.438-.259-13.134-.259-19.83-1.552 3.863-2.587 6.953-3.363 9.529v1.287c.259 15.452 11.9 26.525 21.472 36.054 15.522 12.619 42.684 10.043 58.465-5.151.517-.772.776-1.545 1.293-2.06-10.865 5.408-17.85 8.498-30.784 7.983 6.467-2.832 13.193-6.438 17.332-12.876-8.537 8.498-24.834 6.953-36.734 7.468 20.695-9.271 41.908-4.12 49.152-35.796-4.916 13.392-23.542 32.449-40.615 27.04 15.521-6.695 27.939-25.752 33.371-39.4z" fill="#802D03"/><path d="M80.34 56.602c-8.537 2.06-13.452 6.181-16.815 14.164 5.432-6.18 9.313-10.558 16.815-14.164zm22.506 1.03c-12.934 3.09-17.332 7.984-22.506 13.392 9.572-6.953 18.626-12.104 22.506-13.392z" fill="#CF8D5E"/><path d="M93.792 48.619c-10.865-.773-19.402 2.06-26.387 10.301 6.985-5.15 17.074-8.498 26.387-10.301zM69.216 61.495c6.726-4.378 19.144-9.786 24.835-10.558-10.607.772-20.696 3.605-24.835 10.558z" fill="#CF8D5E"/><path d="M53.436 98.836c2.587-7.468 8.278-16.224 13.193-21.89-2.845 3.864-5.173 12.362-5.173 12.362 2.587-2.833 11.123-18.284 33.112-25.237-25.093 15.709-35.7 38.371-33.889 41.976-1.293 2.576-4.397-6.695-7.243-7.21z" fill="url(#paint7_linear)"/><path d="M88.877 80.295C70.77 93.686 59.903 96.519 58.093 100.382c0-5.408 1.034-10.816 3.104-16.224-2.846 5.408-5.95 10.558-5.691 17.769-1.553-2.833-2.587-6.18-3.363-10.044 0 2.06 0 3.863.258 5.923 3.88 10.301 12.159 18.542 19.402 25.753 13.453 10.816 34.924 10.558 50.705.772-10.607 3.091-23.283 4.378-33.89 1.031 10.348 2.06 25.87-1.546 31.82-13.392-4.139 5.151-20.437 12.104-30.785 9.529 11.642-.773 34.924-10.044 39.581-31.933-8.537 22.404-47.859 31.933-51.998 28.842 8.278-1.545 21.73-4.893 28.715-9.271-8.537 2.576-16.556 5.408-26.387 4.378 17.591-6.438 33.631-15.709 40.874-34.508-8.02 14.421-23.024 30.646-45.272 29.1 5.95-1.545 11.642-4.378 17.333-8.498-8.02 3.605-20.178 7.983-29.491 5.665 4.656-1.287 24.058-6.695 29.75-14.42-8.02 5.922-20.178 11.845-25.87 8.755 10.09-5.15 15.263-9.528 21.99-19.314zM61.197 83.9c.517-1.288 1.293-2.575 1.81-3.863-.517 1.288-1.293 2.575-1.81 3.863z" fill="url(#paint8_radial)"/><path d="M51.884 75.66c2.845-12.877 17.074-25.753 25.87-27.556-11.642 8.24-25.612 29.1-26.388 39.916-1.293-1.545.776-10.3.518-12.36z" fill="#BC682A"/><path d="M71.544 55.83c-9.054 3.348-14.228 12.876-15.78 20.86 2.07-9.787 12.935-13.65 15.78-20.86z" fill="#CF8D5E"/><path d="M71.027 105.532c16.298-.515 30.526-11.074 41.908-21.632-7.243 15.709-25.352 24.465-41.908 21.632z" fill="url(#paint9_linear)"/><path d="M138.029 78.234c-1.035 1.03-1.293 3.606-2.069 4.636 1.811 18.284-8.02 33.736-15.522 41.204 17.074-7.983 20.437-28.843 17.591-45.84z" fill="#BC682A"/><path d="M64.818 59.693c-4.915 1.545-8.02 6.953-10.089 11.588 2.07-4.12 6.209-7.725 10.09-11.588zm6.727.515C58.091 63.04 51.365 81.84 50.33 89.05c3.622-9.27 10.607-24.465 21.213-28.842z" fill="url(#paint10_radial)"/><path d="M56.54 67.676c-5.432 7.21-6.985 14.936-5.432 23.692 1.293-10.3 4.915-20.344 11.123-28.327-2.845 1.545-5.69 4.377-5.69 4.635z" fill="#A14302"/><path d="M3.635 88.758c-3.42 15.206-2.963 27.688 4.332 40.17 10.03 18.836 28.953 24.51 44 16.34 10.715.681 18.922-2.723 23.025-12.709 6.84-7.489 10.487-14.752 11.4-24.737-5.7-13.39-78.881-32.227-82.757-19.064z" fill="#953F05"/><path d="M7.51 118.942c-.227 2.043-.683 4.085-1.367 6.355a27.042 27.042 0 001.824 3.631c10.03 18.837 28.953 24.51 44 16.34 10.715.681 18.922-2.723 23.025-12.709 2.052-2.269 3.876-4.539 5.472-7.035l-.456-.454c-3.192 4.312-7.067 6.581-12.767 3.631-3.42 1.816-7.523 2.95-11.627 3.404-.684.681-2.051 1.135-2.28 2.27-16.414 12.709-46.279 2.723-45.823-15.433z" fill="url(#paint11_linear)"/><path d="M39.884 133.921c-4.56 2.723-15.503-.227-21.43-.227 7.523 4.766 23.482 6.581 30.321 2.723 1.596-.454 2.964-1.815 3.876-2.496.228 2.496-1.368 4.539-2.052 6.127 3.876-.454 7.067-4.539 8.435-7.943 4.104-.454 7.067-1.135 10.487-3.177 8.207-2.27 12.995-8.624 15.959-14.979-5.7 7.49-48.788 13.39-48.788 13.39-1.368-4.085-17.554-3.404-20.518-1.815 5.7 7.489 15.73 7.943 23.71 8.397z" fill="url(#paint12_linear)"/><path d="M13.895 72.191c-.684 2.496-1.14 4.539-3.42 5.674C-.924 87.17.444 94.885.9 106.006c3.875 19.518 36.248 31.319 54.486 23.149 1.824-.454 3.648-.454 5.472-.908 5.7.681 10.715-3.404 14.819-5.447 10.714-5.673 15.274-21.333 3.875-27.006-7.295-14.525-13.223-14.298-26.445-17.021-5.472-.454-11.171-.454-15.959-2.724-7.295-2.27-19.15-3.858-23.254-3.858z" fill="url(#paint13_linear)"/><path d="M16.63 78.773c-3.42 1.815-5.927 4.992-8.89 7.489-6.612 16.34-4.104 10.893-2.964 13.39 2.507-4.312 6.383-4.085 10.486-4.54 5.7-.226 9.348.909 14.135 2.951.228-5.22-.456-9.305-1.596-14.07 4.104-.455 8.207 2.723 11.855 4.538 4.788.908 8.663 1.816 13.45 2.27 2.509-1.135 10.716-2.27 11.172-2.27-3.648-6.127-12.767-7.035-17.783-8.17-.911 1.362-1.595 3.177-2.28 4.54-6.383-2.951-16.642-3.859-18.466-4.54-6.383 4.312-7.979-1.362-9.119-1.588z" fill="#F8E8C7"/><path d="M31.905 84.22c3.647 1.815 5.927 3.63 8.663 5.22 2.508 1.36 5.7 2.496 7.751 3.857 1.824.908 3.648 2.497 5.016 3.858-.228 2.043.456 3.858 1.14 5.674.911 1.135 1.823 2.269 2.735 2.95-.684 3.177-1.367 6.128-1.596 9.532 0 .681.229 1.362.456 2.043-3.875-4.993-8.663-11.121-13.45-15.887-4.104-4.993-7.752-12.709-10.715-17.248z" fill="#F8E8C7"/><path d="M35.096 98.744c.684 3.404 2.052 5.901 3.648 8.397 6.611 2.723 13.679 5.447 17.326 11.12-.456-4.539-2.963-9.531-3.191-12.709-4.56-11.801-19.378-16.34-25.534-24.283 5.928 5.22 6.612 10.44 7.752 17.475z" fill="url(#paint14_radial)"/><path d="M69.293 87.85c-2.28.681-3.876 1.135-5.243 2.95-5.016 1.362-8.664 2.043-12.311 2.043 3.192 2.497 5.927 4.312 10.487 4.54 2.052-.908 3.191-1.59 4.787-2.951 1.368.908 2.508 1.816 4.332 2.042 1.824-.227 3.42-.227 5.243-1.361-1.14-1.816-2.507-4.54-3.647-6.809-1.368-.227-2.508.227-3.648-.454zM30.31 95.794c-.684 2.27-1.368 4.539-.912 7.262-.912 0-1.596-.681-2.508-.227-2.963.908-6.155 2.042-8.891 4.312 1.596-.227 3.648-.681 5.471-.227 3.876 0 7.98.227 11.855-.227-1.596-4.085-2.28-8.397-5.015-10.893z" fill="#EFCD92"/><path d="M.9 104.191c-.457 5.219.455 10.212 3.419 12.255 1.596.908 1.824 2.95 4.331 2.269 1.368 4.312.228 4.993 5.244 6.128 3.191 1.361 5.015 2.269 8.663 3.404 2.508.908 5.016 1.816 7.295 2.043.912 0 1.824-.227 2.964-.227 5.7.907 12.539 2.723 19.15.907 2.052-1.134 3.876-2.269 6.383-2.95 2.052.227 4.104.681 6.156.454.912-.908 1.824-1.135 1.824-2.95 1.368-.227 2.963-.227 4.56-.227 7.523-3.631 12.994-9.305 14.818-17.929-3.648 2.723-7.067 7.262-12.995 7.489-2.964 1.135-5.243.454-8.663-.908-.228-1.134-.456-3.177-.228-4.766-1.824 3.405-6.155 4.993-6.383 9.078.683 1.816.911 1.816 2.735 2.951l-4.103 2.723c-2.964.908-6.384 2.269-10.031 1.589-1.596.227-3.192 0-4.332 1.361-7.295 0-15.274-2.042-22.57-4.312-.456-.907-1.14-1.588-1.823-2.496-1.824-1.135-4.56-.908-5.7-3.404-2.736-2.724-4.788-3.178-4.332-8.17-1.367-.227-2.963-.227-4.331-.454-1.824-2.724-2.052-2.27-2.052-3.858z" fill="#FAEED5"/><path d="M43.988 91.482c2.508 3.404 7.979 3.404 11.855 6.127.228 1.135.456 2.27.684 3.177l.228.227c.456.908 1.14 1.816 1.595 2.497-.912 4.085-1.595 6.581-2.051 10.666.228-4.539-1.596-7.716-2.964-10.666-.912-6.128-5.928-8.851-9.347-12.028z" fill="#CB9E74"/><path d="M27.573 142.545c9.12 3.858 18.01 1.134 25.99-4.312-4.56 9.758-19.378 10.893-25.99 4.312z" fill="#8E3F05"/><path d="M4.32 116.9c-.456 0-.912 0-1.368.227.912 4.085 2.507 7.943 4.787 11.801 5.244 9.986 12.995 16.113 21.43 18.61.456-.227 10.487 1.134 10.943.68-10.943-.681-22.342-7.035-25.306-12.482 4.104 5.447 20.063 10.667 30.778 7.263-9.12.453-27.814-4.993-34.425-13.39 7.751 6.808 20.746 7.716 19.606 6.808-6.155-.908-19.834-6.808-21.886-12.482-1.824-1.362-3.42-5.22-4.56-7.035z" fill="url(#paint15_linear)"/><path d="M7.967 86.489c-.912-4.54 1.14-6.582 5.016-8.397.456-1.135 1.824-3.177 2.28-3.858 2.507-.454 3.647.454 5.699 1.361 3.192.454 6.155 1.589 9.347 2.497h-8.435c-1.824 0-2.28 1.362-3.648 2.27-4.787.68-6.84 3.177-10.259 6.127z" fill="#ECC37D"/><path d="M1.812 107.141c.683-6.355 2.051-11.347 2.051-17.702 1.368-3.631 3.42-5.447 5.7-7.035 2.052-2.724 4.787-4.766 7.067-7.036 2.508-.907 4.788-1.134 7.523-1.134-2.963-1.362-5.471-1.816-8.89-2.043-.913-2.496-1.597.227-2.053.454-.684 3.631-3.875 6.128-5.7 7.716-3.19 2.724-4.103 4.54-5.243 7.49-1.823 5.22-1.14 11.347-1.14 17.021.229 4.312.685 2.95.685 2.269z" fill="#EABF73"/><path d="M54.93 117.808c1.14 4.085 3.876 4.992 5.928 8.396 3.42.227-13.907 2.951-12.995 2.27-2.28-.681 12.995-2.269-2.736-14.071l9.803 3.405z" fill="#EFCD92"/></g><g filter="url(#filter0_f)"><path d="M118.433 156.552c-13.749-10.484-12.874 6.249-7.701 10.788 3.979.654 12.151-2.784 18.294-4.943 3.119-5.803-6.371-3.37-10.593-5.845z" fill="url(#paint16_linear)"/><path d="M132.511 155.535c-4.179.384-10.23-1.85-13.211-2.635-1.607-.631-3.026-1.117-4.466-1.769-2.451.66-2.02 2.625-2.897 4.931-.19 2.384.307 4.845.638 7.329.563 2.958 2.703 2.507 5.263 2.675 3.394-2.47 7.297-3.66 11.621-4.231 3.403-1.123 4.036-2.723 3.052-6.3z" fill="url(#paint17_linear)"/><path d="M114.003 151.24c-1.873-.09-2.905 1.057-4.169 1.73-.788.441-1.198 1.169-1.797 1.753-.301 1.556.064 3.024.263 4.514 1.737 4.152 3.266 5.466 5.227 6.218-2.036-5.123.595-9.514.476-14.215z" fill="#975D35"/><path d="M132.678 155.513c-1.453.529-.323 1.39-.567 2.097-.799 1.621-1.641.385-2.639.516-1.717-1.458-2.925-1.635-4.488-1.934-2.448-1.867-5.696-2.112-9.022-1.673-1.895-.255-1.651-.961-1.871-2.617.31-.209.454-.397.787-.441 4.931 2.719 13.699 3.751 17.8 4.052z" fill="#F1D5A3"/><path d="M128.772 161.757c.4-2.075-1.373-2.683-1.772-3.136-1.795-.773-3.27-.41-5.099-.169.277.806-.865 1.125-1.154 1.501.199 1.49-3.628 4.522-3.285 5.825 1.166-2.681 8.228-4.288 11.31-4.021z" fill="#B86E28"/></g><g filter="url(#filter1_f)"><path d="M120.957 181.873c-2.763 6.299 1.772 9.471-12.683 9.336-5.497-2.24-10.666-8.088-4.163-18.562 6.981-4.465 12.337 4.164 16.846 9.226z" fill="url(#paint18_linear)"/><path d="M105.346 171.516c2.876.176 3.768-.093 6.494.558 5.036-.361 10.792 4.739 9.779 8.534-.12 4.712-5.667 5.242-10.133 5.502-2.435-.209-5.049-1.809-7.071-2.729-4.223-4.418-5.03-4.589.931-11.865z" fill="url(#paint19_radial)"/><path d="M116.494 185.071c-.65.439-4.067-3.807-4.771-3.538-2.806-.311-5.315.903-7.67.355-.467.541.006 1.085.157 1.797 2.135 1.158 3.992 4.045 5.81 5.27 1.144-.303 6.782-1.374 7.808-1.813 2.407-1.655 2.684-4.571 4.483-6.601-.628 1.22-3.786 4.06-5.817 4.53z" fill="#C17F3C"/><path d="M104.876 173.879c-.13 1.444-.433 3.163-.563 4.606-.172.276.105.446-.066.722 2.794-.186 4.626.561 6.84 1.924.317 1.338-1.132 1.208-1.303 1.483-1.832-.746-4.52-.115-5.139.266-2.28-.642-2.492-1.534-3.257-2.766.71-2.992 2.185-4.751 3.488-6.235z" fill="#F1D5A3"/></g><g filter="url(#filter2_f)"><path d="M99.352 173.296s.798 15.686-16.864 8.433c-5.745-2.451-4.373-9.927-3.89-18.313 7.155-3.917 16.108 4.488 20.754 9.88z" fill="url(#paint20_linear)"/><path d="M97.982 158.35c1.773 3.335 2.806 4.235 3.767 7.599-.998 3.742-1.668 13.361-5.785 14.655-7.104 1.832-11.82-4.239-15.37-9.196-1.413-2.85-.88-6.483-.942-9.16 6.143-5.196 11.7-2.83 18.33-3.898z" fill="url(#paint21_radial)"/><path d="M85.689 176.655c-1.115-.554-1.359-4.004-2.414-4.654-1.523-3.313-.863-7.791-1.81-10.75-1.137-.304-1.612.46-2.566.929-.213 2.905-.544 6.001-1.081 8.574 1.26 1.173 4.196 7.335 5.575 8.316 4.17 2.039 8.708 1.136 13.006 2.329-2.046-.335-8.572-2.636-10.71-4.744z" fill="#C17F3C"/><path d="M82.804 166.005c.65-1.047 1.3-2.094 1.687-3.303 3.728-1.323 7.72-2.484 11.486-2.698-.038-1.109 1.339-.985 1.664-1.509-2.428-.771-5.832.029-8.06.105-2.39.338-3.99 1.161-6.055.975-.75.624-1.664 1.509-2.414 2.132.401 1.695.965 3.127 1.692 4.298z" fill="#F1D5A3"/></g><defs><radialGradient id="paint0_radial" cx="0" cy="0" r="1" gradientUnits="userSpaceOnUse" gradientTransform="matrix(-52.1218 -25.15066 62.98292 -130.5247 64.025 47.646)"><stop stop-color="#5D931E"/><stop offset=".658" stop-color="#699D22"/><stop offset="1" stop-color="#86B52C"/></radialGradient><radialGradient id="paint1_radial" cx="0" cy="0" r="1" gradientUnits="userSpaceOnUse" gradientTransform="rotate(122.615 30.586 38.848) scale(129.843 56.2434)"><stop stop-color="#A1C43E"/><stop offset="1" stop-color="#71A125"/></radialGradient><radialGradient id="paint3_radial" cx="0" cy="0" r="1" gradientUnits="userSpaceOnUse" gradientTransform="rotate(54.885 -17.469 110.738) scale(86.4313 78.0881)"><stop stop-color="#B8642A"/><stop offset=".153" stop-color="#D39268"/><stop offset=".539" stop-color="#9F4405"/><stop offset=".676" stop-color="#A34300"/><stop offset="1" stop-color="#8C3D06"/></radialGradient><radialGradient id="paint4_radial" cx="0" cy="0" r="1" gradientUnits="userSpaceOnUse" gradientTransform="matrix(88.1762 -39.34047 36.88354 82.66932 87.333 107.851)"><stop stop-color="#802D03"/><stop offset=".588" stop-color="#8C3604"/><stop offset="1" stop-color="#8F3806"/></radialGradient><radialGradient id="paint5_radial" cx="0" cy="0" r="1" gradientUnits="userSpaceOnUse" gradientTransform="matrix(-23.21707 25.59409 -41.1841 -37.35918 124.99 46.96)"><stop stop-color="#DFD0C3"/><stop offset=".53" stop-color="#C49978"/><stop offset="1" stop-color="#B26F3F"/></radialGradient><radialGradient id="paint6_radial" cx="0" cy="0" r="1" gradientUnits="userSpaceOnUse" gradientTransform="rotate(-60.588 92.145 -40.303) scale(23.2783 38.2953)"><stop stop-color="#DCAE92"/><stop offset=".513" stop-color="#D39269"/><stop offset="1" stop-color="#D59062"/></radialGradient><radialGradient id="paint8_radial" cx="0" cy="0" r="1" gradientUnits="userSpaceOnUse" gradientTransform="rotate(-33.57 233.846 -71.31) scale(98.986 47.2269)"><stop stop-color="#4C2103"/><stop offset="1" stop-color="#772B03"/></radialGradient><radialGradient id="paint10_radial" cx="0" cy="0" r="1" gradientUnits="userSpaceOnUse" gradientTransform="matrix(-17.95468 30.43967 -22.51356 -13.2795 63.382 64.63)"><stop stop-color="#E68C53"/><stop offset="1" stop-color="#9F4507"/></radialGradient><radialGradient id="paint14_radial" cx="0" cy="0" r="1" gradientUnits="userSpaceOnUse" gradientTransform="matrix(40.99347 44.30614 -21.4879 19.8813 37.507 93.656)"><stop stop-color="#96450C"/><stop offset="1" stop-color="#F1D5A3"/></radialGradient><radialGradient id="paint19_radial" cx="0" cy="0" r="1" gradientUnits="userSpaceOnUse" gradientTransform="matrix(3.94078 -1.55313 2.33942 5.93583 114.002 177.134)"><stop stop-color="#B0631F"/><stop offset=".52" stop-color="#B36925"/><stop offset="1" stop-color="#F5DBA7"/></radialGradient><radialGradient id="paint21_radial" cx="0" cy="0" r="1" gradientUnits="userSpaceOnUse" gradientTransform="matrix(1.11504 11.84001 -14.59174 1.37419 93.053 168.976)"><stop stop-color="#B0631F"/><stop offset="1" stop-color="#F5DBA7"/></radialGradient><linearGradient id="paint2_linear" x1="68.544" y1="8.264" x2="67.482" y2="55.116" gradientUnits="userSpaceOnUse"><stop stop-color="#A1C43E"/><stop offset="1" stop-color="#71A125"/></linearGradient><linearGradient id="paint7_linear" x1="63.71" y1="91.872" x2="96.41" y2="50.416" gradientUnits="userSpaceOnUse"><stop stop-color="#642703"/><stop offset="1" stop-color="#B15C20"/></linearGradient><linearGradient id="paint9_linear" x1="86.923" y1="101.257" x2="128.417" y2="69.799" gradientUnits="userSpaceOnUse"><stop stop-color="#652703"/><stop offset="1" stop-color="#802D03"/></linearGradient><linearGradient id="paint11_linear" x1="43.006" y1="130.519" x2="42.819" y2="154.514" gradientUnits="userSpaceOnUse"><stop stop-color="#743303"/><stop offset=".579" stop-color="#652C03"/><stop offset="1" stop-color="#8D3E04"/></linearGradient><linearGradient id="paint12_linear" x1="33.383" y1="132.708" x2="105.233" y2="118.674" gradientUnits="userSpaceOnUse"><stop stop-color="#723204"/><stop offset=".548" stop-color="#743303"/><stop offset="1" stop-color="#753304"/></linearGradient><linearGradient id="paint13_linear" x1="15.634" y1="81.11" x2="98.036" y2="151.682" gradientUnits="userSpaceOnUse"><stop stop-color="#F1D5A3"/><stop offset="1" stop-color="#FAEED5"/></linearGradient><linearGradient id="paint15_linear" x1="8.38" y1="127.934" x2="53.053" y2="153.176" gradientUnits="userSpaceOnUse"><stop stop-color="#B45312"/><stop offset="1" stop-color="#953F05"/></linearGradient><linearGradient id="paint16_linear" x1="120.815" y1="154.936" x2="130.293" y2="181.643" gradientUnits="userSpaceOnUse"><stop stop-color="#472215"/><stop offset="1" stop-color="#60301D"/></linearGradient><linearGradient id="paint17_linear" x1="122.516" y1="164.166" x2="113.285" y2="156.907" gradientUnits="userSpaceOnUse"><stop stop-color="#B86E28"/><stop offset="1" stop-color="#DFB47B"/></linearGradient><linearGradient id="paint18_linear" x1="122.022" y1="172.711" x2="74.175" y2="215.422" gradientUnits="userSpaceOnUse"><stop stop-color="#472215"/><stop offset="1" stop-color="#60301D"/></linearGradient><linearGradient id="paint20_linear" x1="100.189" y1="164.137" x2="53.022" y2="207.481" gradientUnits="userSpaceOnUse"><stop stop-color="#472215"/><stop offset="1" stop-color="#60301D"/></linearGradient><filter id="filter0_f" x="105.248" y="149.131" width="29.685" height="20.291" filterUnits="userSpaceOnUse" color-interpolation-filters="sRGB"><feFlood flood-opacity="0" result="BackgroundImageFix"/><feBlend in="SourceGraphic" in2="BackgroundImageFix" result="shape"/><feGaussianBlur stdDeviation="1" result="effect1_foregroundBlur"/></filter><filter id="filter1_f" x="99.061" y="169.405" width="25.25" height="23.808" filterUnits="userSpaceOnUse" color-interpolation-filters="sRGB"><feFlood flood-opacity="0" result="BackgroundImageFix"/><feBlend in="SourceGraphic" in2="BackgroundImageFix" result="shape"/><feGaussianBlur stdDeviation="1" result="effect1_foregroundBlur"/></filter><filter id="filter2_f" x="75.818" y="156.162" width="27.931" height="29.482" filterUnits="userSpaceOnUse" color-interpolation-filters="sRGB"><feFlood flood-opacity="0" result="BackgroundImageFix"/><feBlend in="SourceGraphic" in2="BackgroundImageFix" result="shape"/><feGaussianBlur stdDeviation="1" result="effect1_foregroundBlur"/></filter><clipPath id="clip0"><path fill="#fff" transform="translate(.636)" d="M0 0h138.668v148.837H0z"/></clipPath></defs></svg>