<svg width="172" height="193" fill="none" xmlns="http://www.w3.org/2000/svg"><path d="M65.922 7.907C87 3.852 117.318 31.37 114.719 55.701c-.288 17.38-13.282 29.835-23.965 40.552-17.325 14.193-47.643 11.297-65.257-5.793-15.014-21.724-11.26-51.27-3.753-75.89.866-5.794 32.34-6.083 44.178-6.663z" fill="url(#paint0_radial)"/><path d="M95.373 17.756c11.839 9.558 20.79 24.331 19.057 37.945-.288 17.38-13.282 29.835-23.965 40.552-17.325 14.193-47.643 11.297-65.257-5.793-4.908-6.952-7.796-14.773-9.24-22.883-.288-3.186-.288-6.662 0-10.138 1.156 12.745 8.663 26.07 19.924 32.731-12.416-12.455-21.656-44.028-11.261-61.407 5.775 22.883 12.993 43.738 41.29 50.11-18.48-10.137-34.649-33.31-35.226-55.034 8.084 20.565 23.677 43.738 49.952 45.476-6.64-5.214-16.747-9.848-19.923-18.249 8.662 6.373 18.19 11.007 28.874 13.035-13.86-9.848-29.74-20.276-38.114-35.049C66.21 42.087 83.246 50.777 99.416 61.494 95.95 49.618 89.02 38.901 79.204 29.052c8.373 4.925 22.522 19.118 28.874 27.228-2.31-8.11-8.951-22.593-19.923-31.283 10.683 3.476 23.388 21.725 23.388 35.049-.577-2.317.289-25.78-20.5-42 1.732 0 3.175-.29 4.33-.29z" fill="url(#paint1_radial)"/><path d="M66.5 7.907h.577c-1.155 2.028-2.022.29-3.465 1.738l-9.24.869 8.373 1.738c-1.443 0-6.063 1.159-7.218.58-3.754-1.16-6.93.289-9.817 1.158 4.042 1.738 3.753 2.028 7.507 3.186l5.486 3.766c-1.444-.58-5.486-1.448-5.775-1.448-2.887.29-5.486-1.16-8.085-1.738-1.155-.58-2.31-.87-3.176-1.159 4.909 1.738 7.508 2.896 11.55 6.952 1.155 1.448 2.021.869 2.887 1.448-3.176.29-5.197-.29-7.507-1.448-2.31-.58-4.042-.58-6.064-1.159l1.444 1.159c-2.021-.29-3.465-.87-5.486-1.449-.866 1.738.289 2.028.289 3.766-1.155-.869-1.733-.29-3.176-.869-1.733.29-3.177-1.159-4.043-1.448v6.662c-1.732.58-2.31-1.159-3.753-1.738.866 4.635-.867 8.4-.867 13.035.289 5.503 3.754 10.138 5.198 14.772-1.444-1.448-3.754-2.896-5.198-4.055.578-1.738-.288-2.897-.288-4.055-2.6-.87-3.177-3.187-4.62-5.794.288-2.317-.578-6.662-.867-7.53v5.213c-2.02 2.897-1.732 6.083-1.732 9.849-1.444-2.028-2.31-3.187-3.176-5.504 0 4.635-.578 8.4-1.444 12.745-.578-14.193 2.599-28.676 6.641-41.71.866-5.794 32.34-6.084 43.89-6.663.577-.869.865-.869 1.154-.869z" fill="url(#paint2_radial)"/><path d="M67.943 9.645c11.838-.29 21.655 4.925 28.874 12.166-4.909-1.448-11.261-5.214-16.747-5.214 2.599 2.028 6.064 3.186 8.085 6.662-5.198-2.896-9.529-5.503-15.592-5.503-2.888-2.028-4.043-3.766-8.085-4.055 5.486 0 10.395.29 15.592 1.737-4.62-1.158-8.085-2.317-12.127-5.793zM54.66 25.287c6.353 3.476 30.03 17.09 36.094 29.545-7.22-9.559-23.678-21.435-36.094-29.545zm-17.324.29c6.64 9.848 12.127 16.8 17.036 27.517-9.24-5.793-14.149-16.8-17.036-27.518zm9.24 2.027c9.817 8.69 16.458 21.435 28.585 29.835-10.972-6.952-26.564-16.51-28.585-29.835zM75.16 57.15c1.444.87 2.888 1.738 4.043 2.607-1.444-.58-2.599-1.448-4.043-2.607zm-.577-28.386c10.395 2.317 18.19 12.455 22.81 20.565-6.063-7.82-17.613-15.351-22.81-20.565zm-4.331 2.607c12.993 4.924 22.81 16.51 25.698 25.49-6.353-7.821-15.881-17.96-25.698-25.49zm-11.839 2.607c12.994 6.662 28.874 17.959 38.114 29.835-5.775-8.69-20.79-16.8-38.114-29.835z" fill="#BC682A"/><path d="M71.696 13.41c8.663 2.028 20.501 4.346 25.41 13.615-3.176-.58-6.064-2.317-9.817-3.186 3.753 2.027 11.26 10.427 14.148 17.38-4.62-4.635-11.838-13.036-18.768-15.063 7.796 5.793 10.394 10.717 14.148 15.931-4.331-4.345-6.93-8.11-15.592-10.717 4.62 3.186 12.127 17.09 12.416 17.38-4.909-9.27-25.698-23.463-35.804-28.387 5.197.29 10.683 1.738 15.014 3.186-2.887-2.317-7.507-4.924-12.704-7.242 6.352.58 14.726 3.477 18.19 5.214-3.464-2.896-11.838-4.924-17.324-6.951 3.176.579 6.063 1.158 9.24 2.027-1.444-.869-8.085-2.897-9.818-3.186 9.24-.58 19.057 4.055 23.966 5.793-3.465-2.317-8.662-4.635-12.705-5.793zM56.104 24.419c5.775 1.159 20.501 11.586 27.142 18.828C72.274 36.584 64.19 30.79 56.104 24.418z" fill="url(#paint3_radial)"/><path d="M33.293 36.873c6.064 6.952 12.416 15.352 19.346 23.173 0-.29-.289-.58-.289-.87 10.107 8.98 27.72 13.615 40.713 18.25-3.176-1.449-5.774-1.739-8.084-4.346-12.705-5.503-26.276-16.51-33.206-28.676 4.331 6.373 5.775 8.98 12.993 11.876 11.55 6.373 23.1 14.773 36.96 13.904C87 59.756 69.098 55.41 58.992 38.9c13.57 10.138 27.142 19.697 42.156 26.938 2.021.869 3.754 1.159 5.775 2.897-2.021-9.849-5.197-18.249-10.972-26.649 6.063 6.952 12.416 13.904 14.726 23.752.577-7.241.289-14.773.289-22.304 1.732 4.345 2.887 7.821 3.753 10.718V55.7c-.289 17.38-13.282 29.835-23.965 40.552-17.325 14.193-47.643 11.297-65.257-5.793-.577-.869-.866-1.738-1.443-2.317 12.127 6.083 19.923 9.558 34.36 8.98-7.218-3.187-14.726-7.242-19.346-14.484 9.529 9.559 27.72 7.821 41.002 8.4-23.1-10.427-46.777-4.634-54.861-40.262C30.695 65.839 51.484 87.274 70.54 81.19c-17.323-7.53-31.183-28.965-37.247-44.317z" fill="#802D03"/><path d="M80.936 20.942c9.529 2.317 15.015 6.952 18.769 15.931-6.064-6.952-10.395-11.876-18.769-15.931zM55.816 22.1c14.437 3.476 19.345 8.98 25.12 15.063-10.683-7.821-20.79-13.614-25.12-15.063z" fill="#CF8D5E"/><path d="M65.922 11.963c12.127-.87 21.655 2.317 29.452 11.586-7.797-5.793-19.058-9.559-29.452-11.586zm27.43 14.482c-7.507-4.924-21.367-11.007-27.72-11.875 11.84.868 23.1 4.055 27.72 11.875z" fill="#CF8D5E"/><path d="M110.966 68.446c-2.888-8.4-9.24-18.249-14.726-24.621 3.176 4.345 5.775 13.904 5.775 13.904-2.888-3.187-12.416-20.566-36.96-28.387 28.009 17.67 39.847 43.16 37.826 47.214 1.444 2.897 4.909-7.53 8.085-8.11z" fill="url(#paint4_linear)"/><path d="M71.407 47.59c20.213 15.063 32.34 18.25 34.361 22.594 0-6.083-1.155-12.165-3.465-18.248 3.176 6.083 6.641 11.876 6.352 19.986 1.733-3.186 2.888-6.952 3.754-11.297 0 2.318 0 4.345-.289 6.662-4.331 11.587-13.57 20.856-21.655 28.966-15.015 12.166-38.98 11.876-56.594.87 11.838 3.475 25.987 4.924 37.825 1.158-11.55 2.317-28.874-1.738-35.515-15.062 4.62 5.793 22.81 13.614 34.36 10.717-12.993-.869-38.98-11.297-44.178-35.918 9.529 25.2 53.418 35.918 58.038 32.442-9.24-1.738-24.254-5.503-32.05-10.428 9.528 2.897 18.479 6.083 29.451 4.925-19.634-7.242-37.537-17.67-45.621-38.814 8.95 16.22 25.698 34.469 50.53 32.73-6.641-1.737-12.994-4.923-19.346-9.558 8.951 4.055 22.522 8.98 32.917 6.373-5.197-1.449-26.853-7.532-33.206-16.221 8.951 6.662 22.522 13.324 28.875 9.848-11.261-5.793-17.036-10.717-24.543-21.724zm30.896 4.056c-.577-1.448-1.444-2.897-2.021-4.345.577 1.448 1.444 2.897 2.021 4.345z" fill="url(#paint5_radial)"/><path d="M112.698 42.377c-3.176-14.483-19.057-28.966-28.875-30.994 12.994 9.27 28.586 32.732 29.452 44.897 1.444-1.738-.866-11.586-.577-13.903z" fill="#BC682A"/><path d="M90.753 20.073c10.106 3.766 15.881 14.483 17.614 23.462-2.31-11.007-14.438-15.351-17.614-23.462z" fill="#CF8D5E"/><path d="M91.331 75.977c-18.19-.58-34.072-12.455-46.777-24.331 8.085 17.669 28.297 27.517 46.777 24.331z" fill="url(#paint6_linear)"/><path d="M16.546 45.273c1.155 1.159 1.444 4.055 2.31 5.214-2.021 20.566 8.951 37.945 17.325 46.345-19.057-8.979-22.811-32.441-19.635-51.559z" fill="#BC682A"/><path d="M98.261 24.418c5.486 1.738 8.951 7.82 11.261 13.035-2.31-4.635-6.93-8.69-11.261-13.035zm-7.507.58c15.014 3.185 22.522 24.33 23.677 32.44-4.043-10.427-11.839-27.517-23.677-32.44z" fill="url(#paint7_radial)"/><path d="M107.501 33.397c6.063 8.11 7.796 16.8 6.063 26.649-1.443-11.586-5.486-22.883-12.416-31.863 3.177 1.738 6.353 4.925 6.353 5.214z" fill="#A14302"/><path d="M30.566 136.599c12.197-2.346 29.74 13.577 28.237 27.656-.168 10.056-7.686 17.263-13.868 23.465-10.025 8.212-27.568 6.536-37.76-3.353-8.688-12.57-6.516-29.666-2.172-43.913.502-3.352 18.713-3.519 25.563-3.855z" fill="url(#paint8_radial)"/><path d="M47.608 142.298c6.85 5.531 12.03 14.079 11.027 21.957-.167 10.056-7.685 17.263-13.867 23.465-10.025 8.213-27.568 6.536-37.76-3.352-2.84-4.023-4.511-8.548-5.346-13.241a34.385 34.385 0 010-5.867c.668 7.375 5.012 15.085 11.528 18.94-7.184-7.207-12.53-25.476-6.516-35.533 3.342 13.241 7.519 25.309 23.892 28.996-10.693-5.866-20.05-19.275-20.383-31.845 4.678 11.9 13.7 25.309 28.904 26.314-3.843-3.017-9.69-5.698-11.528-10.559 5.012 3.687 10.526 6.369 16.708 7.542-8.02-5.698-17.21-11.732-22.055-20.28 8.521 7.542 18.379 12.57 27.735 18.772-2.005-6.872-6.015-13.074-11.695-18.772 4.845 2.849 13.032 11.062 16.708 15.755-1.337-4.693-5.18-13.073-11.529-18.102 6.182 2.012 13.534 12.571 13.534 20.281-.335-1.341.167-14.917-11.863-24.303 1.002 0 1.838-.168 2.506-.168z" fill="url(#paint9_radial)"/><path d="M30.9 136.599h.334c-.668 1.173-1.17.167-2.005 1.005l-5.346.503 4.845 1.006c-.835 0-3.508.67-4.177.335-2.172-.671-4.01.167-5.68.67 2.339 1.006 2.172 1.174 4.344 1.844l3.174 2.179c-.835-.335-3.174-.838-3.341-.838-1.671.167-3.175-.671-4.679-1.006-.668-.335-1.336-.503-1.837-.67 2.84 1.005 4.343 1.676 6.683 4.022.668.838 1.17.503 1.67.838-1.837.168-3.007-.167-4.344-.838-1.336-.335-2.339-.335-3.508-.67l.835.67c-1.17-.167-2.005-.503-3.174-.838-.502 1.006.167 1.174.167 2.179-.669-.503-1.003-.168-1.838-.503-1.003.168-1.838-.67-2.34-.838v3.855c-1.002.336-1.336-.67-2.171-1.005.501 2.681-.501 4.86-.501 7.542.167 3.184 2.171 5.866 3.007 8.548-.836-.838-2.172-1.676-3.007-2.347.334-1.005-.168-1.676-.168-2.346-1.503-.503-1.837-1.844-2.673-3.352.167-1.341-.334-3.855-.501-4.358v3.017c-1.17 1.676-1.003 3.52-1.003 5.699-.835-1.174-1.336-1.844-1.837-3.185 0 2.682-.335 4.861-.836 7.375-.334-8.213 1.504-16.593 3.843-24.136.501-3.352 18.713-3.519 25.396-3.855.334-.503.501-.502.668-.502z" fill="url(#paint10_radial)"/><path d="M31.735 137.605c6.85-.168 12.531 2.849 16.708 7.04-2.84-.838-6.516-3.017-9.69-3.017 1.503 1.173 3.508 1.843 4.678 3.855-3.008-1.676-5.514-3.185-9.022-3.185-1.671-1.173-2.34-2.179-4.679-2.346 3.175 0 6.015.167 9.023 1.005-2.674-.67-4.678-1.341-7.018-3.352zm-7.685 9.051c3.675 2.011 17.376 9.889 20.885 17.096-4.177-5.531-13.7-12.403-20.885-17.096zm-10.025.167c3.843 5.699 7.017 9.722 9.858 15.923-5.347-3.352-8.187-9.721-9.858-15.923zm5.347 1.174c5.68 5.028 9.523 12.403 16.54 17.263-6.349-4.022-15.37-9.553-16.54-17.263zm16.54 17.096c.836.503 1.671 1.005 2.34 1.508-.836-.335-1.504-.838-2.34-1.508zm-.334-16.426c6.015 1.341 10.526 7.207 13.2 11.9-3.51-4.525-10.192-8.883-13.2-11.9zm-2.506 1.509c7.518 2.849 13.2 9.553 14.87 14.749-3.676-4.525-9.19-10.392-14.87-14.749zm-6.85 1.508c7.518 3.855 16.708 10.392 22.054 17.264-3.341-5.029-12.03-9.722-22.054-17.264z" fill="#BC682A"/><path d="M33.908 139.784c5.012 1.173 11.863 2.514 14.703 7.877-1.838-.335-3.509-1.34-5.68-1.843 2.171 1.173 6.515 6.034 8.186 10.056-2.673-2.682-6.85-7.542-10.86-8.715 4.511 3.352 6.015 6.201 8.187 9.218-2.506-2.514-4.01-4.693-9.022-6.202 2.673 1.844 7.017 9.889 7.184 10.057-2.84-5.364-14.87-13.576-20.718-16.426 3.008.168 6.182 1.006 8.688 1.844-1.67-1.341-4.344-2.849-7.351-4.19 3.676.335 8.521 2.011 10.526 3.017-2.005-1.676-6.85-2.849-10.025-4.023 1.838.335 3.509.671 5.347 1.174-.836-.503-4.678-1.677-5.68-1.844 5.346-.335 11.026 2.346 13.867 3.352-2.005-1.341-5.013-2.682-7.352-3.352zm-9.022 6.369c3.341.67 11.863 6.704 15.705 10.894-6.349-3.855-11.027-7.207-15.705-10.894z" fill="url(#paint11_radial)"/><path d="M11.687 153.36c3.508 4.023 7.184 8.883 11.194 13.409 0-.168-.167-.336-.167-.503 5.848 5.196 16.04 7.877 23.558 10.559-1.838-.838-3.342-1.006-4.678-2.514-7.352-3.185-15.204-9.554-19.214-16.593 2.506 3.687 3.341 5.196 7.518 6.872 6.683 3.687 13.366 8.548 21.386 8.045-8.52-6.034-18.88-8.548-24.727-18.102 7.852 5.867 15.705 11.398 24.393 15.588 1.17.503 2.172.67 3.342 1.676-1.17-5.699-3.008-10.559-6.35-15.42 3.51 4.022 7.185 8.045 8.522 13.744.334-4.19.167-8.548.167-12.906a72.545 72.545 0 012.172 6.201v.838c-.167 10.057-7.686 17.264-13.868 23.466-10.024 8.212-27.568 6.536-37.76-3.353-.334-.502-.5-1.005-.835-1.34 7.018 3.519 11.529 5.531 19.883 5.195-4.177-1.843-8.521-4.19-11.195-8.38 5.514 5.531 16.04 4.525 23.725 4.861-13.366-6.034-27.066-2.682-31.745-23.298 3.175 8.716 15.205 21.119 26.232 17.599-10.025-4.358-18.045-16.761-21.553-25.644z" fill="#802D03"/><path d="M39.254 144.142c5.514 1.341 8.688 4.022 10.86 9.218-3.508-4.022-6.015-6.872-10.86-9.218zm-14.536.67c8.354 2.012 11.195 5.196 14.536 8.716-6.182-4.526-12.03-7.878-14.536-8.716z" fill="#CF8D5E"/><path d="M30.566 138.946c7.017-.503 12.53 1.341 17.042 6.704-4.511-3.352-11.027-5.531-17.042-6.704zm15.872 8.38c-4.344-2.849-12.363-6.369-16.04-6.872 6.851.503 13.367 2.347 16.04 6.872z" fill="#CF8D5E"/><path d="M56.63 171.629c-1.67-4.86-5.346-10.559-8.52-14.246 1.838 2.514 3.341 8.045 3.341 8.045-1.67-1.844-7.184-11.9-21.386-16.426 16.207 10.224 23.057 24.974 21.888 27.32.835 1.676 2.84-4.357 4.678-4.693z" fill="url(#paint12_linear)"/><path d="M33.74 159.562c11.696 8.715 18.713 10.559 19.883 13.073 0-3.52-.668-7.04-2.005-10.559 1.838 3.519 3.843 6.871 3.676 11.565 1.002-1.844 1.67-4.023 2.172-6.537 0 1.341 0 2.514-.167 3.855-2.506 6.704-7.853 12.068-12.531 16.761-8.688 7.039-22.556 6.871-32.748.502 6.85 2.012 15.038 2.85 21.888.671-6.683 1.341-16.708-1.006-20.55-8.716 2.672 3.352 13.198 7.878 19.881 6.202-7.518-.503-22.555-6.537-25.562-20.784 5.513 14.582 30.909 20.784 33.582 18.772-5.346-1.005-14.034-3.184-18.546-6.034 5.514 1.677 10.694 3.52 17.042 2.85-11.36-4.19-21.72-10.224-26.398-22.459 5.18 9.386 14.87 19.945 29.239 18.939-3.843-1.006-7.519-2.849-11.194-5.531 5.179 2.347 13.032 5.196 19.047 3.687-3.008-.838-15.539-4.357-19.214-9.386 5.179 3.855 13.032 7.71 16.707 5.699-6.516-3.352-9.857-6.201-14.201-12.57zm17.878 2.346c-.334-.838-.835-1.676-1.17-2.514.335.838.836 1.676 1.17 2.514z" fill="url(#paint13_radial)"/><path d="M57.633 156.545c-1.838-8.381-11.027-16.761-16.708-17.934 7.519 5.363 16.54 18.939 17.042 25.979.836-1.006-.501-6.705-.334-8.045z" fill="#BC682A"/><path d="M44.935 143.639c5.848 2.179 9.19 8.38 10.192 13.576-1.337-6.369-8.354-8.883-10.192-13.576z" fill="#CF8D5E"/><path d="M45.269 175.987c-10.526-.335-19.715-7.207-27.067-14.079 4.679 10.224 16.374 15.923 27.067 14.079z" fill="url(#paint14_linear)"/><path d="M1.996 158.221c.668.67.835 2.346 1.336 3.017-1.17 11.9 5.18 21.956 10.025 26.817-11.027-5.196-13.2-18.772-11.361-29.834z" fill="#BC682A"/><path d="M49.279 146.153c3.174 1.006 5.18 4.525 6.516 7.542-1.337-2.681-4.01-5.028-6.516-7.542zm-4.344.335c8.688 1.844 13.032 14.079 13.7 18.772-2.339-6.034-6.85-15.923-13.7-18.772z" fill="url(#paint15_radial)"/><path d="M54.625 151.349c3.509 4.693 4.511 9.721 3.509 15.42-.835-6.705-3.175-13.241-7.184-18.437 1.837 1.006 3.675 2.849 3.675 3.017z" fill="#A14302"/><g filter="url(#filter0_f)"><path d="M151.1 40.213c8.138-1.566 19.843 9.059 18.84 18.453-.112 6.71-5.128 11.518-9.253 15.656-6.689 5.48-18.394 4.361-25.195-2.237-5.796-8.387-4.347-19.794-1.449-29.3.335-2.236 12.486-2.348 17.057-2.572z" fill="url(#paint16_radial)"/><path d="M162.47 44.016c4.571 3.69 8.027 9.394 7.358 14.65-.111 6.71-5.128 11.518-9.253 15.656-6.688 5.48-18.394 4.362-25.194-2.237-1.895-2.683-3.01-5.703-3.567-8.834a22.83 22.83 0 010-3.914c.446 4.92 3.344 10.064 7.692 12.637-4.794-4.81-8.361-16.999-4.348-23.709 2.23 8.835 5.017 16.887 15.942 19.347-7.135-3.914-13.378-12.86-13.601-21.248 3.122 7.94 9.141 16.887 19.286 17.558-2.564-2.013-6.466-3.803-7.692-7.046 3.344 2.46 7.023 4.25 11.148 5.033-5.351-3.803-11.482-7.829-14.715-13.532 5.685 5.032 12.262 8.387 18.505 12.525-1.338-4.585-4.013-8.723-7.803-12.525 3.233 1.901 8.695 7.381 11.148 10.512-.892-3.131-3.456-8.723-7.693-12.078 4.125 1.342 9.03 8.388 9.03 13.532-.223-.895.112-9.953-7.915-16.216.669 0 1.227-.111 1.672-.111z" fill="url(#paint17_radial)"/><path d="M151.322 40.213h.223c-.446.782-.78.111-1.337.67l-3.568.336 3.233.671c-.557 0-2.341.447-2.787.224-1.449-.447-2.675.112-3.79.447 1.561.671 1.449.783 2.898 1.23l2.119 1.454c-.558-.224-2.119-.56-2.23-.56-1.115.113-2.118-.446-3.121-.67-.446-.224-.892-.336-1.227-.447 1.895.67 2.899 1.118 4.459 2.684.446.559.781.335 1.115.559-1.226.111-2.006-.112-2.898-.56-.892-.223-1.561-.223-2.341-.447l.557.448c-.78-.112-1.338-.336-2.118-.56-.334.671.111.783.111 1.454-.445-.335-.668-.112-1.226-.335-.669.111-1.226-.448-1.561-.56v2.573c-.668.223-.891-.448-1.449-.671.335 1.789-.334 3.243-.334 5.032.111 2.125 1.449 3.914 2.006 5.704-.557-.56-1.449-1.119-2.006-1.566.223-.671-.112-1.118-.112-1.566-1.003-.335-1.226-1.23-1.783-2.236.111-.895-.223-2.572-.335-2.908v2.013c-.78 1.118-.669 2.349-.669 3.802-.557-.782-.891-1.23-1.226-2.124 0 1.789-.223 3.243-.557 4.92-.223-5.48 1.003-11.071 2.564-16.104.334-2.236 12.485-2.348 16.945-2.572.223-.335.334-.335.445-.335z" fill="url(#paint18_radial)"/><path d="M151.88 40.884c4.571-.112 8.361 1.901 11.148 4.697-1.895-.559-4.348-2.013-6.466-2.013 1.004.783 2.341 1.23 3.122 2.572-2.007-1.118-3.679-2.124-6.02-2.124-1.115-.783-1.561-1.454-3.122-1.566 2.118 0 4.014.112 6.02.67-1.783-.447-3.121-.894-4.682-2.236zm-5.128 6.04c2.453 1.341 11.594 6.597 13.935 11.406-2.787-3.69-9.141-8.276-13.935-11.407zm-6.689.111c2.564 3.802 4.682 6.486 6.578 10.624-3.568-2.237-5.463-6.486-6.578-10.624zm3.568.783c3.79 3.355 6.354 8.275 11.036 11.519-4.236-2.684-10.256-6.375-11.036-11.52zm11.036 11.407c.557.335 1.115.67 1.561 1.006-.558-.224-1.004-.559-1.561-1.006zm-.223-10.96c4.013.895 7.023 4.809 8.807 7.94-2.341-3.02-6.8-5.927-8.807-7.94zm-1.672 1.007c5.017 1.9 8.807 6.374 9.922 9.84-2.453-3.019-6.132-6.933-9.922-9.84zm-4.571 1.006c5.017 2.572 11.148 6.934 14.716 11.519-2.23-3.355-8.027-6.486-14.716-11.519z" fill="#BC682A"/><path d="M153.329 42.338c3.345.783 7.915 1.677 9.81 5.256-1.226-.224-2.341-.895-3.79-1.23 1.449.783 4.348 4.026 5.463 6.71-1.784-1.79-4.571-5.033-7.247-5.815 3.01 2.236 4.014 4.137 5.463 6.15-1.672-1.677-2.676-3.131-6.02-4.137 1.784 1.23 4.682 6.598 4.794 6.71-1.896-3.58-9.922-9.059-13.824-10.96 2.007.112 4.125.67 5.797 1.23-1.115-.895-2.898-1.901-4.905-2.796 2.453.224 5.685 1.342 7.023 2.013-1.338-1.118-4.57-1.9-6.689-2.684 1.227.224 2.341.448 3.568.783-.558-.335-3.122-1.118-3.791-1.23 3.568-.224 7.358 1.566 9.253 2.237-1.338-.895-3.344-1.79-4.905-2.237zm-6.02 4.25c2.23.447 7.915 4.473 10.479 7.269a99.601 99.601 0 01-10.479-7.27z" fill="url(#paint19_radial)"/><path d="M138.502 51.396c2.341 2.684 4.794 5.927 7.469 8.947 0-.112-.111-.224-.111-.336 3.902 3.467 10.702 5.256 15.719 7.046-1.227-.56-2.23-.671-3.122-1.678-4.905-2.124-10.145-6.374-12.82-11.071 1.672 2.46 2.23 3.467 5.017 4.585 4.459 2.46 8.918 5.703 14.269 5.368-5.686-4.026-12.597-5.704-16.499-12.078 5.239 3.914 10.479 7.605 16.276 10.4.78.336 1.449.448 2.23 1.119-.781-3.803-2.007-7.046-4.237-10.289 2.341 2.684 4.794 5.368 5.686 9.17.223-2.795.111-5.703.111-8.61a48.22 48.22 0 011.449 4.137v.56c-.111 6.71-5.128 11.518-9.252 15.656-6.689 5.48-18.394 4.361-25.195-2.237-.223-.335-.334-.67-.557-.894 4.682 2.348 7.692 3.69 13.266 3.466-2.787-1.23-5.685-2.795-7.469-5.591 3.679 3.69 10.702 3.02 15.83 3.243-8.918-4.026-18.06-1.79-21.181-15.545 2.118 5.816 10.145 14.091 17.502 11.743-6.689-2.908-12.04-11.184-14.381-17.11z" fill="#802D03"/><path d="M156.896 45.246c3.679.894 5.797 2.684 7.247 6.15-2.341-2.684-4.014-4.585-7.247-6.15zm-9.698.447c5.574 1.342 7.469 3.467 9.698 5.815-4.124-3.02-8.026-5.256-9.698-5.815z" fill="#CF8D5E"/><path d="M151.099 41.779c4.682-.336 8.361.894 11.371 4.473-3.01-2.236-7.357-3.69-11.371-4.473zm10.591 5.591c-2.899-1.9-8.25-4.25-10.702-4.585 4.57.336 8.918 1.566 10.702 4.585z" fill="#CF8D5E"/><path d="M168.49 63.586c-1.115-3.243-3.567-7.045-5.685-9.506 1.226 1.678 2.229 5.368 2.229 5.368-1.114-1.23-4.793-7.94-14.269-10.96 10.814 6.822 15.384 16.664 14.604 18.23.557 1.118 1.895-2.908 3.121-3.132z" fill="url(#paint20_linear)"/><path d="M153.217 55.534c7.804 5.816 12.486 7.046 13.266 8.723 0-2.348-.446-4.697-1.337-7.045 1.226 2.348 2.564 4.585 2.452 7.716.669-1.23 1.115-2.684 1.449-4.361 0 .894 0 1.677-.111 2.572-1.672 4.473-5.24 8.052-8.361 11.183-5.797 4.697-15.05 4.585-21.85.336 4.571 1.341 10.033 1.9 14.604.447-4.459.895-11.148-.671-13.712-5.815 1.783 2.236 8.807 5.256 13.266 4.137-5.017-.335-15.05-4.361-17.056-13.867 3.678 9.73 20.623 13.867 22.407 12.525-3.567-.67-9.364-2.124-12.374-4.026 3.678 1.119 7.134 2.349 11.371 1.902-7.581-2.796-14.493-6.822-17.614-14.986 3.456 6.263 9.921 13.308 19.509 12.637-2.564-.67-5.017-1.901-7.469-3.69 3.455 1.565 8.695 3.466 12.708 2.46-2.006-.56-10.367-2.908-12.82-6.263 3.456 2.572 8.695 5.145 11.148 3.803-4.348-2.237-6.577-4.138-9.476-8.388zm11.929 1.566c-.223-.56-.558-1.119-.781-1.678.223.56.558 1.119.781 1.678z" fill="url(#paint21_radial)"/><path d="M169.159 53.521c-1.226-5.591-7.358-11.183-11.148-11.966 5.017 3.579 11.037 12.637 11.371 17.334.557-.67-.334-4.473-.223-5.368z" fill="#BC682A"/><path d="M160.687 44.91c3.901 1.454 6.131 5.592 6.8 9.059-.892-4.25-5.574-5.928-6.8-9.059z" fill="#CF8D5E"/><path d="M160.91 66.494c-7.024-.224-13.155-4.81-18.06-9.394 3.121 6.822 10.925 10.624 18.06 9.394z" fill="url(#paint22_linear)"/><path d="M132.037 54.64c.446.447.557 1.565.891 2.012-.78 7.94 3.456 14.65 6.689 17.894-7.357-3.467-8.807-12.526-7.58-19.907z" fill="#BC682A"/><path d="M163.585 46.588c2.118.67 3.456 3.02 4.348 5.032-.892-1.79-2.676-3.355-4.348-5.032zm-2.898.223c5.797 1.23 8.695 9.394 9.141 12.526-1.561-4.027-4.571-10.625-9.141-12.526z" fill="url(#paint23_radial)"/><path d="M167.153 50.054c2.341 3.132 3.01 6.487 2.341 10.289-.557-4.473-2.118-8.835-4.794-12.302 1.227.671 2.453 1.902 2.453 2.013z" fill="#A14302"/></g><g filter="url(#filter1_f)"><path d="M130.019 2.074c3.878-.746 9.456 4.316 8.978 8.793-.054 3.197-2.444 5.489-4.41 7.46-3.187 2.612-8.765 2.079-12.005-1.065-2.763-3.997-2.072-9.433-.691-13.963.159-1.065 5.95-1.119 8.128-1.225z" fill="url(#paint24_radial)"/><path d="M135.437 3.886c2.178 1.758 3.825 4.476 3.506 6.98-.053 3.198-2.443 5.49-4.409 7.462-3.187 2.61-8.765 2.078-12.006-1.066-.903-1.28-1.434-2.718-1.7-4.21a10.955 10.955 0 010-1.865c.213 2.344 1.594 4.796 3.666 6.021-2.284-2.291-3.984-8.1-2.072-11.297 1.063 4.21 2.391 8.047 7.597 9.22-3.4-1.866-6.375-6.13-6.481-10.126 1.487 3.783 4.356 8.047 9.19 8.366-1.222-.959-3.081-1.812-3.666-3.357 1.594 1.173 3.347 2.025 5.313 2.398-2.55-1.812-5.472-3.73-7.012-6.448 2.709 2.398 5.843 3.997 8.818 5.969-.638-2.185-1.912-4.157-3.719-5.969 1.541.906 4.144 3.517 5.313 5.01-.425-1.493-1.647-4.157-3.666-5.756 1.966.64 4.303 3.997 4.303 6.448-.106-.426.053-4.743-3.772-7.727.319 0 .585-.053.797-.053z" fill="url(#paint25_radial)"/><path d="M130.125 2.073h.106c-.212.374-.371.054-.637.32l-1.7.16 1.541.32c-.266 0-1.116.213-1.328.106-.691-.213-1.275.054-1.807.214.744.32.691.373 1.382.586l1.009.693c-.266-.107-1.009-.267-1.063-.267-.531.053-1.009-.213-1.487-.32-.213-.106-.425-.16-.584-.213.903.32 1.381.533 2.125 1.28.212.266.371.16.531.266-.585.053-.956-.054-1.381-.267-.425-.106-.744-.106-1.116-.213l.266.213c-.372-.053-.638-.16-1.01-.266-.159.32.053.373.053.693-.212-.16-.318-.054-.584-.16-.319.053-.584-.214-.744-.267v1.226c-.318.106-.425-.213-.69-.32.159.853-.16 1.546-.16 2.398.053 1.013.691 1.865.957 2.718-.266-.266-.691-.533-.957-.746.107-.32-.053-.533-.053-.746-.478-.16-.584-.586-.85-1.066.053-.426-.106-1.226-.159-1.385v.959c-.372.533-.319 1.119-.319 1.812-.265-.373-.425-.587-.584-1.013 0 .853-.106 1.546-.266 2.345-.106-2.611.478-5.276 1.222-7.674.159-1.066 5.95-1.12 8.075-1.226.106-.16.159-.16.212-.16z" fill="url(#paint26_radial)"/><path d="M130.391 2.393c2.178-.053 3.984.906 5.312 2.239-.903-.267-2.072-.96-3.081-.96.478.373 1.115.587 1.487 1.226-.956-.533-1.753-1.012-2.868-1.012-.532-.374-.744-.693-1.488-.747 1.009 0 1.912.054 2.869.32-.85-.213-1.488-.426-2.231-1.066zm-2.444 2.878c1.169.64 5.525 3.144 6.64 5.436-1.328-1.759-4.356-3.944-6.64-5.436zm-3.187.053c1.221 1.812 2.231 3.091 3.134 5.063-1.7-1.066-2.603-3.09-3.134-5.063zm1.699.373c1.807 1.6 3.028 3.944 5.26 5.49-2.019-1.28-4.888-3.038-5.26-5.49zm5.26 5.436c.265.16.531.32.743.48-.265-.107-.478-.267-.743-.48zm-.107-5.222c1.913.426 3.347 2.291 4.197 3.783-1.115-1.439-3.24-2.824-4.197-3.783zm-.796.48c2.39.905 4.196 3.037 4.727 4.689-1.168-1.44-2.921-3.304-4.727-4.69zm-2.179.479c2.391 1.226 5.313 3.304 7.013 5.489-1.063-1.599-3.825-3.091-7.013-5.49z" fill="#BC682A"/><path d="M131.081 3.086c1.594.373 3.772.8 4.675 2.505-.584-.107-1.116-.426-1.806-.586.69.373 2.072 1.918 2.603 3.197-.85-.853-2.178-2.398-3.453-2.771 1.434 1.066 1.912 1.972 2.603 2.931-.797-.8-1.275-1.492-2.869-1.972.85.586 2.231 3.144 2.284 3.198-.903-1.706-4.728-4.317-6.587-5.223.956.053 1.966.32 2.763.586-.532-.426-1.382-.906-2.338-1.332 1.169.107 2.709.64 3.347.96-.638-.534-2.178-.907-3.187-1.28.584.107 1.115.214 1.699.373-.265-.16-1.487-.533-1.806-.586 1.7-.106 3.506.746 4.409 1.066-.637-.426-1.593-.853-2.337-1.066zm-2.869 2.025c1.063.213 3.772 2.132 4.994 3.464a47.458 47.458 0 01-4.994-3.464z" fill="url(#paint27_radial)"/><path d="M124.016 7.403c1.116 1.279 2.284 2.824 3.559 4.263 0-.053-.053-.107-.053-.16 1.859 1.652 5.1 2.505 7.49 3.357-.584-.266-1.062-.32-1.487-.799-2.337-1.012-4.834-3.037-6.109-5.276.797 1.173 1.062 1.652 2.39 2.185 2.125 1.173 4.25 2.718 6.8 2.558-2.709-1.918-6.003-2.718-7.862-5.755 2.497 1.865 4.993 3.623 7.756 4.956.372.16.69.213 1.062.533-.372-1.812-.956-3.358-2.018-4.903 1.115 1.279 2.284 2.558 2.709 4.37.106-1.332.053-2.718.053-4.104.319.8.531 1.44.691 1.972v.267c-.054 3.197-2.444 5.489-4.41 7.46-3.187 2.612-8.765 2.079-12.005-1.065-.107-.16-.16-.32-.266-.427 2.231 1.12 3.665 1.759 6.322 1.652-1.328-.586-2.71-1.332-3.56-2.664 1.753 1.758 5.1 1.439 7.544 1.545-4.25-1.918-8.606-.852-10.094-7.407 1.01 2.77 4.835 6.714 8.341 5.595-3.188-1.385-5.737-5.329-6.853-8.153z" fill="#802D03"/><path d="M132.781 4.472c1.753.426 2.763 1.279 3.453 2.93-1.115-1.278-1.912-2.184-3.453-2.93zm-4.621.213c2.656.64 3.559 1.652 4.621 2.771-1.965-1.439-3.824-2.505-4.621-2.771z" fill="#CF8D5E"/><path d="M130.019 2.82c2.231-.16 3.984.426 5.419 2.131-1.435-1.065-3.507-1.758-5.419-2.131zm5.047 2.664c-1.382-.906-3.931-2.025-5.1-2.185 2.178.16 4.25.746 5.1 2.185z" fill="#CF8D5E"/><path d="M138.306 13.211c-.531-1.545-1.7-3.357-2.709-4.53.584.8 1.062 2.559 1.062 2.559-.531-.586-2.284-3.784-6.799-5.223 5.153 3.251 7.331 7.94 6.959 8.687.265.533.903-1.386 1.487-1.493z" fill="url(#paint28_linear)"/><path d="M131.028 9.375c3.718 2.77 5.95 3.357 6.321 4.156a9.396 9.396 0 00-.637-3.357c.584 1.12 1.222 2.185 1.169 3.677.318-.586.531-1.279.69-2.078 0 .426 0 .8-.053 1.225-.797 2.132-2.497 3.837-3.984 5.33-2.762 2.238-7.172 2.184-10.412.16 2.178.639 4.781.905 6.959.213-2.125.426-5.312-.32-6.534-2.772.85 1.066 4.197 2.505 6.321 1.972-2.39-.16-7.171-2.078-8.127-6.608 1.753 4.636 9.827 6.608 10.677 5.969-1.7-.32-4.462-1.013-5.896-1.919 1.753.533 3.4 1.12 5.418.906-3.612-1.332-6.906-3.25-8.393-7.14 1.647 2.983 4.728 6.34 9.296 6.021-1.221-.32-2.39-.906-3.559-1.759 1.647.746 4.144 1.652 6.056 1.173-.956-.267-4.94-1.386-6.109-2.985 1.647 1.226 4.144 2.452 5.312 1.812-2.072-1.065-3.134-1.971-4.515-3.996zm5.684.746c-.106-.267-.266-.533-.372-.8.106.267.266.533.372.8z" fill="url(#paint29_radial)"/><path d="M138.625 8.415c-.585-2.664-3.507-5.329-5.313-5.702 2.391 1.706 5.259 6.022 5.419 8.26.265-.32-.16-2.131-.106-2.558z" fill="#BC682A"/><path d="M134.588 4.312c1.859.693 2.921 2.665 3.24 4.317-.425-2.025-2.656-2.825-3.24-4.317z" fill="#CF8D5E"/><path d="M134.693 14.597c-3.346-.106-6.268-2.291-8.606-4.476 1.488 3.25 5.206 5.062 8.606 4.476z" fill="url(#paint30_linear)"/><path d="M120.935 8.948c.212.213.266.746.425.96-.372 3.783 1.647 6.98 3.187 8.526-3.506-1.652-4.196-5.969-3.612-9.486z" fill="#BC682A"/><path d="M135.968 5.111c1.01.32 1.647 1.44 2.072 2.398-.425-.852-1.275-1.598-2.072-2.398zm-1.381.107c2.763.586 4.144 4.476 4.356 5.969-.743-1.919-2.178-5.063-4.356-5.97z" fill="url(#paint31_radial)"/><path d="M137.668 6.763c1.116 1.492 1.434 3.091 1.116 4.903-.266-2.132-1.01-4.21-2.285-5.862.585.32 1.169.906 1.169.96z" fill="#A14302"/></g><path d="M141.762 118.314c3.1 13.888 2.687 25.289-3.926 36.69-9.092 17.206-26.243 22.388-39.881 14.926-9.712.621-17.151-2.488-20.87-11.609-6.2-6.841-9.506-13.474-10.333-22.595 5.166-12.23 71.497-29.435 75.01-17.412z" fill="#953F05"/><path d="M138.249 145.884c.207 1.865.62 3.731 1.24 5.804a24.727 24.727 0 01-1.653 3.316c-9.092 17.206-26.243 22.388-39.881 14.926-9.712.621-17.151-2.488-20.87-11.609-1.86-2.073-3.513-4.146-4.96-6.426l.413-.415c2.893 3.939 6.406 6.012 11.572 3.317 3.1 1.658 6.82 2.695 10.539 3.11.62.621 1.86 1.036 2.066 2.072 14.878 11.609 41.948 2.488 41.534-14.095z" fill="url(#paint32_linear)"/><path d="M108.907 159.565c4.133 2.487 14.051-.207 19.424-.207-6.819 4.353-21.284 6.011-27.483 2.487-1.446-.415-2.686-1.658-3.513-2.28-.206 2.28 1.24 4.146 1.86 5.597-3.513-.415-6.406-4.146-7.646-7.256-3.72-.414-6.405-1.036-9.505-2.902-7.439-2.073-11.778-7.877-14.465-13.681 5.166 6.841 44.221 12.23 44.221 12.23 1.24-3.731 15.911-3.109 18.597-1.658-5.166 6.841-14.258 7.255-21.49 7.67z" fill="url(#paint33_linear)"/><path d="M132.464 103.181c.62 2.28 1.033 4.146 3.099 5.182 10.332 8.499 9.092 15.547 8.679 25.705-3.513 17.827-32.855 28.606-49.387 21.144-1.653-.415-3.306-.415-4.959-.83-5.166.622-9.712-3.109-13.431-4.975-9.713-5.182-13.845-19.485-3.513-24.668 6.612-13.266 11.985-13.059 23.97-15.547 4.959-.414 10.125-.414 14.465-2.487 6.612-2.073 17.357-3.524 21.077-3.524z" fill="url(#paint34_linear)"/><path d="M129.984 109.193c3.1 1.658 5.373 4.56 8.059 6.84 5.992 14.925 3.719 9.95 2.686 12.231-2.273-3.939-5.786-3.732-9.505-4.146-5.166-.208-8.472.829-12.812 2.695-.206-4.768.413-8.5 1.447-12.853-3.72-.414-7.439 2.488-10.746 4.146-4.339.829-7.852 1.659-12.191 2.073-2.273-1.036-9.712-2.073-10.126-2.073 3.307-5.597 11.572-6.426 16.118-7.462.827 1.243 1.447 2.902 2.067 4.146 5.786-2.695 15.084-3.524 16.737-4.146 5.786 3.938 7.233-1.244 8.266-1.451z" fill="#F8E8C7"/><path d="M116.139 114.168c-3.306 1.658-5.372 3.316-7.852 4.767-2.273 1.244-5.166 2.281-7.026 3.524-1.653.83-3.306 2.281-4.546 3.524.207 1.866-.413 3.524-1.033 5.183-.827 1.036-1.653 2.073-2.48 2.695.62 2.902 1.24 5.596 1.447 8.706 0 .622-.207 1.244-.414 1.866 3.513-4.561 7.853-10.158 12.192-14.511 3.72-4.56 7.026-11.608 9.712-15.754z" fill="#F8E8C7"/><path d="M113.246 127.434c-.62 3.11-1.859 5.39-3.306 7.67-5.992 2.488-12.398 4.975-15.704 10.157.413-4.145 2.686-8.706 2.892-11.608 4.133-10.779 17.565-14.925 23.144-22.18-5.373 4.767-5.993 9.535-7.026 15.961z" fill="url(#paint35_radial)"/><path d="M82.25 117.484c2.067.622 3.513 1.037 4.753 2.695 4.546 1.244 7.852 1.866 11.159 1.866-2.893 2.28-5.373 3.938-9.506 4.146-1.86-.83-2.893-1.451-4.34-2.695-1.239.829-2.272 1.658-3.925 1.865-1.653-.207-3.1-.207-4.753-1.243 1.033-1.659 2.273-4.146 3.306-6.219 1.24-.207 2.273.207 3.306-.415zm35.336 7.256c.62 2.072 1.239 4.145.826 6.633.827 0 1.447-.622 2.273-.207 2.687.829 5.579 1.865 8.059 3.938-1.446-.207-3.306-.622-4.959-.207-3.513 0-7.233.207-10.745-.207 1.446-3.732 2.066-7.67 4.546-9.95z" fill="#EFCD92"/><path d="M144.242 132.409c.413 4.768-.413 9.329-3.099 11.194-1.447.829-1.654 2.695-3.927 2.073-1.239 3.939-.206 4.561-4.752 5.597-2.893 1.244-4.546 2.073-7.853 3.109-2.273.83-4.546 1.659-6.612 1.866-.827 0-1.653-.207-2.686-.207-5.166.829-11.365 2.487-17.358.829-1.86-1.036-3.513-2.073-5.786-2.695-1.86.207-3.72.622-5.579.415-.827-.829-1.653-1.037-1.653-2.695-1.24-.207-2.686-.207-4.133-.207-6.819-3.317-11.778-8.499-13.431-16.377 3.306 2.488 6.405 6.634 11.778 6.841 2.686 1.037 4.753.415 7.852-.829.207-1.036.413-2.902.207-4.353 1.653 3.109 5.58 4.56 5.786 8.291-.62 1.659-.827 1.659-2.48 2.695l3.72 2.488c2.686.829 5.785 2.073 9.092 1.451 1.446.207 2.893 0 3.926 1.244 6.612 0 13.845-1.866 20.457-3.939.413-.829 1.033-1.451 1.653-2.28 1.653-1.037 4.133-.829 5.166-3.109 2.48-2.488 4.34-2.903 3.926-7.463 1.24-.207 2.687-.207 3.926-.415 1.654-2.487 1.86-2.073 1.86-3.524z" fill="#FAEED5"/><path d="M105.187 120.801c-2.273 3.109-7.232 3.109-10.745 5.597-.207 1.036-.413 2.073-.62 2.902l-.207.207c-.413.829-1.033 1.659-1.446 2.28.826 3.732 1.446 6.012 1.86 9.743-.207-4.146 1.446-7.048 2.686-9.743.826-5.596 5.372-8.084 8.472-10.986z" fill="#CB9E74"/><path d="M120.065 167.442c-8.265 3.524-16.324 1.036-23.556-3.939 4.132 8.914 17.564 9.95 23.556 3.939z" fill="#8E3F05"/><path d="M141.142 144.018c.414 0 .827 0 1.24.207-.826 3.731-2.273 7.255-4.339 10.779-4.753 9.121-11.779 14.718-19.424 16.998-.413-.207-9.506 1.037-9.919.622 9.919-.622 20.251-6.426 22.937-11.401-3.719 4.975-18.184 9.743-27.896 6.633 8.265.415 25.21-4.56 31.202-12.23-7.025 6.219-18.804 7.048-17.771 6.219 5.58-.829 17.978-6.219 19.838-11.401 1.653-1.244 3.099-4.768 4.132-6.426z" fill="url(#paint36_linear)"/><path d="M137.836 116.241c.827-4.146-1.033-6.012-4.546-7.67-.413-1.037-1.653-2.902-2.066-3.524-2.273-.415-3.307.414-5.166 1.244-2.893.414-5.58 1.451-8.473 2.28h7.646c1.653 0 2.067 1.244 3.306 2.073 4.34.622 6.199 2.902 9.299 5.597z" fill="#ECC37D"/><path d="M143.415 135.104c-.62-5.804-1.86-10.364-1.86-16.169-1.239-3.316-3.099-4.975-5.166-6.426-1.859-2.487-4.339-4.353-6.405-6.426-2.273-.829-4.34-1.036-6.819-1.036 2.686-1.244 4.959-1.659 8.058-1.866.827-2.28 1.447.207 1.86.415.62 3.316 3.513 5.597 5.166 7.048 2.893 2.487 3.72 4.145 4.753 6.84 1.653 4.768 1.033 10.365 1.033 15.547-.207 3.939-.62 2.695-.62 2.073z" fill="#EABF73"/><path d="M95.269 144.847c-1.033 3.731-3.513 4.56-5.373 7.67-3.1.207 12.605 2.695 11.779 2.073 2.066-.622-11.779-2.073 2.479-12.852l-8.885 3.109z" fill="#EFCD92"/><defs><radialGradient id="paint0_radial" cx="0" cy="0" r="1" gradientUnits="userSpaceOnUse" gradientTransform="matrix(-55.49082 79.52351 -71.65852 -50.00269 77.785 26.259)"><stop stop-color="#B8642A"/><stop offset=".153" stop-color="#D39268"/><stop offset=".539" stop-color="#9F4405"/><stop offset=".676" stop-color="#A34300"/><stop offset="1" stop-color="#8C3D06"/></radialGradient><radialGradient id="paint1_radial" cx="0" cy="0" r="1" gradientUnits="userSpaceOnUse" gradientTransform="rotate(-155.791 44.992 31.451) scale(107.908 101.689)"><stop stop-color="#802D03"/><stop offset=".588" stop-color="#8C3604"/><stop offset="1" stop-color="#8F3806"/></radialGradient><radialGradient id="paint2_radial" cx="0" cy="0" r="1" gradientUnits="userSpaceOnUse" gradientTransform="rotate(48.007 4.214 39.968) scale(38.7332 62.2782)"><stop stop-color="#DFD0C3"/><stop offset=".53" stop-color="#C49978"/><stop offset="1" stop-color="#B26F3F"/></radialGradient><radialGradient id="paint3_radial" cx="0" cy="0" r="1" gradientUnits="userSpaceOnUse" gradientTransform="rotate(-119.224 46.721 -10.941) scale(26.1347 42.8226)"><stop stop-color="#DCAE92"/><stop offset=".513" stop-color="#D39269"/><stop offset="1" stop-color="#D59062"/></radialGradient><radialGradient id="paint5_radial" cx="0" cy="0" r="1" gradientUnits="userSpaceOnUse" gradientTransform="matrix(-92.05723 -61.56414 29.4598 -44.05141 83.065 89.34)"><stop stop-color="#4C2103"/><stop offset="1" stop-color="#772B03"/></radialGradient><radialGradient id="paint7_radial" cx="0" cy="0" r="1" gradientUnits="userSpaceOnUse" gradientTransform="matrix(20.03997 34.23804 -25.2283 14.76646 99.864 29.97)"><stop stop-color="#E68C53"/><stop offset="1" stop-color="#9F4507"/></radialGradient><radialGradient id="paint8_radial" cx="0" cy="0" r="1" gradientUnits="userSpaceOnUse" gradientTransform="matrix(-32.10907 46.0153 -41.46433 -28.93345 37.43 147.218)"><stop stop-color="#B8642A"/><stop offset=".153" stop-color="#D39268"/><stop offset=".539" stop-color="#9F4405"/><stop offset=".676" stop-color="#A34300"/><stop offset="1" stop-color="#8C3D06"/></radialGradient><radialGradient id="paint9_radial" cx="0" cy="0" r="1" gradientUnits="userSpaceOnUse" gradientTransform="rotate(-155.791 36.402 85.024) scale(62.4399 58.841)"><stop stop-color="#802D03"/><stop offset=".588" stop-color="#8C3604"/><stop offset="1" stop-color="#8F3806"/></radialGradient><radialGradient id="paint10_radial" cx="0" cy="0" r="1" gradientUnits="userSpaceOnUse" gradientTransform="matrix(14.9948 16.65762 -26.78337 24.10976 10.417 137.865)"><stop stop-color="#DFD0C3"/><stop offset=".53" stop-color="#C49978"/><stop offset="1" stop-color="#B26F3F"/></radialGradient><radialGradient id="paint11_radial" cx="0" cy="0" r="1" gradientUnits="userSpaceOnUse" gradientTransform="matrix(-7.38319 -13.19767 21.6248 -12.09759 38.18 146.195)"><stop stop-color="#DCAE92"/><stop offset=".513" stop-color="#D39269"/><stop offset="1" stop-color="#D59062"/></radialGradient><radialGradient id="paint13_radial" cx="0" cy="0" r="1" gradientUnits="userSpaceOnUse" gradientTransform="matrix(-53.2676 -35.62322 17.04657 -25.48984 40.486 183.719)"><stop stop-color="#4C2103"/><stop offset="1" stop-color="#772B03"/></radialGradient><radialGradient id="paint15_radial" cx="0" cy="0" r="1" gradientUnits="userSpaceOnUse" gradientTransform="matrix(11.59586 19.81138 -14.59805 8.54443 50.207 149.366)"><stop stop-color="#E68C53"/><stop offset="1" stop-color="#9F4507"/></radialGradient><radialGradient id="paint16_radial" cx="0" cy="0" r="1" gradientUnits="userSpaceOnUse" gradientTransform="matrix(-21.4241 30.70272 -27.66612 -19.30518 155.68 47.298)"><stop stop-color="#B8642A"/><stop offset=".153" stop-color="#D39268"/><stop offset=".539" stop-color="#9F4405"/><stop offset=".676" stop-color="#A34300"/><stop offset="1" stop-color="#8C3D06"/></radialGradient><radialGradient id="paint17_radial" cx="0" cy="0" r="1" gradientUnits="userSpaceOnUse" gradientTransform="rotate(-155.791 84.18 17.25) scale(41.6616 39.2604)"><stop stop-color="#802D03"/><stop offset=".588" stop-color="#8C3604"/><stop offset="1" stop-color="#8F3806"/></radialGradient><radialGradient id="paint18_radial" cx="0" cy="0" r="1" gradientUnits="userSpaceOnUse" gradientTransform="matrix(10.00492 11.1144 -17.87064 16.08673 137.655 41.058)"><stop stop-color="#DFD0C3"/><stop offset=".53" stop-color="#C49978"/><stop offset="1" stop-color="#B26F3F"/></radialGradient><radialGradient id="paint19_radial" cx="0" cy="0" r="1" gradientUnits="userSpaceOnUse" gradientTransform="matrix(-4.9263 -8.8059 14.42873 -8.07188 156.18 46.616)"><stop stop-color="#DCAE92"/><stop offset=".513" stop-color="#D39269"/><stop offset="1" stop-color="#D59062"/></radialGradient><radialGradient id="paint21_radial" cx="0" cy="0" r="1" gradientUnits="userSpaceOnUse" gradientTransform="rotate(-146.227 89.735 11.888) scale(42.757 20.4602)"><stop stop-color="#4C2103"/><stop offset="1" stop-color="#772B03"/></radialGradient><radialGradient id="paint23_radial" cx="0" cy="0" r="1" gradientUnits="userSpaceOnUse" gradientTransform="rotate(59.659 39.608 167.553) scale(15.3166 11.286)"><stop stop-color="#E68C53"/><stop offset="1" stop-color="#9F4507"/></radialGradient><radialGradient id="paint24_radial" cx="0" cy="0" r="1" gradientUnits="userSpaceOnUse" gradientTransform="matrix(-10.20916 14.63067 -13.18364 -9.19943 132.201 5.45)"><stop stop-color="#B8642A"/><stop offset=".153" stop-color="#D39268"/><stop offset=".539" stop-color="#9F4405"/><stop offset=".676" stop-color="#A34300"/><stop offset="1" stop-color="#8C3D06"/></radialGradient><radialGradient id="paint25_radial" cx="0" cy="0" r="1" gradientUnits="userSpaceOnUse" gradientTransform="matrix(-18.10695 -8.141 7.67177 -17.06329 131.345 15.077)"><stop stop-color="#802D03"/><stop offset=".588" stop-color="#8C3604"/><stop offset="1" stop-color="#8F3806"/></radialGradient><radialGradient id="paint26_radial" cx="0" cy="0" r="1" gradientUnits="userSpaceOnUse" gradientTransform="matrix(4.76763 5.29632 -8.51584 7.66576 123.612 2.476)"><stop stop-color="#DFD0C3"/><stop offset=".53" stop-color="#C49978"/><stop offset="1" stop-color="#B26F3F"/></radialGradient><radialGradient id="paint27_radial" cx="0" cy="0" r="1" gradientUnits="userSpaceOnUse" gradientTransform="matrix(-2.3475 -4.19624 6.87567 -3.84646 132.44 5.125)"><stop stop-color="#DCAE92"/><stop offset=".513" stop-color="#D39269"/><stop offset="1" stop-color="#D59062"/></radialGradient><radialGradient id="paint29_radial" cx="0" cy="0" r="1" gradientUnits="userSpaceOnUse" gradientTransform="matrix(-16.93656 -11.32649 5.41999 -8.10454 133.173 17.056)"><stop stop-color="#4C2103"/><stop offset="1" stop-color="#772B03"/></radialGradient><radialGradient id="paint31_radial" cx="0" cy="0" r="1" gradientUnits="userSpaceOnUse" gradientTransform="matrix(3.68694 6.29909 -4.64148 2.71672 136.263 6.133)"><stop stop-color="#E68C53"/><stop offset="1" stop-color="#9F4507"/></radialGradient><radialGradient id="paint35_radial" cx="0" cy="0" r="1" gradientUnits="userSpaceOnUse" gradientTransform="rotate(132.557 28.553 85.794) scale(54.9396 26.6283)"><stop stop-color="#96450C"/><stop offset="1" stop-color="#F1D5A3"/></radialGradient><linearGradient id="paint4_linear" x1="99.498" y1="60.613" x2="62.654" y2="14.26" gradientUnits="userSpaceOnUse"><stop stop-color="#642703"/><stop offset="1" stop-color="#B15C20"/></linearGradient><linearGradient id="paint6_linear" x1="73.589" y1="71.169" x2="27.015" y2="36.13" gradientUnits="userSpaceOnUse"><stop stop-color="#652703"/><stop offset="1" stop-color="#802D03"/></linearGradient><linearGradient id="paint12_linear" x1="49.995" y1="167.097" x2="28.675" y2="140.275" gradientUnits="userSpaceOnUse"><stop stop-color="#642703"/><stop offset="1" stop-color="#B15C20"/></linearGradient><linearGradient id="paint14_linear" x1="35.003" y1="173.205" x2="8.053" y2="152.93" gradientUnits="userSpaceOnUse"><stop stop-color="#652703"/><stop offset="1" stop-color="#802D03"/></linearGradient><linearGradient id="paint20_linear" x1="164.063" y1="60.562" x2="149.838" y2="42.666" gradientUnits="userSpaceOnUse"><stop stop-color="#642703"/><stop offset="1" stop-color="#B15C20"/></linearGradient><linearGradient id="paint22_linear" x1="154.06" y1="64.637" x2="136.078" y2="51.109" gradientUnits="userSpaceOnUse"><stop stop-color="#652703"/><stop offset="1" stop-color="#802D03"/></linearGradient><linearGradient id="paint28_linear" x1="136.196" y1="11.77" x2="129.418" y2="3.242" gradientUnits="userSpaceOnUse"><stop stop-color="#642703"/><stop offset="1" stop-color="#B15C20"/></linearGradient><linearGradient id="paint30_linear" x1="131.429" y1="13.712" x2="122.86" y2="7.266" gradientUnits="userSpaceOnUse"><stop stop-color="#652703"/><stop offset="1" stop-color="#802D03"/></linearGradient><linearGradient id="paint32_linear" x1="106.077" y1="156.458" x2="106.248" y2="178.375" gradientUnits="userSpaceOnUse"><stop stop-color="#743303"/><stop offset=".579" stop-color="#652C03"/><stop offset="1" stop-color="#8D3E04"/></linearGradient><linearGradient id="paint33_linear" x1="114.799" y1="158.457" x2="49.638" y2="145.827" gradientUnits="userSpaceOnUse"><stop stop-color="#723204"/><stop offset=".548" stop-color="#743303"/><stop offset="1" stop-color="#753304"/></linearGradient><linearGradient id="paint34_linear" x1="130.887" y1="111.327" x2="55.712" y2="175.216" gradientUnits="userSpaceOnUse"><stop stop-color="#F1D5A3"/><stop offset="1" stop-color="#FAEED5"/></linearGradient><linearGradient id="paint36_linear" x1="137.462" y1="154.097" x2="96.821" y2="176.885" gradientUnits="userSpaceOnUse"><stop stop-color="#B45312"/><stop offset="1" stop-color="#953F05"/></linearGradient><filter id="filter0_f" x="129.341" y="38.059" width="42.659" height="41.787" filterUnits="userSpaceOnUse" color-interpolation-filters="sRGB"><feFlood flood-opacity="0" result="BackgroundImageFix"/><feBlend in="SourceGraphic" in2="BackgroundImageFix" result="shape"/><feGaussianBlur stdDeviation="1" result="effect1_foregroundBlur"/></filter><filter id="filter1_f" x="118.604" y="0" width="22.422" height="22.006" filterUnits="userSpaceOnUse" color-interpolation-filters="sRGB"><feFlood flood-opacity="0" result="BackgroundImageFix"/><feBlend in="SourceGraphic" in2="BackgroundImageFix" result="shape"/><feGaussianBlur stdDeviation="1" result="effect1_foregroundBlur"/></filter></defs></svg>