<svg width="291" height="143" fill="none" xmlns="http://www.w3.org/2000/svg"><path d="M154.837 125.109c-5.288-5.184-3.94-12.338.311-18.04-2.074-3.94-.622-7.776.518-9.746.933-1.762 2.385-3.421 3.629-4.354 0-.415.104-.83.208-1.244.103-.311.311-.622.414-.933 1.245-2.281 3.526-4.251 5.703-4.977l.104-.104c1.555-2.799 5.599-4.769 8.502-4.769 1.037 0 2.488.208 3.214 1.452 1.659-2.592 4.666-4.147 7.569-4.77 5.184-1.244 11.094 1.037 10.991 1.14.829-.828 2.073-1.658 3.317-1.865 1.659-.311 3.422 0 4.977.725.933.415 1.556.623 2.074.623h.311c2.074 0 4.769 0 7.776 3.11 2.903 3.11 3.837 7.05 2.178 10.057-.311.622-.83 1.244-1.452 1.762 0 1.14-2.281 4.147-5.184 4.666-.207.31-.519.622-.83 1.036-1.555 1.763-3.006 4.355-6.428 4.459l-.207.311a4.826 4.826 0 00-.519 1.036l-.104.208-.622 1.244c-.414.829-1.036 1.866-1.866 2.696l-.415.518c-.829 1.037-1.451 1.762-3.421 1.762 0 .104-.311.622-.622 1.141-.519 1.037-.622 1.14-.622 1.14-1.348 1.763-2.8 3.525-5.185 3.836.104.519-.103 1.245-.622 2.178-.415.829-1.037 1.658-1.451 2.281-1.763 2.384-4.355 3.006-4.459 2.903-.311 0-.518.103-.518.103-1.97 3.007-5.081 7.154-9.747 7.569.519 2.488-1.14 5.184-4.043 6.117-.104.414-.208.725-.311 1.036-1.245 2.385-5.392 2.8-7.777 2.074-5.702-1.762-6.428-5.391-4.873-6.843-4.044-3.732-3.214-8.294-.518-9.538z" fill="#fff"/><path d="M206.679 88.925v-.31c-.104.103 0 .207 0 .31z" fill="#C88837"/><path d="M160.021 141.075c2.281.726 6.429.208 7.776-2.073.208-.311.311-.622.311-1.037 2.904-.933 4.459-3.629 4.044-6.117 4.666-.415 7.777-4.458 9.747-7.568 0 0 .207 0 .518-.104.207.207 2.696-.518 4.458-2.903.415-.518 1.037-1.348 1.452-2.281.518-.933.726-1.659.622-2.177 2.385-.311 3.94-2.074 5.184-3.836 0 0 .104-.104.622-1.141.208-.414.519-1.037.622-1.14 2.074 0 2.593-.726 3.422-1.763l.415-.518c.829-.83 1.348-1.866 1.866-2.696l.622-1.244.104-.207c.207-.311.415-.726.518-1.037l.208-.311c3.421 0 4.977-2.696 6.428-4.458.311-.415.622-.726.83-1.037 2.903-.518 5.184-3.525 5.184-4.666.622-.518 1.037-1.14 1.451-1.762 1.659-3.007.726-6.946-2.177-10.057-3.007-3.11-5.599-3.11-7.776-3.11h-.311c-.519 0-1.245-.311-2.074-.622-1.555-.622-3.318-.933-4.977-.726-1.244.208-2.385 1.037-3.318 1.866.104-.103-5.806-2.384-10.99-1.14-2.903.726-5.91 2.28-7.569 4.769-.622-1.244-2.074-1.451-3.214-1.451-2.904 0-6.947 1.97-8.503 4.769l-.103.103c-2.178.726-4.459 2.696-5.703 4.977-.207.311-.311.622-.415.933-.207.415-.207.83-.207 1.244-1.348.933-2.696 2.592-3.629 4.355-1.037 1.97-2.488 5.909-.518 9.745-4.355 5.806-5.599 12.856-.311 18.04-2.696 1.244-3.526 5.806.414 9.124-1.348 1.866-.726 5.495 4.977 7.257zm43.237-52.564c-.623-3.629.829-6.428 3.006-9.435 6.947-1.037 12.546 7.154 9.747 11.508-4.355 6.74-8.813.104-9.228-1.659.103 1.556.726 2.903 1.97 3.94 1.451 1.14 3.214 1.555 4.769 1.14-1.348 1.763-3.11 2.282-3.732 2.696-3.733-1.762-5.91-4.458-6.532-8.19zm-1.141 13.374l-1.037-.726c-7.673-5.183-9.954-14.826-7.05-20.217.207-.31.311-.622.518-.933-.622 2.177-1.244 7.154-.518 7.258.103 0-.104-4.666 1.555-6.532.415-.519.726-1.037 1.14-1.452 2.074-1.866 4.355-1.347 6.74-.725.518.103 1.037.31 1.555.414-2.799 2.281-3.836 6.636-3.214 9.954.622 3.525 3.629 7.05 7.154 8.501-2.488 1.244-2.696 4.666-6.843 4.458zm-6.843 8.087c-1.037-.829-2.281-1.555-3.318-2.281-1.452-.933-2.903-1.866-4.147-2.903-8.71-7.568-10.265-18.247-8.192-22.083 2.696-4.977 12.132-3.94 12.132-3.94-3.215 6.22-.726 12.027-.83 10.782-.104-.933-1.14-5.08 2.074-10.47a.887.887 0 00.726 0 2.254 2.254 0 00-.519.829c-2.177 4.043-1.97 8.812-.311 12.96 0 0 .415 1.658 1.763 3.628 1.866 2.903 4.251 5.288 6.843 6.428-.726.726-1.244 1.762-1.763 2.696l-.103.311c-3.215-1.037-5.599-3.318-7.569-6.014.207.208-.104 1.97 2.695 4.458 1.245 1.141 2.8 1.97 4.459 2.489l-.104.103a9.378 9.378 0 01-.829 1.348c-1.452-.207-3.215-.933-5.185-3.006.83 1.347 1.556 2.592 3.007 3.214.208.103 1.348.622 1.556.414-.83.726-1.556.83-2.074.933l-.311.104zm-25.403 8.191l-.104-.104c-1.97-1.244-3.94-2.488-5.806-3.836-1.659-1.141-3.318-2.385-4.769-3.836-1.245-1.141-2.385-2.488-3.111-4.044-.726-1.451-1.037-3.006-.829-4.458a10.9 10.9 0 01.622-2.488c.518-1.244 1.037-2.281 1.866-3.318a4.908 4.908 0 011.037-1.036c.311-.208.622-.623 1.037-.623.207 0 .311.311.414.519.208.31.312.622.519.933.933 1.659 2.074 3.214 3.214 4.665a40.11 40.11 0 005.495 5.599h.311c.208-.518-6.532-5.495-9.124-13.27l-.103-.208v-.104c.103-2.384 2.799-4.665 4.976-5.806-.207.311-.207.726-.207 1.037-.104 2.28 1.97 5.495 2.385 5.184.311-.518-2.592-4.147-1.037-7.05.415-.726 1.14-1.348 2.074-1.866 3.629-1.763 5.806-2.178 7.05-1.452 1.244.726 1.452 2.592 1.659 4.666.726 7.776 4.355 14.203 10.057 18.869 1.867 1.555 4.459 3.525 7.155 4.769l-.415.622c-7.673-2.903-13.686-8.398-17.315-16.07-1.556-3.214 1.659 11.197 16.693 17.107-1.244 1.763-2.489 2.696-3.836 2.903-2.385.311-5.599-2.177-6.429-2.799 1.037 2.073 5.288 3.939 5.288 3.939l-.207.519c-.104.311-.311.518-.415.829-.415.726-1.037 1.659-1.866 2.074-19.389-3.007-26.233-14.411-26.233-14.411-.207.829 7.984 12.856 25.507 15.551v.104c-1.037 1.555-1.97 1.866-3.318 2.177-.104 0-.207-.104-.415.104l-1.451-.519c-3.318-.933-5.392-1.658-10.369-4.872zm-9.331 9.538c-2.178-1.037-7.362-4.147-8.088-9.435-.311-2.695.519-4.562 1.452-6.324-.104.104 1.14-1.97 1.659-3.007.311.415 1.555 1.97 2.488 2.696 8.295 7.05 18.145 12.027 22.603 12.752l-.311.622c-6.636-.933-12.96-3.732-18.352-8.087-.622-.518-1.763-1.451-1.763-1.451s-.518.104 2.178 2.385c4.562 3.836 10.783 6.946 17.108 8.19-4.562 6.013-9.436 6.428-18.974 1.659zm-6.533 2.903c.208.415 1.659 1.555 1.659 1.555-2.177-1.97-2.488-4.354-.207-6.324 2.281 2.177 10.161 6.428 15.345 6.428 0 .933-.103 1.866-.518 2.592-.104.103-.104.207-.207.311-2.593 1.451-8.71-.104-8.71-.104 0 .104 5.599 2.074 8.191.83-3.836 3.628-14.101-.83-15.553-5.288zm1.763 4.043c2.281 1.763 7.569 4.251 11.405 3.629-3.11 4.873-13.582 1.348-11.405-3.629z" fill="#C88837"/><path d="M184.802 91c-.83-3.215-.726-6.325.414-9.332 0-.207-.414 9.435-.414 9.331zm-9.021 7.153c.518 3.525 6.843 9.331 6.843 9.331l-2.281-1.659c-4.355-3.422-4.666-6.74-4.562-7.672zm-11.82 22.187c-.104-.104-.622-.622-.519-.726.104 0 .311.104.311.207 5.081 3.422 10.576 5.806 12.028 5.91-.519 0-.933.104-1.452-.104-.103 0-4.147-.933-8.087-3.525-.83-.518-1.659-1.14-2.281-1.762zm.519 18.558s-.104.104-.208.104c-1.866.103-3.732-.311-5.391-1.348-.104-.104 5.599 1.244 5.599 1.244zm6.013-12.13c-7.776-.311-10.68-4.458-10.68-4.458 4.874 3.732 7.466 3.214 10.68 4.458zm-7.673.933c1.452.622 3.733 1.14 6.222 1.866-3.007.104-6.533-1.97-6.222-1.866zm41.993-42.093c-.519 3.836.311 4.25 1.762 6.013-1.451-.83-1.97-1.97-1.97-1.97-.933-2.695.208-4.043.208-4.043zm-3.318-.311s-.83 3.006-.208 5.39c.622 2.385 3.526 5.081 3.526 5.081-1.037-.518-2.385-1.244-3.629-3.94-1.348-2.799.311-6.428.311-6.531zm-4.459 3.11c0-2.8 2.178-5.495 2.281-5.495 0 0-1.451 2.177-1.866 5.08-.415 2.489 2.074 6.22 2.074 6.22-.933-1.14-2.489-3.006-2.489-5.805zm-23.432-2.074c-.104 1.348.518 3.733.622 4.251-1.452-2.28-.622-4.354-.622-4.25z" fill="#C88837"/><path d="M159.295 4.843c-16.589 6.532-62.003 41.367-35.045 63.243.518.415 1.14.933 1.659 1.348.726.519 1.866.933 2.488 1.555-4.355 1.14-8.502 3.629-12.235 6.221-12.545 8.916-21.877 17.21-12.442 27.578.519.622 3.629 1.452 4.355.83-3.525 2.799-7.88 5.909-10.472 9.642-1.555 2.281-1.14 3.525 2.074 8.294 1.451 2.074.829 3.214 4.665 1.97 1.037-.311 6.221-1.763 7.362-1.97 1.452-.311 2.903-.622 4.355-1.037-4.459 2.696-8.917 5.702-12.442 9.642-.726.83-1.245 1.659-2.074 2.385-.726.622-1.452 1.244-1.763 2.177-.518 1.659 1.141 3.007 2.281 3.836 1.037.726 2.281 1.141 3.629 1.348 5.496.829 11.613-2.074 16.59-4.666 24.262-12.648 47.176-40.227 46.658-42.404 1.762-2.177 4.562-6.324 3.214-7.88.622-.207 6.636-2.695 8.295-6.738 7.154-3.318 5.184-8.502 21.773-23.846 3.422-3.11 7.258-6.428 9.747-10.368 6.221-10.057-10.265-22.81-16.382-34.94-.726-1.347-.415-2.902-1.245-4.147-6.324-9.642-22.914-6.842-35.045-2.073z" fill="#fff"/><path d="M159.295 4.843c-16.589 6.532-62.003 41.367-35.045 63.243.518.415 1.14.933 1.659 1.348.726.519 1.866.933 2.488 1.555-4.355 1.14-8.502 3.629-12.235 6.221-12.545 8.916-21.877 17.21-12.442 27.578.519.622 3.629 1.452 4.355.83-3.525 2.799-7.88 5.909-10.472 9.642-1.555 2.281-1.14 3.525 2.074 8.294 1.451 2.074.829 3.214 4.665 1.97 1.037-.311 6.221-1.763 7.362-1.97 1.452-.311 2.903-.622 4.355-1.037-4.459 2.696-8.917 5.702-12.442 9.642-.726.83-1.245 1.659-2.074 2.385-.726.622-1.452 1.244-1.763 2.177-.518 1.659 1.141 3.007 2.281 3.836 1.037.726 2.281 1.141 3.629 1.348 5.496.829 11.613-2.074 16.59-4.666 24.262-12.648 47.176-40.227 46.658-42.404 1.762-2.177 4.562-6.324 3.214-7.88.622-.207 6.636-2.695 8.295-6.738 7.154-3.318 5.184-8.502 21.773-23.846 3.422-3.11 7.258-6.428 9.747-10.368 6.221-10.057-10.265-22.81-16.382-34.94-.726-1.347-.415-2.902-1.245-4.147-6.324-9.642-22.914-6.842-35.045-2.073zm-57.959 91.651c.103-2.903 15.863-25.712 38.985-25.505.415 2.696 1.14 5.495 2.074 8.294-6.118.83-25.922 7.984-38.26 23.121-.207-.726-2.592-5.391-2.799-5.91zm1.244 28.511c-1.659-2.488 1.037 2.281-4.77-7.568 16.797-19.077 47.073-32.451 39.608-15.863-13.687 3.836-32.972 21.254-34.838 23.431zm1.866-.414s14.931-11.716 21.566-16.381c8.191-5.703 16.901-5.91 32.972-9.642-1.14 1.036-2.281 1.97-3.422 3.006-3.525 1.659-10.368 4.977-19.077 9.746-27.062 15.137-19.908 8.087-32.039 13.271zm59.826-27.267c-.104 0 0 0-.104-.104.104 0 .104 0 .208-.104 0 .104-.104.207-.104.207zm-9.954 5.494c-14.308 13.479-19.596 24.261-52.153 33.074 10.576-12.131 24.781-16.485 52.153-33.074zm-13.686 20.943c-8.606 7.569-34.631 22.913-40.022 13.789 0 0 .207-.311.311-.414 15.552-.415 36.186-14.93 39.711-18.351.207 1.555.518 3.732 0 4.976zm1.14-1.036c.311-1.452.208-5.495.104-5.806 4.977-5.599 11.924-11.923 16.486-15.759-16.382 18.765-13.375 15.966.726.725-.83.933-8.295 10.161-7.984 10.368 0 0 .415-.311 1.037-1.037 4.147-4.665 7.05-7.983 11.301-12.648-2.488 3.317-10.368 13.789-21.67 24.157zM170.7 89.133c-15.76 1.659-16.693 2.28-.311 1.14-.207.726-.518 1.245-.829 1.763v-.415c-7.88 1.452-11.716 2.903-.519 1.244-.414.622-.725.933-1.036 1.556-2.489-.104-27.062 6.22-27.684 6.324-1.97.518-1.037-.83-.83-2.177.208-1.66-.207-3.422-1.244-4.562v-.311c16.382-5.599 29.55-5.391 32.557-5.702 0 0 .104 0 .104.103-.104.311-.104.622-.208 1.037zm.519-2.592c-4.251-1.659-30.069 3.214-33.594 6.324 0 0-.726-.414-.829-.414-1.867-.726-4.355 0-6.221.518-18.56 5.495-16.797 13.582-25.922 10.368 18.664-18.87 31.209-20.321 37.949-22.81 2.177.312 23.64 1.66 31.52 3.837-1.037.725-2.074 1.348-2.903 2.177zm8.502-7.257c-7.154-.208-7.776.31-.415 1.14-3.214 6.74-15.76-2.488-35.564-.726.623-.83-2.281-7.88-2.799-9.02 7.776 2.074 16.175 2.385 24.262 3.214 4.044.415 8.606.622 12.339 2.385a4.353 4.353 0 011.451.933c-5.91-.622-10.368-1.037-10.368-.83 0 .208 4.769 1.037 11.198 2.074 0 .311 0 .519-.104.83zm1.348-1.14v-.208a11.222 11.222 0 002.177-2.696c.415-.726.622-1.244.519-1.348-.104-.103-1.141 1.244-2.8 2.696-1.14-3.007-7.984-2.696-30.483-6.117-1.037-.207-9.643-1.452-10.783-.933-2.592-.622-6.014-.311-10.161.933-.415-.311-5.185-3.94-5.703-4.355-20.737-14.41 15.967-49.869 32.039-33.28 2.488 2.592 3.628 6.013 4.873 9.33.933 2.49 2.177 4.977 3.629 7.362 2.903 4.873 6.843 9.227 10.887 13.167a84.227 84.227 0 004.458 4.147c2.592 2.074 8.917 5.392 1.348 11.301zm30.587-35.977c-1.348 6.843-19.908 18.662-25.092 30.274-.311-3.733-22.81-19.492-25.092-32.244 7.984-9.227 14.102-10.264 18.664-14.515 5.08-4.665 4.458-8.294 10.368-10.679 1.452-.622 3.318-1.348 4.147-2.695 6.222 14.204 18.145 24.157 17.005 29.859zm-22.5-27.682c-4.458 2.177-7.88 7.88-11.405 11.093-5.495 5.184-13.686 7.465-16.59 13.893h-.103c-1.348-8.398-8.502-13.374-17.212-12.337-8.813 1.036-17.315 7.464-21.877 13.063-1.867 2.28-3.94 5.288-4.77 8.087.622-2.385 1.555-5.184 2.903-7.361 13.479-21.773 50.806-48.729 70.402-34.421 4.666 3.421 5.184 4.769-1.348 7.983z" fill="#C88837"/><path d="M126.738 50.876c-1.14.726-1.555 2.384-.829 3.421.311.519.829.726 1.348.622.933-.103 1.036-.83 1.036-.83l-.207.208c-.415.311-1.348.207-1.555-.415-.311-.725 0-1.97.622-2.592.518-.518 1.348-.518 1.763-.103l.207.207c0-.31-.311-.726-.83-.933-.518-.104-1.036 0-1.555.415zm10.991 4.458c-.519.311-.726.83-.83 1.244-.104.415.104.83.311 1.037.104.104.104.104.208.104h.207a.454.454 0 00.311-.104c.207-.103 0-.207 0-.207s0 .104-.104.104h-.207c-.933-1.037 1.348-2.903 2.385-.622v-.208c0-.207 0-.415-.208-.622a1.595 1.595 0 00-.726-.726c-.311-.207-.829-.31-1.347 0zm15.345.518c.518-.207 1.141.104 1.348.519.104.207.207.31.207.518v.207s.208-.31.104-.933c-.104-.31-.207-.622-.622-.83-.311-.206-.83-.414-1.348-.206-.518.207-.933.621-1.037 1.036-.103.415-.103.83 0 1.037.208.622.622.622.519.726 0 0 0-.104-.104-.208-.104-.103-.104-.31-.104-.518.208-.518.519-1.244 1.037-1.348zm-16.797 9.85c-.207-.103-.622-.103-.933 0-.414.104-.726.519-.933.933-.207.415 0 .933.311 1.244.311.208.726.311.933.208.311-.104.415-.208.519-.311.103-.104.103-.208.103-.208s-.103 0-.207.104c-.104 0-.311.104-.518 0-.208 0-.415-.207-.519-.311-.103-.104-.103-.311 0-.518.104-.208.208-.415.415-.519.207-.103.415-.207.622-.207h.726s0-.104-.104-.104c0-.104-.207-.31-.415-.31zm-2.385-28.201c-.414-.103-1.036-.103-1.555.208a.935.935 0 00-.622.622c-.207.207-.311.518-.311.83 0 .518.207.932.415 1.14.103.103.103.103.207.103s.208.104.208.104h.103c.104 0 .104-.104.104-.104.104-.207 0-.31 0-.31 0-.312 0 .518-.311.207-.933-.519-.104-3.11 3.214-1.348 0 0 0-.104-.104-.208-.103-.103-.207-.31-.518-.518 0-.31-.415-.622-.83-.726zm18.975 29.237c-.208.311-.415.622-.415.933 0 .311.104.726.207.934.311.518.83.622 1.244.725.415 0 .726-.103.934-.207.207-.104.311-.207.311-.207s-.104.103-.311.103c-.208 0-.519.104-.83 0a1.61 1.61 0 01-.829-.622c-.104-.31-.104-.726.207-1.14.311-.415.726-.622 1.037-.622.415 0 .726.207 1.037.414.311.208.518.415.622.622l.207.208s0-.104-.103-.311c-.104-.208-.208-.519-.415-.83-.208-.31-.622-.725-1.244-.725-.519-.208-1.245.207-1.659.725zm12.753-5.909c.311.104.518.311.726.518.207.208.207.415.311.622 0 .208.103.312.103.312s0-.104.104-.312v-.829c-.104-.311-.311-.726-.726-.933-.415-.311-1.037-.311-1.555-.104-.622.208-1.037.726-1.244 1.244-.104.519 0 .934.207 1.245.207.31.415.414.622.518.208.104.311 0 .311 0s-.103 0-.207-.104c-.104-.103-.207-.31-.311-.518-.104-.207-.104-.622.104-.83.103-.31.414-.518.725-.622.208-.31.519-.31.83-.207zM119.273 57.2c.311.518.933 1.14 1.452.726-.208 0-.311-.104-.519-.415-.311-.518-.622-1.659-.207-2.074.829-.933 1.348.415 1.14-.103v-.208c0-.103-.207-.31-.518-.414-1.244-.311-2.281 1.037-1.348 2.488zm56.3 12.13c-.414-.103-1.036-.103-1.451.208-.519.311-.726.933-.622 1.348 0 .518.311.83.622.933.518.31.933.103.933.103s-.104 0-.207-.103c-.104-.104-.311-.207-.415-.311-.104-.207-.207-.415-.207-.726s.207-.518.414-.726c.519-.414 1.245-.207 1.659 0 .208.104.415.208.519.311.103.104.207.104.207.104s0-.104-.104-.207c-.103-.104-.207-.311-.414-.519-.208-.103-.519-.31-.934-.414zm-10.886-.829c-.311.208-.519.519-.623.933-.103.415.104.83.312 1.037.207.208.518.311.725.311.415 0 .726-.207.726-.207h-.207c-.104 0-.208-.104-.311-.207-.208-.208-.415-.622-.415-.934 0-.31.415-.622.622-.829.104-.104.311-.104.415-.104h.207s-.104-.207-.622-.31c-.311.103-.518.103-.829.31zm-25.61 15.863c-.415.207-.83.622-.934 1.14-.103.519 0 1.037.311 1.348.311.311.83.415 1.141.207.311-.207.415-.518.415-.622 0-.207-.104-.207-.104-.207v.207c-.104.104-.207.311-.415.311-.207 0-.311-.103-.518-.31-.104-.208-.104-.415-.104-.727.104-.31.208-.518.415-.621.207-.104.518-.208.726-.208.207 0 .414 0 .518.104.104.103.207.103.207.103s-.103-.414-.622-.622c-.207-.207-.518-.207-1.036-.103zM116.992 94.94c.207.414.518.518.622.414h.104c.103-.104.207-.207.207-.311 0-.104-.104-.104-.104-.104 0 .104-.207.208-.103.104.103-.83.518-1.244.933-1.348 0 0-.104-.207-.415-.207-.933-.104-1.555.83-1.244 1.451zm11.094-5.185c-.414.207-.933.622-.933 1.14 0 .519.415.83.83 1.037a2.29 2.29 0 001.659 0c.103-.103.207-.103.207-.103-.208 0-.519 0-.83-.104-.414-.104-.725-.311-.933-.622-.103-.104-.311-.311.311-.726.311-.311.83-.518 1.245-.622h.207s-.104 0-.207-.104c-.519-.207-1.037-.207-1.556.104zm23.225-3.11c.208 0 .208-.207.104-.311h-.104c.104 0 0 .104 0 .104-.207.103-.622-.83-.622-1.037-.103-.519.415-.933.933-1.14.519-.104 1.141-.104 1.659-.104 0 0-.103 0-.207-.104-.518-.311-.933-.518-1.555-.518-.83.103-1.556.725-1.659 1.347-.104.622.311 1.037.829 1.452.208.311.415.415.622.311zm-26.543 26.853c-.415.103-.829.518-.933 1.036-.104.622.207 1.037.518 1.348.312.208.83.208 1.037.104h.104c.207-.415 0-.622-.207-.726a.317.317 0 010 .415c-1.659-.311-.311-2.592 1.036-1.659 0 0-.103-.311-.622-.518-.207-.104-.622-.208-.933 0zm11.613-3.836c-1.556 0-.622-2.281.518-1.452 0 0 0-.311-.415-.518-.207-.104-.518-.208-.829-.104-.83.207-1.244 1.244-.726 1.866.207.208.519.311.726.415.518.104.726-.207.726-.207zm-20.841 10.575c.208.103.415.103.519 0 .103 0 .207-.104.207-.104h-.207c-.104 0-.208-.104-.311-.207-.104-.104-.104-.311-.104-.415 0-.104.104-.311.311-.415.311-.311.83-.518 1.141-.829.414-.208.518-.415.518-.415-3.11.104-2.903 1.97-2.074 2.385zm11.302 1.347c-.207.311-.311.622-.311.83-.104.414-.104.725-.104.725s.208-.207.519-.622c.311-.414.622-.829 1.14-.933.208-.103.415-.103.622-.103.208 0 .311.207.415.311.104.103.104.311.104.414 0 .104-.104.208-.104.208s.104 0 .207-.104c.104-.104.208-.311.208-.622s-.104-.622-.415-.83c-.726-.311-1.763 0-2.281.726zm10.161-5.391s.104-.207-.208-.622c-.725-.933-2.488-.104-2.592 1.555.519-.311 2.074-1.866 2.8-.933zm-21.462 9.953c-.519.207-.83.622-1.037 1.037-.208.414-.311.725-.311 1.036 0 .312 0 .519.103.726 0 .104.104.208.104.208v-.208c0-.103.104-.414.207-.622.208-.518.622-1.14 1.245-1.348.622-.207 1.244-.103 1.659.208.207.103.311.311.311.414.103.104.103.208.103.208s.208-.415-.103-.933c-.104-.311-.415-.519-.83-.726-.415-.207-.933-.311-1.451 0zm26.231-20.839s-.311-.104.104-.415c.415-.518 1.037-1.244 1.659-1.244.311 0 .726.104.829.311 0 .104.104.207.104.207s.208-.311-.104-.725c-.311-.519-1.14-.726-1.866-.208-.726.519-1.348 1.659-.933 2.074.104.104.207 0 .207 0zm17.005-58.785a1.273 1.273 0 00-1.141-.311 1.903 1.903 0 00-1.037.726c-.207.31-.207.622-.207.829 0 .518.311.622.311.622v-.207c0-.104 0-.311.104-.415.103-.311.518-.726.933-.83.414-.103.829.104 1.037.415.103.104.207.311.207.415v.207s.207-.207.104-.725c.103-.208-.104-.519-.311-.726zm-13.168 1.451c.933-4.25-4.147-3.214-2.489-.415.104-2.488 1.659-2.073 2.489.415zm1.244-9.85c0-.414-.207-1.14-.622-1.555-1.348-1.555-3.525.415-2.488 1.348a.32.32 0 00.207.104s-.311-.726.415-1.14c.933-.415 1.97.621 2.488 1.243z" fill="#C88837"/><path d="M153.592 33.251a12.43 12.43 0 011.97 2.177c.104.208.208.311.415.519.104.207.208.31.311.518.208.311.415.622.519.933.311.519.518.933.622 1.244.103.311.207.415.207.415s-.104-.207-.207-.518c-.104-.311-.311-.726-.519-1.348-.103-.311-.311-.622-.414-.933-.104-.208-.208-.311-.311-.519-.104-.207-.208-.31-.311-.518-.519-.726-1.037-1.555-1.867-2.385-.829-.83-1.866-1.555-3.11-2.177-9.643-4.562-27.477 4.458-31.313 20.321 6.117-17.21 25.817-24.779 34.008-17.729zm50.08 16.484c-2.177 1.866-5.184 4.458-8.191 7.672-3.007 3.214-5.495 6.325-7.154 8.606-.83 1.14-1.452 2.073-1.97 2.799-.415.622-.726 1.037-.726 1.037s1.141-1.348 3.111-3.422c1.97-2.177 4.562-5.08 7.569-8.19 3.006-3.214 5.702-6.014 7.672-8.087 1.97-2.074 3.214-3.318 3.214-3.318-.829.726-1.658 1.348-3.525 2.903zm-14.205 11.198c-.726 1.037-1.037 1.762-1.037 1.762s.623-.518 1.556-1.451 2.177-2.074 3.525-3.525c1.348-1.452 2.488-2.696 3.318-3.733a22.435 22.435 0 001.348-1.658s-.726.414-1.763 1.14-2.385 1.866-3.733 3.318a28.47 28.47 0 00-3.214 4.147zm-9.746 7.672c-.519-.415-1.037-.933-1.659-1.452-1.244-1.14-2.592-2.488-4.148-4.043-1.451-1.555-3.11-3.318-4.665-5.288-1.556-1.97-3.007-3.836-4.251-5.598-1.245-1.763-2.281-3.421-3.215-4.77-.414-.725-.829-1.347-1.14-1.865-.311-.519-.622-1.037-.83-1.452-.414-.83-.725-1.244-.725-1.244s.207.518.518 1.348c.207.414.415.933.726 1.555.311.622.622 1.244.933 2.073.726 1.452 1.659 3.214 2.903 5.08 1.141 1.867 2.592 3.837 4.251 5.807 1.659 1.97 3.318 3.732 4.873 5.184 1.659 1.451 3.111 2.799 4.459 3.732.622.518 1.244.933 1.866 1.348a8.356 8.356 0 001.452.933c.829.518 1.244.83 1.244.83s-.415-.312-1.141-.934c-.518-.415-.933-.726-1.451-1.244zm-5.806-43.441c-2.178 1.762-5.184 3.214-7.258 4.873-1.452 1.14-2.178 2.073-2.903 3.214-.208.414-.104.31-.311.725 0 0 .103-.103.207-.31.207-.415.104-.312.518-.83 1.763-2.281 4.666-3.421 7.569-5.08a21.807 21.807 0 002.8-1.867c5.599-4.354 7.88-11.611 15.138-13.892-7.362 1.244-10.68 8.916-15.76 13.167z" fill="#C88837"/><path d="M166.968 28.482c3.836-1.14 7.776-4.459 9.746-7.569-3.007 2.177-7.88 6.014-9.746 7.569zm41.888 10.368c-3.836-7.05-10.057-16.278-15.138-22.498 3.733 7.05 10.058 16.277 15.138 22.498zm-6.947-5.6c-1.244-3.42-3.836-7.671-6.428-10.263 1.14 3.317 3.836 7.568 6.428 10.264zm-26.75-29.651c-.83.207-1.555.311-1.97.518-.415.104-.726.208-.726.208s.311 0 .726-.104c.518 0 1.14-.104 1.97-.104 5.184-.103 10.057 1.14 14.619 3.318-4.251-3.629-9.642-4.77-14.619-3.836z" fill="#C88837"/><path d="M176.507 5.569c1.659.518 6.117 1.451 9.642 1.866-2.488-1.866-6.636-2.592-9.642-1.866zm-24.573 8.397a92.899 92.899 0 016.739-3.732c1.037-.518 2.074-1.037 3.111-1.451.933-.415 1.866-.83 2.695-1.14.83-.312 1.556-.623 2.281-.83a33.3 33.3 0 001.763-.622c.933-.311 1.452-.519 1.452-.519l-1.556.311c-.518.104-1.036.208-1.762.415s-1.452.415-2.385.622a44.23 44.23 0 01-2.799.933c-1.037.311-2.074.83-3.215 1.244-2.177.934-4.562 2.178-6.946 3.63-6.429 3.939-10.887 8.086-15.138 13.166 4.769-4.354 9.124-7.983 15.76-12.026z" fill="#C88837"/><path d="M158.569 12.722c.83-.414 1.452-.725 1.97-.933.415-.207.726-.31.726-.31s-.311.103-.726.207c-.518.103-1.244.31-2.073.622-1.763.518-4.044 1.555-6.429 3.006-3.11 1.97-5.391 4.251-7.361 6.843 1.555-1.348 3.94-3.421 7.88-5.91 2.281-1.555 4.458-2.799 6.013-3.525zm-2.073 3.215s-1.659.414-3.422 1.555c-1.763 1.14-2.903 2.488-2.903 2.488s1.659-.415 3.421-1.555a14.526 14.526 0 002.904-2.489zm-22.5 85.223c-6.532 1.14-12.027 4.354-16.486 9.746 6.947-5.288 11.613-7.569 16.486-9.746zm-3.11-1.348c-3.629.518-8.191 3.214-10.472 6.532 5.806-3.733 8.605-5.392 10.472-6.532zm-3.318-16.589c3.11-1.348 5.91-2.384 8.087-3.11 1.037-.311 1.97-.622 2.489-.726.622-.207.933-.207.933-.207s-.311 0-.933.103c-.623.104-1.452.208-2.593.415-1.14.208-2.384.519-3.836.933-1.451.415-3.007.933-4.562 1.66-1.555.725-3.007 1.554-4.355 2.28-1.244.83-2.384 1.555-3.318 2.281-1.348 1.037-1.866 1.555-2.799 2.385 2.074-1.348 5.495-3.525 10.887-6.014zm1.762-3.11c1.556-.622 3.007-1.14 4.044-1.555a20.265 20.265 0 011.763-.622h-1.866c-1.141.103-2.696.414-4.355 1.036-1.659.623-3.007 1.556-3.94 2.281a17.129 17.129 0 00-1.452 1.245s.622-.312 1.659-.726c1.141-.415 2.592-1.037 4.147-1.659zm1.037-2.8c.726-.31 1.348-.725 1.867-.933.414-.31.725-.518.725-.518h-.933c-.518 0-1.244.207-2.073.518-.726.311-1.452.726-1.867 1.14-.415.312-.622.623-.622.623s.311 0 .933-.104c.519-.207 1.141-.415 1.97-.726zm-2.592 21.566c-2.696.103-5.599 2.177-6.74 4.354 2.281-1.14 5.081-3.007 6.74-4.354zm13.79-.519c3.629.104 8.502-.83 11.924-2.28-3.629 0-8.502.932-11.924 2.28zm11.509-21.046c-2.177-.208-4.251-.104-5.703 0-1.451.103-2.384.31-2.384.31s.933.104 2.281.312c1.451.207 3.318.414 5.495.622 2.903.31 6.636.518 7.88.622-1.555-.83-4.562-1.556-7.569-1.867zm-26.336 53.809c-3.214 1.866-6.324 3.421-8.502 4.354-1.14.519-2.073.933-2.695 1.141-.623.311-1.037.414-1.037.414s.414-.103 1.037-.207c.622-.207 1.658-.415 2.799-.829 1.14-.415 2.592-.933 4.044-1.555 1.555-.623 3.11-1.452 4.769-2.385 1.659-.933 3.214-1.97 4.459-3.007 2.592-1.97 4.251-3.525 6.221-5.702-1.97 1.659-5.496 4.458-11.095 7.776zm9.747-96.317c5.495-3.007 10.783-2.903 14.93-.726.726.415 1.244.726 1.659 1.037.415.31.622.415.622.415s-.103-.208-.414-.519c-.312-.31-.726-.83-1.452-1.348-4.562-3.836-11.613-2.695-15.345 1.14zm36.497-2.592c-4.355 1.14-7.673 4.147-9.228 8.501 1.97-2.28 4.147-4.665 9.228-8.501zm-61.485 82.942c-3.422 1.348-6.947 4.665-8.503 7.568 2.592-1.762 6.118-4.872 8.503-7.568zm26.439-67.286c.933-.519 0-1.66-.725-.83l-.104.104c-.311.415 0 1.037.829.726zm7.88-4.666c.829 1.037 2.385-.415 1.555-1.244-.829-1.037-2.281.415-1.555 1.244zm.415 10.471c-.207.207-.207.726 0 .933.311.208.622.208.933-.103.311-.312.311-.726 0-1.037-.311-.104-.726 0-.933.207zm-16.59 6.428c-.311.519.208 1.037.726.622.311-.207.726-.622.726-1.037 0-.103.104-.207 0-.31a.224.224 0 00-.208-.208c-.207 0-.311 0-.414.104-.415.207-.622.518-.83.83zm.519-12.337c-.207.414.207.829.622.829.933.207 1.452-.933 1.037-1.451-.622-.623-1.659-.104-1.659.622zm21.981 2.177c-.311.207-.415.83-.207 1.14.103.104.311.311.518.415.104.104.311.104.415.104.311.103.829-.208.725-.519 0-.103.001-.31-.103-.414-.104-.208-.104-.311-.208-.519-.207-.518-.829-.518-1.14-.207zm-4.458 13.789a.777.777 0 000 1.244l.103.103c.519.415 1.452-.31 1.141-.933 0-.103 0-.103-.104-.207-.207-.415-.726-.518-1.14-.207zm12.753-4.251c-.519-.415-1.556.311-1.245.933 0 .104 0 .104.104.207.207.415.83.623 1.244.208a.777.777 0 000-1.244c0-.104-.103-.104-.103-.104zm-26.025 27.682c-.933.726.104 1.97 1.037 1.244.933-.622-.104-1.97-1.037-1.244zm-20.53 12.027c.83.933 2.074-.415 1.452-1.14-.829-.934-2.177.414-1.452 1.14zm30.691-15.033c-.726.622.104 1.555.829 1.037.726-.623-.103-1.556-.829-1.037zm-16.693 25.297c-.104.207-.208.518 0 .725.103.415.726.519 1.037.104.207-.207.311-.415.103-.726-.207-.414-.726-.518-1.14-.103zm-8.399 8.605c-.622.519.104 1.348.726.83.519-.519-.104-1.348-.726-.83zm19.389-11.093c1.141-.518 0-1.97-.829-1.037l-.104.104c-.311.518.104 1.348.933.933zm-5.806 12.13c-.207 0-.415.207-.415.518-.311.83.623 1.244 1.141.83.207-.208.311-.519.311-.83-.207-.414-.622-.518-1.037-.518zm-10.369 5.495c-.414-.104-.622.207-.622.518 0 .104 0 .207.104.311.104.311.622.415.829.207.312-.207.312-.725 0-.933-.103 0-.207 0-.311-.103zm-12.131 6.221s0 .103-.103.103c-.208.415.207.83.622.726h.207c.519-.104.726-.726.415-1.037-.311-.414-.933-.311-1.141.208zm14.516-41.99c-.829.726.104 1.866.934 1.244.829-.726-.104-1.866-.934-1.244zm28.306-49.04a.81.81 0 00.415.415c.415.207.829-.208.933-.622.104-.415-.311-.83-.726-.726-.415.207-.726.518-.622.933zm7.673 18.248c.622-.519-.104-1.452-.726-.933-.622.622.104 1.451.726.933zm13.583-8.398c1.14-.519.622-1.66-.208-1.348-1.14.31-.726 1.762.208 1.348zm4.873-14.204c-.311.207-.311.622 0 .933 1.14 1.14 1.14-1.866 0-.933zm9.849 13.582c-.414-.519-1.555.103-.829.933.415.518 1.348 0 .829-.934zm-.31-15.967c1.036-.415-.104-1.866-.726-.933 0 .104-.104.104-.104.207-.311.415 0 1.037.83.726z" fill="#C88837"/><path d="M285.687 66.532c-5.185-3.94-10.058-3.11-12.339-2.177-.104-.104-.104-.208-.207-.208-7.466-7.257-32.039-5.806-40.126 7.983-.104 0-.415.104-.519.208-16.174.933-26.128 15.033-25.921 19.387-13.893 5.288-20.426 20.736-16.174 24.572-9.643 12.752.414 31.726 13.997 23.431 1.659 3.214 24.158.726 34.631-11.301.622.311.725.208 12.338-4.561 11.924-4.873 15.242-9.331 19.285-17.626 23.848-15.033 23.64-33.177 15.035-39.708z" fill="#fff"/><path d="M285.687 66.532c-7.569-5.702-14.413-1.348-13.687-1.452 9.954-.414 16.693 1.763 18.352 12.13-1.866-8.812-14.723-16.07-29.446-5.39-1.763 1.244-3.525 1.97-5.495 2.591-.519 0-.933.104-1.452.104-.207 0-.415-.104-.415.104-.933.103-1.97.31-2.903.622-2.799-2.074-5.702-3.11-7.88-3.629-2.281-.518-3.732-.518-3.732-.415 0 .104 1.347.311 3.525.933 1.866.623 4.355 1.66 6.739 3.422-3.214-1.659-11.301-4.355-14.93-3.836 3.94-3.007 10.99-13.064 28.824-10.264 2.696.414 11.198 3.836 9.954 2.592-7.466-7.258-32.039-5.806-40.126 7.983-.104 0-.415.103-.519.207-16.174.933-26.128 15.034-25.921 19.388-13.893 5.287-20.426 20.735-16.174 24.572-9.643 12.752.414 31.725 13.997 23.431 1.659 3.214 24.158.726 34.631-11.301.622.311.725.207 12.338-4.562 11.924-4.873 15.242-9.331 19.285-17.625 23.848-14.93 23.64-33.073 15.035-39.605zm-43.963 8.19c1.763.623 3.629 1.556 5.496 2.074a6.982 6.982 0 00-1.141.726c-4.044-1.97-8.398-2.8-12.546-2.592-1.14 0-5.391.518-5.288.933 0 .104 2.074-.415 5.288-.311 3.111 0 7.258.726 11.509 2.695-2.592 1.97-4.562 4.459-6.013 7.362-.83.933-.934 2.28-1.97 3.006-.208.104-.312.208-.519.208-2.903-1.763-8.398-2.592-12.96 1.347 4.043-1.866 7.88-2.384 12.545-1.244-.622.104-1.347.208-1.866.519-2.696-.311-6.843-.104-11.509 2.073-4.666-1.866-9.85-1.762-14.723-.207 3.11-9.227 16.175-20.632 33.697-16.589zm-4.458 15.448c.104 0 .104-.103.104-.103 0 .103 0 .207-.104.207.104 0 0 0 0-.104zm-15.656 1.867s-.104-.104 0 0c0-.104 0-.104 0 0 .103-.104 0 0 0 0zm-1.245.622c-5.702 3.317-10.886 8.812-13.997 15.24-1.141-.518-8.71 0-15.138 7.361-5.495-9.538 16.382-28.51 29.135-22.601zm-14.308 15.862c-.311-.103-.622-.103-1.348 0 .518-.103.933-.103 1.452-.207 0 .104-.104.207-.104.207zm-8.917 3.629c-5.288 3.733-6.843 10.472-6.325 10.575 0 0 2.592-11.819 14.516-12.441-.104.311-.207.622-.415.933-3.94-.311-7.154 2.488-6.739 2.799.104.104.726-.518 1.97-1.14 1.037-.519 2.696-.933 4.458-.726-2.799 8.605-1.14 15.967-.622 24.779-.103 0-3.11 1.97-1.762 1.037-5.392 1.762-10.576-1.555-11.613-6.843-.311 3.525 2.385 7.569 6.843 7.983 1.452.104 2.696-.103 3.94-.622-15.242 7.569-17.834-20.839-4.251-26.334zm41.059 14.93c-6.636 8.709-31.52 17.729-32.764 8.709-1.763-12.131-2.489-25.09 9.228-36.91 6.636-6.635 12.338-9.227 22.292-8.294.104 0 .207-.103.311-.207-2.592 10.057 4.562 31.829.933 36.702zm12.027-4.562c-2.281.829-4.976 1.866-7.568 3.007-1.141.518-2.489-.311-2.385-1.556.103-4.769 1.348-8.19-.933-20.735-4.251-23.224 13.479-32.037 24.469-24.364 13.79 9.434 9.332 34.939-13.583 43.648zm23.329-19.699c-.622.519-1.451-.104-1.244-.829 4.251-13.478-2.281-24.365-11.82-26.853 14.309-17.107 47.28-1.451 13.064 27.682z" fill="#C88837"/><path d="M219.225 135.893c-13.894 3.628-12.131-3.94-12.027-9.02-.519 4.25-2.904 14.1 12.338 10.056 2.799-.725 5.392-1.762 7.569-3.006 3.94-2.281 6.843-5.08 9.228-8.605-4.355 4.976-9.332 8.501-17.108 10.575zm41.681-57.645c16.9 11.3 6.014 38.153-14.62 43.544 22.5-4.043 32.557-33.488 14.62-43.544z" fill="#C88837"/><path d="M266.298 76.693c8.191 6.013 11.198 15.655 7.154 25.608 5.495-9.227 2.281-20.632-7.154-25.608z" fill="#C88837"/><path d="M274.489 69.642c4.147-.518 7.672 1.556 9.538 4.666 5.392 9.02-3.525 18.247-6.739 23.12 3.525-4.147 13.79-13.996 7.465-23.639-2.073-3.11-6.013-5.183-10.264-4.147z" fill="#C88837"/><path d="M281.435 87.268c4.77-4.77 3.111-13.27-2.799-16.07 5.081 4.147 5.91 10.782 2.799 16.07zm-19.699 21.15c7.05-7.154 8.087-18.144 1.555-26.438 5.184 9.227 4.044 18.662-1.555 26.438zm-26.958-12.026v2.28c0 .83.103 1.659.207 2.592 1.037 9.02 3.318 12.753 1.555 20.736 2.592-7.154.83-11.923-.726-20.839-.103-.933-.311-1.763-.311-2.489 0-.414-.103-.829-.103-1.14v-1.037c-.104-1.555.207-3.629.207-4.354-.207.518-.829 2.488-.829 4.25z" fill="#C88837"/><path d="M233.948 102.301c-.415-1.348-.726-2.385-1.037-3.11-.207-.726-.415-1.14-.415-1.14s.312 1.658.934 4.354c1.762 8.916 2.903 16.899-1.763 24.571 5.806-6.946 4.977-15.966 2.281-24.675zm32.453-37.739c-7.569-3.214-16.278-3.006-24.158 2.903 7.05-3.732 14.516-5.184 24.158-2.903z" fill="#C88837"/><path d="M263.394 66.428c-4.562-2.28-9.539-2.28-14.412.208 5.08-.933 9.021-1.14 14.412-.208zM228.245 85.92c3.837-.104 5.807 0 9.021.207-2.8-1.659-6.014-1.763-9.021-.207zm-14.93 9.435c-9.747.414-16.693 6.013-20.011 13.996 4.977-7.983 11.612-12.13 20.011-13.996z" fill="#C88837"/><path d="M196.414 107.796c3.318-3.733 6.221-6.117 10.68-8.502-4.977 1.037-8.71 3.94-10.68 8.502zm31.728-15.759c-13.479 3.629-21.878 15.552-20.737 29.444.414-13.063 7.361-24.156 20.737-29.444zm31.001-13.375c-7.88-3.525-16.693 1.14-18.248 9.746 3.11-8.19 10.576-11.508 18.248-9.746z" fill="#C88837"/><path d="M253.648 79.803c-4.769-.622-8.917 2.177-10.161 6.739 2.488-3.629 5.495-5.806 10.161-6.74zm-11.509 25.608c-.518-4.354-1.244-7.88-2.281-11.612.519 3.525.726 5.806 1.037 8.916.726 8.191-1.141 20.321 3.94 18.559-4.666.933-1.97-9.746-2.696-15.863zm-39.089 29.237c-3.318 2.592-7.362 2.385-10.265-.829 1.555 4.562 8.191 4.769 10.265.829zm24.573-4.561c-5.391 3.732-10.679 4.976-17.211 3.732 5.91 2.592 12.442 1.555 17.211-3.732zm19.804-10.991c4.977-.725 9.021-3.317 11.716-7.568-3.732 3.214-6.739 5.288-11.716 7.568zm-31.416-11.715c.933-.415.207-1.866-.726-1.451-.933.414-.208 1.866.726 1.451zm9.124-4.354c.104-.519-.207-.622-.622-.83-1.141-.518-1.763 1.555-.415 1.763.622.103.83-.415 1.037-.933zm-.415-6.428c-.726.518-.311 1.348.518 1.037.519.103 1.037-.519.726-1.037-.207-.518-1.037-.518-1.244 0zm-5.08 2.177c-.104.518-.208.726.103 1.14.311.519 1.037.311 1.244-.207.104-.104.104-.207.208-.415.726-1.244-1.244-1.97-1.555-.518zm8.398 2.073c1.348 0 .518-2.177-.622-.933-.207.311 0 .933.622.933zM215.7 112.046c-.415.311-.104 1.037.414.934.208.103.415 0 .622-.104 1.348-.415-.311-2.385-1.036-.83zm11.301-15.966c-.933.415-.207 1.763.622 1.348.934-.415.208-1.763-.622-1.348zm3.525-.83s.104 0 0 0c1.452 0 .415-2.073-.414-1.036-.519.415-.208 1.14.414 1.037zm12.028-2.28c.829-.415.207-1.66-.622-1.244-.726.414-.104 1.659.622 1.244zm4.355-6.221c-.519-.933-1.867-.208-1.452.726.622.933 1.97.103 1.452-.726zm-.208 5.288c-.414.415-.103 1.14.519 1.037h.311c1.244-.208.311-2.074-.622-1.244l-.208.207c.104-.104.104-.104 0 0zm4.977-6.221c.207-.519-1.037 1.348.622 1.14 1.452-.207.415-2.177-.622-1.14z" fill="#C88837"/><path d="M250.952 81.254c-.829.415-.207 1.763.622 1.348.83-.415.208-1.762-.622-1.348zm6.429 2.592c.829-.415.207-1.659-.622-1.244-.83.415-.208 1.659.622 1.244zm-1.97 4.562c1.866-1.14-1.348-1.555-.726-.311.103.31.518.518.726.31zm-42.2-1.452c-.415.311-.207 1.14.726.933.415-.103.622-.518.415-.83-.208-.414-.623-.621-1.141-.103zm4.562.726c-.726.415-.207 1.555.622 1.244.726-.415.208-1.659-.622-1.244zm-.207-4.25c-.726.31-.207 1.347.518 1.036.622-.31.104-1.347-.518-1.036zm3.94 3.317c-.519.207-.104 1.037.414.83.519-.208.104-1.037-.414-.83zm5.91-3.318c.726-.31.207-1.451-.519-1.036-.725.31-.207 1.348.519 1.037zm-2.799 4.044c.311-.207.414-.622.207-.933-1.244-1.348-1.555 1.659-.207.933zm8.813-3.525c.622-.311.207-1.348-.519-1.037-.622.311-.103 1.348.519 1.037zm3.11-4.251c.622-.311.207-1.348-.518-1.037-.623.311-.104 1.348.518 1.037zm-5.91-.311c.519-.31.104-1.14-.415-.83-.518.208-.207 1.037.415.83zm-28.306 26.749c.311.311.83.104.726-.415.104-.207 0-.414-.207-.622-.726-.518-1.348.83-.519 1.037zm6.947-6.428c-.622.311-.207 1.347.518 1.036.623-.311.104-1.347-.518-1.036zm5.599-3.939c.518-.208.104-1.037-.415-.83-.518.207-.103 1.037.415.83zm-10.679 7.464c0 .104-.104.207-.208.415-.518.725 1.037.725 1.244-.311.208-.623-.725-.934-1.036-.104zm-11.198 24.675c.622-.311.207-1.348-.519-1.037-.622.312-.103 1.348.519 1.037zm3.11-5.598c-.725-.518-1.348.622-.829 1.037.933.622 1.555-.622.829-1.037zm1.659 4.665c-.726.312-.207 1.452.519 1.141.725-.311.207-1.452-.519-1.141zm.104-11.093c-.311-.415-.933-.208-1.037.207-.415 1.141 2.074 1.141 1.037-.207zm12.753 6.013c-.726.311-.207 1.451.519 1.14.725-.415.207-1.451-.519-1.14zm7.984-2.696c-.104.415.311.83.622.519.829-.208.726-1.452 0-1.348-.311.103-.622.311-.622.829zm7.984-9.02c.725-.311.207-1.452-.519-1.141-.726.312-.207 1.452.519 1.141zm20.322-10.057c.207-.31 0-.622-.311-.622-.623-.31-1.037.311-.83.83.104.207.311.311.622.311.208 0 .415-.208.519-.519zm7.465-3.939c.725-.415.207-1.555-.519-1.14-.829.31-.207 1.555.519 1.14zm13.582-21.461c.83-.415.208-1.659-.622-1.244-.726.415-.103 1.659.622 1.244zm5.807-3.111c1.14-.311.414-1.866-.622-1.244-.311.207-.519.518-.311.933.103.415.518.415.933.311zm.103 5.391c.83-.415.208-1.659-.622-1.244-.725.415-.207 1.659.622 1.244zm-3.732-.725c.829-.415-.311-1.763-.726-.622-.207.414.311.83.726.622zm-18.352-6.843c-.623.311-.208 1.244.518 1.037.622-.311.104-1.348-.518-1.037zm1.244 4.665c.104.726 1.244.519 1.14-.207-.103-.31-.311-.518-.622-.414-.311-.104-.518.31-.518.622zm-6.014-3.732c.207.519 1.037.104.83-.414-.104-1.037-1.659-.311-.83.414zm-5.184-1.14c.518-.311.104-1.14-.415-.83-.622.208-.207 1.14.415.83zm19.285 1.762c.622-.311.208-1.348-.518-1.037-.622.415-.104 1.348.518 1.037zm7.154-4.977c.726-.31.208-1.451-.518-1.14-.726.311-.207 1.451.518 1.14zm-16.589 42.094c.726-.415.103-1.556-.519-.934-.207.208-.207.415-.103.622 0 .415.414.519.622.312zm-6.014 5.08c-.103.311.104.622.311.726 1.556.518.622-2.696-.311-.726zm-21.981 7.983c.415-.207.104-.933-.311-.726-.518.311-.207 1.037.311.726zm-8.191 7.983c.104-.518-.829-.829-1.037.208-.103.518.933.725 1.037-.208zm62.314-43.856c0-.518-.725-.829-1.036.104-.104.726 1.036.933 1.036-.104zm-63.04 17.937c-.518.518-4.977 4.354-5.184 11.715 1.866-5.184 3.007-7.568 5.184-11.715zm8.191-25.194c-4.354.726-7.465 3.11-9.435 6.532 4.562-3.836 6.947-5.08 9.435-6.532zm20.841 29.03c.207-3.318-.311-7.88-1.452-11.093-.207 3.317.415 7.879 1.452 11.093zm-40.851 7.983c-2.282 5.391-2.696 10.782-1.037 16.692-.208-6.739.103-10.782 1.037-16.692zm-3.319 4.562c-.725 1.659-.933 4.044-.311 5.806.83-1.659.934-4.043.311-5.806z" fill="#C88837"/><path d="M91.59 10.857c-9.125 11.3-12.236 28.926-.312 38.671-11.924 6.325-18.248 20.736-15.76 33.592.104.622.207 1.244.415 1.866 3.11 12.13 11.612 13.686 15.552 15.448l2.178.933c2.8 1.244 5.703 2.178 8.917 2.074 16.9-.519 29.135-25.712 23.329-41.264-1.452-3.836-2.903-5.184-5.288-7.154 6.947-3.317 12.857-9.123 16.486-16.796 14.412-31.103-25.507-52.046-45.518-27.37z" fill="#fff"/><path d="M91.59 10.857c-9.125 11.3-12.236 28.926-.312 38.671-11.924 6.325-18.248 20.736-15.76 33.592.104.622.207 1.244.415 1.866 3.11 12.13 11.612 13.686 15.552 15.448l2.178.933c2.8 1.244 5.703 2.178 8.917 2.074 16.9-.519 29.135-25.712 23.329-41.264-1.763-4.665-3.526-5.599-6.74-8.502 18.56-9.123 25.403-35.665 8.295-48.832 20.218 12.13 11.198 40.85-7.776 49.247.725.622.725.622.933.83 6.947-3.318 12.857-9.124 16.486-16.796 14.412-31-25.507-51.943-45.518-27.267zm21.462 38.982c-3.111-1.036-3.111-1.244-5.703-2.384-3.007-2.592-4.251-3.525-7.05-7.154 3.525-3.421 7.258-6.635 11.198-9.538a27.011 27.011 0 002.281 2.592c2.177 2.177 4.458 4.665 7.05 6.324.104.104.208-.104.104-.207-2.178-2.592-4.562-4.77-6.636-7.465-.518-.726-1.037-1.348-1.555-2.074 4.043-2.799 8.295-5.184 12.546-7.568.933 2.8 1.762 5.598 2.592 8.501.103.208.414.208.414-.103-.103-3.11-.725-6.117-1.659-9.124.726-.415 1.556-.83 2.282-1.348.311-.207.103-.622-.208-.518-.829.31-1.659.518-2.385.83-.829-2.489-1.97-4.77-3.11-6.947-.726-1.348-1.555-2.8-2.385-4.25 3.629-1.349 2.8-1.763-.518-.934-4.562-7.154-6.636-4.873-2.489-6.22 3.007-1.037 15.968 8.916 12.028 26.748-2.178 9.02-8.813 16.796-16.797 20.84zm-8.502-33.073c-1.141-2.488-2.281-4.976-3.318-7.465 5.91-4.147 10.265-5.183 13.168-5.91 1.866 1.66 3.318 3.63 4.666 5.703-2.282.622-8.71 3.421-14.516 7.672zm15.034-6.843c.933 1.556 1.763 3.214 2.592 4.77 1.037 2.177 1.97 4.354 2.696 6.635-4.562 1.97-8.917 4.666-12.961 7.569-2.592-3.525-4.562-6.532-6.843-11.094 4.044-2.8 10.265-6.324 14.516-7.88zm-16.279 7.673c-4.043 3.11-7.465 6.428-10.264 9.849-1.14-3.11-1.452-4.77-2.281-8.294 2.903-3.525 6.013-6.74 9.746-9.435.726 2.696 1.659 5.391 2.799 7.88zm.519 1.14c1.97 4.043 4.458 8.087 6.843 11.094-.726.518-1.348 1.036-2.074 1.555-3.11 2.488-6.117 5.184-8.916 8.19a69.292 69.292 0 01-3.007-4.562c-1.245-2.073-2.281-4.147-3.11-6.427 3.11-3.63 6.428-6.947 10.264-9.85zm13.479-17.003a22.38 22.38 0 00-3.629.311c-1.452-.83-2.385-1.14-.622.104-4.355 1.036-8.813 3.317-12.339 5.91-.103-.208-.103-.312-.207-.52-.104-.31-.518-.206-.415.105 0 .207.104.414.104.725-3.836 2.8-7.05 6.014-9.746 9.435-.519-2.177-.623-1.451-.623.83-4.043 5.494-3.214 5.805-2.903 5.39.933-1.347 1.97-2.695 2.903-3.94.208 2.904.934 5.91 2.074 8.71-3.318 4.562-4.25 7.05-3.629 6.22 1.348-1.762 2.592-3.525 4.044-5.183 1.555 3.836 3.629 7.464 6.325 10.678-2.074 2.178-3.94 4.562-5.703 7.05-.104.104.104.312.207.208 1.97-2.281 3.94-4.458 6.118-6.532 1.659 1.97 4.147 4.251 5.495 5.391-.415-.103-.726-.103-1.348-.103-1.659-1.037-2.903-1.66-2.903-1.66s.726.727 1.97 1.66c-1.555 0-3.007.207-4.666.518.208-.415.104-.83-.207-1.037-.207-.207-.519-.103-.415-.207.622.622-.207 1.659-.933 1.14 0 0 0 .208.207.415a17.175 17.175 0 00-3.629 1.348c-21.151-14.722 3.215-54.327 24.47-46.966zm-16.59 45.722c.311.31 9.125-1.037 14.516 9.33 4.148 7.88 4.562 18.352-.933 28.097-3.836-3.732-7.362-7.672-10.783-11.715 4.873-5.495 14.308-12.752 12.027-11.3-4.666 2.902-8.917 6.427-12.753 10.367-2.592-3.214-4.458-5.702-7.984-11.508 4.459-4.666 18.871-17.418 5.185-6.636-2.074 1.66-4.044 3.422-5.91 5.391a147.924 147.924 0 00-4.252-6.739c-.103-.103-.31 0-.207.104 1.037 2.592 2.281 5.08 3.63 7.465a73.258 73.258 0 00-9.54 12.96l-4.977-7.154c-.103-.104-.31 0-.207.103a92.682 92.682 0 004.562 8.295 71.966 71.966 0 00-5.288 12.026c-6.428-16.795 5.703-36.39 22.914-39.086zm1.452 25.505c-3.629 3.94-6.947 8.19-9.643 12.856-2.592-3.318-2.696-3.733-8.087-11.405 2.903-4.873 6.014-8.813 9.643-12.752 2.177 3.628 5.495 8.087 8.087 11.3zm-24.262 14.1c1.659-3.94 3.525-7.776 5.702-11.508A106.471 106.471 0 0091.9 86.645c-1.97 3.421-3.629 6.947-5.08 10.575-4.044-2.073-7.155-5.702-8.917-10.16zm9.331 10.264a131.698 131.698 0 015.496-9.85c4.977 5.703 8.813 9.02 7.983 8.087-2.592-2.903-5.08-5.91-7.465-8.916 2.385-3.629 5.288-7.672 9.746-12.856 3.422 4.043 7.155 7.88 11.198 11.3-6.013 10.576-16.9 17.004-26.958 12.235zm15.242 5.391c1.659-.415 2.799-1.14 4.147-2.281-2.592 1.452-5.391 2.177-8.813 1.763 16.175-1.452 30.794-27.89 24.884-43.338 9.332 13.375-2.592 42.301-20.218 43.856zm17.73-43.13c.104-1.451 0-2.903-.829-4.458 11.82 11.093-6.947 49.04-24.781 45.618 12.649-.414 24.158-14.93 25.299-27.89.726-7.982-1.97-17.728-7.88-22.705.311.208 1.348.623 1.97 1.037 1.763 1.97 2.903 3.733 4.147 6.014-.518-1.763-1.14-3.215-2.281-4.873 2.592 1.658 3.837 4.043 4.355 7.257zm11.302-48.106c-.104-.415-.311-1.244-.934-2.385 11.302 13.685 4.148 36.495-12.545 43.545-.519-.519-1.141-.933-1.763-1.348 1.037-.415 2.281-1.037 3.733-1.97.933-.518 1.866-1.244 2.799-1.97a32.655 32.655 0 002.903-2.592c7.155-7.154 10.68-18.04 7.466-29.548 2.695 12.856-1.763 24.053-10.68 31.83-.933.725-1.866 1.45-2.696 2.073a65.718 65.718 0 01-3.629 2.177c-.518-.311-1.036-.622-1.555-.83 14.723-8.397 25.714-30.17 9.021-46.24 2.488 1.97 4.147 3.94 5.702 6.22-.829-2.073-1.866-3.732-3.525-5.287h.311c2.488 1.97 4.044 4.044 5.392 6.325z" fill="#C88837"/><path d="M111.393 48.802c3.733-1.036 6.532-3.214 8.295-6.635-3.214 3.421-5.599 5.08-8.295 6.635zm6.636-8.293c.311.31.622.414.518.725-.207.519-6.532 5.806-6.947 6.117 1.556-.933 4.562-2.903 7.258-5.39.311-.312.622-.727.415-1.245-.104-.311-.415-.519-.622-.726-.933-.83-1.763-1.659-3.318-2.903-1.244-1.037-1.97-1.659-1.97-1.659s.622.726 1.763 1.867c1.14 1.451 1.97 2.28 2.903 3.214zm9.539-7.673c-1.97 3.214-3.111 4.666-5.185 7.154 2.592-1.452 4.666-4.562 5.185-7.154zm-4.77 4.251c1.763-1.348 5.081-4.251 4.355-6.325a3.825 3.825 0 00-.519-1.14c-.311-.726-.518-1.348-.725-1.866-.415-1.037-.726-1.66-.726-1.66s.103.727.415 1.867c.103.518.311 1.244.518 1.97.829 1.97 1.348 1.659-3.318 7.154zm-29.031-1.451c4.043 8.19 4.665 3.214-1.97 11.508 7.154-5.91 7.05-5.184 1.97-11.508zm14.619-4.666l.726-.726c.104-.207.207-.414.207-.622 0-.207 0-.414-.103-.518-.104-.311-.311-.518-.415-.726-1.141-1.866-2.281-3.628-2.903-4.458.207.519 1.14 2.488 2.385 4.77.103.207.311.518.311.725.103.207.103.311 0 .518-.104.208-.415.311-.622.519-3.111 2.695-5.807 5.184-7.258 6.739a175.31 175.31 0 007.672-6.22zm14.516-11.301c.104.31.207.518.104.622 0 .103-.311.31-.622.518-.311.207-.622.311-.83.518-4.666 3.007-8.398 5.703-8.398 5.703s4.043-2.074 8.709-5.08c.311-.208.622-.415.83-.519.103-.104.311-.207.414-.31.104-.104.312-.312.415-.52a.883.883 0 000-.725c-.103-.207-.103-.311-.207-.518-.104-.311-.311-.519-.415-.83-.518-1.037-1.037-1.97-1.555-2.695-.83-1.556-1.452-2.489-1.452-2.489s.415 1.037 1.141 2.696c.311.83.829 1.762 1.348 2.903.311.207.414.518.518.726zm-14.931-5.702c2.074-1.348 3.837-2.385 6.221-3.525 3.733-1.763 4.252-.83.726-4.873 3.526 6.532 2.178-.415-6.947 8.398zm-11.82 8.709a118.496 118.496 0 01-1.347 1.659c7.879-7.673 8.502-5.08 6.532-9.228-.623-1.14-.934-1.866-.934-1.866s.208.726.623 1.97c1.036 2.903 1.14 1.866-1.141 3.732-1.555 1.348-2.8 2.696-3.733 3.733zm-6.739 9.434c3.11-3.214.622-4.561.103-6.946-.207 2.592 2.178 3.11-.518 6.532-.622.725-1.451 1.866-1.659 2.799.415-.83 1.348-1.555 2.074-2.385zm8.502-22.187c.31-.311.622-.518.726-.933.207-.726-.519-.83-.519-.83s.104 0 .208.104c.518.83-1.763 1.244-4.044 4.25 0 0 1.348-.725 2.696-1.865.31-.104.622-.415.933-.726zm11.405-8.087c-2.592 1.037-5.91 3.007-8.087 4.873 2.592-1.037 5.91-3.006 8.087-4.873zM98.847 35.947c-1.763-2.8-2.592-4.148-3.733-6.636.104 2.385 1.66 5.184 3.733 6.636zm-7.673 10.678c-2.488-2.8-3.732-5.287-4.562-8.709-.103 3.629 1.452 6.74 4.562 8.71zm16.175-27.059c.104 2.488 1.763 5.08 3.629 6.22-1.762-2.592-2.488-3.94-3.629-6.22zm-4.769-9.954c0 1.97 1.037 4.251 2.177 5.599-.415-1.866-1.348-4.25-2.177-5.599zm-9.643 15.344c-.103-1.762-.622-3.835-1.244-5.39-.311 1.762.311 4.043 1.244 5.39zm9.125 15.967c1.244 3.007 3.421 5.288 6.739 6.532-1.037-.83-3.422-2.489-6.739-6.532zm17.315-4.769c-2.074-2.177-3.111-3.421-4.666-5.184.725 2.281 2.696 4.355 4.666 5.184zm9.331-20.218c-.933-2.695-2.281-5.184-3.11-6.531 3.007 9.227 4.251 7.983 1.348 10.056-.208.208-.415.312-.415.312l.415-.208c.311-.104.726-.31 1.244-.518 1.452-.933.622-2.592.518-3.11zm-4.354-2.799c-.622-1.348-1.452-2.28-1.452-2.28s.207 1.244.83 2.591c.622 1.348 1.451 2.281 1.451 2.281s-.207-1.244-.829-2.592zm-4.874-9.849c2.593 3.733 4.563 3.11.726 4.873 3.111-.104 4.459-1.659-.726-4.873zm10.369 22.809c.207-1.244 0-2.592-.208-3.318 0 0-.207 1.452-.414 3.215-.208 1.762-.415 3.213-.415 3.213s.207-.31.415-.829c.207-.622.518-1.348.622-2.28z" fill="#C88837"/><path d="M110.356 44.448c.622-.104 1.037.83.415 1.037-.311.104-.622.104-.83-.207-.103.31.311.829.83.829 2.073-.104.415-2.8-.415-1.659zm-2.385-1.658c.104-.52-.415-1.038-.829-1.038-.208 0-.415.104-.415.311h.104a.57.57 0 01.518.311c.207.415-.415.83-.829.519 0 .103.103.31.311.414.414.312 1.036.104 1.14-.518zm4.459-2.49c0-.621-.622-1.14-1.244-1.036-.415.104-.519.311-.519.311 1.452-.415 1.452 1.763 0 1.555 0 0 .104.208.519.311.622 0 1.244-.518 1.244-1.14zm-12.546-6.946h.207c.311.104.622.208.83.519.311.31.311 1.036-.208 1.14-.311 0-.414-.207-.414-.207v.207c.103.415.725.622 1.14.311.726-.518.415-2.073-.829-2.073-.311-.104-.623 0-.726.103zm0-4.147c.104-.31 0-.725-.31-.933-.416-.31-.934-.103-1.038.208v.103s.208-.207.415-.103a.57.57 0 01.311.518c-.104.311-.207.518-.518.622-.208.104-.311.104-.415.207.415.415 1.348.208 1.555-.622zm4.459 1.453c.207-.104.414-.312.414-.623 0-.31-.103-.518-.207-.726-.207-.103-.311-.207-.518-.207-.312 0-.415.207-.415.207.829.104.622 1.348-.208 1.245 0 0 .104.207.415.207.208 0 .415 0 .519-.104zm8.916-6.636c-.103 0-.207-.104-.311-.104-.103 0-.103-.104-.103-.104s0 .208.311.519c.103.103.311.207.622.207s.622-.104.829-.415c.208-.31.208-.622.208-.933-.104-.207-.208-.415-.415-.518-.311-.208-.518-.104-.518-.104l.103.104c.104.104.104.104.208.31.103.208.103.623-.104.83a1.95 1.95 0 01-.83.208zm-.829-4.459c.103-.31.103-.622 0-.829-.104-.207-.311-.311-.519-.415-.311-.103-.518.104-.518 0 .933.311.311 1.555-.518 1.14 0 0-.001.208.311.415.103.104.311.104.622.104.207.104.518-.104.622-.415zm4.354-.207c.208-.104.519-.415.519-.83s-.311-.622-.519-.726c-.207-.103-.518-.103-.622 0-.207.104-.311.208-.311.208 0 .103-.103.103-.103.103h.414c.104 0 .208.104.311.208a.32.32 0 01.104.207c0 .104 0 .208-.104.311-.103.104-.207.208-.311.208h-.414c0 .103.207.31.414.31.208.208.415.208.622 0zm-10.575-7.568h-.104c.415.207.83.622.622 1.036 0 .104-.311.208-.518 0-.104 0-.104-.103-.104-.103s-.103.207.208.518c.103.104.414.207.622.104.933-.415.414-1.97-.726-1.555zm2.592-3.837c-.415-.103-.519.104-.519.104 1.141.104.415 1.866-.414 1.037 0 0 0 .207.311.518.103.104.414.208.622.104 1.037-.104 1.037-1.659 0-1.763zm4.251 1.452c.311-.415.207-1.037-.208-1.244-.311-.208-.518-.104-.414-.104.311.207.311.726.103.83-.103.207-.622.207-.829 0 0 0-.104.207.104.414.103.104.311.207.518.311a.547.547 0 00.726-.207zm6.324 20.735c-.103-.31-.207-.518-.414-.622-.311-.207-.622-.103-.622-.103s.103 0 .103.103c.415.311.415.933.208 1.14-.208.312-.83.312-1.141 0l-.104-.103s-.103.311.208.622c.104.104.415.311.622.311.726.104 1.348-.622 1.14-1.348zm2.904 4.666c.311-.207.311-.518.311-.726a.57.57 0 00-.311-.518c-.311-.208-.519-.104-.415-.104.311.208.208.726 0 .83-.104.207-.622 0-.726-.311 0 0-.103.207 0 .518a.812.812 0 00.415.415c.104 0 .415.103.726-.104zm.622-4.666c.207-.31.104-.518.104-.726-.104-.207-.208-.31-.311-.414-.311-.104-.415 0-.415 0 .622.415 0 1.451-.622 1.14 0 0 0 .208.207.415.104.104.311.104.519.104.103-.208.311-.311.518-.519zm-28.41-8.605c.623.622-.31 1.037-.725.622v.104c0 .207.31.518.83.518 1.45 0 .621-2.177-.312-1.555-.104 0-.104.104-.104.104.104 0 .208.104.311.207zm4.148-2.385c.414-.414.414-1.14 0-1.45-.311-.208-.519-.104-.519-.208.104.104.208.207.208.415.207.622-.311 1.036-.83.725-.104-.103-.207-.103-.311-.31 0 0-.104.207.104.518.207.518.933.725 1.348.31zm-6.325 24.883c-.207.208-.518.208-.83.208-.207 0-.31-.104-.518-.104l.104.104c.207.31.518.518.83.518.725.104 1.347-.518 1.14-1.14-.104-.519-.726-.622-.933-.519l-.104.104s.207-.104.415.104c.104.31.104.518-.104.725zm-2.281-3.421c.104.104.311.207.518.104.933-.104 1.037-1.452.104-1.555-.311 0-.518.103-.518.103.31 0 .518.519.414.726 0 .207-.518.415-.83.207.105 0 0 .208.312.415zm2.592.104s-.104.207 0 .414c0 .104.207.311.311.415.622.415 1.452-.207 1.348-.933-.104-.311-.311-.415-.311-.415.103.83-.933 1.14-1.348.519zm2.177-23.017a.792.792 0 00-.207-.519c-.207-.207-.415-.207-.415-.207s.104.104.104.311c0 .207-.104.518-.207.518-.104.104-.415.104-.519.104a1.284 1.284 0 01-.31-.207s-.105.207.103.518c.414.726 1.555.415 1.451-.518zm7.569 8.501c.208-.206.311-.621.208-.932-.104-.311-.311-.415-.519-.519-.414-.103-.622.104-.622.104h.104c.104 0 .207.104.311.207.104.104.104.208.104.312 0 .103-.104.207-.208.31-.103.104-.207.208-.311.208-.103 0-.311 0-.311-.104-.104-.104-.207-.207-.207-.31v-.104s-.208.207-.104.622c.104.207.207.414.519.518.414.104.829 0 1.036-.311zm14.827-10.678c.519-.311.519-1.14.104-1.452-.311-.31-.518-.207-.518-.207.622.518 0 1.659-.726 1.037l-.311-.311s-.104.207 0 .622c.311.414.933.725 1.451.31zM87.546 31.281c.207-.207.207-.518.103-.726a1.431 1.431 0 00-.31-.414c-.208-.208-.415-.104-.415-.104.207.207.207.622 0 .726-.104.207-.519.31-.726.103 0 0 0 .208.207.415.104.104.207.207.415.207.31.104.518 0 .726-.207zm1.244-3.421c.207-.207.31-.622.103-.933a.626.626 0 00-.518-.415c-.207 0-.311.104-.415.104l-.103.103h.103c.104 0 .208 0 .208.104a.321.321 0 01.103.207c0 .104 0 .208-.103.208-.104.103-.208.207-.311.207-.104.104-.311.104-.415.104h-.415c.104.31.519.518.933.518.311.207.622.104.83-.207zm.622 62.517c.83-1.555.933-1.866 1.14-2.281.726-2.074-1.14-2.074-4.458-8.19 1.762 5.598 4.355 6.116 3.732 7.983 0 .103-.933 2.177-.933 2.177-.83 1.97-1.659 3.94-1.97 4.873.519-.726 1.452-2.592 2.489-4.562zm7.672-22.913c.311.622 1.14 2.074 2.074 3.525 2.177 3.214-.933 1.66-2.696 7.88 4.459-7.88 6.636-3.94.622-11.405zm-9.538-1.347c4.976-7.154 6.013-4.355 2.073-10.99.208.622.726 2.073 1.452 3.525 1.14 1.97-1.244 2.28-3.525 7.465zm-8.606 4.354c.207.622.83 1.97 1.659 3.422 1.451 2.488-.83 2.695-2.074 7.88 4.147-7.673 4.562-5.496.415-11.302zm19.907 25.401l-.104-.103c-.103-.104-.207-.208-.207-.311-1.244-1.348-1.763-2.074-2.488-2.903 1.244 4.25 4.562 3.732 1.347 5.806 2.282-.519 2.178-1.763 1.452-2.489zm9.85-4.977c5.703-6.117 3.94-6.013 1.141-8.294-.519-.415-.933-.726-1.141-.933-.311-.208-.415-.415-.415-.415s.104.207.311.415c.208.31.519.726 1.037 1.14 2.903 3.11 3.215 1.555-1.14 7.776-.726 1.037-1.244 1.763-1.244 1.763s.622-.415 1.451-1.452zm6.014-9.019c2.903-4.77 3.629-9.85 1.97-15.345.518 4.873.414 9.331-1.97 15.344zm-3.629-27.786c1.037.933 1.762 1.762 2.592 3.007 2.488 4.043 1.555 2.384-5.495 8.812 8.191-5.08 8.502-5.495 6.117-8.916-1.037-1.244-2.074-2.177-3.214-2.903zm-12.132-.518c.934-.311 1.867-.83 2.697-1.452 1.866-1.348 3.732-2.384.829-3.421-1.659-.622-3.629-.519-5.391.518.518-.207 1.555-.518 3.11-.415 5.288.415 2.074 2.074 1.348 2.696-1.037.933-1.763 1.452-2.8 1.97-.103.104-.31.104-.414.207.518 0 .414 0 .622-.103zm-7.88 28.926c-1.036-2.385-3.006-5.288-4.769-7.154 1.037 2.384 2.903 5.287 4.77 7.154zm-7.153 12.027c-1.97-2.074-3.215-3.733-4.563-6.532.415 2.903 1.97 5.184 4.563 6.532zm-.934-23.639c-.622-1.762-1.97-3.94-3.318-5.184.623 1.867 1.97 3.94 3.318 5.184zM95.84 87.578c1.245 2.385 3.526 5.391 5.496 7.257-1.245-2.488-3.526-5.494-5.496-7.257zm9.747-13.893c.725 1.97 2.281 4.459 4.354 6.325.623.518 1.037.83 1.037.83s-.311-.416-.726-1.038c-2.073-2.799-3.732-4.976-4.665-6.117zm-8.814-12.027c.83 2.489 2.8 5.288 4.563 6.843-1.037-2.28-2.904-4.977-4.563-6.843zm6.325-6.635c-1.97.726-3.94 2.488-4.873 4.147 1.66-1.14 3.629-2.903 4.873-4.147zm5.288 44.996c10.058-6.324 15.968-15.655 17.004-27.993-1.866 11.094-6.635 20.114-17.004 27.993zm-4.251-9.331a.52.52 0 00-.518.104h.103c.415.104.415.726-.207.933-.208.104-.622.104-.83.104.104.31.519.518.934.518 1.036.104 1.451-1.348.518-1.659zm-3.111-3.214c-.311-.207-.622-.103-.725 0-.208.104-.312.208-.312.311v.104l.104-.103c.104 0 .208-.104.311-.104.519 0 .519 1.037-.83 1.037.727 1.244 2.489-.519 1.452-1.245zm5.288 1.14c.311 0 .622-.207.83-.622.207-.414.103-.725-.104-1.036-.207-.208-.415-.415-.622-.519-.415-.103-.622.104-.622 0h.104c.103 0 .207.104.311.208.207.207.311.622.207.933-.104.31-.518.518-.829.414-.104 0-.312 0-.415-.103-.104 0-.104-.104-.104-.104s0 .311.415.518c.311.311.518.415.829.311zm-3.732-6.531c0-.518-.518-.726-.726-.622-.104 0-.104.104-.104.104s.208 0 .312.207c.103.207 0 .311-.208.415-.207.103-.311.103-.726.103-.311 0-.414-.103-.414-.103.103.31.414.622.725.725.415.104 1.141-.31 1.141-.829zm-9.228-3.732c.933.415.518 1.659-.415 1.555 0 0 .104.208.415.311.207 0 .414 0 .622-.103a1.06 1.06 0 00.518-.623.806.806 0 00-.207-.829.57.57 0 00-.519-.31.5.5 0 00-.414 0zm-2.8-4.769c-.415-.104-.518.103-.518.103 1.244.208.207 1.867-.622 1.037 0 0-.104.207.207.519 1.244.933 2.385-1.245.933-1.66z" fill="#C88837"/><path d="M96.151 72.13c-.31-.104-.518.104-.518 0 .933.31.518 1.659-.415 1.451 0 0 .104.208.415.311 1.14.415 1.763-1.347.518-1.762zm-2.177-2.903c.311-.622-.104-1.244-.726-1.244-.415 0-.518.311-.518.311h.103c.208 0 .519.104.519.311.104.415-.311.83-1.244.83.518.518 1.555.518 1.866-.208zm19.804 9.227c.726-.414.622-1.555-.104-1.866-.518-.207-1.037.104-1.14.415 0 .103-.104.207-.104.207a.792.792 0 01.518-.207c1.141 0 .415 1.762-.518 1.037 0 0 0 .103.104.207.103.103.207.207.414.31.208 0 .519 0 .83-.103zm-3.422-4.872c.207-.311.104-.726-.104-.83-.103-.207-.311-.31-.518-.414-.415-.104-.519.103-.519.103h.104c.104 0 .207.104.207.208.104.207.208.518.104.622 0 .103-.311.31-.622.31-.104 0-.207 0-.311-.103-.104 0-.104-.104-.104-.104s0 .208.208.519c.103.103.311.207.622.207.414 0 .726-.207.933-.518zm3.214-1.245c.208-.207.208-.518.208-.725 0-.208-.104-.415-.208-.415-.207-.207-.414-.104-.414-.104s.103.104.103.311c.104.622-.622.83-.933.519 0 0-.103.207.104.414.104.104.207.208.415.208.207.103.518 0 .725-.208zM90.138 96.183s-.104.207.207.518c.104.104.311.208.519.312.207 0 .518 0 .829-.208.207-.207.311-.518.311-.83a.57.57 0 00-.311-.518c-.207-.207-.519-.207-.519-.207.623.726-.414 1.659-1.036.933zm3.732-2.799c.104-.207.208-.519.104-.726-.104-.207-.207-.31-.311-.415-.311-.207-.415-.103-.415-.103.622.518-.104 1.555-.83 1.244 0 0 0 .207.312.31.103.105.31.105.518.105.207 0 .519-.208.622-.415zm-9.954-.934s0 .208.104.415c.622.83 1.867 0 1.452-.933-.104-.31-.311-.31-.311-.31.103.621-.726 1.14-1.245.829zm-1.658-6.945c-.415-.104-.622 0-.622 0 1.14.518.414 2.177-.726 1.659 0 0 .104.207.415.414 1.451.519 2.28-1.555.933-2.073zm3.214 2.28c1.348.726 2.074-1.659.518-1.762-.414 0-.518.207-.518.207.518 0 .83.518.726.83 0 .31-.622.518-.933.414-.104 0-.104-.104-.104-.104-.104 0-.104.311.31.415zm-6.325-12.026c-.31-.104-.518 0-.518 0 .31.207.414.622.207.83-.104.207-.622.31-.83.103 0 0-.103.207.208.415.83.933 2.074-.726.933-1.348zm5.391-9.228c-.31-.104-.414.104-.414.104.31 0 .415.415.31.622-.103.207-.518.207-.725 0 0 0-.104.207.104.415a.793.793 0 00.518.207c.933.207 1.14-1.14.207-1.348zm-.207-4.146c0-.311-.31-.519-.415-.622-.414-.104-.518.103-.518.103s.208-.103.415.104.103.415-.207.518c-.104.104-.208.104-.415.104-.311 0-.622-.207-.933-.311.207 1.659 2.177 1.244 2.073.104zm3.319.103c.932-.31.829-1.555 0-1.762-.312-.104-.52.104-.52 0l.104.104c.104 0 .104.103.208.207.104.207.207.518.104.726-.104.31-.623.518-.934.414 0 0 0 .208.415.415.104-.104.311-.104.622-.104zm15.759 3.836c.208 0 .311.103.415.31.622.83-.518 1.452-1.14.83 0 0-.104.207.207.519 1.14 1.036 2.488-1.037 1.037-1.66-.311-.207-.519 0-.519 0zm-3.11-4.147v.104s.207-.207.414-.104c.208 0 .311.208.311.519-.103.207-.207.414-.622.414h-.518l.103.104c.208.311.623.415 1.037.311.726-.207.933-1.244.415-1.659-.518-.207-1.037 0-1.14.311zm5.806.623s-.104.207.104.518c.103.103.311.31.622.31.726.104 1.244-.518 1.037-1.244-.104-.31-.208-.414-.415-.518-.311-.207-.622-.104-.519-.104 1.037.726-.207 2.074-.829 1.037zm.207-4.563c-.622.104-.933-.415-.933-.415s-.104.934.933.934c.415 0 .726-.208.933-.519.519-1.14-1.036-1.866-1.14-1.451-.104.103-.104.31-.104.414.622-.414 1.037.83.311 1.037zm-11.094-4.354c-.415 0-.415.31-.415.31l.104-.103c.207-.104.519.104.415.31 0 .208-.208.52-.415.623-.207.104-.518.207-.933.311 0 0 .207.104.518.207 1.556.415 1.97-1.762.726-1.658zm2.282-3.214a.57.57 0 00-.52.31h.104c.311 0 .726.416.623.727-.104.31-.726.518-1.037.207v.104c.103.31.414.518.933.518 1.14-.207 1.037-1.97-.104-1.866zm12.96 10.161c.103.414.622.725 1.244.518 1.866-.519.207-2.903-.726-1.97 1.452 0 .83 2.384-.518 1.451zm-22.915-2.697c.208-.622-.31-1.348-.933-1.036-.414.207-.31.518-.31.518s.103-.207.414-.104c.415 0 .311.519 0 .83-.207.207-.622.207-.83.31.415.415 1.348.312 1.66-.518z" fill="#C88837"/><path d="M255.1 5.88c-30.691-8.398-65.84 15.033-73.824 40.537-7.776 24.365 7.777 52.772 64.285 25.609 49.042-23.639 45.31-56.504 9.539-66.147z" fill="#fff"/><path d="M255.1 5.88c-30.691-8.398-65.84 15.033-73.824 40.537-7.776 24.365 7.777 52.772 64.285 25.609 49.042-23.639 45.31-56.504 9.539-66.147zm-7.777-.208c-3.94.83-8.294 3.94-10.472 6.843-4.147-1.763-10.161-2.074-14.412-.415 1.763-1.037 9.228-4.976 11.094-5.91 4.77-.829 9.332-.933 13.79-.518zm-63.351 37.013c3.733-4.873 4.251-5.599 8.606-11.094-.519.415-2.8 2.074-4.977 4.355 4.147-6.532 9.746-12.234 15.967-16.9-2.695 2.281-17.522 15.967 2.385-.725 10.991-9.228 21.048-10.472 22.292-11.094-6.739 3.629-8.191 5.703-7.05 5.495 0 0 7.569-.622 11.301 0 1.763.311 4.459 1.037 4.459 1.037s4.769-6.532 13.894-6.74c-3.526 1.245-6.014 2.904-8.606 4.977 1.659-.829 5.91-3.11 12.96-4.665.933.207 1.97.415 3.007.726-6.428.207-13.997 4.458-14.101 4.873-.104.829 3.214 2.28 4.666 3.11 7.88 4.354 12.649 10.679 15.449 19.491-.726-.933-1.555-1.659-2.489-2.28-11.301-11.509-28.202-13.479-28.513-12.546-7.05 3.214-12.235 7.154-15.864 13.686.312.622 10.369 13.789 18.353 19.699-9.332-4.148-19.597-8.087-28.41-13.375a.66.66 0 00-.622 0c-5.495 1.763-14.516 26.438-13.064 21.669 0 0 1.244-4.77 2.592-8.916 1.14-3.422 2.385-6.636 4.147-9.746 1.763-3.007 2.8-3.733 2.281-4.458-.311-.415-3.007-1.452-3.525-1.66 0 0-5.495-1.969-6.636-2.384-.103 0-.311 0-.415.104-1.14.83-6.117 4.25-9.642 10.99 1.037-2.592 1.244-2.8 1.555-3.629zm-1.555 25.194c-7.051-16.9 6.014-27.786 9.435-31.518a.808.808 0 01.83-.208c1.866.83 8.294 3.214 9.02 3.422-4.044 5.287-7.05 11.819-8.398 18.558-4.562 22.913 1.555-1.866 13.997-15.655h.104c6.947 3.525 13.997 6.842 21.048 9.85 1.244.517 2.488 1.036 3.732 1.45.934.312 1.763.623 2.696.83.311.104.726.207 1.037.207 2.177 0-1.14-2.695-1.659-3.317-1.348-1.348-2.799-2.696-4.147-4.044-2.903-2.903-5.703-5.806-8.295-8.916-.726-.933-3.733-4.147-2.592-5.495 4.355-4.458 8.502-8.813 14.308-11.405 14.205.83 31.209 16.485 31.52 16.07.208.208-3.007-20.113-19.596-24.675 16.589-6.013 17.004-4.043 23.847.83 45.829 32.658-70.09 94.035-86.887 54.016z" fill="#C88837"/><path d="M209.375 30.555c9.85 1.658 1.14 1.347 18.041-11.198.207-.207 1.244-1.14-.208-1.659-7.154-2.695-14.93-3.732-25.195 9.953-1.348 1.763.726 1.763 7.362 2.904zm17.004-12.546c-4.459 3.318-9.021 7.258-11.717 12.13-1.555.727-3.732-1.036-12.338-1.658 10.161-9.124 10.783-14.204 24.055-10.472zm6.843 53.706c-21.359 8.294-31.313 7.154-40.437 4.147 9.643 5.184 19.597 5.184 40.955-2.695 14.516-5.392 45.622-22.187 44.792-40.227-.207 17.314-31.727 33.488-45.31 38.775zm-37.741-38.983c14.619 6.843 20.737 10.057 32.349 16.381-9.538-7.465-19.492-12.856-32.349-16.381z" fill="#C88837"/><path d="M219.743 41.96c-10.887-8.917-19.181-11.198-25.817-11.509 10.783 2.903 15.863 6.74 25.817 11.508zM205.02 30.97c4.458 2.592 11.198 6.117 12.546 6.843-2.592-3.526-7.88-6.532-12.546-6.843zm11.717-16.589c8.087-.104 15.137.622 23.64 3.525 3.11 1.14 6.013 2.385 8.502 3.733 1.244.725 2.488 1.347 3.525 2.073.518.311 1.037.622 1.555 1.037.519.31.933.622 1.348.933.933.622 1.659 1.244 2.385 1.762.311.312.622.519.933.726.311.207.518.519.726.622a41.38 41.38 0 001.451 1.244s-.414-.518-1.244-1.451c-.207-.207-.415-.518-.726-.726-.207-.31-.518-.518-.829-.83-.622-.621-1.348-1.347-2.177-1.97-.415-.31-.83-.725-1.348-1.14-.415-.414-1.037-.725-1.556-1.14-1.036-.83-2.177-1.555-3.421-2.281-2.489-1.451-5.392-2.903-8.606-4.043-8.502-2.903-16.071-3.214-24.158-2.074z" fill="#C88837"/><path d="M248.256 22.675c-5.495-3.628-11.82-5.806-19.285-6.013 2.074.622 9.954 2.696 18.871 6.635 1.97.83 3.214 1.452 3.214 1.452s-.311-.208-.726-.622a22.56 22.56 0 00-2.074-1.452zm2.8-3.317c-2.177-2.281-5.91-4.355-10.057-5.08-1.245-.208-1.97-.208-1.97-.208s.622.415 1.762.933c3.629 1.97 7.362 3.526 10.265 4.355zm-33.386-7.672s-1.037.414-2.8 1.347c-5.599 3.007-10.368 7.776-12.857 12.027 9.643-8.19 6.221-5.287 15.657-13.374zm4.873 12.855c-2.281 2.074-4.148 4.77-4.874 6.532 0 0 .623-.622 1.763-1.659 1.037-1.036 2.488-2.384 4.147-3.836 3.111-2.799 3.629-3.214 6.014-5.287-1.762.622-4.666 2.177-7.05 4.25zm50.494 18.04c-16.175 17.21-41.267 28.511-64.285 32.97 24.055-2.592 49.562-14.515 64.285-32.97z" fill="#C88837"/><path d="M258.106 52.846c-12.649 8.19-22.292 12.752-36.185 17.417 14.308-3.006 24.469-8.086 36.185-17.417zm-43.651 3.629c1.037-.415.312-2.074-.725-1.555-1.037.414-.311 1.97.725 1.555zm15.138-17.108c0 .519.415.933.933.622 1.348-.622-.829-2.28-.933-.622zm4.873-10.678c.519-1.555-2.281-1.452-1.555.104.311.622 1.348.622 1.555-.104zm10.265 9.331c1.037-.52.311-2.178-.726-1.66-1.037.519-.311 2.178.726 1.66zm-5.392 8.294c-.207-.415-.933-.623-1.347 0-.726 1.244 1.97 1.451 1.347 0zm-.207-15.034c-.103.623.622 1.038 1.037.415.622-.933-1.348-1.14-1.037-.414zm-13.894 1.97c.519.726 1.452.207 1.244-.518-.311-1.244-1.866-.519-1.244.518zm-12.649 16.382c.622-.83-1.037-1.66-1.141-.208 0 .519.622.933 1.141.208zm-10.161 15.24c.726-.31.207-1.555-.518-1.244-.83.415-.208 1.555.518 1.244zm14.308.933c.83-.415.519-1.14 0-1.037-1.347.104-.622 1.348 0 1.037zm39.815-49.35c-.829.415-.207 1.762.622 1.348.933-.415.311-1.763-.622-1.348zm-44.688 9.538c-.415-.622-1.451-.311-1.14.622.311.726 1.659.208 1.14-.622zm6.117-4.873c.311 0 .519-.104.726-.207.415-.311.208-1.037-.207-1.14-.208-.105-.415-.105-.622-.105-.311.104-.622.415-.622.726.103.415.311.726.725.726zm16.279-11.197c.726-.207.518-1.866-.83-1.14-.725.414-.518 1.658.83 1.14zm-43.133 36.909c.208-.622-.829-1.037-1.14-.415-1.245.933 1.451 1.866 1.14.415zm-3.318 13.478c-.414-.622-1.451-.104-.829.726.415.622 1.244.103.829-.726zm48.421-22.394c.933-.207.829-1.14.207-1.244-1.244-.208-1.037 1.451-.207 1.244zm26.543-17.314c-.726-.208-1.037.725-.415 1.036.83.83 1.556-1.14.415-1.036zm-10.886-6.428c.207-.311.103-.518-.104-.726-1.452-.83-.519 1.66.104.726zm-.312 33.073c.933-.415.311-1.866-.622-1.451-.933.414-.311 1.866.622 1.451zm22.5-20.217c.933-.415.311-1.866-.623-1.452-1.036.415-.311 1.867.623 1.452zm-69.365 33.28c.933-.414.311-1.97-.726-1.555-.933.519-.207 2.074.726 1.556zm-21.255-4.25c-.726-.208-1.141.725-.415 1.14.933.414 1.555-.933.415-1.14zm12.338 14.307c.622-.311.207-1.244-.415-.933-.622.31-.207 1.244.415.933z" fill="#C88837"/><path d="M207.923 45.588l4.873 1.97c.415.207.726.311.726.311-1.037-.933-3.214-2.074-4.355-2.8-1.555-.932-1.762-1.036-2.903.52-2.385 3.732-4.562 7.982-5.702 10.47 0 0 2.799-3.42 5.702-8.086.104-.208 1.348-2.489 1.659-2.385zm-10.679-6.325c-4.252-2.902-4.874-3.628-8.917 2.8 6.635-5.495 1.762-4.666 8.917-2.8zm36.497-15.966c1.14-.518 1.762.415 6.221 1.037-.726-.311-2.074-.933-3.422-1.452-1.97-.725-2.177-1.347-6.428 1.452-.933.622-1.452 1.14-1.452 1.14.104 0 4.977-2.073 5.081-2.177z" fill="#C88837"/><path d="M29.69 121.17c-4.977.311-6.118.414-10.473-3.214-1.866-1.452-3.836-3.111-5.287-5.081-1.452-.933-2.696-2.28-3.63-3.939-3.628-6.117-2.591-13.271.415-19.7-33.697-16.691 26.129-94.45 68.847-77.55 7.05 2.8 9.642 9.746 9.435 16.9-.207 8.397-3.007 17.417-6.428 25.09a197.713 197.713 0 01-3.318 6.635c-.622 1.14-1.348 2.28-1.97 3.421-.311.519-1.348 2.696-1.867 2.8 2.178-.623 4.148-.726 5.703.933.104 0 .207.103.415.207 2.074 1.14 3.94 2.488 5.703 4.043.725.622 1.451 1.14 1.762 2.074 4.355 14.722-17.212 44.374-42.822 52.668-6.22 2.074-9.227 1.659-13.997-2.384-.415-.208-3.007-2.903-2.488-2.903z" fill="#fff"/><path d="M79.562 11.79C36.844-5.215-22.982 72.647 10.715 89.34c-3.11 6.428-4.043 13.582-.414 19.699.933 1.659 2.177 2.903 3.629 3.94 1.451 1.866 3.421 3.525 5.288 5.08 4.354 3.525 5.495 3.525 10.472 3.214-.415 0 2.177 2.696 2.384 2.903 4.77 4.044 7.777 4.458 13.998 2.385 25.61-8.294 47.176-38.05 42.822-52.669-.312-.933-1.037-1.451-1.763-2.073-1.763-1.555-3.63-2.903-5.703-4.044-.103-.103-.207-.103-.415-.207-1.555-1.659-3.525-1.555-5.702-.933.518-.207 1.555-2.281 1.866-2.8.726-1.14 1.348-2.28 1.97-3.42 1.14-2.178 2.385-4.355 3.318-6.636 3.422-7.672 6.221-16.692 6.428-25.09.311-7.154-2.28-14.1-9.331-16.9zm-68.328 94.657c-4.459-11.612 4.562-34.628 32.868-36.183 8.295-.415 12.857-8.813 19.492-4.355 2.696 1.763 4.148 4.977 4.563 8.19.622 5.081-1.97 9.435-4.666 13.583-16.59 25.608-46.97 32.451-52.257 18.765zm7.361 8.502c12.546 2.799 36.083-7.05 48.525-30.17 1.244-2.385 2.177-4.873 2.488-7.569.311-3.11-.518-5.391-1.659-8.19 1.555 1.347 3.11 2.903 4.666 4.354 4.044 14.826-11.198 39.294-40.022 45.1-9.54 1.97-6.843 1.659-13.998-3.525zm64.492-44.063c1.244.933 2.281 1.244 3.94 2.695-.207 10.472-3.214 21.565-15.76 34.007-16.071 16.07-31.624 18.558-34.008 18.351.31-.104-4.563-3.007-6.118-4.873 8.191-.622 15.346-3.94 22.189-8.605 12.857-5.081 23.121-17.73 27.58-30.482 1.14-3.214 2.488-7.776 1.555-11.508.311.104.519.207.622.415zm-6.117-3.007c2.385-.207 3.629 1.14 4.043 3.421.83 4.77-1.659 10.576-3.629 14.723-3.628 7.568-8.709 13.478-14.723 18.558 7.466-7.672 13.79-17.729 12.546-28.408-.104-1.347 0-1.866-.83-3.006-2.591-3.836-5.39-3.836-.414-4.77.933 0 1.97-.414 3.007-.518zm-4.666-.31c-.104 0-.207.103-.311.103 2.696-4.77 2.074-11.508-.415-15.345-2.385-3.525-5.599-6.324-11.198-8.501-3.11-1.14-6.22-1.97-9.228-2.592a47.94 47.94 0 00-17.626 0c-2.696.518-5.288 1.348-7.673 2.28-19.7 8.399-22.81 28.098-21.359 28.098 0 0 .208-13.79 15.553-23.846 11.82-7.88 27.58-7.569 39.815-2.592 2.903 1.14 5.702 2.799 7.983 5.08.519.622 1.141 1.14 1.556 1.866.31.311.415.622.622.933 2.385 4.044 2.8 10.575-.83 15.137-.31-.207-.725-.518-1.244-.83 2.178-3.524 2.592-8.294.311-12.233-.726-1.14-1.555-2.178-2.385-2.903-1.762-1.452-3.525-2.177-4.665-2.385-1.245-.31-1.867-.207-1.867-.103 0 .103.622.207 1.763.622 1.14.414 2.696 1.244 4.251 2.695a12.27 12.27 0 012.074 2.8c1.866 3.628 1.244 7.775-.726 10.782-.104-.104-.207-.104-.415-.207-6.117-6.532-14.62-.311-17.522.933-5.496 2.177-23.848-4.251-37.223 20.32C-4.008 79.492-.483 50.359 29.068 40.82c25.61-8.19 54.745 7.465 43.236 26.75zm12.65-47.485c-4.77-4.977-11.095-6.947-11.198-6.428 0 0 8.19 3.214 12.649 11.197v.414c-3.007-3.524-6.325-6.013-9.02-7.464-1.037-.519-5.703-2.696-5.91-2.281-.104.207 2.177 1.037 5.391 3.11a33.404 33.404 0 018.813 8.502c-3.732-3.836-6.947-5.806-9.85-7.465-2.177-1.037-4.147-1.97-6.117-2.592-3.837-1.244-7.154-1.659-9.332-1.659h-2.488c-.622 0-.933.104-.933.104s.31.104.933.104c.31 0 .622 0 1.037.103.414 0 .933 0 1.451.104 2.178.207 5.392.726 9.124 2.073 1.867.622 3.837 1.556 5.807 2.696l1.555.933c.519.311 1.037.622 1.555 1.037.519.415 1.037.726 1.556 1.14 1.451 1.244 3.836 3.11 6.532 6.636 0 .726-.104 1.555-.208 2.28-2.903-4.561-6.532-7.672-9.539-9.434-1.762-1.037-3.214-1.763-4.25-2.074-4.355-1.555.725.726 3.732 2.903 3.11 2.281 7.05 6.117 9.643 11.405 0 .104-.104.311-.104.415-2.385-4.044-5.495-6.947-8.087-8.606-1.556-1.036-2.904-1.762-3.94-2.177-3.94-1.659.622.726 3.317 2.903 2.696 2.074 5.91 5.702 8.088 10.472 0 .103 0 .207-.104.207-9.124-11.612-22.5-17.314-35.149-17.21-.726 0-1.348 0-1.97.103-.518 0-1.037.104-1.452.104-.725.104-1.14.104-1.14.207 0 0 24.262-2.073 39.09 18.766-.105.518-.52 1.762-.727 2.177-1.451-3.214-3.732-6.013-6.428-7.983-2.696-2.074-4.77-2.592-4.873-2.488-.104.207 1.762 1.036 4.25 3.214 2.282 1.97 4.874 5.39 6.118 9.745a23.812 23.812 0 01-.622 1.66c-4.77-10.472-15.242-15.138-15.553-14.412 0 0 10.576 5.08 14.62 16.588l-.311.623c-5.392-10.68-15.45-18.351-27.995-20.01a39.719 39.719 0 00-8.502-.208c-2.489.208-4.562.622-6.221 1.14-1.037.312-2.8.83-3.733 1.349-3.318 1.451.726-.104 3.94-.83 1.66-.415 3.733-.726 6.221-.933 2.489-.104 5.288-.104 8.295.415 12.546 1.97 22.396 10.056 27.165 20.943-.518 1.244-1.14 2.384-1.659 3.525-1.659-10.264-10.887-15.034-11.198-14.308 0 0 10.058 5.91 9.747 17.418-.311.622-.622 1.348-.933 1.97 1.347-14.411-15.346-23.224-31.832-23.742-11.301-.311-23.743 3.525-32.556 10.99 2.073-3.007 4.976-5.599 7.776-7.88a44.233 44.233 0 015.08-3.525l.104-.104c-.207-.622-5.495 2.281-6.636 3.007 10.369-12.649 18.975-17.314 18.975-17.314-.415.104-.83.207-1.141.31C59.758 4.844 80.08 10.96 84.954 20.085z" fill="#C88837"/><path d="M85.16 77.936c-.103.518-.206 1.14-.414 1.762-.311 1.244-.83 2.8-1.348 4.458-2.488 6.74-5.703 11.923-9.746 17.729 6.532-6.635 11.094-14.411 11.924-23.846 0-.518.103-1.036.103-1.347v-1.14s-.103.414-.207 1.14c-.104.31-.207.725-.311 1.244z" fill="#C88837"/><path d="M82.05 84.364c.208-.519.311-1.037.519-1.452.31-.933.518-1.866.725-2.695.415-1.66.623-3.11.726-4.044.104-.933.104-1.451.104-1.451s-.104.518-.311 1.451a46.7 46.7 0 01-1.037 3.94c-.311.83-.518 1.659-.933 2.592-.207.415-.311.933-.622 1.451-4.148 9.124-8.813 14.62-15.657 22.913C76.762 96.702 80.08 89.237 82.05 84.364zm-9.954-3.111c.311-1.97.104-3.836-.207-5.08-.104-.622-.311-1.14-.415-1.451-.103-.311-.207-.519-.207-.519v2.074c0 1.244-.104 3.006-.415 4.873-.31 1.866-.726 3.525-1.14 4.769-.311 1.037-.415 1.14-.726 1.97.518-.622.726-.83 1.244-1.66.83-1.243 1.555-2.902 1.866-4.976zm-47.902 35.562h-1.762l.414.208c3.318 1.348 7.57.829 10.887-1.97-3.007 1.037-6.636 1.659-9.539 1.762zm37.742-29.237c1.244-1.97 2.177-3.94 2.8-5.702.31-.83.518-1.763.725-2.489.207-.829.207-1.555.311-2.177 0-.622.104-1.244.104-1.762v-1.244c0-.726-.104-1.037-.104-1.037s-.104.31-.104 1.037c0 .31 0 .725-.103 1.244-.104.518-.104 1.036-.208 1.659-.103.622-.31 1.347-.415 2.073-.207.726-.414 1.555-.829 2.385-.622 1.659-1.555 3.525-2.8 5.39-5.495 8.295-23.847 24.054-37.637 23.432a17.032 17.032 0 01-4.562-.933c-1.452-.518-2.696-1.244-3.733-2.281-7.983-7.672 3.215-23.846 6.325-26.438-2.074 1.452-7.88 7.672-9.643 14.93-1.036 4.458-.829 9.227 2.489 12.338 1.14 1.14 2.592 1.969 4.147 2.591 1.555.519 3.214.934 4.977 1.037 14.309.933 32.868-15.344 38.26-24.053zm-2.074-25.401c1.659 0 2.385.31 3.214.622-.622-.415-1.452-.933-3.11-1.244-1.037-.208-2.385-.104-3.733.207-5.495 1.14-9.435 5.184-14.827 5.184 6.221 1.555 12.338-4.873 18.456-4.77zm-40.333 8.086c1.14-1.244-.83-3.006-1.97-1.762-1.037 1.348.933 3.11 1.97 1.762zm5.391-6.013c.933-1.036-.726-2.487-1.659-1.45-.933 1.036.726 2.487 1.66 1.45zm9.332-.104c1.037-1.14-.83-2.799-1.866-1.555-.934 1.14.83 2.696 1.866 1.555zm-.415-10.781c-.83.933.622 2.28 1.452 1.347.933-1.036-.623-2.28-1.452-1.347z" fill="#C88837"/><path d="M32.282 92.14c.83-1.037-.622-2.385-1.555-1.348-.934 1.037.622 2.385 1.555 1.348zm8.088-9.435c.725-.83-.623-2.073-1.349-1.244-.726.933.622 2.074 1.348 1.244zm-4.045 18.144c1.867-1.037-.933-3.525-1.762-1.555 0 0 0 .103-.104.103-.415 1.037.622 2.178 1.866 1.452zm11.198-8.398c.208-.207.311-.518.415-.83.207-.621-.518-1.243-1.14-1.036-.312.104-.519.207-.726.518-.83 1.037.622 2.281 1.451 1.348zm9.954-21.876c-1.244-1.037-2.696.829-1.555 1.762 1.348.933 2.695-.933 1.555-1.763zm-35.875 34.421c.726 0 1.348-.83 1.037-1.556 0 0 0-.103-.104-.103-.414-1.037-1.866-.933-2.177.103v.104c-.104.83.518 1.452 1.244 1.452zm-.311-13.582c.208 0 .311 0 .519-.104.622-.103.83-.933.622-1.451-.933-1.866-3.525 1.451-1.14 1.555zm24.781-32.866c.518-.622.518-1.659-.104-2.177a1.604 1.604 0 00-2.177.103c-1.348 1.66 1.037 3.525 2.28 2.074zm9.02-.518c0-.83-.933-1.348-1.659-1.141-1.348.518-.933 2.488.519 2.488.725-.104 1.14-.622 1.14-1.348zm-6.636-8.19c.622-.415.726-1.141.208-1.556-.519-.414-1.14-.207-1.452.311 0 0 0 .104-.104.104-.414.726.623 1.659 1.348 1.14zm-27.58 6.842c.622-.83-.518-1.866-1.244-1.14-.104.103-.207.207-.207.31-.726.934.518 1.97 1.451.83zM9.99 81.15c.829-.207.933-1.14.414-1.555-1.451-1.348-2.28 2.073-.415 1.555zm34.63 18.143c.518-.207.83-1.037.311-1.348 0 0-.104 0-.104-.103-.414-.311-1.036-.208-1.244.414v.104c-.207.622.415 1.14 1.037.933zm10.265-14.411s-.104 0-.104-.104c-.518-.31-1.14.415-.83.933 0 0 0 .104.105.104.622.933 1.762-.415.829-.933zm-21.981-1.97c.518-.622.518-1.037.415-1.348-.311-.933-.83-1.14-1.245-1.244-1.658-.31-4.043 2.177-3.732 3.733a.935.935 0 00.622.622c.933.207 3.11-.83 3.94-1.763zm-3.214-.415c.103-.103.103-.207.207-.31.726-.83 1.555-1.245 2.074-1.141.104 0 .415.104.622.726 0 .103-.104.31-.311.622-.83 1.036-2.903 1.659-3.214 1.555 0-.311.207-.933.622-1.452zm1.97 21.669c-.622-2.073-2.8-1.555-4.251.104-.622.622-1.141 1.555-.934 2.488.415 1.763 5.807-.829 5.185-2.592zm-3.63.622c.83-.933 2.385-1.97 2.904-.414.31.829-3.11 2.592-3.63 2.177-.103-.622.416-1.348.727-1.763zm3.319-52.979c2.384-2.696-4.459-2.903-4.355-.726 0 1.037.518 1.452.933 1.66 1.037.517 2.696-.105 3.422-.934zm-3.526-.933c.622-.622 3.11-.622 3.215-.207 0 .207-.104.414-.311.622l-.415.414c-1.867 1.244-3.007-.31-2.489-.83zm26.647 2.177c.207-.207.415-.311.622-.518.311-.311.415-.726.519-1.037.103-1.452-3.63-1.452-4.563-.415-.207.208-.31.415-.31.726 0 1.037.518 1.451.932 1.659.83.518 2.074.207 2.8-.415zm-3.007-1.244s0-.104.104-.207c.622-.622 3.11-.622 3.214-.208 0 .208-.104.415-.311.622l-.415.415c-.726.518-1.555.622-2.074.415-.31-.208-.414-.519-.518-1.037zM13.722 70.99c-2.903-.623-5.599 3.213-2.488 3.732 2.281.415 4.458-3.318 2.488-3.733zm-2.903 1.762c.726-.83 2.592-1.244 2.8-1.037.207.83-1.245 2.385-2.281 2.177-.311 0-.933-.622-.519-1.14zm41.371 5.495c.31-.31.414-.725.414-1.14-.104-.726-.519-1.244-1.14-1.452-1.141-.414-2.593.415-3.215 1.245-.311.414-.415.933-.207 1.347.207.519.622.83 1.244 1.037 1.037.104 2.281-.311 2.903-1.037zm-3.422-.31c-.104-.208 0-.415.103-.623 0-.103.104-.103.104-.103.518-.623 1.555-.934 2.177-.726.311.103.519.415.622.83 0 .207 0 .414-.207.621-.415.519-1.452.83-2.074.622-.207-.207-.622-.31-.726-.622zm28.098 3.524c.104 0 .104 0 0 0 1.14.933 2.385-.518 1.452-1.451l-.104-.104c-.933-.83-2.28.726-1.348 1.555zm.829-8.398a1.25 1.25 0 00-.518.518c-.311.623.518 1.348 1.037.933.207-.207.31-.31.518-.622.208-.518-.518-1.244-1.037-.829zm-60.033 26.23v-.104c.519-1.555-2.488-1.347-1.866.104v.104c.518.829 1.659.726 1.866-.104zm31.002-65.524c.726-.83-.519-1.866-1.244-1.037-.726.726.518 1.763 1.244 1.037zm10.99-6.635c.726-.83-.518-1.867-1.244-1.14-.726.829.519 1.97 1.244 1.14zm1.866 8.916c.52-.518-.414-1.347-.829-.725-.518.518.311 1.244.83.725zm-8.501-19.077c-.208.415-.104.726.207 1.037.415.207.933.104 1.037-.31.415-.83-.933-1.556-1.244-.727zM36.74 26.512c-.726.829.622 2.073 1.348 1.14.83-.83-.518-2.074-1.348-1.14zm-7.05 9.123c-.208.415.31.933.933.311.518-.415-.415-1.348-.933-.31zm29.653 63.969c1.037-1.347 1.452-1.97 1.97-2.695l-2.384 2.384c-3.526 3.318-8.088 7.05-12.443 9.85-1.451.933-1.658 1.037-2.799 1.762.933-.311 1.659-.518 3.11-1.244 4.666-2.177 9.125-5.598 12.546-10.057zm-13.479 19.181c-3.94 1.659-6.117 2.385-9.746 3.318 3.421.933 7.776-.726 9.746-3.318zm1.037 2.488c-3.836 1.348-5.599 1.97-8.917 3.318 3.215.622 7.05-1.037 8.917-3.318z" fill="#C88837"/></svg>