<svg width="25" height="25" fill="none" xmlns="http://www.w3.org/2000/svg"><path d="M24.52 7.311a8.8 8.8 0 00-.567-2.99 6.221 6.221 0 00-3.56-3.555A8.945 8.945 0 0017.437.2c-1.3-.058-1.713-.074-5.015-.074-3.301 0-3.724 0-5.016.074a8.945 8.945 0 00-2.954.567A6.23 6.23 0 00.892 4.32a8.834 8.834 0 00-.566 2.95C.268 8.57.25 8.98.25 12.277c0 3.296 0 3.718.076 5.008a8.89 8.89 0 00.566 2.952 6.223 6.223 0 003.562 3.553 8.918 8.918 0 002.954.607c1.302.058 1.714.076 5.016.076s3.725 0 5.016-.076a8.923 8.923 0 002.956-.565 6.239 6.239 0 003.56-3.554 8.874 8.874 0 00.566-2.952c.058-1.299.076-1.71.076-5.008-.003-3.296-.003-3.715-.079-5.007zm-12.106 11.2a6.244 6.244 0 01-6.25-6.24 6.244 6.244 0 016.25-6.24c1.658 0 3.248.657 4.42 1.827a6.235 6.235 0 010 8.825 6.256 6.256 0 01-4.42 1.828zm6.5-11.256a1.454 1.454 0 11.557-2.8A1.458 1.458 0 0120.37 5.8c0 .804-.652 1.455-1.456 1.455z" fill="#9A4084"/><path d="M12.424 16.045a3.746 3.746 0 100-7.492 3.746 3.746 0 000 7.492z" fill="#9A4084"/></svg>