<svg width="1920" height="117" fill="none" xmlns="http://www.w3.org/2000/svg"><path d="M153.6 53.81c23.04-12.34 44.8-27.66 69.12-38.3C284.587-10.87 360.533-.66 413.013 41.04c19.2 15.32 36.694 35.32 61.014 40 33.706 6.39 65.706-19.14 99.84-17.87 36.266 1.28 64.426 31.49 98.56 42.98 62.72 21.28 126.72-21.7 190.293-39.57 51.2-14.47 107.093-11.92 157.01 6.38 31.15 11.49 61.87 29.36 95.15 25.53 23.89-2.55 44.8-17.45 67.84-24.68 114.77-37.02 167.68 39.57 290.13 40 57.6 0 47.36-36.17 100.27-72.77 17.49-11.91 38.83-17.44 59.73-13.61 20.91 3.83 39.68 14.04 56.32 26.81 12.8 9.78 25.18 20.85 40.54 25.1 20.48 5.96 42.66-.85 61.86-11.06 19.2-10.21 36.27-23.4 55.9-31.49 22.61-9.36 48.64-11.06 72.53-5.53V207H0V31.26c9.387 2.13 18.773 5.53 27.307 9.78 56.32 28.94 99.84 21.71 126.293 12.77z" fill="#fff"/></svg>