<svg width="335" height="41" viewBox="0 0 335 41" fill="none" xmlns="http://www.w3.org/2000/svg">
<path d="M10.3585 39.3016L0.137695 0.723275H6.84225L14.6953 30.3534L23.1116 0.720703L29.3614 0.723275L37.8072 30.5109L45.6956 0.730561L52.3999 0.720703L42.1748 39.2947L34.4035 39.2866L26.2391 10.4768L18.0671 39.294L10.3585 39.3016Z" fill="white"/>
<path d="M57.0244 0.743164H63.4065V39.2765H57.0244V0.743164Z" fill="white"/>
<path d="M77.0513 33.232H92.5885V39.2765H70.8013V0.743164H77.0513V33.232Z" fill="white"/>
<path d="M112.22 0.787592C117.457 0.787592 121.815 2.65431 125.248 6.34316C128.725 10.032 130.486 14.6099 130.486 20.032C130.486 25.4099 128.725 29.9876 125.248 33.7209C121.815 37.4099 117.457 39.2765 112.22 39.2765H97.2104V0.743164H112.22V0.787592ZM112.22 33.2765C115.829 33.2765 118.778 32.032 120.978 29.5432C123.267 27.0543 124.412 23.8543 124.412 20.0764C124.412 16.2099 123.267 13.0987 120.978 10.6099C118.734 8.12088 115.785 6.87645 112.22 6.87645H103.505V33.2765H112.22Z" fill="white"/>
<path d="M164.156 28.2686C164.156 31.4257 163.057 34.0493 160.812 36.1393C158.567 38.2293 155.926 39.2964 152.669 39.2964H136.339V0.743164H151.48C154.606 0.743164 157.246 1.81045 159.403 3.81145C161.604 5.85688 162.661 8.39159 162.661 11.4153C162.661 14.7949 161.339 17.374 158.787 19.2862C162.132 21.0649 164.156 24.2664 164.156 28.2686ZM142.633 6.70188V16.8405H151.524C154.297 16.8405 156.41 14.617 156.41 11.7712C156.41 8.92516 154.297 6.70188 151.524 6.70188H142.633ZM152.712 33.3379C155.617 33.3379 157.907 30.981 157.907 27.9573C157.907 24.9334 155.617 22.5767 152.712 22.5767H142.633V33.3823H152.712V33.3379Z" fill="white"/>
<path d="M176.348 33.2489H193.251V39.2964H170.099V0.743164H192.987V6.79074H176.348V16.7959H191.622V22.799H176.348V33.2489Z" fill="white"/>
<path d="M220.628 39.2964L212.529 25.2447H205.134V39.2964H198.884V0.743164H214.157C217.591 0.743164 220.495 1.94374 222.828 4.38945C225.204 6.74631 226.438 9.68116 226.438 13.1496C226.438 18.041 223.4 22.5322 218.867 24.3109L227.537 39.2964H220.628ZM205.134 6.70173V19.5973H214.114C217.458 19.5973 220.099 16.7514 220.099 13.1496C220.099 9.59216 217.415 6.70173 214.114 6.70173H205.134Z" fill="white"/>
<path d="M254.035 39.2964L245.98 25.2374H238.585V39.2964H232.336V0.723145H247.608C251.042 0.723145 253.947 1.92443 256.28 4.37143C258.656 6.72943 259.89 9.66571 259.89 13.136C259.89 18.03 256.852 22.5236 252.319 24.3031L260.989 39.2964H254.035ZM238.585 6.68486V19.5871H247.565C250.91 19.5871 253.551 16.7397 253.551 13.136C253.551 9.57686 250.866 6.68486 247.565 6.68486H238.585Z" fill="white"/>
<path d="M265.567 0.727539H271.818V39.2965H265.567V0.727539Z" fill="white"/>
<path d="M285.462 33.2489H302.364V39.2963H279.211V0.743164H302.099V6.79074H285.462V16.7959H300.734V22.799H285.462V33.2489Z" fill="white"/>
<path d="M306.721 30.5211L312.135 27.3211C313.675 31.6767 316.801 33.8099 321.597 33.8099C326.351 33.8099 328.684 31.7655 328.684 28.7434C328.684 27.1434 328.024 25.9878 326.792 25.1878C325.559 24.3434 323.27 23.4099 320.014 22.4322C316.36 21.3211 314.556 20.6099 312.002 18.9211C309.538 17.1434 308.305 14.6099 308.305 11.1434C308.305 7.72108 309.494 5.05451 311.914 3.05451C314.292 1.00994 317.197 0.0322266 320.586 0.0322266C326.704 0.0322266 331.413 3.23223 333.878 8.52108L328.596 11.5878C327.011 8.03223 324.327 6.20994 320.586 6.20994C316.932 6.20994 314.599 8.07666 314.599 11.0099C314.599 13.8545 316.448 15.1878 322.302 17.0099C323.755 17.4989 324.811 17.8545 325.471 18.1211C326.175 18.3434 327.099 18.7434 328.288 19.2322C329.521 19.7211 330.489 20.2989 331.061 20.7878C333.086 22.3878 335.242 25.0099 334.978 28.6989C334.978 32.1655 333.746 34.9655 331.237 37.0099C328.772 39.0545 325.515 40.0322 321.466 40.0322C314.071 39.9878 308.701 36.4322 306.721 30.5211Z" fill="white"/>
</svg>
