<svg width="147" height="40" viewBox="0 0 147 40" fill="none" xmlns="http://www.w3.org/2000/svg">
<path d="M17.5458 7.17583C7.50288 6.117 -0.942285 14.8229 0.0848298 25.1758C0.769573 32.9406 6.81814 39.0582 14.2362 39.8817C24.2791 40.9406 32.7243 32.2347 31.6971 21.8817C31.0124 14.117 24.9638 7.99936 17.5458 7.17583ZM16.9752 32.2347C11.4972 32.9406 6.81814 28.117 7.50288 22.3523C7.95938 18.47 11.0407 15.2935 14.8068 14.8229C20.3989 14.117 25.078 18.9405 24.3932 24.7053C23.8226 28.5876 20.8554 31.7641 16.9752 32.2347Z" fill="white"/>
<path d="M40.2561 7.88281C37.9736 7.88281 36.1477 10.0005 36.6042 12.4711C36.9465 14.2358 38.5443 15.5299 40.3703 15.5299H50.7555L34.6641 37.4123C34.0934 38.1181 34.6641 39.177 35.4629 39.177H60.7984C62.6244 39.177 64.2221 38.0005 64.5645 36.1181C65.021 33.6475 63.195 31.5299 60.9126 31.5299H48.3589L64.4504 9.64752C65.021 8.94164 64.4504 7.88281 63.6515 7.88281H40.2561Z" fill="white"/>
<path d="M141.484 7.88264C139.772 8.23558 138.631 9.88264 138.631 11.765V24.4709L118.545 8.00029C117.861 7.41205 116.833 8.00029 116.833 8.82382V35.2944C116.833 37.0591 117.975 38.7062 119.687 39.1768C122.083 39.6474 124.252 37.8827 124.252 35.4121V22.4709L144.337 38.9415C145.022 39.5297 146.049 38.9415 146.049 38.118V11.6473C146.049 9.29441 143.881 7.41205 141.484 7.88264Z" fill="white"/>
<path d="M89.1013 14.7061C97.6606 14.7061 103.937 19.2944 103.937 23.412C103.937 27.5297 97.5465 32.1179 89.1013 32.1179C80.6561 32.1179 74.2652 27.5297 74.2652 23.412C74.2652 19.412 80.6561 14.7061 89.1013 14.7061ZM89.1013 7.05908C76.7759 7.05908 66.8472 14.3532 66.8472 23.5297C66.8472 32.7062 76.7759 40.0003 89.1013 40.0003C101.427 40.0003 111.355 32.5885 111.355 23.5297C111.47 14.4709 101.427 7.05908 89.1013 7.05908Z" fill="white"/>
<path d="M91.1549 20.7057L88.5301 19.0586C88.3018 19.4115 85.2205 24.8233 84.1934 31.7645C85.2205 31.9998 86.1335 32.1174 87.2747 32.2351C88.1877 25.7645 91.0408 20.7057 91.1549 20.7057Z" fill="white"/>
<path d="M84.6504 6.47059C83.5091 8.94118 82.3679 11.4118 81.9114 14.1177C81.4549 16.8235 81.4549 19.6471 82.5962 22.1177C83.7374 24.5883 86.2481 26.4706 88.873 26.4706C91.4978 26.4706 93.8944 24.5883 95.6063 22.4706C99.6006 17.7647 101.769 11.4118 101.541 5.17648C99.8288 8.4706 98.8017 7.52942 95.7204 9.64707C95.8345 5.88236 95.4921 5.29412 94.6933 1.76471C92.9814 4.47059 91.7261 4.82353 89.5577 7.05883C89.786 3.76471 89.2153 3.17647 89.4436 0C87.8459 2.11765 85.6775 4.11765 84.6504 6.47059Z" fill="white"/>
<path d="M92.0686 32.118C95.0358 28.9415 100.628 23.2944 100.856 19.2944C98.2313 22.2356 91.9544 26.7062 88.5307 29.5297C87.5036 30.3533 86.5906 31.1768 85.7917 32.118C86.8189 32.2356 87.9601 32.3533 89.1013 32.3533C90.1285 32.2356 91.1556 32.2356 92.0686 32.118Z" fill="white"/>
</svg>
