<svg width="156" height="40" viewBox="0 0 156 40" fill="none" xmlns="http://www.w3.org/2000/svg">
<g clip-path="url(#clip0)">
<path fill-rule="evenodd" clip-rule="evenodd" d="M153.521 17.7091C154.429 17.7091 155.227 16.9368 155.227 15.9853C155.227 15.0473 154.429 14.3022 153.521 14.3022C152.587 14.3022 151.802 15.0473 151.802 15.9853C151.802 16.9368 152.587 17.7091 153.521 17.7091ZM153.521 11.5989C154.429 11.5989 155.227 10.8544 155.227 9.8753C155.227 8.9373 154.429 8.17882 153.521 8.17882C152.587 8.17882 151.802 8.9373 151.802 9.8753C151.802 10.8544 152.587 11.5989 153.521 11.5989ZM100.461 12.9509C100.461 15.1439 98.9489 16.7989 96.7209 16.7989C94.4928 16.7989 92.9796 15.1439 92.9796 12.9509C92.9796 10.7578 94.4928 9.08914 96.7209 9.08914C98.9489 9.08914 100.461 10.7578 100.461 12.9509ZM89.5557 12.9509C89.5557 17.0609 92.5951 20.1091 96.7209 20.1091C100.847 20.1091 103.886 17.0473 103.886 12.9509C103.886 8.84074 100.819 5.7785 96.7209 5.7785C92.5951 5.7785 89.5557 8.84074 89.5557 12.9509ZM85.347 19.6127C85.9796 20.2605 87.0381 20.2885 87.6851 19.6401C88.3177 19.0197 88.3863 17.9436 87.7537 17.2955L83.4492 12.8405L87.5894 8.55098C88.2076 7.90295 88.1526 6.84073 87.52 6.23381C86.8874 5.58533 85.828 5.61343 85.209 6.26144L80.9324 10.6747C80.5614 11.0615 80.2998 11.1163 80.0246 11.1163C79.5987 11.1163 79.2405 10.8268 79.2405 10.3853V7.43371C79.2405 6.50964 78.4702 5.76481 77.5488 5.76481C76.6278 5.76481 75.8573 6.50964 75.8573 7.43371V18.4401C75.8573 19.3644 76.6278 20.1091 77.5488 20.1091C78.4702 20.1091 79.2405 19.3644 79.2405 18.4401V15.3089C79.2405 14.8817 79.5987 14.5922 80.0246 14.5922C80.2998 14.5922 80.5614 14.6477 80.9324 15.0332L85.347 19.6127ZM147.648 9.28186C148.584 9.28186 149.326 8.55098 149.326 7.62713C149.326 6.73045 148.584 5.97168 147.648 5.97168H145.091C140.91 5.97168 137.939 8.96498 137.939 12.9784C137.939 16.9921 140.91 19.9847 145.091 19.9847H147.648C148.584 19.9847 149.326 19.2537 149.326 18.3298C149.326 17.4334 148.584 16.6746 147.648 16.6746H144.994C142.766 16.6746 141.296 15.1025 141.296 12.9784C141.296 10.8544 142.766 9.28186 144.994 9.28186H147.648ZM132.548 12.9509C132.548 15.1439 131.035 16.7989 128.807 16.7989C126.579 16.7989 125.066 15.1439 125.066 12.9509C125.066 10.7578 126.579 9.08914 128.807 9.08914C131.035 9.08914 132.548 10.7578 132.548 12.9509ZM121.642 12.9509C121.642 17.0609 124.68 20.1091 128.807 20.1091C132.932 20.1091 135.973 17.0473 135.973 12.9509C135.973 8.84074 132.905 5.7785 128.807 5.7785C124.68 5.7785 121.642 8.84074 121.642 12.9509ZM54.1347 13.4193L50.1664 6.60622C49.7122 5.834 48.7499 5.55794 47.9246 5.93058C47.0853 6.41305 46.8248 7.43372 47.3058 8.24754L52.0491 16.2798C51.4754 16.6609 50.8547 16.7949 50.18 16.8542C49.2587 16.9368 48.6396 17.5987 48.6396 18.4677C48.6396 19.5023 49.4789 20.0816 50.3316 20.0816C52.2565 20.0816 53.9345 19.1023 55.1447 17.7366C56.2454 16.4953 57.0843 14.9231 57.8681 13.4471L60.66 8.1925C61.0862 7.37869 60.8252 6.31646 59.9582 5.90272C59.1472 5.51637 58.157 5.86139 57.7308 6.66149L54.1347 13.4193ZM66.0791 9.26818V18.4401C66.0791 19.3781 66.8626 20.1091 67.7984 20.1091C68.7469 20.1091 69.5169 19.3781 69.5169 18.4401V9.26818H72.0747C73.0105 9.26818 73.7667 8.5233 73.7667 7.5858C73.7667 6.67518 73.0105 5.91642 72.0747 5.91642H63.507C62.5714 5.91642 61.815 6.67518 61.815 7.5858C61.815 8.5233 62.5714 9.26818 63.507 9.26818H66.0791ZM106.583 18.4401C106.596 19.3644 107.365 20.1091 108.287 20.1091C109.208 20.1091 109.979 19.3644 109.979 18.4401V14.6197H115.549V18.4401C115.549 19.3644 116.332 20.1091 117.254 20.1091C118.176 20.1091 118.946 19.3644 118.946 18.4401V7.43371C118.946 6.50964 118.163 5.76481 117.24 5.76481C116.319 5.76481 115.549 6.50964 115.549 7.43371V11.254H109.965V7.43371C109.965 6.50964 109.195 5.76481 108.274 5.76481C107.353 5.76481 106.583 6.50964 106.583 7.43371V18.4401Z" fill="white"/>
<path d="M48.568 31.419L51.0575 27.9642C51.1654 27.8172 51.3041 27.7012 51.5045 27.7012C51.8205 27.7012 51.9439 27.9175 51.9439 28.1805V32.563C51.9439 32.8181 51.8052 33.0346 51.4892 33.0346C51.1654 33.0346 51.0189 32.8181 51.0189 32.563V29.3322L48.5141 32.764C48.4138 32.8955 48.2751 33.0346 48.0824 33.0346C47.7972 33.0346 47.6431 32.8568 47.6431 32.563V28.1805C47.6431 27.9254 47.782 27.7012 48.1055 27.7012C48.4215 27.7012 48.568 27.9254 48.568 28.1805V31.419Z" fill="white"/>
<path d="M53.4402 31.9604C53.787 31.9604 53.9797 32.2154 53.9797 32.5014C53.9797 32.7949 53.787 33.0347 53.4402 33.0347C53.0933 33.0347 52.9084 32.7949 52.9084 32.5014C52.9084 32.2154 53.0933 31.9604 53.4402 31.9604Z" fill="white"/>
<path d="M55.2905 31.9604C55.6374 31.9604 55.83 32.2154 55.83 32.5014C55.83 32.7949 55.6374 33.0347 55.2905 33.0347C54.9437 33.0347 54.7588 32.7949 54.7588 32.5014C54.7588 32.2154 54.9437 31.9604 55.2905 31.9604Z" fill="white"/>
<path d="M59.5756 31.419L62.0652 27.9642C62.173 27.8172 62.3117 27.7012 62.512 27.7012C62.8281 27.7012 62.9515 27.9175 62.9515 28.1805V32.563C62.9515 32.8181 62.8127 33.0346 62.4968 33.0346C62.173 33.0346 62.0265 32.8181 62.0265 32.563V29.3322L59.5217 32.764C59.4213 32.8955 59.2826 33.0346 59.0901 33.0346C58.8049 33.0346 58.6506 32.8568 58.6506 32.563V28.1805C58.6506 27.9254 58.7895 27.7012 59.1131 27.7012C59.4292 27.7012 59.5756 27.9254 59.5756 28.1805V31.419Z" fill="white"/>
<path d="M64.6796 31.9604C65.0263 31.9604 65.219 32.2154 65.219 32.5014C65.219 32.7949 65.0263 33.0347 64.6796 33.0347C64.3325 33.0347 64.1477 32.7949 64.1477 32.5014C64.1477 32.2154 64.3325 31.9604 64.6796 31.9604Z" fill="white"/>
<path d="M66.7604 31.9604C67.1074 31.9604 67.3 32.2154 67.3 32.5014C67.3 32.7949 67.1074 33.0347 66.7604 33.0347C66.4136 33.0347 66.2288 32.7949 66.2288 32.5014C66.2288 32.2154 66.4136 31.9604 66.7604 31.9604Z" fill="white"/>
<path fill-rule="evenodd" clip-rule="evenodd" d="M75.4166 30.3684C75.4166 28.8378 74.5534 27.6245 72.881 27.6245C71.2083 27.6245 70.3528 28.8378 70.3528 30.3684C70.3528 31.9065 71.2083 33.1122 72.881 33.1122C74.5534 33.1122 75.4166 31.9065 75.4166 30.3684ZM74.4455 30.3684C74.4455 31.4429 73.9291 32.2853 72.881 32.2853C71.8404 32.2853 71.3239 31.4429 71.3239 30.3684C71.3239 29.3017 71.8404 28.4515 72.881 28.4515C73.9291 28.4515 74.4455 29.3017 74.4455 30.3684Z" fill="white"/>
<path d="M79.7185 30.7235H77.2675V32.563C77.2675 32.8258 77.1055 33.0346 76.805 33.0346C76.4968 33.0346 76.3425 32.8258 76.3425 32.563V28.1805C76.3425 27.9175 76.4968 27.7012 76.805 27.7012C77.1055 27.7012 77.2675 27.9175 77.2675 28.1805V29.8963H79.7185V28.1805C79.7185 27.9175 79.8729 27.7012 80.1809 27.7012C80.4816 27.7012 80.6435 27.9175 80.6435 28.1805V32.563C80.6435 32.8258 80.4816 33.0346 80.1809 33.0346C79.8729 33.0346 79.7185 32.8258 79.7185 32.563V30.7235Z" fill="white"/>
<path d="M85.1673 27.7012C85.476 27.7012 85.63 27.9175 85.63 28.1805V32.563C85.63 32.8258 85.476 33.0346 85.1673 33.0346C84.8594 33.0346 84.7054 32.8258 84.7054 32.563V28.5283H83.2791C83.2639 29.4638 83.2025 30.9011 82.9249 31.8907C82.7478 32.5245 82.3546 33.0731 81.7459 33.0731C81.2984 33.0731 81.0902 32.8027 81.1755 32.4704C81.2369 32.2154 81.4372 32.1923 81.6222 32.1923C81.8153 32.1923 81.9996 32.0375 82.1081 31.6743C82.3083 31.0327 82.4088 29.8578 82.4311 28.1805C82.4391 27.8868 82.601 27.7012 82.8707 27.7012H85.1673Z" fill="white"/>
<path fill-rule="evenodd" clip-rule="evenodd" d="M87.69 31.5278H89.6707L90.1023 32.6718C90.21 32.9653 90.4413 33.1045 90.7341 32.9963C91.0037 32.896 91.0348 32.5866 90.9423 32.3549L89.1538 27.9568C89.0772 27.7713 88.9464 27.6245 88.707 27.6245C88.4909 27.6245 88.3369 27.7404 88.2372 28.0033L86.5029 32.3625C86.4024 32.6253 86.4184 32.896 86.6569 32.9963C86.9959 33.1354 87.1962 32.8881 87.2887 32.6175L87.69 31.5278ZM89.4082 30.8013H87.9364L88.6608 28.8534L89.4082 30.8013Z" fill="white"/>
<path fill-rule="evenodd" clip-rule="evenodd" d="M92.7076 26.3952C92.5767 26.5189 92.5927 26.712 92.7076 26.8667C92.9006 27.1295 93.3402 27.3614 93.9257 27.3614C94.5112 27.3614 94.9348 27.1295 95.1279 26.8667C95.2435 26.712 95.2818 26.5189 95.1358 26.3952C94.9587 26.2405 94.7809 26.3334 94.6349 26.4804C94.4187 26.6888 94.2033 26.7663 93.9257 26.7663C93.6481 26.7663 93.4247 26.6812 93.2085 26.4725C93.0626 26.3334 92.8855 26.225 92.7076 26.3952ZM95.2204 27.9644L92.7307 31.4192V28.1807C92.7307 27.9256 92.5847 27.7014 92.2688 27.7014C91.945 27.7014 91.8062 27.9256 91.8062 28.1807V32.5632C91.8062 32.857 91.9601 33.0348 92.2457 33.0348C92.438 33.0348 92.5768 32.8957 92.6773 32.7642L95.1821 29.3324V32.5632C95.1821 32.8183 95.3281 33.0348 95.652 33.0348C95.9679 33.0348 96.1067 32.8183 96.1067 32.5632V28.1807C96.1067 27.9177 95.9838 27.7014 95.6679 27.7014C95.4669 27.7014 95.3281 27.8174 95.2204 27.9644Z" fill="white"/>
<path d="M100.794 30.7235H98.3425V32.563C98.3425 32.8258 98.1806 33.0346 97.8799 33.0346C97.5719 33.0346 97.418 32.8258 97.418 32.563V28.1805C97.418 27.9175 97.5719 27.7012 97.8799 27.7012C98.1806 27.7012 98.3425 27.9175 98.3425 28.1805V29.8963H100.794V28.1805C100.794 27.9175 100.948 27.7012 101.256 27.7012C101.557 27.7012 101.718 27.9175 101.718 28.1805V32.563C101.718 32.8258 101.557 33.0346 101.256 33.0346C100.948 33.0346 100.794 32.8258 100.794 32.563V30.7235Z" fill="white"/>
<path fill-rule="evenodd" clip-rule="evenodd" d="M36.452 4.33299C36.452 1.9405 34.5178 0.000488281 32.132 0.000488281H4.32009C1.93436 0.000488281 0 1.9405 0 4.33299V21.722C0 31.8167 8.15989 40.0002 18.2258 40.0002C28.2923 40.0002 36.452 31.8167 36.452 21.722C36.4513 14.8008 36.4533 11.2544 36.452 4.33299Z" fill="white"/>
<path fill-rule="evenodd" clip-rule="evenodd" d="M23.114 26.5552C23.114 25.613 22.3385 24.8516 21.3985 24.8516C20.4579 24.8516 19.6826 25.613 19.6826 26.5552C19.6826 27.4984 20.4579 28.2756 21.3985 28.2756C22.3385 28.2756 23.114 27.4984 23.114 26.5552ZM17.0267 26.5552C17.0267 25.613 16.252 24.8516 15.2949 24.8516C14.3546 24.8516 13.5959 25.613 13.5959 26.5552C13.5959 27.4984 14.3546 28.2756 15.2949 28.2756C16.252 28.2756 17.0267 27.4984 17.0267 26.5552Z" fill="#81356E"/>
</g>
<defs>
<clipPath id="clip0">
<rect width="155.556" height="40" fill="white"/>
</clipPath>
</defs>
</svg>
