<svg width="32" height="32" viewBox="0 0 32 32" fill="none" xmlns="http://www.w3.org/2000/svg">
<path d="M16 32C7.15294 32 0 24.8471 0 16C0 7.15294 7.15294 0 16 0C24.8471 0 32 7.15294 32 16C32 24.8471 24.8471 32 16 32ZM16 1.88235C8.18824 1.88235 1.88235 8.18824 1.88235 16C1.88235 23.8118 8.18824 30.1176 16 30.1176C23.8118 30.1176 30.1176 23.8118 30.1176 16C30.1176 8.18824 23.8118 1.88235 16 1.88235Z" fill="#9BD32F"/>
<path d="M22.8547 7.81364L24.1855 9.14541L9.14552 24.1854L7.8147 22.8546L22.8547 7.81364Z" fill="#9BD32F"/>
<path d="M9.14552 7.81364L24.1855 22.8536L22.8547 24.1854L7.8147 9.14541L9.14552 7.81364Z" fill="#9BD32F"/>
</svg>
