<svg width="690" height="363" viewBox="0 0 690 363" fill="none" xmlns="http://www.w3.org/2000/svg">
<g clip-path="url(#clip0)">
<path d="M437.072 326.419C440.542 326.419 442.146 324.06 442.146 320.681V312.324C442.146 308.911 440.792 306.631 437.072 306.631C433.352 306.631 431.998 308.911 431.998 312.324V320.681C431.987 324.06 433.602 326.419 437.072 326.419Z" fill="white"/>
<path d="M385.818 307.017H381.336V314.025H386.08C389.004 314.025 390.562 312.8 390.562 310.612C390.551 308.831 389.664 307.017 385.818 307.017Z" fill="white"/>
<path d="M467.789 310.6C467.789 308.831 466.901 307.017 463.045 307.017H458.562V314.025H463.306C466.219 314.013 467.789 312.789 467.789 310.6Z" fill="white"/>
<path d="M406.934 307.017V314.025H411.678C414.602 314.025 416.16 312.8 416.16 310.612C416.16 308.843 415.273 307.028 411.416 307.028H406.934V307.017Z" fill="white"/>
<path d="M192.654 240.749C190.856 240.738 189.388 242.178 189.377 243.969C189.366 245.761 190.81 247.224 192.608 247.235C194.406 247.246 195.873 245.806 195.885 244.015C195.896 242.234 194.451 240.772 192.654 240.749Z" fill="white"/>
<path d="M194.645 151.178C195.657 151.19 196.477 150.373 196.488 149.375C196.499 148.366 195.68 147.55 194.679 147.538C193.667 147.527 192.847 148.343 192.836 149.341C192.825 150.339 193.632 151.167 194.645 151.178Z" fill="white"/>
<path d="M457.482 273.792C457.482 277.081 460.156 279.745 463.455 279.745C466.754 279.745 469.428 277.081 469.428 273.792C469.428 270.504 466.754 267.839 463.455 267.839C460.167 267.839 457.482 270.504 457.482 273.792Z" fill="white"/>
<path d="M338.832 132.922C335.533 132.922 332.859 135.586 332.859 138.875C332.859 142.163 335.533 144.828 338.832 144.828C342.131 144.828 344.805 142.163 344.805 138.875C344.805 135.586 342.131 132.922 338.832 132.922Z" fill="white"/>
<path d="M238.98 64.363C238.98 62.5373 237.501 61.0632 235.67 61.0632C233.838 61.0632 232.359 62.5373 232.359 64.363C232.359 66.1886 233.838 67.6628 235.67 67.6628C237.501 67.6628 238.98 66.1886 238.98 64.363Z" fill="white"/>
<path d="M248.776 273.792C248.776 271.967 247.297 270.492 245.465 270.492C243.633 270.492 242.154 271.967 242.154 273.792C242.154 275.618 243.633 277.092 245.465 277.092C247.297 277.092 248.776 275.618 248.776 273.792Z" fill="white"/>
<path d="M11.3653 267.193C9.53366 267.193 8.05469 268.667 8.05469 270.492C8.05469 272.318 9.53366 273.792 11.3653 273.792C13.197 273.792 14.676 272.318 14.676 270.492C14.676 268.678 13.197 267.193 11.3653 267.193Z" fill="white"/>
<path d="M242.291 6.59959C244.123 6.59959 245.602 5.12545 245.602 3.29979C245.602 1.47413 244.123 0 242.291 0C240.459 0 238.98 1.47413 238.98 3.29979C238.98 5.12545 240.471 6.59959 242.291 6.59959Z" fill="white"/>
<path d="M460.793 226.495C460.793 224.669 459.314 223.195 457.483 223.195C455.651 223.195 454.172 224.669 454.172 226.495C454.172 228.321 455.651 229.795 457.483 229.795C459.314 229.795 460.793 228.321 460.793 226.495Z" fill="white"/>
<path d="M335.524 167.552C333.692 167.552 332.213 169.027 332.213 170.852C332.213 172.678 333.692 174.152 335.524 174.152C337.355 174.152 338.834 172.678 338.834 170.852C338.834 169.038 337.355 167.552 335.524 167.552Z" fill="white"/>
<path d="M636.462 129.214C643.254 129.214 648.772 123.725 648.772 116.944C648.772 110.175 643.265 104.675 636.462 104.675C629.67 104.675 624.152 110.163 624.152 116.944C624.164 123.725 629.67 129.214 636.462 129.214Z" fill="white"/>
<path d="M606.949 113.871C606.949 116.139 608.792 117.976 611.068 117.976C613.343 117.976 615.186 116.139 615.186 113.871C615.186 111.603 613.343 109.766 611.068 109.766C608.792 109.766 606.949 111.603 606.949 113.871Z" fill="white"/>
<path d="M685.255 219.476C682.889 218.285 680.238 218.285 677.985 219.249C675.175 218.263 673.184 215.484 672.968 212.207C673.469 211.527 673.776 210.688 673.776 209.769C673.776 207.501 671.933 205.664 669.657 205.664C667.382 205.664 665.539 207.501 665.539 209.769C665.539 212.037 667.382 213.874 669.657 213.874C669.874 213.874 670.09 213.852 670.306 213.818C672.843 215.224 674.458 218.24 674.14 221.585C674.106 221.993 674.038 222.379 673.947 222.764C673.844 222.935 673.742 223.105 673.651 223.275C673.332 223.91 673.105 224.567 672.957 225.225C672.877 225.577 672.809 225.94 672.775 226.302C672.433 229.738 674.197 233.185 677.473 234.841C681.728 236.984 686.927 235.283 689.066 231.031C691.228 226.79 689.51 221.608 685.255 219.476Z" fill="white"/>
<path d="M627.7 325.183C625.425 325.183 623.582 327.02 623.582 329.288C623.582 331.556 625.425 333.393 627.7 333.393C629.976 333.393 631.819 331.556 631.819 329.288C631.819 327.02 629.976 325.183 627.7 325.183Z" fill="white"/>
<path d="M21.9348 172.519C24.2093 172.519 26.0532 170.681 26.0532 168.414C26.0532 166.147 24.2093 164.309 21.9348 164.309C19.6603 164.309 17.8164 166.147 17.8164 168.414C17.8164 170.681 19.6603 172.519 21.9348 172.519Z" fill="white"/>
<path d="M131.048 23.1958C134.487 19.7683 134.487 14.2112 131.048 10.7837C127.61 7.35623 122.034 7.35623 118.596 10.7837C115.157 14.2112 115.157 19.7683 118.596 23.1958C122.034 26.6233 127.61 26.6233 131.048 23.1958Z" fill="white"/>
<path d="M645.926 201.957C640.864 200.63 636.984 199.269 634.015 197.931C623.582 197.716 615.186 189.222 615.186 178.767C615.186 170.387 620.579 163.278 628.087 160.658V145.554C628.087 133.239 617.109 124.009 604.412 124.009C591.033 124.009 580.737 133.239 580.737 145.554V197.886H571.761C570.851 199.201 569.918 201.48 569.065 205.279C569.156 207.66 568.007 209.917 565.902 211.017C562.887 212.593 559.042 211.198 557.313 207.921C556.687 206.742 556.437 205.472 556.494 204.27C556.221 203.17 555.117 200.301 550.817 197.897H537.836C554.184 160.25 567.984 129.293 583.422 94.0385C586.437 95.6714 590.26 95.4106 593.058 93.0973C595.095 91.4077 596.153 88.9924 596.176 86.5431C598.212 84.3659 601.557 83.6515 604.651 84.7628C605.072 85.4999 605.732 86.1122 606.574 86.4751C608.656 87.3822 611.079 86.4297 611.989 84.3546C612.9 82.2794 611.944 79.8641 609.862 78.957C607.78 78.0498 605.357 79.0023 604.447 81.0775C604.356 81.2816 604.287 81.4857 604.242 81.6898C601.944 83.4474 598.519 83.7196 595.561 82.098C595.209 81.9052 594.867 81.6784 594.549 81.4516C594.435 81.2929 594.321 81.1342 594.196 80.9754C593.741 80.4311 593.229 79.9662 592.683 79.558C592.387 79.3425 592.08 79.1384 591.762 78.9683C591.295 78.7075 590.794 78.492 590.294 78.3333C591.147 76.3829 592 74.4212 592.865 72.4254C593.115 71.8584 593.354 71.3028 593.605 70.7358C593.661 70.5884 593.73 70.4523 593.787 70.3163C595.163 67.2433 595.163 64.8393 595.163 62.7868C595.163 61.6756 595.061 60.587 594.867 59.5211C595.641 58.217 596.46 57.5253 596.847 57.2645C597.609 56.7882 598.303 56.1759 598.883 55.4162C601.295 52.1844 600.613 47.6259 597.382 45.2333C595.561 43.8839 593.331 43.5097 591.295 44.0086C588.531 44.5529 586.358 44.7797 584.651 44.8024C583.024 43.7138 581.272 42.7953 579.463 42.1036C579.179 42.0015 578.894 41.8995 578.61 41.7974C576.301 41.015 573.9 40.5728 571.511 40.5728C562.592 40.5728 553.661 45.7095 550.236 53.908L524.809 112.216C513.694 114.495 502.227 108.451 498.028 97.497C497.482 96.0683 496.322 93.5282 495.287 90.9542C495.036 88.4708 494.331 86.1235 493.25 83.9804C489.928 77.3694 483.068 72.8223 475.138 72.8223C464.194 72.8223 455.286 81.463 454.899 92.2809C454.876 92.2695 454.865 92.2582 454.842 92.2469C454.797 92.7685 454.751 93.3014 454.66 93.8344C453.341 102.169 447.015 108.474 439.222 110.197C419.165 71.6543 378.777 45.324 332.212 45.324C311.143 45.324 291.347 50.7216 274.123 60.1901C271.859 61.0632 269.401 61.5622 266.83 61.5622C255.761 61.5622 246.796 52.6833 246.796 41.7294C246.796 40.4707 246.921 39.246 247.148 38.044C247.774 36.3658 248.115 34.5401 248.115 32.6464C248.115 24.0171 241.096 17.0206 232.438 17.0206C223.78 17.0206 216.761 24.0171 216.761 32.6464C216.761 41.0377 223.394 47.8867 231.721 48.2496C231.71 48.2836 231.687 48.3063 231.676 48.3403C232.188 48.295 232.7 48.2723 233.223 48.2723C243.917 48.2723 252.598 56.913 252.598 67.5834C252.598 71.5069 251.426 75.1582 249.401 78.1972C228.035 98.3589 214.076 126.231 211.994 157.358C209.264 161.236 204.053 162.654 199.719 160.465C199.15 160.182 198.638 159.853 198.149 159.479C197.557 158.855 196.863 158.322 196.044 157.914C192.699 156.236 188.717 157.245 186.533 160.114C186.499 160.068 186.465 160.034 186.431 159.989C186.328 160.25 186.214 160.511 186.078 160.771C186.044 160.84 185.998 160.896 185.964 160.964C183.268 166.01 176.43 167.757 170.31 165.046V137.662C170.31 125.347 159.331 116.117 146.635 116.117C143.654 116.117 140.833 116.581 138.239 117.421C129.865 114.722 122.994 108.621 119.251 100.706C124.632 88.4595 130.15 75.8613 135.997 62.4013C137.374 59.3283 137.374 56.9243 137.374 54.8719C137.374 50.903 136.054 47.127 133.859 43.8499C135.565 43.7251 136.919 42.2964 136.919 40.5614C136.919 38.7358 135.44 37.2616 133.608 37.2616C132.061 37.2616 130.776 38.3162 130.411 39.7336C125.895 35.4019 119.751 32.6351 113.699 32.6351C104.78 32.6351 95.8489 37.7719 92.4245 45.9704L80.7292 72.8903C76.3605 74.5799 73.2888 73.9562 72.2422 73.6274C70.9907 73.1398 69.6255 72.8677 68.192 72.879C62.2192 72.9244 57.4069 77.6869 57.4524 83.5381C57.4751 86.8266 59.0337 89.7522 61.4456 91.6799C64.8359 94.6622 67.1568 97.1342 68.704 99.198C74.6199 100.411 79.0796 105.627 79.0796 111.887C79.0796 119.042 73.2661 124.837 66.0873 124.837C63.4934 124.837 61.0702 124.077 59.0451 122.761L35.2563 177.463C33.6181 177.758 32.469 177.497 32.0026 177.35C31.2517 177.044 30.444 176.885 29.5793 176.885C26.007 176.885 23.106 179.776 23.106 183.337C23.106 185.333 24.0161 187.113 25.4382 188.292C26.9513 189.665 28.089 190.855 28.965 191.898L26.5304 197.489C24.4712 201.934 23.0946 208.091 23.0946 209.463C23.0946 215.462 25.461 221.12 29.5338 225.361C28.3393 231.439 23.3107 236.281 16.8488 236.939C15.9386 237.03 15.0398 237.03 14.1525 236.95C12.8896 236.633 11.5472 236.519 10.1706 236.655C3.92476 237.29 -0.614564 242.847 0.0225344 249.072C0.659633 255.298 6.23424 259.822 12.4801 259.187C18.5553 258.563 23.015 253.29 22.6736 247.281C22.6964 247.292 22.7192 247.303 22.7419 247.303C22.6736 246.94 22.6168 246.566 22.5826 246.192C21.7976 238.504 27.4064 231.632 35.1312 230.838C35.9617 230.759 36.7922 230.748 37.5999 230.804C39.2837 231.496 41.0926 232.006 42.9925 232.324C43.2542 232.46 43.5272 232.596 43.7775 232.755C43.7889 232.653 43.7889 232.551 43.7889 232.448C44.9721 232.607 46.2008 232.698 47.4522 232.698H122.982V260.752C122.982 273.067 133.278 282.297 146.657 282.297C160.037 282.297 170.333 273.067 170.333 260.752V232.698H174.792C180.344 232.698 185.338 230.952 189.241 228.037C189.855 230.43 192.017 232.21 194.599 232.233C197.682 232.256 200.208 229.784 200.231 226.711C200.253 223.819 198.069 221.426 195.248 221.12C196.863 218.138 197.773 214.759 197.773 211.142C197.773 209.237 197.477 207.365 196.943 205.574C200.253 204.667 203.712 204.19 207.273 204.19C211.243 204.19 215.089 204.791 218.752 205.914C229.446 235.646 251.574 259.947 279.845 273.565C278.093 283.794 271.131 292.831 260.721 296.709C258.946 297.367 257.137 297.843 255.34 298.15C252.598 298.161 249.81 298.637 247.091 299.646C246.534 299.85 245.988 300.089 245.442 300.338C239.958 299.215 235.851 294.373 235.897 288.624C235.908 287.853 235.988 287.094 236.136 286.356C236.5 285.37 236.716 284.304 236.727 283.193C236.773 278.033 232.609 273.815 227.432 273.77C222.256 273.724 218.024 277.874 217.978 283.034C217.933 288.057 221.869 292.174 226.852 292.434C226.841 292.457 226.829 292.48 226.818 292.491C227.125 292.468 227.432 292.457 227.74 292.457C234.133 292.514 239.287 297.73 239.23 304.103C239.23 304.227 239.219 304.352 239.207 304.477C232.381 310.804 229.674 320.84 233.132 330.082C237.717 342.328 251.392 348.542 263.667 343.972C275.613 339.527 281.836 326.521 277.957 314.546C278.002 314.546 278.059 314.558 278.104 314.569C277.775 313.866 277.467 313.152 277.183 312.415C272.245 299.227 277.467 284.735 288.947 277.489C302.36 282.626 316.922 285.449 332.155 285.449C351.189 285.449 369.187 281.038 385.194 273.203C393.226 271.842 397.299 274.733 398.379 275.675C398.482 275.777 398.584 275.867 398.687 275.958C399.21 276.446 399.79 276.888 400.416 277.285C402.145 288.205 388.266 289.282 376.639 291.221C352.281 295.303 334.567 284.043 317.536 303.173C310.198 311.417 299.447 341.285 307.843 351.876C320.995 368.466 341.905 352.84 356.9 347.748C381.519 339.38 399.733 338.461 425.092 345.843C445.422 351.763 484.342 374.578 503.831 355.471C518.666 340.922 504.161 331.363 501.305 315.091C497.039 290.767 507.448 286.232 478.597 284.111C453.238 282.24 428.619 284.848 416.491 265.832C416.298 265.072 416.013 264.346 415.649 263.643C414.057 260.117 413.021 257.259 412.396 254.923C434.751 235.011 449.598 206.912 452.214 175.343C464.842 177.679 476.242 185.752 482.283 198.158C483.261 200.165 484.058 202.217 484.695 204.292L484.217 205.381C482.158 209.826 480.781 215.984 480.781 217.356C480.781 220.916 481.623 224.363 483.159 227.47C481.396 233.821 475.446 238.356 468.597 238.039C467.675 237.993 466.788 237.857 465.935 237.653C464.729 237.154 463.42 236.848 462.044 236.78C455.775 236.497 450.462 241.327 450.178 247.575C449.893 253.823 454.74 259.119 461.009 259.414C467.106 259.686 472.294 255.127 472.84 249.129C472.863 249.14 472.886 249.152 472.897 249.163C472.886 248.789 472.886 248.414 472.897 248.04C473.25 240.318 479.814 234.342 487.573 234.694C488.017 234.716 488.461 234.762 488.904 234.818C493.08 238.379 498.666 240.602 505.15 240.602H580.646V268.655C580.646 280.97 590.942 290.201 604.321 290.201C606.005 290.201 607.632 290.053 609.202 289.781C615.152 291.618 618.884 297.639 617.678 303.831C617.53 304.613 617.291 305.361 617.007 306.076C616.449 307.006 616.028 308.049 615.801 309.183C614.777 314.41 618.201 319.479 623.457 320.5C628.713 321.52 633.787 318.107 634.811 312.868C635.801 307.777 632.581 302.855 627.576 301.653C627.587 301.631 627.61 301.619 627.621 301.597C627.303 301.563 626.995 301.517 626.677 301.449C620.192 300.191 615.949 293.931 617.211 287.456C617.257 287.23 617.314 287.025 617.371 286.799C623.844 283.045 628.008 276.457 628.008 268.633V248.278C633.298 233.174 641.831 230.555 644.208 230.113C646.017 229.942 647.815 229.432 649.533 228.548C656.552 224.896 659.271 216.256 655.596 209.259C653.606 205.392 649.965 202.818 645.926 201.957ZM122.982 137.628V189.959H80.0921C93.1299 159.932 104.552 134.146 116.486 107.045C121.697 112.159 125.212 119.008 126.1 126.674C124.109 129.849 122.982 133.568 122.982 137.628ZM190.117 195.38C186.101 192.046 180.776 189.959 174.815 189.959H173.609C172.699 190.141 171.755 190.152 170.81 189.959H170.344V189.846C169.639 189.653 168.922 189.336 168.216 188.882C162.323 185.072 165.156 175.116 170.367 172.451C173.609 167.847 180.515 166.498 186.544 169.526C186.704 169.605 186.863 169.696 187.022 169.786C187.625 170.444 188.353 171.011 189.195 171.431C192.847 173.268 197.273 171.884 199.264 168.369C199.275 168.38 199.286 168.403 199.298 168.414C199.389 168.187 199.491 167.949 199.605 167.734C201.869 163.266 207.216 161.395 211.755 163.357C211.744 164.037 211.732 164.718 211.732 165.398C211.732 168.448 211.846 171.476 212.074 174.481C207.102 183.961 199.377 191.399 190.117 195.38ZM253.849 170.818C252.04 170.818 250.573 169.355 250.573 167.552C250.573 165.75 252.04 164.287 253.849 164.287C255.658 164.287 257.126 165.75 257.126 167.552C257.126 169.355 255.658 170.818 253.849 170.818ZM304.646 79.3425C308.31 79.3425 311.268 82.3021 311.268 85.9421C311.268 89.5934 308.298 92.5417 304.646 92.5417C300.983 92.5417 298.025 89.5821 298.025 85.9421C298.025 82.3021 300.995 79.3425 304.646 79.3425ZM320.608 249.855C316.399 249.855 312.974 246.453 312.974 242.246C312.974 238.05 316.387 234.637 320.608 234.637C324.817 234.637 328.23 238.039 328.23 242.246C328.23 246.453 324.817 249.855 320.608 249.855ZM378.538 253.585C376.73 253.585 375.262 252.122 375.262 250.319C375.262 248.517 376.73 247.054 378.538 247.054C380.347 247.054 381.815 248.517 381.815 250.319C381.815 252.122 380.347 253.585 378.538 253.585ZM389.085 206.141C387.81 211.845 382.042 215.417 376.218 214.112C374.818 213.806 373.555 213.239 372.44 212.48C371.326 211.845 367.594 210.155 361.416 211.833C357.89 214.192 354.056 216.142 349.994 217.605C349.221 218.059 348.788 218.195 348.64 218.07C346.615 218.739 344.545 219.283 342.417 219.692C341.814 226.166 345.819 232.392 352.304 234.365C352.668 234.478 353.032 234.569 353.396 234.648C353.384 234.66 353.362 234.682 353.35 234.694C359.05 236.701 362.201 242.847 360.415 248.675C358.584 254.663 352.235 258.03 346.228 256.205C340.222 254.379 336.843 248.052 338.674 242.064C339.072 240.749 339.698 239.558 340.483 238.526C340.893 237.744 341.245 236.916 341.518 236.043C343.305 230.192 341.143 224.08 336.558 220.508C335.125 220.621 333.68 220.689 332.212 220.689C303.247 220.689 279.777 197.285 279.777 168.426C279.777 139.555 303.258 116.162 332.212 116.162C361.178 116.162 384.648 139.567 384.648 168.426C384.648 175.048 383.408 181.375 381.155 187.193C382.122 189.733 383.942 193.021 387.025 197.33C388.96 199.734 389.813 202.932 389.085 206.141ZM368.811 331.397H357.594C355.523 331.397 353.658 330.683 353.658 328.403V304.658C353.658 303.184 355.057 301.665 356.911 301.665H368.379C369.983 301.665 371.337 302.935 371.337 304.409C371.337 305.928 369.983 307.028 368.379 307.028H359.573V313.821H367.571C369.05 313.821 370.495 314.955 370.495 316.474C370.495 317.994 369.221 319.173 367.571 319.173H359.573V326.045H368.8C370.37 326.045 371.758 327.224 371.758 328.664C371.769 330.172 370.415 331.397 368.811 331.397ZM393.817 331.737C392.759 331.737 391.872 331.272 391.326 330.433L384.215 319.343H381.337V329.004C381.337 330.478 379.938 331.794 378.334 331.794C376.764 331.794 375.41 330.524 375.41 329.004V304.692C375.41 303.048 376.889 301.653 378.629 301.653H385.99C393.943 301.653 396.491 306.167 396.491 310.6C396.491 314.773 394.25 317.517 390.609 318.697L396.411 327.383C397.799 329.492 395.717 331.737 393.817 331.737ZM452.635 304.692C452.635 303.048 454.114 301.653 455.855 301.653H463.216C471.168 301.653 473.716 306.167 473.716 310.6C473.716 314.773 471.475 317.517 467.835 318.697L473.637 327.383C475.036 329.492 472.965 331.726 471.054 331.726C469.996 331.726 469.109 331.261 468.563 330.422L461.452 319.332H458.574V328.993C458.574 330.467 457.175 331.782 455.57 331.782C454 331.782 452.647 330.512 452.647 328.993V304.692H452.635ZM426.059 312.324C426.059 306.337 429.154 301.268 437.06 301.268C444.979 301.268 448.062 306.325 448.062 312.324V320.681C448.062 326.838 444.376 331.771 437.06 331.771C429.745 331.771 426.059 326.838 426.059 320.681V312.324ZM393.112 187.499C393.112 183.893 396.047 180.967 399.665 180.967C403.283 180.967 406.218 183.893 406.218 187.499C406.218 191.105 403.283 194.03 399.665 194.03C396.047 194.03 393.112 191.105 393.112 187.499ZM422.089 310.6C422.089 314.773 419.847 317.517 416.207 318.697L422.009 327.383C423.408 329.492 421.326 331.726 419.426 331.726C418.368 331.726 417.481 331.261 416.935 330.422L409.825 319.332H406.946V328.993C406.946 330.467 405.547 331.782 403.943 331.782C402.373 331.782 401.019 330.512 401.019 328.993V304.692C401.019 303.048 402.498 301.653 404.239 301.653H411.599C419.552 301.653 422.089 306.167 422.089 310.6ZM498.768 175.819C498.233 175.819 497.71 175.796 497.187 175.774L497.164 175.842C480.929 180.446 463.523 175.173 452.681 162.665C452.294 145.486 448.289 129.214 441.395 114.54C445.889 109.993 452.408 107.589 459.2 108.655C461.088 108.95 462.863 109.494 464.524 110.254C464.524 110.231 464.524 110.22 464.524 110.197C467.618 112.102 471.259 113.202 475.161 113.202C479.2 113.202 482.966 112.012 486.128 109.982C498.279 106.285 511.385 112.511 515.981 124.485C516.561 125.993 516.959 127.535 517.221 129.066C522.534 133.999 525.867 141.018 525.867 148.831C525.845 163.731 513.717 175.819 498.768 175.819ZM567.393 223.105C565.561 223.105 564.082 221.631 564.082 219.805C564.082 217.979 565.561 216.505 567.393 216.505C569.224 216.505 570.703 217.979 570.703 219.805C570.692 221.619 569.213 223.105 567.393 223.105Z" fill="white"/>
<path d="M653.662 182.237C655.494 182.237 656.973 180.763 656.973 178.937C656.973 177.112 655.494 175.637 653.662 175.637C651.831 175.637 650.352 177.112 650.352 178.937C650.352 180.763 651.831 182.237 653.662 182.237Z" fill="white"/>
</g>
<defs>
<clipPath id="clip0">
<rect width="690" height="363" fill="white"/>
</clipPath>
</defs>
</svg>
