<svg width="105" height="93" viewBox="0 0 105 93" fill="none" xmlns="http://www.w3.org/2000/svg">
<g clip-path="url(#clip0)">
<g filter="url(#filter0_d)">
<path d="M50.7423 11.4751C50.9807 11.8797 50.504 12.446 49.7096 12.7697C48.9151 13.0933 48.1207 13.0124 47.8824 12.6887C47.644 12.2842 48.1207 11.7178 48.9151 11.3942C49.7096 10.9897 50.504 11.0706 50.7423 11.4751Z" fill="#FF9E0C"/>
<path d="M41.0502 13.7406C41.2885 14.1451 40.8119 14.7115 40.0174 15.0351C39.223 15.3588 38.4286 15.2778 38.1902 14.9542C37.9519 14.5497 38.4286 13.9833 39.223 13.6597C40.0174 13.336 40.8913 13.336 41.0502 13.7406Z" fill="#FF9E0C"/>
<path d="M51.3781 17.0579C51.6164 17.4624 51.1398 18.0288 50.3453 18.3524C49.5509 18.6761 48.7564 18.5952 48.5181 18.2715C48.2798 17.867 48.7564 17.3006 49.5509 16.977C50.3453 16.5724 51.1398 16.6533 51.3781 17.0579Z" fill="#FF9E0C"/>
<path d="M60.0375 12.446C60.2758 12.8506 59.7992 13.4169 59.0047 13.7406C58.2103 14.0642 57.4159 13.9833 57.1775 13.6597C56.9392 13.2551 57.4159 12.6887 58.2103 12.3651C59.0047 12.0415 59.8786 12.0415 60.0375 12.446Z" fill="#FF9E0C"/>
<path d="M45.4198 8.64335C45.6582 9.04789 45.1815 9.61426 44.3871 9.93789C43.5926 10.2615 42.7982 10.1806 42.5599 9.85698C42.3215 9.45244 42.7982 8.88607 43.5926 8.56244C44.4665 8.2388 45.261 8.2388 45.4198 8.64335Z" fill="#FF9E0C"/>
<path d="M43.5131 19.8087C43.5925 20.2133 42.957 20.6987 42.0831 20.8606C41.2092 21.0224 40.4148 20.7796 40.3353 20.2942C40.2559 19.8896 40.8914 19.4042 41.7653 19.2424C42.6392 19.0806 43.4336 19.3233 43.5131 19.8087Z" fill="#FF9E0C"/>
<path d="M59.5607 19.9706C59.7991 20.3751 59.3224 20.9415 58.5279 21.2651C57.7335 21.5888 56.9391 21.5079 56.7007 21.1842C56.4624 20.7797 56.9391 20.2133 57.7335 19.8897C58.5279 19.4851 59.3224 19.5661 59.5607 19.9706Z" fill="#FF9E0C"/>
<path d="M51.4573 21.9933C51.6162 22.3979 51.0601 22.9643 50.1862 23.207C49.3918 23.4497 48.5179 23.2879 48.4384 22.8833C48.2795 22.4788 48.8357 21.9124 49.7095 21.6697C50.5834 21.427 51.3778 21.5888 51.4573 21.9933Z" fill="#FF9E0C"/>
<path d="M65.7573 14.5497C66.0751 14.7115 65.9162 15.3588 65.519 16.006C65.1218 16.7342 64.5657 17.1388 64.2479 17.0579C63.9301 16.896 64.089 16.2488 64.4862 15.6015C64.9629 14.8733 65.519 14.3879 65.7573 14.5497Z" fill="#FF9E0C"/>
<path d="M95.2311 56.4606C94.5161 80.976 76.0056 84.8597 52.3313 84.8597C28.657 84.8597 10.3848 81.3806 9.43151 56.4606C8.3193 28.0615 28.657 28.1424 52.3313 28.1424C76.0851 28.1424 96.2639 21.7506 95.2311 56.4606Z" fill="#DC78AD"/>
<path d="M9.43148 53.2242C12.212 56.6224 15.072 44.8097 16.1842 49.4215C18.9648 60.587 12.3709 67.1406 22.1425 68.5161C28.6569 69.487 29.9281 61.3152 30.1664 58.1597C30.4842 55.0042 35.0919 59.3733 38.2697 59.2115C45.1813 58.9688 36.9986 74.6652 48.3591 71.267C52.4107 70.0533 53.0463 69.0824 53.2052 63.257C53.4435 57.4315 58.7663 59.5352 58.369 64.3088C57.9718 69.0824 59.0046 80.0052 48.2002 80.7333C48.2002 80.7333 63.5329 85.4261 76.0056 80.7333C83.235 77.9824 89.5111 76.6879 92.53 69.3252C94.2778 65.037 95.6283 59.5352 95.1516 49.907C95.0722 47.8033 94.1189 44.4861 93.96 42.0588C91.6561 9.69514 -3.59735 37.0424 9.43148 53.2242Z" fill="#C4498A"/>
<path d="M52.1065 6.16216C21.6853 5.48094 7.3881 17.213 6.11724 28.6423C5.08466 37.4225 5.95838 51.3496 8.73838 50.744C11.439 50.1385 13.8218 41.9639 15.8075 42.4181C17.7933 42.9479 18.5081 53.0905 18.4287 55.2855C18.2698 57.5562 17.2373 61.7192 20.6527 62.2491C24.0681 62.7789 25.7361 59.7513 25.339 56.9507C24.9418 54.0744 26.1333 46.8838 28.7544 47.4137C31.3756 47.9435 30.8196 50.6684 32.7259 51.8037C37.9682 55.0584 42.8133 51.9551 42.8133 58.0861C42.8133 59.8269 42.575 65.0496 45.6727 64.6712C48.7705 64.2927 50.9945 62.5518 50.7562 58.3131C50.5179 54.0744 52.3447 50.5927 55.4425 49.7601C58.5402 48.9275 64.0208 54.3015 62.9882 59.6756C60.6053 72.1645 68.5482 70.1209 68.2305 66.7148C67.8333 63.3844 66.4831 52.4092 68.2305 49.6844C70.0574 46.9595 73.1551 42.5694 76.8882 47.7921C81.7334 54.5286 77.4194 54.9735 81.5497 61.3315C82.7411 63.0724 86.0593 60.8109 85.5828 58.3131C82.3262 41.0556 86.4197 41.0556 89.3585 38.8606C92.218 36.7412 92.5357 47.338 94.9185 48.2463C97.3808 49.0788 97.4603 49.0032 98.1751 42.2667C101.035 14.034 81.9717 6.91906 52.1065 6.16216Z" fill="#511F14"/>
<path d="M52.6492 80.8142C32.2321 80.8142 14.9133 75.7978 12.2122 69.406C15.1516 80.5715 31.8348 85.5878 52.1725 85.5878C72.9869 85.5878 89.7496 80.2478 92.5301 69.3251C89.5113 75.636 72.6691 80.8142 52.6492 80.8142Z" fill="#511F14"/>
<path d="M15.072 17.1388C5.4593 27.0906 8.71651 38.9033 12.4504 36.7188C16.1843 34.5342 17.6937 33.4824 19.2031 36.7997C21.1892 41.1688 22.222 42.5442 27.8625 41.4115C34.377 40.036 36.7603 45.0524 39.8586 46.1851C42.9569 47.3179 44.0691 54.276 46.2936 54.3569C48.518 54.4379 49.3124 48.5315 50.9013 46.6706C52.4902 44.7288 58.6868 43.8388 60.2757 47.0751C61.8646 50.2306 62.7385 55.2469 64.2479 51.9297C65.8368 48.5315 72.4307 38.7415 77.9918 43.3533C83.5528 47.9651 83.9501 41.6542 85.6184 39.3888C87.2867 37.1233 91.2589 31.7024 93.0861 35.2624C94.7545 38.6606 99.8389 26.1197 88.24 17.2197C67.1079 0.795123 24.6848 7.18694 15.072 17.1388Z" fill="#6B2E26"/>
<path opacity="0.15" d="M91.1001 23.6115C91.1001 32.026 73.4635 38.8224 51.7753 38.8224C30.0076 38.8224 12.4505 32.026 12.4505 23.6115C12.371 15.1969 30.0076 8.40057 51.7753 8.40057C73.4635 8.40057 91.1001 15.1969 91.1001 23.6115Z" fill="white"/>
<path d="M49.6304 38.337C49.7098 39.3888 35.6482 38.0942 25.5588 34.9388C18.6472 32.7542 11.1794 26.3624 12.53 24.7442C13.8805 23.1261 15.39 29.437 27.1477 33.4824C36.6015 36.7188 49.5509 37.2852 49.6304 38.337Z" fill="#9A716B"/>
<path opacity="0.4" d="M13.5626 32.2688C13.086 33.4015 11.7354 33.9679 11.0999 33.4824C10.1465 32.7542 9.82876 31.6215 10.3054 30.4888C10.7821 29.356 12.0532 29.1133 12.7682 29.4369C13.5626 29.7606 14.0393 31.136 13.5626 32.2688Z" fill="#FFE4B6"/>
<path d="M12.6887 55.5706C14.2776 55.5706 13.1654 64.956 17.4554 68.5969C25.3998 75.3933 40.3353 75.1506 40.0969 77.4969C39.8586 79.9242 18.8854 76.2833 14.4365 70.1342C10.226 64.3896 11.0998 55.5706 12.6887 55.5706Z" fill="#FFB8BD"/>
<path opacity="0.2" d="M54.238 29.8415C38.8258 29.8415 26.2737 24.3396 26.2737 17.6242C26.2737 14.4687 28.9748 12.2842 33.5031 10.8278C24.4464 13.0124 18.4087 16.896 18.4087 21.2651C18.4087 28.0615 32.7086 33.5633 50.4247 33.5633C66.8696 33.5633 80.4545 28.7896 82.2023 22.6406C76.5618 26.8478 65.2013 29.8415 54.238 29.8415Z" fill="white"/>
<path opacity="0.6" d="M89.9878 55.4088C89.9878 56.2988 89.67 57.1079 89.1934 57.1079C88.7961 57.1079 88.3989 56.3797 88.3989 55.4088C88.3989 54.5188 88.7167 53.7097 89.1934 53.7097C89.67 53.7097 89.9878 54.5188 89.9878 55.4088Z" fill="#FF9FA6"/>
<path opacity="0.6" d="M88.9551 62.7714C88.9551 63.2569 88.5578 63.6614 88.0812 63.6614C87.6045 63.6614 87.2073 63.2569 87.2073 62.7714C87.2073 62.2859 87.6045 61.8814 88.0812 61.8814C88.5578 61.8005 88.9551 62.205 88.9551 62.7714Z" fill="#FF9FA6"/>
<path opacity="0.6" d="M77.9917 59.616C77.9917 60.1014 77.5945 60.506 77.1973 60.506C76.7206 60.506 76.4028 60.1014 76.4028 59.616C76.4028 59.1305 76.8 58.8069 77.1973 58.8069C77.5945 58.8069 77.9917 59.1305 77.9917 59.616Z" fill="#FF9FA6"/>
<path opacity="0.6" d="M74.2587 56.9464C74.2587 57.1084 74.1792 57.1895 74.02 57.1895C73.8608 57.1895 73.7812 57.1084 73.7812 56.9464C73.7812 56.7844 73.8608 56.7034 74.02 56.7034C74.0996 56.7034 74.2587 56.7844 74.2587 56.9464Z" fill="#FF9FA6"/>
<path opacity="0.6" d="M75.6086 63.6615C75.6086 64.1469 75.2114 64.6324 74.6552 64.6324C74.1786 64.6324 73.7019 64.2278 73.7019 63.6615C73.7019 63.176 74.0991 62.6906 74.6552 62.6906C75.2114 62.7715 75.6086 63.176 75.6086 63.6615Z" fill="#FF9FA6"/>
<path opacity="0.6" d="M74.5771 60.1015C74.5771 60.3442 74.4179 60.506 74.1792 60.506C73.9404 60.506 73.7812 60.3442 73.7812 60.1015C73.7812 59.8587 73.9404 59.6969 74.1792 59.6969C74.3383 59.616 74.5771 59.8587 74.5771 60.1015Z" fill="#FF9FA6"/>
<path opacity="0.6" d="M77.9933 56.7034C77.9933 56.9461 77.8342 57.1079 77.5954 57.1079C77.3567 57.1079 77.1975 56.9461 77.1975 56.7034C77.1975 56.4606 77.3567 56.2988 77.5954 56.2988C77.8342 56.2988 77.9933 56.4606 77.9933 56.7034Z" fill="#FF9FA6"/>
<path opacity="0.6" d="M60.9114 76.6879C60.9114 77.1733 60.5142 77.497 60.1169 77.497C59.6403 77.497 59.3225 77.0924 59.3225 76.6879C59.3225 76.2024 59.7197 75.8788 60.1169 75.8788C60.5142 75.8788 60.9114 76.2024 60.9114 76.6879Z" fill="#FF9FA6"/>
<path opacity="0.6" d="M60.9113 72.3997C60.9113 72.7234 60.673 72.9661 60.3552 72.9661C60.0374 72.9661 59.7991 72.7234 59.7991 72.3997C59.7991 72.0761 60.0374 71.8334 60.3552 71.8334C60.673 71.8334 60.9113 72.0761 60.9113 72.3997Z" fill="#FF9FA6"/>
<path opacity="0.6" d="M62.422 74.9078C62.422 75.1506 62.2629 75.3124 62.0241 75.3124C61.7854 75.3124 61.6262 75.1506 61.6262 74.9078C61.6262 74.6651 61.7854 74.5033 62.0241 74.5033C62.2629 74.5842 62.422 74.746 62.422 74.9078Z" fill="#FF9FA6"/>
<path d="M35.1714 63.4187C35.1714 63.8233 34.8537 64.1469 34.4565 64.1469C34.0592 64.1469 33.7415 63.8233 33.7415 63.4187C33.7415 63.0142 34.0592 62.6906 34.4565 62.6906C34.8537 62.7715 35.1714 63.0951 35.1714 63.4187Z" fill="#FF9FA6"/>
<path d="M35.1725 67.2219C35.1725 67.3839 35.0134 67.5459 34.8542 67.5459C34.6951 67.5459 34.5359 67.3839 34.5359 67.2219C34.5359 67.0599 34.6951 66.8978 34.8542 66.8978C35.0134 66.8978 35.1725 67.0599 35.1725 67.2219Z" fill="#FF9FA6"/>
<path d="M37.8726 64.3897C37.8726 64.7943 37.5548 65.1179 37.1576 65.1179C36.7604 65.1179 36.4426 64.7943 36.4426 64.3897C36.4426 63.9852 36.7604 63.7425 37.1576 63.7425C37.5548 63.6616 37.8726 63.9852 37.8726 64.3897Z" fill="#FF9FA6"/>
<path d="M33.0264 66.0079C33.0264 66.4934 32.6292 66.817 32.2319 66.817C31.7553 66.817 31.4375 66.4125 31.4375 66.0079C31.4375 65.5225 31.8347 65.1988 32.2319 65.1988C32.6292 65.1179 33.0264 65.5225 33.0264 66.0079Z" fill="#FF9FA6"/>
<path d="M37.3165 71.1051C37.3165 71.5097 36.9987 71.8333 36.6015 71.8333C36.2043 71.8333 35.8865 71.5097 35.8865 71.1051C35.8865 70.7006 36.2043 70.377 36.6015 70.377C36.9987 70.4579 37.3165 70.7815 37.3165 71.1051Z" fill="#FF9FA6"/>
<path d="M15.5487 54.8424C15.5487 55.166 15.3104 55.4087 14.9926 55.4087C14.6749 55.4087 14.4365 55.166 14.4365 54.8424C14.4365 54.5187 14.6749 54.276 14.9926 54.276C15.3104 54.3569 15.5487 54.5996 15.5487 54.8424Z" fill="#FF9FA6"/>
<path d="M16.0254 57.9978C16.0254 58.4024 15.7076 58.8069 15.231 58.8069C14.8337 58.8069 14.4365 58.4833 14.4365 57.9978C14.4365 57.5933 14.7543 57.1887 15.231 57.1887C15.7076 57.1887 16.0254 57.5933 16.0254 57.9978Z" fill="#FF9FA6"/>
<path d="M14.0407 54.1143C14.0407 54.357 13.8815 54.5188 13.6428 54.5188C13.404 54.5188 13.2449 54.357 13.2449 54.1143C13.2449 53.8715 13.404 53.7097 13.6428 53.7097C13.8019 53.7097 14.0407 53.9524 14.0407 54.1143Z" fill="#FF9FA6"/>
</g>
<path d="M63.8507 8.61766C63.8507 8.61766 63.2151 3.84402 71.1595 2.46857C71.1595 2.46857 69.5706 7.08039 68.9351 7.80857C68.379 8.53675 71.7156 6.99948 76.4028 8.61766C76.4028 8.61766 72.8278 12.0158 71.1595 12.1777C71.1595 12.1777 71.7951 14.0386 76.4028 14.6049C76.4028 14.6049 70.9212 20.2686 66.3929 14.524C61.7851 8.77948 63.374 10.7213 63.8507 8.61766Z" fill="#73A414"/>
<path opacity="0.3" d="M64.4067 8.05134C64.4067 8.05134 68.0612 5.78589 68.935 4.73407C69.8089 3.68225 66.6312 8.86043 67.3462 9.02225C68.0612 9.18407 72.9072 9.75043 74.1783 9.02225C75.5289 8.29407 71.795 12.5822 68.935 11.6922C66.0751 10.8022 71.7156 15.9804 73.3839 15.4141C75.1317 14.9286 64.4862 19.945 64.4067 8.05134Z" fill="black"/>
<path d="M68.935 18.6503C68.935 24.4758 63.93 27.4694 54.7145 27.4694C45.499 27.4694 34.2974 26.1749 34.2974 20.3494C34.2974 14.524 45.499 3.92486 54.7145 3.92486C63.93 3.84396 68.935 12.744 68.935 18.6503Z" fill="#D50506"/>
<path opacity="0.2" d="M55.7482 5.38128C55.7482 5.38128 67.1087 11.6922 60.0381 18.5695C53.0471 25.4467 36.046 22.0486 35.7282 19.2167C35.4105 16.3849 31.9944 23.9904 40.8127 26.0131C49.7104 27.9549 67.9031 29.4922 68.777 19.7831C69.7303 10.1549 59.2437 4.6531 55.7482 5.38128Z" fill="#BF0D0E"/>
<path opacity="0.4" d="M59.7989 13.4723C60.1167 16.7086 57.2567 18.5695 51.6162 19.055C46.0551 19.5404 39.1435 19.3786 38.8257 16.2232C38.5079 12.9868 44.7046 6.6759 50.2656 6.19045C55.9062 5.70499 59.4812 10.3168 59.7989 13.4723Z" fill="#FF9E0C"/>
<path opacity="0.2" d="M54.1584 11.4495C54.3173 13.3913 52.6489 14.524 49.3123 14.7668C45.9756 15.0095 41.8445 14.9286 41.6857 13.0677C41.4473 11.1259 45.1812 7.32313 48.5178 7.0804C51.8545 6.83767 53.9995 9.58858 54.1584 11.4495Z" fill="#FFF7EF"/>
<path d="M49.7177 10.0884C49.9561 10.4929 49.4 11.1402 48.5261 11.5448C47.6522 11.9493 46.7783 11.8684 46.54 11.4638C46.3016 10.9784 46.8577 10.3311 47.7316 10.0075C48.6055 9.60294 49.4794 9.68385 49.7177 10.0884Z" fill="#FF9E0C"/>
</g>
<defs>
<filter id="filter0_d" x="1.69775" y="6.13385" width="100.76" height="87.454" filterUnits="userSpaceOnUse" color-interpolation-filters="sRGB">
<feFlood flood-opacity="0" result="BackgroundImageFix"/>
<feColorMatrix in="SourceAlpha" type="matrix" values="0 0 0 0 0 0 0 0 0 0 0 0 0 0 0 0 0 0 127 0"/>
<feOffset dy="4"/>
<feGaussianBlur stdDeviation="2"/>
<feColorMatrix type="matrix" values="0 0 0 0 0 0 0 0 0 0 0 0 0 0 0 0 0 0 0.25 0"/>
<feBlend mode="normal" in2="BackgroundImageFix" result="effect1_dropShadow"/>
<feBlend mode="normal" in="SourceGraphic" in2="effect1_dropShadow" result="shape"/>
</filter>
<clipPath id="clip0">
<rect width="105" height="91.8794" fill="white" transform="translate(0 0.390564)"/>
</clipPath>
</defs>
</svg>
