<svg width="90" height="98" viewBox="0 0 90 98" fill="none" xmlns="http://www.w3.org/2000/svg">
<g clip-path="url(#clip0)">
<path d="M15.4056 28.0121C16.0065 28.1172 16.3228 28.3908 17.05 28.1906C17.0076 27.6012 17.1233 27.1486 16.7857 26.5803C16.6169 26.2962 16.4587 26.1594 16.2899 25.8753C16.2793 25.7279 16.9959 25.3804 16.6583 24.8122C16.6158 24.2228 16.7209 23.6228 16.6784 23.0334C16.8366 23.1702 17.0054 23.4543 17.3005 23.4332C17.6063 23.5594 18.0914 24.1171 18.5023 23.6434C18.618 23.1907 18.6488 21.5593 19.0277 20.6436C19.1753 20.633 19.3229 20.6224 19.618 20.6013C19.7337 20.1487 19.7019 19.7067 20.1233 19.3803C20.4185 19.3591 20.7242 19.4853 21.0088 19.3169C20.9557 18.5801 20.7125 17.2645 20.7858 16.2225C20.9333 16.212 21.0809 16.2014 21.376 16.1803C21.7869 15.7065 22.0289 14.9486 22.5873 14.4643C22.7137 14.1591 22.3867 13.7381 22.8081 13.4117C23.2508 13.38 23.7042 13.4957 24.2838 13.3061C24.252 12.864 24.0301 11.8432 23.9663 10.9591C24.4197 11.0748 24.8836 11.3378 25.3369 11.4534C25.3051 11.0114 25.2732 10.5693 25.3889 10.1167C25.6841 10.0956 25.9792 10.0744 26.4325 10.1901C26.4113 9.89536 26.3794 9.45334 26.5058 9.14808L28.0345 9.77916C28.3615 10.2001 28.3934 10.6421 29.2894 10.726C29.2469 10.1366 29.215 9.6946 29.1832 9.25255C29.4783 9.23142 30.0898 9.48386 30.6695 9.29424C30.3106 8.43129 29.8467 8.16829 30.0675 7.11572C30.3733 7.24194 30.8159 7.21026 31.1323 7.48383C31.0898 6.89444 31.2056 6.44181 31.1631 5.85242C31.4795 6.12599 32.091 6.37839 32.418 6.7993L32.4381 5.02058C32.902 5.28358 33.0708 5.56771 33.8193 5.66222C33.7874 5.22018 33.4605 4.79928 33.7237 4.3361C34.0295 4.46232 34.1983 4.74643 34.641 4.71473C35.0412 4.09364 35.1675 3.78836 35.7047 3.00936L35.6421 4.19874C35.7897 4.18817 35.9478 4.32491 36.243 4.30378C36.4118 4.58791 36.7494 5.15621 36.9288 5.58768C37.2027 5.27186 37.6029 4.65074 37.8768 4.33491C37.8768 4.33491 38.2463 5.3452 38.2675 5.6399C38.5308 5.17672 38.9523 4.85034 39.3631 4.3766C39.8164 4.49225 39.8271 4.6396 40.4067 4.44999C40.533 4.14473 40.5012 3.70266 40.6275 3.3974C41.0702 3.3657 41.4078 3.93397 41.8187 3.46023C41.808 3.31288 41.9344 3.00763 41.9237 2.86028C42.2189 2.83914 42.6616 2.80745 42.9673 2.93367C43.3676 2.31258 43.4833 1.85996 44.0311 1.2283C44.2423 2.10182 44.1479 2.8491 44.5067 3.71206C44.8125 3.83827 45.0864 3.52246 45.2658 3.95394C45.4346 4.23807 45.4558 4.53277 45.6246 4.8169C45.9091 4.64842 46.0355 4.34313 46.4782 4.31143C46.6257 4.30086 47.1003 4.71124 47.543 4.67954C47.6693 4.37427 47.6375 3.93222 48.0695 3.75317C48.3647 3.73204 48.6704 3.85825 48.8074 3.70034C48.9443 3.54242 49.1758 2.63719 49.766 2.59492C49.766 2.59492 50.1249 3.45788 50.7151 3.41562L51.3054 3.37335C51.3372 3.8154 51.2215 4.26803 51.3903 4.55216C51.8224 4.37312 51.9488 4.06783 52.539 4.02556C52.8129 3.70973 52.9286 3.25711 53.2131 3.08863C53.3713 3.22541 53.5614 3.80427 53.9935 3.62522C54.278 3.45674 54.5625 3.28823 54.8364 2.9724C55.1315 2.95126 54.52 2.69883 55.4266 2.93013L55.3959 4.56154L55.9861 4.51927C56.4182 4.34022 56.8397 4.01382 57.5988 4.25568C57.8726 3.93985 58.3047 3.76084 58.2729 3.3188C58.7687 4.02384 58.653 4.47641 59.9598 4.08662C60.2337 3.77079 60.6446 3.29704 61.2348 3.25478C61.393 3.39156 61.5618 3.67571 61.7094 3.66515C62.3941 2.87557 62.6362 2.11769 63.511 1.90694C63.5322 2.20164 63.8486 2.47522 63.7328 2.92783C64.4388 2.43296 64.9972 1.94862 66.009 1.57996L66.5992 1.53769C67.0419 1.50599 67.5165 1.91634 67.938 1.58995C68.0749 1.43203 68.2012 1.12678 68.3382 0.968865C68.4858 0.958298 68.9497 1.22131 69.5293 1.03169C70.109 0.842077 70.8362 0.641886 71.4371 0.746968C71.2163 1.79954 70.8161 2.42064 69.9837 3.22078C69.5517 3.39983 69.1196 3.57887 68.6981 3.90526L68.6249 4.94724C67.7501 5.15798 67.5707 4.72654 66.8965 5.66346L66.8233 6.70544C66.2543 7.0424 65.8222 7.22148 65.5801 7.97935C65.7383 8.11613 65.7383 8.11612 66.0653 8.53704C65.6545 9.01078 65.2542 9.63184 65.0122 10.3897C65.3286 10.6633 65.7713 10.6316 66.0983 11.0525C65.698 11.6736 65.5823 12.1262 64.6969 12.1896C65.1609 12.4526 65.7405 12.263 65.9412 12.9892C66.3839 12.9575 66.6684 12.789 67.1217 12.9046C66.9954 13.2099 66.5739 13.5363 66.9115 14.1045L66.7438 15.8939C66.6281 16.3465 66.5017 16.6517 66.386 17.1043L67.5772 17.1672L67.6303 17.9039C68.2205 17.8616 68.8108 17.8194 69.4223 18.0718C69.1484 18.3876 69.0433 18.9876 68.4531 19.0298C68.4637 19.1772 68.9276 19.4402 68.6643 19.9034L68.0008 20.9877C68.1802 21.4191 68.7918 21.6716 68.7079 22.5662C68.7079 22.5662 68.0125 23.2084 67.4223 23.2507C68.0125 23.2084 68.4446 23.0294 69.0561 23.2818C69.0773 23.5765 69.2568 24.008 69.1304 24.3132C69.7419 24.5657 70.3534 24.8181 71.1019 24.9126C70.6804 25.239 69.9745 25.7339 69.2579 26.0814C69.5636 26.2077 69.9851 25.8812 70.1751 26.4601C69.6061 26.797 69.174 26.9761 68.7632 27.4498L69.501 27.397C68.8056 28.0392 68.3842 28.3656 67.3831 28.8816C67.6888 29.0078 68.3842 28.3656 68.3109 29.4076C67.7525 29.8919 67.3417 30.3657 67.2472 31.113C67.5529 31.2392 67.4585 31.9865 68.0169 31.5022C67.743 31.818 67.1952 32.4497 66.6049 32.4919C66.6155 32.6393 67.364 32.7338 67.0901 33.0497C66.8056 33.2181 66.3841 33.5445 65.9626 33.8709C66.7217 34.1128 67.4808 34.3546 68.208 34.1545C67.0912 35.1231 66.3013 36.5126 64.8257 36.6183C64.9945 36.9024 65.3108 37.176 65.3427 37.618C64.9212 37.9444 64.4998 38.2708 63.9307 38.6078C63.9414 38.7551 64.5741 39.3023 64.3108 39.7654C63.4254 39.8288 62.3818 39.7554 61.4858 39.6715C61.6652 40.103 62.1186 40.2186 61.8659 40.8292L59.7893 40.8297C59.8106 41.1244 60.5484 41.0716 59.99 41.5559L59.284 42.0508C59.1577 42.356 59.4847 42.777 59.0526 42.956C58.1778 43.1667 57.6194 43.6511 56.5652 43.4303C56.1119 43.3147 55.6904 43.6411 55.3953 43.6622C55.459 44.5463 56.165 44.0514 56.4707 44.1776C57.0504 43.988 57.5249 44.3984 57.5249 44.3984C57.2723 45.0089 56.3975 45.2196 56.2499 45.2302C55.976 45.546 56.1448 45.8302 56.1767 46.2722C55.8922 46.4407 55.4494 46.4724 55.0174 46.6514C54.3539 47.7357 55.0386 46.9461 54.9335 47.5461C54.0906 48.1989 53.1839 47.9676 52.151 48.0416C52.1722 48.3363 52.1934 48.631 52.2147 48.9257C51.9302 49.0941 51.6351 49.1152 51.3505 49.2837C51.1085 50.0416 50.9291 49.6101 50.5076 49.9365C49.6222 49.9999 48.7156 49.7686 47.8195 49.6847C47.7463 50.7267 48.4735 50.5265 48.8005 50.9474C48.3684 51.1265 47.9257 51.1582 47.4937 51.3372C44.4361 50.0751 46.9352 51.8215 46.6507 51.99C46.3662 52.1585 46.0605 52.0323 45.6178 52.064C45.6284 52.2113 45.639 52.3587 45.6602 52.6533C45.0912 52.9903 44.4903 52.8852 43.7525 52.9381C43.5104 53.6959 44.1326 54.0957 44.3014 54.3799C43.606 55.0221 42.71 54.9381 41.6876 55.1594C41.5613 55.4647 41.7301 55.7488 41.8989 56.033C41.3086 56.0752 40.7078 55.9701 40.2651 56.0018C40.2863 56.2965 40.3181 56.7386 40.3394 57.0333C39.4646 57.244 38.7162 57.1495 37.8308 57.2129C37.8626 57.655 38.179 57.9285 38.3478 58.2126C38.5272 58.6441 38.6854 58.7809 38.8542 59.065C38.2745 59.2546 37.8212 59.139 37.3785 59.1707C37.094 59.3392 37.4104 59.6127 37.421 59.7601C36.9783 59.7918 35.9347 59.7184 35.7871 59.729C35.819 60.171 35.8296 60.3184 35.8615 60.7604C35.4188 60.7921 34.3752 60.7187 34.2276 60.7293C33.8168 61.203 33.975 61.3398 34.165 61.9187C33.7435 62.2451 33.2902 62.1294 32.8475 62.1611C32.8581 62.3085 32.7318 62.6137 32.7424 62.7611C32.3316 63.2348 31.8782 63.1192 31.4249 63.0035C31.1617 63.4667 31.615 63.5823 31.7838 63.8664C31.5099 64.1823 30.772 64.2351 30.772 64.2351C30.5088 64.6983 30.5725 65.5824 30.5831 65.7297C29.7189 66.0878 28.9492 65.6986 28.2008 65.6041C28.0957 66.2041 28.4227 66.625 28.6127 67.2038C28.3495 67.667 28.0331 67.3934 27.7486 67.5619C27.6328 68.0145 27.359 68.3303 27.2432 68.7829C27.0744 68.4988 26.5786 67.7938 26.5786 67.7938C26.4735 68.3938 26.1784 68.4149 25.9151 68.878C25.3249 68.9203 25.0085 68.6468 24.7027 68.5206C23.9649 68.5734 23.3747 68.6156 22.6368 68.6685C22.4468 68.0896 22.2886 67.9528 21.814 67.5425C20.6229 67.4797 19.8213 66.6485 19.3362 66.0908C18.093 67.3647 17.6195 69.0277 17.1248 70.3961C16.5346 70.4384 15.4485 69.7756 15.301 69.7862C16.3541 67.9335 16.6481 65.8389 17.87 64.2703C16.2574 64.5339 15.0026 63.587 13.7583 62.7875C14.2116 62.9031 14.338 62.5978 14.6225 62.4294C13.2519 61.9351 13.1776 60.9036 12.6393 59.6092C12.428 58.7357 11.7635 57.7465 11.5734 57.1677C11.8579 56.9992 11.9843 56.6939 12.2688 56.5254C11.636 55.9783 11.1296 55.1259 10.792 54.5577C11.2453 54.6733 11.3611 54.2207 11.6456 54.0522C11.0022 53.3578 10.7909 52.4842 10.7166 51.4528C10.8748 51.5896 11.1805 51.7158 11.3387 51.8526C11.1487 51.2738 10.9587 50.6949 10.6317 50.274C11.0638 50.095 11.3695 50.2212 11.8122 50.1895C11.1901 49.7897 10.6837 48.9373 10.3567 48.5164C10.7994 48.4847 11.2527 48.6003 11.6954 48.5686C11.0414 47.7268 10.5563 47.1691 10.3237 46.0009C10.6189 45.9798 10.914 45.9587 11.0616 45.9481C11.0191 45.3587 10.5446 44.9484 10.2176 44.5275C10.1963 44.2328 10.3333 44.0748 10.4596 43.7696C10.4171 43.1802 10.3959 42.8855 10.2165 42.454C10.6698 42.5696 11.1337 42.8327 11.5871 42.9483C10.6486 42.275 10.8481 40.9277 10.9108 39.7383C10.8577 39.0016 10.8152 38.4122 10.7727 37.8228C10.7196 37.0861 10.9617 36.3282 11.0562 35.5809C11.5095 35.6965 12.0159 36.5489 12.1741 36.6857C12.2685 35.9384 12.3736 35.3385 12.4787 34.7385C12.7632 34.57 13.069 34.6962 13.3641 34.6751C13.311 33.9384 13.2686 33.3489 13.363 32.6016C13.6475 32.4331 13.9533 32.5594 14.2484 32.5382C13.8896 31.6753 13.9841 30.928 13.9204 30.0439C14.8164 30.1278 14.9002 29.2332 14.9947 28.4859C14.931 27.6018 15.2474 27.8753 15.4056 28.0121Z" fill="url(#paint0_radial)"/>
<path d="M62.9392 37.1977C58.1969 39.3146 53.0427 39.8317 48.5531 41.3381C49.5989 45.5583 51.6106 42.6002 53.15 43.3787C50.3993 44.3162 47.0467 43.0752 44.348 42.676C40.66 45.0135 36.56 45.7514 32.4388 46.1946C31.3432 47.458 30.5534 48.8475 29.616 50.2476C32.958 51.3412 35.4974 49.5302 38.4275 49.0242L50.7486 47.1052C46.8387 48.4219 42.6018 49.3177 38.8182 50.3292C40.8735 50.0339 42.5498 50.6544 44.0785 51.2855C39.2927 50.7395 34.0228 51.7093 30.735 53.4258C31.1363 54.8782 32.5068 55.3724 33.4666 56.3405C31.3911 58.4145 28.2179 57.605 25.7836 58.816C24.4874 59.3532 24.119 60.4163 23.4449 61.3532C25.6902 61.6368 27.5767 61.0574 29.6427 60.9094C26.7031 63.3415 21.8865 64.4269 19.3035 63.5751C18.5306 56.9657 29.2539 43.1643 34.2796 38.8056C37.1459 37.4155 37.3657 34.2895 39.6205 32.6469C42.7183 30.3516 43.7703 26.4255 46.5836 24.2986C49.2706 22.477 50.5233 19.2771 52.0084 17.2453C53.4204 16.2556 53.7994 15.3398 54.7474 14.0871C58.5299 11.0022 61.9111 6.46497 66.0525 4.24303C61.4897 6.79137 59.8899 11.3491 56.6031 15.1391C58.7423 13.9491 61.5036 13.159 63.5376 12.569C58.669 14.9911 54.3387 18.7077 50.6825 21.4873C55.4354 19.5178 60.6947 18.4007 64.5621 16.4945C56.6679 18.0966 49.4946 27.6448 44.0676 30.5512C51.8037 28.8124 58.0831 23.3271 64.9125 21.357C56.4302 27.1482 49.6125 31.339 40.9497 34.6253C39.422 36.0676 33.8273 40.7634 37.6853 40.7833C46.4129 40.4546 54.4642 36.9159 62.9392 37.1977Z" fill="url(#paint1_radial)"/>
<path d="M68.1615 25.2717C65.6008 26.788 62.3341 28.7993 59.1938 30.5052C59.9529 30.7471 60.3637 30.2734 61.0177 31.1152C58.6566 31.2843 56.6119 31.7269 54.5991 32.6115C51.7432 34.149 47.9808 35.4552 44.8299 37.0138C42.0685 37.804 39.4441 38.4362 36.7465 40.1105C37.8092 36.3317 47.8959 34.2764 50.6656 29.4867C52.8579 29.0335 55.0927 29.1697 57.4325 28.7059C60.3202 27.6105 63.8501 25.1361 66.1995 22.7462L66.1794 24.5249C67.0966 24.9036 67.5181 24.5772 68.1615 25.2717ZM67.3915 4.29517C64.662 5.52738 62.0281 8.08575 59.3624 10.2021C57.8666 12.0865 57.1298 14.2128 54.3578 14.8556C53.1996 17.3083 51.2929 19.6665 49.0593 21.6038C47.7853 24.5091 45.626 27.4778 42.4963 29.3311C40.9697 32.8469 38.5258 35.9841 35.755 38.7004C34.3547 41.911 32.7962 44.9848 29.519 46.8487C28.2025 49.1646 27.2768 52.7855 24.094 53.9021C23.4411 55.1337 25.6133 56.4593 22.2829 57.5864C21.3455 58.9865 20.0716 61.8918 18.3857 63.1974C14.8228 63.1563 7.10353 56.896 12.8585 35.8966C14.7589 41.6849 16.2803 48.3891 20.9208 53.0925C20.9175 46.8721 17.3514 40.6106 17.4532 33.7903C17.4946 32.3062 17.5254 30.6748 18.1783 29.4432C18.8674 36.9474 20.0204 44.7147 24.198 51.2286C19.7762 41.3257 24.1235 29.6099 22.0309 19.0958C22.601 20.8323 23.3293 22.7056 24.4684 24.1051C24.4981 20.4003 23.0001 18.1378 22.8929 14.5908C23.3993 15.4432 23.8844 16.0009 24.6754 16.6848C25.0331 15.4743 25.2221 13.9797 25.7274 12.7586C26.8402 24.0834 22.03 37.6096 25.7151 49.6389C28.6611 39.0603 30.4997 27.5241 29.6821 16.1782C30.2724 16.1359 30.8839 16.3884 31.5899 15.8935L31.5994 13.9674C31.1874 12.3677 30.1959 10.9576 30.6481 8.99976C31.1227 9.41011 31.766 10.1046 32.3988 10.6517C32.6302 9.74647 32.714 8.85183 33.3988 8.06225C33.2779 18.7348 29.3733 30.4189 31.3502 41.3856C32.3089 40.2802 33.6678 38.5536 34.7634 37.2903C37.8887 27.1432 37.2718 16.5234 40.4502 7.11297C40.6403 7.69181 40.5033 7.84971 40.9885 8.40741C41.3781 7.63896 41.5883 6.43905 42.2731 5.64947C40.4121 14.8174 36.8122 24.5543 37.6712 34.4161C39.8411 31.5948 42.2319 27.7208 42.1873 22.9845C42.5036 23.2581 42.63 22.9528 42.8306 23.679C45.094 18.0368 47.1354 11.3738 48.1545 4.93208C47.3361 12.1 45.9168 19.1628 43.5908 25.9943C44.6131 25.773 45.3404 25.5728 46.3309 24.9095C46.3404 22.9833 45.8966 20.9416 46.8234 19.3941C46.8977 20.4255 46.8457 21.7623 47.6261 22.2988C50.0688 17.0882 50.3501 10.6993 53.3407 4.85697C52.9214 9.33029 50.2567 13.5201 50.6177 18.53C52.1667 17.3823 53.2941 16.561 53.7145 14.1611C54.0818 11.0245 55.5139 8.256 57.083 5.32955C56.3356 7.3085 55.6307 9.87683 56.117 12.508C56.3802 12.0448 57.0862 11.5499 57.1913 10.95C58.1287 9.54984 58.4653 8.04465 58.9494 6.52889C58.8443 7.12886 58.7498 7.87616 58.8029 8.61291C61.4793 6.64395 64.1875 5.11703 67.3915 4.29517ZM58.6542 6.55002C58.7593 5.95006 59.012 5.33953 59.1489 5.18162C59.0332 5.63423 58.7699 6.09741 58.6542 6.55002ZM66.1867 18.4519C64.6601 21.9677 61.6886 23.9579 57.4516 24.8537C53.2995 26.9283 48.6623 28.4453 44.9848 30.9302C48.9988 26.9401 54.9005 24.4439 59.336 20.1274C59.1045 21.0326 61.4869 21.1582 58.6098 22.401C61.645 21.295 63.6261 19.9682 66.1867 18.4519ZM65.4149 13.9158C62.6971 17.3688 59.2924 17.4645 55.4567 19.8127C53.8547 20.2236 51.9788 20.9504 50.5137 21.2034C51.3567 20.5506 52.3259 19.5925 53.3058 18.7818C57.9855 17.8543 61.7692 16.8428 65.4149 13.9158ZM64.8744 8.4744C62.7671 10.1064 60.8699 10.5385 59.6904 12.6965C61.5876 12.2644 63.0527 12.0114 64.7704 11.1478C62.094 13.1168 59.3752 14.4964 55.9079 15.7814C57.857 14.0126 59.7849 11.9491 61.3965 9.6121C62.7246 9.517 63.5781 9.01154 64.8744 8.4744Z" fill="#508A0F"/>
<path d="M44.1826 5.36561C43.4554 5.56579 43.1921 6.02896 42.3067 6.09235C41.433 8.37653 40.4012 10.5239 39.9808 12.9237C39.0859 14.9132 39.087 16.9866 38.3396 18.9655C37.8768 20.776 36.5859 31.6803 37.4618 33.543C37.3132 31.4801 38.0986 21.7969 39.4575 20.0704C40.1199 16.9127 40.3396 13.7867 41.8981 10.713C42.2664 9.64983 42.4979 8.7446 43.6465 8.21803L44.1826 5.36561ZM48.9047 5.02748C48.9058 7.10091 48.4217 8.61667 47.7794 9.99563C47.7073 13.111 43.8006 20.648 44.4769 23.858C44.7709 21.7634 46.5586 13.6376 49.5502 9.86883C49.7923 9.11096 50.0449 8.5004 50.287 7.74254C50.666 6.82675 51.2031 6.04777 51.1288 5.01634C50.2434 5.07974 49.5056 5.13256 48.9047 5.02748ZM59.2661 4.7299C58.5389 4.93008 58.0962 4.96177 57.3903 5.45664C57.0644 7.10916 56.5697 8.47755 56.3807 9.97215C56.6546 9.65633 57.4349 10.1929 57.6132 8.55094C58.1079 7.18255 58.6133 5.96151 59.2661 4.7299ZM54.4071 5.2259C54.0175 5.99434 53.596 6.32076 53.6597 7.20484C53.1438 8.27854 52.6279 9.35221 52.5759 10.6889C51.9973 12.9519 50.9442 14.8046 50.682 17.3412L51.1141 17.1622C51.9665 14.5834 52.7139 12.6044 53.8721 10.1518C54.2511 9.236 54.6195 8.17287 54.6927 7.13088C54.6927 7.13088 55.3562 6.0466 56.1046 6.14112C55.6195 5.58343 55.008 5.33098 54.4071 5.2259ZM33.8647 8.32604C33.972 11.8729 32.4359 17.3148 32.2469 18.8094C31.9529 20.904 31.3531 22.8723 30.7215 24.3986L30.7555 28.9875C30.1674 33.1766 30.1908 37.6182 31.6262 41.07C31.5826 38.4071 30.5262 34.0396 30.9561 29.7137C31.1759 26.5877 31.3022 26.2824 32.1334 23.4089C31.5739 21.8197 34.627 14.7882 34.8585 13.883C35.6897 11.0094 33.8647 8.32604 33.8647 8.32604Z" fill="url(#paint2_linear)"/>
<path d="M60.4611 30.1917C48.2044 27.8451 30.5748 43.7684 32.0859 57.848C32.2538 67.9048 39.8093 75.1122 46.0216 81.314C56.0957 89.527 73.7253 87.8509 83.9672 77.9617C92.698 65.3906 90.5153 48.294 86.1499 34.0468C85.6462 30.6945 67.345 30.5269 60.4611 30.1917Z" fill="url(#paint3_radial)"/>
<path d="M43.3352 35.8906C36.4512 41.4218 31.2463 49.9702 32.2537 57.8481C32.4216 67.9049 39.9772 75.1123 46.1895 81.314C56.2635 89.5271 73.8931 87.851 84.135 77.9617C86.9894 73.939 88.6684 69.4134 89.5079 64.7202C89.6758 62.8764 89.6758 60.8651 89.5079 58.8537C88.8363 66.2287 84.4708 73.9389 77.9227 77.7941C85.1424 70.5867 90.5153 52.3168 84.4708 42.26C81.1128 55.5015 76.9153 67.5697 60.461 71.2572C71.2067 65.3907 80.6091 51.9816 80.9449 39.4105C76.2437 51.3111 67.1771 64.7203 51.8981 65.7259C55.7598 62.7089 61.6363 60.027 63.4833 55.1662C58.4462 58.8537 52.9055 61.5355 46.6932 62.7088C54.7524 57.0099 63.9869 50.9759 68.8561 42.4276C60.2931 49.9702 50.387 54.9986 40.9845 61.2003C42.9994 54.3282 47.029 48.1264 52.7376 42.4276C47.8685 45.277 39.6413 53.4901 35.9475 58.1833C37.2907 53.4901 41.1525 45.1093 47.5327 40.0809C41.3204 42.0923 33.9327 52.652 33.9327 60.3623C34.2685 59.0214 33.7648 45.4446 45.8537 36.0582C44.8463 36.0582 44.0068 35.8906 43.3352 35.8906Z" fill="url(#paint4_radial)"/>
<path d="M60.1253 30.192C59.9574 30.192 59.9575 30.192 59.7896 30.192C60.4612 31.3653 60.9649 30.3596 61.8044 31.1977L67.1772 31.7005L62.3081 32.7062C63.1476 32.7062 65.834 33.3767 66.5056 33.0415C68.6883 32.371 70.5352 33.209 72.2142 33.7119C69.8636 34.7176 70.0315 34.8852 67.8488 35.5557L64.6587 37.7346C65.4982 37.3994 67.8488 36.8966 68.0167 36.8966C69.6957 37.0642 71.2068 36.2261 72.7179 35.8908C73.3895 35.5556 74.0611 35.3881 74.5648 35.2204C71.7105 36.2261 70.1994 36.8965 67.8488 39.2431C67.1772 40.0812 66.6735 39.746 66.1698 40.0812C68.0167 40.2488 69.192 39.9136 70.5352 39.2431C71.8784 38.9079 72.8858 38.9079 74.0611 38.5727L73.2216 39.2431C74.3969 39.0755 75.2364 38.7403 76.4117 38.405C76.9154 39.4107 76.2438 39.5784 76.2438 40.5841C76.9154 40.0813 77.2512 40.4164 78.0907 40.0812C79.0981 40.2488 79.9376 39.4107 80.4413 39.2431V43.0983C81.4487 43.4335 81.7845 42.4278 82.624 42.0926C82.1203 44.7744 83.1277 46.9534 83.1277 49.6352C82.9598 52.8199 80.945 55.5017 80.1055 58.1836C80.945 57.3455 82.2882 56.5074 83.1277 55.8369C82.7919 54.8313 83.2956 54.1608 83.2956 53.4903C84.8068 52.9875 85.1425 51.6465 85.982 50.138C85.8141 48.7971 86.3179 46.2829 86.4858 45.7801V48.7971C87.6611 50.4733 87.4932 52.3171 87.4932 54.496C88.3327 53.3227 88.8364 52.6523 89.3401 51.3113C89.3401 53.9932 89.6759 56.1722 90.1796 58.6864C90.5154 50.4733 88.6684 42.0926 86.3178 34.5499C85.8141 31.1977 67.513 31.0301 60.7969 30.6948C60.4611 30.192 60.2932 30.192 60.1253 30.192Z" fill="url(#paint5_radial)"/>
<path d="M59.2858 31.1974C52.4018 31.0298 46.6932 34.0468 42.4957 38.2372C45.35 37.3991 49.0438 35.2202 52.234 35.2202C50.7228 36.3935 48.708 37.0639 47.5327 39.0753C50.5549 37.3991 53.0734 35.8906 56.5994 35.8906C58.2784 34.7173 58.95 33.7116 61.3006 33.544C58.1105 33.544 55.2562 33.7116 52.234 34.5497C54.9204 33.8792 56.9352 33.2088 59.2858 31.1974ZM67.0092 40.2486C63.3154 42.2599 49.5475 50.1378 46.0216 57.3452C50.2191 51.814 59.7895 44.9418 67.0092 40.2486ZM77.0832 40.4162C73.2215 46.115 70.0314 50.1378 67.1771 56.3395C72.5499 52.9872 75.4042 46.6179 77.0832 40.4162ZM71.7104 41.5895C66.0018 46.6179 62.1401 53.9929 55.0883 58.8537C61.4685 54.831 70.5351 49.2997 71.7104 41.5895ZM55.0883 58.6861C54.2488 59.189 53.4092 59.6917 52.7376 60.1946C53.5771 59.8594 54.2488 59.3566 55.0883 58.6861ZM55.4241 42.26C49.3796 43.6009 44.8463 49.4673 42.1599 54.1605C45.6858 49.6349 52.4018 45.277 55.4241 42.26ZM57.9426 43.7684C50.387 46.6179 44.6784 53.3224 42.9994 58.5184C46.6932 53.9929 52.2339 48.1264 57.9426 43.7684ZM64.8265 45.277C57.271 49.1321 48.0364 55.669 42.6636 62.5412C46.0216 57.5128 54.7525 52.8196 64.8265 45.277Z" fill="#BC682A"/>
<path d="M57.1031 33.3764C52.0661 34.5497 45.1821 35.8906 42.3278 41.2543C44.1747 40.919 45.8538 39.9134 48.0365 39.4106C45.8538 40.5839 41.4883 45.4447 39.8093 49.4674C42.4957 46.7856 46.6933 41.9247 50.7229 40.7514C46.1896 44.1037 44.6785 46.9532 42.4957 49.9702C45.0143 47.456 46.5254 45.277 51.5624 43.7685C48.876 45.6122 44.5105 53.6577 44.3426 53.8253C47.197 48.4617 59.2858 40.2486 65.1623 37.3992C62.1401 37.5668 58.95 38.4048 56.4315 39.2429C58.1105 37.902 60.7969 36.3934 63.8191 35.0525C60.1253 35.3878 55.2562 37.064 53.2414 38.0697C55.2562 36.3935 60.1253 35.2202 63.3154 34.0469C61.4685 34.3821 59.7895 34.7174 57.9426 35.2202C58.7821 34.7174 62.6438 33.544 63.6512 33.3764C58.2784 33.0412 52.5698 35.723 49.7155 36.7287C51.7303 35.3878 54.7525 34.0468 57.1031 33.3764ZM66.1697 39.7458C62.8117 40.4163 54.2488 46.4504 50.3871 50.6407C56.7673 46.7856 61.4685 43.4333 66.1697 39.7458Z" fill="url(#paint6_radial)"/>
<path d="M79.4339 46.9531C75.908 50.9759 72.2142 55.8367 68.1846 60.3622C68.1846 60.1946 68.3525 60.027 68.3525 59.8594C62.4759 65.0555 52.234 67.7373 44.6785 70.4191C46.5254 69.581 48.0365 69.4134 49.3797 67.9049C56.7673 64.7202 64.6586 58.3508 68.6883 51.311C66.1698 54.9986 65.3303 56.5071 61.1327 58.1833C54.4167 61.8708 47.7007 66.7316 39.6415 66.2287C48.2044 60.1946 58.6142 57.6804 64.4907 48.1264C56.5994 53.9929 48.7081 59.5242 39.9773 63.7145C38.802 64.2174 37.7946 64.385 36.6193 65.3907C37.7946 59.6918 39.6415 54.831 42.9995 49.9702C39.4736 53.9929 35.7797 58.0156 34.4365 63.7145C34.1007 59.5242 34.2686 55.1662 34.2686 50.8082C33.2612 53.3224 32.5896 55.3338 32.0859 57.01C32.0859 57.3452 32.0859 57.5128 32.0859 57.848C32.2538 67.9049 39.8093 75.1123 46.0217 81.314C56.0957 89.5271 73.7253 87.8509 83.9672 77.9617C84.303 77.4589 84.4709 76.956 84.8067 76.6208C77.7549 80.1407 73.2216 82.152 64.8266 81.8168C69.0241 79.9731 73.3895 77.6265 76.0759 73.4361C70.5352 78.9674 59.9575 77.9617 52.234 78.297C65.6661 72.2629 79.4339 75.6151 84.1351 54.9986C80.945 63.7145 68.8562 76.1179 57.7747 72.598C67.8488 68.2401 75.908 55.8367 79.4339 46.9531Z" fill="#802D03"/>
<path d="M51.7302 37.7344C46.1895 39.0753 42.9994 41.7572 40.8167 46.9532C44.3426 42.9305 46.8611 40.081 51.7302 37.7344ZM66.3376 38.4048C57.9425 40.4162 55.0882 43.6009 51.7302 47.1208C57.9425 42.5952 63.819 39.2429 66.3376 38.4048Z" fill="#CF8D5E"/>
<path d="M60.4611 32.5383C53.4092 32.0354 47.8685 33.8792 43.3352 39.2428C47.8685 35.8906 54.4166 33.7116 60.4611 32.5383ZM44.5105 40.919C48.8759 38.0695 56.9352 34.5497 60.629 34.0469C53.7451 34.5497 47.1969 36.3934 44.5105 40.919Z" fill="#CF8D5E"/>
<path d="M34.2686 65.223C35.9476 60.3622 39.6414 54.6633 42.8315 50.9758C40.9846 53.49 39.4735 59.0213 39.4735 59.0213C41.1525 57.1776 46.6932 47.1207 60.9648 42.5951C44.6784 52.8195 37.7945 67.5697 38.9698 69.9163C38.1303 71.5924 36.1155 65.5582 34.2686 65.223Z" fill="url(#paint7_linear)"/>
<path d="M57.2711 53.1548C45.5181 61.8708 38.4662 63.7145 37.2909 66.2287C37.2909 62.7088 37.9625 59.1889 39.3057 55.6691C37.4588 59.1889 35.444 62.5412 35.6119 67.2344C34.6045 65.3906 33.9329 63.2117 33.4292 60.6975C33.4292 62.0384 33.4292 63.2117 33.5971 64.5526C36.1156 71.2571 41.4884 76.6208 46.1897 81.314C54.9205 88.3537 68.8563 88.1861 79.0982 81.8168C72.2143 83.8282 63.9871 84.6663 57.1032 82.4873C63.8192 83.8282 73.8933 81.4816 77.755 73.7713C75.0686 77.1236 64.4908 81.6492 57.7748 79.9731C65.3303 79.4702 80.4414 73.4361 83.4636 59.1889C77.9229 73.7713 52.402 79.9731 49.7156 77.9617C55.0884 76.956 63.8192 74.777 68.3525 71.9275C62.8118 73.6037 57.6069 75.4474 51.2267 74.777C62.6439 70.5866 73.0538 64.5526 77.755 52.3168C72.5501 61.7032 62.8118 72.2628 48.3724 71.2571C52.2341 70.2514 55.9279 68.4077 59.6217 65.7259C54.4168 68.0725 46.5255 70.9218 40.481 69.4133C43.5033 68.5752 56.0958 65.0554 59.7896 60.027C54.5847 63.8821 46.6934 67.7373 42.9996 65.7259C49.5477 62.3736 52.9057 59.5242 57.2711 53.1548ZM39.3057 55.5014C39.6415 54.6633 40.1452 53.8252 40.481 52.9872C40.1452 53.8252 39.6415 54.6633 39.3057 55.5014Z" fill="url(#paint8_radial)"/>
<path d="M33.2611 50.1377C35.108 41.757 44.3426 33.3764 50.0512 32.2031C42.4956 37.5668 33.429 51.1435 32.9253 58.1833C32.0858 57.1776 33.429 51.4786 33.2611 50.1377Z" fill="#BC682A"/>
<path d="M46.0217 37.2316C40.1452 39.4105 36.7872 45.6122 35.7798 50.8083C37.123 44.4389 44.1748 41.9248 46.0217 37.2316Z" fill="#CF8D5E"/>
<path d="M45.6858 69.581C56.2635 69.2457 65.4981 62.3735 72.8857 55.5013C68.1845 65.7258 56.4314 71.4247 45.6858 69.581Z" fill="url(#paint9_linear)"/>
<path d="M89.1721 51.8138C88.5005 52.4843 88.3326 54.1605 87.8289 54.831C89.0042 66.7316 82.624 76.7884 77.7549 81.6492C88.8363 76.4532 91.019 62.8764 89.1721 51.8138Z" fill="#BC682A"/>
<path d="M41.6564 39.7457C38.4662 40.7514 36.4514 44.2713 35.1082 47.2884C36.4514 44.6065 39.1378 42.2599 41.6564 39.7457ZM46.0218 40.0809C37.2909 41.9246 32.9255 54.1605 32.2539 58.8537C34.6045 52.8196 39.1378 42.9303 46.0218 40.0809Z" fill="url(#paint10_radial)"/>
<path d="M36.2834 44.9417C32.7575 49.6349 31.7501 54.6633 32.7575 60.3622C33.597 53.6577 35.9476 47.1207 39.9772 41.9247C38.1303 42.9304 36.2834 44.7741 36.2834 44.9417Z" fill="#A14302"/>
<path d="M1.94675 58.6634C-0.272714 68.5601 0.0232176 76.6842 4.75808 84.8084C11.2685 97.0685 23.5496 100.761 33.3152 95.4436C40.2696 95.8868 45.5963 93.6711 48.2597 87.1718C52.6986 82.2973 55.066 77.5705 55.6579 71.0712C51.9588 62.3562 4.46215 50.0961 1.94675 58.6634Z" fill="#953F05"/>
<path d="M4.462 78.3092C4.31404 79.6386 4.01811 80.968 3.57422 82.4451C3.87015 83.1837 4.31405 84.0699 4.75794 84.8085C11.2684 97.0686 23.5494 100.761 33.3151 95.4437C40.2694 95.8869 45.5962 93.6712 48.2595 87.1719C49.5912 85.6948 50.7749 84.2176 51.8107 82.5928C51.6627 82.4451 51.6627 82.4451 51.5147 82.2974C49.4432 85.1039 46.9278 86.581 43.2287 84.6608C41.0092 85.8425 38.3459 86.581 35.6825 86.8765C35.2386 87.3196 34.3509 87.615 34.2029 88.3536C23.5494 96.6255 4.16607 90.1262 4.462 78.3092Z" fill="url(#paint11_linear)"/>
<path d="M25.473 88.0581C22.5137 89.8306 15.4114 87.9104 11.5644 87.9104C16.4472 91.0124 26.8047 92.194 31.2437 89.6829C32.2794 89.3874 33.1672 88.5012 33.759 88.0581C33.907 89.6829 32.8713 91.0123 32.4274 92.0463C34.9428 91.7509 37.0143 89.0921 37.9021 86.8764C40.5654 86.581 42.4889 86.1378 44.7084 84.8084C50.0351 83.3313 53.1424 79.1954 55.0659 75.0594C51.3668 79.9339 23.4015 83.7744 23.4015 83.7744C22.5137 81.1156 12.0083 81.5587 10.0847 82.5927C13.7838 87.4672 20.2943 87.7627 25.473 88.0581Z" fill="url(#paint12_linear)"/>
<path d="M8.60512 47.8813C8.16122 49.5062 7.86529 50.8356 6.38565 51.5741C-1.01258 57.6303 -0.124788 62.6526 0.171141 69.8905C2.68654 82.5937 23.6975 90.2747 35.5347 84.9571C36.7184 84.6617 37.9021 84.6616 39.0858 84.3662C42.7849 84.8093 46.0402 82.1505 48.7035 80.8211C55.6579 77.1283 58.6171 66.9362 51.2189 63.2434C46.484 53.7899 42.637 53.9376 34.055 52.165C30.5039 51.8696 26.8048 51.8696 23.6975 50.3925C18.9626 48.9153 11.2685 47.8813 8.60512 47.8813Z" fill="url(#paint13_linear)"/>
<path d="M10.3806 52.1642C8.16112 53.3459 6.53352 55.4138 4.60998 57.0387C0.319012 67.6739 1.94662 64.1289 2.68644 65.7537C4.31405 62.9472 6.82946 63.0948 9.49282 62.7994C13.1919 62.6517 15.5594 63.3903 18.6666 64.7197C18.8146 61.3223 18.3707 58.6635 17.6309 55.5615C20.2942 55.2661 22.9576 57.3341 25.325 58.5158C28.4323 59.1066 30.9477 59.6975 34.0549 59.9929C35.6825 59.2543 41.0093 58.5158 41.3052 58.5158C38.9378 54.5276 33.0192 53.9367 29.764 53.1981C29.1721 54.0844 28.7282 55.2661 28.2843 56.1524C24.1413 54.2321 17.4829 53.6413 16.2992 53.1981C12.1562 56.0047 11.1204 52.3119 10.3806 52.1642Z" fill="#F8E8C7"/>
<path d="M20.2944 55.7092C22.6619 56.8909 24.1415 58.0726 25.9171 59.1066C27.5447 59.9929 29.6162 60.7314 30.9479 61.6177C32.1316 62.2085 33.3153 63.2425 34.2031 64.1288C34.0552 65.4582 34.499 66.6399 34.9429 67.8216C35.5348 68.5601 36.1267 69.2987 36.7185 69.7418C36.2746 71.8098 35.8307 73.73 35.6828 75.9457C35.6828 76.3889 35.8307 76.832 35.9787 77.2752C33.4633 74.0255 30.356 70.0373 27.2488 66.9353C24.5854 63.6857 22.218 58.6635 20.2944 55.7092Z" fill="#F8E8C7"/>
<path d="M22.3658 65.1628C22.8097 67.3785 23.6974 69.0033 24.7332 70.6281C29.0242 72.4007 33.6111 74.1732 35.9785 77.866C35.6826 74.9117 34.055 71.6621 33.907 69.5941C30.9477 61.9131 21.33 58.9589 17.335 53.7889C21.182 57.1863 21.6259 60.5837 22.3658 65.1628Z" fill="url(#paint14_radial)"/>
<path d="M44.5606 58.0726C43.0809 58.5158 42.0452 58.8112 41.1574 59.9929C37.9022 60.8791 35.5347 61.3223 33.1673 61.3223C35.2388 62.9471 37.0144 64.1288 39.9737 64.2765C41.3054 63.6857 42.0452 63.2425 43.0809 62.3563C43.9687 62.9471 44.7085 63.538 45.8923 63.6857C47.076 63.538 48.1117 63.5379 49.2954 62.7994C48.5556 61.6177 47.6678 59.8451 46.928 58.368C46.0402 58.2203 45.3004 58.5158 44.5606 58.0726ZM19.2586 63.2425C18.8147 64.7197 18.3709 66.1968 18.6668 67.9693C18.0749 67.9693 17.631 67.5262 17.0392 67.8216C15.1156 68.4124 13.0441 69.151 11.2686 70.6281C12.3043 70.4804 13.636 70.1849 14.8197 70.4804C17.3351 70.4804 19.9985 70.6281 22.5138 70.3327C21.4781 67.6739 21.0342 64.8674 19.2586 63.2425Z" fill="#EFCD92"/>
<path d="M0.171167 68.7079C-0.124762 72.1053 0.467096 75.3549 2.39064 76.6843C3.42639 77.2751 3.57434 78.6045 5.20195 78.1614C6.08974 80.9679 5.34992 81.4111 8.60514 82.1496C10.6766 83.0359 11.8604 83.6268 14.2278 84.3653C15.8554 84.9562 17.483 85.547 18.9627 85.6948C19.5545 85.6948 20.1464 85.547 20.8862 85.547C24.5853 86.1378 29.0242 87.3196 33.3152 86.1379C34.6469 85.3993 35.8306 84.6608 37.4582 84.2176C38.7899 84.3653 40.1216 84.6607 41.4533 84.513C42.0451 83.9221 42.637 83.7744 42.637 82.5928C43.5248 82.445 44.5605 82.4451 45.5963 82.4451C50.4791 80.0817 54.0303 76.3889 55.214 70.7758C52.8465 72.5483 50.6271 75.5026 46.78 75.6503C44.8565 76.3888 43.3768 75.9458 41.1573 75.0595C41.0094 74.3209 40.8614 72.9915 41.0094 71.9575C39.8257 74.1732 37.0143 75.2071 36.8664 77.866C37.3103 79.0476 37.4582 79.0477 38.642 79.7863C37.7542 80.3771 36.8664 80.9679 35.9786 81.5588C34.055 82.1496 31.8356 83.0359 29.4682 82.5928C28.4324 82.7405 27.3966 82.5928 26.6568 83.4791C21.9219 83.4791 16.7432 82.1496 12.0083 80.6725C11.7124 80.0817 11.2685 79.6386 10.8246 79.0477C9.64089 78.3092 7.86532 78.4569 7.1255 76.832C5.34992 75.0595 4.01824 74.764 4.31417 71.5144C3.42638 71.3666 2.39063 71.3666 1.50284 71.2189C0.319123 69.4464 0.171167 69.7419 0.171167 68.7079Z" fill="#FAEED5"/>
<path d="M28.1365 60.4359C29.7641 62.6516 33.3152 62.6516 35.8306 64.4242C35.9786 65.1627 36.1266 65.9013 36.2745 66.4922L36.4225 66.6398C36.7184 67.2307 37.1623 67.8215 37.4583 68.2646C36.8664 70.9234 36.4225 72.5483 36.1266 75.2071C36.2745 72.2529 35.0908 70.1849 34.203 68.2646C33.6112 64.2764 30.3559 62.5039 28.1365 60.4359Z" fill="#CB9E74"/>
<path d="M17.4829 93.6711C23.4015 96.1822 29.1721 94.4097 34.3509 90.8646C31.3916 97.2162 21.7739 97.9547 17.4829 93.6711Z" fill="#8E3F05"/>
<path d="M2.39073 76.9797C2.0948 76.9797 1.79886 76.9797 1.50293 77.1274C2.09479 79.7862 3.13055 82.2973 4.61019 84.8084C8.01338 91.3078 13.0442 95.296 18.5189 96.9208C18.8148 96.7731 25.3252 97.6594 25.6212 97.364C18.5189 96.9208 11.1206 92.7849 9.19708 89.2398C11.8604 92.7849 22.218 96.1823 29.1723 93.9666C23.2537 94.262 11.1206 90.7169 6.82966 85.2516C11.8605 89.6829 20.2944 90.2738 19.5546 89.6829C15.5596 89.0921 6.6817 85.2516 5.35002 81.5588C4.1663 80.6725 3.13055 78.1614 2.39073 76.9797Z" fill="url(#paint15_linear)"/>
<path d="M4.75806 57.1864C4.1662 54.2321 5.49789 52.9027 8.01328 51.721C8.30921 50.9824 9.197 49.6531 9.49293 49.2099C11.1205 48.9145 11.8604 49.5053 13.192 50.0962C15.2635 50.3916 17.1871 51.1302 19.2586 51.721C17.483 51.721 15.7074 51.721 13.7839 51.721C12.6002 51.721 12.3042 52.6073 11.4164 53.1981C8.30919 53.6413 6.97752 55.2661 4.75806 57.1864Z" fill="#ECC37D"/>
<path d="M0.762967 70.6281C1.20686 66.4922 2.09465 63.2425 2.09465 59.1066C2.98244 56.7432 4.31413 55.5615 5.79378 54.5275C7.12546 52.7549 8.90102 51.4256 10.3807 49.9485C12.0083 49.3576 13.4879 49.2099 15.2635 49.2099C13.34 48.3236 11.7124 48.0282 9.49289 47.8805C8.90103 46.2556 8.45712 48.0282 8.16119 48.1759C7.7173 50.5393 5.6458 52.1641 4.46208 53.1981C2.39058 54.9706 1.79873 56.1524 1.0589 58.0726C-0.124813 61.47 0.31908 65.4582 0.31908 69.151C0.467045 71.9575 0.762967 71.0712 0.762967 70.6281Z" fill="#EABF73"/>
<path d="M35.2387 77.5705C35.9785 80.2293 37.7541 80.8201 39.0858 83.0358C41.3053 83.1835 30.0599 84.9561 30.6518 84.5129C29.1721 84.0698 39.0858 83.0359 28.8762 75.3549L35.2387 77.5705Z" fill="#EFCD92"/>
</g>
<defs>
<radialGradient id="paint0_radial" cx="0" cy="0" r="1" gradientUnits="userSpaceOnUse" gradientTransform="translate(41.1422 31.9056) rotate(-154.192) scale(37.5796 94.282)">
<stop stop-color="#5D931E"/>
<stop offset="0.6585" stop-color="#699D22"/>
<stop offset="1" stop-color="#86B52C"/>
</radialGradient>
<radialGradient id="paint1_radial" cx="0" cy="0" r="1" gradientUnits="userSpaceOnUse" gradientTransform="translate(51.3794 23.0388) rotate(122.555) scale(84.4518 36.5303)">
<stop stop-color="#A1C43E"/>
<stop offset="1" stop-color="#71A125"/>
</radialGradient>
<linearGradient id="paint2_linear" x1="44.0774" y1="6.27533" x2="43.3903" y2="36.7655" gradientUnits="userSpaceOnUse">
<stop stop-color="#A1C43E"/>
<stop offset="1" stop-color="#71A125"/>
</linearGradient>
<radialGradient id="paint3_radial" cx="0" cy="0" r="1" gradientUnits="userSpaceOnUse" gradientTransform="translate(53.5627 40.8109) rotate(54.9615) scale(56.2027 50.7288)">
<stop stop-color="#B8642A"/>
<stop offset="0.1529" stop-color="#D39268"/>
<stop offset="0.5395" stop-color="#9F4405"/>
<stop offset="0.6763" stop-color="#A34300"/>
<stop offset="1" stop-color="#8C3D06"/>
</radialGradient>
<radialGradient id="paint4_radial" cx="0" cy="0" r="1" gradientUnits="userSpaceOnUse" gradientTransform="translate(56.2692 71.0905) rotate(-24.1047) scale(62.6961 58.8913)">
<stop stop-color="#802D03"/>
<stop offset="0.5879" stop-color="#8C3604"/>
<stop offset="1" stop-color="#8F3806"/>
</radialGradient>
<radialGradient id="paint5_radial" cx="0" cy="0" r="1" gradientUnits="userSpaceOnUse" gradientTransform="translate(80.7097 31.4586) rotate(132.132) scale(22.4624 36.1348)">
<stop stop-color="#DFD0C3"/>
<stop offset="0.5303" stop-color="#C49978"/>
<stop offset="1" stop-color="#B26F3F"/>
</radialGradient>
<radialGradient id="paint6_radial" cx="0" cy="0" r="1" gradientUnits="userSpaceOnUse" gradientTransform="translate(52.8094 39.7883) rotate(-60.6571) scale(15.1408 24.8717)">
<stop stop-color="#DCAE92"/>
<stop offset="0.5135" stop-color="#D39269"/>
<stop offset="1" stop-color="#D59062"/>
</radialGradient>
<linearGradient id="paint7_linear" x1="40.9369" y1="60.6904" x2="62.2337" y2="33.7666" gradientUnits="userSpaceOnUse">
<stop stop-color="#642703"/>
<stop offset="1" stop-color="#B15C20"/>
</linearGradient>
<radialGradient id="paint8_radial" cx="0" cy="0" r="1" gradientUnits="userSpaceOnUse" gradientTransform="translate(50.4926 77.3135) rotate(-33.6443) scale(64.3005 30.7118)">
<stop stop-color="#4C2103"/>
<stop offset="1" stop-color="#772B03"/>
</radialGradient>
<linearGradient id="paint9_linear" x1="56.0027" y1="66.7985" x2="82.9894" y2="46.3967" gradientUnits="userSpaceOnUse">
<stop stop-color="#652703"/>
<stop offset="1" stop-color="#802D03"/>
</linearGradient>
<radialGradient id="paint10_radial" cx="0" cy="0" r="1" gradientUnits="userSpaceOnUse" gradientTransform="translate(40.724 42.9588) rotate(120.463) scale(22.9851 16.9768)">
<stop stop-color="#E68C53"/>
<stop offset="1" stop-color="#9F4507"/>
</radialGradient>
<linearGradient id="paint11_linear" x1="27.4993" y1="85.8443" x2="27.3776" y2="101.462" gradientUnits="userSpaceOnUse">
<stop stop-color="#743303"/>
<stop offset="0.5792" stop-color="#652C03"/>
<stop offset="1" stop-color="#8D3E04"/>
</linearGradient>
<linearGradient id="paint12_linear" x1="21.2537" y1="87.2688" x2="67.8961" y2="78.184" gradientUnits="userSpaceOnUse">
<stop stop-color="#723204"/>
<stop offset="0.5479" stop-color="#743303"/>
<stop offset="1" stop-color="#753304"/>
</linearGradient>
<linearGradient id="paint13_linear" x1="9.73441" y1="53.6864" x2="63.3435" y2="99.4695" gradientUnits="userSpaceOnUse">
<stop stop-color="#F1D5A3"/>
<stop offset="1" stop-color="#FAEED5"/>
</linearGradient>
<radialGradient id="paint14_radial" cx="0" cy="0" r="1" gradientUnits="userSpaceOnUse" gradientTransform="translate(23.9302 61.8508) rotate(47.3042) scale(39.2361 19.0247)">
<stop stop-color="#96450C"/>
<stop offset="1" stop-color="#F1D5A3"/>
</radialGradient>
<linearGradient id="paint15_linear" x1="5.02625" y1="84.1617" x2="34.0596" y2="100.521" gradientUnits="userSpaceOnUse">
<stop stop-color="#B45312"/>
<stop offset="1" stop-color="#953F05"/>
</linearGradient>
<clipPath id="clip0">
<rect width="90" height="96.8729" fill="white" transform="translate(0 0.89386)"/>
</clipPath>
</defs>
</svg>
