<svg width="114" height="95" viewBox="0 0 114 95" fill="none" xmlns="http://www.w3.org/2000/svg">
<g clip-path="url(#clip0)">
<path d="M13.9589 56.0723C13.572 56.9002 13.3244 57.6974 13.5101 58.5866C12.6435 58.142 11.5602 58.4026 10.7245 58.9238C8.55795 60.2576 7.72227 62.8792 6.6235 65.1481C5.6176 67.2178 4.27122 69.1188 2.67725 70.7745C5.06048 70.008 7.35085 68.9808 9.51743 67.739C10.6317 67.0951 11.7304 66.3899 12.628 65.4854C14.3613 63.753 15.3053 61.4227 16.1255 59.1231C16.1719 59.2918 16.2183 59.4451 16.2648 59.6137C17.0076 59.1078 17.6111 57.5901 17.9825 56.7622C19.4837 53.3434 20.505 49.6947 20.9848 46C18.0599 48.9128 15.6612 52.3316 13.9589 56.0723Z" fill="#3D4C00"/>
<path d="M15.9706 64.3666C14.4076 69.1958 11.1578 73.4731 6.91746 76.3092C6.62343 71.5107 9.06856 66.6355 13.1231 63.9833C11.1887 65.1791 9.13046 66.2216 6.91746 66.7735C4.70446 67.3254 2.16648 67.2028 0.0153809 66.4516C2.151 66.4516 4.27115 65.7617 5.97346 64.4892C7.02579 63.7074 7.92337 62.7262 9.00666 62.0057C10.1054 61.2851 11.8077 60.8865 13.0303 61.3311C10.8018 59.5374 10.384 56.1953 11.2661 53.4664C12.1327 50.7375 14.0517 48.4686 15.9242 46.2916C17.2242 51.0135 16.6361 55.8274 15.1504 60.4879C15.8004 56.9618 16.4968 53.3131 18.6324 50.4156C19.6848 48.9898 21.0621 47.8094 22.4704 46.7056C22.4858 49.1125 22.4239 51.5501 21.8359 53.8957C21.2323 56.226 20.0407 58.4949 18.1372 59.9973C17.611 61.9443 16.5897 62.4502 15.9706 64.3666Z" fill="#4F6800"/>
<path d="M53.6382 82.5178C52.9572 81.6133 51.549 81.9199 50.4502 82.2265C42.2327 84.4342 33.6438 80.3255 25.1323 80.6015L15.2743 78.9151C14.516 78.2252 13.1697 78.9611 12.9685 79.9576C12.7673 80.9541 13.3244 81.9506 13.9744 82.7324C17.7504 87.393 24.3121 88.6195 30.3011 89.3707C36.4139 90.1372 42.7589 90.7351 48.6086 88.8188C50.9918 88.0369 53.5144 86.5038 53.9167 84.0356C53.9941 83.5143 53.9632 82.9471 53.6382 82.5178Z" fill="#561F1D"/>
<path opacity="0.2" d="M48.5931 88.8341C50.9764 88.0523 53.4989 86.5192 53.9012 84.0509C53.9941 83.5297 53.9477 82.9471 53.6382 82.5332C53.4834 82.3185 53.2822 82.1806 53.0501 82.0886C51.843 82.3645 50.6514 82.8551 49.4907 83.3304C50.2181 84.5415 49.63 86.1819 48.5312 87.0864C47.448 87.9909 45.9933 88.3129 44.6005 88.5582C41.0566 89.1714 37.4508 89.432 33.8604 89.1867C30.8582 88.9721 17.6731 87.2551 20.4432 82.2572C20.9384 81.368 21.6967 80.8161 22.0526 80.1109L15.2743 78.9611C14.516 78.2712 13.1697 79.0071 12.9685 80.0036C12.7673 81.0001 13.3244 81.9966 13.9744 82.7785C17.7504 87.439 24.3121 88.6655 30.3011 89.4167C36.3984 90.1526 42.7589 90.7505 48.5931 88.8341Z" fill="#190F0C"/>
<path d="M48.5929 84.5262C47.0144 85.2621 45.1882 85.7067 43.3312 85.9213C36.2124 86.7338 28.4128 85.4307 21.65 83.2078C16.5585 81.5367 11.204 78.8385 10.7862 72.9362C10.229 64.9335 15.8931 50.17 25.4415 49.4954C27.5307 49.3421 29.558 50.124 31.4615 50.9825C37.1255 53.5734 42.7122 57.1301 46.937 61.8367C50.3416 65.6234 53.7617 70.8972 53.9474 76.1096C54.1176 80.3562 51.8272 83.0238 48.5929 84.5262Z" fill="#D50506"/>
<path d="M24.2654 67.4018C25.2403 67.1412 26.3391 66.0067 25.3022 65.0715C24.4047 64.2437 23.3523 64.029 22.1298 63.9371C20.7834 63.8451 19.4525 65.0562 20.5203 66.3287C21.2786 67.2332 23.1666 67.7084 24.2654 67.4018Z" fill="#A00707"/>
<path d="M19.0191 72.4916C17.9358 73.0895 17.7037 74.6072 18.6167 75.4504C19.4369 76.217 21.325 76.5849 22.3463 76.0637C23.538 75.4504 23.507 73.8714 22.4237 73.1662C22.4547 73.1968 22.4856 73.2122 22.5166 73.2428C21.6964 72.5683 20.025 71.9397 19.0191 72.4916Z" fill="#A00707"/>
<path d="M28.3512 58.3414C29.6666 57.8508 29.8213 56.3484 29.0166 55.3365C28.3202 54.4474 26.881 53.9414 25.7977 54.386C24.5442 54.8919 24.4668 56.3024 25.1787 57.2682C25.8596 58.1881 27.2215 58.7553 28.3512 58.3414Z" fill="#A00707"/>
<path d="M24.2035 51.3045C24.8999 51.9484 26.3546 52.5003 27.2986 52.1477C28.2271 51.7951 28.6759 50.5226 28.0569 49.7408C27.2057 49.5415 26.3391 49.4342 25.457 49.4955C24.807 49.5415 24.1725 49.6488 23.5535 49.8328C23.5225 50.354 23.7856 50.9059 24.2035 51.3045Z" fill="#A00707"/>
<path d="M16.3111 75.757C17.2396 74.5306 16.1563 73.2428 14.9337 72.8595C13.8659 72.5222 11.6839 71.863 11.2815 73.4881C10.972 74.7759 12.3339 75.8643 13.3862 76.2476C14.3457 76.5849 15.6147 76.6769 16.3111 75.757Z" fill="#A00707"/>
<path d="M16.5586 56.2257C16.4348 57.7281 18.8335 58.5866 20.0251 58.7246C21.5572 58.9086 22.7178 57.6208 22.0369 56.1644C21.2167 54.3707 16.7752 53.6194 16.5586 56.2257Z" fill="#A00707"/>
<path d="M23.7239 80.249C22.5787 79.0379 18.1063 78.256 18.8646 81.1075C19.2051 82.38 20.83 83.0545 22.0525 83.0699C23.5227 83.0852 24.9619 81.5521 23.7239 80.249Z" fill="#A00707"/>
<path d="M32.0187 51.9638C30.8581 51.9945 30.2545 52.8837 30.7962 53.9415C31.2759 54.8613 32.4366 55.4439 33.4734 55.2599C34.3865 55.0913 34.8508 54.1254 34.402 53.2976C33.9532 52.4544 32.9628 51.9331 32.0187 51.9638Z" fill="#A00707"/>
<path d="M14.3147 64.7036C13.2159 65.1175 13.2159 66.3746 13.9742 67.1258C14.6861 67.831 15.8932 68.3983 16.9145 68.015C17.7966 67.6777 18.1835 66.4973 17.4562 65.8074C16.6824 65.0868 15.4598 64.2896 14.3147 64.7036Z" fill="#A00707"/>
<path d="M12.8447 73.0434C12.2566 73.5953 12.7518 74.5918 13.1697 75.0977C13.572 75.5729 14.3923 76.0789 14.9648 75.5883C15.6303 75.021 15.0577 74.1625 14.6244 73.6719C14.2065 73.1967 13.4792 72.4455 12.8447 73.0434Z" fill="#D8351E"/>
<path d="M16.435 66.0372C16.0171 65.6999 15.3517 65.3626 14.8101 65.6846C14.2375 66.0372 14.4541 66.7271 14.8565 67.1103C15.2279 67.4629 15.8469 67.7082 16.3112 67.3863C16.729 67.095 16.8683 66.3745 16.435 66.0372Z" fill="#D8351E"/>
<path d="M21.0777 56.6395C20.9384 55.4283 18.7873 55.1984 18.1528 56.1029C16.8838 57.9119 21.7586 58.6018 21.0777 56.6395Z" fill="#D8351E"/>
<path d="M27.1904 50.2926C26.7262 48.6368 24.281 50.0166 25.3488 50.7831C25.9369 51.1971 27.5309 51.5037 27.1904 50.2926Z" fill="#D8351E"/>
<path d="M25.7822 56.2562C25.9214 57.6206 28.9082 58.1265 28.5987 56.6394C28.3511 55.4436 25.5965 54.5544 25.7822 56.2562Z" fill="#D8351E"/>
<path d="M21.7432 64.6115C20.273 65.0867 22.6253 67.3557 23.7395 66.3898C25.024 65.286 22.6562 64.3202 21.7432 64.6115Z" fill="#D8351E"/>
<path d="M20.2573 75.067C21.1085 75.3736 22.2846 74.4384 21.5108 73.5952C21.3561 73.3499 21.1239 73.2119 20.8609 73.1046C20.7835 73.074 20.5823 72.9973 20.5359 72.9973C20.3502 72.9667 20.2109 72.982 20.0097 72.9973C19.9942 72.9973 19.9478 73.0126 19.9014 73.028C18.88 73.4726 19.3597 74.745 20.2573 75.067Z" fill="#D8351E"/>
<path d="M21.7432 80.5555C21.279 80.3102 20.3659 79.9576 19.8707 80.3562C19.4219 80.7242 19.7933 81.2607 20.1492 81.5673C20.5516 81.92 21.2171 82.2879 21.7432 81.9813C22.2694 81.6747 22.3003 80.8621 21.7432 80.5555Z" fill="#D8351E"/>
<path d="M33.8449 53.466C33.3342 52.3775 31.3998 52.9141 32.3438 53.9719C32.514 54.1559 32.8235 54.4011 33.0866 54.4471C33.6746 54.5545 34.108 54.0026 33.8449 53.466Z" fill="#D8351E"/>
<path opacity="0.4" d="M28.0571 84.9402C25.0704 76.7689 25.937 67.2792 30.4404 59.8131C26.231 62.6339 22.8574 66.6813 20.892 71.3265C20.273 72.7982 19.5456 74.5306 17.9671 74.8526C16.8838 75.0672 15.7541 74.454 15.1041 73.5648C14.4542 72.6756 14.1911 71.5718 14.0209 70.4833C13.3554 65.9914 14.253 61.2695 16.5124 57.3295C18.1838 54.4166 20.5825 51.9331 23.43 50.1394C23.7395 49.9401 24.1109 49.7714 24.4978 49.6028C15.5065 51.1359 10.2294 65.1788 10.7865 72.9209C11.2043 78.8079 16.5588 81.5214 21.6503 83.1925C23.7085 83.8824 25.8596 84.4649 28.0571 84.9402Z" fill="#190F0C"/>
<path opacity="0.4" d="M26.3236 76.0177C24.513 77.1215 22.1917 77.5508 20.0096 77.6274C18.2919 77.6734 16.5122 77.5508 14.9337 76.8915C13.0302 76.0943 11.591 74.4846 10.7708 72.6143C10.7708 72.7216 10.7862 72.8442 10.7862 72.9515C11.2041 78.8385 16.5586 81.5521 21.65 83.2231C22.5167 83.5144 23.3988 83.775 24.2964 84.0203C24.7142 83.6984 25.1011 83.3305 25.457 82.9319C26.0606 82.2113 26.5093 81.3988 26.8343 80.5249C26.5558 79.0225 26.3855 77.5201 26.3236 76.0177Z" fill="#190F0C"/>
<path d="M22.6097 84.5415C21.3407 74.6992 24.1573 64.3969 30.2546 56.5169C31.2451 55.2445 32.3593 54.0027 33.6593 53.0675C34.7271 52.3163 36.1508 52.2856 37.2651 52.9755C41.2577 55.4591 44.8945 58.3719 48.0979 61.8213C51.7192 65.746 54.4274 70.6672 54.9226 75.9563C55.1083 77.9033 54.9691 79.973 53.9786 81.6594C52.4775 84.2196 49.3979 85.4154 46.4885 86.0899C38.8745 87.8836 30.0225 87.0558 22.6097 84.5415Z" fill="#5D2723"/>
<g opacity="0.5">
<path opacity="0.5" d="M26.2927 81.2761C26.9117 78.4552 27.1284 75.5577 28.1343 72.8135C29.1712 70.0233 30.5949 67.3557 32.1889 64.8262C33.7983 62.2813 35.4542 59.5984 37.9767 57.8507C39.1064 57.0688 40.36 56.4556 41.6599 55.965C40.948 55.4284 40.2207 54.9072 39.4933 54.4012C38.6112 54.8458 37.7756 55.3364 37.0792 55.7963C34.34 57.6054 32.4365 60.2576 30.7342 63.0018C29.0164 65.7613 27.5308 68.6895 26.6177 71.817C25.7201 74.8831 24.9773 78.1946 26.0142 81.2607C26.0606 81.3987 26.2618 81.4294 26.2927 81.2761Z" fill="#190F0C"/>
<path opacity="0.5" d="M51.1 65.6233C49.7227 65.7919 48.7787 67.0031 47.8038 67.8922C46.5193 69.0727 45.2039 70.2225 43.842 71.311C42.4956 72.3995 41.0874 73.4113 39.6327 74.3465C38.2089 75.251 36.6459 76.0022 35.315 77.0294C34.665 77.5353 35.4079 78.3478 36.0269 78.2405C39.2303 77.7346 42.2635 75.2817 44.7396 73.35C45.9776 72.3842 47.1538 71.357 48.3299 70.3145C47.3704 71.9702 46.6431 73.7639 46.055 75.5883C45.467 77.4126 44.8479 79.559 45.7919 81.3527C46.055 81.8739 46.9371 81.7666 47.0609 81.184C47.4323 79.467 47.618 77.8419 48.2371 76.1709C48.8406 74.5765 49.537 73.0127 50.4036 71.541C51.0536 70.4218 51.8274 69.3947 52.7404 68.4748C52.2607 67.509 51.7036 66.5585 51.1 65.6233Z" fill="#190F0C"/>
<path opacity="0.5" d="M37.7447 70.1153C36.8007 71.9396 35.346 74.2546 35.7328 76.3702C35.7638 76.5235 35.965 76.5849 36.0888 76.5082C37.7447 75.5117 38.472 73.3194 39.3232 71.679C40.36 69.6553 41.4897 67.6623 42.7897 65.8073C44.0432 64.0136 45.4979 62.2966 47.2312 60.9475C47.2312 60.9475 47.2466 60.9321 47.2621 60.9321C46.3181 59.9663 45.3586 59.0465 44.3527 58.1726C41.4433 59.7517 38.797 62.4652 36.7852 64.4122C34.665 66.4512 33.0246 68.7508 31.7092 71.3724C31.0592 72.6755 30.5021 74.0093 29.9914 75.3737C29.4498 76.7995 28.8308 78.1179 28.8617 79.6663C28.8617 79.8043 29.0319 79.881 29.1403 79.7736C30.889 78.0566 31.9259 75.2971 33.102 73.1661C34.4793 70.6672 35.8102 68.3522 37.8685 66.3286C39.7101 64.5195 41.629 62.7105 43.7182 61.1928C43.8265 61.1161 43.9349 61.0395 44.0432 60.9781C43.2385 61.806 42.4956 62.6799 41.7992 63.5997C40.2207 65.6234 38.9208 67.831 37.7447 70.1153Z" fill="#190F0C"/>
</g>
<path opacity="0.2" d="M54.938 76.125C53.6999 77.6121 52.0441 78.7772 50.2334 79.5131C46.8288 80.8929 43.0064 80.8929 39.3696 80.2797C34.2627 79.4211 29.032 77.1675 26.3083 72.7982C25.225 71.0659 24.6369 69.0422 24.5286 67.0186C22.5477 72.6143 21.8513 78.6546 22.6096 84.5263C30.0069 87.0559 38.8589 87.8837 46.4729 86.09C49.3823 85.4001 52.4619 84.2197 53.963 81.6594C54.938 80.019 55.1082 78.026 54.938 76.125Z" fill="#190F0C"/>
<path opacity="0.2" d="M54.35 80.9082C53.5762 81.4141 52.756 81.874 51.9203 82.2726C47.0919 84.5416 41.4434 84.8789 36.2746 83.5451C33.4735 82.8245 30.6724 81.5061 29.0784 79.1145C27.5309 76.7842 27.3916 73.7947 27.6856 71.0199C28.3666 64.7342 31.1367 58.7246 35.377 54.0334C35.8258 53.5428 36.2591 53.0982 36.6769 52.6689C35.6865 52.301 34.5568 52.4236 33.6592 53.0522C32.3438 53.972 31.2295 55.2138 30.2546 56.5016C24.1572 64.3816 21.3562 74.6839 22.6097 84.5263C30.007 87.0558 38.859 87.8837 46.4729 86.09C49.3823 85.4001 52.4619 84.2196 53.9631 81.6594C54.1178 81.4141 54.2416 81.1688 54.35 80.9082Z" fill="#190F0C"/>
<path opacity="0.4" d="M22.7644 54.0793C21.0621 55.2598 19.6229 56.8235 18.7253 58.6785C17.967 60.2423 16.4194 64.0443 18.555 65.1941C20.4121 66.2059 21.8204 63.983 22.6096 62.7105C24.1727 60.1809 26.1999 57.728 28.4903 55.689C29.6355 54.6619 31.3997 52.0863 28.8772 51.4271C27.0356 50.9825 24.1262 53.1441 22.7644 54.0793Z" fill="#FFEDE9"/>
<path opacity="0.4" d="M41.1492 70.5139C43.5943 71.587 46.1787 72.3842 48.3917 73.8713C48.9488 74.2393 49.4905 74.6685 50.125 74.8372C50.9142 72.8135 49.9393 70.5445 48.8715 68.6435C46.7823 64.9335 43.7491 60.1656 39.7718 58.2186C35.0208 55.8883 33.3031 62.6952 35.1447 65.8687C36.4291 68.107 38.8433 69.502 41.1492 70.5139Z" fill="#FFEDE9"/>
<path opacity="0.4" d="M39.7874 66.0219C40.329 66.4359 41.0873 66.6045 41.7064 66.3132C42.3718 65.9913 42.6658 65.2094 42.7897 64.4889C43.1146 62.5572 41.8302 59.1844 39.2612 60.3496C37.0173 61.3614 38.3172 64.9028 39.7874 66.0219Z" fill="#FFEDE9"/>
<path opacity="0.6" d="M23.662 60.6562C23.4918 61.1774 23.1203 61.6067 22.718 61.9899C21.9752 62.6952 20.5514 63.661 19.53 62.8945C18.9265 62.4499 18.7098 61.806 18.8955 61.0854C19.0348 60.5029 19.4526 60.0583 19.8241 59.629C20.5824 58.7705 21.7585 57.8966 22.9346 58.5712C23.6465 58.9851 23.9096 59.905 23.662 60.6562ZM25.1012 53.604C24.2655 53.1748 23.4299 53.5427 22.8882 54.2326C22.5013 54.7385 22.2073 55.5664 22.4394 56.1949C22.7025 56.8848 23.2596 57.1761 23.987 57.0688C24.575 56.9768 25.1322 56.4249 25.4571 55.9496C25.9369 55.2137 25.9678 54.0639 25.1012 53.604Z" fill="#FFEDE9"/>
<path d="M39.0602 53.4508C33.6437 55.1985 30.007 60.227 27.6547 65.1482C25.1632 70.3453 23.8787 76.217 25.5655 81.8127C25.6274 82.0273 26.0143 82.012 25.9988 81.7514C25.3798 76.1556 26.9738 70.8665 29.6975 66.0067C30.9201 63.8297 32.22 61.6834 33.7211 59.6904C35.3615 57.5134 37.6519 56.287 39.7101 54.5853C40.2518 54.1407 39.6792 53.2515 39.0602 53.4508Z" fill="#B25B44"/>
<path d="M52.3845 66.1752C50.7751 63.0171 46.4265 67.2331 44.9872 68.4902C42.3254 70.7898 39.7565 73.2121 36.6769 74.9138C36.909 72.2156 38.1316 69.7473 39.6791 67.4784C41.5826 64.6882 43.7647 61.9746 46.0705 59.5064C46.5503 59.0004 46.3646 58.1113 45.6527 57.9273C41.2422 56.7468 36.3674 61.484 34.0151 64.6422C32.514 66.6658 31.3688 68.8888 30.4248 71.2191C29.9141 72.4915 29.4653 73.7946 29.1403 75.1284C28.7379 76.7381 28.7534 78.2405 28.5368 79.8503C28.5058 80.0189 28.7379 80.0956 28.7998 79.9269C29.2177 78.8231 29.8677 77.796 30.3164 76.6768C30.7498 75.573 31.1676 74.4692 31.6009 73.3654C32.4675 71.1884 33.5199 69.0728 34.8508 67.1411C36.8781 64.2129 39.8803 61.1161 43.4552 60.1196C41.6445 62.5878 39.1994 64.6422 37.4507 67.1564C35.5007 69.9619 34.2163 73.2274 34.4794 76.6768C34.5413 77.428 35.3924 78.1332 36.1352 77.612C38.6113 75.8949 41.0874 74.2239 43.3623 72.2309C44.5384 71.2037 45.6681 70.1152 46.9371 69.1954C47.5252 68.7815 48.7323 67.785 49.8156 67.3864C48.1288 69.2107 46.38 70.9278 45.2039 73.1967C44.0278 75.481 42.9445 78.7618 44.492 81.1074C44.7241 81.46 45.4515 81.4907 45.5289 80.9694C45.9312 78.2712 45.8229 75.8796 47.2157 73.396C48.4692 71.1424 50.3263 68.9041 52.2917 67.2177C52.5548 66.9571 52.5548 66.4972 52.3845 66.1752Z" fill="#B25B44"/>
<path d="M37.5126 55.2137C35.2531 55.3364 33.1175 57.6667 31.7866 59.2917C30.1617 61.2694 29.0629 63.2624 28.8308 65.8073C28.8153 66.0066 29.0629 66.0219 29.1558 65.8993C30.5795 64.0136 31.8021 61.9439 33.3342 60.1349C34.6341 58.5865 36.7233 57.2681 37.6518 55.4744C37.7292 55.3671 37.6518 55.1984 37.5126 55.2137Z" fill="#E08573"/>
<path d="M42.7278 58.5866C40.7315 57.9427 37.9459 60.7635 36.6614 62.0207C34.7425 63.891 33.0092 65.9913 32.4211 68.6282C32.3592 68.8888 32.6687 69.0575 32.8699 68.8888C34.7734 67.2178 36.2745 65.1941 38.1161 63.4617C38.9828 62.6492 39.9113 61.9133 40.8243 61.1468C41.5826 60.5029 42.6814 59.859 42.8826 58.8319C42.8826 58.7092 42.8362 58.6172 42.7278 58.5866Z" fill="#E08573"/>
<path d="M44.3374 59.9663C41.9541 61.4534 40.1899 63.1705 38.4721 65.3934C37.0175 67.2638 35.4854 69.5021 35.5163 71.9396C35.5163 72.1389 35.7949 72.2769 35.9342 72.1083C37.5591 70.3146 38.6424 68.061 40.1126 66.1293C41.6601 64.1056 43.2231 62.3273 44.4921 60.1196C44.5695 60.0277 44.4457 59.905 44.3374 59.9663Z" fill="#E08573"/>
<path d="M50.0322 65.9913C48.8561 65.8534 47.6644 66.8499 46.7823 67.5091C45.9002 68.1683 44.6158 68.9808 44.3527 70.1153C44.2908 70.3913 44.492 70.7899 44.8324 70.7439C45.9776 70.6059 46.9526 69.5481 47.8192 68.8429C48.6704 68.1376 49.9393 67.3864 50.2334 66.2673C50.2798 66.114 50.1715 66.0067 50.0322 65.9913Z" fill="#E08573"/>
<path d="M48.0979 69.9007C46.2099 71.725 44.229 74.4079 45.0647 77.1521C45.1266 77.3667 45.4051 77.3821 45.5289 77.2134C46.9991 75.1591 47.8657 72.5222 48.4383 70.1C48.4848 69.9007 48.2526 69.7473 48.0979 69.9007Z" fill="#E08573"/>
<path d="M17.9515 90.1218C17.2861 89.0027 15.8778 88.4814 14.7945 87.7915C14.2374 87.4389 13.6648 87.1017 13.0767 86.8104C12.5196 86.5498 11.9006 86.5344 11.359 86.2891C11.0649 86.1511 10.678 86.4424 10.8947 86.749C11.2661 87.3163 11.359 87.8989 11.8078 88.4508C12.272 89.018 12.8137 89.5086 13.3863 89.9685C14.4386 90.7964 15.5219 91.8389 16.9302 91.9155C17.8432 91.9615 18.4003 90.873 17.9515 90.1218Z" fill="#5D2723"/>
<path d="M25.3489 92.3755C25.3489 92.3142 25.3334 92.2682 25.3179 92.2069L25.3334 92.2222C25.3024 91.9463 25.0858 91.7317 24.8536 91.5784C24.2656 91.0418 23.3061 91.2411 22.6561 91.517C22.0216 91.793 21.9907 92.7588 22.4395 93.1881C22.7799 93.51 23.1513 93.694 23.6156 93.7553C23.8632 93.786 24.1263 93.786 24.3584 93.7246C24.5441 93.6787 24.6834 93.5867 24.8227 93.4794C24.8227 93.4794 24.8227 93.4794 24.8382 93.4794C25.2251 93.3107 25.4108 92.7895 25.3489 92.3755Z" fill="#5D2723"/>
<path d="M33.0711 91.2564C32.158 90.1066 29.4344 90.1372 28.4439 91.1951C28.1189 91.5477 27.9951 92.1149 28.2737 92.5288C29.1867 93.9239 31.8485 94.2765 33.0711 93.1574C33.6592 92.6208 33.5199 91.8083 33.0711 91.2564Z" fill="#5D2723"/>
<path d="M37.0483 92.2377C36.3364 92.0843 35.5162 92.2223 34.9746 92.7282C34.6651 93.0195 34.6186 93.5254 34.8198 93.8934C35.1758 94.4913 35.9186 94.8592 36.5995 94.9205C37.3268 94.9972 38.1935 94.5679 38.2863 93.7861C38.3792 93.0195 37.7602 92.391 37.0483 92.2377Z" fill="#5D2723"/>
<path d="M53.4834 89.0028C52.3691 88.9261 51.4096 89.4934 50.3728 89.8153C49.3359 90.1372 48.2371 90.2752 47.2312 90.6891C46.4575 91.0111 46.0551 92.1762 46.9682 92.6361C49.1347 93.74 53.3905 93.3107 54.6595 91.0264C55.1857 90.0913 54.5202 89.0794 53.4834 89.0028Z" fill="#5D2723"/>
<path d="M43.5634 93.6939C43.4396 93.4793 43.2848 93.3106 43.0837 93.188C42.8979 93.0807 42.7122 92.912 42.4182 92.8507C41.923 92.7434 41.4433 92.7127 40.9635 92.9427C40.6231 93.1113 40.4528 93.5406 40.5147 93.8932C40.5766 94.2918 40.8242 94.5371 41.1957 94.6751C41.3195 94.7211 41.5206 94.7977 41.5516 94.8131C41.7528 94.8744 41.9694 94.951 42.1861 94.951C42.4027 94.9357 42.4956 94.9204 42.4956 94.9204C42.5575 94.9204 42.6039 94.9204 42.6658 94.9357C42.8979 94.9357 43.0837 94.8437 43.2848 94.7517C43.6717 94.5371 43.7491 94.0312 43.5634 93.6939Z" fill="#5D2723"/>
</g>
<g clip-path="url(#clip1)">
<path d="M24.7234 49.3312C24.7234 49.3312 30.9907 46.4688 33.5215 50.0099C33.5215 50.0099 41.6795 48.6968 43.064 55.5135C43.064 55.5135 48.3339 53.4331 52.3831 63.968L57.1022 52.0166L54.4971 44.4621L45.3565 37.5717L33.06 37.6602L25.9441 44.5359L24.7234 49.3312Z" fill="#381915"/>
<path opacity="0.2" d="M57.1024 52.0166L54.4972 44.4621L45.3566 37.5717L33.0601 37.6602L25.9442 44.5359L24.9766 48.3427C25.1105 48.2541 25.2445 48.1804 25.3487 48.1213C27.5966 46.8524 30.1274 46.1442 32.6582 47.0295C32.8368 47.0885 33.0303 47.1623 33.209 47.1328C33.4769 47.1033 33.6854 46.8672 33.864 46.6754C34.7721 45.672 35.9333 44.8163 37.2582 44.5064C38.598 44.1966 40.1165 44.5212 41.0246 45.5392C41.1437 45.672 41.2628 45.8343 41.4414 45.8934C41.7243 45.9966 42.022 45.7901 42.29 45.6425C43.9126 44.7277 46.2796 45.8491 46.5922 47.6787C46.6816 48.2099 46.6369 48.7853 46.9346 49.2132C47.3515 49.8329 48.2298 49.8919 48.8848 50.246C50.0162 50.851 50.4182 52.3412 50.1204 53.5659C49.8227 54.8053 48.989 55.8381 48.1107 56.7676C48.066 56.8267 48.0065 56.8709 47.9618 56.9299C49.391 58.1546 50.9541 60.294 52.3683 63.968L57.1024 52.0166Z" fill="#050202"/>
<path opacity="0.2" d="M54.393 47.5017C54.6907 46.6459 54.7502 45.5983 54.1548 44.9196C53.4253 44.0933 52.0111 44.2261 51.1327 44.8901C50.2544 45.5541 49.778 46.6164 49.3314 47.6197C48.1554 50.2903 47.0091 52.9757 45.8628 55.6611C46.3541 55.8382 46.9049 56.1185 47.4706 56.5316C47.6492 56.0005 47.8874 55.4988 48.1703 55.0119C49.8525 52.1937 53.3062 50.5707 54.393 47.5017Z" fill="#050202"/>
<path opacity="0.2" d="M30.7823 48.3427C31.5564 47.3689 32.405 46.4098 32.9707 45.318C33.2982 44.6983 33.5066 43.9015 33.0898 43.3408C31.4225 43.7097 30.038 44.8163 28.7279 45.8786C27.7752 46.6459 26.1674 47.5902 24.902 48.6378L24.7234 49.3313C24.7234 49.3313 27.9985 47.8263 30.7823 48.3427Z" fill="#050202"/>
<path opacity="0.2" d="M40.9202 51.7215C41.4114 52.1347 41.858 52.6511 42.2302 53.2855C42.8555 52.4445 43.5105 51.6182 44.1357 50.792C45.8477 48.4902 47.4406 45.9376 47.7532 43.09C47.8128 42.5145 47.6788 41.7473 47.0982 41.6735C46.86 41.644 46.6218 41.762 46.4134 41.8948C45.1778 42.6621 44.3739 43.9605 43.7338 45.2442C42.6619 47.3246 41.8729 49.5821 40.9202 51.7215Z" fill="#050202"/>
<path opacity="0.2" d="M37.6155 50.1722C39.253 47.2803 40.5482 44.1965 41.3967 40.9948C41.5456 40.4636 41.5605 39.7111 41.0245 39.5488C40.8161 39.4898 40.5779 39.5488 40.3844 39.6373C38.6724 40.3455 37.8685 42.2637 37.2284 43.99C36.5883 45.731 35.9332 47.4869 35.2931 49.2279C35.2038 49.4493 35.1294 49.6853 35.0251 49.9067C35.7397 49.9067 36.6627 49.9657 37.6155 50.1722Z" fill="#050202"/>
<path opacity="0.2" d="M55.2116 56.8119C55.1818 56.7086 55.1372 56.6201 55.0925 56.5316C54.6459 55.7643 53.4699 55.6905 52.6809 56.1332C51.8919 56.5758 51.4006 57.3726 50.8944 58.1103C50.6116 58.5087 50.3287 58.9071 50.031 59.2907C50.8349 60.4711 51.6388 62.0056 52.398 63.9827L55.2116 56.8119Z" fill="#050202"/>
<path d="M101.227 7.41284L74.2669 6.01113L73.0908 5.1701L47.9767 9.74409L46.8007 8.90307L21.6866 13.4771C21.6866 13.4771 15.8063 19.7479 15.9849 23.1415C16.0892 25.0006 20.6148 37.97 24.7086 49.3165C25.7954 48.7853 26.8672 48.1804 27.9093 47.5607C29.2938 46.7344 30.574 45.5392 31.9883 44.8015C32.9113 44.3294 33.864 45.0376 34.6233 44.4031C35.3081 43.8424 35.6653 42.7211 36.2757 42.0424C37.154 41.0685 38.3003 40.4636 39.6252 40.3603C41.0395 40.257 41.8434 40.8177 42.424 42.0276C42.677 42.544 42.5133 42.2489 42.811 42.7506C42.9599 42.6473 43.1236 42.5588 43.2874 42.485C44.1211 42.1014 45.0589 41.9833 45.9819 42.0866C47.8577 42.2784 48.9891 43.7982 49.3463 45.5688C49.3612 45.6278 49.3612 45.7016 49.3761 45.7753C50.7755 45.6425 52.3237 45.8786 53.1871 46.9852C54.4972 48.682 53.9017 51.1461 52.413 52.5035C51.892 52.9757 50.5819 53.4773 50.2991 54.1118C49.9865 54.7905 50.5373 56.1922 50.7308 56.8267C51.4156 59.1727 51.9515 61.563 52.413 63.968L114 55.3364L113.985 48.0033L101.227 7.41284Z" fill="#4C241E"/>
<path opacity="0.2" d="M81.9185 30.1352L80.7425 29.2942L55.6284 33.8682L53.6633 33.3075L47.3662 42.544C48.4232 43.1489 49.0782 44.2998 49.3313 45.5687C49.3462 45.6278 49.3462 45.7015 49.361 45.7753C50.7604 45.6425 52.3086 45.8786 53.1721 46.9852C54.4821 48.682 53.8866 51.1461 52.398 52.5035C51.8769 52.9756 50.5669 53.4773 50.284 54.1118C49.9714 54.7905 50.5222 56.1922 50.7157 56.8267C51.4005 59.1727 51.9365 61.5629 52.398 63.968L114 55.3364L113.985 48.0033L81.9185 30.1352Z" fill="#050202"/>
<path opacity="0.2" d="M27.1798 48.0181C24.9022 41.6735 22.6989 35.2994 20.7338 28.9106C19.5727 25.1186 18.5008 20.9135 18.7986 17.0477C17.3396 19.0249 15.9105 21.4447 15.9998 23.1415C16.104 25.0006 20.6296 37.97 24.7235 49.3165C25.5572 48.9181 26.3759 48.4755 27.1798 48.0181Z" fill="#050202"/>
<path opacity="0.2" d="M112.869 44.4474C111.752 44.2113 110.546 44.2703 109.921 44.7572C110.963 46.7196 110.01 49.2722 108.298 50.7181C106.586 52.1641 104.338 52.7543 102.15 53.2707C85.5958 57.1217 68.5802 58.4792 51.7432 60.899C51.9665 61.917 52.1898 62.9351 52.3833 63.968L114 55.3364L113.985 48.0033L112.869 44.4474Z" fill="#050202"/>
<path d="M46.8155 8.90309C46.8155 8.90309 43.6297 8.3424 41.1585 8.35716C41.1585 8.35716 23.7409 9.75887 21.7014 13.4771L28.6685 34.606L53.7528 31.3304L46.8155 8.90309Z" fill="#5B2C25"/>
<path d="M32.0627 25.1334L28.6685 34.6207L53.7528 31.3451L49.8077 23.0677L32.0627 25.1334Z" fill="#4C241E"/>
<path opacity="0.2" d="M53.7528 31.3451L49.8077 23.0677L49.3314 23.1267C49.7035 24.9268 49.0039 26.963 47.7087 28.3499C46.0712 30.091 43.7041 30.9763 41.352 31.5222C38.2109 32.2452 34.9507 32.4665 31.75 32.1566C31.229 32.1124 30.6931 32.0386 30.2465 31.7583C30.0678 31.6402 29.9487 31.4927 29.8445 31.3304L28.6685 34.6355L53.7528 31.3451Z" fill="#050202"/>
<path d="M46.8155 8.90309C46.8155 8.90309 43.6297 8.3424 41.1585 8.35716C41.1585 8.35716 23.7409 9.75887 21.7014 13.4771L28.6089 11.2639L46.0265 9.18343L46.8155 8.90309Z" fill="#381915"/>
<path d="M53.7526 31.3459L46.8154 8.90381L46.0115 9.1989L49.8076 23.0684L53.7526 31.3459Z" fill="#230E0C"/>
<path d="M30.1573 11.0868L44.8357 9.33094C45.5205 9.25716 46.1458 9.6703 46.3393 10.3343L49.406 21.5332C49.6293 22.3447 49.0785 23.1562 48.2299 23.2447L33.2686 25.0005C32.5839 25.0743 31.9288 24.6464 31.7651 23.9677L28.9812 12.7688C28.7877 11.972 29.3385 11.1753 30.1573 11.0868Z" fill="#603329"/>
<path d="M28.6089 11.2639C28.6089 11.2639 25.2743 11.6917 21.7014 13.4771L28.6684 34.606L32.0626 25.1186L28.6089 11.2639Z" fill="#773C32"/>
<path opacity="0.2" d="M29.2639 29.4418C28.8173 30.4303 28.3707 31.4189 27.939 32.4222L28.6684 34.6207L32.0626 25.1334L28.6089 11.2639C28.6089 11.2639 25.2743 11.6917 21.7014 13.4771L21.8801 14.0082C22.4309 13.8164 22.9668 13.5656 23.2943 13.5066C24.5299 13.2853 25.8548 13.4476 26.9118 14.141C28.46 15.1591 29.1597 17.0182 29.7403 18.7593C30.3804 20.6479 30.9908 22.6103 30.827 24.6022C30.6633 26.299 29.9636 27.8925 29.2639 29.4418Z" fill="#FFEDE9"/>
<path opacity="0.2" d="M49.3911 21.5332L48.8701 19.6446C47.694 21.0168 46.1309 22.0792 44.404 22.6546C42.2305 23.3776 39.8189 23.3333 37.6752 22.5513C36.7075 22.1972 35.7994 21.6955 34.936 21.1348C34.3256 20.7512 33.7301 20.3381 33.2538 19.7922C32.2266 18.6265 31.8842 16.974 31.9586 15.4247C32.0479 13.6542 32.6881 11.9721 33.8195 10.6589L30.1573 11.1016C29.3385 11.2049 28.7877 11.9869 28.9812 12.7836L31.7651 23.9825C31.9288 24.6465 32.569 25.0891 33.2686 25.0154L48.215 23.2743C49.0636 23.1415 49.6144 22.33 49.3911 21.5332Z" fill="#FFEDE9"/>
<path d="M73.1058 5.17012C73.1058 5.17012 69.92 4.60943 67.4488 4.62419C67.4488 4.62419 50.0312 6.02589 47.9917 9.7441L54.9587 30.873L80.043 27.5974L73.1058 5.17012Z" fill="#5B2C25"/>
<path d="M58.338 21.4004L54.9587 30.8878L80.0431 27.6122L76.098 19.32L58.338 21.4004Z" fill="#4C241E"/>
<path opacity="0.2" d="M80.0431 27.6122L76.098 19.3347L75.6217 19.3937C75.9938 21.1938 75.2941 23.23 73.999 24.6169C72.3614 26.358 69.9944 27.2433 67.6423 27.7892C64.5012 28.5122 61.241 28.7335 58.0403 28.4237C57.5193 28.3794 56.9833 28.3056 56.5367 28.0253C56.3581 27.9073 56.239 27.7597 56.1348 27.5974L54.9587 30.9025L80.0431 27.6122Z" fill="#050202"/>
<path d="M73.1058 5.17012C73.1058 5.17012 69.92 4.60943 67.4488 4.62419C67.4488 4.62419 50.0312 6.02589 47.9917 9.7441L54.8992 7.53088L72.3168 5.45046L73.1058 5.17012Z" fill="#381915"/>
<path d="M80.0429 27.6129L73.1056 5.17084L72.3018 5.46593L76.0979 19.3207L80.0429 27.6129Z" fill="#230E0C"/>
<path d="M56.4474 7.35379L71.1258 5.59797C71.8106 5.52419 72.4358 5.93733 72.6294 6.60129L75.6961 17.8002C75.9194 18.6117 75.3685 19.4232 74.52 19.5117L59.5736 21.2528C58.8888 21.3266 58.2338 20.8987 58.0701 20.22L55.2862 9.02108C55.0629 8.23908 55.6137 7.44232 56.4474 7.35379Z" fill="#603329"/>
<path d="M54.8992 7.53088C54.8992 7.53088 51.5645 7.95877 47.9917 9.7441L54.9587 30.873L58.3529 21.3856L54.8992 7.53088Z" fill="#773C32"/>
<path opacity="0.2" d="M55.5542 25.7088C55.1076 26.6974 54.661 27.6859 54.2293 28.6893L54.9587 30.8877L58.3529 21.4004L54.8992 7.53088C54.8992 7.53088 51.5645 7.95877 47.9917 9.7441L48.1703 10.2753C48.7212 10.0835 49.2571 9.83263 49.5846 9.77361C50.8202 9.55229 52.1451 9.71459 53.2021 10.4081C54.7503 11.4262 55.45 13.2853 56.0306 15.0263C56.6707 16.9149 57.2811 18.8773 57.1173 20.8692C56.9536 22.566 56.2539 24.1595 55.5542 25.7088Z" fill="#FFEDE9"/>
<path opacity="0.2" d="M75.6814 17.8002L75.1603 15.9116C73.9843 17.2838 72.4212 18.3462 70.6943 18.9216C68.5208 19.6446 66.1091 19.6003 63.9654 18.8183C62.9978 18.4642 62.0897 17.9626 61.2263 17.4019C60.6159 17.0182 60.0204 16.6051 59.544 16.0592C58.5169 14.8936 58.1745 13.241 58.2489 11.6918C58.3382 9.92119 58.9783 8.23914 60.1097 6.92596L56.4476 7.36861C55.6288 7.47189 55.078 8.2539 55.2715 9.05065L58.0554 20.2495C58.2191 20.9135 58.8593 21.3562 59.5589 21.2824L74.5053 19.5118C75.339 19.4085 75.8898 18.597 75.6814 17.8002Z" fill="#FFEDE9"/>
<path d="M99.3809 1.43714C99.3809 1.43714 96.1951 0.876462 93.7239 0.891216C93.7239 0.891216 76.3063 2.29292 74.2668 6.01113L81.2339 27.1548L106.318 23.8792L99.3809 1.43714Z" fill="#5B2C25"/>
<path d="M84.6281 17.6675L81.2339 27.1548L106.333 23.8792L102.373 15.587L84.6281 17.6675Z" fill="#4C241E"/>
<path opacity="0.2" d="M106.333 23.8793L102.388 15.6018L101.897 15.6461C102.269 17.4462 101.569 19.4823 100.274 20.8693C98.6366 22.6103 96.2696 23.4956 93.9175 24.0416C90.7763 24.7645 87.5161 24.9859 84.3155 24.676C83.7944 24.6317 83.2585 24.558 82.8119 24.2776C82.6332 24.1596 82.5142 24.012 82.4099 23.8497L81.2339 27.1548L106.333 23.8793Z" fill="#050202"/>
<path d="M99.3809 1.43714C99.3809 1.43714 96.1951 0.876462 93.7239 0.891216C93.7239 0.891216 76.3063 2.29292 74.2668 6.01113L81.1743 3.79791L98.5919 1.71749L99.3809 1.43714Z" fill="#381915"/>
<path d="M106.333 23.8799L99.381 1.43787L98.592 1.73296L102.373 15.5877L106.333 23.8799Z" fill="#230E0C"/>
<path d="M82.7225 3.62082L97.4009 1.865C98.0857 1.79122 98.711 2.20436 98.9045 2.86832L101.971 14.0672C102.194 14.8787 101.644 15.6902 100.795 15.7788L85.8488 17.5198C85.164 17.5936 84.509 17.1657 84.3452 16.487L81.5614 5.28811C81.3529 4.50611 81.9038 3.70935 82.7225 3.62082Z" fill="#603329"/>
<path d="M81.1743 3.79791C81.1743 3.79791 77.8397 4.2258 74.2668 6.01113L81.2339 27.1548L84.628 17.6674L81.1743 3.79791Z" fill="#773C32"/>
<path opacity="0.2" d="M81.8442 21.9758C81.3976 22.9644 80.951 23.953 80.5193 24.9563L81.2488 27.1548L84.643 17.6674L81.1892 3.79791C81.1892 3.79791 77.8546 4.2258 74.2817 6.01113L74.4604 6.54231C75.0112 6.35049 75.5471 6.09966 75.8746 6.04064C77.1102 5.81932 78.4352 5.98162 79.4921 6.6751C81.0404 7.69318 81.74 9.55229 82.3206 11.2934C82.9608 13.182 83.5711 15.1444 83.4074 17.1363C83.2436 18.8331 82.529 20.4266 81.8442 21.9758Z" fill="#FFEDE9"/>
<path opacity="0.2" d="M101.956 14.0673L101.45 12.1787C100.274 13.5509 98.711 14.6132 96.9841 15.1886C94.8106 15.9116 92.3989 15.8674 90.2552 15.0854C89.2876 14.7312 88.3795 14.2296 87.5161 13.6689C86.9057 13.2853 86.3102 12.8721 85.8338 12.3262C84.8067 11.1606 84.4643 9.50805 84.5387 7.9588C84.628 6.18822 85.2681 4.50617 86.3995 3.19299L82.7374 3.63564C81.9186 3.73892 81.3678 4.52093 81.5613 5.31768L84.3452 16.5166C84.5089 17.1805 85.149 17.6232 85.8487 17.5494L100.795 15.8084C101.629 15.6756 102.18 14.864 101.956 14.0673Z" fill="#FFEDE9"/>
<path d="M31.9883 44.8163C32.9112 44.3441 33.864 45.0524 34.6232 44.4179C35.308 43.8572 35.6653 42.7359 36.2757 42.0571C37.154 41.0833 38.3003 40.4784 39.6252 40.3751C41.0394 40.2718 41.8433 40.8325 42.4239 42.0424C42.677 42.5588 42.5132 42.2637 42.811 42.7654C42.9598 42.6621 43.1236 42.5736 43.2874 42.4998C44.121 42.1162 45.0589 41.9981 45.9819 42.1014C47.8576 42.2932 48.989 43.813 49.3463 45.5835C49.3612 45.6426 49.3612 45.7163 49.3761 45.7901C50.7754 45.6573 52.3237 45.8934 53.1871 47C54.4971 48.6968 53.9017 51.1609 52.413 52.5183C51.8919 52.9905 50.5819 53.4921 50.2991 54.1266C49.9864 54.8053 50.5372 56.207 50.7308 56.8415C50.7308 56.8562 50.7457 56.871 50.7457 56.8857L61.4344 55.484L54.4971 33.0567C54.4971 33.0567 51.3114 32.496 48.8401 32.5108C48.8401 32.5108 31.4226 33.9125 29.3831 37.6307L31.7947 44.9638C31.8394 44.9048 31.9138 44.8606 31.9883 44.8163Z" fill="#5B2C25"/>
<path d="M52.3833 52.5035C51.8622 52.9757 50.5522 53.4773 50.2693 54.1118C49.9567 54.7905 50.5075 56.1922 50.7011 56.8267C50.7011 56.8414 50.7159 56.8562 50.7159 56.8709L61.4047 55.4692L57.4597 47.1918L53.5593 47.6492C54.3037 49.2722 53.6933 51.3231 52.3833 52.5035Z" fill="#4C241E"/>
<path opacity="0.2" d="M50.701 56.812C50.701 56.8268 50.7159 56.8415 50.7159 56.8563L61.4046 55.4546L57.4596 47.1771L56.9832 47.2361C57.3554 49.0362 56.6557 51.0724 55.3606 52.4593C54.0208 53.8906 52.1748 54.7463 50.2693 55.307C50.3884 55.8825 50.5968 56.4726 50.701 56.812Z" fill="#050202"/>
<path d="M54.4673 33.0419C54.4673 33.0419 51.2816 32.4813 48.8103 32.496C48.8103 32.496 31.3928 33.8977 29.3533 37.6159L36.2608 35.4027L53.6783 33.3223L54.4673 33.0419Z" fill="#381915"/>
<path d="M61.4045 55.47L54.4672 33.0427L53.6633 33.323L57.4595 47.1925L61.4045 55.47Z" fill="#230E0C"/>
<path d="M57.0427 45.6573L53.976 34.4584C53.7974 33.8092 53.1572 33.3813 52.4724 33.4551L37.794 35.2109C36.9752 35.3142 36.4244 36.0962 36.618 36.893L37.6303 40.9653C38.2257 40.6407 38.8956 40.4194 39.6102 40.3751C41.0245 40.2718 41.8283 40.8325 42.4089 42.0424C42.662 42.5588 42.4983 42.2637 42.796 42.7654C42.9449 42.6621 43.1086 42.5736 43.2724 42.4998C44.106 42.1162 45.0439 41.9981 45.9669 42.1014C47.8426 42.2932 48.974 43.813 49.3313 45.5835C49.3462 45.6426 49.3462 45.7163 49.3611 45.7901C50.7604 45.6573 52.3087 45.8934 53.1721 47C53.3359 47.2066 53.4699 47.4279 53.5741 47.6492L55.8815 47.3836C56.7003 47.2803 57.266 46.4688 57.0427 45.6573Z" fill="#603329"/>
<path d="M31.9882 44.8163C32.9112 44.3441 33.864 45.0524 34.6232 44.4179C35.308 43.8572 35.6653 42.7358 36.2756 42.0571C36.6776 41.6145 37.1391 41.2456 37.6452 40.9653L36.2608 35.3879C36.2608 35.3879 32.9261 35.8158 29.3533 37.6012L31.7649 44.9343C31.8394 44.9048 31.9138 44.8605 31.9882 44.8163Z" fill="#773C32"/>
<path opacity="0.2" d="M30.9313 37.6307C32.1669 37.4094 33.4918 37.5717 34.5488 38.2652C35.6802 39.0177 36.3501 40.2128 36.8711 41.4817C37.1093 41.2752 37.3773 41.0981 37.6452 40.9506L36.2608 35.3732C36.2608 35.3732 32.9261 35.8011 29.3533 37.5865L29.5319 38.1176C30.0678 37.9406 30.6038 37.6897 30.9313 37.6307Z" fill="#FFEDE9"/>
<path opacity="0.2" d="M37.6454 40.9653C38.2409 40.6407 38.8959 40.4341 39.6105 40.3751C39.5956 40.0947 39.5956 39.8144 39.6105 39.5488C39.6998 37.7782 40.3399 36.0962 41.4713 34.783L37.8092 35.2257C36.9904 35.3289 36.4396 36.1109 36.6331 36.9077L37.6454 40.9653Z" fill="#FFEDE9"/>
<path opacity="0.2" d="M57.0428 45.6573L56.5217 43.7687C55.4945 44.9638 54.1696 45.9229 52.7107 46.5278C52.8744 46.6606 53.0233 46.8082 53.1573 46.9852C53.3211 47.1918 53.455 47.4131 53.5592 47.6344L55.8667 47.3688C56.7004 47.2803 57.2661 46.4688 57.0428 45.6573Z" fill="#FFEDE9"/>
<path d="M80.7425 29.2942C80.7425 29.2942 77.5567 28.7335 75.0855 28.7483C75.0855 28.7483 57.6679 30.15 55.6284 33.8682L62.5954 55.0118L87.6797 51.7363L80.7425 29.2942Z" fill="#5B2C25"/>
<path d="M65.9897 45.5244L62.5955 55.0117L87.6947 51.7362L83.7496 43.4587L65.9897 45.5244Z" fill="#4C241E"/>
<path opacity="0.2" d="M87.6947 51.7362L83.7496 43.4587L83.2733 43.5178C83.6454 45.3178 82.9458 47.354 81.6506 48.741C80.013 50.482 77.646 51.3673 75.2939 51.9132C72.1528 52.6362 68.8926 52.8575 65.6919 52.5477C65.1709 52.5034 64.635 52.4297 64.1884 52.1493C64.0097 52.0313 63.8906 51.8837 63.7864 51.7214L62.6104 55.0265L87.6947 51.7362Z" fill="#050202"/>
<path d="M80.7425 29.2942C80.7425 29.2942 77.5567 28.7335 75.0855 28.7483C75.0855 28.7483 57.6679 30.15 55.6284 33.8682L62.5359 31.655L79.9535 29.5745L80.7425 29.2942Z" fill="#381915"/>
<path d="M87.6948 51.7369L80.7426 29.2949L79.9536 29.59L83.7498 43.4595L87.6948 51.7369Z" fill="#230E0C"/>
<path d="M64.0841 31.4779L78.7625 29.7221C79.4473 29.6483 80.0726 30.0615 80.2661 30.7254L83.3328 41.9243C83.5561 42.7359 83.0053 43.5474 82.1567 43.6359L67.2103 45.377C66.5255 45.4507 65.8705 45.0228 65.7068 44.3441L62.9229 33.1452C62.7145 32.3632 63.2653 31.5665 64.0841 31.4779Z" fill="#603329"/>
<path d="M62.5359 31.655C62.5359 31.655 59.2013 32.0829 55.6284 33.8682L62.5955 55.0118L65.9896 45.5245L62.5359 31.655Z" fill="#773C32"/>
<path opacity="0.2" d="M63.2058 49.8329C62.7592 50.8215 62.3126 51.81 61.8809 52.8134L62.6103 55.0118L66.0045 45.5245L62.5508 31.655C62.5508 31.655 59.2161 32.0829 55.6433 33.8682L55.822 34.3994C56.3728 34.2076 56.9087 33.9567 57.2362 33.8977C58.4718 33.6764 59.7967 33.8387 60.8537 34.5322C62.4019 35.5502 63.1016 37.4093 63.6822 39.1504C64.3223 41.039 64.9327 43.0014 64.7689 44.9933C64.6052 46.6901 63.8906 48.2836 63.2058 49.8329Z" fill="#FFEDE9"/>
<path opacity="0.2" d="M83.3181 41.9243L82.797 40.0357C81.621 41.4079 80.0579 42.4703 78.331 43.0457C76.1575 43.7687 73.7459 43.7244 71.6021 42.9424C70.6345 42.5883 69.7264 42.0866 68.863 41.526C68.2526 41.1423 67.6571 40.7292 67.1808 40.1833C66.1536 39.0176 65.8112 37.3651 65.8856 35.8158C65.9749 34.0453 66.6151 32.3632 67.7465 31.05L64.0843 31.4927C63.2655 31.596 62.7147 32.378 62.9082 33.1747L65.6921 44.3736C65.8558 45.0376 66.496 45.4802 67.1956 45.4065L82.142 43.6654C82.9906 43.5326 83.5414 42.7211 83.3181 41.9243Z" fill="#FFEDE9"/>
<path d="M107.033 25.5612C107.033 25.5612 103.847 25.0005 101.376 25.0153C101.376 25.0153 83.9582 26.417 81.9187 30.1352L88.8857 51.2641L113.97 47.9885L107.033 25.5612Z" fill="#5B2C25"/>
<path d="M92.2799 41.7915L88.8857 51.2788L113.97 48.0033L110.025 39.7111L92.2799 41.7915Z" fill="#4C241E"/>
<path opacity="0.2" d="M113.97 48.0033L110.025 39.7258L109.549 39.7848C109.921 41.5849 109.221 43.6211 107.926 45.008C106.288 46.7491 103.921 47.6344 101.569 48.1803C98.4282 48.9033 95.168 49.1246 91.9673 48.8148C91.4463 48.7705 90.9103 48.6967 90.4637 48.4164C90.2851 48.2984 90.166 48.1508 90.0618 47.9885L88.8857 51.2936L113.97 48.0033Z" fill="#050202"/>
<path d="M107.033 25.5612C107.033 25.5612 103.847 25.0005 101.376 25.0153C101.376 25.0153 83.9582 26.417 81.9187 30.1352L88.8262 27.922L106.244 25.8416L107.033 25.5612Z" fill="#381915"/>
<path d="M113.97 48.004L107.033 25.562L106.229 25.857L110.025 39.7118L113.97 48.004Z" fill="#230E0C"/>
<path d="M90.3744 27.7449L105.053 25.9891C105.738 25.9153 106.363 26.3284 106.556 26.9924L109.623 38.1913C109.846 39.0028 109.296 39.8143 108.447 39.9029L93.5006 41.6439C92.8158 41.7177 92.1608 41.2898 91.9971 40.6111L89.2132 29.4122C89.0048 28.6302 89.5556 27.8334 90.3744 27.7449Z" fill="#603329"/>
<path d="M88.8262 27.922C88.8262 27.922 85.4915 28.3499 81.9187 30.1352L88.8857 51.2641L92.2799 41.7768L88.8262 27.922Z" fill="#773C32"/>
<path opacity="0.2" d="M89.4812 46.0999C89.0346 47.0885 88.588 48.0771 88.1563 49.0804L88.8857 51.2789L92.2799 41.7915L88.8262 27.922C88.8262 27.922 85.4915 28.3499 81.9187 30.1352L82.0973 30.6664C82.6482 30.4746 83.1841 30.2237 83.5116 30.1647C84.7472 29.9434 86.0721 30.1057 87.1291 30.7992C88.6773 31.8173 89.377 33.6764 89.9576 35.4174C90.5977 37.3061 91.2081 39.2685 91.0443 41.2604C90.8806 42.9572 90.1809 44.5507 89.4812 46.0999Z" fill="#FFEDE9"/>
<path opacity="0.2" d="M109.608 38.1914L109.087 36.3028C107.911 37.6749 106.348 38.7373 104.621 39.3127C102.448 40.0357 100.036 39.9915 97.8924 39.2095C96.9248 38.8553 96.0167 38.3537 95.1533 37.793C94.5429 37.4094 93.9474 36.9962 93.471 36.4503C92.4439 35.2847 92.1015 33.6321 92.1759 32.0829C92.2652 30.3123 92.9053 28.6303 94.0367 27.3171L90.3746 27.7597C89.5558 27.863 89.005 28.645 89.1985 29.4418L91.9824 40.6407C92.1461 41.3046 92.7863 41.7473 93.4859 41.6735L108.432 39.9324C109.281 39.7996 109.832 38.9881 109.608 38.1914Z" fill="#FFEDE9"/>
<path opacity="0.5" d="M52.532 44.6983C51.4006 44.0048 50.5521 44.2261 49.8226 42.972C48.8103 41.2014 47.3216 40.3014 45.1928 40.5079C44.6867 40.5522 44.1507 40.862 43.6744 40.8768C42.5727 40.9358 42.5132 40.3604 41.7688 39.903C41.0096 39.4308 40.0271 39.3275 39.1636 39.4751C37.0795 39.8144 35.5312 41.585 34.7869 43.4441C34.7571 43.5327 34.8762 43.6212 34.9507 43.5622C36.484 42.4408 38.3598 40.0358 40.5332 41.1129C41.2329 41.467 41.5009 42.1605 42.3345 42.2933C43.2129 42.4408 44.0019 41.8801 44.8504 41.7621C45.9223 41.6145 46.9643 42.2047 47.664 43.0015C48.1851 43.5917 48.3339 44.4032 48.9443 44.9196C49.4356 45.318 49.9119 45.3475 50.5074 45.4803C51.3113 45.6574 51.7877 45.8492 52.4427 46.3213C52.8 46.5722 52.8149 46.764 53.2764 46.9705C53.5146 47.0738 53.8272 46.9558 53.8272 46.6607C53.8123 45.7606 53.2764 45.1409 52.532 44.6983Z" fill="#FFEDE9"/>
<path opacity="0.5" d="M42.6176 42.8982C42.6027 42.8539 42.5431 42.8244 42.4985 42.8539C41.8881 43.2375 41.7244 44.0933 41.4564 44.7278C41.1438 45.4655 40.6972 46.218 40.6078 47.0295C40.593 47.2066 40.8311 47.2804 40.9502 47.1623C41.5457 46.6312 41.8286 45.8344 42.1263 45.1114C42.3943 44.4474 42.8855 43.6212 42.6176 42.8982Z" fill="#FFEDE9"/>
<path opacity="0.5" d="M40.563 47.841C40.5332 47.7672 40.3993 47.7524 40.3546 47.8114C40.1462 48.0475 40.0717 48.2836 39.9675 48.5787C39.8782 48.8443 39.7145 49.1541 39.7889 49.4345C39.8336 49.582 39.9824 49.6115 40.1015 49.5525C40.3993 49.4197 40.5332 49.0213 40.6077 48.741C40.6821 48.4164 40.7119 48.136 40.563 47.841Z" fill="#FFEDE9"/>
<path opacity="0.5" d="M48.6617 45.6278C48.0216 46.5131 47.6643 47.5754 47.173 48.5492C46.7264 49.4345 46.2649 50.2756 45.9523 51.2199C45.8927 51.3822 46.1309 51.5002 46.2351 51.3822C47.5749 49.9657 48.8254 47.6787 49.0636 45.7311C49.0934 45.5098 48.7659 45.4803 48.6617 45.6278Z" fill="#FFEDE9"/>
<path opacity="0.5" d="M45.4459 52.297C45.4459 52.2232 45.3417 52.1937 45.297 52.2527C45.1928 52.4298 45.0141 52.5478 44.9099 52.7249C44.8057 52.9019 44.7164 53.079 44.6122 53.256C44.4038 53.6102 44.2251 53.9643 44.0316 54.3184C43.9572 54.4512 44.106 54.5987 44.24 54.525C44.6271 54.2889 44.9695 53.9938 45.2077 53.5954C45.3119 53.4183 45.4012 53.2265 45.4607 53.02C45.5352 52.7544 45.4459 52.5773 45.4459 52.297Z" fill="#FFEDE9"/>
<path opacity="0.5" d="M85.0746 54.6134C82.4099 54.4068 79.7452 54.8495 77.0804 54.8495C74.505 54.8642 71.9891 54.997 69.4286 55.2626C66.9872 55.5282 64.5606 55.8528 62.1341 56.1922C59.4544 56.561 56.9981 57.343 54.4078 58.0808C54.0654 58.184 54.1398 58.7005 54.4971 58.7005C57.1916 58.7152 59.7671 58.8185 62.4616 58.5234C65.0072 58.2431 67.5529 57.948 70.0985 57.6381C72.5251 57.343 74.907 56.9299 77.2888 56.4282C79.8792 55.8823 82.5737 55.8085 85.1342 55.1151C85.4468 55.0413 85.3575 54.6429 85.0746 54.6134Z" fill="#FFEDE9"/>
<path opacity="0.5" d="M100.765 51.6625C99.2767 51.5002 97.8029 51.8838 96.3291 52.1199C94.5129 52.4003 92.6818 52.6658 90.8656 52.9019C90.285 52.9757 90.2553 53.8757 90.8656 53.8315C92.7414 53.6692 94.6171 53.4921 96.4929 53.256C97.9965 53.0642 99.5596 52.9757 100.944 52.3265C101.286 52.1494 101.063 51.692 100.765 51.6625Z" fill="#FFEDE9"/>
<path d="M30.9313 53.0937C30.574 51.9133 29.0555 51.5444 27.939 51.5444C26.629 51.5592 25.438 51.9428 24.649 52.9904C24.2471 53.5216 24.7979 54.2593 25.3934 54.2593C26.3015 54.2593 27.1947 54.0085 28.1028 54.0232C28.9364 54.038 29.8148 54.2741 30.5889 53.9052C30.8866 53.7872 31.0206 53.374 30.9313 53.0937Z" fill="#4C241E"/>
<path d="M36.6776 54.6429C36.3947 54.4216 36.0523 54.2445 35.6951 54.1708C35.5611 54.1413 35.4271 54.1413 35.2931 54.1117C35.3675 54.156 35.3378 54.1413 35.2038 54.0822C35.1294 54.038 35.0549 54.0232 34.9656 54.0232C34.6381 53.979 34.3404 54.2741 34.519 54.5987C34.5785 54.7019 34.6381 54.7757 34.7125 54.8642C34.787 55.2626 34.9507 55.6315 35.1294 55.9856C35.3675 56.4725 35.7844 57.1217 36.365 57.2103C36.7371 57.2693 37.1986 57.1808 37.3921 56.7971C37.8239 55.9709 37.3475 55.1593 36.6776 54.6429Z" fill="#4C241E"/>
<path d="M40.2653 58.6121C40.0271 58.8039 40.0569 59.217 40.2653 59.4236C41.233 60.3531 42.5579 60.781 43.4958 61.7696C44.4485 62.7877 44.6867 64.2927 45.699 65.2075C46.0712 65.5468 46.7262 65.6206 47.0835 65.2075C49.8524 62.0352 43.466 55.9562 40.2653 58.6121Z" fill="#4C241E"/>
<path d="M55.1971 67.8191C53.1873 67.3764 50.9245 68.1584 48.8999 68.3207C48.3491 68.365 48.096 69.088 48.6171 69.3978C49.8676 70.1356 50.9394 70.4897 52.4281 70.3274C53.6637 70.1946 54.8695 69.7814 55.5543 68.7043C55.7628 68.3797 55.5692 67.8928 55.1971 67.8191Z" fill="#4C241E"/>
<path d="M69.0415 64.868C67.7761 64.1746 66.6745 64.2041 65.2602 64.4844C64.5755 64.6172 63.8758 64.7943 63.2356 65.0893C62.5955 65.3697 62.0447 65.9599 61.4046 66.2107C60.9877 66.373 61.0324 66.978 61.5088 67.0075C62.134 67.037 62.7593 67.3763 63.3845 67.4649C64.114 67.5534 64.8583 67.5239 65.5878 67.4354C67.0467 67.273 68.1632 66.9632 69.1755 65.8861C69.4583 65.591 69.4286 65.0746 69.0415 64.868Z" fill="#4C241E"/>
<path d="M81.9338 62.5959C81.1894 62.2565 80.4302 62.2713 79.6263 62.3893C79.1648 62.4631 78.6884 62.5221 78.227 62.6107C77.7208 62.7139 77.2146 62.9353 76.7234 63.009C76.113 63.0828 75.8302 64.0566 76.5596 64.1894C77.6761 64.396 78.5545 64.6763 79.7156 64.5288C80.6833 64.4107 81.5318 64.1157 82.1273 63.3189C82.2762 63.1123 82.172 62.7139 81.9338 62.5959Z" fill="#4C241E"/>
<path d="M22.0586 49.4493C21.9097 49.1099 21.478 48.8738 21.1653 48.682C20.942 48.5345 20.689 48.4164 20.4657 48.2689C20.2126 48.0918 19.7958 48.1509 19.5725 48.3279C19.3045 48.5345 19.2152 48.8443 19.2896 49.1689C19.3789 49.6116 19.5725 50.01 19.8851 50.3346C20.2573 50.7182 20.942 51.0428 21.478 50.8657C22.1181 50.6444 22.3265 50.01 22.0586 49.4493Z" fill="#4C241E"/>
<path d="M85.4914 62.9794C85.0151 62.6991 84.3451 62.8171 83.9581 63.2007C83.8539 63.304 83.7497 63.4368 83.6752 63.5696C83.6157 63.6581 83.571 63.7614 83.5561 63.8647C83.5413 63.9385 83.5413 64.027 83.5264 64.1008C83.5561 64.3516 83.5561 64.4106 83.5561 64.2631C83.5859 64.5287 83.7497 64.8385 84.0325 64.8828L83.9581 64.8533C84.0325 64.8828 84.0921 64.9123 84.1665 64.9418C84.2558 64.9713 84.36 64.9713 84.4494 64.9713C84.5685 64.9713 84.6875 64.9565 84.8215 64.9418C85.2235 64.8828 85.6254 64.6762 85.8338 64.3221C86.1018 63.8352 85.9529 63.245 85.4914 62.9794Z" fill="#4C241E"/>
<path d="M89.5853 60.722C89.1387 60.4859 88.6772 60.5007 88.2306 60.722C87.903 60.8843 87.7095 61.2236 87.5606 61.5483C87.4267 61.8581 87.4415 62.1975 87.7393 62.404C88.0072 62.6106 88.3794 62.5811 88.6176 62.345C88.6176 62.345 88.6176 62.345 88.6325 62.3303C88.6325 62.3303 88.6325 62.3303 88.6474 62.3303C88.6772 62.3303 88.6772 62.3155 88.692 62.3155C88.6772 62.3155 88.6623 62.3155 88.6474 62.3155C88.7069 62.3007 88.7814 62.3007 88.8409 62.286C88.9153 62.2565 88.96 62.2417 88.9898 62.227C89.0196 62.227 89.0493 62.2122 89.0642 62.2122C89.1089 62.1975 89.1535 62.1975 89.1982 62.1827C89.3322 62.1384 89.4662 62.0647 89.5853 62.0057C90.1063 61.7696 90.0616 60.9728 89.5853 60.722Z" fill="#4C241E"/>
<path d="M102.358 60.6777C101.078 60.176 99.7382 60.3531 98.4282 60.6334C97.0735 60.9138 95.6295 61.2089 94.4832 62.0351C93.7835 62.5368 93.8579 63.5844 94.7214 63.8647C97.0884 64.6025 101.078 63.85 102.671 61.8876C103.043 61.4449 102.894 60.899 102.358 60.6777Z" fill="#4C241E"/>
<path d="M58.3231 68.4386C57.8169 68.2763 57.3554 68.3649 56.8939 68.6009C56.1347 68.9846 56.1496 70.2092 56.8939 70.5781C57.3554 70.8142 57.8169 70.8879 58.3231 70.7256C58.8143 70.5633 59.2163 70.1059 59.2163 69.5748C59.2163 69.0436 58.8143 68.5862 58.3231 68.4386Z" fill="#4C241E"/>
<path d="M44.5528 68.5715C44.4635 68.4535 44.4188 68.3502 44.2997 68.2469C44.1955 68.1731 44.0615 68.0994 43.9425 68.0699C43.7638 68.0256 43.5703 68.0256 43.3916 68.0551C43.1386 68.0846 42.9301 68.1731 42.7366 68.3207C42.6324 68.4092 42.558 68.4978 42.4984 68.601C42.1114 68.9552 42.3644 69.5896 42.8557 69.6634C42.9004 69.6929 42.945 69.7076 42.9599 69.7224C43.0641 69.7519 43.1832 69.7667 43.2874 69.7814C43.4065 69.8109 43.5256 69.7962 43.6447 69.7667H43.6596C43.6596 69.7667 43.6894 69.7667 43.734 69.7667C43.8382 69.7667 43.9425 69.7519 44.0318 69.7076C44.2402 69.6191 44.4933 69.4716 44.5826 69.2355C44.6719 69.0289 44.6719 68.7486 44.5528 68.5715Z" fill="#4C241E"/>
</g>
<defs>
<clipPath id="clip0">
<rect width="55" height="48.9358" fill="white" transform="translate(0 46)"/>
</clipPath>
<clipPath id="clip1">
<rect width="98" height="69.9083" fill="white" transform="translate(16 0.891235)"/>
</clipPath>
</defs>
</svg>
