<svg width="106" height="102" viewBox="0 0 106 102" fill="none" xmlns="http://www.w3.org/2000/svg">
<g clip-path="url(#clip0)">
<path d="M105.404 48.5362C105.581 51.8864 61.956 101.258 57.6288 101.963C53.3017 102.669 0.404261 56.1183 0.404261 52.5917C0.404261 52.4154 0.139333 49.4179 0.58088 48.8007C0.845809 48.4481 1.55228 50.564 1.99383 50.1232C10.1183 39.9844 47.12 4.36633 50.6524 4.36633C54.6263 4.36633 93.8357 35.9288 103.373 45.8032C103.991 46.4203 104.698 44.3044 105.051 44.7452C105.404 45.2742 105.404 48.2717 105.404 48.5362Z" fill="#C34206"/>
<path d="M104.963 44.7452C105.14 48.0954 61.78 97.2024 57.4529 97.8196C53.1257 98.5249 0.581543 52.1509 0.581543 48.7125C0.669852 45.5386 46.5908 0.839783 50.5647 0.839783C55.0685 0.839783 104.875 41.395 104.963 44.7452Z" fill="url(#paint0_linear)"/>
<path d="M86.5942 34.0774C86.5942 34.6946 79.1763 43.1582 78.3815 43.2464C77.675 43.3346 68.5791 35.3999 68.5791 34.7827C68.5791 34.2537 76.527 26.4954 77.1451 26.4954C78.0282 26.5835 86.5942 33.5484 86.5942 34.0774Z" fill="#C34206"/>
<path d="M99.7525 45.2741C99.7525 45.8913 92.3345 54.355 91.5397 54.4431C90.8332 54.5313 81.7373 46.5966 81.7373 45.9794C81.7373 45.4505 89.6852 37.6921 90.3033 37.6921C91.1864 37.6921 99.7525 44.657 99.7525 45.2741Z" fill="#C34206"/>
<path d="M89.0669 57.7934C89.0669 58.4105 81.6489 66.786 80.8541 66.9624C80.1476 67.1387 71.0518 59.1158 71.0518 58.4987C71.0518 57.9697 78.9996 50.2113 79.6178 50.2113C80.4126 50.2995 88.9786 57.2644 89.0669 57.7934Z" fill="#C34206"/>
<path d="M73.4363 66.2571C73.4363 66.2571 78.5582 69.431 78.2933 70.3126C78.0283 71.1942 70.4337 79.3053 68.7559 78.8644C67.078 78.4236 64.6053 75.0734 63.8105 74.6326C63.104 74.2799 73.4363 66.2571 73.4363 66.2571Z" fill="#C34206"/>
<path d="M59.9248 76.2196C59.9248 76.2196 66.0182 79.4816 65.8416 81.1567C65.6649 82.8318 57.8054 91.4718 55.3327 90.4139C52.8601 89.3559 45.7953 84.0661 46.1485 82.6555C46.6784 81.1567 53.5665 74.0155 59.9248 76.2196Z" fill="#C34206"/>
<path d="M74.2309 23.3215C74.2309 23.9386 65.7532 32.755 64.9584 32.8431C64.2519 32.9313 55.5093 24.5558 55.5093 24.0268C55.5093 23.4978 63.7221 15.6512 64.4285 15.6512C65.2233 15.6512 74.2309 22.7043 74.2309 23.3215Z" fill="#C34206"/>
<path d="M60.6312 13.2708C60.6312 13.888 53.4782 21.3819 52.6834 21.47C51.9769 21.5582 42.1746 13.359 42.1746 12.7418C42.1746 12.2129 49.4159 5.33612 50.1224 5.33612C50.9172 5.42428 60.6312 12.6537 60.6312 13.2708Z" fill="#C34206"/>
<path d="M49.8575 22.7043C49.8575 23.3214 42.2629 30.4627 41.5564 30.5508C40.8499 30.639 31.4008 21.9108 31.4891 21.2937C31.5774 20.7647 39.0838 14.2406 39.7902 14.3288C40.4967 14.3288 49.8575 22.0871 49.8575 22.7043Z" fill="#C34206"/>
<path d="M46.8551 66.9624C46.8551 66.9624 52.9484 70.2244 52.7718 71.8995C52.5952 73.5746 44.7357 82.2146 42.263 81.1567C39.8786 80.0987 32.7256 74.8089 33.0788 73.3983C33.6087 71.8995 40.4968 64.6701 46.8551 66.9624Z" fill="#C34206"/>
<path d="M24.5128 49.506C24.5128 50.1231 17.3598 57.617 16.565 57.7052C15.8585 57.7934 6.05615 49.5942 6.05615 48.977C6.05615 48.448 13.2975 41.5713 14.004 41.5713C14.7988 41.6595 24.5128 48.977 24.5128 49.506Z" fill="#C34206"/>
<path opacity="0.6" d="M23.3647 26.5835C23.3647 26.5835 3.40672 44.9215 2.43532 47.8309C1.46391 50.7403 5.0846 52.6799 10.0299 57.088C14.9753 61.5844 18.0661 61.8489 15.4168 58.675C11.5312 54.1786 1.72884 49.7705 6.05601 46.3321C9.94163 43.1582 26.7204 27.9059 23.3647 26.5835Z" fill="white"/>
<path opacity="0.7" d="M71.2285 28.8757C71.6701 28.9639 75.9972 26.2308 76.792 24.1149L76.8803 24.2031C79.6179 26.4953 84.6516 30.3745 89.0671 33.6366C88.2723 34.43 87.3892 35.3117 86.5061 36.2815C82.0906 40.9541 78.9998 45.186 79.5296 45.715C80.0595 46.1558 84.0334 42.8056 88.4489 38.0447C89.4203 36.9868 90.3034 36.017 91.0982 35.1354C97.0149 39.4554 100.812 41.8358 93.9241 35.6643C81.4724 24.4676 63.1041 10.8022 59.4834 7.80469C55.8627 4.80713 52.5069 1.63325 50.4758 1.80958C48.4447 1.9859 33.5204 15.4749 37.3177 15.2986C37.3177 15.2986 38.2891 14.3288 39.6137 12.9182C40.0553 13.5353 40.8501 14.2406 41.7332 15.0341C43.4994 16.5329 45.1772 17.5027 45.4422 17.15C45.7071 16.7974 44.5591 15.2986 42.7929 13.7998C41.9981 13.0945 41.115 12.4774 40.4968 12.1247C44.1175 8.59816 49.8576 3.57285 51.3589 4.45448C53.39 5.77693 67.3429 16.4447 74.9375 22.4398C75.4674 24.2031 70.1688 28.6994 71.2285 28.8757Z" fill="white"/>
<path opacity="0.5" d="M102.843 45.186C102.578 44.9215 98.6045 49.5941 92.5112 56.7354C91.7164 56.0301 90.9216 55.2366 89.9502 54.4431C85.9763 51.0048 82.4439 48.6243 82.0907 49.0652C81.7374 49.506 84.6516 52.5917 88.6256 56.0301C89.5087 56.8235 90.3917 57.5288 91.2748 58.2342C88.2723 61.7607 84.9166 65.728 81.1192 70.0481C68.9325 83.9779 57.8055 94.9101 58.2471 95.351C58.6886 95.7918 69.9039 85.7411 82.0023 71.8113C94.1891 57.8815 103.285 45.5386 102.843 45.186Z" fill="white"/>
<path opacity="0.5" d="M56.0392 94.822C55.686 95.2628 51.6237 93.4114 49.416 91.8245C47.2083 90.2375 44.7356 87.4163 45.0888 86.9755C45.4421 86.5347 48.7095 88.5624 50.9173 90.1494C53.125 91.7363 56.3925 94.3812 56.0392 94.822Z" fill="white"/>
<path opacity="0.5" d="M58.6886 15.4749C58.6886 15.9157 53.1251 21.8227 52.507 21.9108C51.8888 21.999 44.2942 15.5631 44.2942 15.1223C44.2942 14.6814 49.946 9.39163 50.4759 9.39163C51.094 9.30347 58.6886 15.0341 58.6886 15.4749Z" fill="#FFB364"/>
<path opacity="0.5" d="M71.7585 26.4954C71.7585 26.9362 66.195 32.8431 65.5768 32.9313C64.9586 33.0195 57.364 26.5835 57.364 26.1427C57.364 25.7019 63.0158 20.4121 63.5457 20.4121C64.1638 20.3239 71.7585 25.9664 71.7585 26.4954Z" fill="#FFB364"/>
<path opacity="0.5" d="M84.4748 36.8986C84.4748 37.3394 78.4698 43.5109 77.9399 43.599C77.4101 43.6872 71.405 36.546 71.405 36.1052C71.405 35.7525 76.527 30.8153 77.0568 30.9035C77.5867 30.9035 84.4748 36.546 84.4748 36.8986Z" fill="#FFB364"/>
<path opacity="0.5" d="M97.9861 47.5664C97.9861 48.0072 92.1577 54.355 91.6279 54.4432C91.0097 54.5313 83.7683 48.5362 83.7683 48.0954C83.7683 47.6546 90.2149 41.924 90.8331 41.924C91.3629 41.924 97.9861 47.1256 97.9861 47.5664Z" fill="#FFB364"/>
<path opacity="0.5" d="M87.1241 60.0856C87.1241 60.5264 81.2957 66.8742 80.7658 66.9623C80.1476 67.0505 72.9062 61.0554 72.9062 60.6146C72.9062 60.1737 79.3528 54.4431 79.971 54.4431C80.5892 54.4431 87.1241 59.6448 87.1241 60.0856Z" fill="#FFB364"/>
<path opacity="0.5" d="M76.3505 72.7812C76.3505 73.222 70.3455 79.0408 68.9325 78.7763C67.4312 78.5118 61.9561 72.693 61.9561 72.2522C61.9561 71.8114 67.6079 66.2571 68.1377 66.2571C68.6676 66.3452 76.3505 72.3404 76.3505 72.7812Z" fill="#FFB364"/>
<path opacity="0.5" d="M63.8989 84.2424C63.8989 84.6832 58.3354 90.6784 56.1276 90.502C53.2134 90.2375 47.6499 85.0359 47.6499 84.5951C47.6499 84.1543 54.803 78.2473 55.3328 78.2473C55.8627 78.2473 63.8989 83.8016 63.8989 84.2424Z" fill="#FFB364"/>
<path opacity="0.5" d="M23.188 51.3574C23.188 51.7982 17.3596 58.146 16.8298 58.2342C16.2116 58.3223 8.97021 52.3272 8.97021 51.8864C8.97021 51.4456 15.4168 45.715 16.035 45.715C16.5648 45.6268 23.188 50.9166 23.188 51.3574Z" fill="#FFB364"/>
<path opacity="0.15" d="M50.1225 5.33613C49.9458 5.24796 49.7692 5.42429 49.416 5.77694C48.7978 6.21776 47.6498 7.09939 46.1485 8.51001C43.6759 10.9786 41.998 12.3892 42.1746 12.6537C42.3512 12.9182 43.4992 14.2406 44.3823 14.7696C44.3823 14.7696 45.4421 12.6537 46.6784 10.4496C48.7978 7.45205 50.4757 9.21532 50.4757 9.21532C50.7406 9.30348 52.1536 6.48225 60.6313 13.1827C60.6313 13.2708 53.3016 6.74674 50.1225 5.33613Z" fill="black"/>
<path opacity="0.15" d="M77.3219 26.5835C77.1453 26.4954 74.8492 28.3468 73.348 29.7574C70.8753 32.226 69.1974 33.6366 69.3741 33.9011C69.5507 34.1656 70.6987 35.488 71.5818 36.017C71.5818 36.017 71.6701 35.7525 72.9064 33.5485C75.0259 30.5509 76.9687 30.9035 76.9687 30.9035C77.2336 30.9917 78.1167 27.4652 86.5944 34.0774C86.5944 34.0774 80.4127 27.906 77.3219 26.5835Z" fill="black"/>
<path opacity="0.15" d="M90.48 37.6921C90.3034 37.604 88.0073 39.4554 86.5061 40.866C84.0334 43.3346 81.649 45.8032 81.8256 46.0676C82.0023 46.3321 82.8854 47.5664 83.7685 48.0954C83.7685 48.0954 84.8282 46.4203 87.2125 44.1281C89.5086 41.8358 90.7449 41.924 90.7449 41.924C91.0099 42.0121 91.3631 38.5738 99.8408 45.186C99.7525 45.186 93.5708 39.0146 90.48 37.6921Z" fill="black"/>
<path opacity="0.15" d="M77.3218 63.6121C77.3218 63.6121 79.5295 57.1762 80.8542 57.5289C82.1788 57.8815 87.2124 59.9093 87.2124 60.3501C87.2124 60.7909 89.0669 57.7934 89.0669 57.7934C89.0669 57.7934 81.2074 50.6521 79.7061 50.2113C79.7061 50.2113 77.4101 51.2693 76.9685 52.768C76.527 54.1787 76.7919 63.7003 77.3218 63.6121Z" fill="black"/>
<path opacity="0.15" d="M73.4363 66.3452C73.4363 66.3452 78.5582 69.5191 78.2933 70.4007C78.0283 71.2824 70.4337 79.3934 68.7559 78.9526C67.078 78.5118 64.6053 75.1616 63.8105 74.7207C63.104 74.2799 73.4363 66.3452 73.4363 66.3452Z" fill="black"/>
<path opacity="0.15" d="M49.5043 86.5346C49.5043 86.5346 54.7145 82.1264 57.0106 83.4489C59.3066 84.7713 61.691 86.7991 61.0728 87.3281C60.543 87.857 67.5194 81.8619 65.3117 80.0105C63.1039 78.1591 56.834 72.3403 50.299 78.4236C43.7641 84.595 45.7953 82.3909 49.5043 86.5346Z" fill="black"/>
<path opacity="0.2" d="M46.855 66.8742C46.855 66.8742 52.9483 70.1363 52.7717 71.8114C52.5951 73.4865 44.7356 82.1265 42.2629 81.0686C39.7902 80.0106 32.7255 74.7208 33.0787 73.3102C33.6086 71.8114 40.4967 64.582 46.855 66.8742Z" fill="black"/>
<path opacity="0.15" d="M24.6894 49.506C24.6894 50.1231 17.5363 57.617 16.7415 57.7052C16.035 57.7934 6.23267 49.5942 6.23267 48.977C6.23267 48.448 13.474 41.5713 14.1805 41.5713C14.887 41.6595 24.6894 48.977 24.6894 49.506Z" fill="black"/>
<path opacity="0.3" d="M53.4783 12.0365C52.8602 11.6839 51.2706 10.9786 50.9174 10.9786C50.4758 10.9786 48.8862 11.6839 48.2681 12.1247C46.6785 13.1827 45.7954 14.5933 46.237 15.2104C46.6785 15.8276 48.2681 15.4749 49.8577 14.4169C50.2109 14.1525 50.5641 13.888 50.9174 13.5353C51.1823 13.7998 51.5355 14.0643 51.9771 14.3288C53.5667 15.3867 55.1562 15.6512 55.5978 15.0341C55.951 14.417 55.0679 13.0945 53.4783 12.0365Z" fill="white"/>
<path opacity="0.3" d="M93.2176 44.0398C92.776 43.7753 91.4514 43.2463 91.1865 43.2463C90.8332 43.2463 89.5969 43.7753 89.1554 44.128C87.919 45.0096 87.2125 46.0676 87.5658 46.5965C87.919 47.1255 89.1554 46.7729 90.3917 45.9794C90.6566 45.8031 90.9215 45.5386 91.1865 45.2741C91.4514 45.5386 91.7163 45.7149 91.9813 45.8912C93.2176 46.6847 94.5422 46.9492 94.8072 46.4202C95.1604 45.8912 94.4539 44.8333 93.2176 44.0398Z" fill="white"/>
<path opacity="0.3" d="M95.7785 47.919C96.0434 48.1835 95.3369 49.4178 94.1006 50.5639C92.8642 51.7982 91.7162 52.5035 91.363 52.1509C91.0981 51.8864 91.8045 50.6521 93.0409 49.4178C94.2772 48.3598 95.5135 47.5664 95.7785 47.919Z" fill="white"/>
<path opacity="0.2" d="M84.2982 61.408C84.2982 62.3778 83.3268 63.0831 82.1788 63.0831C81.0307 63.0831 80.0593 62.2897 80.0593 61.408C80.0593 60.4382 81.0307 59.6448 82.1788 59.6448C83.3268 59.7329 84.2982 60.4382 84.2982 61.408Z" fill="white"/>
<path opacity="0.3" d="M82.7088 35.8407C83.2386 36.3696 82.8854 37.5158 81.914 38.4856C80.9426 39.4554 79.7945 39.808 79.2647 39.279C78.7348 38.7501 79.0881 37.6039 80.0595 36.6341C80.9426 35.7525 82.1789 35.3117 82.7088 35.8407Z" fill="white"/>
<path opacity="0.15" d="M83.5035 36.4578C83.5035 36.7223 79.7062 40.6015 79.3529 40.6896C78.9997 40.6896 75.2024 36.2815 75.2024 36.017C75.2024 35.7525 78.4698 32.6667 78.7348 32.6667C79.088 32.6667 83.5035 36.1933 83.5035 36.4578Z" fill="white"/>
<path opacity="0.15" d="M96.9265 48.6244C96.9265 48.9771 92.3344 54.0024 91.8928 54.0024C91.4513 54.0906 85.7112 49.3297 85.7112 48.9771C85.7112 48.6244 90.8331 44.0399 91.2747 44.1281C91.7162 44.1281 96.9265 48.2718 96.9265 48.6244Z" fill="white"/>
<path opacity="0.15" d="M57.8054 15.5631C57.8054 15.8275 54.008 19.7949 53.6548 19.8831C53.3016 19.8831 48.0913 15.5631 48.0913 15.2986C48.0913 15.0341 51.8886 11.4194 52.2419 11.4194C52.6834 11.4194 57.8054 15.2986 57.8054 15.5631Z" fill="white"/>
<path opacity="0.15" d="M85.4463 61.3199C85.4463 61.4963 82.7087 64.582 82.3554 64.582C82.0905 64.582 78.5581 61.7608 78.6464 61.4963C78.6464 61.3199 81.7372 58.4987 82.0022 58.5869C82.2671 58.5869 85.4463 61.1436 85.4463 61.3199Z" fill="white"/>
<path opacity="0.15" d="M58.8652 87.1518C58.8652 87.3282 56.5691 89.7967 55.686 89.7086C54.4497 89.6204 52.2419 87.4163 52.2419 87.24C52.2419 87.0637 55.1562 84.5951 55.4211 84.5951C55.5977 84.6833 58.8652 86.9755 58.8652 87.1518Z" fill="white"/>
<path opacity="0.15" d="M104.963 44.7451C104.963 44.7451 84.2982 79.217 57.6288 101.875C57.6288 101.875 3.49502 59.5566 0.580811 49.1533C0.580811 49.1533 11.6195 61.7607 27.162 74.5444C42.7044 87.3281 53.8314 95.7036 56.3041 96.4089C58.7768 97.1142 66.1065 89.6203 68.3142 87.3281C70.5219 85.124 97.8979 54.7957 98.9576 53.3851C100.106 52.0627 104.168 46.0676 104.963 44.7451Z" fill="black"/>
<path opacity="0.15" d="M20.4505 71.635C20.4505 71.635 22.6582 75.7787 25.3075 73.8391C28.0451 71.8995 28.4866 73.0456 29.8996 74.5444C31.3125 76.0432 40.4084 83.5371 49.416 80.275C58.4236 77.013 69.9038 77.6301 72.4648 75.955C74.9374 74.2799 87.0358 52.8562 77.2335 38.4856C67.5194 24.1149 16.5648 68.9901 20.4505 71.635Z" fill="black"/>
<path d="M64.6937 26.6717C62.221 20.8529 60.8964 19.0896 55.0679 17.679C49.2395 16.3566 47.2084 17.15 41.2033 17.7672C35.1983 18.3843 35.3749 26.319 25.8375 30.2864C16.2117 34.2537 21.6869 48.8007 22.2168 52.3272C22.7466 55.8538 18.7727 56.5591 17.6247 65.5518C16.4767 74.5444 25.9258 71.8995 27.8686 70.8416C29.8114 69.7836 30.9594 76.3077 38.4657 78.5118C45.972 80.804 53.8316 76.6603 58.9535 76.6603C64.0755 76.6603 68.8442 76.3077 72.5532 73.3983C76.1739 70.4007 78.7349 63.9648 78.6466 46.4203C78.5583 28.7876 67.1663 32.4023 64.6937 26.6717Z" fill="#6B2E26"/>
<path opacity="0.15" d="M56.6575 45.715C56.6575 47.5664 54.2731 49.7705 51.094 49.7705C47.9148 49.7705 45.1772 47.5664 45.1772 45.715C45.1772 43.8635 47.7382 42.3647 50.9174 42.3647C54.0965 42.3647 56.6575 43.8635 56.6575 45.715Z" fill="black"/>
<path opacity="0.15" d="M62.7508 34.3419C63.1924 35.8407 60.8963 38.4856 57.1873 39.5436C53.4783 40.6897 49.681 39.808 49.2395 38.3093C48.7979 36.8105 51.4472 34.6946 55.1562 33.5484C58.8652 32.4905 62.3093 32.8431 62.7508 34.3419Z" fill="black"/>
<path opacity="0.15" d="M44.7357 41.2186C45.1772 42.7174 42.8812 45.3623 39.1722 46.4203C35.4632 47.4782 31.6659 46.6848 31.2243 45.186C30.7828 43.6872 33.4321 41.5713 37.1411 40.4252C40.9384 39.3672 44.2941 39.7198 44.7357 41.2186Z" fill="black"/>
<path d="M76.1739 38.0448C73.1714 32.0496 68.226 34.4301 69.8156 36.4578C70.9636 37.8684 71.7584 44.5688 71.6701 49.2415C71.0519 47.3019 68.3143 46.5084 65.5768 47.3901C62.8392 48.2717 61.073 50.564 61.6911 52.5036C62.221 54.1787 67.9611 55.7656 68.226 57.4407C68.4027 59.1158 64.1638 62.0252 60.4548 61.8489C53.655 61.4962 43.3228 66.786 40.7618 64.2293C38.2008 61.6726 39.0839 53.2089 34.7567 51.9746C30.2529 50.6521 29.4582 48.0072 27.2504 49.5942C25.0427 51.2693 28.3101 57.617 28.7517 59.8211C29.1932 62.0252 24.6894 64.053 22.3051 68.2848C19.9207 72.5167 26.3673 71.4587 27.8686 68.9901C29.3698 66.4334 35.11 73.0456 39.0839 76.3077C43.0578 79.6579 64.4287 74.4562 69.3741 73.5746C74.4077 72.693 77.2336 64.4056 76.1739 61.6726C74.8492 58.8513 79.1764 44.128 76.1739 38.0448Z" fill="#5B2720"/>
<path opacity="0.15" d="M73.0831 25.79C73.1714 27.8178 70.2572 30.3745 66.1066 30.639C61.9561 30.9035 58.2471 28.7876 58.1588 26.7598C58.0705 24.7321 61.2496 22.8806 65.4002 22.6162C69.5507 22.3517 72.9948 23.7623 73.0831 25.79Z" fill="black"/>
<path opacity="0.15" d="M62.1326 78.071C62.1326 80.0106 59.66 82.3028 56.3042 82.3028C52.9485 82.3028 50.1226 80.0106 50.1226 78.071C50.1226 76.1314 52.8602 74.5444 56.1276 74.5444C59.4834 74.5444 62.1326 76.1314 62.1326 78.071Z" fill="black"/>
<path opacity="0.15" d="M21.7753 53.1208C21.7753 55.2367 19.6558 57.7934 16.7416 57.7934C13.9157 57.7934 11.3547 55.3248 11.3547 53.1208C11.3547 51.0048 13.6508 49.2416 16.565 49.2416C19.4792 49.2416 21.7753 51.0048 21.7753 53.1208Z" fill="black"/>
<path d="M54.0965 22.4398C54.0965 24.0267 51.3589 23.0569 47.7382 23.0569C44.2058 23.0569 41.115 23.9386 41.115 22.4398C41.115 20.8529 44.0292 18.5606 47.5616 18.5606C51.2706 18.5606 54.0965 20.8529 54.0965 22.4398Z" fill="#90635E"/>
<path d="M22.9232 61.5844C21.0687 63.6122 21.157 67.4032 20.1856 66.9624C19.3025 66.4334 17.8895 62.5542 19.8323 60.7028C22.8349 57.7934 24.0712 51.7983 24.9543 52.3273C25.9257 52.7681 25.2192 59.0277 22.9232 61.5844Z" fill="#90635E"/>
<path opacity="0.8" d="M48.003 52.9444C48.003 55.0603 45.7953 57.7934 43.0577 57.7934C40.3201 57.7934 36.9644 53.4734 36.9644 51.3574C36.9644 49.2415 39.7019 47.9191 42.4395 47.9191C45.1771 47.9191 48.003 50.8285 48.003 52.9444Z" fill="#90635E"/>
<path d="M68.4025 26.0545C65.6649 28.8757 61.1611 28.9639 58.3352 26.2308C55.5093 23.4978 55.421 19.0014 58.1586 16.1802C60.8962 13.359 65.4 13.2708 68.2259 16.0039C71.0518 18.8251 71.1401 23.3214 68.4025 26.0545Z" fill="#D50506"/>
<path opacity="0.2" d="M69.0206 18.2961C69.0206 18.2961 70.5219 24.2913 64.4286 25.5255C60.6312 26.319 57.982 23.3215 56.9222 21.3819C56.2158 20.0594 55.7742 25.79 61.1611 27.4651C66.6363 29.0521 72.0232 23.586 69.0206 18.2961Z" fill="#020000"/>
<path opacity="0.3" d="M68.4909 18.8251C67.5195 19.7067 66.8131 19.9712 64.9586 19.4422C63.0158 18.8251 61.6911 17.15 62.1327 15.9157C62.4859 14.7696 64.0755 14.3288 66.0183 14.9459C65.8417 14.8577 65.665 14.7696 65.4884 14.7696C63.1924 14.0643 61.1613 14.3288 60.7197 15.7394C60.2782 17.2382 61.956 19.6186 64.2521 20.3239C66.3715 21.0292 68.0494 20.2357 68.4909 18.8251Z" fill="white"/>
<path opacity="0.3" d="M59.2185 19.8831C58.6003 20.5884 58.0705 21.2055 57.5406 20.8529C57.0991 20.5002 57.1874 19.5304 57.8055 18.737C58.4237 18.0317 59.3068 17.679 59.7484 18.0317C60.2782 18.4725 59.8367 19.1778 59.2185 19.8831Z" fill="white"/>
<path opacity="0.6" d="M61.3379 17.5027C61.2495 17.5027 60.808 17.0619 60.808 16.4447C60.7197 15.8276 61.0729 15.2986 61.1612 15.2986C61.2495 15.2986 61.1612 15.8276 61.1612 16.4447C61.2495 16.9737 61.5145 17.5027 61.3379 17.5027Z" fill="white"/>
<path d="M65.1351 17.8553C65.1351 17.8553 67.8727 13.6235 69.0207 11.6839C70.0804 9.7443 72.1115 6.65858 72.5531 6.39409C72.9946 6.04144 71.4934 5.07164 71.3167 5.68878C71.1401 6.21777 68.3142 9.65614 67.5194 11.5957C66.7247 13.5353 63.3689 18.737 65.1351 17.8553Z" fill="#D50506"/>
<path opacity="0.3" d="M67.6078 18.6488C67.5195 18.2961 66.3715 18.4725 65.2235 17.5908C65.4001 17.3263 67.8728 13.359 68.0494 13.0945C68.1377 12.9182 71.1402 7.981 71.3168 7.71651C71.5818 7.45202 71.8467 6.83488 72.1999 6.65855C72.6415 6.57039 72.1999 6.12957 72.1999 6.12957C72.3766 6.3059 72.3766 6.57039 71.7584 6.3059C71.1402 6.04141 71.2285 5.77692 71.2285 5.77692C70.9636 5.86508 71.2285 6.21773 71.3168 6.3059C71.4051 6.48222 71.1402 7.0112 70.8753 7.45202C70.6987 7.89284 68.8442 10.8022 68.4909 11.4194C68.1377 12.1247 67.3429 13.359 66.6364 14.4169C66.0183 15.2104 65.1352 16.5329 64.7819 16.9737C64.6936 16.8855 64.6053 16.7973 64.6053 16.7092C63.8988 15.6512 64.6053 15.2104 64.6053 15.2104C65.4001 14.5051 61.5145 14.8578 63.4573 17.3263C65.1352 19.7067 67.6961 19.0896 67.6078 18.6488Z" fill="#020000"/>
<path opacity="0.2" d="M71.2286 6.12958C71.2286 6.12958 70.9637 6.92305 70.1689 7.98101C69.3741 9.03897 68.2261 11.0667 67.9611 11.6839C67.6962 12.301 65.6651 15.6512 65.1352 16.2684C64.782 16.621 66.9897 13.5353 67.5196 12.0365C67.6962 11.3312 67.6962 10.6259 71.2286 6.12958Z" fill="white"/>
<path opacity="0.2" d="M65.4001 22.8807C62.9275 24.7321 60.6314 24.9084 58.512 22.6162C54.9796 19.0015 59.8366 15.2105 59.925 15.9158C60.0133 16.5329 60.0133 18.0317 61.5145 19.6186C63.8989 21.9109 67.6079 21.2056 65.4001 22.8807Z" fill="white"/>
<path d="M55.0677 80.2751C51.3587 80.0987 48.4445 76.9248 48.6211 73.222C48.7978 69.5191 51.9769 66.6097 55.6859 66.7861C59.3949 66.9624 62.3091 70.1363 62.1325 73.8391C61.9559 77.542 58.7767 80.4514 55.0677 80.2751Z" fill="#D50506"/>
<path opacity="0.2" d="M61.0729 75.7787C61.0729 75.7787 57.8054 80.6277 53.0367 77.1011C50.1225 74.897 50.564 71.106 51.2705 69.1664C51.8004 67.8439 47.3849 71.1942 49.6809 76.0432C51.8887 80.8922 59.1301 81.2448 61.0729 75.7787Z" fill="#020000"/>
<path opacity="0.3" d="M60.2781 75.7787C59.0417 75.6024 58.3353 75.3379 57.6288 73.6628C56.834 71.8995 57.2755 69.9599 58.3353 69.4309C59.395 68.9901 60.7196 69.8718 61.4261 71.5469C61.3378 71.3705 61.3378 71.1942 61.2495 71.0179C60.3664 68.9901 58.8651 67.6677 57.5405 68.1967C56.2158 68.8138 55.5977 71.4587 56.4808 73.5746C57.4522 75.6905 58.9534 76.3077 60.2781 75.7787Z" fill="white"/>
<path opacity="0.3" d="M53.7433 69.8718C52.8602 69.8718 52.0654 69.8718 52.0654 69.3428C52.0654 68.8138 52.8602 68.2848 53.7433 68.1967C54.6264 68.1967 55.4212 68.5493 55.5095 69.1665C55.4212 69.6954 54.6264 69.8718 53.7433 69.8718Z" fill="white"/>
<path opacity="0.6" d="M56.8341 69.8718C56.7458 69.7836 56.8341 69.2546 57.1873 68.8138C57.5406 68.373 58.1587 68.2848 58.247 68.373C58.3354 68.4612 57.8938 68.6375 57.4523 69.0783C57.099 69.431 56.8341 69.96 56.8341 69.8718Z" fill="white"/>
<path d="M58.9534 72.7811C58.9534 72.7811 63.7222 72.0758 65.7533 71.635C67.7844 71.1941 71.2285 70.6652 71.7583 70.8415C72.2882 71.0178 72.0233 69.2545 71.4934 69.519C70.9635 69.6954 66.7247 69.8717 64.8702 70.577C62.9274 71.1941 57.1873 72.0758 58.9534 72.7811Z" fill="#D50506"/>
<path opacity="0.3" d="M59.8367 74.9852C60.0133 74.7207 59.1302 74.0154 59.1302 72.6929C59.3951 72.6048 63.8106 71.8994 64.0755 71.8994C64.3404 71.8994 69.639 70.8415 69.9923 70.8415C70.3455 70.8415 70.9637 70.6652 71.3169 70.7533C71.6701 70.9297 71.6701 70.4007 71.6701 70.4007C71.6701 70.6652 71.4052 70.7533 71.3169 70.2243C71.1403 69.6072 71.3169 69.4309 71.3169 69.4309C71.052 69.2545 71.052 69.6954 70.9637 69.8717C70.8754 70.048 70.3455 70.1362 69.9039 70.3125C69.4624 70.4888 66.195 70.9296 65.5768 71.106C64.8703 71.2823 63.4574 71.5468 62.3093 71.635C61.3379 71.7231 59.8367 71.8994 59.3068 71.8994C59.3068 71.8113 59.3068 71.7231 59.3951 71.5468C59.6601 70.4007 60.4548 70.6652 60.4548 70.6652C61.4262 70.7533 58.777 68.2847 58.1588 71.1941C57.5406 73.9272 59.6601 75.3378 59.8367 74.9852Z" fill="#020000"/>
<path opacity="0.2" d="M71.0518 69.7836C71.0518 69.7836 70.3453 70.1362 69.109 70.2244C67.8726 70.3125 65.7532 70.8415 65.135 71.0179C64.5169 71.1942 60.8079 71.8995 60.1014 71.8113C59.6598 71.8113 63.1922 71.3705 64.6052 70.8415C65.135 70.4889 65.6649 70.0481 71.0518 69.7836Z" fill="white"/>
<path opacity="0.2" d="M72.5533 70.3135C72.465 70.3135 72.3766 70.137 72.3766 69.9604C72.2883 69.7839 72.3766 69.6073 72.3766 69.6073C72.465 69.6073 72.5533 69.7839 72.5533 69.9604C72.5533 70.137 72.5533 70.3135 72.5533 70.3135Z" fill="white"/>
<path opacity="0.2" d="M55.4211 76.1314C52.5952 75.6024 51.0056 74.0154 51.2706 71.106C51.6238 66.3452 57.3639 67.4032 56.9224 67.844C56.4808 68.2848 55.4211 69.2546 55.3328 71.2824C55.2445 74.3681 57.9821 76.6603 55.4211 76.1314Z" fill="white"/>
<path d="M22.0401 45.186C24.2478 48.0954 23.6297 52.3272 20.6271 54.5313C17.7129 56.7354 13.4741 56.1183 11.2663 53.1207C9.14691 50.2113 9.76508 46.0676 12.7676 43.8636C15.6818 41.6595 19.8324 42.2766 22.0401 45.186Z" fill="#D50506"/>
<path opacity="0.2" d="M14.2688 50.8284C15.5051 52.5035 16.8298 53.4733 16.1233 54.0023C15.4168 54.5313 13.2974 54.0905 12.0611 52.4154C10.2949 49.9468 10.8247 47.6546 11.5312 47.1256C12.326 46.5966 12.8559 48.8888 14.2688 50.8284Z" fill="#020000"/>
<path opacity="0.1" d="M18.8609 47.5664C20.4505 49.5942 21.0686 51.8865 21.7751 51.2693C22.4816 50.6522 22.305 47.9191 20.7154 45.8913C17.7129 41.924 13.3857 43.6873 12.6792 44.3044C12.0611 44.9215 16.2999 44.3926 18.8609 47.5664Z" fill="white"/>
<path d="M12.5027 44.0399C12.5027 44.0399 8.88202 39.4554 4.55485 42.453C4.55485 42.453 3.58345 45.3624 4.02499 44.8334C6.40935 42.1885 8.52878 42.0122 11.8845 45.0097C14.5338 47.3901 12.9443 44.4807 12.5027 44.0399Z" fill="#D50506"/>
<path opacity="0.2" d="M4.11328 43.8635C4.11328 43.8635 6.49764 41.2186 8.70538 42.2765C10.9131 43.3345 12.0611 44.3925 12.1494 44.3043C12.2378 44.2161 11.443 42.1884 8.44045 41.4831C5.43792 40.7778 4.20159 43.599 4.11328 43.8635Z" fill="#020000"/>
<path opacity="0.4" d="M17.9778 45.8032C16.9181 45.0979 16.035 44.8334 16.2999 44.3926C16.6531 43.9518 17.8895 43.7754 18.9492 44.4807C20.4505 45.5387 20.6271 46.9493 20.2738 47.3901C20.0089 47.831 19.2141 46.5967 17.9778 45.8032Z" fill="white"/>
<path opacity="0.2" d="M18.5077 52.7681C18.9492 51.7101 18.5077 50.2995 19.0375 50.4759C19.4791 50.6522 19.8323 51.7983 19.3908 52.8563C18.6843 54.4432 17.448 54.7959 16.9181 54.6195C16.4765 54.3551 17.9778 54.0024 18.5077 52.7681Z" fill="white"/>
<path opacity="0.2" d="M19.3908 45.9794C19.3908 47.4782 17.8012 48.7125 15.7701 48.7125C13.8273 48.7125 12.1494 47.4782 12.1494 45.9794C12.1494 44.4807 13.739 43.3345 15.7701 43.3345C17.8012 43.2464 19.3908 44.4807 19.3908 45.9794Z" fill="white"/>
<path d="M25.7491 37.075C25.3959 40.337 22.57 42.6293 19.3025 42.3648C16.0351 42.0121 13.739 39.1909 14.0039 35.9288C14.3572 32.6668 17.1831 30.3745 20.4505 30.639C23.6297 30.9917 26.014 33.9011 25.7491 37.075Z" fill="#D50506"/>
<path opacity="0.2" d="M22.1283 31.697C22.1283 31.697 26.1906 34.7827 22.9231 38.75C20.892 41.2186 17.6245 40.6896 15.9467 39.8962C14.7986 39.3672 17.5362 43.3345 21.8634 41.6594C26.1022 39.8962 26.7204 33.6366 22.1283 31.697Z" fill="#020000"/>
<path opacity="0.3" d="M22.04 32.3141C21.8634 33.3721 21.5984 33.9892 20.0972 34.5182C18.5076 35.1354 16.8297 34.6945 16.4765 33.7247C16.1232 32.7549 16.918 31.697 18.4193 31.0798C18.2427 31.0798 18.0661 31.168 17.9777 31.2562C16.1232 31.9615 14.9752 33.1958 15.4168 34.3419C15.8583 35.488 18.2427 36.1933 20.0089 35.488C21.7751 34.8709 22.4815 33.5484 22.04 32.3141Z" fill="white"/>
<path opacity="0.3" d="M16.5651 37.7803C16.5651 38.5737 16.4767 39.279 16.0352 39.279C15.5053 39.279 15.1521 38.5737 15.1521 37.7803C15.1521 36.9868 15.5936 36.2815 16.0352 36.2815C16.4767 36.3697 16.5651 37.075 16.5651 37.7803Z" fill="white"/>
<path opacity="0.6" d="M16.7416 35.1354C16.6533 35.2235 16.2117 35.1354 15.8585 34.7827C15.5052 34.4301 15.4169 33.9011 15.5052 33.8129C15.5935 33.7248 15.7702 34.1656 16.1234 34.5182C16.3883 34.8709 16.8299 35.0472 16.7416 35.1354Z" fill="white"/>
<path d="M19.3907 33.3721C19.3907 33.3721 19.0375 30.1982 19.5674 28.4349C20.1855 26.4953 21.0686 23.4096 21.1569 22.9688C21.3335 22.528 19.6557 22.4398 19.8323 22.8806C20.0089 23.3215 18.5076 27.1125 18.331 29.3166C18.2427 31.0798 18.6843 34.8709 19.3907 33.3721Z" fill="#D50506"/>
<path opacity="0.3" d="M21.3335 32.6668C21.0686 32.4905 20.4504 33.1958 19.3024 33.1958C19.3024 32.9313 19.2141 29.8456 19.2141 29.6692C19.2141 29.4929 20.8037 23.9386 20.8037 23.5859C20.8037 23.3215 20.9803 23.3215 21.1569 22.9688C21.3335 22.7043 20.7154 22.6161 20.7154 22.6161C20.9803 22.6161 21.1569 22.7925 20.627 22.9688C20.0972 23.057 19.8323 22.7043 19.8323 22.7043C19.6556 22.8806 20.3621 23.2333 20.4504 23.2333C20.5387 23.3215 19.5673 25.8782 19.6556 26.2308C19.744 26.6717 18.5076 29.4929 18.5959 30.4627C18.5959 31.2562 18.5959 32.4905 18.5959 32.9313C18.5076 32.9313 18.4193 32.8431 18.331 32.8431C17.2713 32.4905 17.6245 31.8733 17.6245 31.8733C17.7128 30.9917 15.5051 33.2839 17.9778 33.9011C20.2738 34.6064 21.5985 32.9313 21.3335 32.6668Z" fill="#020000"/>
<path opacity="0.2" d="M17.2715 22.7043C17.2715 22.7043 17.5364 23.4097 17.5364 24.4676C17.5364 25.5256 17.8896 27.4652 17.978 27.9942C18.0663 28.5231 18.5961 31.7852 18.5078 32.4023C18.4195 32.755 18.2429 29.6693 17.8013 28.435C17.6247 27.906 17.2715 27.4652 17.2715 22.7043Z" fill="white"/>
<path opacity="0.2" d="M17.8896 21.4701C17.8896 21.5584 17.8013 21.5584 17.6247 21.6466C17.4481 21.6466 17.2715 21.6466 17.2715 21.6466C17.2715 21.5584 17.3598 21.5584 17.5364 21.4701C17.713 21.3818 17.8896 21.4701 17.8896 21.4701Z" fill="white"/>
<path opacity="0.2" d="M22.1283 36.546C21.5102 39.0146 20.0972 40.2489 17.5363 39.8962C13.3857 39.3672 14.622 34.4301 14.9753 34.7827C15.3285 35.1354 16.1233 36.1052 17.8895 36.2815C20.6271 36.7223 22.6582 34.3419 22.1283 36.546Z" fill="white"/>
<path d="M62.5741 29.5811C63.1923 31.697 60.3664 35.8407 55.3327 37.7803C50.2991 39.7199 45.0005 38.2211 44.4707 36.546C44.0291 35.2235 46.6784 30.2864 51.712 28.3468C56.6574 26.4072 62.0443 27.8178 62.5741 29.5811Z" fill="url(#paint1_linear)"/>
<path opacity="0.2" d="M61.1613 29.0521C61.4262 30.2864 58.6886 32.0496 55.4212 33.4603C51.9771 34.8709 48.4447 34.2537 48.1798 33.2839C48.0032 32.4905 50.2109 29.4929 53.7433 28.3468C57.364 27.2006 60.9847 27.9941 61.1613 29.0521Z" fill="#FFDB0D"/>
<path opacity="0.3" d="M61.6909 28.6994C61.7796 28.6994 61.7796 28.788 61.8682 28.8767C61.7796 28.6994 61.6909 28.6994 61.6909 28.6994Z" fill="black"/>
<path opacity="0.2" d="M61.8676 28.8766C62.5741 29.8464 60.6313 33.902 55.1561 36.0179C51.8887 37.2522 47.6498 36.8995 45.707 36.635C43.7642 35.8416 49.5926 29.4938 49.5926 29.4938C44.8239 33.0203 44.3824 35.8416 44.3824 36.5469C44.2057 36.5469 44.1174 36.4587 44.1174 36.4587C44.2057 36.5469 44.294 36.635 44.3824 36.7232C47.9147 40.7787 58.0703 37.9575 60.8962 33.902C63.1923 30.6399 62.3092 29.2293 61.8676 28.8766Z" fill="black"/>
<path opacity="0.4" d="M61.7793 28.8757C61.6026 29.4047 56.7456 31.3443 53.8314 31.7851C54.6262 30.9917 56.3924 28.8757 57.6287 28.8757C59.13 28.8757 56.9222 28.0823 54.9794 29.8455C53.7431 30.9917 53.3015 31.6088 53.1249 31.8733C51.8003 32.2259 50.1224 33.1076 48.7095 33.9892C49.151 33.2839 49.4159 32.1378 49.5042 31.7851C50.1224 30.1982 52.5068 29.4047 50.7406 29.9337C48.9744 30.4627 47.9147 34.43 47.9147 34.43C46.4134 35.3998 45.2654 36.1933 45.2654 36.1933C45.442 37.0749 48.0913 34.5182 52.5951 32.9312C52.9483 33.4602 55.8625 33.4602 57.0105 33.2839C58.3352 33.1076 60.7195 31.6088 59.9248 31.8733C59.3949 32.0496 58.865 32.2259 57.4521 32.6668C56.4807 32.9312 54.6262 32.8431 53.5665 32.6668C54.1846 32.4904 54.8911 32.3141 55.5093 32.1378C61.6026 30.9917 61.9559 28.2586 61.7793 28.8757Z" fill="white"/>
<path opacity="0.2" d="M59.4835 28.7876C59.5718 29.3166 57.8056 30.1982 55.6861 30.9035C53.4784 31.6088 51.4473 31.4325 51.359 30.9917C51.2707 30.6391 52.8602 29.2284 55.068 28.6113C57.2757 27.9941 59.3951 28.3468 59.4835 28.7876Z" fill="#FFF7EF"/>
<path d="M24.2479 13.9761C21.6869 16.5328 22.6583 24.5557 28.5751 30.9916C34.4918 37.4276 43.5877 39.279 45.7071 37.2513C47.385 35.6643 47.2967 26.6716 41.3799 20.2357C35.4632 13.7998 26.3673 11.772 24.2479 13.9761Z" fill="url(#paint2_linear)"/>
<path opacity="0.2" d="M26.7205 14.2406C25.3076 15.8275 27.9569 20.3239 31.7542 24.732C35.8164 29.3165 41.5565 31.0798 42.7046 29.7573C43.5876 28.7875 42.7046 22.8806 38.2891 18.6487C33.8736 14.3287 27.8686 12.9181 26.7205 14.2406Z" fill="#FFDB0D"/>
<path opacity="0.3" d="M26.279 13.2708C26.1024 13.2708 26.0141 13.2708 25.9258 13.3591C26.1024 13.2708 26.279 13.2708 26.279 13.2708Z" fill="black"/>
<path opacity="0.2" d="M25.8374 13.3586C23.9829 14.2403 23.718 21.3815 30.2529 28.5228C34.1385 32.7546 40.6734 35.3113 43.7642 36.3693C47.2083 36.722 43.5876 23.2329 43.5876 23.2329C48.0031 31.7848 46.3252 36.1048 45.707 37.1628C45.972 37.2509 46.1486 37.2509 46.1486 37.2509C45.972 37.3391 45.7953 37.3391 45.5304 37.3391C37.141 40.6011 24.3361 29.0517 23.2764 21.117C22.4816 15.0337 24.866 13.7113 25.8374 13.3586Z" fill="black"/>
<path opacity="0.4" d="M26.014 13.4472C25.8374 14.417 31.4892 20.6766 35.5514 23.4096C35.0215 21.7345 34.0501 17.3264 32.1956 16.5329C29.8996 15.4749 33.8735 16.0039 35.3748 19.8831C36.3462 22.3517 36.5228 23.6741 36.5228 24.2031C38.2007 25.7019 39.9669 28.1705 41.4681 30.4627C41.2915 29.0521 41.9097 27.377 41.998 26.6717C42.3512 23.9386 39.437 21.1174 41.5564 23.1451C43.7642 25.1729 42.2629 31.697 42.2629 31.697C43.7642 34.1656 44.8239 36.2815 44.8239 36.2815C43.8525 37.3395 41.9097 31.7852 36.5228 26.2309C35.5514 26.6717 31.2242 24.4676 29.8113 23.4978C28.0451 22.2635 25.6607 18.3843 26.6321 19.3541C27.3386 19.9713 27.8685 20.6766 29.6347 22.2635C30.871 23.4096 33.7852 24.5558 35.3748 25.1729C34.58 24.4676 33.7852 23.6741 32.8138 22.9688C24.601 16.6211 26.1906 12.4774 26.014 13.4472Z" fill="white"/>
<path d="M27.7803 41.6595C28.3985 43.7754 33.0789 45.715 38.2891 44.657C43.5877 43.5991 47.2967 39.4554 46.8552 37.7803C46.5019 36.4578 41.5566 33.7248 36.3463 34.7827C30.9594 35.9288 27.2504 39.8962 27.7803 41.6595Z" fill="url(#paint3_linear)"/>
<path opacity="0.2" d="M28.6633 40.5133C29.1049 41.7476 32.3723 41.7476 35.8164 41.1304C39.5254 40.4251 42.1747 38.0447 41.8215 37.0749C41.5565 36.2814 38.1125 34.959 34.4918 35.9288C30.8711 36.8986 28.2218 39.5435 28.6633 40.5133Z" fill="#FFDB0D"/>
<path opacity="0.3" d="M27.9567 40.4252C27.9567 40.5134 27.8684 40.6017 27.8684 40.69C27.9567 40.5134 27.9567 40.4252 27.9567 40.4252Z" fill="black"/>
<path opacity="0.2" d="M27.9561 40.6897C27.8678 41.924 31.6651 44.2162 37.4935 43.0701C40.9376 42.3648 44.2933 39.808 45.7946 38.5737C47.0309 36.8986 38.6415 34.6064 38.6415 34.6064C44.5583 34.959 46.4128 37.1631 46.766 37.7803C46.8543 37.6921 46.9426 37.6039 46.9426 37.6039C46.9426 37.6921 46.8543 37.8684 46.8543 37.9566C46.0595 43.3346 35.9922 46.3321 31.4001 44.4807C27.7795 42.9819 27.7795 41.3068 27.9561 40.6897Z" fill="black"/>
<path opacity="0.4" d="M28.0452 40.6015C28.4868 40.9542 33.6087 39.9844 36.258 38.7501C35.1983 38.4856 32.549 37.6921 31.4893 38.3974C30.253 39.2791 31.6659 37.3395 34.2269 37.7803C35.9048 38.0448 36.6112 38.3093 36.8762 38.4856C38.2008 38.0448 40.0553 37.8685 41.7332 37.8685C40.9384 37.5158 40.2319 36.7223 39.8787 36.4578C38.554 35.488 36.0814 36.1052 37.8476 35.5762C39.6138 35.0472 42.7046 37.8685 42.7046 37.8685C44.4708 37.8685 45.972 37.9566 45.972 37.9566C46.237 38.7501 42.6163 38.0448 38.0242 39.1909C38.0242 39.808 35.5515 41.395 34.4918 41.8358C33.2555 42.3648 30.5179 42.453 31.3127 42.1885C31.8425 42.0121 32.3724 41.924 33.7853 41.4832C34.7567 41.2187 36.258 40.0725 37.0528 39.3672C36.4346 39.5436 35.7281 39.7199 35.11 39.9844C29.2815 42.3648 27.5154 40.2489 28.0452 40.6015Z" fill="white"/>
<path opacity="0.2" d="M29.8996 39.3672C30.1646 39.8962 32.1074 39.6317 34.2268 39.1027C36.4345 38.5737 38.1124 37.2513 37.9358 36.8105C37.7592 36.4578 35.7281 36.1052 33.5203 36.8105C31.3126 37.5158 29.723 38.9264 29.8996 39.3672Z" fill="#FFF7EF"/>
<path d="M56.0392 40.7778C57.0106 44.0398 55.1561 47.3901 51.8886 48.3599C48.6212 49.3296 45.2654 47.4782 44.294 44.2162C43.3226 40.9541 45.1771 37.6039 48.4446 36.6341C51.6237 35.7525 55.0678 37.6039 56.0392 40.7778Z" fill="#D50506"/>
<path opacity="0.2" d="M47.4732 43.1582C48.0031 45.0097 48.8862 46.244 48.0031 46.5084C47.2083 46.7729 45.5304 45.715 45.0006 43.8635C44.2058 41.2186 45.4421 39.3672 46.2369 39.1027C47.12 38.9264 46.8551 41.0423 47.4732 43.1582Z" fill="white"/>
<path opacity="0.2" d="M52.5069 41.8358C53.2133 44.128 53.125 46.244 53.8315 45.8913C54.6263 45.5387 55.3328 43.1582 54.6263 40.9542C53.2133 36.546 48.9745 36.7223 48.1797 37.075C47.3849 37.3395 51.3588 38.2211 52.5069 41.8358Z" fill="#020000"/>
<path d="M48.0915 36.7223C48.0915 36.7223 46.4136 31.6088 41.7332 32.8431C41.7332 32.8431 39.967 35.0472 40.4969 34.7827C43.4111 33.2839 45.2656 33.8129 47.2084 37.4276C48.798 40.337 48.3564 37.2513 48.0915 36.7223Z" fill="#D50506"/>
<path opacity="0.2" d="M40.9382 33.9892C40.9382 33.9892 43.8524 32.4905 45.442 34.0774C47.0316 35.6643 47.6498 36.9868 47.7381 36.8986C47.8264 36.8986 47.8264 34.7827 45.3537 33.2839C42.9694 31.697 41.0265 33.8129 40.9382 33.9892Z" fill="#020000"/>
<path opacity="0.4" d="M46.7668 42.2766C47.0318 43.4227 47.4733 44.2162 47.0318 44.3043C46.5019 44.3925 45.6188 43.7753 45.3539 42.6292C45.0007 41.0423 45.7954 39.8962 46.237 39.808C46.6785 39.6317 46.4136 40.9541 46.7668 42.2766Z" fill="white"/>
<path opacity="0.1" d="M51.5354 42.0121C52.1536 44.1281 52.1536 46.9493 50.0342 47.5664C47.9148 48.1836 45.6187 45.8032 45.0005 43.6872C44.3824 41.5713 45.0889 38.8383 47.2966 38.2211C49.3277 37.5158 50.9173 39.8962 51.5354 42.0121Z" fill="white"/>
<path opacity="0.2" d="M50.5641 46.1558C51.2706 45.3623 51.3589 44.0399 51.7121 44.3925C52.0654 44.7452 51.9771 45.8032 51.2706 46.5966C50.2109 47.7428 48.9745 47.6546 48.6213 47.3019C48.3564 46.9493 49.681 47.1256 50.5641 46.1558Z" fill="white"/>
<path d="M72.0233 46.8611C72.0233 50.8285 68.7558 54.0905 64.7819 54.0905C60.808 54.0905 57.5405 50.8285 57.5405 46.8611C57.5405 42.8938 60.808 39.6317 64.7819 39.6317C68.8441 39.6317 72.0233 42.8938 72.0233 46.8611Z" fill="#D50506"/>
<path opacity="0.2" d="M61.6029 46.6848C61.6029 48.8889 62.1327 50.6522 61.1613 50.6522C60.1899 50.6522 58.6003 48.8889 58.6003 46.6848C58.6003 43.4228 60.6315 41.7477 61.6029 41.7477C62.6626 41.7477 61.6029 44.0399 61.6029 46.6848Z" fill="white"/>
<path opacity="0.2" d="M67.696 46.861C67.7844 49.6823 66.9013 52.0627 67.8727 51.9745C68.8441 51.8864 70.5219 49.4178 70.4336 46.5966C70.3453 41.1304 65.4883 39.9843 64.5169 40.0725C63.5455 40.0725 67.6077 42.3647 67.696 46.861Z" fill="#020000"/>
<path d="M64.517 39.6317C64.517 39.6317 64.3404 33.1957 58.6003 33.1957C58.6003 33.1957 55.8627 35.0472 56.5691 34.959C60.3664 34.2537 62.3092 35.488 63.2807 40.1606C64.0754 43.8635 64.6053 40.337 64.517 39.6317Z" fill="#D50506"/>
<path opacity="0.2" d="M57.364 34.0774C57.364 34.0774 61.1613 33.3721 62.3976 35.6644C63.634 38.0448 63.8989 39.6317 64.0755 39.6317C64.2521 39.6317 64.8703 37.3395 62.6626 34.7827C60.4548 32.226 57.5406 33.9893 57.364 34.0774Z" fill="#020000"/>
<path opacity="0.4" d="M61.1612 45.3623C61.0729 46.6847 61.3378 47.7427 60.7196 47.7427C60.1015 47.7427 59.2184 46.5966 59.3067 45.2741C59.395 43.3345 60.7196 42.3647 61.2495 42.3647C61.8677 42.4529 61.2495 43.7754 61.1612 45.3623Z" fill="white"/>
<path opacity="0.1" d="M66.6365 46.7729C66.6365 49.4178 65.6651 52.5036 63.0158 52.5036C60.3665 52.5036 58.6003 48.977 58.6003 46.4203C58.6003 43.7754 60.3665 41.0423 63.0158 41.0423C65.6651 40.9542 66.6365 44.128 66.6365 46.7729Z" fill="white"/>
<path opacity="0.2" d="M64.1637 51.0929C65.2234 50.4758 65.7533 48.977 66.1065 49.4178C66.3714 49.8586 65.9299 51.0929 64.8702 51.71C63.2806 52.5917 61.8676 52.1509 61.6027 51.6219C61.2495 51.2692 62.839 51.8864 64.1637 51.0929Z" fill="white"/>
</g>
<defs>
<linearGradient id="paint0_linear" x1="0.629318" y1="49.3555" x2="105.001" y2="49.3555" gradientUnits="userSpaceOnUse">
<stop stop-color="#FF943F"/>
<stop offset="0.4442" stop-color="#F3902A"/>
<stop offset="1" stop-color="#E28A09"/>
</linearGradient>
<linearGradient id="paint1_linear" x1="53.4895" y1="36.0793" x2="53.5516" y2="29.6565" gradientUnits="userSpaceOnUse">
<stop stop-color="#6F951A"/>
<stop offset="0.4892" stop-color="#7EAC24"/>
<stop offset="1" stop-color="#8BBF2D"/>
</linearGradient>
<linearGradient id="paint2_linear" x1="41.8946" y1="29.9336" x2="27.1247" y2="20.6669" gradientUnits="userSpaceOnUse">
<stop stop-color="#6F951A"/>
<stop offset="0.4892" stop-color="#7EAC24"/>
<stop offset="1" stop-color="#8BBF2D"/>
</linearGradient>
<linearGradient id="paint3_linear" x1="38.8823" y1="42.3008" x2="35.3839" y2="36.9107" gradientUnits="userSpaceOnUse">
<stop stop-color="#6F951A"/>
<stop offset="0.4892" stop-color="#7EAC24"/>
<stop offset="1" stop-color="#8BBF2D"/>
</linearGradient>
<clipPath id="clip0">
<rect width="105" height="101.035" fill="white" transform="translate(0.404297 0.839783)"/>
</clipPath>
</defs>
</svg>
