<svg width="122" height="98" viewBox="0 0 122 98" fill="none" xmlns="http://www.w3.org/2000/svg">
<g clip-path="url(#clip0)">
<path d="M120.57 41.5597C120.57 36.7648 61.1876 20.6755 54.4813 20.9951C47.8832 21.3148 4.40071 47.8462 1.69657 53.387C1.5884 53.6001 1.5884 53.7066 1.5884 53.9197V54.0263C0.831245 64.5749 1.9129 66.4929 2.88639 69.3698C4.29254 73.4187 67.353 97.393 73.1939 97.0733C79.2512 96.7537 119.489 64.6815 120.462 59.3539V59.4604C122.734 46.7807 120.57 41.5597 120.57 41.5597ZM1.9129 54.559V54.6656V54.559ZM120.138 58.2883C120.138 58.1818 120.246 58.0752 120.246 58.0752C120.246 58.2883 120.354 58.3949 120.354 58.608C120.246 58.5014 120.246 58.3949 120.138 58.2883Z" fill="#E48B0C"/>
<path d="M120.137 22.5919C120.137 17.4774 60.7542 0.215975 54.048 0.535632C47.5581 0.855288 3.96739 29.4113 1.26325 35.3782C1.15508 35.5913 1.15508 35.8044 1.15508 35.9109V36.0175C-0.467397 46.5661 0.722423 52.7462 1.15508 54.5575V54.6641C1.15508 54.7707 1.26325 54.9838 1.37142 55.1969C5.37354 60.7376 66.9197 82.5808 72.7606 82.2611C78.8179 81.8349 119.055 47.4186 120.029 41.6647V41.7713C122.3 28.3457 120.137 22.5919 120.137 22.5919ZM1.47958 36.6568V36.7633C1.47958 36.6568 1.47958 36.5502 1.47958 36.6568C1.47958 36.5502 1.47958 36.5502 1.47958 36.6568ZM119.704 40.5992C119.704 40.4927 119.813 40.3861 119.813 40.3861C119.813 40.5992 119.921 40.8123 119.921 40.9189C119.921 40.8123 119.813 40.7058 119.704 40.5992Z" fill="#5B2720"/>
<path opacity="0.3" d="M90.8248 15.9872C89.8513 10.6596 61.4038 4.26643 52.3179 5.33195C43.232 6.50403 4.40061 30.2651 7.97007 34.6338C10.1334 37.2976 30.6848 18.3313 58.8078 14.7085C76.547 12.3644 91.2575 18.5444 90.8248 15.9872ZM107.482 39.0024C107.482 38.8959 107.59 38.8959 107.59 38.7893C107.59 39.0024 107.59 39.109 107.699 39.2155C107.59 39.2155 107.59 39.109 107.482 39.0024Z" fill="white"/>
<path opacity="0.3" d="M19.6519 41.1335C32.5236 46.8873 64.4324 56.5836 71.8958 56.5836C78.7103 56.5836 94.3942 41.1335 94.3942 41.1335C95.0432 37.4042 82.9287 41.9859 66.2712 43.7973C47.2341 45.7153 16.5151 39.6418 19.6519 41.1335ZM29.3868 29.4128C29.3868 29.4128 29.3868 29.5193 29.3868 29.4128C29.3868 29.5193 29.3868 29.4128 29.3868 29.4128ZM99.8025 31.8635C99.8025 31.8635 99.8025 31.7569 99.9107 31.7569C99.9107 31.8635 99.9107 31.97 99.9107 32.0766C99.9107 31.97 99.8025 31.8635 99.8025 31.8635Z" fill="white"/>
<path opacity="0.5" d="M25.8175 52.1083C24.844 51.6821 16.4071 53.0673 15.6499 53.8132C15.6499 53.8132 15.6499 53.8132 15.5418 53.9197C14.5683 55.4115 22.1399 65.2142 23.1134 65.5339C23.9787 65.8536 26.791 52.5345 25.8175 52.1083Z" fill="white"/>
<path opacity="0.7" d="M33.4972 17.2658C33.9298 17.9051 29.9277 21.3148 24.4113 24.831C19.003 28.3472 14.2437 30.6914 13.8111 29.9455C13.3784 29.3062 17.3805 25.8965 22.897 22.3803C28.3052 18.9707 33.0645 16.6265 33.4972 17.2658Z" fill="white"/>
<path opacity="0.25" d="M89.2024 30.0521C89.2024 36.8714 81.8472 41.6663 68.2183 42.199C47.9914 42.9449 36.7422 38.6828 36.7422 31.8635C36.7422 25.0441 47.7751 19.61 61.4039 19.61C75.0328 19.61 89.2024 23.3393 89.2024 30.0521Z" fill="#070001"/>
<path d="M20.1928 52.1084C19.5438 50.7232 16.8396 50.6167 14.1355 51.8953H14.0273V51.7888C13.7028 48.9118 12.1885 46.5677 10.6742 46.7808C9.15989 46.8874 8.1864 49.4446 8.5109 52.3215C8.72723 54.6657 9.70072 56.477 10.8905 57.1164C11.9722 57.8622 14.2437 57.7557 16.407 56.6901C19.1111 55.6246 20.8418 53.4936 20.1928 52.1084Z" fill="#B46733"/>
<path d="M46.3687 66.4929C46.8013 68.3043 50.0463 69.2633 53.8321 68.5174H53.9403V68.624C53.5076 72.3533 54.6974 75.5499 56.5362 75.763C58.4832 75.9761 60.4302 73.2057 60.8629 69.4764C61.1874 66.5995 60.5384 63.9357 59.3485 62.8701C58.2669 61.6981 55.4546 61.1653 52.426 61.8046C48.7483 62.5505 46.0442 64.6815 46.3687 66.4929Z" fill="#B46733"/>
<path d="M44.9625 60.4194C44.9625 62.8701 42.691 64.8946 39.8787 64.8946C37.0664 64.8946 34.7949 62.8701 34.7949 60.4194C34.7949 57.9687 37.0664 55.9442 39.8787 55.9442C42.691 55.9442 44.9625 57.9687 44.9625 60.4194Z" fill="#B46733"/>
<path d="M31.7666 63.8291C31.7666 65.1078 30.6849 66.1733 29.387 66.1733C28.089 66.1733 27.0073 65.1078 27.0073 63.8291C27.0073 62.5505 28.089 61.485 29.387 61.485C30.6849 61.485 31.7666 62.5505 31.7666 63.8291Z" fill="#B46733"/>
<path d="M68.6509 75.6564C68.6509 77.0416 67.5692 78.1071 66.1631 78.1071C64.8651 78.1071 63.6753 77.0416 63.6753 75.6564C63.6753 74.2712 64.7569 73.2057 66.1631 73.2057C67.5692 73.2057 68.6509 74.2712 68.6509 75.6564Z" fill="#B46733"/>
<path d="M88.0124 70.0091C88.9858 68.837 88.9858 65.3208 86.7144 63.4029C86.7144 63.4029 87.2552 63.7225 87.147 63.7225C87.147 63.7225 86.6062 63.4029 86.7144 63.4029C89.3103 61.9111 91.4737 59.9932 90.7165 58.7146C89.9593 57.4359 87.2552 57.5425 84.6592 58.9277C82.6041 60.0997 81.1979 61.698 81.0897 62.9767C80.8734 64.2553 81.4143 66.1732 82.8204 68.1977C84.4429 70.6484 87.0389 71.1812 88.0124 70.0091Z" fill="#B46733"/>
<path d="M103.264 50.9363C103.264 52.4281 102.398 54.4526 101.317 54.4526C100.235 54.4526 98.9372 53.6002 99.3698 50.9363C99.5861 49.0184 100.235 47.9529 101.317 47.9529C102.398 48.0594 103.264 49.4446 103.264 50.9363Z" fill="#B46733"/>
<path d="M116.135 42.5187C116.135 44.0104 115.378 45.1825 114.405 45.1825C113.431 45.1825 112.674 44.0104 112.674 42.5187C112.674 41.0269 113.431 39.8549 114.405 39.8549C115.378 39.8549 116.135 41.0269 116.135 42.5187Z" fill="#B46733"/>
<path d="M108.564 51.256C108.564 52.2149 108.131 53.4936 107.59 53.4936C107.05 53.4936 106.509 51.8953 106.509 50.9363C106.509 49.9773 107.05 49.4446 107.59 49.4446C108.131 49.4446 108.564 50.297 108.564 51.256Z" fill="#B46733"/>
<path opacity="0.6" d="M11.3231 49.9774C11.3231 50.1905 11.1068 50.4036 10.8904 50.4036C10.6741 50.4036 10.3496 50.1905 10.3496 49.9774C10.3496 49.7643 10.5659 49.5511 10.8904 49.5511C11.1068 49.5511 11.3231 49.7643 11.3231 49.9774Z" fill="white"/>
<path opacity="0.6" d="M11.3231 52.4284C11.3231 52.6418 11.1068 52.7485 10.8904 52.7485C10.6741 52.7485 10.3496 52.6418 10.3496 52.4284C10.3496 52.215 10.5659 52.1083 10.8904 52.1083C11.1068 52.0016 11.3231 52.215 11.3231 52.4284Z" fill="white"/>
<path opacity="0.6" d="M42.7994 59.8866C42.7994 60.2063 42.6912 60.4194 42.4749 60.4194C42.3667 60.4194 42.1504 60.2063 42.1504 59.8866C42.1504 59.567 42.2586 59.3539 42.4749 59.3539C42.6912 59.3539 42.7994 59.6735 42.7994 59.8866Z" fill="white"/>
<path opacity="0.6" d="M58.3752 68.3047C58.3752 68.5181 58.0507 68.6248 57.618 68.6248C57.1853 68.6248 56.8608 68.5181 56.8608 68.3047C56.8608 68.0913 57.1853 67.9846 57.618 67.9846C57.9425 67.9846 58.3752 68.0913 58.3752 68.3047Z" fill="white"/>
<path opacity="0.6" d="M58.267 71.8205C58.267 72.0336 57.9425 72.2467 57.5098 72.2467C57.0772 72.2467 56.7527 72.0336 56.7527 71.8205C56.7527 71.6074 57.0772 71.3943 57.5098 71.3943C57.9425 71.3943 58.267 71.6074 58.267 71.8205Z" fill="white"/>
<path opacity="0.6" d="M56.7528 63.829C56.7528 64.0421 56.6446 64.2553 56.4283 64.2553C56.2119 64.2553 56.1038 64.0421 56.1038 63.829C56.1038 63.6159 56.2119 63.4028 56.4283 63.4028C56.6446 63.4028 56.7528 63.6159 56.7528 63.829Z" fill="white"/>
<path d="M84.5511 64.5749C84.5511 64.788 84.3348 65.0011 84.0103 65.0011C83.6858 65.0011 83.4695 64.788 83.4695 64.5749C83.4695 64.3618 83.6858 64.1487 84.0103 64.1487C84.3348 64.1487 84.5511 64.3618 84.5511 64.5749Z" fill="white"/>
<path opacity="0.6" d="M94.7186 57.3294C94.7186 57.7556 94.5023 58.0752 94.1778 58.0752C93.8533 58.0752 93.637 57.7556 93.637 57.3294C93.637 56.9032 93.8533 56.5835 94.1778 56.5835C94.3941 56.5835 94.7186 56.9032 94.7186 57.3294Z" fill="white"/>
<path opacity="0.6" d="M67.1366 66.9191C67.1366 67.4518 66.8121 67.878 66.4876 67.878C66.1631 67.878 65.8386 67.4518 65.8386 66.9191C65.8386 66.3863 66.1631 65.9601 66.4876 65.9601C66.8121 65.9601 67.1366 66.3863 67.1366 66.9191Z" fill="white"/>
<path opacity="0.6" d="M65.1895 70.4354C65.1895 70.6485 65.0814 70.8616 64.865 70.8616C64.6487 70.8616 64.5405 70.6485 64.5405 70.4354C64.5405 70.2223 64.6487 70.0092 64.865 70.0092C65.0814 70.0092 65.1895 70.2223 65.1895 70.4354Z" fill="white"/>
<path opacity="0.6" d="M33.4972 52.8542C33.4972 53.2804 33.2808 53.7066 33.0645 53.7066C32.8482 53.7066 32.6318 53.387 32.6318 52.8542C32.6318 52.428 32.8482 52.0018 33.0645 52.0018C33.2808 52.0018 33.4972 52.428 33.4972 52.8542Z" fill="white"/>
<path opacity="0.6" d="M15.4335 45.289C15.4335 45.6086 15.109 45.9283 14.5682 45.9283C14.1355 45.9283 13.7029 45.6086 13.7029 45.289C13.7029 44.9693 14.0274 44.6497 14.5682 44.6497C15.0009 44.6497 15.4335 44.8628 15.4335 45.289Z" fill="white"/>
<path opacity="0.6" d="M6.23939 43.0514C6.23939 43.4776 5.91489 43.7973 5.5904 43.7973C5.2659 43.7973 4.94141 43.4776 4.94141 43.0514C4.94141 42.6252 5.2659 42.3055 5.5904 42.3055C5.91489 42.3055 6.23939 42.6252 6.23939 43.0514Z" fill="white"/>
<g opacity="0.7">
<path opacity="0.7" d="M81.6307 54.7721C73.8428 60.8456 69.8407 60.0997 63.2426 57.9687C8.94357 41.3466 3.5353 38.8959 12.513 42.5186C21.3826 46.1414 70.5979 63.5094 72.1122 63.4029C73.6265 63.2963 73.6265 75.017 73.6265 75.017C74.6 75.017 75.4653 63.616 75.3571 62.4439C84.6594 57.7556 103.156 37.9369 81.6307 54.7721Z" fill="white"/>
<path opacity="0.25" d="M120.137 42.5187C120.137 42.5187 120.137 42.6252 120.137 42.5187C120.246 42.199 120.246 41.8794 120.354 41.5597C121.219 37.7238 120.786 25.5769 120.137 23.1262C118.623 18.8641 88.8777 9.27444 87.2552 10.5531C84.6592 12.5776 110.619 18.3314 112.782 25.4704C115.27 33.888 75.4652 61.6981 85.5245 58.2884C91.2573 56.3705 104.886 42.8383 106.4 44.5432C107.915 46.248 77.953 80.984 73.1937 82.1561C68.5426 83.3281 39.8787 72.1402 39.2297 71.9271C38.5807 71.714 72.2202 84.8199 73.8427 85.1395C75.4652 85.3526 75.8978 91.8523 75.6815 93.4506C75.5733 94.9423 100.776 66.5995 103.804 68.0912C106.833 69.5829 99.0452 79.8119 99.0452 79.8119C111.16 70.6484 120.57 59.3539 120.57 59.3539C122.193 48.4856 120.137 42.5187 120.137 42.5187Z" fill="#070001"/>
<path opacity="0.3" d="M49.1811 89.4016C51.4526 70.3288 39.0135 53.387 26.0337 52.2149C13.9192 51.0429 6.99656 60.7391 7.97005 72.8861C14.5681 76.1892 46.2606 88.4427 49.1811 89.4016Z" fill="white"/>
<path opacity="0.7" d="M72.9774 49.338C72.7611 51.3625 71.6795 55.3049 67.1365 54.8787C62.5936 54.3459 49.3974 50.2969 49.6137 48.2725C49.83 46.248 56.6445 46.9938 61.2956 47.5266C65.8385 47.9528 73.1938 47.3135 72.9774 49.338Z" fill="white"/>
<path opacity="0.3" d="M48.7483 88.9754C50.3708 75.2302 41.5012 63.0833 32.0908 62.2309C23.4376 61.3784 18.462 68.3043 19.111 77.0416C23.9784 79.4923 46.8013 88.2296 48.7483 88.9754Z" fill="white"/>
</g>
<path d="M74.5999 10.2334C74.5999 10.2334 73.7345 2.6682 84.1184 0.430603C84.1184 0.430603 82.0633 7.7827 81.3061 8.95477C80.549 10.1268 84.9837 7.56959 91.041 10.3399C91.041 10.3399 86.3899 15.7741 84.1184 16.0938C84.1184 16.0938 84.8756 19.0772 91.041 19.9296C91.041 19.9296 83.9021 29.0931 77.953 19.8231C71.8957 10.5531 73.9509 13.6431 74.5999 10.2334Z" fill="#3B8D14"/>
<path opacity="0.3" d="M75.2488 9.38097C75.2488 9.38097 80.0081 5.7582 81.1979 4.05337C82.3877 2.34854 78.2774 10.6596 79.1427 10.9793C80.0081 11.2989 86.3898 12.1513 88.1205 10.9793C89.8511 9.80718 84.9837 16.6265 81.1979 15.2413C77.4121 13.8562 84.8755 22.1672 87.0388 21.2083C89.3103 20.3558 75.4651 28.4538 75.2488 9.38097Z" fill="black"/>
<path d="M81.198 26.3228C81.198 35.6994 73.7346 41.3466 59.5649 39.5352C47.6667 37.937 35.2277 41.3466 35.8766 29.0931C36.4175 19.7165 50.479 2.77476 62.5935 2.77476C74.5999 2.66821 81.198 16.9462 81.198 26.3228Z" fill="#D50506"/>
<path d="M59.2404 8.31545C59.5649 8.95476 58.9159 10.0203 57.7261 10.6596C56.6444 11.2989 55.4546 11.1924 55.1301 10.4465C54.8056 9.80718 55.4546 8.74166 56.6444 8.10235C57.8343 7.56958 59.0241 7.67614 59.2404 8.31545Z" fill="#FF9E0C"/>
<path d="M57.5098 18.1182C57.7261 18.7576 57.1853 19.7165 56.1036 20.2493C55.022 20.782 54.0485 20.6755 53.724 20.0362C53.5077 19.3969 54.0485 18.4379 55.1302 17.9051C56.1036 17.3724 57.1853 17.4789 57.5098 18.1182Z" fill="#FF9E0C"/>
<path d="M44.8542 21.8476C45.0706 22.4869 44.5297 23.4459 43.4481 23.9787C42.3664 24.5114 41.3929 24.4049 41.0684 23.7656C40.7439 23.1262 41.3929 22.1673 42.4746 21.6345C43.4481 21.1018 44.5297 21.2083 44.8542 21.8476Z" fill="#FF9E0C"/>
<path d="M58.2668 27.0686C58.5913 27.7079 57.9423 28.6669 56.8607 29.1997C55.779 29.7324 54.8055 29.6259 54.481 28.9866C54.1565 28.3473 54.8055 27.3883 55.8872 26.8555C56.9688 26.3228 58.0505 26.4293 58.2668 27.0686Z" fill="#FF9E0C"/>
<path d="M69.6242 19.7165C69.8406 20.3558 69.2998 21.3148 68.2181 21.8475C67.1364 22.3803 66.163 22.2738 65.8385 21.6344C65.514 20.9951 66.163 20.0362 67.2446 19.5034C68.3263 19.0772 69.2998 19.0772 69.6242 19.7165Z" fill="#FF9E0C"/>
<path d="M50.5872 13.6431C50.8035 14.2824 50.2627 15.2414 49.181 15.7741C48.0994 16.3069 47.1259 16.2003 46.8014 15.561C46.5851 14.9217 47.1259 13.9627 48.2076 13.43C49.181 12.8972 50.2627 13.0038 50.5872 13.6431Z" fill="#FF9E0C"/>
<path d="M47.9913 31.5438C48.0994 32.1831 47.2341 32.929 46.1524 33.1421C45.0708 33.3552 43.9891 33.0355 43.881 32.2897C43.7728 31.6504 44.6381 30.9045 45.7198 30.6914C46.9096 30.4783 47.8831 30.798 47.9913 31.5438Z" fill="#FF9E0C"/>
<path d="M68.9753 31.7569C69.1917 32.3962 68.6508 33.3552 67.5692 33.8879C66.4875 34.4207 65.514 34.3142 65.1895 33.6748C64.865 33.0355 65.514 32.0766 66.5957 31.5438C67.6773 31.1176 68.6508 31.1176 68.9753 31.7569Z" fill="#FF9E0C"/>
<path d="M58.4832 35.06C58.6995 35.6994 57.9424 36.5518 56.8607 36.978C55.7791 37.4042 54.6974 37.1911 54.4811 36.4452C54.2648 35.8059 55.0219 34.9535 56.1036 34.5273C57.1852 34.1011 58.2669 34.3142 58.4832 35.06Z" fill="#FF9E0C"/>
<path d="M77.0875 23.1262C77.412 23.3393 77.3039 24.4048 76.763 25.4703C76.2222 26.5358 75.465 27.2817 75.1405 27.0686C74.816 26.8555 74.9242 25.79 75.465 24.7245C76.0059 23.6589 76.763 22.9131 77.0875 23.1262Z" fill="#FF9E0C"/>
<path opacity="0.4" d="M69.2997 18.1183C69.7323 23.2328 65.9466 26.2162 58.6995 26.9621C51.3442 27.708 42.3665 27.4949 41.9338 22.3804C41.5012 17.2659 49.6136 7.03686 56.8607 6.29099C64.2159 5.65168 68.867 13.0038 69.2997 18.1183Z" fill="#FF9E0C"/>
<path opacity="0.2" d="M61.9446 14.9217C62.1609 18.0117 59.9976 19.8231 55.5628 20.2493C51.2362 20.6755 45.8279 20.5689 45.6116 17.4789C45.3953 14.3889 50.1545 8.31543 54.5893 7.88923C58.9159 7.35646 61.7283 11.8317 61.9446 14.9217Z" fill="#FFF7EF"/>
<path opacity="0.2" d="M55.5627 4.47961C55.5627 4.47961 65.7303 6.291 65.1895 15.561C64.6486 24.8311 59.5649 32.0766 56.4281 24.2983C56.4281 24.2983 62.3772 20.3559 62.4853 16.8397C62.7017 13.3234 55.5627 4.47961 55.5627 4.47961Z" fill="black"/>
<path opacity="0.2" d="M73.951 9.70068C73.0857 7.67619 71.2469 5.54515 71.2469 5.54515C70.9224 5.33204 70.5979 5.8648 70.1653 6.82377C67.6774 5.33204 65.2978 4.69273 63.8917 5.11894C63.8917 5.11894 66.704 7.03688 69.0836 10.1269C68.2183 13.2169 67.4611 17.1593 67.0285 19.7166C66.5958 22.5935 68.3264 24.618 70.4898 25.0442C70.1653 25.4704 69.8408 25.8966 69.5163 26.3228C60.3222 37.4042 38.1483 31.8635 37.8238 27.3883C37.3911 22.9131 32.8482 35.0601 44.53 38.2566C48.424 39.3222 53.0751 37.2977 58.2671 38.2566C68.1101 40.1746 80.2246 38.6829 80.9818 28.2407C81.739 20.0362 78.1695 13.6431 73.951 9.70068Z" fill="black"/>
<path opacity="0.2" d="M45.7198 15.7741C45.7198 15.7741 46.6933 17.5855 47.9913 17.9052C49.2893 18.2248 53.2914 24.7245 49.6137 28.2407C45.9361 31.7569 41.6095 27.3883 42.2585 25.6835C43.0157 24.0852 42.7993 16.52 45.7198 15.7741Z" fill="black"/>
<path d="M44.5299 16.8396C44.5299 16.8396 46.9095 14.4955 48.532 14.1758C50.1545 13.7496 54.8056 15.9872 56.5363 18.2248C58.2669 20.4624 57.4016 20.2493 56.9689 21.5279C56.5363 22.7 55.5628 25.5769 59.0241 26.2162C62.4854 26.8555 65.2977 19.3969 64.5405 13.43C63.6752 7.24993 51.5607 -1.27424 48.3157 9.16787C48.3157 9.16787 52.6423 6.82372 55.1301 8.10235C57.6179 9.38098 60.2139 15.3479 59.2404 16.0938C58.2669 16.7331 54.6975 9.91374 49.9382 10.4465C45.1789 10.9793 41.8258 13.5365 41.8258 15.3479C41.8258 17.1593 36.6338 15.8807 37.4991 23.0196C37.4991 23.0196 39.9869 21.8476 40.8523 23.1262C41.7176 24.2983 41.8258 28.88 46.2605 28.3473C50.8035 27.8145 51.6688 20.1427 44.5299 16.8396Z" fill="#511F14"/>
<path d="M56.5362 4.26705C56.5362 4.26705 65.6221 5.43912 66.8119 9.80776C68.0017 14.2829 65.6221 20.6761 68.7589 22.9137C71.8957 25.0447 74.5998 22.4875 74.059 17.4795C73.5182 12.4716 71.3548 10.9798 71.463 7.14395C71.5712 3.30808 66.3792 -0.421245 61.7281 1.28359C56.9688 2.88187 56.1035 3.62773 56.5362 4.26705Z" fill="#511F14"/>
<path opacity="0.3" d="M56.428 3.84027C56.428 3.84027 67.0282 4.15992 67.7853 10.1268C68.5425 16.0938 69.2997 18.3314 70.165 17.5855C71.1385 16.8396 70.5976 12.7906 70.7058 10.3399C70.7058 8.42201 69.6242 2.8813 68.7588 2.24199C67.8935 1.70922 71.3548 2.77475 71.463 7.67614C71.5711 12.5775 73.7344 11.6186 74.1671 18.0117C74.5998 24.4048 69.9487 23.3393 69.4078 23.0196C68.867 22.7 67.1363 21.9541 67.1363 15.8807C67.1363 10.0203 67.7853 6.39752 56.428 3.84027Z" fill="#070001"/>
<path opacity="0.3" d="M57.5098 5.1189C57.5098 5.1189 63.8915 10.2334 62.918 15.1348C61.9445 20.0362 60.5384 18.2248 59.5649 17.5855C58.5914 16.9462 53.9403 13.7496 53.2913 14.0693C52.6423 14.3889 58.4832 18.1183 58.4832 19.5034C58.4832 20.8886 56.5363 22.3803 56.7526 23.4459C56.9689 24.5114 58.3751 26.9621 60.4302 25.3638C62.4854 23.7655 69.1916 12.1513 57.5098 5.1189Z" fill="#070001"/>
<path opacity="0.3" d="M42.9073 15.7741C42.9073 15.7741 46.5849 12.3644 49.6136 13.4299C52.534 14.3889 48.8564 12.7906 46.6931 14.8151C44.5298 16.8396 42.042 16.52 42.9073 15.7741Z" fill="#070001"/>
<path opacity="0.3" d="M42.3665 20.5689C41.5012 25.2572 47.3421 28.88 48.8564 25.79C50.3708 22.8065 43.7727 13.0037 42.3665 20.5689Z" fill="#070001"/>
<path opacity="0.2" d="M68.9752 7.14338C68.8671 7.88924 66.0548 4.26647 63.6751 3.84026C61.2955 3.52061 59.8894 3.52061 59.9975 2.77474C60.1057 2.02888 62.7017 0.963355 64.9731 1.38956C68.9752 2.24198 69.2997 5.7582 68.9752 7.14338Z" fill="white"/>
<path opacity="0.4" d="M66.7039 4.58615C66.7039 5.01236 64.9732 3.09442 63.6753 3.09442C62.3773 2.98787 61.6201 3.09442 61.6201 2.66821C61.6201 2.242 63.0263 1.60269 64.2161 1.70924C66.4876 1.92235 66.7039 3.84028 66.7039 4.58615Z" fill="white"/>
<path opacity="0.2" d="M50.1544 6.93025C50.1544 6.93025 50.6952 4.7992 53.2912 4.5861C55.8872 4.47955 60.3219 7.2499 61.6199 11.1923C62.9179 15.1348 60.3219 16.2003 59.9975 14.2823C59.7811 12.3644 57.6178 8.84819 55.5627 7.78266C53.5075 6.61059 49.3972 8.31543 50.1544 6.93025Z" fill="white"/>
<path opacity="0.4" d="M54.9137 5.97131C54.9137 6.50407 54.1565 6.82373 53.183 6.82373C52.2096 6.82373 51.4524 6.39752 51.4524 5.97131C51.4524 5.43855 52.2096 5.1189 53.183 5.1189C54.1565 5.1189 54.9137 5.5451 54.9137 5.97131Z" fill="white"/>
<path opacity="0.2" d="M53.6157 12.8972C53.6157 13.5365 51.1279 12.471 48.8565 12.471C46.585 12.471 44.0972 14.2824 44.0972 13.7496C44.0972 13.1103 46.6931 11.0858 48.9646 11.0858C51.1279 11.0858 53.6157 12.2579 53.6157 12.8972Z" fill="white"/>
<path opacity="0.4" d="M51.6689 12.2579C51.6689 12.6841 49.9382 12.2579 48.4239 12.2579C46.9096 12.2579 45.179 13.5365 45.179 13.1103C45.179 12.6841 46.9096 11.2989 48.4239 11.2989C49.9382 11.2989 51.6689 11.8316 51.6689 12.2579Z" fill="white"/>
<path opacity="0.2" d="M42.7992 16.9462C43.2318 17.4789 42.1502 17.9051 40.9604 18.7575C39.8787 19.61 39.1215 21.2082 38.7971 20.6755C38.3644 20.1427 38.4726 18.5444 39.5542 17.692C40.6359 16.9462 42.3665 16.4134 42.7992 16.9462Z" fill="white"/>
<path opacity="0.4" d="M40.7442 18.0117C40.9605 18.2248 40.7442 18.651 40.3115 18.9707C39.8789 19.2903 39.4462 19.3969 39.2299 19.1838C39.0136 18.9707 39.2299 18.5444 39.6625 18.2248C40.2034 17.9051 40.636 17.7986 40.7442 18.0117Z" fill="white"/>
</g>
<defs>
<clipPath id="clip0">
<rect width="121.253" height="96.6428" fill="white" transform="translate(0.290283 0.430603)"/>
</clipPath>
</defs>
</svg>
