<svg width="28" height="28" viewBox="0 0 28 28" fill="none" xmlns="http://www.w3.org/2000/svg">
<path d="M24.9974 4.79071C24.8928 4.77993 24.7873 4.77993 24.6827 4.79071H3.19434C3.05662 4.79283 2.91981 4.81348 2.7876 4.8521L13.8771 15.8956L24.9974 4.79071Z" fill="white"/>
<path d="M26.133 5.91891L14.9591 17.0468C14.6715 17.3327 14.2825 17.4932 13.877 17.4932C13.4715 17.4932 13.0825 17.3327 12.7949 17.0468L1.72071 6.00333C1.68667 6.12846 1.66862 6.25739 1.66699 6.38705V21.7359C1.66699 22.143 1.8287 22.5334 2.11655 22.8212C2.4044 23.1091 2.7948 23.2708 3.20188 23.2708H24.6902C25.0973 23.2708 25.4877 23.1091 25.7756 22.8212C26.0634 22.5334 26.2251 22.143 26.2251 21.7359V6.38705C26.219 6.22716 26.188 6.06921 26.133 5.91891ZM4.25327 21.7359H3.18653V20.6385L8.76583 15.1052L9.84792 16.1873L4.25327 21.7359ZM24.6749 21.7359H23.6005L18.0058 16.1873L19.0879 15.1052L24.6672 20.6385L24.6749 21.7359Z" fill="white"/>
</svg>
