<svg width="1920" height="310" viewBox="0 0 1920 310" fill="none" xmlns="http://www.w3.org/2000/svg">
<g filter="url(#filter0_d)">
<path d="M0 0C0 18.1934 0 126.527 0 144.721C0.734694 144.721 1.22449 144.721 2.20408 144.721C23.5102 144.721 31.5918 156.794 36 161.425C47.5102 173.169 57.7959 189.046 78.6122 189.212C103.837 189.212 115.102 167.876 134.694 157.125C153.796 146.54 184.408 146.871 202.776 158.118C220.163 168.537 229.224 187.392 252.245 189.543C260.816 190.37 269.633 188.385 278.204 188.55C309.306 188.716 333.551 213.69 364.163 209.886C399.918 205.421 410.204 166.057 446.449 165.726C489.306 165.23 486.857 223.945 529.959 224.276C577.224 224.772 575.51 149.352 620.816 147.532C642.122 146.705 656.327 161.425 667.102 173.665C677.878 186.069 696.245 199.466 716.571 195.166C729.551 192.354 737.633 182.761 750.857 180.777C771.429 177.634 785.878 193.843 794.204 206.909C802.286 220.141 819.429 235.522 839.265 230.561C849.551 227.914 855.673 220.141 865.714 217.329C891.673 209.721 915.184 237.176 943.347 234.861C975.674 232.049 975.918 196.489 1005.31 187.062C1025.63 180.611 1049.39 190.039 1065.06 200.955C1080.73 211.871 1094.45 225.599 1116 230.064C1135.59 234.199 1158.61 228.741 1170.37 217.494C1186.78 201.616 1186.29 173.995 1214.45 170.026C1256.82 163.906 1273.22 223.945 1314.86 215.84C1333.22 212.367 1339.35 197.482 1349.88 186.731C1360.41 175.98 1368 183.919 1394.45 183.919C1420.9 183.919 1431.43 147.532 1450.78 173.83C1470.12 200.128 1490.45 205.421 1506.86 194.174C1514.94 188.716 1517.63 181.438 1523.76 175.484C1529.88 169.364 1544.08 163.741 1558.29 173.334C1567.59 179.619 1583.27 180.611 1594.04 175.815C1602.37 172.176 1607.02 165.891 1612.65 160.599C1618.29 155.14 1626.61 150.013 1636.41 150.179C1642.78 150.344 1648.65 152.66 1654.04 154.975C1674.37 163.41 1696.16 171.845 1719.92 172.011C1725.55 172.011 1731.18 171.68 1736.82 172.507C1755.67 175.484 1764 192.024 1782.86 195.166C1798.29 197.647 1813.22 189.873 1822.78 181.273C1831.59 173.334 1840.65 163.245 1855.35 162.583C1861.71 162.418 1868.08 164.899 1874.45 164.568C1903.84 163.741 1895.02 144.886 1918.04 144.886C1918.78 144.886 1919.27 144.886 1920 144.886C1920 126.693 1920 18.0281 1920 0.165395H0V0Z" fill="#E49C6B"/>
</g>
<path d="M0 0C0 17.5741 0 122.22 0 139.794C0.734694 139.794 1.22449 139.794 2.20408 139.794C23.5102 139.794 31.5918 151.457 36 155.93C47.5102 167.273 57.7959 182.611 78.6122 182.771C103.837 182.771 115.102 162.161 134.694 151.776C153.796 141.551 184.408 141.871 202.776 152.735C220.163 162.8 229.224 181.013 252.245 183.09C260.816 183.889 269.633 181.972 278.204 182.132C309.306 182.291 333.551 206.416 364.163 202.741C399.918 198.428 410.204 160.404 446.449 160.084C489.306 159.605 486.857 216.321 529.959 216.641C577.224 217.12 575.51 144.267 620.816 142.51C642.122 141.711 656.327 155.93 667.102 167.753C677.878 179.735 696.245 192.676 716.571 188.522C729.551 185.806 737.633 176.54 750.857 174.623C771.429 171.587 785.878 187.244 794.204 199.865C802.286 212.647 819.429 227.505 839.265 222.712C849.551 220.155 855.673 212.647 865.714 209.931C891.673 202.581 915.184 229.102 943.347 226.866C975.674 224.15 975.918 189.8 1005.31 180.694C1025.63 174.463 1049.39 183.569 1065.06 194.114C1080.73 204.658 1094.45 217.919 1116 222.232C1135.59 226.227 1158.61 220.954 1170.37 210.09C1186.78 194.753 1186.29 168.072 1214.45 164.238C1256.82 158.327 1273.22 216.321 1314.86 208.493C1333.22 205.138 1339.35 190.759 1349.88 180.374C1360.41 169.989 1368 177.658 1394.45 177.658C1420.9 177.658 1431.43 142.51 1450.78 167.912C1470.12 193.315 1490.45 198.428 1506.86 187.564C1514.94 182.291 1517.63 175.262 1523.76 169.51C1529.88 163.599 1544.08 158.167 1558.29 167.433C1567.59 173.504 1583.27 174.463 1594.04 169.83C1602.37 166.315 1607.02 160.244 1612.65 155.131C1618.29 149.859 1626.61 144.906 1636.41 145.066C1642.78 145.226 1648.65 147.463 1654.04 149.699C1674.37 157.847 1696.16 165.995 1719.92 166.155C1725.55 166.155 1731.18 165.836 1736.82 166.634C1755.67 169.51 1764 185.487 1782.86 188.522C1798.29 190.919 1813.22 183.41 1822.78 175.102C1831.59 167.433 1840.65 157.688 1855.35 157.049C1861.71 156.889 1868.08 159.285 1874.45 158.966C1903.84 158.167 1895.02 139.954 1918.04 139.954C1918.78 139.954 1919.27 139.954 1920 139.954C1920 122.38 1920 17.4143 1920 0.159764H0V0Z" fill="white"/>
<defs>
<filter id="filter0_d" x="-50" y="-25" width="2020" height="335" filterUnits="userSpaceOnUse" color-interpolation-filters="sRGB">
<feFlood flood-opacity="0" result="BackgroundImageFix"/>
<feColorMatrix in="SourceAlpha" type="matrix" values="0 0 0 0 0 0 0 0 0 0 0 0 0 0 0 0 0 0 127 0"/>
<feOffset dy="25"/>
<feGaussianBlur stdDeviation="25"/>
<feColorMatrix type="matrix" values="0 0 0 0 0 0 0 0 0 0 0 0 0 0 0 0 0 0 0.2 0"/>
<feBlend mode="normal" in2="BackgroundImageFix" result="effect1_dropShadow"/>
<feBlend mode="normal" in="SourceGraphic" in2="effect1_dropShadow" result="shape"/>
</filter>
</defs>
</svg>
