<svg width="320" height="119" viewBox="0 0 320 119" fill="none" xmlns="http://www.w3.org/2000/svg">
<path d="M264.604 119C266.363 119 267.916 119 269.675 119C269.365 118.688 269.158 118.48 268.951 118.376C266.984 117.127 265.018 115.982 263.051 114.63C255.081 109.323 249.284 102.143 245.144 93.5059C242.556 87.9909 240.589 82.2677 239.865 76.2324C239.347 72.0701 239.244 67.9078 239.554 63.7455C239.761 60.7278 240.175 57.7102 240.9 54.6925C241.004 54.2763 241.107 53.9641 241.314 53.3398C241.521 53.756 241.728 54.0682 241.832 54.3803C242.453 55.8371 243.177 57.2939 244.109 58.6467C244.523 59.167 244.833 59.5832 245.247 60.1035C247.525 62.6009 250.319 63.3293 253.528 62.0806C254.77 61.6644 256.012 61.1441 257.254 60.6238C259.946 59.3751 262.223 59.8954 264.086 62.2887C264.707 63.0171 265.328 63.7455 266.053 64.3698C266.881 65.0982 267.916 65.7226 268.847 66.451C268.537 67.6997 268.123 68.8443 267.812 70.093C267.191 73.1107 267.295 76.1283 268.226 78.9379C269.468 82.9961 271.228 86.9503 273.609 90.4883C277.542 96.2114 283.028 99.4372 289.86 99.9575C296.174 100.478 301.556 98.1885 305.904 93.5059C307.249 92.0491 308.284 90.2801 309.423 88.7193C309.733 88.3031 309.94 87.9909 310.147 87.4706C310.458 87.7828 310.665 88.0949 310.872 88.303C311.39 88.8233 311.804 89.4477 312.425 89.968C314.184 91.5288 316.358 92.0491 318.635 91.3207C319.567 91.0085 320.498 90.6964 321.326 90.3842C322.879 89.8639 324.432 89.6558 326.088 89.8639C327.433 89.968 328.676 90.4883 329.607 91.4248C330.125 91.841 330.539 92.3613 330.953 92.8816C332.091 94.0262 333.126 95.2749 334.369 96.5236C334.265 96.8358 334.058 97.252 333.851 97.5642C331.47 102.143 328.055 105.889 324.121 109.219C319.774 112.861 315.012 115.774 309.837 117.959C309.423 118.168 308.905 118.376 308.491 118.584C308.491 118.584 308.491 118.688 308.388 118.792C308.698 118.792 309.009 118.896 309.319 118.896C311.597 118.896 313.874 118.896 316.151 118.896C316.772 118.896 317.29 118.792 317.911 118.48C324.225 114.942 329.918 110.467 334.265 104.64C338.405 99.021 340.993 92.6734 342.339 85.9097C343.374 80.915 343.995 75.8161 343.995 70.8214C344.098 61.9765 342.649 53.4438 338.509 45.4314C331.056 31.0715 316.772 21.9144 303.109 19.9373C298.14 19.2089 293.068 18.7927 287.997 19.1049C283.028 19.417 278.163 20.4576 273.402 21.8104C267.916 23.4753 262.637 25.4524 257.668 28.2619C253.011 30.8634 248.767 34.0891 245.144 38.0433C240.486 43.0381 237.795 49.0734 236.242 55.629C235.207 60.4157 235 65.2023 235 69.989C235.104 79.146 237.691 87.4706 241.935 95.483C246.593 104.328 253.321 111.404 261.498 117.023C262.74 117.751 263.672 118.376 264.604 119ZM337.784 54.3803C338.198 54.3803 338.198 54.7966 338.302 55.0047C339.026 57.6061 339.44 60.2075 339.751 62.913C339.751 63.1212 339.751 63.2252 339.751 63.4333C339.648 63.4333 339.648 63.4333 339.544 63.4333C338.923 60.4157 338.405 57.398 337.784 54.3803C337.784 54.1722 337.784 53.9641 337.784 53.86L337.888 53.86C337.888 54.0682 337.888 54.2763 337.784 54.3803ZM257.772 49.4896C256.84 48.6572 255.909 47.8247 254.977 46.9923C254.667 45.7436 254.46 44.4949 254.149 43.2462C254.356 43.2462 254.46 43.2462 254.563 43.3502C255.391 44.1827 256.323 45.0152 257.047 45.7436C257.358 46.7841 257.565 47.6166 257.772 48.4491C257.772 48.7612 257.772 49.0734 257.772 49.4896ZM255.288 40.0204C254.874 39.6042 254.563 39.188 253.839 39.292C254.563 40.0204 255.184 40.7488 255.909 41.3732C256.116 42.3097 256.426 43.1421 256.53 44.1827C255.495 43.2462 254.563 42.4137 253.735 41.4772C253.425 39.7082 252.804 38.0433 252.7 36.2743C253.218 35.8581 253.735 35.4419 254.356 35.0257C254.874 36.5865 255.184 38.0433 255.495 39.6042C255.495 39.7082 255.288 39.8123 255.288 40.0204ZM257.772 53.756C257.979 53.4438 257.668 53.2357 257.461 53.0276C257.047 52.6114 256.53 52.1951 256.116 51.883C255.909 50.8424 255.598 49.8018 255.288 48.345C256.53 49.3856 257.461 50.218 258.393 51.0505C259.014 53.1316 259.532 55.3169 260.153 57.5021C259.325 57.6061 258.497 57.7102 257.668 57.8142C257.254 56.2534 256.737 54.7966 256.53 53.1316C257.151 53.4438 257.461 53.5479 257.772 53.756ZM267.295 41.9975C266.467 41.8934 266.156 41.165 265.432 40.6447C265.121 38.8758 264.811 37.0028 264.5 35.1297C264.19 33.2567 263.672 31.3836 263.672 29.5106C264.397 29.1984 265.018 28.7822 265.742 28.6781C266.363 31.5918 266.777 35.65 266.57 36.5865C266.053 36.4825 265.742 35.8581 264.914 36.0662C265.742 36.7946 266.363 37.3149 267.088 37.9393C266.984 39.3961 267.088 40.7488 267.295 41.9975ZM251.768 49.0734C253.218 49.9059 254.253 51.1546 255.598 52.1951C256.012 54.2763 256.737 56.1493 257.047 58.2305C256.219 58.5426 255.391 58.8548 254.563 59.271C254.46 58.9589 254.356 58.8548 254.253 58.6467C253.425 55.7331 252.7 52.9235 251.872 50.0099C251.768 49.6977 251.768 49.3856 251.768 49.0734C251.768 48.9693 251.665 48.9693 251.665 48.9693L251.768 48.9693L251.768 49.0734ZM332.298 81.019C332.195 80.8109 331.988 80.4987 331.884 80.2906C331.367 77.7933 330.746 75.2959 330.228 72.6944C329.193 67.0753 327.951 61.4562 327.123 55.7331C326.295 50.6343 325.881 45.4314 325.26 40.3326C325.053 38.5636 325.053 36.6906 324.949 34.8175C324.949 34.7135 325.053 34.7135 325.156 34.6094C325.26 34.7135 325.467 34.8175 325.674 34.9216C325.777 35.0256 325.881 35.2338 326.088 35.3378C326.088 35.7541 326.088 36.1703 326.191 36.5865C326.295 42.1016 326.812 47.5125 327.537 53.0276C328.365 60.1035 329.711 67.1794 331.263 74.1512C331.574 76.4405 332.298 78.6257 332.298 81.019C332.298 81.3312 332.402 81.5393 332.505 81.8515C332.402 81.8515 332.402 81.8515 332.298 81.8515C332.298 81.5393 332.298 81.3312 332.298 81.019ZM271.332 62.2887C270.814 59.167 270.297 55.9412 269.882 52.7154C270.504 51.3627 271.125 50.0099 271.953 48.2409C272.677 52.0911 273.298 55.525 273.919 58.9589C272.988 60.2075 272.16 61.2481 271.332 62.2887C270.814 63.0171 270.297 63.8496 269.779 64.578C268.123 63.7455 267.398 63.3293 266.57 62.1846C266.053 61.5603 265.432 60.9359 265.225 60.2075C264.5 57.6061 263.982 55.0047 263.465 52.4032C263.672 52.1951 263.879 51.987 263.982 51.7789C263.672 51.2586 263.361 50.8424 263.051 50.4262C262.947 49.6978 262.74 48.8653 262.533 48.0328C263.258 48.0328 263.568 48.9694 264.5 48.6572C263.672 47.8247 262.947 47.0963 262.119 46.1598C261.912 45.4314 261.809 44.4949 261.602 43.5584C261.912 43.6624 262.016 43.7665 262.119 43.7665C263.051 44.703 264.086 45.7436 265.018 46.6801C265.432 47.0963 265.639 47.6166 265.742 48.1369C266.156 50.218 266.57 52.1951 266.984 54.2763C267.502 56.7737 268.123 59.3751 268.64 61.8725C268.744 62.3928 268.951 62.913 269.158 63.3293C269.261 60.3116 268.433 57.398 268.019 54.4844C268.433 54.3803 268.744 54.2763 269.158 54.0682C269.261 54.4844 269.365 54.7966 269.365 55.1087C269.779 57.0858 270.193 58.9589 270.607 60.9359C270.711 61.3522 271.021 61.8725 271.332 62.2887ZM291.412 56.0452C292.137 56.1493 293.379 56.1493 294.621 56.3574C301.453 57.7102 306.111 61.6643 308.077 68.5321C308.491 70.1971 308.698 71.862 308.698 73.5269C308.698 81.8515 304.972 88.4071 298.658 93.4019C296.07 95.483 292.861 96.4195 289.446 96.2114C286.961 96.1074 284.581 95.483 282.304 94.3384C281.579 93.9221 280.751 93.5059 280.13 92.9856C275.472 89.1355 272.263 84.3489 270.711 78.4176C270.09 76.0243 269.986 73.735 270.504 71.3417C271.642 65.4104 275.058 61.1441 280.44 58.4386C283.649 56.8777 287.168 56.1493 291.412 56.0452ZM329.4 88.7193C329.4 88.5112 329.193 88.199 329.193 87.8868C328.676 85.3894 328.158 82.8921 327.64 80.3947C327.33 79.0419 327.019 77.5851 327.433 76.2324C327.537 76.0243 327.433 75.8162 327.433 75.608C327.33 73.1107 327.33 70.5092 327.226 68.0118C327.226 67.5956 327.226 67.0753 326.812 66.8672C326.088 66.5551 325.881 67.2834 325.363 67.4916C323.707 61.6643 321.533 36.1703 322.465 32.3202C322.983 32.7364 323.5 33.1526 324.018 33.4648C324.121 35.1297 324.225 36.6906 324.328 38.2514C324.535 44.3908 325.363 50.5302 326.295 56.5655C327.951 66.555 330.125 76.4405 332.505 86.2219C333.023 88.4071 333.54 90.5923 334.162 93.0897C332.402 91.5288 331.056 90.2801 329.4 88.7193ZM316.565 89.1355C314.805 81.7474 312.114 54.9006 312.632 50.3221C314.184 49.2815 315.012 48.9693 316.254 48.8653C316.565 62.1846 317.911 75.3999 319.981 88.5112C318.635 89.1355 317.911 89.3436 316.565 89.1355ZM336.232 92.4653C335.404 89.968 334.886 87.4706 334.265 85.0773C334.576 84.661 334.886 84.3489 335.197 83.8286C335.197 83.3083 335.197 82.788 335.197 82.1637C335.093 80.915 334.99 79.7703 334.783 78.5217C334.472 76.5446 334.058 74.5675 333.644 72.4863C333.54 71.862 333.333 71.2376 332.505 71.1336C331.884 71.7579 331.884 71.7579 331.574 72.7985C330.642 68.7403 329.918 64.682 329.297 60.7278C328.676 56.6696 328.262 52.6113 327.744 48.4491C327.019 43.0381 326.812 37.6271 327.226 36.2743C327.744 36.8987 328.262 37.419 328.779 37.9393C329.4 46.3679 330.746 54.6925 332.298 62.913C333.851 71.1336 335.714 79.3541 337.784 87.3665C337.474 89.0315 337.06 90.6964 336.232 92.4653ZM338.095 85.1813C337.681 83.4123 337.163 81.7474 336.853 79.9785C334.576 69.8849 332.505 59.7913 331.16 49.5937C330.746 46.7841 330.539 43.9746 330.228 41.165C330.228 40.7488 330.228 40.3326 330.228 39.7082C331.16 40.5407 331.574 41.2691 331.677 42.3097C332.298 48.1369 333.23 53.9641 334.576 59.6873C336.025 65.5145 337.577 71.3417 339.13 77.273C339.44 78.3135 339.647 79.3541 339.337 80.3947C339.233 80.7069 339.233 81.019 339.233 81.3312C338.819 82.5799 338.819 83.9326 338.095 85.1813ZM321.119 88.303C320.498 87.5746 320.188 86.8462 320.084 86.0138C319.981 85.0773 319.774 84.2448 319.67 83.3083C319.049 78.0014 318.532 72.5904 317.911 67.2835C317.807 66.2429 317.807 65.2023 317.807 64.1617C319.153 63.7455 319.153 63.7455 320.498 62.6009C321.43 71.0295 322.465 79.4582 323.397 87.9909C322.672 87.9909 321.947 88.199 321.119 88.303ZM322.672 57.6061C323.293 61.4562 323.914 65.3064 324.639 69.1565C324.846 70.6133 324.949 71.966 324.742 73.4228C324.639 74.6715 324.639 75.9202 324.742 77.1689C324.742 77.6892 324.949 78.2095 325.26 78.5217C325.467 78.8338 325.984 78.9379 326.502 79.146C326.812 80.6028 327.123 82.1637 327.433 83.7245C327.744 85.2854 328.262 86.7422 328.365 88.4071C326.916 88.199 325.674 87.9909 324.328 87.7828C324.225 87.3665 324.121 86.9503 324.121 86.5341C323.707 83.1002 323.293 79.5622 322.879 76.1283C322.362 71.3417 322.051 66.6591 321.533 61.8725C321.326 60.3116 321.947 58.9589 322.672 57.6061ZM339.751 76.3364C337.784 72.3823 332.298 46.472 332.816 43.1421C333.747 44.4949 334.472 45.7436 335.197 46.9923C335.714 47.9288 336.025 48.9693 336.232 50.0099C337.37 55.9412 338.509 61.8725 339.751 67.8037C340.062 69.4687 340.372 71.1336 340.165 72.7985C339.855 73.8391 339.855 74.8796 339.751 76.3364ZM305.697 24.3077C305.179 35.65 305.593 46.7841 306.214 58.1264C305.386 57.6061 304.869 57.1899 304.247 56.5655C303.937 50.9464 303.73 45.3273 303.419 39.5001C303.73 39.5001 303.937 39.6042 304.144 39.6042C304.351 39.6042 304.558 39.7082 304.869 39.7082C304.765 39.3961 304.765 39.292 304.765 39.1879C304.351 38.5636 303.937 37.9393 303.523 37.3149C303.109 32.9445 303.005 25.0361 303.316 23.7874C304.04 23.9956 304.765 24.0996 305.697 24.3077ZM312.528 46.1598C312.425 45.8476 312.425 45.6395 312.425 45.3273C312.425 39.3961 312.528 33.4648 312.632 27.5335C312.632 27.2213 312.735 27.0132 312.942 26.597C314.184 27.2213 315.323 27.8457 316.565 28.366C316.565 28.9903 316.565 29.5106 316.565 30.0309C316.461 33.0486 316.358 36.0662 316.254 38.9798C316.254 40.8529 316.254 42.6218 316.254 44.4949C316.254 44.9111 316.151 45.2233 316.151 45.6395C314.805 45.8476 313.667 46.0557 312.528 46.1598ZM307.042 59.0629C306.318 55.0047 306.007 27.1173 306.628 24.724C307.249 24.6199 307.87 24.9321 308.388 25.1402C308.388 32.6323 308.388 40.0204 308.388 47.5125C307.56 48.2409 306.525 48.7612 306.525 49.9059C306.732 51.0505 307.663 51.3627 308.388 51.7789C308.802 56.8777 308.802 59.6873 308.388 60.8319C307.974 60.1035 307.56 59.5832 307.042 59.0629ZM315.53 88.6152C313.356 87.3665 312.839 84.9732 312.011 82.8921C313.046 79.4582 313.356 75.8162 313.046 72.2782C312.735 68.5321 311.597 65.0982 309.423 62.0806C309.319 58.5426 309.216 55.1087 309.112 51.6748C309.837 51.2586 310.561 50.9464 311.39 50.9464C312.011 63.6414 313.667 76.1283 315.53 88.6152ZM299.797 54.0682C299.486 51.7789 299.072 40.7488 299.383 39.5001C300.004 39.8123 300.418 40.7488 301.349 40.4366C301.556 39.292 300.314 38.7717 300.004 37.8352C300.314 37.3149 300.625 36.7946 301.039 36.2743C301.66 37.1068 302.177 37.8352 302.695 38.4595C303.005 44.1827 303.212 49.8018 303.523 55.3168C303.523 55.4209 303.523 55.629 303.523 55.7331C303.523 55.7331 303.523 55.8371 303.419 55.8371C303.419 55.8371 303.316 55.8371 303.212 55.9412C302.074 55.3169 300.935 54.6925 299.797 54.0682ZM291.516 35.8581C291.826 41.3732 292.137 46.8882 292.447 52.4032C291.93 52.4032 291.516 52.5073 291.102 52.5073C290.688 52.5073 290.274 52.5073 289.86 52.4032C289.342 46.9923 289.135 41.6853 288.721 36.2743C288.618 35.3378 288.721 34.5054 288.618 33.5689C288.618 33.5689 288.618 33.4648 288.721 33.4648C288.721 33.4648 288.825 33.4648 288.721 33.4648C289.756 34.2973 290.688 35.0257 291.516 35.8581ZM275.575 41.061C276.921 42.1016 277.956 42.934 279.095 43.8705C279.509 45.1192 280.44 53.5479 280.233 54.7966C279.198 55.3169 278.267 55.9412 277.128 56.3574C276.611 51.2586 276.093 46.3679 275.575 41.061ZM311.493 26.0767C311.493 26.3889 311.597 26.4929 311.597 26.597C311.493 33.0486 311.39 39.6042 311.286 46.0557L311.286 46.1598C311.286 46.1598 311.183 46.2638 311.079 46.3679C310.665 46.472 310.251 46.6801 309.733 46.7841C309.63 46.7841 309.423 46.7841 309.319 46.7841C308.905 44.8071 309.216 27.0132 309.733 25.2443C310.354 25.6605 310.976 25.8686 311.493 26.0767ZM261.291 41.6853C260.567 39.292 259.325 32.8404 259.428 31.5918C260.256 31.0715 261.188 30.5512 262.326 30.239C262.637 31.7999 262.947 33.2567 263.154 34.6094C263.361 36.0662 263.879 37.523 263.879 39.0839C262.947 38.6677 262.533 37.7311 261.291 37.523C262.223 38.7717 263.258 39.5001 264.293 40.5407C264.604 41.8934 264.811 43.3502 265.225 45.1192C263.568 43.9746 262.43 42.83 261.291 41.6853ZM285.512 37.1068C285.616 39.8123 285.823 42.4137 285.926 45.0152C286.03 47.6166 286.444 50.218 286.34 52.9235C285.409 53.1316 284.581 53.3398 283.649 53.5479C283.649 51.883 283.235 50.3221 283.339 48.6572C284.788 48.241 284.995 47.2004 284.788 45.8476C284.684 44.9111 284.477 44.0787 284.167 43.1421C283.96 42.3097 283.649 41.3732 283.339 40.5407C283.339 40.4366 283.339 40.3326 283.442 40.2285C283.753 40.2285 283.96 40.2285 284.477 40.2285C283.856 39.5001 283.339 38.9798 282.718 38.3555C282.2 37.0027 282.304 35.5459 282.304 33.777C283.546 35.0257 284.477 36.0662 285.512 37.1068ZM285.202 23.059C285.202 27.3254 285.512 31.3836 285.512 35.7541C284.27 34.6094 283.235 33.6729 282.2 32.6323C282.097 29.6147 281.683 26.597 281.89 23.4753C282.925 23.3712 283.96 23.2672 285.202 23.059ZM273.091 30.8634C274.023 32.112 273.816 33.3607 273.919 34.9216C273.505 34.6094 273.298 34.5054 273.091 34.2973C272.47 33.777 271.953 33.2567 271.435 32.7364C271.332 32.6323 271.021 32.6323 270.814 32.5283C270.814 32.6323 270.711 32.6323 270.711 32.7364C271.849 33.881 273.091 35.0257 274.23 36.1703C274.333 37.0027 274.437 37.8352 274.333 38.7717C272.988 37.8352 271.953 36.8987 270.814 35.9622C270.4 32.9445 269.986 30.0309 269.572 27.0132C270.814 26.4929 271.953 26.0767 273.195 25.7645C273.609 27.3254 273.402 28.8863 273.712 30.239C273.402 30.5512 273.298 30.6552 273.091 30.8634ZM274.23 58.7507C274.023 57.2939 273.919 56.0453 273.816 54.9006C273.402 52.1951 272.988 49.5937 272.47 46.8882C272.263 45.6395 272.47 44.4949 272.988 43.2462C273.816 43.7665 274.437 44.3908 275.058 44.9111C275.265 46.9923 275.472 48.9693 275.783 50.9464C275.99 52.9235 276.197 55.0047 276.404 56.9818C275.679 57.6061 275.058 58.0223 274.23 58.7507ZM251.975 60.2075C251.251 58.5426 247.628 43.1421 247.525 41.3732C247.835 41.061 248.146 40.7488 248.56 40.2285C249.181 42.4137 249.698 44.3908 250.112 46.2639C249.905 46.576 249.905 46.7841 249.905 46.6801C250.216 47.5125 250.63 48.1369 250.733 48.8653C251.665 51.987 252.493 55.0047 253.321 58.1264C253.425 58.5426 253.528 58.9589 253.632 59.4791C253.218 59.6873 252.907 59.8954 252.493 59.9994C252.493 60.1035 252.182 60.1035 251.975 60.2075ZM291.93 22.8509C292.861 22.6428 293.69 22.6428 294.518 22.955C294.518 23.3712 294.621 23.6834 294.621 24.0996C294.621 26.3889 294.621 28.7822 294.621 31.0715C294.621 31.0715 294.621 31.1755 294.518 31.1755C294.518 31.1755 294.414 31.1755 294.311 31.1755C293.69 30.8634 293.379 29.8228 292.447 29.7187C292.861 31.2796 294.207 32.1121 294.828 33.5689C294.828 34.7135 294.828 36.1703 294.828 37.523C294.828 37.523 294.828 37.6271 294.725 37.6271C294.725 37.6271 294.621 37.6271 294.518 37.7312C293.793 37.0027 293.068 36.2743 292.24 35.5459C292.137 31.2796 291.826 27.1173 291.93 22.8509ZM249.181 60.3116C248.353 58.4386 245.765 45.9517 245.661 43.7665C245.972 43.4543 246.282 42.934 246.8 42.3097C247.318 44.4949 247.835 46.472 248.249 48.4491C248.767 50.4261 249.181 52.5073 249.698 54.4844C250.216 56.4615 250.733 58.3345 251.147 60.5197C250.319 60.4157 249.698 60.4157 249.181 60.3116ZM301.867 23.5793C302.281 25.8686 302.488 34.6094 302.177 35.8581C301.556 35.2338 301.039 34.5054 300.521 33.777C300.004 33.0486 299.486 32.3202 298.968 31.5918C298.968 30.6552 298.968 29.7187 298.968 28.7822C298.968 27.8457 298.968 26.8051 298.968 25.8686C298.968 24.9321 298.761 24.0996 299.176 23.059C300.211 23.2672 301.039 23.4753 301.867 23.5793ZM254.356 47.4085C254.667 48.5531 254.874 49.5937 255.184 51.0505C253.632 49.8018 252.389 48.7612 251.147 47.6166C250.423 45.0152 249.698 42.3097 249.181 39.6042C249.595 39.1879 250.009 38.7717 250.423 38.3555C250.837 37.9393 251.251 37.419 251.872 37.2109C252.597 39.5001 253.839 44.807 253.735 45.8476C253.011 45.2233 252.389 44.703 251.768 44.1827C251.665 44.0787 251.354 44.0787 251.147 43.9746C251.147 44.0787 251.044 44.1827 251.044 44.1827C252.079 45.2233 253.218 46.2638 254.356 47.4085ZM297.726 30.7593C298.658 32.4242 298.554 34.0891 298.347 35.9622C297.105 34.9216 296.381 33.777 295.553 32.8404C295.242 28.47 295.346 23.9956 295.76 22.8509C296.484 22.955 297.312 23.0591 298.14 23.1631C298.14 25.6605 298.14 28.0538 298.14 30.3431C298.037 30.4471 297.933 30.5512 297.726 30.7593ZM256.84 41.3732C256.323 38.9798 255.805 36.7946 255.184 34.5054C256.219 33.6729 257.047 32.9445 258.29 32.5283C258.807 35.1297 259.325 37.523 259.842 40.1245C259.014 39.9163 258.704 39.0839 257.668 39.0839C258.393 40.3326 259.428 40.9569 260.153 41.9975C260.36 42.83 260.567 43.7665 260.774 45.0152C259.325 43.7665 258.186 42.5178 256.84 41.3732ZM317.393 45.4314C316.979 43.7665 317.186 30.8634 317.704 29.3025C318.221 29.4066 318.635 29.7187 319.049 30.0309C319.153 35.2338 319.256 40.3326 319.463 45.5355C318.635 45.5355 318.014 45.4314 317.393 45.4314ZM288.204 22.8509C289.239 22.7469 290.17 22.5388 291.102 22.8509C291.102 24.828 291.205 26.7011 291.205 28.5741C291.205 30.5512 291.619 32.4242 291.412 34.5054C290.377 33.5688 289.549 32.7364 288.618 31.9039C288.514 28.9903 288.307 26.0767 288.204 22.8509ZM295.863 45.9517C296.795 44.1827 297.623 42.6218 298.451 41.061C298.865 43.4543 299.176 52.7154 298.865 53.756C297.933 53.4438 297.002 53.2357 296.07 52.9235C295.967 50.4261 295.863 48.0328 295.863 45.9517ZM320.084 56.0452C319.36 57.2939 318.635 58.5426 317.6 60.1035C317.29 55.9412 317.186 52.0911 317.186 48.2409C318.014 48.1369 318.635 47.6166 319.567 47.8247C319.774 50.4262 319.877 53.2357 320.084 56.0452ZM274.644 31.5918C274.644 29.5106 274.126 27.5335 274.333 25.4524C275.265 25.1402 276.197 24.724 277.232 24.724C277.542 27.9498 277.853 31.1755 278.163 34.6094C276.714 33.5689 275.679 32.6323 274.644 31.5918ZM247.939 59.167C247.835 59.167 247.732 59.271 247.628 59.271C247.111 58.5426 246.489 57.9183 245.972 57.0858C244.316 54.4844 243.591 51.4667 243.384 48.4491C243.281 47.2004 244.005 46.2639 244.937 45.2233C245.972 50.0099 246.904 54.5884 247.939 59.167ZM280.44 23.7874C280.751 25.0361 281.165 29.9268 281.061 31.4877C280.544 31.1755 280.026 30.8634 279.198 30.3431C279.819 31.5918 280.647 32.008 281.268 32.8404C281.372 33.5688 281.372 34.5054 281.475 35.2338C280.958 35.5459 280.544 35.8581 280.026 36.1703C279.716 35.9622 279.509 35.65 279.198 35.4419C278.888 31.6958 278.474 28.0538 278.267 24.2037C279.095 24.0996 279.716 23.9956 280.44 23.7874ZM287.375 52.8195C287.065 47.9288 286.754 43.2462 286.651 38.3555C287.272 38.8758 287.79 39.1879 288.204 39.6042C288.514 43.9746 288.928 48.2409 289.135 52.6113C288.514 52.6113 288.1 52.7154 287.375 52.8195ZM261.084 57.6061C260.774 55.9412 260.049 54.2763 259.842 52.4032C261.705 53.6519 261.705 53.6519 262.43 53.756C261.705 52.2992 260.153 51.7789 259.221 50.5302C259.118 49.5937 258.6 48.5531 258.6 47.3044C259.946 48.6572 261.188 49.8018 262.326 51.0505C262.947 53.756 263.568 56.4615 264.19 59.271C263.051 58.6467 262.119 58.2305 261.084 57.6061ZM321.223 31.3836C321.119 38.6677 321.43 45.7436 322.154 52.8195C321.844 53.1316 321.637 53.4438 321.43 53.756C321.326 53.86 321.223 53.8601 321.119 53.8601C320.602 51.4667 320.084 32.7364 320.498 30.9674C320.705 31.0715 320.912 31.2796 321.223 31.3836ZM280.751 41.8934C281.165 44.1827 280.751 46.6801 282.511 48.5531C282.614 50.218 282.821 51.987 282.925 53.756C282.614 53.86 282.407 53.9641 282.2 54.0682C281.89 54.1722 281.683 54.1722 281.268 54.2763C280.854 50.0099 280.337 45.9517 279.923 41.6853C280.233 41.7894 280.44 41.8934 280.751 41.8934ZM293.172 52.5073C292.965 50.0099 292.861 47.7207 292.758 45.3273C293.586 45.6395 294.311 45.8476 295.139 46.1598C295.139 47.2004 295.242 48.2409 295.242 49.2815C295.242 50.3221 295.449 51.4667 295.242 52.7154C294.518 52.7154 293.897 52.6114 293.172 52.5073ZM269.675 35.1297C268.744 34.6094 268.123 34.1932 267.295 33.777C267.191 32.8405 266.984 31.9039 266.984 30.9674C266.984 30.0309 266.467 29.0944 266.777 28.1579C267.088 28.0538 267.295 27.9498 267.502 27.8457C267.812 27.7416 268.019 27.6376 268.433 27.5335C268.951 30.0309 269.261 32.5283 269.675 35.1297ZM270.918 37.523C271.021 37.419 271.125 37.419 271.125 37.3149C272.263 38.2514 273.298 39.1879 274.437 40.1245C274.333 41.165 274.851 42.2056 274.54 43.5584C273.402 42.6218 272.367 41.7894 271.332 41.061C271.332 39.7082 271.125 38.6677 270.918 37.523ZM274.747 33.1526C274.851 33.1526 274.954 33.0486 275.058 33.0486C276.197 34.0891 277.232 35.0256 278.267 35.9622C278.37 37.1068 278.474 38.0433 278.474 39.1879C277.128 38.1474 276.093 37.1068 274.954 36.0662C274.954 35.1297 274.851 34.0891 274.747 33.1526ZM261.188 46.3679C261.395 47.2004 261.602 48.0328 261.705 48.9693C260.153 48.0328 259.014 46.7841 257.772 45.5355C257.565 44.703 257.358 43.7665 257.151 42.934C257.254 42.934 257.358 42.83 257.358 42.83C258.704 43.9746 259.946 45.1192 261.188 46.3679ZM286.651 30.6552C287.065 31.0715 287.376 31.4877 287.79 31.9039C287.893 33.881 287.997 35.8581 288.204 37.8352C287.479 37.6271 287.168 37.2109 286.651 36.6906C286.444 34.8175 286.444 32.7364 286.651 30.6552ZM267.398 43.3502C268.226 46.576 268.226 48.0328 267.191 50.0099C266.881 49.3856 266.881 48.8653 266.881 48.2409C267.088 48.1369 267.295 48.1369 267.605 48.0328C267.191 47.4085 266.777 46.8882 266.363 46.2639C266.156 45.0152 265.742 43.5584 265.742 41.8934C266.363 42.5178 266.881 42.934 267.398 43.3502ZM267.916 39.292C268.019 39.292 268.123 39.1879 268.226 39.1879C269.054 40.2285 270.711 40.6448 270.814 42.3097C270.4 42.934 270.09 43.5584 269.675 44.2868C269.261 43.8705 268.847 43.6624 268.537 43.3502C268.33 41.9975 268.123 40.6448 267.916 39.292ZM269.882 36.2743C270.09 37.419 270.193 38.5636 270.4 40.1245C269.365 39.292 268.537 38.6677 267.916 38.0433C267.709 36.8987 267.502 35.8581 267.605 34.7135C268.537 34.9216 269.054 35.65 269.882 36.2743ZM275.161 37.6271C275.265 37.6271 275.368 37.523 275.472 37.523C276.611 38.5636 277.646 39.6042 278.784 40.6447C278.888 41.2691 278.991 41.8934 279.095 42.83C277.646 41.6853 276.611 40.8529 275.472 39.9163C275.368 39.1879 275.265 38.4595 275.161 37.6271ZM287.168 22.8509C287.272 25.5564 287.583 27.9497 287.583 30.5512C287.168 30.239 286.754 30.135 286.444 29.8228C286.34 27.6376 286.34 25.3483 286.237 23.059C286.547 22.955 286.754 22.955 287.168 22.8509ZM294.932 39.3961C294.518 39.9163 294.104 40.4366 293.69 40.8529C293.379 41.2691 293.068 41.7894 292.654 42.4137C292.344 40.0204 292.344 37.7311 292.654 36.8987C293.379 37.8352 294.104 38.6677 294.932 39.3961ZM335.507 94.2343C334.783 93.0897 332.816 85.1813 332.609 82.684C334.265 86.43 334.783 90.072 335.818 93.714C335.818 93.8181 335.611 93.9221 335.507 94.2343ZM297.416 36.7946C296.898 37.419 296.588 38.0433 295.76 38.3555C295.76 37.7311 295.656 37.1068 295.656 36.5865C295.656 36.0662 295.449 35.4419 295.863 34.7135C296.381 35.4419 296.898 36.0662 297.416 36.7946ZM279.716 40.1245C279.509 39.0839 279.302 38.1474 279.509 37.0027C279.819 37.3149 280.026 37.523 280.233 37.6271C280.337 38.5636 280.44 39.6042 280.647 40.7488C280.233 40.4366 279.923 40.2285 279.716 40.1245ZM300.314 35.2338C299.693 35.2338 299.486 35.2338 299.176 35.2338C299.176 34.8175 299.176 34.5054 299.176 33.777C299.59 34.2973 299.9 34.6094 300.314 35.2338ZM268.847 44.9111C268.951 44.9111 268.951 44.9111 269.054 44.9111C269.054 45.1192 269.054 45.3273 268.951 45.5355C268.847 45.5355 268.847 45.5355 268.744 45.5355C268.744 45.3273 268.847 45.1192 268.847 44.9111Z" fill="#D7A7A5"/>
<path d="M17.313 23.2211C17.0867 23.3714 16.8478 23.5844 16.6216 23.7346C13.8066 25.3869 12.6974 27.9711 12.4661 31.059C12.4022 31.6991 12.4765 32.3018 12.4754 32.9546C11.4697 33.7312 10.8025 34.7721 10.1855 35.8883C8.59901 38.5721 6.87441 41.2933 5.63912 44.1786C4.01299 48.0298 2.39951 51.8184 1.13721 55.8083C0.745792 57.1007 0.278974 58.4432 0.201304 59.7989C0.0344258 61.9202 0.495597 63.8418 1.71031 65.5889C3.02519 67.4868 4.26465 69.4348 5.73035 71.2326C7.6094 73.5709 9.71468 75.7589 11.6945 77.9216C12.9224 79.2796 14.3892 80.4245 15.9441 81.4567C18.6026 83.1686 21.2611 84.8805 24.121 86.2413C26.0904 87.1612 28.073 87.6919 30.2318 87.9969C32.0141 88.226 33.6967 87.9778 35.2424 87.1143C36.7126 86.3008 38.1327 85.4119 39.5655 84.4603C40.5459 83.8092 41.4134 83.07 42.3436 82.3435C46.5804 78.8232 51.0302 75.5417 55.4046 72.3104C57.1644 71.0329 58.8113 69.6674 60.4582 68.3019C60.5336 68.2518 60.6845 68.1516 60.7599 68.1015C61.5882 68.2034 62.3412 68.3553 63.1195 68.3818C66.4837 68.5383 69.2492 66.4842 70.1713 63.2092C70.6133 61.6658 70.6789 60.0465 70.6063 58.4646C70.57 57.6736 70.7594 57.0588 71.388 56.5326C73.2992 54.8286 74.006 52.6203 73.9852 50.1346C73.9892 47.8498 73.6541 45.6271 72.9298 43.3913C73.2821 42.9399 73.6217 42.5513 73.8986 42.1501C74.4023 41.2722 74.5922 40.331 74.5939 39.3518C74.6083 38.3098 74.4971 37.2425 74.2479 36.2127C73.5501 33.1985 72.4125 30.4221 70.7723 27.8708C70.3215 27.1921 69.7453 26.4881 69.2064 25.9222C68.7678 25.5072 68.241 25.205 67.6642 24.8274C67.7776 24.589 67.9537 24.3634 68.1299 24.1377C69.1499 22.3191 69.8061 20.3619 69.4583 18.202C69.3714 17.662 69.2844 17.122 69.0467 16.6822C68.1958 15.0738 67.1313 13.553 65.828 12.2451C62.4441 8.95009 56.6944 8.96524 53.1996 11.7211C52.9607 11.9341 52.7345 12.0843 52.4956 12.2973C49.3236 9.89402 43.4109 9.74568 40.0945 10.9702C39.7428 11.0952 39.3911 11.2201 39.1021 11.3577C38.5886 10.6663 38.2132 9.93754 37.599 9.42177C35.9571 7.84968 33.9498 7.11807 31.6517 7.50326C30.3709 7.70191 29.3278 8.34036 28.5478 9.29311C28.032 9.90736 27.4909 10.6471 27.088 11.3494C26.6724 12.1145 26.0564 12.5779 25.19 12.6643C24.5246 12.7259 23.8338 12.913 23.1556 13.0374C21.5104 13.4237 20.2785 14.3506 19.3972 15.8053C18.4405 17.3101 17.923 18.9036 17.7066 20.6231C17.4919 21.3634 17.3774 22.2546 17.313 23.2211ZM63.5628 15.3797C63.6129 15.4551 63.663 15.5305 63.7758 15.6186C63.8259 15.694 63.876 15.7694 63.9388 15.782C64.1391 16.0837 64.2767 16.3727 64.477 16.6743C65.4661 18.2453 66.5179 19.8289 67.5069 21.3999C67.4563 21.6509 67.3555 21.8264 67.3175 22.0147C67.2047 21.9266 67.142 21.9139 67.0792 21.9013C66.028 19.9912 64.9641 18.144 63.9129 16.2339C63.8755 16.0958 63.9008 15.9703 63.876 15.7694C63.8259 15.694 63.7758 15.6186 63.7258 15.5432C63.7258 15.5432 63.6757 15.4677 63.5628 15.3797ZM66.9864 17.5072L67.0491 17.5199C66.9864 17.5072 66.9864 17.5072 66.9864 17.5072C66.9363 17.4318 66.8862 17.3564 66.7734 17.2683C66.0722 16.2126 65.4211 15.2322 64.7199 14.1765C64.8454 14.2018 64.9835 14.1644 65.0336 14.2398C65.7981 14.9818 66.3992 15.8867 66.7866 16.8792C66.8367 16.9546 66.736 17.1302 66.7233 17.1929C66.8235 17.3437 66.8736 17.4191 66.9864 17.5072ZM62.4739 20.776C62.5239 20.8514 62.574 20.9268 62.6869 21.0149C62.7369 21.0903 62.787 21.1657 62.8371 21.2411C62.8872 21.3165 62.95 21.3292 63.0628 21.4173C63.1129 21.4927 63.163 21.5681 63.213 21.6435C63.2879 21.9198 63.6891 22.1967 63.4877 22.5479C63.6258 22.5104 63.7386 22.5985 63.7007 22.7868C63.7507 22.8622 63.8008 22.9376 63.8636 22.9502C63.9137 23.0256 63.9638 23.1011 64.0138 23.1765C64.0639 23.2519 64.114 23.3273 64.1641 23.4027C64.2142 23.4781 64.2643 23.5535 64.3143 23.6289C64.7156 23.9058 64.8279 24.3203 64.9401 24.7348C64.6143 24.4078 64.2885 24.0808 64.3143 23.6289C64.2643 23.5535 64.2142 23.4781 64.1641 23.4027C64.114 23.3273 64.0639 23.2519 64.0138 23.1765C63.9638 23.1011 63.9137 23.0256 63.8636 22.9502C63.8135 22.8748 63.7634 22.7994 63.7007 22.7868C63.6506 22.7113 63.6005 22.6359 63.4877 22.5479C63.4128 22.2715 63.2879 21.9198 63.213 21.6435C63.163 21.5681 63.1129 21.4927 63.0628 21.4173C63.0127 21.3418 62.9626 21.2664 62.8371 21.2411C62.787 21.1657 62.7369 21.0903 62.6869 21.0149C62.574 20.9268 62.5239 20.8514 62.4739 20.776C62.4111 20.7633 62.4238 20.7006 62.4739 20.776ZM55.0944 19.4827C55.1444 19.5581 55.1945 19.6335 55.2446 19.7089C55.2947 19.7843 55.3448 19.8598 55.3949 19.9352C55.445 20.0106 55.495 20.086 55.5451 20.1614C55.5952 20.2368 55.6453 20.3122 55.6954 20.3876C55.7455 20.463 55.7955 20.5385 55.8456 20.6139C55.9585 20.7019 56.1467 20.7399 56.1841 20.8781C57.3113 22.4116 58.4259 24.0079 59.5531 25.5414C59.6532 25.6923 59.6907 25.8304 59.7782 26.044C59.4518 26.0434 59.2008 25.9928 59.0125 25.9548C57.936 24.1703 56.8969 22.5239 55.8704 20.8148C55.8203 20.7394 55.8456 20.6139 55.7955 20.5385C55.7455 20.463 55.6954 20.3876 55.6453 20.3122C55.5952 20.2368 55.5451 20.1614 55.495 20.086C55.445 20.0106 55.3949 19.9352 55.3448 19.8598C55.2947 19.7843 55.2446 19.7089 55.1945 19.6335C55.1945 19.6335 55.1444 19.5581 55.0944 19.4827ZM61.8205 21.1013C61.7825 21.2895 61.908 21.3148 62.0461 21.2774C61.9961 21.202 61.8832 21.1139 61.8205 21.1013C61.7704 21.0259 61.7203 20.9504 61.6075 20.8624C61.307 20.4099 61.0692 19.9701 60.7687 19.5176C60.7186 19.4422 60.6812 19.3041 60.7065 19.1786C61.0824 19.581 61.3829 20.0334 61.6207 20.4732C61.6708 20.5486 61.6328 20.7369 61.6201 20.7996C61.6702 20.875 61.7704 21.0259 61.8205 21.1013ZM61.8441 21.955C61.8942 22.0304 61.9443 22.1058 61.9944 22.1812C62.0445 22.2566 62.0945 22.332 62.1446 22.4074C62.1947 22.4828 62.2448 22.5583 62.2949 22.6337C62.345 22.7091 62.3951 22.7845 62.4451 22.8599C62.5827 23.1489 62.733 23.3751 62.9333 23.6768C63.0836 23.903 63.2839 24.2046 63.4342 24.4309C63.5844 24.6571 63.7974 24.896 63.7341 25.2097C63.1452 24.5685 62.7698 23.8397 62.4071 23.0482C62.4198 22.9854 62.4325 22.9227 62.4451 22.8599C62.3951 22.7845 62.345 22.7091 62.2949 22.6337C62.2448 22.5583 62.1947 22.4828 62.1446 22.4074C62.0945 22.332 62.0445 22.2566 61.9944 22.1812C62.007 22.1185 61.8942 22.0304 61.8441 21.955ZM61.0405 22.054C61.0906 22.1294 61.1407 22.2048 61.1907 22.2802C61.2408 22.3557 61.2909 22.4311 61.341 22.5065C61.3911 22.5819 61.4412 22.6573 61.4913 22.7327C61.5413 22.8081 61.5914 22.8835 61.6415 22.9589C61.6916 23.0343 61.7417 23.1098 61.7918 23.1852L61.8545 23.1978C61.8545 23.1978 61.8545 23.1978 61.7918 23.1852C61.7417 23.1098 61.6916 23.0343 61.6415 22.9589C61.5914 22.8835 61.5413 22.8081 61.4913 22.7327C61.4412 22.6573 61.3911 22.5819 61.341 22.5065C61.2909 22.4311 61.2408 22.3557 61.1907 22.2802C61.1533 22.1421 61.1032 22.0667 61.0405 22.054C60.9904 21.9786 60.9403 21.9032 60.8902 21.8278C60.3393 20.9983 59.7256 20.1561 59.162 19.3893L59.1119 19.3139L59.1873 19.2638C59.2501 19.2765 59.3756 19.3018 59.4257 19.3772C59.9265 20.1313 60.3646 20.8728 60.8528 21.6896C60.9029 21.765 60.8148 21.8779 60.8022 21.9406C61.0911 21.803 61.0785 21.8658 61.0405 22.054ZM59.4563 23.4322C59.5064 23.5076 59.6192 23.5957 59.6693 23.6711C59.7194 23.7465 59.6941 23.872 59.7441 23.9474C59.7942 24.0228 59.857 24.0355 59.9071 24.1109C59.9572 24.1863 60.0072 24.2617 59.9819 24.3872C60.032 24.4626 60.0821 24.538 60.1322 24.6134C60.1823 24.6889 60.2323 24.7643 60.2824 24.8397C60.3325 24.9151 60.3826 24.9905 60.4327 25.0659C60.4828 25.1413 60.5328 25.2167 60.5829 25.2922C60.633 25.3676 60.6831 25.443 60.7332 25.5184C60.7833 25.5938 60.8334 25.6692 60.8834 25.7446C60.9335 25.82 60.9836 25.8954 61.0337 25.9708L61.0965 25.9835C61.0464 25.9081 60.9963 25.8327 60.9462 25.7573C60.8961 25.6819 60.846 25.6065 60.7959 25.531C60.7459 25.4556 60.6958 25.3802 60.6457 25.3048C60.5956 25.2294 60.5455 25.154 60.4954 25.0786C60.4453 25.0032 60.3953 24.9278 60.3452 24.8523C60.2951 24.7769 60.245 24.7015 60.1949 24.6261C60.1448 24.5507 60.0947 24.4753 60.0447 24.3999C59.9946 24.3245 59.9445 24.2491 59.9572 24.1863C59.9071 24.1109 59.857 24.0355 59.7315 24.0102C59.6814 23.9348 59.6941 23.872 59.6566 23.7339C59.5565 23.583 59.5064 23.5076 59.4563 23.4322C59.4062 23.3568 59.469 23.3695 59.4563 23.4322ZM58.5024 23.305L58.5652 23.3177C58.5778 23.2549 58.5151 23.2423 58.5024 23.305C58.4523 23.2296 58.4022 23.1542 58.3522 23.0788C58.252 22.928 58.1645 22.7144 58.0516 22.6263C56.5612 20.6277 55.0206 18.5536 53.5302 16.5549C53.3172 16.316 53.1796 16.027 52.9666 15.7881C53.0673 15.6126 53.1681 15.437 53.3442 15.2113C53.5572 15.4502 53.7075 15.6764 53.8704 15.8399C54.6217 16.9711 55.3856 18.0395 56.1369 19.1707C56.8381 20.2264 57.4765 21.2695 58.1777 22.3252C58.328 22.5515 58.5536 22.7276 58.4149 23.0914C58.3522 23.0788 58.4523 23.2296 58.5024 23.305ZM61.249 24.9041C61.2991 24.9795 61.3491 25.055 61.3992 25.1304C61.4493 25.2058 61.4994 25.2812 61.5495 25.3566C61.5996 25.432 61.6496 25.5074 61.6997 25.5828C61.6871 25.6456 61.7498 25.6582 61.7498 25.6582L61.7625 25.5955C61.7124 25.5201 61.6623 25.4447 61.6122 25.3693C61.5621 25.2938 61.5121 25.2184 61.462 25.143C61.3491 25.055 61.2991 24.9795 61.249 24.9041C61.1989 24.8287 61.1488 24.7533 61.0987 24.6779C60.8857 24.439 60.6727 24.2001 60.5224 23.9739C58.3682 21.0576 56.2894 18.0913 54.1352 15.175C53.9849 14.9488 53.822 14.7853 53.6591 14.6218C53.8732 14.2079 54.1121 13.9949 54.3884 13.9201C54.5012 14.0081 54.5513 14.0835 54.6014 14.159C56.7298 17.5271 58.8708 20.8325 60.9364 24.188C61.0365 24.3388 61.0112 24.4643 61.0486 24.6025C61.1488 24.7533 61.1989 24.8287 61.249 24.9041ZM56.015 24.305C56.0651 24.3804 56.1152 24.4559 56.1653 24.5313C56.2153 24.6067 56.2654 24.6821 56.3155 24.7575C56.7168 25.0344 56.7168 25.0344 56.7663 25.4362C56.616 25.21 56.5285 24.9964 56.3783 24.7702C56.3282 24.6947 56.2781 24.6193 56.228 24.5439C56.1278 24.3931 56.015 24.305 56.015 24.305C55.9649 24.2296 55.9522 24.2924 56.015 24.305ZM45.9249 65.8914C46.8155 66.3324 48.2449 67.3392 48.1942 67.5901C47.9807 67.6777 47.7544 67.8279 47.5155 68.0409C46.9519 67.2742 46.4384 66.5828 45.9249 65.8914ZM62.6177 17.4745C62.7052 17.6881 62.8053 17.8389 62.9556 18.0652C64.0074 19.6488 65.0465 21.2952 66.0356 22.8661C66.1858 23.0924 66.3361 23.3186 66.4737 23.6076C66.3102 23.7705 66.1594 23.8706 66.0713 23.9835C65.9585 23.8954 65.8957 23.8827 65.9084 23.82C64.8571 21.91 63.8059 20 62.7674 18.0272C62.6672 17.8764 62.6424 17.6755 62.6177 17.4745ZM41.4172 22.8611C41.8432 23.3389 41.8801 23.8035 41.8542 24.2554C41.765 25.021 41.6885 25.7239 41.4738 26.4642C41.0818 28.083 40.2506 29.6132 39.4948 31.0932C39.1672 31.7455 38.8397 32.3977 38.5749 33.0626C38.0073 34.5807 38.6331 35.6865 40.1264 36.0531C40.2519 36.0785 40.4402 36.1164 40.5657 36.1418C42.3226 36.4963 44.068 36.2608 45.7138 35.5481C46.9952 35.023 48.1137 34.3345 49.1948 33.5078C49.5845 33.1947 50.0243 32.9569 50.414 32.6437C50.7157 32.4434 51.0047 32.3058 51.4813 32.5326C51.8198 32.7968 51.9948 33.2239 52.0944 33.7012C52.2188 34.3793 52.3933 35.1328 52.4549 35.7983C52.577 37.782 52.2598 39.6771 51.7545 41.5343C51.4385 42.7766 50.9843 44.0563 50.7311 45.3112C50.5918 46.0015 50.4398 46.7544 50.5014 47.4199C50.574 49.0018 51.5768 49.8572 53.1714 49.7219C54.0378 49.6355 54.8794 49.3482 55.6209 48.9101C56.7267 48.2844 57.6696 47.4951 58.5124 46.555C59.9336 45.0133 61.0164 43.2074 61.9236 41.3008C62.2764 40.5231 62.6293 39.7453 62.9695 39.0303C63.171 38.6792 63.3851 38.2653 63.8122 38.0902C64.4271 38.2796 64.5526 38.3049 65.1041 38.8081C65.8686 39.5501 66.6204 40.3548 67.435 41.1722C68.5754 42.3166 69.6531 43.4484 71.3473 43.7902C72.3968 46.6795 72.6554 49.605 71.8594 52.5789C71.4426 53.9968 70.6621 55.276 69.33 56.052C68.5886 56.4901 68.2484 57.2051 68.1338 58.0962C68.1079 58.5481 68.0694 59.0628 68.0435 59.5147C68.0038 60.6821 67.7759 61.8116 67.4225 62.9157C66.829 64.8857 65.4336 65.9754 63.4246 66.223C62.9473 66.3226 62.4327 66.2841 61.918 66.2455C60.5624 66.1679 59.2826 65.7137 58.1163 65.0212C57.414 64.6183 56.6984 64.6045 55.9196 64.9044C55.5678 65.0294 55.1407 65.2044 54.789 65.3293C51.9498 66.4542 47.4187 65.9317 45.215 62.6136C45.1649 62.5382 45.1148 62.4628 45.0647 62.3874C44.5011 61.6206 43.7234 61.2678 42.8069 61.2787C42.2796 61.3029 41.7523 61.3271 41.225 61.3513C39.5049 61.4613 37.8107 61.1194 36.1799 60.4638C33.8967 59.4806 32.1041 58.0087 31.1288 55.7222C30.9411 55.3578 30.7535 54.9934 30.6285 54.6417C30.2284 53.712 29.5894 52.9953 28.6988 52.5544C27.9838 52.2142 27.2061 51.8613 26.4911 51.5211C24.9356 50.8154 23.5437 49.9468 22.2777 48.7771C20.6106 47.3305 19.6722 45.5085 19.6007 43.2738C19.5765 42.7465 19.5397 42.2819 19.5782 41.7673C19.6812 40.2861 19.2189 39.0173 18.204 37.8983C17.778 37.4205 17.3393 37.0054 16.9887 36.4776C15.5483 34.5543 14.7987 32.4439 15.0163 30.0716C15.2079 28.1512 15.8635 26.5203 17.8357 25.8081L17.9112 25.7581C19.2052 25.1703 19.8724 24.1294 19.9 22.6983C19.9391 21.8573 19.9656 21.079 20.0047 20.2379C20.0944 19.1459 20.3598 18.1546 20.7506 17.1886C21.3556 15.8087 22.4367 14.982 23.9685 14.834C24.3076 14.7718 24.634 14.7724 25.0232 14.7856C26.7179 14.8011 27.8491 14.0499 28.6049 12.5698C28.819 12.1559 29.1086 11.6919 29.3227 11.278C30.5062 9.29651 33.0052 8.88654 34.6487 9.47942C35.8657 9.92092 36.8311 10.6382 37.4062 11.995C37.1172 12.1326 36.8283 12.2702 36.5393 12.4078C35.0938 13.4222 33.9742 14.7635 33.3059 16.4571C32.6629 18.0253 33.0371 19.4068 34.1649 20.614C34.8039 21.3307 35.6317 21.7589 36.535 22.1371C37.6265 22.5533 38.7812 22.6557 39.9487 22.6954C40.6642 22.7092 41.1035 22.7978 41.4172 22.8611ZM71.7278 41.5814C70.9115 41.7432 70.4475 41.4536 69.9961 41.1014C68.9806 40.3087 68.0279 39.5287 67.0751 38.7487C66.4609 38.2329 65.7839 37.7045 65.1443 37.3142C64.0407 36.6344 63.099 36.7708 62.1808 37.761C61.7531 38.2624 61.3881 38.7765 61.0105 39.3533C60.3434 40.3942 59.7389 41.4476 59.0718 42.4885C58.3039 43.7049 57.4231 44.8332 56.3668 45.8608C55.6375 46.5626 54.7826 47.239 53.853 47.6391C53.4886 47.8268 53.1242 48.0145 52.6976 47.8631C52.4345 47.5488 52.4978 47.235 52.5611 46.9213C52.7258 46.1056 52.8777 45.3526 53.0423 44.5369C53.4095 42.7172 53.9149 40.8601 54.0311 38.9897C54.122 37.2449 54.0874 35.4747 53.5756 33.8042C53.3885 33.1134 53.1387 32.4099 52.6626 31.8567C52.0362 31.0773 51.2585 30.7244 50.2413 30.911C49.6259 31.048 49.0606 31.2604 48.4953 31.4729C47.7038 31.8356 46.975 32.2109 46.2462 32.5863C44.8641 33.2869 43.357 33.6358 41.8752 33.8592C41.4734 33.9087 41.0716 33.9583 40.645 33.8069C40.5828 33.4678 40.7216 33.104 40.7849 32.7902C41.1256 31.7489 41.4664 30.7075 41.8699 29.6787C42.4375 28.1607 42.9296 26.6927 43.0579 25.086C43.1092 24.5086 43.0976 23.9186 43.0233 23.3159C42.9122 22.2486 42.3359 21.5446 41.2191 21.2539C40.4788 21.0392 39.7259 20.8872 38.9355 20.5971C38.3206 20.4078 37.7058 20.2184 37.1163 19.9035C35.7618 19.173 35.3369 18.0424 35.9545 16.5998C36.0806 16.2987 36.2067 15.9976 36.3828 15.772C37.05 14.7312 37.9428 13.8665 39.036 13.3034C40.0664 12.7277 41.1843 12.3656 42.4024 12.1543C45.0522 11.6442 47.5748 12.0879 50.1095 12.7954C50.536 12.9467 51.038 13.048 51.2758 13.4878C50.9609 14.0773 50.646 14.6668 50.3312 15.2563C48.9704 18.1163 49.0407 21.0038 50.9318 23.6057C52.8103 26.2704 55.4567 27.7187 58.6827 27.9126C61.3187 28.1181 63.7929 27.5072 66.0299 26.1301C66.1053 26.0801 66.2435 26.0426 66.3189 25.9926C67.0592 26.2072 67.2975 26.3207 67.7362 26.7357C68.062 27.0627 68.3251 27.377 68.5756 27.754C71.005 31.2482 72.0401 35.1794 72.2964 39.4106C72.3333 39.8751 72.232 40.3771 72.1434 40.8163C72.0173 41.1174 71.8412 41.3431 71.7278 41.5814ZM29.6575 57.1885C30.4214 58.2569 31.0598 59.3 31.7864 60.2302C32.563 61.2359 33.5157 62.0159 34.6193 62.6957C35.6601 63.3629 36.7643 63.7163 38.044 64.1704C30.6917 68.8906 23.9537 74.1264 17.4909 79.9403C15.7483 78.5438 14.0938 77.0344 12.4646 75.3996C14.6147 73.4826 16.2506 71.2006 18.1497 69.2329C20.0614 67.2025 22.0232 65.2474 23.935 63.217C25.8467 61.1866 27.7584 59.1561 29.6575 57.1885ZM26.9101 85.041C27.0736 84.8781 27.0863 84.8153 27.1743 84.7025C29.1229 83.1366 31.0841 81.508 33.0955 79.9548C38.2746 75.9716 43.5165 72.001 48.7584 68.0305C48.9092 67.9303 49.0474 67.8929 49.1982 67.7927C50.6034 68.2722 52.0593 68.5007 53.541 68.2773C55.0855 68.0666 56.3796 67.4788 57.5614 66.4765C58.3017 66.6912 58.8786 67.0688 59.4427 67.5092C59.2038 67.7222 58.9649 67.9352 58.726 68.1482C57.1044 69.3882 55.5456 70.6409 53.8739 71.8056C51.3473 73.6466 48.6953 75.4624 46.1688 77.3034C44.0319 78.8313 41.8825 80.4219 39.733 82.0126C38.124 83.1899 36.465 84.2917 34.7058 85.2428C33.8262 85.7183 32.9091 86.0557 31.8545 86.1041C30.097 86.0759 28.541 85.6966 26.9101 85.041ZM3.09415 63.909C7.66469 56.146 12.9876 48.8614 17.4079 40.8722C17.6077 41.5002 17.5691 42.0149 17.5306 42.5295C17.4754 45.3917 18.3373 47.9166 20.1789 50.1167C20.3292 50.3429 20.5422 50.5818 20.7552 50.8207C20.5036 51.0965 20.3148 51.3849 20.0759 51.5979C17.9374 54.105 15.7361 56.5994 13.5849 59.1693C11.1068 62.0649 8.57855 64.8852 6.48898 68.1205C6.40091 68.2333 6.23743 68.3963 6.07395 68.5592C5.02215 66.9755 3.94504 65.5174 3.09415 63.909ZM59.4521 18.5989C58.272 18.622 57.2709 16.7874 57.5489 15.7333C57.8649 14.491 58.745 13.6891 60.3765 14.0183C61.6942 14.2842 62.4581 15.3527 62.1421 16.5949C61.8002 18.2891 60.7572 18.9276 59.4521 18.5989ZM12.9391 62.3694C13.3922 61.7425 13.8452 61.1156 14.4111 60.5767C15.9643 62.5881 17.4674 64.524 18.807 66.6228C18.2412 67.1616 17.7381 67.7132 17.2349 68.2647C15.7445 66.266 14.3041 64.3427 12.9391 62.3694ZM32.8885 69.0073C33.6029 69.6739 37.0841 74.7518 37.4341 75.6061C36.8936 76.0194 36.4158 76.4454 35.7751 76.7079C34.3226 74.521 32.9329 72.3468 31.4931 70.0971C31.9455 69.7966 32.4233 69.3706 32.8885 69.0073ZM33.429 68.594C33.9569 68.2434 34.3593 67.8675 34.8871 67.5169C35.3005 68.0574 35.7138 68.598 36.1272 69.1385C36.5405 69.679 36.8911 70.2069 37.3044 70.7474C37.7178 71.288 38.1311 71.8285 38.5318 72.4318C38.8824 72.9597 39.3712 73.4501 39.571 74.0782C39.0304 74.4915 38.5526 74.9175 37.8993 75.2428C36.3967 72.9805 34.9943 70.869 33.429 68.594ZM33.8518 78.1483C33.6889 77.9848 33.5888 77.834 33.5387 77.7586C32.2365 75.7979 30.9342 73.8372 29.5819 71.8011L29.5946 71.7384C29.5946 71.7384 29.6073 71.6757 29.6199 71.6129C30.0223 71.237 30.4874 70.8737 31.0153 70.5231C32.6059 72.6726 34.0711 74.7968 35.5109 77.0464C34.9076 77.4471 34.3797 77.7977 33.8518 78.1483ZM23.9377 76.1476C24.5893 76.8015 27.8449 81.7032 28.1702 82.3566C27.705 82.7199 27.2272 83.1459 26.6366 83.4838C25.2216 81.4351 23.8693 79.399 22.4542 77.3502C22.9947 76.9369 23.4725 76.5109 23.9377 76.1476ZM14.7887 59.9999C15.141 59.5486 15.4806 59.16 15.8456 58.6459C17.5369 60.6198 19.1655 62.581 20.6433 64.6425C20.0775 65.1813 19.6999 65.7581 19.1092 66.0961C17.7569 64.06 16.2665 62.0613 14.7887 59.9999ZM30.1688 80.8661C28.7791 78.6919 27.4395 76.5931 26.1125 74.4315C26.5149 74.0556 26.9172 73.6796 27.3444 73.5046C28.5096 74.8499 31.327 79.0102 31.6143 79.8518C31.1618 80.1523 30.7094 80.4528 30.1688 80.8661ZM22.3409 63.0259C21.8631 63.4519 21.5736 63.9159 21.1465 64.091C19.6307 62.2178 18.2277 60.4327 16.762 58.6349C16.6618 58.4841 16.5617 58.3333 16.3988 58.1698C16.3988 58.1698 16.4114 58.1071 16.3487 58.0944C16.3487 58.0944 16.3613 58.0317 16.374 57.9689C16.7136 57.5803 17.0158 57.0536 17.481 56.6903C19.147 58.7897 20.7503 60.8764 22.3409 63.0259ZM12.436 62.9209C14.0019 64.8695 15.5177 66.7426 16.8326 68.6406C16.3421 69.1293 15.9898 69.5807 15.5247 69.9439C14.3094 68.5232 11.5288 64.8275 11.3037 64.325C11.656 63.8737 12.0083 63.4223 12.436 62.9209ZM22.2715 52.3675C24.2904 53.6892 26.3726 54.6971 28.7697 55.1155C28.9447 55.5427 29.1451 55.8443 29.3828 56.2841C28.9805 56.66 28.6535 56.9859 28.2638 57.299C27.8741 57.6122 27.5972 58.0134 27.1574 58.2512C25.466 56.2773 23.9001 54.3287 22.2715 52.3675ZM32.0921 79.4258C30.9021 77.8796 28.11 73.5938 27.8475 72.9531C28.2245 72.7027 28.5515 72.3768 29.0166 72.0136C29.5802 72.7804 30.0938 73.4717 30.5319 74.2132C31.0454 74.9045 31.4961 75.5832 31.9469 76.2619C32.385 77.0034 32.9739 77.6446 33.3366 78.4362C32.9343 78.8121 32.5445 79.1253 32.0921 79.4258ZM14.4146 44.0557C13.3132 42.0703 12.2494 40.223 11.1855 38.3757C11.5631 37.7989 11.8026 37.2595 12.3684 36.7206C13.4951 38.5806 14.647 40.315 15.7109 42.1623C15.3206 42.8019 14.8803 43.366 14.4146 44.0557ZM17.8459 56.1762C18.1101 55.8377 18.387 55.4365 18.7266 55.0479C20.5055 57.2354 22.2343 59.3474 23.8123 61.5597C23.3972 61.9983 23.133 62.3368 22.6932 62.5746C21.0398 60.4125 19.4365 58.3257 17.8459 56.1762ZM24.0122 83.8684C22.9356 82.0839 21.9592 80.4502 20.9328 78.7411C21.3225 78.4279 21.5994 78.0267 22.0893 77.8643C23.5924 79.8002 24.9447 81.8363 26.3597 83.8851C26.1082 84.1608 25.932 84.3865 25.6931 84.5995C25.0282 84.3347 24.4888 84.0952 24.0122 83.8684ZM25.8242 59.6801C25.6987 59.6547 25.6359 59.6421 25.6359 59.6421C23.9198 57.4673 22.2037 55.2924 20.4248 53.105L20.3747 53.0296C20.3747 53.0296 20.3874 52.9668 20.3373 52.8914C20.5261 52.603 20.7276 52.2518 21.0419 51.9887C22.1449 52.995 26.2916 58.0112 26.6669 58.74C26.4027 59.0785 26.0757 59.4043 25.8242 59.6801ZM24.2147 61.1837C22.5112 58.9462 20.8578 56.784 19.1918 54.6846L19.1417 54.6092C19.1417 54.6092 19.1544 54.5465 19.167 54.4837C19.4186 54.208 19.4945 53.8315 19.9844 53.6691C21.8387 55.8065 23.6176 57.994 25.2583 60.2189C24.9313 60.5447 24.6044 60.8706 24.2147 61.1837ZM12.4807 73.3784C11.9545 72.7498 11.4283 72.1212 10.9522 71.568C10.4761 71.0148 10 70.4616 9.53661 69.8457C9.07318 69.2297 8.45893 68.714 8.07091 68.0479C8.47329 67.672 8.80026 67.3462 9.13989 66.9576C10.3056 67.9765 13.3125 71.5219 13.575 72.1626C13.248 72.4884 12.9084 72.877 12.4807 73.3784ZM45.8813 69.3437C44.841 68.3501 41.8468 64.742 41.5717 64.164C41.9107 64.1018 42.187 64.027 42.4634 63.9521C42.7397 63.8773 43.0787 63.8151 43.3424 63.803C44.9215 65.3624 46.7631 67.5626 47.1886 68.3668C46.7361 68.6673 46.2836 68.9678 45.8813 69.3437ZM10.8006 64.8765C12.241 66.7997 13.7067 68.5975 15.097 70.4453C14.7574 70.8339 14.4304 71.1598 14.0908 71.5484C12.5623 69.7379 11.0713 68.0657 9.59292 66.3307C10.0206 65.8292 10.3603 65.4407 10.8006 64.8765ZM28.6226 82.0561C27.2329 79.8818 25.8806 77.8458 24.4655 75.797C24.8178 75.3457 25.2075 75.0325 25.7101 74.8074C27.1125 76.9189 28.4521 79.0177 29.7791 81.1793C29.4021 81.4297 29.0877 81.6928 28.6226 82.0561ZM40.0361 73.7149C38.4581 71.5027 36.9302 69.3659 35.3396 67.2164C35.7166 66.9659 36.081 66.7783 36.3953 66.5152C37.3602 67.5588 40.6036 72.1969 40.9663 72.9884C40.7274 73.2014 40.4131 73.4645 40.0361 73.7149ZM41.4942 72.6378C40.5046 71.3932 37.2237 66.617 37.0113 66.0517C37.2502 65.8387 37.5017 65.563 37.8909 65.5762C39.4314 67.6503 40.972 69.7244 42.4872 71.9239C42.1102 72.1744 41.8085 72.3747 41.4942 72.6378ZM42.8769 71.6108C41.299 69.3985 39.8212 67.3371 38.3059 65.1375C38.5322 64.9873 38.7711 64.7743 39.0727 64.5739C39.5488 65.1271 39.9121 65.5923 40.3381 66.0701C41.5407 67.5535 42.7306 69.0997 43.9332 70.5832L43.9833 70.6586C43.9833 70.6586 43.9707 70.7213 43.958 70.7841C43.5809 71.0345 43.2666 71.2976 42.8769 71.6108ZM10.8579 39.0279C11.8349 40.3353 13.8124 43.8036 14.0369 44.6325C13.7727 44.971 13.6213 45.3976 13.1562 45.7609C12.0797 43.9763 11.0659 42.2045 10.0521 40.4326C10.3416 39.9686 10.5684 39.4919 10.8579 39.0279ZM8.67974 42.7025C9.81904 44.4997 10.7954 46.1334 11.8219 47.8425C11.5323 48.3065 11.1801 48.7578 10.8778 49.2846C9.85138 47.5755 8.86233 46.0045 7.88595 44.3708C8.11275 43.8941 8.33954 43.4175 8.67974 42.7025ZM44.4105 70.4836C42.7444 68.3842 41.1912 66.3728 39.4624 64.2608C39.9897 64.2366 40.3789 64.2498 40.7053 64.2504C42.3972 65.8979 45.0281 69.0409 45.3407 69.757C45.1018 69.97 44.8002 70.1704 44.4105 70.4836ZM8.33524 53.1468C7.44637 51.7267 6.65767 50.4573 5.91906 49.2634C6.18384 48.5985 6.37321 47.9837 6.7635 47.3441C7.71511 48.7769 8.61666 50.1343 9.44278 51.5418C9.07783 52.0559 8.77561 52.5826 8.33524 53.1468ZM12.0861 47.504C11.0222 45.6567 10.0084 43.8849 9.03204 42.2512C9.3849 41.4734 9.38489 41.4734 9.85002 41.1102C10.9519 42.7692 11.9784 44.4783 12.9421 46.1748C12.6525 46.6388 12.4511 46.9899 12.0861 47.504ZM12.1785 73.9052C12.0023 74.1309 11.9016 74.3064 11.8009 74.482C11.7882 74.5448 11.7254 74.5321 11.6627 74.5194C10.3588 73.538 7.25123 70.1681 6.85112 69.2384C7.09001 69.0254 7.31624 68.8752 7.5678 68.5994C9.10891 70.3471 10.65 72.0948 12.1785 73.9052ZM6.99087 46.5411C7.21766 46.0644 7.25621 45.5498 7.58318 45.2239C8.25961 46.0788 10.2504 49.158 10.5002 49.8614C10.2987 50.2126 10.0345 50.5511 9.74498 51.0151C8.81869 49.4568 7.92983 48.0366 6.99087 46.5411ZM58.1842 25.8529C57.9959 25.8149 57.8704 25.7896 57.8203 25.7142C55.9292 23.1123 54.0507 20.4476 52.1596 17.8456C52.2482 17.4064 52.2488 17.08 52.4502 16.7288C53.3023 17.6844 57.5589 24.4207 58.1842 25.8529ZM5.5662 50.0412C6.46773 51.3986 7.21901 52.5297 7.95763 53.7236C7.65542 54.2504 7.35322 54.7771 6.86276 55.2659C6.13681 54.0092 5.52369 52.8406 4.83515 51.7221C5.07462 51.1827 5.30141 50.7061 5.5662 50.0412ZM16.8691 40.3063C16.5795 40.7703 16.29 41.2343 15.9878 41.7611C14.7984 39.8884 13.7219 38.1039 12.6453 36.3194C12.8214 36.0937 12.9849 35.9308 13.0983 35.6925C15.0759 39.1608 15.1645 38.7216 16.8691 40.3063ZM20.3042 79.2673C20.9806 80.1221 22.4077 82.4345 22.6703 83.0752C21.6289 82.7344 19.2962 81.3495 18.72 80.6455C19.2605 80.2321 19.751 79.7433 20.3042 79.2673ZM62.6095 14.9261C62.7598 15.1523 62.86 15.3031 62.9601 15.4539C64.2618 17.741 65.5007 20.0154 66.8023 22.3025C66.8524 22.3779 66.9526 22.5288 66.99 22.6669C67.0775 22.8805 67.0522 23.006 66.7759 23.0808C65.4236 21.0447 64.0839 18.9459 62.8571 16.9351C62.67 16.2444 62.6585 15.6543 62.6095 14.9261ZM5.3143 57.7614C4.92402 58.401 4.5464 58.9778 4.06804 59.7303C3.62994 58.9888 3.2166 58.4483 2.89132 57.7949C3.0686 56.9164 3.35871 56.126 3.67415 55.2101C3.8244 55.4364 3.93724 55.5244 4.0374 55.6753C4.50084 56.2912 4.87619 57.02 5.3143 57.7614ZM63.3791 12.7305C63.4165 12.8686 63.5041 13.0822 63.6042 13.233C64.8685 15.3819 66.0826 17.4554 67.3468 19.6044C67.447 19.7552 67.5472 19.906 67.5218 20.0315C67.5593 20.1697 67.5213 20.3579 67.4706 20.6089C65.6676 17.8941 63.9773 15.2674 62.2744 12.7034L62.2871 12.6407C62.2871 12.6407 62.2997 12.5779 62.3124 12.5152C62.6261 12.5785 62.9399 12.6418 63.3791 12.7305ZM3.98959 54.2942C4.17896 53.6794 4.29292 53.1147 4.67054 52.5379C5.34641 53.7191 5.98486 54.7622 6.61064 55.868C6.3211 56.332 6.04421 56.7333 5.69192 57.1846C5.11622 56.1542 4.57795 55.2619 3.98959 54.2942ZM55.7381 24.7063C55.6627 24.7564 55.65 24.8191 55.5746 24.8692C55.3991 24.7685 55.2862 24.6804 55.1106 24.5796C54.2454 24.0132 53.6317 23.171 53.018 22.3289C52.4671 21.4993 52.1297 20.5823 52.056 19.6532C52.0186 19.515 52.1193 19.3395 52.1826 19.0257C53.4221 20.9737 54.5487 22.8337 55.7381 24.7063ZM62.1272 17.9633C63.6672 20.3638 65.4064 23.7187 65.3926 24.4343C64.6534 23.5668 64.0777 22.5363 63.4894 21.5687C62.8382 20.5883 62.2625 19.5579 61.6114 18.5776C61.7876 18.3519 61.9511 18.189 62.1272 17.9633ZM3.77851 60.1943C3.56437 60.6082 3.37556 60.8966 3.18675 61.185C2.99794 61.4734 2.80913 61.7618 2.59499 62.1757C2.28352 60.8068 2.32321 59.6394 2.7768 58.686C3.14006 59.1512 3.49065 59.679 3.77851 60.1943ZM59.7366 21.0725C60.8016 22.267 62.4417 24.8183 62.8044 25.6098C62.729 25.6599 62.6663 25.6473 62.5281 25.6847C61.5264 24.1765 60.6629 22.6308 59.7366 21.0725ZM61.0701 12.1992C61.4207 12.7271 61.7086 13.2423 61.9964 13.7575C61.6073 13.7443 61.3816 13.5681 61.0805 13.4421C60.7794 13.316 60.4784 13.1899 60.1773 13.0639C59.8641 12.6742 59.8641 12.6742 59.7518 12.2597C60.1537 12.2102 60.5428 12.2234 61.0701 12.1992ZM56.6451 15.6815C55.7303 14.7133 55.0165 13.7203 55.0671 13.4693C55.2053 13.4319 55.3561 13.3317 55.5697 13.2442C55.9703 13.8475 56.371 14.4508 56.7717 15.0541C56.7464 15.1796 56.6957 15.4306 56.6451 15.6815ZM57.5419 12.532C58.0818 12.4451 58.4837 12.3956 58.8855 12.3461C59.0357 12.5723 59.1232 12.7859 59.2735 13.0121C58.859 13.1244 58.5073 13.2493 58.0928 13.3616C57.8925 13.0599 57.7422 12.8337 57.5419 12.532ZM57.1246 14.2763C56.7613 13.8112 56.5109 13.4341 56.1476 12.969C56.4366 12.8314 56.6375 12.8067 56.8511 12.7191C57.0013 12.9454 57.1642 13.1089 57.2644 13.2597C57.3646 13.4105 57.4521 13.6241 57.5396 13.8376C57.3888 13.9378 57.3007 14.0507 57.1246 14.2763Z" fill="#D7A7A5"/>
<path d="M57.3245 58.5924C57.9768 58.9199 58.5663 59.2348 59.1811 59.4242C61.0002 60.1178 62.6454 59.7315 64.0161 58.4408C65.3113 57.2002 65.9416 55.6948 66.0952 53.9626C66.1211 53.5107 66.0837 53.3726 65.7958 52.8573C65.4942 53.0577 65.4936 53.3841 65.3676 53.6852C65.0901 54.4128 64.8 55.2032 64.4598 55.9182C64.3211 56.282 64.0695 56.5578 63.8807 56.8462C62.4715 58.6515 60.4372 59.0246 58.4304 57.9666C58.3676 57.954 58.3803 57.8912 58.3302 57.8158C60.429 56.4762 60.9701 55.7364 60.6333 54.493C60.2943 54.5552 60.0427 54.8309 59.8665 55.0566C58.508 56.6109 56.8754 56.9345 54.9193 55.6255C54.1669 55.1471 53.4398 54.5433 52.9389 53.7892C52.7887 53.563 52.5884 53.2613 52.1612 53.4363C51.9471 53.8502 52.072 54.202 52.2723 54.5036C52.5729 54.9561 52.9361 55.4212 53.312 55.8236C54.1266 56.641 55.1047 57.2955 56.2463 57.7871C54.4975 59.981 51.8851 60.6293 49.8904 59.8349C49.351 59.5955 48.887 59.3059 48.423 59.0164C48.1346 58.8276 47.8715 58.5133 47.7719 58.036C47.9981 57.8858 48.2244 57.7355 48.4506 57.5853C48.9785 57.2347 49.3809 56.8587 49.6831 56.332C49.8972 55.9181 49.9732 55.5416 49.6226 55.0137C49.3336 55.1513 49.0446 55.2889 48.8184 55.4392C48.5922 55.5894 48.3406 55.8652 48.0516 56.0028C46.845 56.8041 45.5895 56.8773 44.3731 56.1094C43.3824 55.5176 42.4797 54.8131 41.8286 53.8327C41.6783 53.6065 41.4527 53.4303 41.3525 53.2795C40.9507 53.329 40.85 53.5046 40.9375 53.7182C41.0624 54.0699 41.1119 54.4717 41.3123 54.7734C42.2639 56.2062 43.4797 57.3005 45.0479 57.9434C45.5245 58.1702 46.0518 58.146 46.6166 58.26C46.6166 58.26 46.6793 58.2727 46.7294 58.3481C47.2285 60.0814 48.5704 60.8746 50.0384 61.3668C52.4977 62.1243 54.6581 61.4501 56.4691 59.5952C56.7961 59.2694 57.0603 58.9309 57.3245 58.5924Z" fill="#D7A7A5"/>
<path d="M24.9326 31.0933C24.4272 32.9504 25.0018 34.6336 25.7646 36.3548C25.0099 37.1821 24.9829 38.2868 24.843 39.3034C24.8298 39.6926 24.8292 40.019 24.8788 40.4208C24.8858 43.6221 28.2328 46.4525 31.8497 45.6804C32.465 45.5434 33.0303 45.331 33.5081 44.905C33.8351 44.5791 34.0993 44.2406 33.8742 43.7381C33.4977 43.6621 33.1961 43.8624 32.9198 43.9373C30.4951 44.9499 27.8982 43.9035 26.8101 41.5289C26.2724 40.3102 26.1365 39.042 26.277 37.699C26.315 37.5108 26.4157 37.3352 26.4537 37.1469C26.7421 37.3357 27.0305 37.5245 27.2562 37.7007C27.9458 38.1664 28.6861 38.3811 29.4898 38.2821C29.9543 38.2452 30.3815 38.0702 30.5582 37.5181C30.3452 37.2792 30.0314 37.2159 29.7177 37.1526C27.9982 36.9362 26.9078 35.8672 26.3834 34.2594C26.046 33.3424 25.8594 32.3252 25.9365 31.2959C25.9492 31.2331 25.9118 31.095 25.8617 31.0196C25.4225 30.9309 25.4225 30.9309 24.9326 31.0933Z" fill="#D7A7A5"/>
<path d="M46.4669 50.2626C46.1906 50.3375 46.1399 50.5885 46.152 50.8521C46.2252 52.1076 48.3178 54.3584 50.1766 53.8846C51.0055 53.6601 51.3198 53.397 51.6099 52.6066C51.3215 52.4178 51.0326 52.5554 50.7562 52.6302C49.2618 52.9164 47.8819 52.3114 47.1059 50.9793C46.9556 50.7531 46.8681 50.5395 46.7052 50.376C46.6551 50.3006 46.5296 50.2753 46.4669 50.2626Z" fill="#D7A7A5"/>
<path d="M33.4882 34.6481C33.1871 34.522 32.886 34.396 32.585 34.2699C31.6817 33.8917 30.8666 33.4007 30.2402 32.6213C29.877 32.1562 29.5891 31.641 29.4521 31.0256C29.4273 30.8247 29.3271 30.6738 29.2396 30.4603C28.8879 30.5852 28.7118 30.8109 28.7739 31.1499C28.8235 31.5517 28.9231 32.029 29.0353 32.4435C29.3854 33.2977 29.9616 34.0017 30.5506 34.643C31.0393 35.1335 31.6415 35.3856 32.2816 35.4495C32.9344 35.4506 33.2988 35.2629 33.4882 34.6481Z" fill="#D7A7A5"/>
<path d="M44.1972 48.8906C43.7959 48.6137 43.4943 48.814 43.1426 48.939C41.9366 49.4139 40.9579 49.0858 40.2567 48.0301C40.1065 47.8039 39.9435 47.6404 39.7432 47.3387C39.6298 47.5771 39.5417 47.6899 39.5037 47.8781C39.4784 48.0036 39.5032 48.2045 39.6034 48.3554C40.0783 49.5614 42.0598 50.7449 43.5928 49.9441C43.9698 49.6937 44.2841 49.4306 44.1972 48.8906Z" fill="#D7A7A5"/>
<path d="M29.4128 24.4221C29.4019 23.5057 27.1509 18.4802 26.4623 17.3617C26.3121 17.1354 26.1365 17.0347 25.9235 16.7958C25.7721 17.2224 25.9097 17.5114 26.0473 17.8003C27.0732 19.8359 28.0237 21.9215 29.0496 23.957C29.1497 24.1078 29.3127 24.2713 29.4128 24.4221Z" fill="#D7A7A5"/>
<path d="M24.927 19.4682C24.9892 19.8072 25.0514 20.1463 25.189 20.4353C26.052 22.3073 26.9149 24.1794 27.8533 26.0013C27.8908 26.1395 28.0663 26.2402 28.1665 26.391C28.1918 26.2655 28.3427 26.1654 28.2926 26.0899C27.4423 24.1552 26.6673 22.1703 25.817 20.2355C25.6921 19.8838 25.4163 19.6322 25.216 19.3306C25.0652 19.4307 24.9898 19.4808 24.927 19.4682Z" fill="#D7A7A5"/>
<path d="M28.4861 16.0723C28.2092 16.4735 28.2588 16.8753 28.3837 17.2271C28.5207 17.8424 28.7332 18.4077 28.8702 19.0231C29.3947 20.6309 29.8564 22.2261 30.3809 23.8339C30.4183 23.9721 30.4684 24.0475 30.6186 24.2737C30.6693 24.0227 30.77 23.8471 30.7827 23.7844C30.6831 23.3072 30.5835 22.8299 30.4211 22.3401C29.8972 20.4058 29.2979 18.5217 28.7112 16.5748C28.6738 16.4367 28.5736 16.2858 28.4861 16.0723Z" fill="#D7A7A5"/>
<path d="M23.1177 20.9967C23.0418 21.3732 23.1667 21.7249 23.3043 22.0139C24.1172 23.8106 24.9301 25.6072 25.743 27.4038C25.8431 27.5546 25.9433 27.7054 26.1816 27.8188C26.1442 27.6807 26.1822 27.4924 26.082 27.3416C25.2818 25.4822 24.4816 23.6229 23.694 21.7007C23.5564 21.4118 23.4061 21.1855 23.1177 20.9967Z" fill="#D7A7A5"/>
<path d="M30.9128 28.6431C30.4488 28.3536 30.0349 28.1394 29.6336 27.8625C29.2951 27.5983 28.9566 27.3341 28.6181 27.0699C28.3032 27.6594 28.4155 28.0738 29.0925 28.6023C29.8196 29.2061 30.1961 29.2821 30.9128 28.6431Z" fill="#D7A7A5"/>
<path d="M41.9456 44.1912C42.1988 42.9362 42.0249 41.8563 41.8637 40.7136C41.7272 39.7718 41.7272 39.7718 41.3139 39.2312C41.2886 39.3567 41.2632 39.4822 41.2379 39.6077C41.4112 41.0141 41.5846 42.4204 41.7579 43.8268C41.7326 43.9523 41.8454 44.0403 41.9456 44.1912Z" fill="#D7A7A5"/>
<path d="M23.6284 30.1116C23.6929 29.145 22.9213 25.2017 22.5961 24.5484C22.3687 25.3514 23.0406 28.8175 23.6284 30.1116Z" fill="#D7A7A5"/>
<path d="M39.8506 43.2461C39.991 41.9031 39.8677 40.5721 39.7318 39.3039C39.7071 39.103 39.5442 38.9395 39.4066 38.6506C39.3433 38.9643 39.2425 39.1399 39.2673 39.3408C39.3905 40.6717 39.451 41.99 39.5869 43.2582C39.7124 43.2835 39.7751 43.2962 39.8506 43.2461Z" fill="#D7A7A5"/>
<path d="M38.7537 46.094C39.0075 44.5126 38.734 42.9555 38.7242 41.3862C38.6614 41.3735 38.5987 41.3609 38.5359 41.3482C38.4478 41.461 38.3724 41.5111 38.3471 41.6366C38.2942 43.1932 38.5303 44.6122 38.7537 46.094Z" fill="#D7A7A5"/>
<path d="M30.4443 16.4021C30.3937 16.6531 30.2803 16.8914 30.3051 17.0924C30.4156 18.486 30.5889 19.8924 30.7749 21.236C30.8124 21.3741 30.8498 21.5123 31.0127 21.6758C31.038 21.5503 31.0133 21.3494 31.0386 21.2239C30.9027 19.9557 30.7668 18.6875 30.6309 17.4193C30.5687 17.0803 30.5065 16.7412 30.4443 16.4021Z" fill="#D7A7A5"/>
<path d="M37.3343 46.33C37.6376 45.1504 37.3509 43.9824 36.8247 43.3538C36.6981 43.9813 36.9716 45.5385 37.3343 46.33Z" fill="#D7A7A5"/>
<path d="M58.0629 38.1055C58.0381 37.9045 58.026 37.6409 57.9385 37.4273C57.414 35.8195 56.8769 34.2744 56.2897 32.654C56.1647 32.3022 56.0271 32.0132 55.6006 31.8619C55.3864 32.2758 55.5868 32.5774 55.7117 32.9291C56.0992 33.9216 56.5367 34.9894 56.9242 35.9819C57.1366 36.5472 57.3364 37.1752 57.5488 37.7405C57.5862 37.8787 57.6864 38.0295 57.7739 38.2431C57.9247 38.1429 57.9875 38.1555 58.0629 38.1055Z" fill="#D7A7A5"/>
<path d="M47.7649 25.7095C47.7274 25.5713 47.7654 25.3831 47.7153 25.3077C47.2156 23.9007 46.766 22.5692 46.2663 21.1623C46.1287 20.8733 46.0037 20.5216 45.5645 20.433C45.5893 20.6339 45.6393 20.7093 45.6768 20.8475C46.3267 22.4806 47.0395 24.1264 47.6894 25.7596C47.7021 25.6968 47.7649 25.7095 47.7649 25.7095Z" fill="#D7A7A5"/>
<path d="M55.6653 38.0134C55.5519 38.2517 55.5392 38.3145 55.5266 38.3772C55.5139 38.44 55.4886 38.5655 55.5387 38.6409C55.8628 39.9471 56.1242 41.2406 56.4483 42.5467C56.4357 42.6095 56.5612 42.6348 56.674 42.7229C56.712 42.5346 56.8127 42.3591 56.7753 42.2209C56.5266 40.8646 56.3659 39.3956 55.6653 38.0134Z" fill="#D7A7A5"/>
<path d="M56.0209 35.6037C56.0445 36.4575 56.9928 39.8487 57.4683 40.7283C57.6703 40.0507 57.3197 39.5228 57.2328 38.9829C57.0958 38.3675 56.8833 37.8022 56.6835 37.1741C56.5338 36.6215 56.3842 36.0689 56.0209 35.6037Z" fill="#D7A7A5"/>
<path d="M58.6558 36.1354C58.8826 35.6587 58.6823 35.3571 58.4946 34.9927C57.9195 33.6358 57.4825 32.2416 56.5056 30.9343C56.3542 31.3609 56.5044 31.5871 56.6547 31.8133C57.2051 32.9692 57.7053 34.0497 58.2557 35.2057C58.3933 35.4946 58.5182 35.8464 58.6558 36.1354Z" fill="#D7A7A5"/>
<path d="M44.7292 24.5743C44.553 24.7999 44.6405 25.0135 44.7154 25.2898C45.0648 26.4705 45.4016 27.7139 45.6884 28.882C45.7384 28.9574 45.7885 29.0328 45.9014 29.1208C45.952 28.8699 45.9773 28.7444 45.9399 28.6062C45.804 27.338 45.3918 26.1447 44.9168 24.9387C44.9422 24.8132 44.7666 24.7124 44.7292 24.5743Z" fill="#D7A7A5"/>
<path d="M45.2855 22.4664C45.2976 22.73 45.3097 22.9937 45.3845 23.27C45.6839 24.3753 45.9833 25.4805 46.2827 26.5858C46.3201 26.724 46.3702 26.7994 46.5205 27.0256C46.5711 26.7746 46.6718 26.599 46.6344 26.4609C46.3604 25.2301 46.0236 23.9867 45.6867 22.7433C45.5739 22.6552 45.4864 22.4416 45.2855 22.4664Z" fill="#D7A7A5"/>
<path d="M44.019 28.4146C43.9793 29.582 44.3414 30.6999 44.5527 31.918C44.6281 31.8679 44.7162 31.7551 44.7289 31.6924C44.806 30.6631 44.6068 29.7086 44.2821 28.7289C44.232 28.6534 44.1191 28.5654 44.019 28.4146Z" fill="#D7A7A5"/>
<path d="M55.5773 45.2443C55.8173 44.3785 55.8817 43.412 55.8334 42.3574C55.5812 42.9595 55.4535 44.2398 55.5773 45.2443Z" fill="#D7A7A5"/>
<path d="M41.89 18.2547C42.1047 17.5144 42.0304 16.9116 41.7805 16.2082C41.5284 16.8103 41.5774 17.5386 41.89 18.2547Z" fill="#D7A7A5"/>
<path d="M42.0339 14.9533C42.0334 15.2797 41.9574 15.6562 42.2959 15.9204C42.171 15.5687 42.0961 15.2924 42.0339 14.9533Z" fill="#D7A7A5"/>
<path d="M42.3198 16.4478C42.2951 16.2468 42.2703 16.0459 42.2329 15.9078C42.1949 16.096 42.0187 16.3217 42.3198 16.4478Z" fill="#D7A7A5"/>
<path d="M42.3831 16.4605C42.3578 16.586 42.2697 16.6988 42.2444 16.8243C42.3071 16.8369 42.3071 16.8369 42.3699 16.8496C42.3325 16.7115 42.3578 16.586 42.3831 16.4605Z" fill="#D7A7A5"/>
</svg>
