<svg width="68" height="55" viewBox="0 0 68 55" fill="none" xmlns="http://www.w3.org/2000/svg">
<g clip-path="url(#clip0)">
<path d="M59.9686 13.8031C60.1147 14.276 60.0311 14.8008 59.7606 15.2106C59.5612 15.4833 59.2711 15.7073 59.1225 16.0219C58.9739 16.3365 59.0629 16.8079 59.405 16.8749C59.1255 16.8269 58.9467 17.2276 59.0625 17.4797C59.1782 17.7317 59.4675 17.8726 59.7288 17.9837C59.9901 18.0949 60.2805 18.1779 60.448 18.4139C60.649 18.6972 60.6019 19.0956 60.4306 19.398C60.2539 19.6829 59.9584 19.8893 59.6467 20.0432C59.5485 20.0927 59.4504 20.1423 59.3857 20.239C59.2273 20.4607 59.3873 20.795 59.6313 20.9115C59.8753 21.028 60.1549 21.0759 60.4148 20.938C60.2046 21.1757 59.8672 21.491 59.3764 21.7386C58.6602 22.1135 57.9955 22.1654 57.635 22.1616C57.8963 22.2728 58.1921 22.3733 58.4879 22.4738C59.0114 22.6382 59.5015 22.7554 59.9408 22.8307C59.5258 23.3236 58.88 23.9261 57.9695 24.2843C57.0245 24.6531 56.2129 24.5968 56.1354 24.7743L56.1235 24.7972C56.0883 25.1726 58.5955 25.4533 58.6188 26.0793C58.6539 26.6825 56.4275 27.6776 54.1849 27.6414C53.3669 27.6256 52.5854 27.4833 52.5123 27.7361C52.4219 27.9944 53.2189 28.554 53.7231 28.8395C54.5956 29.3375 55.1567 29.3176 55.1753 29.5613C55.221 29.8926 54.1714 30.3513 53.196 30.4992C51.9163 30.7028 50.8411 30.3443 50.1879 30.0664C50.8749 30.6984 51.5673 31.348 52.2542 31.98C50.6147 32.7937 49.4298 32.8145 48.603 32.6478C48.1982 32.5618 47.5721 32.3715 47.4482 32.5825C47.2596 32.8902 48.4702 33.6867 48.285 34.1277C48.1063 34.5284 46.7487 34.6025 45.7036 34.1579C45.573 34.1023 45.437 34.0292 45.2891 33.9789C45.1358 33.9112 44.9587 33.8891 44.7526 33.8953C44.6609 33.9044 44.5865 33.9082 44.5174 33.9296C44.4138 33.9616 44.3103 33.9936 44.2294 34.0378C44.0503 34.1315 43.8939 34.2374 43.7548 34.3379C43.3439 34.5992 42.6362 34.8179 41.411 34.5249C41.8091 34.3444 42.1855 34.0937 42.5111 33.8012C41.4676 33.9126 40.4012 33.7048 39.4543 33.2107C40.0175 33.075 40.5698 32.9043 41.1114 32.6986C40.1996 32.8077 39.279 32.7659 38.395 32.5977C38.0356 32.5361 37.5929 32.3275 37.6109 31.9573C38.0878 31.8484 38.5105 31.5642 38.8145 31.2016C37.6512 31.2924 36.4766 30.7344 35.7839 29.7779C36.4279 29.598 37.0893 29.4128 37.7334 29.233C36.5861 29.0694 35.4784 28.6058 34.5701 27.8694C34.1975 27.5816 33.8387 27.1551 33.9041 26.6936C34.5637 26.9311 35.3137 26.9104 35.948 26.6376C35.3896 26.1769 34.8312 25.7162 34.2783 25.2731C33.9229 24.9799 33.5297 24.5641 33.6577 24.1216C33.8761 23.4208 35.086 23.6034 35.3951 22.9514C34.9091 22.6027 34.4177 22.2364 34.0546 21.7345C33.6969 21.2502 33.5139 20.5968 33.6957 20.0225C34.2175 20.6096 35.218 20.665 35.811 20.1363C34.7545 19.0428 33.9813 17.4588 34.4364 15.9941C34.4848 15.8448 34.5677 15.6848 34.7221 15.6947C34.8019 15.7084 34.8754 15.7624 34.9315 15.8218C35.1843 16.0891 35.3962 16.4075 35.6953 16.6412C35.961 16.8278 36.3312 16.9245 36.6139 16.7987C36.6484 16.7881 36.6948 16.7545 36.7239 16.7264C36.4251 15.8208 36.1155 14.8803 36.0866 13.9298C36.0576 12.9792 36.3501 11.9677 37.065 11.3438C37.5035 11.784 38.0467 12.1343 38.6092 12.3634C38.8192 10.8401 39.2915 9.37008 39.9852 8.00435C40.1225 8.3265 40.3408 8.60446 40.641 8.78035C40.7543 8.84126 40.885 8.89683 41.0004 8.84198C41.0986 8.79245 41.1405 8.68353 41.1707 8.59746C41.7455 7.15331 42.735 5.88807 43.9643 4.97086C43.7825 5.54516 44.0281 6.21764 44.485 6.59457C45.2518 7.24031 45.3372 6.29282 45.559 5.72537C45.799 5.09469 46.1524 4.52493 46.602 4.02142C46.713 3.89116 48.0101 2.70355 48.1106 2.8452C48.384 3.24044 48.1741 3.78504 48.0342 4.25043C47.9117 4.71047 48.0311 5.40278 48.5113 5.42707C50.0464 3.72456 51.6569 1.96035 53.6448 0.866306C54.1592 0.57299 54.7126 0.344407 55.2941 0.145523C54.9062 0.725953 54.5237 1.3239 54.1357 1.90433C53.9181 2.24025 52.5836 4.89781 53.8143 4.22965C54.086 5.0476 53.408 5.85199 52.774 6.4317C53.1713 6.61595 53.6763 6.53666 54.0073 6.26165C54.1359 6.433 54.0401 6.67369 53.8773 6.81995C53.7317 6.96088 53.5462 7.09496 53.4968 7.30213C53.4162 7.65325 53.846 7.9426 54.1848 7.87628C54.5236 7.80996 54.7748 7.52126 55.0087 7.2379C55.2253 6.95986 55.4765 6.67116 55.8099 6.58733C56.0199 7.32836 55.9193 8.16541 55.5185 8.82658C55.1878 9.40852 54.6327 10.0598 54.9829 10.6424C55.1721 10.9485 55.5704 11.0749 55.9146 11.0261C56.2588 10.9773 56.5878 10.8181 56.8941 10.6466C57.3159 10.4204 57.7149 10.1819 58.1366 9.95564C58.2946 10.4057 58.2283 10.9252 57.9696 11.3121C57.7994 11.5566 57.5309 11.8507 57.6866 12.1096C57.759 12.2216 57.8724 12.2825 57.9566 12.3716C58.1533 12.5795 58.0953 12.9428 57.897 13.1576C57.7213 13.3846 57.4333 13.4928 57.1852 13.6078C57.3303 14.1387 57.9317 14.4325 58.4702 14.4005C59.0205 14.3455 59.5005 14.0629 59.9686 13.8031Z" fill="#8FC633"/>
<path d="M51.1661 5.45099C50.1569 7.50909 49.2784 9.62277 48.5079 11.7798C48.4842 11.8255 48.4659 11.8888 48.4422 11.9345C48.3281 12.2384 48.2194 12.5598 48.1226 12.8584C47.8148 13.7594 47.5071 14.6605 47.222 15.5738C47.1983 15.6195 47.18 15.6827 47.179 15.7406C46.8391 16.8435 46.5218 17.9585 46.2445 19.0805C46.2208 19.1262 46.2198 19.1841 46.2015 19.2473C45.9188 20.3517 45.676 21.463 45.4613 22.6039C45.4602 22.6618 45.4365 22.7075 45.4355 22.7654C45.2337 23.8256 45.0718 24.8927 44.9326 25.972C44.9315 26.0298 44.9078 26.0755 44.9068 26.1334C44.8929 26.272 44.879 26.4107 44.8651 26.5493C44.8512 26.6879 44.8374 26.8265 44.8235 26.9651C44.7059 28.1145 44.6228 29.2531 44.5797 30.3986C44.5733 30.439 44.5723 30.4969 44.5658 30.5372C44.5502 31.0986 44.5346 31.6599 44.5189 32.2212L44.5243 32.2387C44.5179 32.2791 44.5169 32.337 44.5277 32.372C44.5267 32.4299 44.5257 32.4878 44.5246 32.5457C44.5283 32.9859 44.5201 33.449 44.5292 33.9067C44.5443 34.9958 44.5994 36.0918 44.6889 37.1771C44.7731 38.2449 44.8745 39.3074 45.0104 40.3592C45.0301 40.545 44.743 40.5953 44.7234 40.4095C44.5875 39.3577 44.4688 38.3006 44.3901 37.2503C44.3059 36.1825 44.2563 35.104 44.2239 34.0203C44.205 33.4696 44.2088 32.9311 44.2072 32.3751L44.2018 32.3576C44.2082 32.3172 44.2028 32.2997 44.2092 32.2594C44.2038 32.2418 44.2157 32.219 44.2103 32.2015L44.2049 32.184C44.2046 31.877 44.2097 31.5876 44.2266 31.2753C44.2371 31.0034 44.2423 30.714 44.2528 30.4421C44.2538 30.3842 44.2548 30.3263 44.2613 30.286C44.3108 29.1001 44.4121 27.8982 44.5361 26.7085C44.5446 26.5524 44.5758 26.4084 44.5843 26.2523C44.5853 26.1944 44.5863 26.1365 44.6046 26.0733C44.7394 24.9187 44.9142 23.7708 45.1289 22.6299C45.1299 22.572 45.1536 22.5263 45.1546 22.4684C45.3629 21.3678 45.5884 20.2619 45.8593 19.1803C45.8776 19.1171 45.8786 19.0592 45.9023 19.0135C45.9088 18.9731 45.927 18.9099 45.9335 18.8696C46.2044 17.788 46.5152 16.7133 46.826 15.6386C46.8443 15.5753 46.868 15.5296 46.8863 15.4664C47.2692 14.1967 47.6921 12.9339 48.1603 11.6954C48.1786 11.6321 48.2141 11.5636 48.2324 11.5004C49.0009 9.45907 49.8601 7.46649 50.7928 5.52798C50.8111 5.46476 50.852 5.41372 50.8703 5.35051C50.9058 5.28195 50.9921 5.25528 51.0548 5.27431C51.1519 5.28267 51.2135 5.35959 51.1661 5.45099Z" fill="#305C17"/>
<path d="M46.8284 7.07935C47.1031 8.70234 47.4122 10.3147 48.2165 11.7548C48.2663 11.8545 48.4108 11.7715 48.3665 11.6893C47.5622 10.2491 47.2757 8.649 46.9892 7.04886C46.9621 6.96127 46.7959 6.97425 46.8284 7.07935Z" fill="#305C17"/>
<path d="M43.4762 8.95959C43.7744 11.5156 44.9573 13.8749 46.826 15.6385C46.9049 15.7101 47.0213 15.5974 46.9425 15.5258C45.0964 13.7744 43.9297 11.4676 43.6369 8.9291C43.6217 8.81866 43.4609 8.84916 43.4762 8.95959Z" fill="#305C17"/>
<path d="M41.0133 11.0256C42.0069 14.0575 43.3147 17.1266 45.842 19.1857C45.9209 19.2573 46.0092 19.1148 45.9304 19.0432C43.4257 16.9964 42.1406 13.9394 41.1578 10.9425C41.1307 10.855 40.9808 10.9205 41.0133 11.0256Z" fill="#305C17"/>
<path d="M38.7615 13.7747C38.7427 15.4884 39.7924 17.294 40.7703 18.6229C41.9158 20.1879 43.3869 21.4603 45.0229 22.4707C45.1136 22.5195 45.2073 22.3945 45.1112 22.3283C43.6221 21.426 42.2634 20.2724 41.1721 18.8826C40.1088 17.5225 38.9068 15.5912 38.9213 13.8021C38.9233 13.6863 38.7517 13.6818 38.7615 13.7747Z" fill="#305C17"/>
<path d="M37.2747 18.264C38.7825 21.6743 41.3591 24.5049 44.6124 26.282C44.7031 26.3307 44.7969 26.2058 44.7008 26.1395C41.4701 24.3746 38.9043 21.5791 37.4247 18.1985C37.3749 18.0987 37.2476 18.1764 37.2747 18.264Z" fill="#305C17"/>
<path d="M36.7737 24.5978C37.5814 26.1712 38.8883 27.3409 40.2718 28.3909C41.4576 29.291 42.7764 30.4378 44.3326 30.4558C44.4298 30.4641 44.4501 30.2852 44.3411 30.2996C42.8249 30.2885 41.5287 29.1539 40.3656 28.266C39.0048 27.2281 37.7259 26.0882 36.9236 24.5323C36.8739 24.4325 36.7239 24.4981 36.7737 24.5978Z" fill="#305C17"/>
<path d="M39.3629 30.2837C40.9505 31.4434 42.5668 32.268 44.5332 32.3895C44.6303 32.3979 44.656 32.2364 44.5417 32.2334C42.5925 32.1065 41.0043 31.3117 39.4567 30.1588C39.3778 30.0872 39.2841 30.2122 39.3629 30.2837Z" fill="#305C17"/>
<path d="M53.0626 7.91609C52.5551 8.78292 51.9462 9.56598 51.1904 10.2409C50.8356 10.5616 50.4528 10.8526 50.0592 11.1086C49.7583 11.2975 48.8416 12.003 48.4799 11.7502C48.3892 11.7014 48.2954 11.8264 48.3915 11.8926C48.6572 12.0792 48.9171 11.9413 49.1825 11.8209C49.7251 11.5573 50.2287 11.2289 50.7043 10.8709C51.7136 10.0984 52.549 9.13022 53.1868 8.01204C53.2514 7.9153 53.11 7.82469 53.0626 7.91609Z" fill="#305C17"/>
<path d="M55.1689 11.1222C54.3179 12.6517 53.0661 13.8637 51.5627 14.7505C50.2382 15.5436 48.5608 16.2347 47.0514 15.5114C46.9607 15.4626 46.895 15.6173 47.003 15.6607C48.4897 16.3718 50.1143 15.7546 51.4496 14.9965C53.0448 14.1006 54.3893 12.8216 55.305 11.1953C55.3578 11.1214 55.2163 11.0308 55.1689 11.1222Z" fill="#305C17"/>
<path d="M55.9698 15.6721C53.7949 18.6085 49.6532 19.8309 46.1872 19.079C46.0846 19.0531 46.0816 19.2268 46.1787 19.2351C49.7246 20.0007 53.9127 18.7449 56.1112 15.7627C56.1586 15.6713 56.0344 15.5754 55.9698 15.6721Z" fill="#305C17"/>
<path d="M56.2455 19.1945C56.4224 20.1953 54.4992 21.1926 53.7894 21.5271C52.837 21.9941 51.8304 22.286 50.7968 22.4903C48.942 22.8524 46.8196 23.1437 45.0069 22.4181C44.8989 22.3748 44.8559 22.5416 44.9585 22.5674C47.0497 23.3988 49.6436 22.981 51.7421 22.4284C52.8458 22.1449 53.9234 21.7159 54.879 21.0752C55.4581 20.6852 56.5517 20.0018 56.4008 19.1465C56.3792 19.0765 56.2357 19.1016 56.2455 19.1945Z" fill="#305C17"/>
<path d="M55.8932 23.2564C54.4269 24.6306 52.3254 25.3568 50.4276 25.8857C48.5989 26.3933 46.6847 26.5627 44.8645 25.9354C44.762 25.9095 44.7136 26.0588 44.8161 26.0847C46.6762 26.7188 48.6131 26.5616 50.4764 26.0434C52.4086 25.5038 54.5447 24.7669 56.0228 23.3699C56.0811 23.3135 55.9633 23.1772 55.8932 23.2564Z" fill="#305C17"/>
<path d="M51.8144 28.0478C50.9682 28.9809 49.5994 29.6918 48.4409 30.1649C47.2133 30.6595 45.8828 30.8211 44.6143 30.388C44.5118 30.3621 44.4634 30.5114 44.5659 30.5373C45.7146 30.9499 46.935 30.8606 48.0689 30.491C48.8402 30.2334 49.5564 29.8586 50.2391 29.4365C50.8291 29.0815 51.4536 28.7158 51.9322 28.1841C51.985 28.1102 51.8845 27.9686 51.8144 28.0478Z" fill="#305C17"/>
<path d="M47.9624 31.9823C47.3606 32.3601 46.747 32.7609 46.0207 32.7358C45.3634 32.6895 44.6899 32.5906 44.1768 32.1543C44.098 32.0827 44.0096 32.2251 44.0885 32.2967C44.6296 32.7627 45.3204 32.8563 46.0176 32.9095C46.7892 32.9589 47.4148 32.5353 48.0511 32.1468C48.1212 32.0675 48.0606 31.9327 47.9624 31.9823Z" fill="#305C17"/>
<g opacity="0.33">
<path opacity="0.33" d="M50.6328 8.43668C50.5017 9.05286 50.4127 9.56013 50.3666 9.90059C52.2438 8.26504 52.7261 8.17356 52.8784 8.29921C53.1376 8.52613 52.6467 9.75244 51.9504 10.6201C51.7748 10.8471 51.8157 10.796 50.9641 11.7116C50.5792 12.1184 50.2559 12.6021 50.0234 13.1345C49.9276 13.3752 49.8372 13.6334 49.9475 13.868C50.14 14.3074 50.7594 14.2312 51.2028 14.075C51.7152 13.8974 52.2114 13.6673 52.6849 13.425C52.8003 13.3702 52.9276 13.2925 53.0528 13.3305C53.2007 13.3808 53.2894 13.5453 53.3154 13.6907C53.4531 14.3198 53.0015 14.9391 52.4407 15.2659C51.8971 15.5874 51.2594 15.7269 50.6878 16.0187C50.1107 16.293 49.5694 16.8057 49.5355 17.4302C49.5131 17.725 49.6387 18.07 49.9172 18.1758C50.0878 18.2382 50.2885 18.2146 50.4665 18.1788C51.4947 17.957 52.4743 17.5775 53.3932 17.0632C53.5205 16.9855 53.665 16.9025 53.8021 16.9177C54.0935 16.9428 54.2698 17.3297 54.1675 17.6107C54.0653 17.8918 53.827 18.0997 53.5724 18.2552C53.0569 18.6064 52.5252 18.905 51.9654 19.174C51.4692 19.4041 50.9503 19.622 50.56 20.0112C50.1924 20.4127 49.9978 21.0677 50.3047 21.5102C50.7229 22.1293 51.6638 21.9921 52.3391 21.6682C53.0143 21.3444 53.7315 20.9117 54.4311 21.1561C53.4775 22.6597 51.5084 23.0188 49.9379 23.8111C49.6261 23.965 49.2724 24.2279 49.3117 24.5995C49.3411 24.8783 49.624 25.0595 49.8809 25.0952C50.155 25.1257 50.4139 25.0457 50.6674 24.9481C51.7732 24.5488 52.8346 24.0673 53.869 23.4982C54.0772 23.3763 54.3479 23.2734 54.511 23.4341C54.6633 23.5597 54.642 23.7966 54.5817 23.9688C54.3085 24.8592 53.3787 25.3384 52.5309 25.7155C51.4349 26.2077 50.3508 26.6771 49.2548 27.1693C48.805 27.3659 48.2777 27.7399 48.4238 28.2129C48.5321 28.5632 48.9304 28.6896 49.2716 28.8144C49.6127 28.9393 49.9972 29.2042 49.9338 29.55C49.9081 29.7115 49.7798 29.8471 49.6634 29.9598C47.8596 31.6494 45.2758 32.4671 42.8268 32.1301C42.0162 32.016 41.2023 31.7686 40.5532 31.2592C39.808 30.6835 39.3711 29.8207 38.9397 28.9753C38.3093 27.7309 37.6671 26.5094 37.0367 25.265C36.9318 25.0479 36.8334 24.7905 36.9853 24.6092C37.1373 24.4279 37.405 24.4987 37.6209 24.5855C38.7276 25.107 39.3418 26.2989 40.0798 27.2797C40.8179 28.2606 41.9918 29.1835 43.1484 28.8261C43.39 28.7514 43.6273 28.6013 43.7285 28.3782C43.8297 28.155 43.7712 27.9044 43.7181 27.6714C43.601 27.1702 43.4441 26.6622 43.1771 26.2266C42.3815 24.9373 40.7828 24.4144 39.709 23.3262C38.888 22.5053 38.4326 21.3987 38.0516 20.2883C37.9261 19.9433 37.8361 19.5297 38.0754 19.2639C38.4021 18.9135 38.9862 19.2127 39.3469 19.5234C40.4745 20.4798 41.5019 21.6015 42.3384 22.8398C42.6454 23.2823 42.9631 23.7597 43.4759 23.8891C43.6011 23.9272 43.7673 23.9142 43.8492 23.8122C43.902 23.7383 43.9094 23.64 43.9169 23.5418C43.8923 22.6666 43.4026 21.8777 42.8128 21.254C42.223 20.6303 41.5113 20.1019 40.9505 19.45C40.0246 18.4121 39.4697 17.1059 38.9202 15.8174C38.7223 15.3604 38.5965 14.7085 39.0355 14.4769C39.2836 14.3618 39.5794 14.4623 39.776 14.6702C39.9672 14.8606 40.071 15.1355 40.1868 15.3876C40.7082 16.6465 41.3741 17.8223 42.1673 18.9205C42.726 19.6881 43.5189 20.4793 44.4642 20.4175C44.3374 18.8447 43.2268 17.576 42.3514 16.273C41.6489 15.2236 41.0737 14.0965 40.6656 12.8985C40.5401 12.5535 40.4501 12.1399 40.6441 11.8497C40.8435 11.577 41.2848 11.5366 41.5968 11.6896C41.9089 11.8427 42.1325 12.1381 42.3335 12.4214C42.8685 13.2348 43.3108 14.1151 43.9094 14.8896C44.5081 15.6641 45.2857 16.3449 46.2378 16.5496C46.4178 16.398 46.314 16.123 46.2145 15.9235C45.2176 14.044 44.2154 12.1469 43.2185 10.2674C43.0855 10.0206 42.9525 9.77388 42.9404 9.4898C42.9282 9.20571 43.0596 8.89646 43.3185 8.81645C43.7792 8.6549 44.1531 9.19179 44.351 9.64874C44.6582 10.3981 44.9827 11.1422 45.29 11.8916C45.5809 12.5884 46.0361 13.3881 46.757 13.3956C47.043 13.4031 47.3611 13.2089 47.3662 12.9194C47.3574 12.7686 47.2796 12.6392 47.2018 12.5097C46.4235 11.2151 45.9245 9.66142 46.1852 8.18C46.1981 8.09927 46.2228 7.99568 46.2756 7.92179C46.4286 7.68261 46.7945 7.70388 47.0202 7.88358C47.2287 8.06863 47.3153 8.34889 47.4019 8.62916C47.6932 9.63294 47.81 9.82714 47.947 9.84235C48.0269 9.85604 48.1822 9.80804 48.43 9.38605C48.6345 8.82393 48.9693 8.01045 49.5286 7.12762C50.1643 6.12521 51.1409 4.9407 51.373 5.08004C51.5933 5.24223 51.1065 6.23701 50.6328 8.43668Z" fill="#1A4B0F"/>
</g>
<g opacity="0.39">
<path opacity="0.39" d="M58.6535 26.0686C58.6886 26.6718 56.4622 27.6669 54.2197 27.6307C53.4016 27.6148 52.6202 27.4725 52.547 27.7254C52.4566 27.9836 53.2536 28.5433 53.7579 28.8288C54.6303 29.3268 55.1915 29.3069 55.2101 29.5506C55.2557 29.8819 54.2061 30.3406 53.2307 30.4885C51.951 30.6921 50.8758 30.3335 50.2226 30.0557C50.9096 30.6877 51.602 31.3372 52.289 31.9693C50.6494 32.783 49.4645 32.8038 48.6377 32.6371C48.2329 32.5511 47.6068 32.3608 47.4829 32.5718C47.2944 32.8795 48.5049 33.676 48.3197 34.117C48.141 34.5176 46.7835 34.5918 45.7384 34.1471C45.4544 34.0238 45.1769 33.8601 44.7647 33.8724C44.673 33.8815 44.5985 33.8853 44.5295 33.9067C44.5446 34.9958 44.5996 36.0918 44.6892 37.1771C44.6029 37.2038 44.4939 37.2183 44.4022 37.2274C44.318 36.1596 44.2684 35.0811 44.236 33.9974C44.057 34.0911 43.9006 34.197 43.7615 34.2975C43.3506 34.5588 42.6429 34.7775 41.4177 34.4845C41.8157 34.3039 42.1921 34.0533 42.5177 33.7608C41.4743 33.8721 40.4079 33.6644 39.4609 33.1703C40.0241 33.0346 40.5765 32.8639 41.118 32.6582C40.2062 32.7672 39.2857 32.7255 38.4017 32.5573C38.0422 32.4957 37.5996 32.2871 37.6175 31.9169C38.0944 31.8079 38.5172 31.5238 38.8212 31.1612C37.6579 31.252 36.4832 30.6939 35.7905 29.7374C36.4346 29.5576 37.0959 29.3724 37.74 29.1925C36.5927 29.029 35.485 28.5653 34.5767 27.829C34.2041 27.5412 33.8454 27.1147 33.9108 26.6531C34.5704 26.8907 35.3204 26.87 35.9547 26.5972C35.3963 26.1365 34.8379 25.6758 34.2849 25.2326C33.9296 24.9395 33.5364 24.5237 33.6643 24.0812C33.8827 23.3804 35.0927 23.563 35.4017 22.911C34.9158 22.5622 34.4244 22.196 34.0613 21.6941C33.7036 21.2098 33.5206 20.5563 33.7024 19.982C34.2242 20.5692 35.2246 20.6246 35.8177 20.0959C34.7612 19.0024 33.988 17.4183 34.443 15.9536C34.4914 15.8043 34.5744 15.6444 34.7287 15.6543C34.8086 15.668 34.882 15.722 34.9382 15.7814C35.191 16.0487 35.4028 16.367 35.702 16.6008C35.9676 16.7874 36.3379 16.884 36.6205 16.7583C36.7115 17.114 36.7399 17.4506 37.0252 17.823C37.1203 17.9471 37.2272 18.0484 37.346 18.1268C37.3687 18.139 37.3968 18.1687 37.4194 18.1809C38.387 18.803 39.8099 18.2673 40.3956 19.1225C40.6972 19.5475 40.6135 20.0723 40.4899 20.5902C40.3179 21.2574 40.0606 21.8934 40.4203 22.262C40.7466 22.5833 41.2935 22.3951 41.8804 22.2138C42.45 22.0377 43.0596 21.8685 43.4776 22.1807C43.5002 22.1929 43.5056 22.2104 43.5283 22.2226C43.7141 22.3955 43.8017 22.6179 43.8139 22.902C43.8315 23.2036 43.8026 23.5387 43.762 23.8967C43.7064 24.4511 43.6671 25.0582 43.8684 25.6484C43.8955 25.736 43.9171 25.806 43.9615 25.8883C44.0112 25.9881 44.0609 26.0878 44.1333 26.1998C44.2447 26.3765 44.3679 26.5303 44.5083 26.6788C44.5926 26.7679 44.6768 26.857 44.7729 26.9232C45.7774 27.7258 47.3058 28.0211 48.3499 27.5449C49.0133 27.2439 49.2049 26.7625 49.5519 26.2331C49.5875 26.1646 49.6284 26.1135 49.6812 26.0397C49.775 25.9147 49.886 25.7845 50.0143 25.6489C50.6557 24.9709 51.8282 24.3591 54.0978 24.4829C54.195 24.4913 54.2921 24.4996 54.3892 24.508L54.4065 24.5026C54.9321 24.5513 55.5203 24.619 56.1647 24.7461L56.1529 24.7689C56.123 25.1619 58.6302 25.4425 58.6535 26.0686Z" fill="#1A4B0F"/>
</g>
<path d="M39.7714 29.8313C40.3969 29.4077 41.017 28.9666 41.6425 28.543C41.9804 29.8202 41.6117 31.2583 40.691 32.1952C41.2403 32.1982 41.7754 32.0328 42.2165 31.6854C42.5437 31.9489 42.4029 32.4722 42.1906 32.8256C41.694 33.7275 41.0559 34.5387 40.3163 35.2662C40.8772 34.9394 41.4326 34.595 41.9546 34.2034C41.7107 35.3726 41.1193 36.4573 40.2752 37.2746C40.7629 37.2007 41.2408 37.0338 41.6906 36.8372C41.5958 37.02 41.501 37.2028 41.3954 37.3506C40.8362 38.2334 40.2635 38.5831 39.8374 38.734C39.6648 38.7873 39.4522 38.8338 39.2559 38.9329C39.1577 38.9824 39.0596 39.0319 38.9496 39.1043C38.8859 39.1432 38.8105 39.2049 38.7404 39.2841C38.431 39.6291 38.3677 39.9749 38.2817 40.3086C37.9224 41.5326 36.8897 42.6577 36.4115 42.5176C35.8933 42.3707 36.0763 40.7598 35.6769 40.6913C35.4201 40.6556 35.1336 41.3198 34.9031 41.7364C34.4593 42.5644 33.5884 43.6011 31.7082 44.4316C31.6467 43.376 31.5852 42.3204 31.541 41.2594C31.3216 42.0181 30.8372 43.204 29.7557 44.1715C28.9244 44.9081 27.7983 45.4864 27.5282 45.2244C27.3543 45.0287 27.7629 44.5762 27.9603 43.4406C28.0741 42.8298 28.168 41.7261 27.884 41.6028C27.6228 41.4916 27.1854 42.2792 26.5947 42.9991C25.0092 44.9667 22.5499 46.1872 22.0487 45.728C21.5248 45.2567 23.0948 42.8717 22.7385 42.6364C22.529 42.5093 22.0117 43.2832 20.9774 43.8523C20.0121 44.4001 19.0258 44.513 18.3103 44.523C18.57 44.0782 18.8134 43.5808 19.047 42.9905C19.1848 42.6408 19.2934 42.3194 19.3903 42.0208C19.1273 42.3324 18.6141 42.8748 17.7781 43.2291C17.2074 43.463 16.7025 43.5423 16.3474 43.556C16.6646 43.4197 16.8068 43.1455 16.8863 42.8522C16.9659 42.559 16.7896 42.1721 16.4982 42.147C16.3784 42.1265 16.2457 42.1866 16.1303 42.2415C15.7786 42.3886 15.3989 42.5059 15.0049 42.455C14.6282 42.3987 14.2492 42.1512 14.1528 41.778C14.078 41.4749 14.1867 41.1535 14.3008 40.8495C14.3976 40.551 14.4782 40.1998 14.3517 39.9127C14.2079 39.631 13.7523 39.5031 13.5875 39.7651C13.7652 39.4223 13.4292 39.0081 13.0589 38.9114C12.6887 38.8147 12.3035 38.9146 11.915 38.8811C11.3721 38.8378 10.857 38.5172 10.5619 38.0519C11.1207 37.8409 11.7141 37.6191 12.1226 37.1667C12.5366 36.7317 12.7042 35.9891 12.3638 35.4994C12.0866 35.6426 11.7803 35.8141 11.4598 35.8172C11.1392 35.8203 10.7937 35.62 10.7481 35.2887C10.722 35.1432 10.7704 34.9939 10.7099 34.8592C10.5897 34.5317 10.1603 34.5493 9.81707 34.5402C9.29687 34.509 8.79905 34.1831 8.52665 33.73C9.01641 33.5403 9.52343 33.3452 10.0078 33.138C10.3767 32.9856 10.7683 32.8454 11.0421 32.5689C11.3332 32.287 11.5066 31.8688 11.3875 31.4835C11.1483 30.7706 10.1813 30.7624 9.44522 30.6445C8.5893 30.506 7.80855 29.9989 7.30062 29.2731C7.62522 29.0385 8.04287 29.0438 8.43784 29.0368C8.83822 29.0474 9.26772 29.0299 9.56964 28.783C9.87157 28.5362 9.93898 27.9589 9.57619 27.764C9.37212 27.6543 9.11319 27.7343 8.88982 27.7458C8.64918 27.7626 8.3588 27.6796 8.32295 27.4412C8.80525 27.3498 9.2182 26.9727 9.35262 26.4898C8.4063 26.6095 7.22139 26.6303 6.70365 25.8116C8.1956 25.2546 4.94116 24.5141 4.50727 24.4563C3.72479 24.3719 2.9423 24.2875 2.15982 24.2031C2.18893 24.1749 2.22345 24.1642 2.25256 24.136C4.95528 22.4181 8.34046 22.2355 11.5476 22.0887C11.8645 21.6454 11.3772 21.0476 10.8719 20.8199C10.3839 20.587 9.75776 20.3967 9.61263 19.8658C9.5585 19.6907 11.5148 19.4123 11.7036 19.4115C12.4482 19.3733 13.2016 19.4859 13.9184 19.725C14.5726 19.945 15.443 20.5587 15.4289 19.4117C15.4293 18.7399 15.0466 18.0522 14.4161 17.7865C16.1057 17.3795 17.8843 17.444 19.5402 17.9684C19.6482 18.0118 19.7734 18.0499 19.8888 17.995C20.0215 17.9349 20.0699 17.7856 20.0957 17.6241C20.1482 17.2433 20.0809 16.8419 19.9036 16.5129C21.5734 16.8988 23.1756 17.555 24.642 18.4451C24.8539 17.7848 24.9352 17.0688 24.8676 16.3605C25.9067 16.1737 26.9971 16.6427 27.8029 17.3532C28.6086 18.0636 29.1815 18.9996 29.749 19.918C30.1568 19.8304 30.3938 19.3734 30.4182 18.9628C30.4426 18.5523 30.3127 18.1319 30.2799 17.7199C30.2701 17.627 30.2603 17.534 30.3077 17.4426C30.4015 17.3177 30.6184 17.3466 30.7663 17.3969C32.3458 18.0409 33.1494 19.8459 33.3367 21.5534C34.2086 21.4375 34.8714 20.5227 34.7496 19.6392C35.3747 19.8874 35.7984 20.524 35.9814 21.1775C36.1472 21.8363 36.1176 22.5362 36.06 23.2065C36.8405 23.4066 37.5537 22.2267 38.3148 22.548C38.792 22.746 38.8607 23.3964 38.8461 23.8998C38.8318 24.7102 38.8347 25.5153 38.8204 26.3256C39.5193 25.9561 40.0626 25.3277 40.3446 24.5881C40.7917 24.8721 40.884 25.4768 40.8802 26.0153C40.8557 27.4045 40.4663 28.7146 39.7714 29.8313Z" fill="#8FC633"/>
<path d="M9.81224 24.1218C14.9924 25.3418 20.1894 27.2283 24.9897 29.5443C29.2059 31.5612 33.2078 34.0473 36.8701 36.9644C39.5507 39.0912 42.0503 41.4275 44.3805 43.9504C44.5264 44.1164 44.2708 44.3297 44.125 44.1637C40.6042 40.3584 36.6532 36.9355 32.3369 34.1053C27.9019 31.1966 23.1858 28.9696 18.2457 27.1189C15.4431 26.066 12.604 25.1396 9.6863 24.4486C9.49846 24.3915 9.60714 24.07 9.81224 24.1218Z" fill="#3C631A"/>
<path d="M14.2302 21.8354C15.4187 23.2336 16.5953 24.6546 17.2683 26.4039C17.3007 26.509 17.1562 26.5921 17.1011 26.4748C16.4389 24.7605 15.2795 23.3341 14.0965 21.9535C14.0122 21.8644 14.1459 21.7463 14.2302 21.8354Z" fill="#3C631A"/>
<path d="M18.2345 20.2909C20.2233 22.382 21.3883 25.1115 21.5778 27.9889C21.5758 28.1047 21.415 28.1352 21.3998 28.0247C21.2329 25.1595 20.067 22.4879 18.1008 20.409C18.0165 20.3199 18.1675 20.1965 18.2345 20.2909Z" fill="#3C631A"/>
<path d="M21.7713 19.6201C23.6575 22.664 25.367 25.9928 25.3307 29.6692C25.3286 29.785 25.1516 29.7629 25.1537 29.6472C25.1835 26.0111 23.4795 22.6998 21.6214 19.6856C21.5544 19.5912 21.7216 19.5203 21.7713 19.6201Z" fill="#3C631A"/>
<path d="M25.771 19.6506C27.2604 20.8598 28.0568 23.0699 28.5054 24.8887C29.0288 27.0105 29.0644 29.2063 28.7633 31.3526C28.7439 31.4737 28.5669 31.4516 28.5862 31.3305C28.8498 29.3685 28.8338 27.3586 28.439 25.4081C28.0378 23.498 27.2336 21.0792 25.6881 19.8106C25.5865 19.7268 25.6867 19.5615 25.771 19.6506Z" fill="#3C631A"/>
<path d="M30.6983 21.582C32.5603 25.3434 33.1257 29.6207 32.3269 33.7054C32.3076 33.8265 32.1306 33.8045 32.1499 33.6834C32.9541 29.6161 32.3823 25.3793 30.5483 21.6476C30.4813 21.5531 30.6431 21.4648 30.6983 21.582Z" fill="#3C631A"/>
<path d="M36.5028 25.6794C37.2601 27.5179 37.3397 29.489 37.2424 31.438C37.1555 33.1151 37.1953 35.0794 36.1012 36.4345C36.0366 36.5312 35.8724 36.4284 35.9544 36.3264C37.0365 34.9941 36.985 33.0527 37.0654 31.4159C37.1509 29.4898 37.0821 27.5537 36.3356 25.7503C36.2859 25.6505 36.4531 25.5796 36.5028 25.6794Z" fill="#3C631A"/>
<path d="M39.5212 32.0195C39.3906 34.2282 38.9264 36.2139 37.6126 38.0207C37.548 38.1175 37.4011 38.0093 37.4658 37.9126C38.7676 36.1286 39.2028 34.1712 39.3441 31.9974C39.3462 31.8817 39.5232 31.9037 39.5212 32.0195Z" fill="#3C631A"/>
<path d="M10.4731 27.8514C11.5914 28.0432 12.6954 28.0666 13.8197 27.911C14.342 27.8264 14.876 27.7189 15.3939 27.5589C15.7736 27.4415 17.0381 27.1275 17.0754 26.6363C17.0775 26.5205 17.2717 26.5372 17.2524 26.6583C17.2172 27.0338 16.9291 27.142 16.6174 27.2959C16.0058 27.5809 15.3553 27.8011 14.7004 27.9459C13.3096 28.2797 11.8614 28.3051 10.4582 28.0479C10.333 28.0099 10.3533 27.8309 10.4731 27.8514Z" fill="#3C631A"/>
<path d="M11.716 31.996C13.6383 32.3422 15.5936 32.1218 17.4189 31.481C19.0544 30.8988 20.8395 29.9442 21.3125 28.1093C21.3372 28.0057 21.5078 28.0682 21.483 28.1717C21.0337 29.9609 19.3339 30.9467 17.7265 31.5586C15.7966 32.2893 13.7432 32.5593 11.7011 32.1925C11.5758 32.1545 11.5962 31.9755 11.716 31.996Z" fill="#3C631A"/>
<path d="M15.0341 35.9407C19.1104 36.1586 23.1298 33.4389 24.9781 29.8741C25.0373 29.7599 25.1842 29.868 25.125 29.9823C23.2411 33.6156 19.1472 36.3391 15.0138 36.1197C14.9048 36.1342 14.9197 35.9377 15.0341 35.9407Z" fill="#3C631A"/>
<path d="M17.8804 38.7263C18.6259 39.6089 20.8405 38.6367 21.6538 38.2702C22.7325 37.7833 23.7171 37.1144 24.6401 36.3687C26.2835 35.0165 28.0463 33.3779 28.7295 31.3054C28.7715 31.1965 28.9421 31.2589 28.9001 31.3678C28.1136 33.7793 25.8871 35.753 23.9049 37.1715C22.8675 37.9143 21.7231 38.5558 20.4922 38.917C19.7326 39.1517 18.3744 39.5907 17.7467 38.8444C17.6624 38.7553 17.8134 38.6319 17.8804 38.7263Z" fill="#3C631A"/>
<path d="M21.6171 41.3327C23.8421 41.0673 25.9829 39.734 27.8076 38.4793C29.5515 37.2688 31.0726 35.7049 31.8465 33.6811C31.8885 33.5722 32.0591 33.6346 32.0171 33.7435C31.2368 35.8077 29.7037 37.3944 27.9254 38.6156C26.0716 39.8985 23.9134 41.2371 21.6539 41.5132C21.5277 41.533 21.4908 41.3525 21.6171 41.3327Z" fill="#3C631A"/>
<path d="M28.6745 41.2242C30.0947 41.1691 31.6804 40.4872 32.9111 39.819C34.2226 39.1067 35.3224 38.076 35.8454 36.6478C35.8874 36.5389 36.058 36.6013 36.016 36.7103C35.5241 37.9945 34.6024 38.9893 33.4451 39.7115C32.6697 40.2006 31.8283 40.5374 30.976 40.8392C30.2392 41.0861 29.4787 41.3786 28.6941 41.41C28.5852 41.4245 28.5483 41.244 28.6745 41.2242Z" fill="#3C631A"/>
<path d="M34.8125 40.709C35.5666 40.4568 36.3606 40.2114 36.8585 39.5586C37.2982 38.9622 37.699 38.301 37.6897 37.5363C37.6917 37.4206 37.8687 37.4426 37.8667 37.5584C37.8696 38.3634 37.457 39.0475 37.0054 39.6667C36.5064 40.3774 35.6897 40.6106 34.9011 40.8735C34.7803 40.9109 34.7089 40.741 34.8125 40.709Z" fill="#3C631A"/>
<g opacity="0.33">
<path opacity="0.33" d="M12.661 26.1198C13.2732 26.4488 13.7775 26.7343 14.1058 26.9399C11.3565 27.4057 10.9327 27.7477 10.9286 27.9793C10.9333 28.3616 12.3615 28.8222 13.5799 28.8486C13.9059 28.863 13.8314 28.8669 15.218 28.7646C15.8482 28.7233 16.4937 28.7925 17.1143 28.9653C17.3875 29.0536 17.6887 29.1716 17.8044 29.4237C18.0304 29.9103 17.5356 30.3895 17.0729 30.6668C16.5465 30.983 16.004 31.2466 15.4333 31.4805C15.3006 31.5407 15.1507 31.6062 15.0796 31.7433C14.9967 31.9033 15.0962 32.1028 15.1967 32.2445C15.6386 32.8179 16.502 32.8581 17.1698 32.6326C17.8548 32.4017 18.4123 31.9416 19.0757 31.6406C19.7218 31.345 20.5365 31.2275 21.124 31.6601C21.3951 31.8641 21.595 32.2053 21.4864 32.5267C21.4143 32.7217 21.2514 32.868 21.0832 32.9967C20.1548 33.725 19.1258 34.3116 18.0255 34.7284C17.8755 34.794 17.7029 34.8473 17.6146 34.9897C17.4152 35.2624 17.6368 35.6737 17.9434 35.8092C18.2501 35.9447 18.6007 35.8556 18.9287 35.7542C19.6073 35.5637 20.247 35.3084 20.8759 35.0181C21.4357 34.7492 21.9847 34.4452 22.5976 34.4093C23.2106 34.3734 23.9091 34.6756 24.0759 35.2765C24.3076 36.0876 23.5108 36.8136 22.7665 37.1588C22.005 37.5092 21.1182 37.8217 20.8179 38.6245C22.7877 38.8793 24.5129 37.425 26.3294 36.6334C26.6984 36.481 27.1698 36.3545 27.4507 36.6515C27.6528 36.8769 27.6348 37.2471 27.4699 37.5091C27.3051 37.7711 27.0333 37.9319 26.7615 38.0926C25.6225 38.7516 24.4446 39.3459 23.2116 39.8229C22.9754 39.9151 22.6863 40.0812 22.6876 40.3302C22.6954 40.5389 22.8985 40.7064 23.0917 40.781C24.0515 41.1944 25.1356 40.7251 26.0654 40.2459C27.2605 39.6463 28.4729 39.0413 29.668 38.4417C30.1588 38.1941 30.872 37.9929 31.1724 38.4757C31.3897 38.8116 31.2099 39.2701 31.0775 39.6372C30.9333 40.0272 30.8842 40.5413 31.247 40.7362C31.4057 40.8215 31.6118 40.8154 31.7953 40.7971C34.5598 40.4417 37.1125 38.7893 38.5735 36.4188C39.0509 35.6381 39.4385 34.7507 39.4548 33.8246C39.4851 32.7598 39.0621 31.7583 38.6619 30.769C38.0464 29.3281 37.4482 27.8819 36.8327 26.441C36.7396 26.2011 36.5732 25.9071 36.3098 25.9117C36.0465 25.9163 35.9044 26.1906 35.8312 26.4434C35.4872 27.7779 36.0519 29.1769 36.3716 30.5173C36.6913 31.8577 36.6444 33.5417 35.498 34.299C35.2607 34.4491 34.9554 34.5626 34.6823 34.4743C34.4318 34.3982 34.2298 34.1728 34.0677 33.9542C33.7154 33.4874 33.3923 32.9924 33.2191 32.4318C32.6811 30.8135 33.3819 29.0425 33.2173 27.3472C33.0973 26.041 32.4659 24.8545 31.7989 23.7365C31.5989 23.3953 31.291 23.0108 30.9014 23.0352C30.3629 23.0673 30.2072 23.787 30.2034 24.3255C30.2137 26.011 30.4474 27.685 30.8936 29.3126C31.0496 29.8784 31.2326 30.5319 30.9601 31.0575C30.889 31.1946 30.778 31.3248 30.6236 31.315C30.5265 31.3066 30.4304 31.2403 30.3515 31.1688C29.6246 30.5299 29.2988 29.5368 29.1845 28.555C29.0756 27.5908 29.1275 26.5961 28.9841 25.6426C28.7538 24.1018 28.0294 22.6754 27.3157 21.284C27.067 20.7852 26.5852 20.2049 26.089 20.435C25.8063 20.5607 25.6858 20.905 25.7088 21.2241C25.749 21.5379 25.8928 21.8197 26.0367 22.1015C26.7395 23.4578 27.2923 24.8797 27.6553 26.3603C27.9056 27.4151 28.0213 28.6459 27.2979 29.4259C26.0319 28.2052 25.7333 26.321 25.2427 24.6112C24.8432 23.2571 24.2828 21.9335 23.5489 20.7211C23.3435 20.3624 23.0582 19.99 22.6524 19.9619C22.2639 19.9284 21.92 20.2842 21.8329 20.6757C21.7459 21.0672 21.8305 21.4632 21.9496 21.8486C22.2571 22.9049 22.7027 23.9185 22.9412 24.9962C23.1797 26.0739 23.1992 27.2384 22.6843 28.2035C22.4372 28.2607 22.2535 27.972 22.1604 27.7321C21.2496 25.519 20.3506 23.283 19.4397 21.0698C19.3132 20.7827 19.1985 20.4728 18.9619 20.258C18.7426 20.0379 18.3724 19.9413 18.1178 20.0967C17.6552 20.374 17.8426 21.1029 18.0913 21.6017C18.5119 22.412 18.9152 23.2276 19.3304 24.0204C19.7121 24.766 20.0843 25.7256 19.5691 26.3837C19.3643 26.6389 18.9727 26.7791 18.7189 26.5697C18.5893 26.4562 18.5405 26.2986 18.4746 26.1463C17.9193 24.5332 16.9509 22.9903 15.4781 22.1406C15.3874 22.0919 15.2967 22.0431 15.1995 22.0348C14.8854 21.9975 14.6333 22.3441 14.6336 22.651C14.6393 22.9755 14.8176 23.2466 14.9959 23.5177C15.6369 24.4902 15.7299 24.7301 15.6534 24.8497C15.606 24.9411 15.4442 25.0295 14.925 24.9405C14.3054 24.7098 13.3662 24.4243 12.1898 24.289C10.8709 24.1209 9.14849 24.1158 9.097 24.4388C9.22457 24.668 10.4271 24.9488 12.661 26.1198Z" fill="#245212"/>
</g>
</g>
<defs>
<clipPath id="clip0">
<rect width="58.3021" height="38.8681" fill="white" transform="translate(0 17.2139) rotate(-17.1728)"/>
</clipPath>
</defs>
</svg>
