<svg width="257" height="142" viewBox="0 0 257 142" fill="none" xmlns="http://www.w3.org/2000/svg">
<path d="M0.00119645 92.3266C0.3025 120.263 57.7009 137.593 127.905 131.02C198.108 124.596 254.754 96.659 254.452 68.7222C254.151 40.7854 196.753 23.4556 126.549 30.029C56.345 36.6024 -0.300107 64.5392 0.00119645 92.3266Z" fill="url(#paint0_linear)"/>
<path d="M135.979 128.353C202.817 121.18 254.67 94.0186 251.797 67.687C248.923 41.3554 192.41 25.8246 125.572 32.9979C58.7346 40.1713 6.88142 67.3324 9.75521 93.664C12.629 119.996 69.1415 135.526 135.979 128.353Z" fill="white"/>
<path d="M86.1741 44.2216C86.1741 44.2216 96.4184 34.5109 98.5275 33.6146C100.637 32.7182 103.047 31.2242 103.047 31.2242L105.458 33.1664L117.359 21.663C117.359 21.663 121.879 25.6966 125.645 22.1112C129.411 18.5257 141.313 4.63197 141.313 4.63197L146.284 9.4126L155.775 0.000732422L174.607 21.9618C174.607 21.9618 179.126 21.5136 179.88 20.3184C179.88 20.3184 185.755 24.5015 189.371 29.5809C189.371 29.5809 196.301 29.2821 200.519 33.1664C204.737 37.0506 205.49 37.947 208.654 38.9928C211.818 40.1879 216.337 43.1758 216.789 44.371H86.1741V44.2216Z" fill="white"/>
<path d="M86.1741 44.2216C86.1741 44.2216 96.4184 34.5109 98.5275 33.6146C100.637 32.7182 103.047 31.2242 103.047 31.2242L105.458 33.1664L117.359 21.663C117.359 21.663 121.879 25.6966 125.645 22.1112C129.411 18.5257 141.313 4.63197 141.313 4.63197L146.284 9.4126L155.775 0.000732422L174.607 21.9618C174.607 21.9618 179.126 21.5136 179.88 20.3184C179.88 20.3184 185.755 24.5015 189.371 29.5809C189.371 29.5809 196.301 29.2821 200.519 33.1664C204.737 37.0506 205.49 37.947 208.654 38.9928C211.818 40.1879 216.337 43.1758 216.789 44.371H86.1741V44.2216ZM179.277 21.9618C179.277 21.9618 176.716 23.1569 175.812 23.9039C174.908 24.6509 174.456 25.2484 172.347 25.5472C170.389 25.6966 171.594 26.1448 170.389 25.6966C169.183 25.3978 166.924 24.9497 166.924 24.9497C166.924 24.9497 166.924 25.2484 166.02 25.2484C165.116 25.2484 164.061 25.2484 164.061 25.2484C164.061 25.2484 163.157 24.6509 163.157 25.2484C163.157 25.846 163.007 26.8918 163.007 27.4894C163.007 28.087 161.952 28.6845 163.007 28.8339C164.061 28.9833 164.212 28.8339 164.814 28.8339C165.417 28.8339 166.622 28.8339 166.622 28.8339C166.924 29.8797 166.924 30.7761 166.924 30.7761C166.924 30.7761 166.321 31.8218 165.718 32.7182C165.116 33.6146 163.609 34.9591 163.609 34.9591C163.609 34.9591 162.705 36.0049 161.952 36.0049C161.199 36.0049 160.747 36.0049 159.994 36.0049C159.24 36.0049 159.994 35.8555 158.336 36.3037C156.679 36.9012 158.186 36.0049 156.679 36.9012C155.173 37.7976 155.625 37.6482 154.57 38.5446C153.515 39.441 153.516 39.441 153.516 39.441C153.516 39.441 154.57 40.1879 156.227 39.2916C157.884 38.3952 159.692 38.2458 159.692 38.2458L160.747 39.441L161.801 40.1879C161.801 40.1879 161.5 40.1879 162.705 39.5903C163.91 38.9928 162.856 39.441 163.91 38.9928C164.965 38.5446 166.17 38.2458 166.773 38.2458C167.375 38.2458 167.526 38.0964 168.43 38.0964C169.334 38.0964 169.334 33.1664 169.334 33.1664C169.334 33.1664 170.69 32.27 171.443 32.1206C172.196 31.9712 172.498 31.523 173.1 31.2242C173.703 30.9254 174.004 31.0748 174.305 30.3279C174.607 29.5809 174.155 32.27 174.607 29.5809C175.209 26.8918 175.209 26.8918 175.209 26.8918C175.209 26.8918 174.004 27.1906 175.209 26.8918C176.415 26.593 175.36 26.593 176.415 26.593C177.469 26.593 178.674 26.593 178.674 26.593C178.674 26.593 178.674 24.3521 178.976 23.6051C179.578 23.3063 179.277 21.9618 179.277 21.9618ZM155.775 2.98863L147.64 11.6535V12.8487L148.845 12.9981C148.845 12.9981 148.996 14.1932 148.092 14.7908C147.188 15.3884 146.736 15.8366 145.983 15.986C145.23 16.1354 144.326 17.0317 144.326 17.0317C144.326 17.0317 143.121 17.1811 143.121 18.3763C143.121 19.5714 142.066 19.7208 142.066 21.3642C142.066 23.0075 140.861 23.4557 140.861 23.4557C140.861 23.4557 140.107 23.9039 140.107 24.8003C140.107 25.6966 140.71 26.4436 140.258 26.8918C139.806 27.34 139.957 27.4894 139.957 27.4894C139.957 27.4894 138.3 28.6845 137.697 29.4315C136.944 30.1785 136.642 30.7761 136.642 30.7761C136.642 30.7761 137.396 31.523 137.998 30.9254C138.601 30.3279 139.204 30.0291 139.806 29.8797C140.409 29.7303 140.559 29.5809 141.011 29.5809C141.614 29.5809 141.614 29.5809 141.614 29.5809C141.614 29.5809 142.669 30.1785 142.518 30.6267C142.367 31.2242 142.669 30.9254 142.217 31.8218C141.614 32.7182 140.559 34.3615 140.559 34.3615L139.656 36.0049C139.656 36.0049 139.806 36.3037 140.71 35.7061C141.614 34.9591 141.614 34.9591 141.614 34.9591C141.614 34.9591 142.669 33.764 143.271 33.6146C143.874 33.4652 142.669 33.4652 143.874 33.4652C145.079 33.4652 143.874 32.7182 144.928 33.4652C145.983 34.2121 145.983 34.2121 145.983 34.2121L147.037 32.1206C147.037 32.1206 146.736 31.523 147.037 31.0748C147.339 30.6267 147.791 29.4315 148.845 29.1327C149.9 28.8339 149.9 28.8339 149.9 28.8339C149.9 28.8339 151.256 28.6845 151.256 28.0869C151.256 27.4894 151.256 26.8918 150.653 26.2942C150.051 25.6966 149.599 25.5472 149.448 24.5015C149.297 23.4557 148.845 23.3063 148.695 22.4099C148.544 21.5136 148.092 21.5136 148.544 20.6172C148.996 19.7208 147.64 20.7666 148.845 19.7208C150.051 18.6751 150.051 18.3763 150.804 17.9281C151.557 17.4799 152.913 15.986 152.913 15.986C152.913 15.986 153.064 15.239 153.064 13.7451C153.064 12.2511 153.214 10.9066 153.214 10.0102C153.214 9.11381 153.365 7.47047 153.365 7.47047C153.365 7.47047 154.419 6.27531 155.173 5.52834C155.926 4.78137 155.775 2.98863 155.775 2.98863ZM140.71 8.21745C140.71 8.21745 132.274 17.4799 128.507 22.2606C124.741 27.0412 122.481 26.7424 122.481 26.7424L121.276 26.4436L121.879 27.6388C121.879 27.6388 122.18 27.6388 122.18 28.3857C122.18 29.1327 121.879 30.1785 121.276 30.3279C120.673 30.4773 119.167 31.9712 119.167 31.9712L120.221 32.27C120.221 32.27 120.221 32.1206 121.276 31.6724C122.331 31.2242 122.481 31.523 123.234 30.7761C123.988 30.0291 123.837 30.1785 124.59 29.7303C125.494 29.1327 125.645 28.6845 125.946 28.0869C126.247 27.4894 127.754 26.8918 127.754 26.8918C127.754 26.8918 128.658 25.9954 128.658 27.0412C128.658 28.087 128.658 28.6845 128.658 29.1327C128.658 29.7303 129.261 29.4315 128.658 30.3279C128.206 31.2242 128.206 31.2242 128.206 31.2242C128.206 31.2242 127.453 31.3736 127.151 32.27C126.85 33.1664 126.85 33.3158 126.85 33.9133C126.85 34.5109 126.85 35.2579 126.85 35.8555C126.85 36.4531 127.151 36.4531 126.85 37.0506C126.549 37.6482 126.699 37.7976 126.247 38.3952C125.796 38.9928 125.344 39.7397 125.344 39.7397L124.44 40.7855C125.042 40.9349 126.398 40.1879 126.398 40.1879C126.398 40.1879 127.754 39.5903 128.055 39.1422C128.206 38.5446 129.261 37.947 129.261 37.947C129.261 37.947 129.261 37.947 130.014 37.0506C130.767 36.1543 131.37 35.2579 131.37 35.2579C131.37 35.2579 131.972 35.2579 131.972 34.5109C131.972 33.764 131.822 33.3158 131.822 31.8218C131.822 30.3279 131.671 30.9255 131.822 29.1327C131.972 27.34 131.972 26.8918 131.972 26.1448C131.972 25.3978 131.822 25.0991 132.123 24.2027C132.424 23.3063 132.876 21.3642 132.876 21.3642C132.876 21.3642 132.274 20.6172 133.177 20.4678C134.081 20.3184 135.889 20.3184 135.889 20.3184L137.697 20.169L138.45 20.0196C138.45 20.0196 138.149 17.7787 138.149 17.1811C138.149 16.5836 137.848 15.8366 138.45 15.3884C139.053 14.9402 139.505 14.6414 140.107 14.1932C140.71 13.5957 141.162 13.4463 141.463 12.9981C141.765 12.4005 142.217 12.8487 142.217 11.8029C142.217 10.7572 142.217 11.8029 142.217 10.7572C142.217 9.71139 140.71 8.21745 140.71 8.21745ZM115.853 24.8003L114.798 25.5472L112.689 27.6388L111.634 29.5809H115.853V26.4436L117.208 26.2942L117.058 24.0533L115.853 24.8003ZM100.185 36.9012C101.541 36.7518 103.047 35.1085 101.541 34.8097C100.034 34.5109 96.5691 37.3494 95.9664 37.947C96.1171 37.947 98.8288 37.0506 100.185 36.9012ZM108.019 39.1422C108.019 39.1422 109.073 38.5446 110.278 37.947C111.484 37.2 110.278 37.947 110.881 37.6482C111.484 37.3494 111.634 37.0506 112.086 36.6025C112.689 36.0049 112.839 35.4073 112.839 35.4073L114.195 34.5109L114.798 33.1664C114.798 33.1664 113.743 33.1664 112.99 33.1664C112.237 33.1664 111.936 33.764 109.826 34.3615C107.717 34.9591 107.717 36.9012 107.717 36.9012L109.374 37.0506L108.019 39.1422ZM182.29 36.0049C177.319 35.8555 175.812 41.3831 175.812 41.3831C179.578 39.8891 182.29 36.0049 182.29 36.0049ZM183.345 40.0385C184.399 40.3373 185.906 38.3952 185.906 38.3952C185.906 38.3952 185.906 38.3952 186.96 37.4988C188.015 36.6025 186.96 37.4988 187.713 37.2C188.467 36.9012 188.919 36.9012 188.919 36.9012C188.919 36.9012 188.919 36.9012 189.823 36.9012C190.727 36.9012 191.178 36.0049 191.178 36.0049C191.178 36.0049 191.178 36.0049 192.836 34.3615C194.493 32.7182 192.836 34.3615 193.589 33.764C194.342 33.1664 193.589 33.764 194.493 33.4652C195.397 33.1664 195.246 33.3158 195.698 33.3158C196.301 33.3158 196.753 33.4652 197.807 33.1664L196.903 32.27L195.095 31.9712L193.89 31.6724H191.932C191.932 31.6724 190.576 31.6724 189.973 31.8218C189.371 31.9712 189.22 32.7182 189.22 32.7182C189.22 32.7182 188.316 33.3158 187.262 33.6146C186.207 33.9133 186.96 34.9591 186.207 37.3494C185.454 39.5903 182.29 39.8891 182.29 39.8891C182.29 39.8891 182.29 39.7397 183.345 40.0385Z" fill="url(#paint1_radial)"/>
<path d="M158.637 39.5903L159.24 40.3373L161.5 41.8312L161.65 41.2337L160.295 40.3373L159.541 39.4409C159.24 39.4409 158.939 39.5903 158.637 39.5903Z" fill="url(#paint2_linear)"/>
<path d="M162.253 27.6387C162.253 27.1906 162.253 26.7424 162.404 26.2942C162.404 25.9954 162.404 25.5472 162.404 25.3978C162.404 24.9496 162.705 24.5015 163.157 24.3521C163.007 24.3521 162.856 24.2027 162.705 24.2027C162.103 24.2027 161.5 24.6509 161.5 25.3978C161.5 25.5472 161.5 25.9954 161.5 26.2942C161.5 26.7424 161.349 27.34 161.349 27.6387C161.349 27.6387 161.199 27.7881 161.199 27.9375C161.048 28.2363 160.747 28.6845 160.898 29.2821C161.199 29.8797 161.801 30.0291 162.103 30.0291C162.404 30.0291 162.856 30.1785 163.007 30.1785C163.157 30.1785 163.308 30.1785 163.459 30.1785C163.308 30.1785 163.157 30.1785 163.007 30.1785C162.856 30.1785 162.103 30.0291 161.801 29.4315C161.5 28.8339 161.801 28.3857 162.103 28.0869C162.103 27.7881 162.253 27.6387 162.253 27.6387Z" fill="url(#paint3_linear)"/>
<path d="M188.618 30.9255C188.015 31.0749 187.564 31.6725 187.413 31.9712C187.112 32.1206 186.509 32.4194 185.906 32.5688C184.701 33.017 184.701 33.9134 184.55 34.8097C184.55 35.4073 184.55 36.0049 184.249 36.9013C183.797 38.5446 181.236 38.694 181.085 38.694L180.784 40.4868L181.839 40.7855C181.989 40.7855 182.14 40.9349 182.441 40.9349C182.592 40.9349 182.743 40.9349 182.893 40.9349C182.893 40.9349 182.893 40.9349 182.743 40.9349L181.688 40.6361L181.989 38.8434C181.989 38.8434 184.55 38.694 185.153 37.0507C185.454 36.1543 185.454 35.5567 185.454 34.9591C185.454 34.2122 185.605 33.1664 186.81 32.7182C187.413 32.5688 188.015 32.27 188.317 32.1206C188.467 31.6725 188.919 31.2243 189.522 31.0749C190.125 30.9255 191.48 30.9255 191.782 30.9255H190.878C190.577 30.6267 189.371 30.6267 188.618 30.9255Z" fill="url(#paint4_linear)"/>
<path d="M165.266 24.5014H166.17V24.0532L165.266 23.9038V24.5014Z" fill="url(#paint5_linear)"/>
<path d="M158.939 35.4072C158.788 35.4072 158.788 35.4072 158.788 35.4072C158.638 35.4072 158.487 35.4072 158.035 35.5566C157.884 35.5566 157.583 35.706 157.282 35.8554C157.131 35.8554 157.131 35.8554 156.98 36.0048H156.679C156.378 36.0048 156.227 36.0048 155.474 36.6024C154.419 37.2 154.269 37.3494 153.817 37.7975C153.666 37.9469 153.515 38.0963 153.214 38.2457L151.256 39.8891L152.31 40.636C152.461 40.636 153.063 41.0842 153.967 41.0842C154.118 41.0842 154.269 41.0842 154.419 41.0842C153.817 40.9348 153.365 40.7854 153.214 40.636L152.16 39.8891L154.118 38.2457C154.419 37.9469 154.57 37.7975 154.721 37.7975C155.173 37.3494 155.323 37.3494 156.378 36.6024C157.131 36.1542 157.282 36.0048 157.583 36.0048H157.884C157.884 36.0048 158.035 36.0048 158.186 35.8554C158.487 35.706 158.788 35.706 158.939 35.5566C159.24 35.4072 159.24 35.4072 159.391 35.4072H159.089C159.089 35.4072 159.089 35.4072 158.939 35.4072Z" fill="url(#paint6_linear)"/>
<path d="M163.007 34.6603C163.007 34.5109 164.513 33.1664 165.116 32.4194C165.568 31.8218 166.02 31.2242 166.17 30.776C166.17 30.6266 166.17 30.3279 166.02 29.8797H165.116C165.267 30.1785 165.267 30.4772 165.267 30.776C165.116 31.0748 164.664 31.8218 164.212 32.4194C163.609 33.3157 162.103 34.6603 162.103 34.6603C161.802 34.9591 161.35 35.4073 161.199 35.4073H162.103C162.254 35.4073 162.705 35.1085 163.007 34.6603Z" fill="url(#paint7_linear)"/>
<path d="M141.313 30.4771H141.012C140.861 30.4771 140.71 30.4771 140.56 30.6265C140.56 30.7759 140.56 30.9253 140.56 31.0747C140.56 31.0747 140.56 31.2241 140.409 31.3735C139.957 32.2698 138.902 33.7638 138.752 33.7638L137.697 35.7059L137.848 36.1541C137.999 36.4529 138.3 36.7517 138.902 36.7517C139.053 36.7517 139.204 36.7517 139.354 36.6023C139.053 36.4529 138.902 36.3035 138.752 36.1541L138.601 36.0047L139.656 34.0626C139.656 34.0626 140.71 32.4192 141.313 31.6723C141.464 31.5229 141.464 31.3735 141.464 31.3735C141.464 31.2241 141.464 31.0747 141.464 30.9253C141.464 30.6265 141.464 30.6265 141.313 30.4771Z" fill="url(#paint8_linear)"/>
<path d="M95.3638 37.3494C95.8158 36.7518 98.8288 34.2121 100.787 33.7639C100.637 33.7639 100.486 33.7639 100.335 33.7639C100.185 33.7639 100.185 33.7639 100.034 33.7639C99.5821 33.9133 99.1301 34.2121 98.8288 34.3615C98.0756 34.6603 95.8158 36.6024 93.2547 38.8433L92.6521 39.5903L94.008 39.1421L95.3638 37.3494Z" fill="url(#paint9_linear)"/>
<path d="M106.211 40.6361L107.868 37.6482L106.813 37.4988V36.7518C106.813 36.6024 106.813 34.3615 109.525 33.4652C110.579 33.1664 111.182 32.8676 111.483 32.5688C111.935 32.27 112.387 32.1206 112.99 32.1206H112.086C111.483 32.1206 111.031 32.27 110.58 32.5688C110.128 32.7182 109.525 33.017 108.621 33.4652C105.909 34.3615 105.909 36.7518 105.909 36.7518V37.4988L106.964 37.6482L105.005 41.2337L106.211 40.6361Z" fill="url(#paint10_linear)"/>
<path d="M140.258 7.32104C139.204 8.36681 137.848 10.0101 136.341 11.6535C138.45 9.26318 140.108 7.47044 140.108 7.47044L140.258 7.32104Z" fill="url(#paint11_linear)"/>
<path d="M126.85 28.5349V29.1325C126.85 29.4313 127.001 29.7301 127.001 29.8795L126.549 30.6265C126.097 30.7759 125.645 31.2241 125.193 32.1204C124.741 33.0168 124.741 33.3156 124.741 34.0626V36.0047C124.741 36.3035 124.891 36.6023 124.891 36.7517C124.891 36.7517 124.891 36.7517 124.891 36.9011C124.741 37.3492 124.59 37.648 124.59 37.7974C124.59 37.9468 124.59 38.0962 124.439 38.2456C124.138 38.8432 123.686 39.4408 123.686 39.5902L122.029 41.6817L123.385 42.1299C123.536 42.1299 123.686 42.2793 123.837 42.2793C123.988 42.2793 124.138 42.2793 124.439 42.2793L123.084 41.8311L124.741 39.7396C124.741 39.7396 125.193 39.142 125.494 38.395C125.645 38.0962 125.645 38.0962 125.645 37.9468C125.645 37.7974 125.795 37.4986 125.946 37.0504C125.946 37.0504 125.946 37.0504 125.946 36.9011C125.946 36.7517 125.795 36.4529 125.795 36.1541V34.2119C125.795 33.6144 125.795 33.3156 126.247 32.2698C126.549 31.3734 127.151 31.0747 127.603 30.7759L128.055 30.0289C127.904 29.8795 127.904 29.5807 127.904 29.2819V28.0868C127.452 28.0868 127.001 28.3856 126.85 28.5349Z" fill="url(#paint12_linear)"/>
<path d="M117.511 31.0748L116.305 32.1206L120.072 33.3157V33.017L117.209 32.1206L118.415 31.0748C119.017 30.4772 120.222 29.5809 120.825 29.2821C120.976 29.1327 121.126 28.8339 121.126 28.3857L119.77 25.2484L118.716 24.9496L120.222 28.5351C120.222 28.9833 120.072 29.2821 119.921 29.4315C119.318 29.5809 118.113 30.4772 117.511 31.0748Z" fill="url(#paint13_linear)"/>
<path d="M121.125 24.3521C121.276 24.3521 121.427 24.3521 121.577 24.3521C120.221 24.2027 118.866 23.7545 117.962 23.1569V23.6051C118.866 24.0533 119.92 24.3521 121.125 24.3521Z" fill="url(#paint14_linear)"/>
<path d="M126.248 22.7087C125.946 23.0075 125.645 23.1569 125.344 23.4557C123.988 24.9496 122.933 25.3978 122.331 25.6966L122.783 25.846C123.084 25.846 125.042 25.5472 127.905 21.8123C129.411 20.0196 131.52 17.4799 133.629 14.9402C130.767 18.0775 127.754 21.2148 126.248 22.7087Z" fill="url(#paint15_linear)"/>
<path d="M110.128 30.4772L110.881 28.9832L109.375 30.4772H110.128Z" fill="url(#paint16_linear)"/>
<path d="M208.353 39.5903C205.641 38.5446 204.586 37.6482 201.724 35.1085C201.121 34.6603 200.669 34.0627 199.916 33.4651C199.464 33.017 198.862 32.7182 198.41 32.27L199.615 33.4651L199.163 33.6145C199.766 34.2121 200.368 34.6603 200.82 35.1085C203.532 37.6482 204.586 38.5446 207.449 39.5903C209.709 40.4867 212.27 41.9806 213.776 43.1758H214.68C213.023 42.13 210.462 40.4867 208.353 39.5903Z" fill="url(#paint17_linear)"/>
<path d="M145.38 10.6078L145.832 10.1596L141.463 5.97659C141.313 6.12599 141.162 6.27538 141.011 6.42478L145.38 10.6078Z" fill="url(#paint18_linear)"/>
<path d="M104.403 34.3615L104.855 33.9133L102.897 32.27C102.746 32.4194 102.595 32.4194 102.294 32.5688L104.403 34.3615Z" fill="url(#paint19_linear)"/>
<path d="M146.285 10.4584L145.682 11.2054V13.5957L146.887 13.7451C146.887 13.8945 146.737 13.8945 146.737 13.8945C146.435 14.0439 146.134 14.3427 145.833 14.4921C145.381 14.7909 145.08 14.9403 144.778 15.0897C144.025 15.2391 143.272 15.8366 142.97 16.1354C142.217 16.2848 141.313 17.0318 141.313 18.3764C141.313 18.6751 141.163 18.8245 141.012 19.1233C140.711 19.5715 140.259 20.1691 140.259 21.3642C140.259 22.2606 139.505 22.7088 139.505 22.7088H139.355C139.204 22.7088 138.451 23.3064 138.451 24.6509C138.451 25.0991 138.602 25.5473 138.602 25.8461C138.602 25.9955 138.752 26.1449 138.752 26.2943L138.451 26.5931C137.999 26.8919 136.794 27.9376 136.191 28.5352C135.438 29.2822 134.986 30.0291 134.986 30.1785L134.685 30.7761L135.137 31.2243C135.287 31.3737 135.89 31.8219 136.643 31.8219C136.794 31.8219 136.944 31.8219 137.095 31.8219C136.492 31.6725 136.191 31.3737 136.04 31.2243L135.588 30.7761L135.89 30.1785C135.89 30.0291 136.342 29.2822 137.095 28.5352C137.698 27.9376 139.053 26.8919 139.355 26.5931L139.656 26.2943C139.656 26.1449 139.656 25.9955 139.505 25.8461C139.355 25.5473 139.355 25.0991 139.355 24.6509C139.355 23.3064 140.259 22.7088 140.259 22.7088H140.409C140.409 22.7088 141.163 22.41 141.163 21.3642C141.163 20.1691 141.615 19.5715 141.916 19.1233C142.217 18.8245 142.217 18.6751 142.217 18.3764C142.217 17.0318 143.272 16.2848 143.874 16.1354C144.176 15.8366 144.929 15.2391 145.682 15.0897C145.983 14.9403 146.285 14.7909 146.737 14.4921C147.038 14.3427 147.339 14.1933 147.641 13.8945C147.791 13.8945 147.791 13.7451 147.791 13.7451L146.586 13.5957V11.2054L155.926 1.34535L155.776 1.19595L146.285 10.4584Z" fill="url(#paint20_linear)"/>
<path d="M180.332 22.4099C182.291 24.0533 185.454 26.8918 187.714 29.8797L188.016 30.3278H188.468H188.618C188.618 30.3278 188.769 30.3278 188.919 30.3278L188.618 29.8797C185.906 26.1448 181.688 22.7087 180.031 21.5135L180.182 21.8123C180.182 21.8123 180.182 22.1111 180.332 22.4099Z" fill="url(#paint21_linear)"/>
<path d="M192.535 30.6266H193.439C191.631 30.1784 189.974 30.1784 189.522 30.1784C189.371 30.1784 189.371 30.1784 189.371 30.1784H189.07C189.823 30.3278 191.179 30.3278 192.535 30.6266Z" fill="url(#paint22_linear)"/>
<path d="M195.548 34.3616C195.698 34.3616 195.849 34.3616 195.849 34.3616C195.849 34.2122 195.698 34.2122 195.548 34.3616C195.397 34.3616 195.246 34.3616 195.246 34.2122H195.096C195.246 34.3616 195.397 34.3616 195.548 34.3616Z" fill="url(#paint23_linear)"/>
<path d="M144.326 34.2122C144.175 34.2122 144.024 34.3616 143.723 34.3616H143.573L145.23 35.4073L145.531 34.9591L144.326 34.2122Z" fill="url(#paint24_linear)"/>
<path d="M174.306 23.3063C174.155 23.4557 174.005 23.4557 173.854 23.6051C173.251 24.2027 172.799 24.5015 171.293 24.6509C170.841 24.6509 170.54 24.8002 170.389 24.8002C170.54 24.8002 170.54 24.8002 170.69 24.9496C170.841 24.9496 170.841 24.9496 170.992 24.9496C171.293 24.8002 171.745 24.8002 172.347 24.6509C173.703 24.5015 174.155 24.2027 174.908 23.6051C175.059 23.4557 175.21 23.4557 175.36 23.3063C175.662 23.0075 176.114 22.7087 176.566 22.5593C176.114 22.7087 175.662 22.7087 175.21 22.7087C174.908 22.8581 174.607 23.0075 174.306 23.3063Z" fill="url(#paint25_linear)"/>
<path d="M156.679 3.43678L173.251 22.7087H173.703C173.854 22.7087 174.004 22.7087 174.155 22.7087L156.529 2.09222L156.679 2.8392C156.679 2.8392 156.679 3.13799 156.679 3.43678Z" fill="url(#paint26_linear)"/>
<path d="M12.2041 91.5796C12.5054 116.827 64.3297 132.514 128.055 126.687C191.781 120.861 243.003 95.6133 242.702 70.3656C242.4 45.1179 190.425 29.4314 126.85 35.2578C63.2751 41.0842 11.7522 66.3319 12.2041 91.5796Z" fill="#BF0D0E"/>
<path opacity="0.5" d="M54.2364 97.8542C50.922 107.117 43.0881 109.955 37.6647 110.553C31.7892 111.3 25.0099 109.059 25.4619 96.3603C25.9138 82.9148 30.4334 65.1368 45.7999 63.3441C51.2233 62.7465 55.7429 64.3898 55.5923 70.3656C55.4416 73.6523 54.387 76.192 51.374 76.4908C50.4701 76.6402 49.1142 76.4908 48.0597 75.2956C49.5662 74.6981 50.7714 71.5608 50.7714 69.9174C50.7714 68.8717 50.6207 65.585 46.8544 66.0332C39.9245 67.0789 34.9529 83.2136 34.6516 94.1194C34.3503 102.187 35.7062 105.473 42.0336 104.726C46.5531 104.129 50.7714 101.738 53.0312 97.5554L54.2364 97.8542Z" fill="black"/>
<path opacity="0.5" d="M66.7405 76.192L65.9873 79.3293C68.0964 77.3871 70.5068 75.7438 72.9173 75.445C75.4784 75.1462 76.9849 76.4908 76.9849 78.8811C76.9849 80.9726 75.3277 83.8111 72.4653 84.1099C69.151 84.5581 70.9588 80.2256 69.151 80.5244C67.3432 80.6738 66.4392 81.5702 65.0834 82.9147L59.5092 107.565L51.2234 108.611L58.304 77.2377L66.7405 76.192Z" fill="black"/>
<path opacity="0.5" d="M73.9717 96.2108C74.1224 88.4423 77.738 74.3992 88.2836 73.0546C93.1045 72.4571 95.6656 74.2498 95.5149 78.5822C95.3643 86.052 87.5304 91.2808 82.1069 92.6253C81.9563 93.6711 81.8056 94.5675 81.8056 95.3145C81.655 99.3481 83.6134 100.394 85.8732 100.095C88.5849 99.7963 90.9954 97.8542 93.4058 95.3145C93.2552 101.888 88.133 104.278 82.2576 104.876C76.6835 105.623 73.8211 101.589 73.9717 96.2108ZM89.9408 76.1919C86.6265 76.6401 83.7641 83.8111 82.4082 89.7868C87.681 89.0399 91.598 83.8111 91.8993 79.4786C92.0499 78.1341 91.7486 76.0425 89.9408 76.1919Z" fill="black"/>
<path opacity="0.5" d="M124.139 99.9457L130.767 70.2161L118.866 100.543L110.881 101.44L111.635 75.2956L103.198 102.336L98.5279 102.934L112.689 59.1609C106.814 61.85 103.198 67.0789 102.897 74.1004C102.746 77.2377 103.499 77.6859 103.65 78.1341C99.5825 78.5823 97.4733 77.3871 97.624 72.9053C97.7747 65.4355 107.868 56.0237 116.907 54.9779C118.263 54.8285 119.619 54.8285 120.824 55.1273L119.77 90.5338L133.479 53.6333L142.518 52.5876L132.123 98.8999L124.139 99.9457Z" fill="black"/>
<path opacity="0.5" d="M162.103 73.3534C162.405 73.6522 163.007 73.8016 163.76 73.6522C166.472 73.3534 167.828 71.1125 169.937 69.9174L170.088 71.1125C168.28 73.6522 165.116 76.0426 161.802 77.5365C160.295 89.9363 153.817 96.8084 148.093 97.5554C141.916 98.3024 139.355 95.9121 139.506 88.5917C139.957 73.5028 147.339 66.1825 155.324 65.1367C160.898 64.3898 162.103 68.8716 162.103 73.3534ZM157.433 78.7317C155.776 78.8811 155.023 77.6859 155.023 76.1919C155.023 74.3992 156.077 72.4571 157.734 71.5607C157.584 69.6186 156.981 68.4234 155.324 68.7222C149.901 69.3198 147.189 82.1677 147.038 87.0978C146.887 90.8326 148.545 91.5796 150.804 91.2808C154.42 90.8326 156.68 84.7074 157.433 78.7317Z" fill="black"/>
<path opacity="0.5" d="M188.015 82.6159C187.864 83.3629 187.714 83.9605 187.714 84.558C187.714 85.9026 188.316 86.799 190.576 86.5002C192.836 86.2014 193.891 84.2592 196.15 82.0183L198.109 81.7195C195.397 84.8568 190.727 92.0278 186.207 92.476C181.688 93.0735 179.127 91.2808 179.277 86.6496C179.277 85.6038 179.428 84.7074 179.729 83.5123L182.29 72.1583C182.441 71.5607 182.441 70.9631 182.441 70.5149C182.441 68.274 181.386 67.0788 179.88 67.2282C178.524 67.3776 177.469 67.9752 176.264 69.021L170.69 94.4181L162.404 95.4639L169.485 64.091L177.771 63.0452L177.018 66.4813C179.428 64.3897 182.14 62.597 184.701 62.2982C187.864 61.9994 191.329 65.1367 191.179 69.1704C191.179 69.6186 191.179 70.2161 191.028 70.6643L188.015 82.6159Z" fill="black"/>
<path opacity="0.5" d="M209.71 49.5997C209.71 49.5997 208.655 53.9322 207.45 59.4598L210.915 59.0116L210.312 61.5513L206.847 61.9995C202.328 81.869 202.328 82.4666 202.328 82.7653C202.328 84.1099 202.78 85.0063 205.19 84.7075C207.45 84.4087 210.613 80.6738 213.024 78.4329L214.982 78.1341C212.271 81.2714 205.491 90.2351 200.972 90.6833C196.452 91.2808 193.891 89.4881 194.042 84.8569C194.192 81.5702 197.507 68.2741 198.712 62.8958L196.753 63.1946L197.356 60.6549L199.315 60.3561L201.273 51.6912L209.71 49.5997Z" fill="black"/>
<path opacity="0.5" d="M212.12 79.7774C212.271 72.0088 215.886 57.9657 226.432 56.6212C231.253 56.0236 233.814 57.8163 233.663 62.1488C233.513 69.6185 225.679 74.8473 220.255 76.1919C220.104 77.2377 219.954 78.134 219.954 78.881C219.803 82.9147 221.762 83.9604 224.021 83.6616C226.733 83.3628 229.144 81.4207 231.554 78.881C231.403 85.4544 226.281 87.8447 220.406 88.4423C214.832 89.1892 211.969 85.1556 212.12 79.7774ZM228.24 59.7585C224.925 60.2067 222.063 67.3776 220.707 73.3534C225.98 72.6064 229.897 67.3776 230.198 63.0452C230.198 61.7006 229.897 59.4597 228.24 59.7585Z" fill="black"/>
<path d="M53.3318 97.1074C50.0175 106.37 42.1836 109.208 36.7601 109.806C30.8847 110.553 24.1054 108.312 24.5573 95.6135C25.0093 82.1679 29.5288 64.3899 44.8953 62.5972C50.3188 61.9996 54.8384 63.643 54.6877 69.6188C54.5371 72.9054 53.4825 75.4452 50.4695 75.7439C49.5655 75.8933 48.2097 75.7439 47.1551 74.5488C48.6616 73.9512 49.8668 70.8139 49.8668 69.1706C49.8668 68.1248 49.7162 64.8381 45.9499 65.2863C38.8693 66.1827 33.7471 82.3173 33.4458 93.2231C33.1445 101.29 34.5004 104.577 40.8277 103.83C45.3473 103.233 49.5655 100.842 51.8253 96.6592L53.3318 97.1074Z" fill="white"/>
<path d="M65.8362 75.4451L65.083 78.5824C67.1921 76.6403 69.6025 74.997 72.013 74.6982C74.574 74.3994 76.0806 75.7439 76.0806 78.1343C76.0806 80.2258 74.4234 83.0643 71.561 83.3631C68.2467 83.8113 70.0545 79.4788 68.2467 79.7776C66.4388 79.927 65.5349 80.8234 64.1791 82.1679L58.6049 106.818L50.3191 107.864L57.3997 76.4909L65.8362 75.4451Z" fill="white"/>
<path d="M73.0672 95.4639C73.2178 87.6954 76.8335 73.6523 87.3791 72.3077C92.2 71.7102 94.761 73.5029 94.6104 77.8353C94.4597 85.3051 86.6258 90.5339 81.2024 91.8785C81.0517 92.9242 80.9011 93.8206 80.9011 94.5676C80.7504 98.6012 82.7089 99.647 84.9687 99.3482C87.6804 99.0494 90.0908 97.1073 92.5013 94.5676C92.3506 101.141 87.2285 103.531 81.353 104.129C75.7789 104.876 72.9165 100.693 73.0672 95.4639ZM89.1869 75.2956C85.8726 75.7438 83.0102 82.9148 81.6543 88.8906C86.9272 88.1436 90.8441 82.9148 91.1454 78.5823C91.1454 77.2378 90.9948 75.1462 89.1869 75.2956Z" fill="white"/>
<path d="M123.385 99.1988L130.014 69.4692L118.112 99.7964L110.128 100.693L110.881 74.5486L102.444 101.589L97.9249 102.187L112.086 58.414C106.211 61.1031 102.595 66.3319 102.294 73.3535C102.143 76.4908 102.896 76.939 103.047 77.3871C98.9794 77.8353 96.8703 76.6402 97.021 72.1583C97.1716 64.6886 107.265 55.2767 116.304 54.2309C117.66 54.0815 119.016 54.0815 120.221 54.3803L119.167 89.7869L132.876 52.8864L141.915 51.8406L131.52 98.153L123.385 99.1988Z" fill="white"/>
<path d="M161.199 72.4572C161.5 72.756 162.103 72.9054 162.856 72.756C165.568 72.4572 166.924 70.2163 169.033 69.0211L169.183 70.2163C167.376 72.756 164.212 75.1463 160.897 76.6403C159.391 89.04 152.913 95.9122 147.188 96.6592C141.011 97.4062 138.45 95.0158 138.601 87.6955C139.053 72.6066 146.435 65.2863 154.419 64.2405C159.994 63.6429 161.199 67.9754 161.199 72.4572ZM156.679 77.8354C155.022 77.9848 154.269 76.7897 154.269 75.2957C154.269 73.503 155.323 71.5609 156.981 70.6645C156.83 68.7224 156.227 67.5272 154.57 67.826C149.147 68.4236 146.435 81.2715 146.284 86.2015C146.134 89.9364 147.791 90.6834 150.051 90.3846C153.666 90.0858 155.775 83.9606 156.679 77.8354Z" fill="white"/>
<path d="M187.111 81.8691C186.961 82.616 186.81 83.2136 186.81 83.8112C186.81 85.1558 187.413 86.0521 189.672 85.7533C191.932 85.4545 192.987 83.5124 195.247 81.2715L197.205 80.9727C194.493 84.11 189.823 91.2809 185.304 91.7291C180.784 92.3267 178.223 90.534 178.374 85.9027C178.374 84.857 178.524 83.9606 178.825 82.7654L181.387 71.4114C181.537 70.8138 181.537 70.2163 181.537 69.7681C181.537 67.5272 180.483 66.332 178.976 66.4814C177.62 66.6308 176.566 67.2284 175.36 68.2741L169.786 93.6713L161.5 94.717L168.581 63.3441L176.867 62.2983L176.114 65.7344C178.524 63.6429 181.236 61.8502 183.797 61.5514C186.961 61.2526 190.426 64.3899 190.275 68.4235C190.275 68.8717 190.275 69.4693 190.124 69.9175L187.111 81.8691Z" fill="white"/>
<path d="M208.804 48.7035C208.804 48.7035 207.75 53.0359 206.545 58.5635L210.01 58.1153L209.407 60.6551L205.942 61.1032C201.423 80.9727 201.423 81.5703 201.423 81.8691C201.423 83.2137 201.874 84.11 204.285 83.8113C206.545 83.5125 209.708 79.7776 212.119 77.5367L214.077 77.2379C211.366 80.3752 204.586 89.3389 200.067 89.787C195.547 90.3846 192.986 88.5919 193.137 83.9606C193.287 80.674 196.602 67.3778 197.807 61.9996L195.848 62.2984L196.451 59.7587L198.409 59.4599L200.368 50.795L208.804 48.7035Z" fill="white"/>
<path d="M211.215 79.0306C211.366 71.2621 214.982 57.219 225.527 55.8744C230.348 55.2768 232.909 57.0696 232.759 61.402C232.608 68.8718 224.774 74.1006 219.351 75.4451C219.2 76.4909 219.049 77.3873 219.049 78.1342C218.899 82.1679 220.857 83.2136 223.117 82.9149C225.829 82.6161 228.239 80.6739 230.649 78.1342C230.499 84.7076 225.377 87.0979 219.501 87.6955C214.078 88.4425 211.065 84.2594 211.215 79.0306ZM227.335 58.8623C224.021 59.3105 221.158 66.4814 219.803 72.4572C225.075 71.7103 228.992 66.4814 229.294 62.149C229.294 60.8044 229.143 58.7129 227.335 58.8623Z" fill="white"/>
<path d="M45.0466 64.838C42.6362 65.1368 39.0205 67.2283 35.8569 75.445C33.7477 80.8233 32.2412 87.6954 32.0906 93.3724C31.9399 98.7506 32.5425 101.589 34.049 103.083C35.1036 104.129 36.4595 104.577 38.4179 104.577C38.5686 104.577 38.8699 104.577 39.0205 104.577C37.3634 104.428 36.1582 103.979 35.2543 103.083C33.7477 101.44 33.1451 98.6012 33.2958 93.3724C33.4464 87.6954 34.953 80.8233 37.0621 75.445C40.3764 67.2283 43.8414 65.1368 46.2518 64.838H46.4025C46.2518 64.838 46.1012 64.838 45.7999 64.838C45.4986 64.6886 45.1973 64.6886 45.0466 64.838Z" fill="#D29357"/>
<path d="M52.73 64.9875C51.5248 63.7923 49.5663 63.0453 47.0052 63.0453C46.8545 63.0453 46.5532 63.0453 46.4026 63.0453C48.6624 63.1947 50.4702 63.7923 51.5248 64.9875C52.5793 66.0332 53.1819 67.6766 53.0313 69.6187C52.8806 72.9054 51.6754 74.8475 49.4156 75.1463C49.5663 75.1463 49.7169 75.1463 50.0182 75.1463C50.1689 75.1463 50.3195 75.1463 50.4702 75.1463C52.8806 74.8475 54.0858 73.0548 54.2365 69.6187C54.3871 67.6766 53.7845 66.0332 52.73 64.9875Z" fill="#D29357"/>
<path d="M50.3189 100.095C46.402 106.967 39.6227 108.76 35.7057 109.358C35.2537 109.358 34.9524 109.358 34.5005 109.507C34.6511 109.507 34.8018 109.507 34.9524 109.507C35.5551 109.507 36.1577 109.507 36.7603 109.358C41.2798 108.76 49.1137 106.519 52.5787 97.5556L52.2774 97.4062C51.8255 98.3025 51.0722 99.1989 50.3189 100.095Z" fill="#D29357"/>
<path d="M62.9736 80.2256L64.3295 78.8811C64.3295 78.8811 64.3295 78.8811 64.4802 78.8811L65.0828 76.0426L63.8776 76.192L62.9736 80.2256Z" fill="#D29357"/>
<path d="M67.3426 79.1798H67.192C65.2335 79.4786 64.0283 80.375 62.8231 81.8689L62.6724 82.0183L57.249 106.37L51.2229 106.967V107.117L58.3035 106.22L63.8776 82.0183L64.0283 81.8689C65.2335 80.6738 66.2881 79.628 67.9452 79.3292C67.7946 79.1798 67.4933 79.1798 67.3426 79.1798Z" fill="#D29357"/>
<path d="M74.875 76.0426C74.423 75.5944 73.6698 75.2956 72.7658 75.2956C72.6152 75.2956 72.3139 75.2956 72.1632 75.2956C72.7659 75.445 73.3685 75.5944 73.6698 76.0426C74.1217 76.4908 74.423 77.2377 74.423 78.1341C74.423 79.7774 73.2178 82.3171 70.8074 82.7653C70.958 82.7653 71.1087 82.9147 71.2593 82.9147C71.41 82.9147 71.41 82.9147 71.5606 82.9147C74.1217 82.6159 75.4776 79.9268 75.4776 78.1341C75.6282 77.2377 75.3269 76.4908 74.875 76.0426Z" fill="#D29357"/>
<path d="M91.748 74.1006C92.5013 74.997 92.9532 76.1921 92.9532 77.8355C92.8026 85.0064 85.27 90.0858 79.9972 91.4304L79.5452 91.5798V92.0279C79.3945 93.0737 79.2439 93.9701 79.2439 94.717C79.2439 96.6592 79.5452 98.1531 80.4491 99.0495C81.0517 99.7965 81.9556 100.095 83.1608 100.095C83.3115 100.095 83.6128 100.095 83.7635 100.095C82.8595 99.9459 82.2569 99.6471 81.6543 99.0495C80.7504 98.1531 80.2985 96.6592 80.4491 94.717C80.4491 93.9701 80.5998 92.9243 80.7504 92.0279V91.5798L81.2024 91.4304C86.4752 90.0858 94.0078 85.0064 94.1584 77.8355C94.1584 76.1921 93.8571 74.8476 92.9532 74.1006C92.2 73.2042 90.8441 72.756 89.0363 72.756C88.8856 72.756 88.735 72.756 88.4337 72.756C89.9402 72.9054 90.9947 73.3536 91.748 74.1006Z" fill="#D29357"/>
<path d="M87.9816 74.8475C84.366 75.2957 81.5036 82.6161 79.9971 88.8906L79.8464 89.6376L80.7503 89.4882C80.901 89.4882 81.0516 89.4882 81.0516 89.4882L81.2023 88.8906C82.5582 82.9148 85.4206 75.7439 88.8856 74.9969C88.7349 74.9969 88.5842 74.8475 88.2829 74.8475C88.1323 74.6981 88.1323 74.6981 87.9816 74.8475Z" fill="#D29357"/>
<path d="M80.1475 103.531C79.9969 103.531 79.8462 103.531 79.6956 103.531C79.8462 103.681 79.9969 103.681 80.1475 103.531C80.5995 103.531 80.9008 103.531 81.3527 103.531C87.5295 102.784 90.9944 100.394 91.7477 96.0616C91.2958 96.5098 90.6931 96.958 90.2412 97.4062C89.036 100.992 85.7216 102.934 80.1475 103.531Z" fill="#D29357"/>
<path d="M140.107 52.7371L130.014 97.7049L124.138 98.3024V98.4518L131.219 97.7049L141.313 52.5877L140.107 52.7371Z" fill="#D29357"/>
<path d="M110.73 57.9657C104.554 60.8042 100.938 66.4812 100.637 73.5028C100.637 75.5943 100.938 76.4907 101.089 77.0883C101.239 77.0883 101.39 77.0883 101.691 77.0883C101.842 77.0883 102.143 77.0883 102.294 77.0883C101.993 76.4907 101.842 75.5943 101.842 73.5028C101.993 66.4812 105.608 60.9536 111.785 58.1151L111.936 57.5175L110.73 57.9657Z" fill="#D29357"/>
<path d="M118.564 54.9778L117.51 89.9362L118.715 90.0856L118.865 89.9362L119.92 55.1272C119.317 54.9778 118.865 54.9778 118.112 54.9778C117.961 54.9778 117.66 54.9778 117.51 54.9778C117.66 54.9778 118.112 54.9778 118.564 54.9778Z" fill="#D29357"/>
<path d="M109.224 74.3992L100.938 101.141L98.8286 101.44L98.678 101.589L102.143 101.141L110.278 74.5486L109.224 74.3992Z" fill="#D29357"/>
<path d="M128.206 69.3197L116.606 99.1987L110.73 99.9457V100.095L117.66 99.1987L129.261 69.6185L128.206 69.3197Z" fill="#D29357"/>
<path d="M157.733 66.0332C158.938 67.2284 159.541 69.4693 159.541 72.4572V72.756L159.691 72.9054C160.143 73.2042 160.595 73.5029 161.198 73.5029C161.348 73.5029 161.499 73.5029 161.8 73.5029C161.348 73.5029 161.047 73.2042 160.746 73.0548L160.595 72.9054V72.6066C160.595 69.4693 159.993 67.3778 158.787 66.1826C158.034 65.4356 156.829 64.9874 155.473 64.9874C155.322 64.9874 155.021 64.9874 154.87 64.9874C156.076 64.9874 156.979 65.2862 157.733 66.0332Z" fill="#D29357"/>
<path d="M155.776 77.2377C155.926 77.2377 155.926 77.2377 156.077 77.2377V77.0883L155.776 77.2377Z" fill="#D29357"/>
<path d="M168.581 70.0667C168.129 70.3655 167.677 70.8137 167.225 71.1125C166.622 71.7101 165.869 72.1583 165.116 72.6065C163.458 74.1004 161.5 75.2956 159.391 76.1919L159.09 76.3413V76.6401C157.583 89.0399 151.256 95.4638 145.832 96.0614C145.38 96.0614 144.928 96.2108 144.476 96.2108C144.627 96.2108 144.928 96.2108 145.079 96.2108C145.682 96.2108 146.284 96.2108 147.037 96.0614C152.461 95.4638 158.788 89.0399 160.295 76.6401V76.3413L160.596 76.1919C163.76 74.8474 166.622 72.6064 168.581 70.2161V70.0667Z" fill="#D29357"/>
<path d="M148.243 91.1316C148.393 91.1316 148.695 91.1316 148.845 91.1316C148.092 90.9822 147.339 90.6834 146.887 90.2352C146.133 89.4882 145.682 88.1437 145.832 86.351C145.983 82.4667 148.243 68.4236 154.419 67.5272C154.269 67.5272 154.118 67.5272 153.817 67.5272C153.666 67.5272 153.515 67.5272 153.365 67.5272C147.037 68.2742 144.627 82.4667 144.627 86.5003C144.627 88.2931 144.928 89.6376 145.682 90.3846C146.284 90.6834 147.188 91.1316 148.243 91.1316Z" fill="#D29357"/>
<path d="M186.509 63.6429C187.714 64.8381 188.317 66.6308 188.317 68.2742C188.317 68.7224 188.317 69.1705 188.166 69.6187L185.454 81.5703C185.304 82.3173 185.153 83.0643 185.153 83.6618C185.153 84.5582 185.304 85.1558 185.756 85.604C186.208 86.0522 186.81 86.3509 187.865 86.3509C188.015 86.3509 188.317 86.3509 188.467 86.3509C187.865 86.2015 187.262 86.0521 186.961 85.7534C186.509 85.3052 186.358 84.7076 186.358 83.8112C186.358 83.2136 186.509 82.4667 186.66 81.7197L189.371 69.7681C189.522 69.3199 189.522 68.8718 189.522 68.4236C189.522 66.6308 188.919 64.9875 187.714 63.7923C186.66 62.7466 185.454 62.149 184.249 62.149C184.098 62.149 183.948 62.149 183.797 62.149H183.646C184.55 62.149 185.605 62.7466 186.509 63.6429Z" fill="#D29357"/>
<path d="M173.854 67.2285L175.21 66.0334C175.21 66.0334 175.21 66.0334 175.361 66.0334L176.114 62.8961L174.909 63.0454L173.854 67.2285Z" fill="#D29357"/>
<path d="M195.548 81.7197C194.945 82.3173 194.342 82.9149 193.89 83.5125C193.137 84.4088 192.384 85.1558 191.48 85.7534C189.22 88.4425 186.659 90.9822 184.098 91.281C183.797 91.281 183.495 91.281 183.194 91.281C183.345 91.281 183.646 91.281 183.797 91.281C184.249 91.281 184.701 91.281 185.153 91.1316C188.467 90.6834 192.083 86.2016 194.794 82.9149C195.096 82.4667 195.397 82.0185 195.698 81.7197H195.548Z" fill="#D29357"/>
<path d="M178.223 66.0332C178.072 66.0332 177.921 66.0332 177.921 66.0332C177.168 66.1826 176.565 66.332 175.812 66.6308L175.059 67.3778V67.079C174.607 67.3778 174.306 67.5272 173.854 67.9754L173.703 68.1248L168.129 93.2231L162.253 93.9701V94.1195L169.334 93.2231L174.908 68.1248L175.059 67.9754C176.415 66.9296 177.469 66.332 178.825 66.1826C178.524 66.0333 178.373 66.0332 178.223 66.0332Z" fill="#D29357"/>
<path d="M207.901 60.2067L204.436 60.6548L204.286 61.103C199.766 80.8231 199.766 81.5701 199.766 82.0183C199.766 82.6158 199.766 83.3628 200.369 83.9604C200.821 84.4086 201.423 84.7074 202.327 84.7074C202.478 84.7074 202.779 84.7074 202.93 84.7074C202.327 84.7074 201.875 84.4086 201.423 84.1098C200.821 83.5122 200.821 82.7652 200.821 82.1677C200.821 81.8689 200.821 80.9725 205.34 61.2524L205.491 60.8042L208.956 60.356L209.257 59.0115L208.052 59.1609L207.901 60.2067Z" fill="#D29357"/>
<path d="M196.603 61.7007H197.205L197.356 61.5513H196.603V61.7007Z" fill="#D29357"/>
<path d="M212.421 78.2834C211.969 78.7316 211.366 79.3292 210.914 79.9268C209.709 81.1219 208.504 82.3171 207.449 83.2134C204.587 86.2013 201.423 89.3386 199.013 89.6374C198.711 89.6374 198.41 89.6374 198.26 89.6374C198.41 89.6374 198.711 89.6374 198.862 89.6374C199.314 89.6374 199.766 89.6374 200.218 89.488C203.834 89.0398 209.408 82.3171 212.421 78.7316C212.571 78.5822 212.722 78.2834 212.873 78.134L212.421 78.2834Z" fill="#D29357"/>
<path d="M204.888 58.5634L204.737 59.3103L205.942 59.1609L206.093 58.5634C206.997 54.5297 207.75 51.0936 208.202 49.5997L206.997 49.8985C206.394 51.5418 205.641 54.8285 204.888 58.5634Z" fill="#D29357"/>
<path d="M229.896 57.6671C230.649 58.5634 231.101 59.7586 231.101 61.4019C230.951 68.5729 223.418 73.6523 218.145 74.9968L217.693 75.1462V75.5944C217.543 76.6402 217.392 77.5366 217.392 78.2835C217.392 80.2257 217.693 81.7196 218.597 82.616C219.2 83.3629 220.104 83.6617 221.309 83.6617C221.46 83.6617 221.761 83.6617 221.912 83.6617C221.008 83.5123 220.405 83.2136 219.803 82.616C218.899 81.7196 218.447 80.2257 218.597 78.2835C218.597 77.5366 218.748 76.4908 218.899 75.5944V75.1462L219.351 74.9968C224.623 73.6523 232.156 68.5729 232.307 61.4019C232.307 59.7586 232.005 58.414 231.101 57.6671C230.348 56.7707 228.992 56.3225 227.184 56.3225C227.034 56.3225 226.883 56.3225 226.582 56.3225C228.088 56.4719 229.143 56.9201 229.896 57.6671Z" fill="#D29357"/>
<path d="M226.13 58.4141C222.515 58.8623 219.652 66.1827 218.146 72.4572L217.995 73.2042L218.899 73.0548C219.05 73.0548 219.2 73.0548 219.2 73.0548L219.351 72.4572C220.707 66.4814 223.569 59.3105 227.034 58.5635C226.884 58.5635 226.733 58.4141 226.432 58.4141C226.432 58.2647 226.281 58.2647 226.13 58.4141Z" fill="#D29357"/>
<path d="M218.296 87.0979C218.145 87.0979 217.994 87.0979 217.844 87.0979C217.994 87.2473 218.296 87.2473 218.296 87.0979C218.748 87.0979 219.049 87.0979 219.501 87.0979C225.678 86.3509 229.143 83.9606 229.896 79.6281C229.444 80.0763 228.841 80.5245 228.389 80.9727C227.184 84.5581 223.87 86.5003 218.296 87.0979Z" fill="#D29357"/>
<defs>
<linearGradient id="paint0_linear" x1="0.00119645" y1="80.6039" x2="254.447" y2="80.6039" gradientUnits="userSpaceOnUse">
<stop offset="0.005618" stop-color="#95691E"/>
<stop offset="0.3258" stop-color="#FFEF98"/>
<stop offset="0.5225" stop-color="#FDF5D7"/>
<stop offset="0.7079" stop-color="#FAE795"/>
<stop offset="1" stop-color="#95691E"/>
</linearGradient>
<radialGradient id="paint1_radial" cx="0" cy="0" r="1" gradientUnits="userSpaceOnUse" gradientTransform="translate(151.419 22.0247) scale(48.8054 48.3981)">
<stop offset="0.00354751" stop-color="#A03903"/>
<stop offset="1" stop-color="#6E0E00"/>
</radialGradient>
<linearGradient id="paint2_linear" x1="162.909" y1="-35.3213" x2="159.701" y2="53.9451" gradientUnits="userSpaceOnUse">
<stop stop-color="white"/>
<stop offset="1" stop-color="#A87846"/>
</linearGradient>
<linearGradient id="paint3_linear" x1="164.527" y1="-35.2631" x2="161.319" y2="54.0032" gradientUnits="userSpaceOnUse">
<stop stop-color="white"/>
<stop offset="1" stop-color="#A87846"/>
</linearGradient>
<linearGradient id="paint4_linear" x1="189.027" y1="-34.383" x2="185.819" y2="54.8835" gradientUnits="userSpaceOnUse">
<stop stop-color="white"/>
<stop offset="1" stop-color="#A87846"/>
</linearGradient>
<linearGradient id="paint5_linear" x1="167.876" y1="-35.1429" x2="164.669" y2="54.1233" gradientUnits="userSpaceOnUse">
<stop stop-color="white"/>
<stop offset="1" stop-color="#A87846"/>
</linearGradient>
<linearGradient id="paint6_linear" x1="158.031" y1="-35.4965" x2="154.824" y2="53.7698" gradientUnits="userSpaceOnUse">
<stop stop-color="white"/>
<stop offset="1" stop-color="#A87846"/>
</linearGradient>
<linearGradient id="paint7_linear" x1="166.155" y1="-35.2048" x2="162.947" y2="54.0616" gradientUnits="userSpaceOnUse">
<stop stop-color="white"/>
<stop offset="1" stop-color="#A87846"/>
</linearGradient>
<linearGradient id="paint8_linear" x1="142.122" y1="-36.0684" x2="138.914" y2="53.198" gradientUnits="userSpaceOnUse">
<stop stop-color="white"/>
<stop offset="1" stop-color="#A87846"/>
</linearGradient>
<linearGradient id="paint9_linear" x1="99.464" y1="-37.601" x2="96.2567" y2="51.6654" gradientUnits="userSpaceOnUse">
<stop stop-color="white"/>
<stop offset="1" stop-color="#A87846"/>
</linearGradient>
<linearGradient id="paint10_linear" x1="111.674" y1="-37.1621" x2="108.467" y2="52.1042" gradientUnits="userSpaceOnUse">
<stop stop-color="white"/>
<stop offset="1" stop-color="#A87846"/>
</linearGradient>
<linearGradient id="paint11_linear" x1="139.92" y1="-36.1473" x2="136.713" y2="53.119" gradientUnits="userSpaceOnUse">
<stop stop-color="white"/>
<stop offset="1" stop-color="#A87846"/>
</linearGradient>
<linearGradient id="paint12_linear" x1="127.604" y1="-36.59" x2="124.397" y2="52.6764" gradientUnits="userSpaceOnUse">
<stop stop-color="white"/>
<stop offset="1" stop-color="#A87846"/>
</linearGradient>
<linearGradient id="paint13_linear" x1="121.234" y1="-36.8186" x2="118.027" y2="52.4477" gradientUnits="userSpaceOnUse">
<stop stop-color="white"/>
<stop offset="1" stop-color="#A87846"/>
</linearGradient>
<linearGradient id="paint14_linear" x1="122.018" y1="-36.7906" x2="118.811" y2="52.476" gradientUnits="userSpaceOnUse">
<stop stop-color="white"/>
<stop offset="1" stop-color="#A87846"/>
</linearGradient>
<linearGradient id="paint15_linear" x1="129.99" y1="-36.504" x2="126.783" y2="52.7623" gradientUnits="userSpaceOnUse">
<stop stop-color="white"/>
<stop offset="1" stop-color="#A87846"/>
</linearGradient>
<linearGradient id="paint16_linear" x1="112.577" y1="-37.1297" x2="109.37" y2="52.1366" gradientUnits="userSpaceOnUse">
<stop stop-color="white"/>
<stop offset="1" stop-color="#A87846"/>
</linearGradient>
<linearGradient id="paint17_linear" x1="209.085" y1="-33.6622" x2="205.878" y2="55.6041" gradientUnits="userSpaceOnUse">
<stop stop-color="white"/>
<stop offset="1" stop-color="#A87846"/>
</linearGradient>
<linearGradient id="paint18_linear" x1="144.997" y1="-35.9648" x2="141.79" y2="53.3016" gradientUnits="userSpaceOnUse">
<stop stop-color="white"/>
<stop offset="1" stop-color="#A87846"/>
</linearGradient>
<linearGradient id="paint19_linear" x1="106.217" y1="-37.358" x2="103.01" y2="51.908" gradientUnits="userSpaceOnUse">
<stop stop-color="white"/>
<stop offset="1" stop-color="#A87846"/>
</linearGradient>
<linearGradient id="paint20_linear" x1="147.111" y1="-35.8889" x2="143.904" y2="53.3775" gradientUnits="userSpaceOnUse">
<stop stop-color="white"/>
<stop offset="1" stop-color="#A87846"/>
</linearGradient>
<linearGradient id="paint21_linear" x1="186.671" y1="-34.4677" x2="183.464" y2="54.7987" gradientUnits="userSpaceOnUse">
<stop stop-color="white"/>
<stop offset="1" stop-color="#A87846"/>
</linearGradient>
<linearGradient id="paint22_linear" x1="193.709" y1="-34.2139" x2="190.502" y2="55.0513" gradientUnits="userSpaceOnUse">
<stop stop-color="white"/>
<stop offset="1" stop-color="#A87846"/>
</linearGradient>
<linearGradient id="paint23_linear" x1="197.958" y1="-34.0652" x2="194.751" y2="55.2054" gradientUnits="userSpaceOnUse">
<stop stop-color="white"/>
<stop offset="1" stop-color="#A87846"/>
</linearGradient>
<linearGradient id="paint24_linear" x1="147.163" y1="-35.8878" x2="143.956" y2="53.3796" gradientUnits="userSpaceOnUse">
<stop stop-color="white"/>
<stop offset="1" stop-color="#A87846"/>
</linearGradient>
<linearGradient id="paint25_linear" x1="175.648" y1="-34.8636" x2="172.441" y2="54.4026" gradientUnits="userSpaceOnUse">
<stop stop-color="white"/>
<stop offset="1" stop-color="#A87846"/>
</linearGradient>
<linearGradient id="paint26_linear" x1="167.039" y1="-35.1729" x2="163.832" y2="54.0934" gradientUnits="userSpaceOnUse">
<stop stop-color="white"/>
<stop offset="1" stop-color="#A87846"/>
</linearGradient>
</defs>
</svg>
