<svg width="172" height="193" viewBox="0 0 172 193" fill="none" xmlns="http://www.w3.org/2000/svg">
<path d="M65.9217 7.90721C87 3.85199 117.318 31.3696 114.719 55.7009C114.431 73.0804 101.437 85.5357 90.7537 96.2531C73.429 110.446 43.1109 107.55 25.4975 90.4599C10.4828 68.7355 14.2365 39.1903 21.7438 14.5693C22.61 8.77615 54.0832 8.48653 65.9217 7.90721Z" fill="url(#paint0_radial)"/>
<path d="M95.3733 17.7556C107.212 27.3143 116.163 42.087 114.43 55.701C114.142 73.0805 101.148 85.5358 90.4647 96.2532C73.14 110.446 42.8219 107.55 25.2085 90.46C20.2998 83.5082 17.4124 75.6874 15.9687 67.5769C15.6799 64.3907 15.6799 60.9148 15.9687 57.4389C17.1237 70.1839 24.631 83.5081 35.892 90.1703C23.4761 77.7149 14.2362 46.1423 24.631 28.7628C30.4059 51.6458 37.6245 72.5012 65.9214 78.8737C47.4418 68.7356 31.2721 45.5629 30.6946 23.8386C38.7795 44.4043 54.3717 67.577 80.6474 69.315C74.0063 64.1011 63.9002 59.4665 60.724 51.0664C69.3863 57.4388 78.9149 62.0734 89.5984 64.101C75.7387 54.2526 59.8578 43.825 51.4842 29.0524C66.2102 42.087 83.2461 50.7768 99.4158 61.4942C95.9508 49.6182 89.021 38.9008 79.2037 29.0524C87.5773 33.9766 101.726 48.1699 108.078 56.2803C105.768 48.1699 99.127 33.6868 88.1547 24.9971C98.8382 28.473 111.543 46.7216 111.543 60.0459C110.966 57.7286 111.832 34.2663 91.0422 18.0454C92.7746 18.0454 94.2183 17.7556 95.3733 17.7556Z" fill="url(#paint1_radial)"/>
<path d="M66.4992 7.90723C66.7879 7.90723 66.7879 7.90723 67.0767 7.90723C65.9217 9.93484 65.0555 8.19681 63.6117 9.64511L54.3719 10.514L62.7455 12.2521C61.3018 12.2521 56.6819 13.4108 55.5269 12.8315C51.7732 11.6728 48.5971 13.121 45.7096 13.99C49.752 15.7279 49.4633 16.0177 53.217 17.1763L58.7031 20.9419C57.2594 20.3625 53.217 19.4936 52.9282 19.4936C50.0408 19.7832 47.4421 18.3348 44.8434 17.7555C43.6884 17.1762 42.5334 16.8866 41.6672 16.597C46.5759 18.3349 49.1746 19.4935 53.217 23.5487C54.372 24.997 55.2382 24.4177 56.1044 24.997C52.9282 25.2866 50.907 24.7073 48.5971 23.5487C46.2871 22.9694 44.5546 22.9695 42.5334 22.3902L43.9771 23.5487C41.9559 23.259 40.5122 22.6797 38.491 22.1004C37.6248 23.8383 38.7798 24.1281 38.7798 25.8661C37.6248 24.9971 37.0473 25.5763 35.6036 24.997C33.8711 25.2866 32.4274 23.8383 31.5612 23.5487V30.211C29.8287 30.7903 29.2512 29.0522 27.8075 28.4729C28.6737 33.1075 26.9412 36.873 26.9412 41.5075C27.23 47.0111 30.6949 51.6457 32.1386 56.2802C30.6949 54.832 28.385 53.3836 26.9412 52.225C27.5187 50.487 26.6525 49.3283 26.6525 48.1697C24.0538 47.3007 23.4763 44.9834 22.0326 42.3765C22.3214 40.0592 21.4551 35.7144 21.1664 34.8454V40.0593C19.1452 42.9558 19.4339 46.1422 19.4339 49.9077C17.9902 47.8801 17.124 46.7214 16.2577 44.4041C16.2577 49.0387 15.6802 52.8043 14.814 57.1492C14.2365 42.9559 17.4127 28.4729 21.4551 15.4383C22.3214 9.64511 53.7945 9.35548 65.3442 8.77617C65.9217 7.90719 66.2104 7.90723 66.4992 7.90723Z" fill="url(#paint2_radial)"/>
<path d="M67.9426 9.64529C79.7811 9.35563 89.5984 14.5695 96.8171 21.811C91.9084 20.3627 85.556 16.5972 80.0699 16.5972C82.6686 18.6248 86.1335 19.7834 88.1547 23.2593C82.9573 20.3627 78.6262 17.7557 72.5626 17.7557C69.6751 15.7281 68.5201 13.9902 64.4777 13.7006C69.9639 13.7006 74.8725 13.9902 80.0699 15.4385C75.45 14.2798 71.9851 13.1212 67.9426 9.64529ZM54.6604 25.2869C61.0128 28.7628 84.6898 42.3768 90.7535 54.8321C83.5348 45.2734 67.0764 33.3974 54.6604 25.2869ZM37.3358 25.5765C43.9769 35.4249 49.463 42.3767 54.3717 53.0941C45.1319 47.3009 40.2232 36.2939 37.3358 25.5765ZM46.5756 27.6042C56.3929 36.2939 63.034 49.0389 75.1612 57.439C64.189 50.4871 48.5968 40.9285 46.5756 27.6042ZM75.1612 57.1494C76.605 58.0183 78.0487 58.8872 79.2037 59.7562C77.76 59.1769 76.605 58.308 75.1612 57.1494ZM74.5838 28.7629C84.9786 31.0801 92.7746 41.2181 97.3945 49.3285C91.3309 41.5078 79.7812 33.9767 74.5838 28.7629ZM70.2526 31.3697C83.2461 36.2939 93.0634 47.8802 95.9508 56.8596C89.5984 49.0388 80.0699 38.9008 70.2526 31.3697ZM58.4141 33.9767C71.4076 40.6388 87.2885 51.9355 96.5283 63.8115C90.7535 55.1217 75.7387 47.0113 58.4141 33.9767Z" fill="#BC682A"/>
<path d="M71.6964 13.4108C80.3587 15.4385 92.1972 17.7558 97.1058 27.0248C93.9297 26.4455 91.0422 24.7076 87.2885 23.8387C91.0422 25.8663 98.5496 34.2664 101.437 41.2182C96.8171 36.5836 89.5985 28.1835 82.6686 26.1559C90.4647 31.9491 93.0634 36.8733 96.8171 42.0871C92.4859 37.7422 89.8872 33.9766 81.2249 31.3697C85.8448 34.556 93.3522 48.4596 93.6409 48.7492C88.7323 39.4802 67.9427 25.2869 57.8366 20.3627C63.034 20.6524 68.5202 22.1006 72.8513 23.5489C69.9639 21.2316 65.344 18.6247 60.1466 16.3074C66.499 16.8868 74.8726 19.7835 78.3375 21.5214C74.8726 18.6248 66.499 16.5972 61.0128 14.5696C64.189 15.1489 67.0765 15.7282 70.2526 16.5972C68.8089 15.7282 62.1678 13.7005 60.4354 13.4108C69.6752 12.8315 79.4924 17.4661 84.4011 19.204C80.9362 16.8868 75.7388 14.5695 71.6964 13.4108ZM56.1042 24.418C61.8791 25.5767 76.605 36.0044 83.2461 43.2458C72.2738 36.5837 64.189 30.7905 56.1042 24.418Z" fill="url(#paint3_radial)"/>
<path d="M33.2934 36.8732C39.357 43.825 45.7094 52.2251 52.6392 60.0459C52.6392 59.7562 52.3505 59.4666 52.3505 59.1769C62.4566 68.1563 80.0699 72.7908 93.0634 77.4254C89.8872 75.9771 87.2886 75.6874 84.9786 73.0805C72.2739 67.577 58.7029 56.5699 51.7731 44.4042C56.1042 50.7767 57.5479 53.3837 64.7665 56.2803C76.3163 62.6528 87.866 71.0529 101.726 70.1839C86.9998 59.7562 69.0977 55.4114 58.9917 38.9008C72.5626 49.0389 86.1336 58.5976 101.148 65.839C103.169 66.708 104.902 66.9977 106.923 68.7356C104.902 58.8872 101.726 50.4871 95.9509 42.087C102.014 49.0388 108.367 55.9906 110.677 65.839C111.254 58.5976 110.966 51.0664 110.966 43.5353C112.698 47.8802 113.853 51.3561 114.719 54.2527C114.719 54.832 114.719 55.1217 114.719 55.701C114.43 73.0805 101.437 85.5358 90.7535 96.2532C73.4289 110.446 43.1107 107.55 25.4973 90.46C24.9198 89.591 24.6311 88.7221 24.0536 88.1428C36.1808 94.2256 43.9769 97.7014 58.4141 97.1221C51.1955 93.9359 43.6882 89.8807 39.0683 82.6392C48.5968 92.1979 66.7877 90.4601 80.0699 91.0394C56.9704 80.6117 33.2934 86.4048 25.2086 50.7767C30.6947 65.839 51.4843 87.2737 70.5414 81.1909C53.2168 73.6598 39.357 52.2251 33.2934 36.8732Z" fill="#802D03"/>
<path d="M80.9362 20.9419C90.4648 23.2592 95.9509 27.8937 99.7046 36.8731C93.641 29.9213 89.3098 24.9971 80.9362 20.9419ZM55.8155 22.1004C70.2527 25.5763 75.1613 31.0799 80.9362 37.1627C70.2527 29.3419 60.1467 23.5487 55.8155 22.1004Z" fill="#CF8D5E"/>
<path d="M65.9216 11.9626C78.0489 11.0936 87.5774 14.2798 95.3735 23.5489C87.5774 17.7557 76.3164 13.9902 65.9216 11.9626ZM93.3523 26.4455C85.845 21.5213 71.9853 15.4385 65.6329 14.5696C77.4714 15.4385 88.7324 18.6247 93.3523 26.4455Z" fill="#CF8D5E"/>
<path d="M110.966 68.4458C108.078 60.0457 101.726 50.1973 96.2399 43.8249C99.416 48.1697 102.015 57.7286 102.015 57.7286C99.1273 54.5424 89.5987 37.1627 65.0555 29.3419C93.0637 47.0111 104.902 72.5012 102.881 76.5564C104.325 79.453 107.79 69.0252 110.966 68.4458Z" fill="url(#paint4_linear)"/>
<path d="M71.4075 47.5907C91.6196 62.653 103.747 65.8392 105.768 70.1841C105.768 64.1013 104.613 58.0185 102.303 51.9356C105.479 58.0185 108.944 63.8115 108.655 71.922C110.388 68.7357 111.543 64.9703 112.409 60.6254C112.409 62.9427 112.409 64.9702 112.12 67.2875C107.789 78.8738 98.5494 88.1429 90.4646 96.2534C75.4499 108.419 51.4841 108.129 33.8707 97.1223C45.7093 100.598 59.8577 102.047 71.6962 98.281C60.1465 100.598 42.8218 96.543 36.1807 83.2187C40.8006 89.0119 58.9915 96.8327 70.5413 93.9361C57.5478 93.0671 31.5608 82.6394 26.3634 58.0184C35.892 83.2187 79.7811 93.9361 84.401 90.4602C75.1612 88.7222 60.1465 84.9566 52.3504 80.0324C61.8789 82.929 70.83 86.1152 81.8023 84.9566C62.1677 77.7151 44.2655 67.2875 36.1807 46.1425C45.1318 62.3633 61.8789 80.6118 86.7109 78.8738C80.0698 77.1359 73.7174 73.9497 67.3651 69.3151C76.3161 73.3704 89.8871 78.2944 100.282 75.6875C95.0845 74.2392 73.4287 68.1564 67.0763 59.4667C76.0274 66.1288 89.5984 72.791 95.9507 69.3151C84.6897 63.522 78.9148 58.5978 71.4075 47.5907ZM102.303 51.6459C101.726 50.1976 100.859 48.7493 100.282 47.301C100.859 48.7493 101.726 50.1976 102.303 51.6459Z" fill="url(#paint5_radial)"/>
<path d="M112.698 42.3766C109.522 27.8937 93.6406 13.4109 83.8233 11.3833C96.8168 20.6524 112.409 44.1147 113.275 56.2804C114.719 54.5424 112.409 44.6939 112.698 42.3766Z" fill="#BC682A"/>
<path d="M90.7533 20.0731C100.859 23.8387 106.634 34.556 108.367 43.5354C106.057 32.5284 93.9295 28.1836 90.7533 20.0731Z" fill="#CF8D5E"/>
<path d="M91.3311 75.977C73.1402 75.3977 57.2593 63.5216 44.5545 51.6456C52.6394 69.3148 72.8514 79.1633 91.3311 75.977Z" fill="url(#paint6_linear)"/>
<path d="M16.5461 45.2731C17.701 46.4317 17.9898 49.3284 18.856 50.4871C16.8348 71.0528 27.8071 88.4324 36.1807 96.8325C17.1236 87.853 13.3699 64.3905 16.5461 45.2731Z" fill="#BC682A"/>
<path d="M98.261 24.418C103.747 26.1559 107.212 32.2388 109.522 37.4526C107.212 32.8181 102.592 28.7628 98.261 24.418ZM90.7537 24.9971C105.768 28.1834 113.276 49.3285 114.431 57.4389C110.388 47.0112 102.592 29.9213 90.7537 24.9971Z" fill="url(#paint7_radial)"/>
<path d="M107.501 33.3973C113.564 41.5077 115.297 50.1975 113.564 60.0459C112.121 48.4596 108.078 37.1629 101.148 28.1835C104.325 29.9214 107.501 33.1076 107.501 33.3973Z" fill="#A14302"/>
<path d="M30.5663 136.599C42.763 134.253 60.3062 150.176 58.8025 164.255C58.6354 174.311 51.1169 181.518 44.935 187.72C34.9103 195.932 17.3671 194.256 7.17531 184.367C-1.51276 171.797 0.659256 154.701 5.00329 140.454C5.50452 137.102 23.7161 136.935 30.5663 136.599Z" fill="url(#paint8_radial)"/>
<path d="M47.6082 142.298C54.4584 147.829 59.6378 156.377 58.6353 164.255C58.4682 174.311 50.9497 181.518 44.7678 187.72C34.7431 195.933 17.1999 194.256 7.00814 184.368C4.16781 180.345 2.49704 175.82 1.66164 171.127C1.49457 169.283 1.49457 167.272 1.66164 165.26C2.32996 172.635 6.674 180.345 13.1901 184.2C6.00569 176.993 0.659172 158.724 6.67399 148.667C10.0156 161.908 14.1925 173.976 30.5662 177.663C19.8732 171.797 10.5168 158.388 10.1826 145.818C14.8608 157.718 23.8831 171.127 39.0872 172.132C35.2444 169.115 29.3966 166.434 27.5588 161.573C32.5711 165.26 38.0847 167.942 44.2666 169.115C36.2468 163.417 27.0575 157.383 22.2123 148.835C30.7333 156.377 40.5909 161.405 49.9473 167.607C47.9423 160.735 43.9324 154.533 38.2518 148.835C43.0971 151.684 51.2839 159.897 54.9596 164.59C53.623 159.897 49.7802 151.517 43.4312 146.488C49.6131 148.5 56.9645 159.059 56.9645 166.769C56.6304 165.428 57.1316 151.852 45.102 142.466C46.1044 142.466 46.9398 142.298 47.6082 142.298Z" fill="url(#paint9_radial)"/>
<path d="M30.9002 136.599C31.0673 136.599 31.0673 136.599 31.2344 136.599C30.5661 137.772 30.0648 136.766 29.2294 137.604L23.8829 138.107L28.7282 139.113C27.8928 139.113 25.2196 139.783 24.5512 139.448C22.3792 138.777 20.5414 139.615 18.8706 140.118C21.2097 141.124 21.0426 141.292 23.2146 141.962L26.3891 144.141C25.5537 143.806 23.2146 143.303 23.0476 143.303C21.3768 143.47 19.8731 142.632 18.3694 142.297C17.701 141.962 17.0327 141.794 16.5315 141.627C19.3718 142.632 20.8755 143.303 23.2146 145.649C23.883 146.487 24.3842 146.152 24.8854 146.487C23.0476 146.655 21.878 146.32 20.5414 145.649C19.2048 145.314 18.2023 145.314 17.0327 144.979L17.8681 145.649C16.6986 145.482 15.8632 145.146 14.6936 144.811C14.1924 145.817 14.8607 145.985 14.8607 146.99C14.1924 146.487 13.8583 146.822 13.0229 146.487C12.0204 146.655 11.185 145.817 10.6838 145.649V149.504C9.68131 149.84 9.34715 148.834 8.51175 148.499C9.01299 151.18 8.01052 153.359 8.01052 156.041C8.17759 159.225 10.1825 161.907 11.0179 164.589C10.1825 163.751 8.84591 162.913 8.01052 162.242C8.34467 161.237 7.84343 160.566 7.84343 159.896C6.33972 159.393 6.00558 158.052 5.17019 156.544C5.33727 155.203 4.83603 152.689 4.66895 152.186V155.203C3.4994 156.879 3.66647 158.723 3.66647 160.902C2.83108 159.728 2.32986 159.058 1.82863 157.717C1.82863 160.399 1.49447 162.578 0.993237 165.092C0.659081 156.879 2.49695 148.499 4.83604 140.956C5.33727 137.604 23.5488 137.437 30.2319 137.101C30.5661 136.598 30.7331 136.599 30.9002 136.599Z" fill="url(#paint10_radial)"/>
<path d="M31.7354 137.605C38.5856 137.437 44.2662 140.454 48.4432 144.645C45.6029 143.807 41.9271 141.628 38.7527 141.628C40.2564 142.801 42.2613 143.471 43.4308 145.483C40.4234 143.807 37.9173 142.298 34.4086 142.298C32.7379 141.125 32.0695 140.119 29.7304 139.952C32.9049 139.952 35.7452 140.119 38.7527 140.957C36.0794 140.287 34.0745 139.616 31.7354 137.605ZM24.0498 146.656C27.7255 148.667 41.4259 156.545 44.9346 163.752C40.7576 158.221 31.2342 151.349 24.0498 146.656ZM14.0251 146.823C17.8679 152.522 21.0424 156.545 23.8827 162.746C18.5362 159.394 15.6959 153.025 14.0251 146.823ZM19.3716 147.997C25.0523 153.025 28.895 160.4 35.9123 165.26C29.5634 161.238 20.5411 155.707 19.3716 147.997ZM35.9123 165.093C36.7477 165.596 37.5831 166.098 38.2514 166.601C37.416 166.266 36.7477 165.763 35.9123 165.093ZM35.5782 148.667C41.593 150.008 46.1041 155.874 48.7773 160.567C45.2687 156.042 38.5856 151.684 35.5782 148.667ZM33.072 150.176C40.5905 153.025 46.2712 159.729 47.942 164.925C44.2662 160.4 38.7527 154.533 33.072 150.176ZM26.2218 151.684C33.7403 155.539 42.9296 162.076 48.2761 168.948C44.9346 163.919 36.2465 159.226 26.2218 151.684Z" fill="#BC682A"/>
<path d="M33.9081 139.784C38.9205 140.957 45.7707 142.298 48.611 147.661C46.7732 147.326 45.1024 146.321 42.9303 145.818C45.1024 146.991 49.4464 151.852 51.1172 155.874C48.4439 153.192 44.267 148.332 40.2571 147.159C44.7682 150.511 46.2719 153.36 48.4439 156.377C45.9378 153.863 44.4341 151.684 39.4217 150.175C42.095 152.019 46.439 160.064 46.6061 160.232C43.7658 154.868 31.7361 146.656 25.8884 143.806C28.8958 143.974 32.0703 144.812 34.5764 145.65C32.9056 144.309 30.2324 142.801 27.225 141.46C30.9007 141.795 35.746 143.471 37.7509 144.477C35.746 142.801 30.9007 141.628 27.7262 140.454C29.5641 140.789 31.2349 141.125 33.0727 141.628C32.2373 141.125 28.3946 139.951 27.3921 139.784C32.7386 139.449 38.4192 142.13 41.2596 143.136C39.2546 141.795 36.2472 140.454 33.9081 139.784ZM24.8859 146.153C28.2275 146.823 36.7485 152.857 40.5913 157.047C34.2423 153.192 29.5641 149.84 24.8859 146.153Z" fill="url(#paint11_radial)"/>
<path d="M11.6867 153.36C15.1953 157.383 18.871 162.243 22.8809 166.769C22.8809 166.601 22.7139 166.433 22.7139 166.266C28.5616 171.462 38.7533 174.143 46.2719 176.825C44.434 175.987 42.9303 175.819 41.5937 174.311C34.2423 171.126 26.3896 164.757 22.3797 157.718C24.8859 161.405 25.7213 162.914 29.8982 164.59C36.5814 168.277 43.2645 173.138 51.2842 172.635C42.7632 166.601 32.4044 164.087 26.5567 154.533C34.4093 160.4 42.262 165.931 50.9501 170.121C52.1196 170.624 53.1221 170.791 54.2916 171.797C53.1221 166.098 51.2842 161.238 47.9427 156.377C51.4513 160.399 55.127 164.422 56.4636 170.121C56.7978 165.931 56.6307 161.573 56.6307 157.215C57.6332 159.729 58.3015 161.74 58.8027 163.416C58.8027 163.752 58.8027 163.919 58.8027 164.254C58.6357 174.311 51.1172 181.518 44.9353 187.72C34.9106 195.932 17.3673 194.256 7.17558 184.367C6.84142 183.865 6.67434 183.362 6.34019 183.027C13.3575 186.546 17.8686 188.558 26.2225 188.222C22.0455 186.379 17.7015 184.032 15.0282 179.842C20.5418 185.373 31.0678 184.367 38.7533 184.703C25.3871 178.669 11.6867 182.021 7.00849 161.405C10.183 170.121 22.2126 182.524 33.2398 179.004C23.2151 174.646 15.1953 162.243 11.6867 153.36Z" fill="#802D03"/>
<path d="M39.2542 144.142C44.7678 145.483 47.9422 148.164 50.1143 153.36C46.6056 149.338 44.0994 146.488 39.2542 144.142ZM24.7184 144.812C33.0723 146.824 35.9126 150.008 39.2542 153.528C33.0723 149.002 27.2246 145.65 24.7184 144.812Z" fill="#CF8D5E"/>
<path d="M30.5659 138.946C37.5832 138.443 43.0968 140.287 47.6079 145.65C43.0968 142.298 36.5808 140.119 30.5659 138.946ZM46.4384 147.326C42.0943 144.477 34.0746 140.957 30.3989 140.454C37.2491 140.957 43.7651 142.801 46.4384 147.326Z" fill="#CF8D5E"/>
<path d="M56.6309 171.629C54.9601 166.769 51.2843 161.07 48.1099 157.383C49.9477 159.897 51.4514 165.428 51.4514 165.428C49.7806 163.584 44.2671 153.528 30.0654 149.002C46.272 159.226 53.1222 173.976 51.9527 176.322C52.7881 177.998 54.793 171.965 56.6309 171.629Z" fill="url(#paint12_linear)"/>
<path d="M33.7407 159.562C45.4362 168.277 52.4535 170.121 53.623 172.635C53.623 169.115 52.9547 165.595 51.6181 162.076C53.4559 165.595 55.4609 168.947 55.2938 173.641C56.2963 171.797 56.9646 169.618 57.4658 167.104C57.4658 168.445 57.4658 169.618 57.2987 170.959C54.7926 177.663 49.4461 183.027 44.7679 187.72C36.0798 194.759 22.2123 194.591 12.0205 188.222C18.8707 190.234 27.0576 191.072 33.9078 188.893C27.2247 190.234 17.2 187.887 13.3572 180.177C16.0304 183.529 26.5563 188.055 33.2395 186.379C25.721 185.876 10.6839 179.842 7.67651 165.595C13.1901 180.177 38.586 186.379 41.2592 184.367C35.9127 183.362 27.2247 181.183 22.7135 178.333C28.2271 180.01 33.4065 181.853 39.7555 181.183C28.3942 176.993 18.0353 170.959 13.3572 158.724C18.5366 168.11 28.2271 178.669 42.5958 177.663C38.753 176.657 35.0773 174.814 31.4016 172.132C36.581 174.479 44.4337 177.328 50.4485 175.819C47.4411 174.981 34.9102 171.462 31.2345 166.433C36.4139 170.288 44.2666 174.143 47.9423 172.132C41.4263 168.78 38.0847 165.931 33.7407 159.562ZM51.6181 161.908C51.2839 161.07 50.7827 160.232 50.4485 159.394C50.7827 160.232 51.2839 161.07 51.6181 161.908Z" fill="url(#paint13_radial)"/>
<path d="M57.633 156.545C55.7951 148.164 46.6058 139.784 40.9252 138.611C48.4437 143.974 57.4659 157.55 57.9672 164.59C58.8025 163.584 57.4659 157.885 57.633 156.545Z" fill="#BC682A"/>
<path d="M44.9352 143.639C50.7829 145.818 54.1245 152.019 55.127 157.215C53.7903 150.846 46.7731 148.332 44.9352 143.639Z" fill="#CF8D5E"/>
<path d="M45.269 175.987C34.7431 175.652 25.5538 168.78 18.2024 161.908C22.8806 172.132 34.576 177.831 45.269 175.987Z" fill="url(#paint14_linear)"/>
<path d="M1.99562 158.221C2.66393 158.891 2.83101 160.567 3.33225 161.238C2.1627 173.138 8.51167 183.194 13.3569 188.055C2.32978 182.859 0.157759 169.283 1.99562 158.221Z" fill="#BC682A"/>
<path d="M49.2789 146.153C52.4534 147.159 54.4583 150.678 55.7949 153.695C54.4583 151.014 51.785 148.667 49.2789 146.153ZM44.9348 146.488C53.6229 148.332 57.9669 160.567 58.6353 165.26C56.2962 159.226 51.7851 149.337 44.9348 146.488Z" fill="url(#paint15_radial)"/>
<path d="M54.6254 151.349C58.134 156.042 59.1365 161.07 58.134 166.769C57.2986 160.064 54.9595 153.528 50.9496 148.332C52.7875 149.338 54.6254 151.181 54.6254 151.349Z" fill="#A14302"/>
<g filter="url(#filter0_f)">
<path d="M151.1 40.2132C159.238 38.6475 170.943 49.2716 169.94 58.6655C169.828 65.3754 164.812 70.1842 160.687 74.322C153.998 79.8018 142.293 78.6835 135.492 72.0854C129.696 63.698 131.145 52.291 134.043 42.7853C134.378 40.5487 146.529 40.4368 151.1 40.2132Z" fill="url(#paint16_radial)"/>
<path d="M162.47 44.0155C167.041 47.706 170.497 53.4095 169.828 58.6656C169.717 65.3755 164.7 70.1843 160.575 74.3221C153.887 79.8019 142.181 78.6836 135.381 72.0855C133.486 69.4015 132.371 66.382 131.814 63.2507C131.702 62.0205 131.702 60.6785 131.814 59.3365C132.26 64.2572 135.158 69.4014 139.506 71.9736C134.712 67.1648 131.145 54.9751 135.158 48.2652C137.388 57.0999 140.175 65.1519 151.1 67.6122C143.965 63.698 137.722 54.7514 137.499 46.364C140.621 54.3041 146.64 63.2507 156.785 63.9217C154.221 61.9087 150.319 60.1194 149.093 56.8762C152.437 59.3365 156.116 61.1259 160.241 61.9087C154.89 58.1064 148.759 54.0804 145.526 48.377C151.211 53.4094 157.788 56.7644 164.031 60.9022C162.693 56.3171 160.018 52.1793 156.228 48.377C159.461 50.2781 164.923 55.758 167.376 58.8893C166.484 55.758 163.92 50.1663 159.683 46.8113C163.808 48.1533 168.713 55.1988 168.713 60.3431C168.49 59.4484 168.825 50.39 160.798 44.1274C161.467 44.1274 162.025 44.0155 162.47 44.0155Z" fill="url(#paint17_radial)"/>
<path d="M151.322 40.2126C151.434 40.2126 151.434 40.2126 151.545 40.2126C151.099 40.9955 150.765 40.3245 150.208 40.8836L146.64 41.2191L149.873 41.8901C149.316 41.8901 147.532 42.3375 147.086 42.1138C145.637 41.6665 144.411 42.2256 143.296 42.5611C144.857 43.2321 144.745 43.344 146.194 43.7913L148.313 45.2451C147.755 45.0214 146.194 44.6859 146.083 44.6859C144.968 44.7978 143.965 44.2386 142.962 44.0149C142.516 43.7912 142.07 43.6794 141.735 43.5676C143.63 44.2386 144.634 44.6859 146.194 46.2516C146.64 46.8107 146.975 46.587 147.309 46.8107C146.083 46.9225 145.303 46.6989 144.411 46.2516C143.519 46.0279 142.85 46.0279 142.07 45.8043L142.627 46.2516C141.847 46.1397 141.289 45.9161 140.509 45.6924C140.175 46.3634 140.62 46.4753 140.62 47.1463C140.175 46.8108 139.952 47.0344 139.394 46.8107C138.725 46.9225 138.168 46.3634 137.833 46.2516V48.8237C137.165 49.0474 136.942 48.3764 136.384 48.1527C136.719 49.942 136.05 51.3959 136.05 53.1852C136.161 55.31 137.499 57.0993 138.056 58.8887C137.499 58.3295 136.607 57.7703 136.05 57.323C136.273 56.652 135.938 56.2046 135.938 55.7573C134.935 55.4218 134.712 54.5271 134.155 53.5206C134.266 52.626 133.932 50.9485 133.82 50.613V52.626C133.04 53.7443 133.151 54.9745 133.151 56.4283C132.594 55.6455 132.26 55.1981 131.925 54.3035C131.925 56.0928 131.702 57.5467 131.368 59.2241C131.145 53.7444 132.371 48.1527 133.932 43.1203C134.266 40.8836 146.417 40.7718 150.877 40.5481C151.1 40.2126 151.211 40.2126 151.322 40.2126Z" fill="url(#paint18_radial)"/>
<path d="M151.88 40.8842C156.451 40.7724 160.241 42.7854 163.028 45.5812C161.133 45.022 158.68 43.5682 156.562 43.5682C157.566 44.351 158.903 44.7983 159.684 46.1403C157.677 45.022 156.005 44.0155 153.664 44.0155C152.549 43.2327 152.103 42.5617 150.542 42.4499C152.66 42.4499 154.556 42.5617 156.562 43.1208C154.779 42.6735 153.441 42.2262 151.88 40.8842ZM146.752 46.9232C149.205 48.2652 158.346 53.5213 160.687 58.3301C157.9 54.6396 151.546 50.0545 146.752 46.9232ZM140.063 47.035C142.627 50.8373 144.745 53.5213 146.641 57.659C143.073 55.4224 141.178 51.1728 140.063 47.035ZM143.631 47.8178C147.421 51.1728 149.985 56.0934 154.667 59.3365C150.431 56.6526 144.411 52.9621 143.631 47.8178ZM154.667 59.2247C155.224 59.5602 155.782 59.8957 156.228 60.2312C155.67 60.0075 155.224 59.6721 154.667 59.2247ZM154.444 48.2652C158.457 49.1598 161.467 53.0739 163.251 56.2052C160.91 53.1858 156.451 50.2782 154.444 48.2652ZM152.772 49.2716C157.789 51.1728 161.579 55.6461 162.694 59.1129C160.241 56.0934 156.562 52.1793 152.772 49.2716ZM148.201 50.2781C153.218 52.8503 159.349 57.2117 162.917 61.7969C160.687 58.4419 154.89 55.3106 148.201 50.2781Z" fill="#BC682A"/>
<path d="M153.329 42.3379C156.674 43.1208 161.244 44.0154 163.139 47.5941C161.913 47.3704 160.798 46.6994 159.349 46.3639C160.798 47.1468 163.697 50.3899 164.812 53.0739C163.028 51.2846 160.241 48.0414 157.565 47.2586C160.575 49.4952 161.579 51.3964 163.028 53.4094C161.356 51.7319 160.352 50.278 157.008 49.2716C158.792 50.5017 161.69 55.8697 161.802 55.9815C159.906 52.4029 151.88 46.9231 147.978 45.0219C149.985 45.1338 152.103 45.6929 153.775 46.2521C152.66 45.3574 150.877 44.3509 148.87 43.4563C151.323 43.6799 154.555 44.7983 155.893 45.4693C154.555 44.351 151.323 43.5681 149.204 42.7853C150.431 43.009 151.545 43.2326 152.772 43.5681C152.214 43.2326 149.65 42.4498 148.981 42.3379C152.549 42.1143 156.339 43.9036 158.234 44.5746C156.896 43.6799 154.89 42.7853 153.329 42.3379ZM147.309 46.5876C149.539 47.035 155.224 51.0609 157.788 53.8567C153.552 51.2846 150.431 49.0479 147.309 46.5876Z" fill="url(#paint19_radial)"/>
<path d="M138.502 51.3962C140.843 54.0802 143.296 57.3234 145.971 60.3428C145.971 60.231 145.86 60.1192 145.86 60.0073C149.762 63.4741 156.562 65.2635 161.579 67.0528C160.352 66.4936 159.349 66.3818 158.457 65.3753C153.552 63.2505 148.312 59.0008 145.637 54.3039C147.309 56.7642 147.867 57.7707 150.654 58.889C155.113 61.3493 159.572 64.5925 164.923 64.257C159.237 60.231 152.326 58.5535 148.424 52.1791C153.663 56.0932 158.903 59.7837 164.7 62.5795C165.48 62.915 166.149 63.0268 166.93 63.6978C166.149 59.8955 164.923 56.6523 162.693 53.4092C165.034 56.0932 167.487 58.7772 168.379 62.5795C168.602 59.7837 168.49 56.876 168.49 53.9684C169.159 55.6459 169.605 56.9879 169.939 58.1062C169.939 58.3298 169.939 58.4417 169.939 58.6653C169.828 65.3753 164.811 70.1841 160.687 74.3219C153.998 79.8017 142.293 78.6833 135.492 72.0852C135.269 71.7497 135.158 71.4142 134.935 71.1906C139.617 73.5391 142.627 74.881 148.201 74.6574C145.414 73.4272 142.516 71.8615 140.732 69.0657C144.411 72.7562 151.434 72.0852 156.562 72.3089C147.644 68.2829 138.502 70.5196 135.381 56.7642C137.499 62.5795 145.526 70.8551 152.883 68.5066C146.194 65.5989 140.843 57.3234 138.502 51.3962Z" fill="#802D03"/>
<path d="M156.896 45.2456C160.575 46.1403 162.693 47.9296 164.143 51.3964C161.802 48.7124 160.129 46.8113 156.896 45.2456ZM147.198 45.6929C152.772 47.0349 154.667 49.1597 156.896 51.5082C152.772 48.4887 148.87 46.2521 147.198 45.6929Z" fill="#CF8D5E"/>
<path d="M151.099 41.7788C155.781 41.4433 159.46 42.6735 162.47 46.2521C159.46 44.0155 155.113 42.5616 151.099 41.7788ZM161.69 47.3704C158.791 45.4693 153.44 43.1208 150.988 42.7853C155.558 43.1208 159.906 44.351 161.69 47.3704Z" fill="#CF8D5E"/>
<path d="M168.49 63.586C167.375 60.3429 164.923 56.5406 162.805 54.0803C164.031 55.7577 165.034 59.4483 165.034 59.4483C163.92 58.2181 160.241 51.5081 150.765 48.4886C161.579 55.3104 166.149 65.1517 165.369 66.7174C165.926 67.8357 167.264 63.8097 168.49 63.586Z" fill="url(#paint20_linear)"/>
<path d="M153.217 55.5343C161.021 61.3495 165.703 62.5797 166.483 64.2572C166.483 61.9087 166.037 59.5602 165.146 57.2117C166.372 59.5602 167.71 61.7968 167.598 64.9281C168.267 63.698 168.713 62.2442 169.047 60.5667C169.047 61.4614 169.047 62.2442 168.936 63.1388C167.264 67.6121 163.696 71.1908 160.575 74.3221C154.778 79.019 145.525 78.9072 138.725 74.6576C143.296 75.9995 148.758 76.5587 153.329 75.1049C148.87 75.9996 142.181 74.4339 139.617 69.2896C141.4 71.5263 148.424 74.5458 152.883 73.4274C147.866 73.0919 137.833 69.0659 135.827 59.5602C139.505 69.2896 156.45 73.4274 158.234 72.0854C154.667 71.4144 148.87 69.9606 145.86 68.0594C149.538 69.1777 152.994 70.4079 157.231 69.9606C149.65 67.1648 142.738 63.1389 139.617 54.9751C143.073 61.2377 149.538 68.2831 159.126 67.6121C156.562 66.9411 154.109 65.711 151.657 63.9217C155.112 65.4873 160.352 67.3884 164.365 66.3819C162.359 65.8228 153.998 63.4743 151.545 60.1194C155.001 62.6915 160.24 65.2637 162.693 63.9217C158.345 61.685 156.116 59.7839 153.217 55.5343ZM165.146 57.0999C164.923 56.5407 164.588 55.9815 164.365 55.4224C164.588 55.9815 164.923 56.5407 165.146 57.0999Z" fill="url(#paint21_radial)"/>
<path d="M169.159 53.5212C167.933 47.9296 161.801 42.338 158.011 41.5552C163.028 45.1338 169.048 54.1922 169.382 58.8892C169.939 58.2182 169.048 54.4158 169.159 53.5212Z" fill="#BC682A"/>
<path d="M160.687 44.9102C164.588 46.364 166.818 50.5017 167.487 53.9685C166.595 49.7189 161.913 48.0415 160.687 44.9102Z" fill="#CF8D5E"/>
<path d="M160.91 66.4937C153.886 66.27 147.755 61.6849 142.85 57.0997C145.971 63.9215 153.775 67.7238 160.91 66.4937Z" fill="url(#paint22_linear)"/>
<path d="M132.037 54.6394C132.483 55.0867 132.594 56.2051 132.928 56.6524C132.148 64.5925 136.384 71.3025 139.617 74.5456C132.26 71.0788 130.81 62.0203 132.037 54.6394Z" fill="#BC682A"/>
<path d="M163.585 46.5876C165.703 47.2586 167.041 49.6071 167.933 51.6201C167.041 49.8308 165.257 48.2651 163.585 46.5876ZM160.687 46.8113C166.484 48.0414 169.382 56.2052 169.828 59.3365C168.267 55.3105 165.257 48.7124 160.687 46.8113Z" fill="url(#paint23_radial)"/>
<path d="M167.153 50.0543C169.494 53.1857 170.163 56.5406 169.494 60.3429C168.937 55.8696 167.376 51.5082 164.7 48.0414C165.927 48.7124 167.153 49.9425 167.153 50.0543Z" fill="#A14302"/>
</g>
<g filter="url(#filter1_f)">
<path d="M130.019 2.07366C133.897 1.32758 139.475 6.39024 138.997 10.8667C138.943 14.0642 136.553 16.3557 134.587 18.3275C131.4 20.9387 125.822 20.4058 122.582 17.2616C119.819 13.2648 120.51 7.82909 121.891 3.29935C122.05 2.23353 127.841 2.18024 130.019 2.07366Z" fill="url(#paint24_radial)"/>
<path d="M135.437 3.88562C137.615 5.64423 139.262 8.36209 138.943 10.8668C138.89 14.0642 136.5 16.3558 134.534 18.3275C131.347 20.9388 125.769 20.4059 122.528 17.2617C121.625 15.9827 121.094 14.5439 120.828 13.0517C120.775 12.4655 120.775 11.826 120.828 11.1865C121.041 13.5313 122.422 15.9827 124.494 17.2084C122.21 14.9169 120.51 9.10818 122.422 5.91071C123.485 10.1207 124.813 13.9577 130.019 15.1301C126.619 13.2649 123.644 9.00159 123.538 5.00475C125.025 8.78842 127.894 13.0517 132.728 13.3715C131.506 12.4122 129.647 11.5595 129.062 10.0141C130.656 11.1865 132.409 12.0392 134.375 12.4122C131.825 10.6003 128.903 8.68183 127.363 5.96399C130.072 8.36209 133.206 9.96083 136.181 11.9326C135.543 9.74766 134.269 7.77589 132.462 5.96399C134.003 6.86994 136.606 9.48121 137.775 10.9734C137.35 9.48121 136.128 6.81663 134.109 5.2179C136.075 5.85739 138.412 9.21475 138.412 11.6661C138.306 11.2398 138.465 6.92323 134.64 3.93893C134.959 3.93893 135.225 3.88562 135.437 3.88562Z" fill="url(#paint25_radial)"/>
<path d="M130.125 2.07349C130.178 2.07349 130.178 2.07349 130.231 2.07349C130.019 2.44652 129.86 2.12676 129.594 2.39322L127.894 2.55309L129.435 2.87285C129.169 2.87285 128.319 3.08602 128.107 2.97944C127.416 2.76628 126.832 3.03271 126.3 3.19259C127.044 3.51233 126.991 3.56564 127.682 3.77881L128.691 4.47159C128.425 4.365 127.682 4.20513 127.628 4.20513C127.097 4.25842 126.619 3.99195 126.141 3.88537C125.928 3.77878 125.716 3.72551 125.557 3.67222C126.46 3.99197 126.938 4.20511 127.682 4.95119C127.894 5.21764 128.053 5.11106 128.213 5.21764C127.628 5.27093 127.257 5.16435 126.832 4.95119C126.407 4.84461 126.088 4.84462 125.716 4.73804L125.982 4.95119C125.61 4.8979 125.344 4.79131 124.972 4.68473C124.813 5.00448 125.025 5.0578 125.025 5.37754C124.813 5.21767 124.707 5.32423 124.441 5.21764C124.122 5.27093 123.857 5.00448 123.697 4.95119V6.17691C123.379 6.28349 123.272 5.96373 123.007 5.85714C123.166 6.7098 122.847 7.40259 122.847 8.25524C122.9 9.26778 123.538 10.1205 123.804 10.9731C123.538 10.7067 123.113 10.4402 122.847 10.227C122.954 9.90728 122.794 9.6941 122.794 9.48093C122.316 9.32106 122.21 8.89473 121.944 8.41511C121.997 7.98878 121.838 7.18943 121.785 7.02955V7.98879C121.413 8.5217 121.466 9.10791 121.466 9.8007C121.201 9.42766 121.041 9.21448 120.882 8.78816C120.882 9.64081 120.776 10.3336 120.616 11.133C120.51 8.52171 121.094 5.85714 121.838 3.45904C121.997 2.39322 127.788 2.33994 129.913 2.23335C130.019 2.07348 130.072 2.07349 130.125 2.07349Z" fill="url(#paint26_radial)"/>
<path d="M130.391 2.39335C132.569 2.34006 134.375 3.29931 135.703 4.63158C134.8 4.36513 133.631 3.67235 132.622 3.67235C133.1 4.04539 133.737 4.25855 134.109 4.89804C133.153 4.36513 132.356 3.8855 131.241 3.8855C130.709 3.51246 130.497 3.19273 129.753 3.13944C130.762 3.13944 131.665 3.19272 132.622 3.45917C131.772 3.24601 131.134 3.03284 130.391 2.39335ZM127.947 5.27108C129.116 5.91058 133.472 8.41527 134.587 10.7068C133.259 8.94818 130.231 6.76324 127.947 5.27108ZM124.76 5.32436C125.981 7.13626 126.991 8.41525 127.894 10.387C126.194 9.3212 125.291 7.29613 124.76 5.32436ZM126.459 5.69741C128.266 7.29614 129.487 9.64094 131.719 11.1864C129.7 9.9074 126.831 8.1488 126.459 5.69741ZM131.719 11.1331C131.984 11.293 132.25 11.4528 132.462 11.6127C132.197 11.5061 131.984 11.3463 131.719 11.1331ZM131.612 5.91058C133.525 6.33691 134.959 8.20209 135.809 9.69424C134.694 8.25538 132.569 6.86982 131.612 5.91058ZM130.816 6.39019C133.206 7.29613 135.012 9.42777 135.543 11.0798C134.375 9.64094 132.622 7.77575 130.816 6.39019ZM128.637 6.86982C131.028 8.09551 133.95 10.1739 135.65 12.3588C134.587 10.7601 131.825 9.26792 128.637 6.86982Z" fill="#BC682A"/>
<path d="M131.081 3.08618C132.675 3.45922 134.853 3.88556 135.756 5.59087C135.172 5.48429 134.64 5.16456 133.95 5.00468C134.64 5.37772 136.022 6.92316 136.553 8.20215C135.703 7.34949 134.375 5.80404 133.1 5.431C134.534 6.49683 135.012 7.40278 135.703 8.36202C134.906 7.56265 134.428 6.86986 132.834 6.39024C133.684 6.97644 135.065 9.53441 135.118 9.58771C134.215 7.88239 130.39 5.27113 128.531 4.36518C129.487 4.41847 130.497 4.68492 131.294 4.95137C130.762 4.52504 129.912 4.04542 128.956 3.61909C130.125 3.72568 131.665 4.25861 132.303 4.57836C131.665 4.04545 130.125 3.6724 129.116 3.29936C129.7 3.40594 130.231 3.51253 130.815 3.6724C130.55 3.51253 129.328 3.13947 129.009 3.08618C130.709 2.9796 132.515 3.83226 133.418 4.152C132.781 3.72568 131.825 3.29935 131.081 3.08618ZM128.212 5.11127C129.275 5.32444 131.984 7.24292 133.206 8.57519C131.187 7.3495 129.7 6.28368 128.212 5.11127Z" fill="url(#paint27_radial)"/>
<path d="M124.016 7.40271C125.132 8.6817 126.3 10.2271 127.575 11.666C127.575 11.6127 127.522 11.5594 127.522 11.5061C129.381 13.1582 132.622 14.0108 135.012 14.8635C134.428 14.597 133.95 14.5437 133.525 14.0641C131.188 13.0516 128.691 11.0265 127.416 8.78827C128.213 9.96067 128.478 10.4403 129.806 10.9732C131.931 12.1456 134.056 13.6911 136.606 13.5312C133.897 11.6127 130.603 10.8133 128.744 7.77575C131.241 9.64094 133.737 11.3995 136.5 12.7318C136.872 12.8917 137.19 12.945 137.562 13.2647C137.19 11.4528 136.606 9.90739 135.544 8.36194C136.659 9.64093 137.828 10.9199 138.253 12.7318C138.359 11.3995 138.306 10.014 138.306 8.6284C138.625 9.42777 138.837 10.0673 138.997 10.6002C138.997 10.7068 138.997 10.7601 138.997 10.8666C138.943 14.0641 136.553 16.3556 134.587 18.3274C131.4 20.9387 125.822 20.4057 122.582 17.2616C122.475 17.1017 122.422 16.9418 122.316 16.8352C124.547 17.9544 125.981 18.5938 128.638 18.4873C127.31 17.9011 125.928 17.155 125.078 15.8227C126.831 17.5813 130.178 17.2616 132.622 17.3682C128.372 15.4497 124.016 16.5155 122.528 9.96068C123.538 12.7318 127.363 16.6754 130.869 15.5562C127.681 14.1707 125.132 10.2271 124.016 7.40271Z" fill="#802D03"/>
<path d="M132.781 4.4718C134.534 4.89813 135.544 5.75079 136.234 7.40281C135.119 6.12383 134.322 5.21788 132.781 4.4718ZM128.16 4.68495C130.816 5.32444 131.719 6.33698 132.781 7.45609C130.816 6.01723 128.957 4.9514 128.16 4.68495Z" fill="#CF8D5E"/>
<path d="M130.019 2.81969C132.25 2.65981 134.003 3.24602 135.438 4.95133C134.003 3.88551 131.931 3.19272 130.019 2.81969ZM135.066 5.48424C133.684 4.57829 131.135 3.45919 129.966 3.29932C132.144 3.45919 134.216 4.04538 135.066 5.48424Z" fill="#CF8D5E"/>
<path d="M138.306 13.2115C137.775 11.6661 136.606 9.85417 135.597 8.68177C136.181 9.48114 136.659 11.2398 136.659 11.2398C136.128 10.6536 134.375 7.45607 129.86 6.01721C135.013 9.26797 137.191 13.9576 136.819 14.7037C137.084 15.2366 137.722 13.3181 138.306 13.2115Z" fill="url(#paint28_linear)"/>
<path d="M131.028 9.37461C134.746 12.1457 136.978 12.7319 137.349 13.5313C137.349 12.4122 137.137 11.2931 136.712 10.174C137.296 11.2931 137.934 12.3589 137.881 13.851C138.199 13.2648 138.412 12.5721 138.571 11.7727C138.571 12.199 138.571 12.5721 138.518 12.9984C137.721 15.13 136.021 16.8354 134.534 18.3275C131.772 20.5657 127.362 20.5124 124.122 18.4874C126.3 19.1269 128.903 19.3933 131.081 18.7006C128.956 19.1269 125.769 18.3808 124.547 15.9294C125.397 16.9952 128.744 18.4341 130.868 17.9012C128.478 17.7413 123.697 15.8228 122.741 11.2931C124.494 15.9294 132.568 17.9012 133.418 17.2617C131.718 16.9419 128.956 16.2491 127.522 15.3432C129.275 15.8761 130.922 16.4623 132.94 16.2491C129.328 14.9169 126.034 12.9984 124.547 9.10815C126.194 12.0925 129.275 15.4498 133.843 15.13C132.622 14.8103 131.453 14.2241 130.284 13.3714C131.931 14.1175 134.428 15.0234 136.34 14.5438C135.384 14.2774 131.4 13.1583 130.231 11.5595C131.878 12.7852 134.375 14.0109 135.543 13.3714C133.471 12.3056 132.409 11.3997 131.028 9.37461ZM136.712 10.1207C136.606 9.85421 136.446 9.58775 136.34 9.3213C136.446 9.58775 136.606 9.85421 136.712 10.1207Z" fill="url(#paint29_radial)"/>
<path d="M138.625 8.41538C138.04 5.75083 135.118 3.08629 133.312 2.71326C135.703 4.41857 138.571 8.73515 138.731 10.9734C138.996 10.6536 138.571 8.84171 138.625 8.41538Z" fill="#BC682A"/>
<path d="M134.588 4.31201C136.447 5.0048 137.509 6.97656 137.828 8.62858C137.403 6.60352 135.172 5.80416 134.588 4.31201Z" fill="#CF8D5E"/>
<path d="M134.693 14.5971C131.347 14.4905 128.425 12.3055 126.087 10.1206C127.575 13.3714 131.293 15.1833 134.693 14.5971Z" fill="url(#paint30_linear)"/>
<path d="M120.935 8.94824C121.147 9.16141 121.201 9.69434 121.36 9.90751C120.988 13.6912 123.007 16.8886 124.547 18.4341C121.041 16.7821 120.351 12.4655 120.935 8.94824Z" fill="#BC682A"/>
<path d="M135.968 5.11133C136.978 5.43107 137.615 6.55019 138.04 7.50943C137.615 6.65677 136.765 5.91069 135.968 5.11133ZM134.587 5.21788C137.35 5.80409 138.731 9.69434 138.943 11.1865C138.2 9.26802 136.765 6.12383 134.587 5.21788Z" fill="url(#paint31_radial)"/>
<path d="M137.668 6.76331C138.784 8.25546 139.102 9.8542 138.784 11.6661C138.518 9.53445 137.774 7.4561 136.499 5.80408C137.084 6.12382 137.668 6.71002 137.668 6.76331Z" fill="#A14302"/>
</g>
<path d="M141.762 118.314C144.862 132.202 144.449 143.603 137.836 155.004C128.744 172.21 111.593 177.392 97.9549 169.93C88.2429 170.551 80.8039 167.442 77.0844 158.321C70.8852 151.48 67.579 144.847 66.7524 135.726C71.9184 123.496 138.249 106.291 141.762 118.314Z" fill="#953F05"/>
<path d="M138.249 145.884C138.456 147.749 138.869 149.615 139.489 151.688C139.076 152.724 138.456 153.968 137.836 155.004C128.744 172.21 111.593 177.392 97.9549 169.93C88.2428 170.551 80.8038 167.442 77.0843 158.321C75.2246 156.248 73.5715 154.175 72.125 151.895C72.3317 151.688 72.3316 151.688 72.5383 151.48C75.4312 155.419 78.9441 157.492 84.1101 154.797C87.2097 156.455 90.9291 157.492 94.6486 157.907C95.2685 158.528 96.5084 158.943 96.715 159.979C111.593 171.588 138.663 162.467 138.249 145.884Z" fill="url(#paint32_linear)"/>
<path d="M108.907 159.565C113.04 162.052 122.958 159.358 128.331 159.358C121.512 163.711 107.047 165.369 100.848 161.845C99.4016 161.43 98.1618 160.187 97.3353 159.565C97.1286 161.845 98.5751 163.711 99.195 165.162C95.6821 164.747 92.7892 161.016 91.5494 157.906C87.8299 157.492 85.1436 156.87 82.044 155.004C74.605 152.931 70.2656 147.127 67.5793 141.323C72.7453 148.164 111.8 153.553 111.8 153.553C113.04 149.822 127.711 150.444 130.397 151.895C125.231 158.736 116.139 159.15 108.907 159.565Z" fill="url(#paint33_linear)"/>
<path d="M132.464 103.181C133.084 105.461 133.497 107.327 135.563 108.363C145.895 116.862 144.655 123.91 144.242 134.068C140.729 151.895 111.387 162.674 94.8554 155.212C93.2023 154.797 91.5492 154.797 89.8961 154.382C84.7301 155.004 80.1841 151.273 76.4646 149.407C66.7525 144.225 62.6198 129.922 72.9517 124.739C79.5641 111.473 84.9368 111.68 96.9218 109.192C101.881 108.778 107.047 108.778 111.387 106.705C117.999 104.632 128.744 103.181 132.464 103.181Z" fill="url(#paint34_linear)"/>
<path d="M129.984 109.193C133.084 110.851 135.357 113.753 138.043 116.033C144.035 130.958 141.762 125.983 140.729 128.264C138.456 124.325 134.943 124.532 131.224 124.118C126.058 123.91 122.752 124.947 118.412 126.813C118.206 122.045 118.825 118.313 119.859 113.96C116.139 113.546 112.42 116.448 109.113 118.106C104.774 118.935 101.261 119.765 96.9217 120.179C94.6487 119.143 87.2097 118.106 86.7964 118.106C90.1026 112.509 98.3682 111.68 102.914 110.644C103.741 111.887 104.361 113.546 104.981 114.79C110.767 112.095 120.065 111.266 121.718 110.644C127.504 114.582 128.951 109.4 129.984 109.193Z" fill="#F8E8C7"/>
<path d="M116.139 114.168C112.833 115.826 110.767 117.484 108.287 118.935C106.014 120.179 103.121 121.216 101.261 122.459C99.608 123.289 97.9549 124.74 96.7151 125.983C96.9217 127.849 96.3018 129.507 95.6819 131.166C94.8553 132.202 94.0288 133.239 93.2022 133.861C93.8222 136.763 94.4421 139.457 94.6487 142.567C94.6487 143.189 94.4421 143.811 94.2354 144.433C97.7483 139.872 102.088 134.275 106.427 129.922C110.147 125.362 113.453 118.314 116.139 114.168Z" fill="#F8E8C7"/>
<path d="M113.246 127.434C112.626 130.544 111.387 132.824 109.94 135.104C103.948 137.592 97.5417 140.079 94.2355 145.261C94.6488 141.116 96.9218 136.555 97.1284 133.653C101.261 122.874 114.693 118.728 120.272 111.473C114.899 116.24 114.279 121.008 113.246 127.434Z" fill="url(#paint35_radial)"/>
<path d="M82.2504 117.484C84.3168 118.106 85.7633 118.521 87.0031 120.179C91.5492 121.423 94.8554 122.045 98.1616 122.045C95.2686 124.325 92.789 125.983 88.6562 126.191C86.7965 125.361 85.7633 124.74 84.3168 123.496C83.077 124.325 82.0438 125.154 80.3907 125.361C78.7376 125.154 77.2911 125.154 75.638 124.118C76.6712 122.459 77.911 119.972 78.9442 117.899C80.184 117.692 81.2172 118.106 82.2504 117.484ZM117.586 124.74C118.206 126.812 118.825 128.885 118.412 131.373C119.239 131.373 119.859 130.751 120.685 131.166C123.372 131.995 126.264 133.031 128.744 135.104C127.298 134.897 125.438 134.482 123.785 134.897C120.272 134.897 116.552 135.104 113.04 134.69C114.486 130.958 115.106 127.02 117.586 124.74Z" fill="#EFCD92"/>
<path d="M144.242 132.409C144.655 137.177 143.829 141.738 141.143 143.603C139.696 144.432 139.489 146.298 137.216 145.676C135.977 149.615 137.01 150.237 132.464 151.273C129.571 152.517 127.918 153.346 124.611 154.382C122.338 155.212 120.065 156.041 117.999 156.248C117.172 156.248 116.346 156.041 115.313 156.041C110.147 156.87 103.948 158.528 97.9551 156.87C96.0953 155.834 94.4422 154.797 92.1692 154.175C90.3094 154.382 88.4497 154.797 86.59 154.59C85.7634 153.761 84.9368 153.553 84.9368 151.895C83.697 151.688 82.2505 151.688 80.8041 151.688C73.985 148.371 69.0257 143.189 67.3725 135.311C70.6788 137.799 73.7783 141.945 79.1509 142.152C81.8372 143.189 83.9036 142.567 87.0032 141.323C87.2099 140.287 87.4165 138.421 87.2099 136.97C88.863 140.079 92.7891 141.53 92.9957 145.261C92.3758 146.92 92.1692 146.92 90.5161 147.956C91.7559 148.786 92.9957 149.615 94.2356 150.444C96.9219 151.273 100.021 152.517 103.328 151.895C104.774 152.102 106.221 151.895 107.254 153.139C113.866 153.139 121.099 151.273 127.711 149.2C128.124 148.371 128.744 147.749 129.364 146.92C131.017 145.883 133.497 146.091 134.53 143.811C137.01 141.323 138.87 140.908 138.456 136.348C139.696 136.141 141.143 136.141 142.382 135.933C144.036 133.446 144.242 133.86 144.242 132.409Z" fill="#FAEED5"/>
<path d="M105.187 120.801C102.914 123.91 97.9547 123.91 94.4418 126.398C94.2352 127.434 94.0285 128.471 93.8219 129.3L93.6152 129.507C93.202 130.336 92.582 131.166 92.1688 131.787C92.9953 135.519 93.6152 137.799 94.0285 141.53C93.8219 137.384 95.475 134.482 96.7148 131.787C97.5414 126.191 102.087 123.703 105.187 120.801Z" fill="#CB9E74"/>
<path d="M120.065 167.442C111.8 170.966 103.741 168.478 96.5086 163.503C100.641 172.417 114.073 173.453 120.065 167.442Z" fill="#8E3F05"/>
<path d="M141.142 144.018C141.556 144.018 141.969 144.018 142.382 144.225C141.556 147.956 140.109 151.48 138.043 155.004C133.29 164.125 126.264 169.722 118.619 172.002C118.206 171.795 109.113 173.039 108.7 172.624C118.619 172.002 128.951 166.198 131.637 161.223C127.918 166.198 113.453 170.966 103.741 167.856C112.006 168.271 128.951 163.296 134.943 155.626C127.918 161.845 116.139 162.674 117.172 161.845C122.752 161.016 135.15 155.626 137.01 150.444C138.663 149.2 140.109 145.676 141.142 144.018Z" fill="url(#paint36_linear)"/>
<path d="M137.836 116.241C138.663 112.095 136.803 110.229 133.29 108.571C132.877 107.534 131.637 105.669 131.224 105.047C128.951 104.632 127.917 105.461 126.058 106.291C123.165 106.705 120.478 107.742 117.585 108.571C120.065 108.571 122.545 108.571 125.231 108.571C126.884 108.571 127.298 109.815 128.537 110.644C132.877 111.266 134.736 113.546 137.836 116.241Z" fill="#ECC37D"/>
<path d="M143.415 135.104C142.795 129.3 141.555 124.74 141.555 118.935C140.316 115.619 138.456 113.96 136.389 112.509C134.53 110.022 132.05 108.156 129.984 106.083C127.711 105.254 125.644 105.047 123.165 105.047C125.851 103.803 128.124 103.388 131.223 103.181C132.05 100.901 132.67 103.388 133.083 103.596C133.703 106.912 136.596 109.193 138.249 110.644C141.142 113.131 141.969 114.789 143.002 117.484C144.655 122.252 144.035 127.849 144.035 133.031C143.828 136.97 143.415 135.726 143.415 135.104Z" fill="#EABF73"/>
<path d="M95.2688 144.847C94.2356 148.578 91.756 149.407 89.8962 152.517C86.7966 152.724 102.501 155.212 101.675 154.59C103.741 153.968 89.8962 152.517 104.154 141.738L95.2688 144.847Z" fill="#EFCD92"/>
<defs>
<filter id="filter0_f" x="129.341" y="38.0586" width="42.6589" height="41.7867" filterUnits="userSpaceOnUse" color-interpolation-filters="sRGB">
<feFlood flood-opacity="0" result="BackgroundImageFix"/>
<feBlend mode="normal" in="SourceGraphic" in2="BackgroundImageFix" result="shape"/>
<feGaussianBlur stdDeviation="1" result="effect1_foregroundBlur"/>
</filter>
<filter id="filter1_f" x="118.604" y="0" width="22.422" height="22.0064" filterUnits="userSpaceOnUse" color-interpolation-filters="sRGB">
<feFlood flood-opacity="0" result="BackgroundImageFix"/>
<feBlend mode="normal" in="SourceGraphic" in2="BackgroundImageFix" result="shape"/>
<feGaussianBlur stdDeviation="1" result="effect1_foregroundBlur"/>
</filter>
<radialGradient id="paint0_radial" cx="0" cy="0" r="1" gradientUnits="userSpaceOnUse" gradientTransform="translate(77.7851 26.2586) rotate(124.907) scale(96.9702 87.3797)">
<stop stop-color="#B8642A"/>
<stop offset="0.1529" stop-color="#D39268"/>
<stop offset="0.5395" stop-color="#9F4405"/>
<stop offset="0.6763" stop-color="#A34300"/>
<stop offset="1" stop-color="#8C3D06"/>
</radialGradient>
<radialGradient id="paint1_radial" cx="0" cy="0" r="1" gradientUnits="userSpaceOnUse" gradientTransform="translate(73.1303 78.5857) rotate(-155.791) scale(107.908 101.689)">
<stop stop-color="#802D03"/>
<stop offset="0.5879" stop-color="#8C3604"/>
<stop offset="1" stop-color="#8F3806"/>
</radialGradient>
<radialGradient id="paint2_radial" cx="0" cy="0" r="1" gradientUnits="userSpaceOnUse" gradientTransform="translate(31.0997 10.0961) rotate(48.0072) scale(38.7332 62.2782)">
<stop stop-color="#DFD0C3"/>
<stop offset="0.5303" stop-color="#C49978"/>
<stop offset="1" stop-color="#B26F3F"/>
</radialGradient>
<radialGradient id="paint3_radial" cx="0" cy="0" r="1" gradientUnits="userSpaceOnUse" gradientTransform="translate(79.0804 24.4915) rotate(-119.224) scale(26.1347 42.8226)">
<stop stop-color="#DCAE92"/>
<stop offset="0.5135" stop-color="#D39269"/>
<stop offset="1" stop-color="#D59062"/>
</radialGradient>
<linearGradient id="paint4_linear" x1="99.4981" y1="60.6129" x2="62.6535" y2="14.2598" gradientUnits="userSpaceOnUse">
<stop stop-color="#642703"/>
<stop offset="1" stop-color="#B15C20"/>
</linearGradient>
<radialGradient id="paint5_radial" cx="0" cy="0" r="1" gradientUnits="userSpaceOnUse" gradientTransform="translate(83.0647 89.34) rotate(-146.227) scale(110.746 52.9944)">
<stop stop-color="#4C2103"/>
<stop offset="1" stop-color="#772B03"/>
</radialGradient>
<linearGradient id="paint6_linear" x1="73.5888" y1="71.1686" x2="27.0147" y2="36.1299" gradientUnits="userSpaceOnUse">
<stop stop-color="#652703"/>
<stop offset="1" stop-color="#802D03"/>
</linearGradient>
<radialGradient id="paint7_radial" cx="0" cy="0" r="1" gradientUnits="userSpaceOnUse" gradientTransform="translate(99.8643 29.9706) rotate(59.659) scale(39.6717 29.2321)">
<stop stop-color="#E68C53"/>
<stop offset="1" stop-color="#9F4507"/>
</radialGradient>
<radialGradient id="paint8_radial" cx="0" cy="0" r="1" gradientUnits="userSpaceOnUse" gradientTransform="translate(37.4309 147.218) rotate(124.907) scale(56.1106 50.5612)">
<stop stop-color="#B8642A"/>
<stop offset="0.1529" stop-color="#D39268"/>
<stop offset="0.5395" stop-color="#9F4405"/>
<stop offset="0.6763" stop-color="#A34300"/>
<stop offset="1" stop-color="#8C3D06"/>
</radialGradient>
<radialGradient id="paint9_radial" cx="0" cy="0" r="1" gradientUnits="userSpaceOnUse" gradientTransform="translate(34.7375 177.497) rotate(-155.791) scale(62.4399 58.841)">
<stop stop-color="#802D03"/>
<stop offset="0.5879" stop-color="#8C3604"/>
<stop offset="1" stop-color="#8F3806"/>
</radialGradient>
<radialGradient id="paint10_radial" cx="0" cy="0" r="1" gradientUnits="userSpaceOnUse" gradientTransform="translate(10.4167 137.865) rotate(48.0072) scale(22.4125 36.0365)">
<stop stop-color="#DFD0C3"/>
<stop offset="0.5303" stop-color="#C49978"/>
<stop offset="1" stop-color="#B26F3F"/>
</radialGradient>
<radialGradient id="paint11_radial" cx="0" cy="0" r="1" gradientUnits="userSpaceOnUse" gradientTransform="translate(38.1808 146.195) rotate(-119.224) scale(15.1225 24.7787)">
<stop stop-color="#DCAE92"/>
<stop offset="0.5135" stop-color="#D39269"/>
<stop offset="1" stop-color="#D59062"/>
</radialGradient>
<linearGradient id="paint12_linear" x1="49.9952" y1="167.097" x2="28.6755" y2="140.275" gradientUnits="userSpaceOnUse">
<stop stop-color="#642703"/>
<stop offset="1" stop-color="#B15C20"/>
</linearGradient>
<radialGradient id="paint13_radial" cx="0" cy="0" r="1" gradientUnits="userSpaceOnUse" gradientTransform="translate(40.486 183.719) rotate(-146.227) scale(64.0816 30.6646)">
<stop stop-color="#4C2103"/>
<stop offset="1" stop-color="#772B03"/>
</radialGradient>
<linearGradient id="paint14_linear" x1="35.0027" y1="173.205" x2="8.05319" y2="152.93" gradientUnits="userSpaceOnUse">
<stop stop-color="#652703"/>
<stop offset="1" stop-color="#802D03"/>
</linearGradient>
<radialGradient id="paint15_radial" cx="0" cy="0" r="1" gradientUnits="userSpaceOnUse" gradientTransform="translate(50.2066 149.366) rotate(59.659) scale(22.9555 16.9148)">
<stop stop-color="#E68C53"/>
<stop offset="1" stop-color="#9F4507"/>
</radialGradient>
<radialGradient id="paint16_radial" cx="0" cy="0" r="1" gradientUnits="userSpaceOnUse" gradientTransform="translate(155.68 47.2983) rotate(124.907) scale(37.4386 33.7358)">
<stop stop-color="#B8642A"/>
<stop offset="0.1529" stop-color="#D39268"/>
<stop offset="0.5395" stop-color="#9F4405"/>
<stop offset="0.6763" stop-color="#A34300"/>
<stop offset="1" stop-color="#8C3D06"/>
</radialGradient>
<radialGradient id="paint17_radial" cx="0" cy="0" r="1" gradientUnits="userSpaceOnUse" gradientTransform="translate(153.883 67.501) rotate(-155.791) scale(41.6616 39.2604)">
<stop stop-color="#802D03"/>
<stop offset="0.5879" stop-color="#8C3604"/>
<stop offset="1" stop-color="#8F3806"/>
</radialGradient>
<radialGradient id="paint18_radial" cx="0" cy="0" r="1" gradientUnits="userSpaceOnUse" gradientTransform="translate(137.655 41.0577) rotate(48.0072) scale(14.9542 24.0446)">
<stop stop-color="#DFD0C3"/>
<stop offset="0.5303" stop-color="#C49978"/>
<stop offset="1" stop-color="#B26F3F"/>
</radialGradient>
<radialGradient id="paint19_radial" cx="0" cy="0" r="1" gradientUnits="userSpaceOnUse" gradientTransform="translate(156.18 46.616) rotate(-119.224) scale(10.0902 16.5331)">
<stop stop-color="#DCAE92"/>
<stop offset="0.5135" stop-color="#D39269"/>
<stop offset="1" stop-color="#D59062"/>
</radialGradient>
<linearGradient id="paint20_linear" x1="164.063" y1="60.5618" x2="149.838" y2="42.6657" gradientUnits="userSpaceOnUse">
<stop stop-color="#642703"/>
<stop offset="1" stop-color="#B15C20"/>
</linearGradient>
<radialGradient id="paint21_radial" cx="0" cy="0" r="1" gradientUnits="userSpaceOnUse" gradientTransform="translate(157.718 71.6529) rotate(-146.227) scale(42.757 20.4602)">
<stop stop-color="#4C2103"/>
<stop offset="1" stop-color="#772B03"/>
</radialGradient>
<linearGradient id="paint22_linear" x1="154.06" y1="64.6372" x2="136.078" y2="51.1094" gradientUnits="userSpaceOnUse">
<stop stop-color="#652703"/>
<stop offset="1" stop-color="#802D03"/>
</linearGradient>
<radialGradient id="paint23_radial" cx="0" cy="0" r="1" gradientUnits="userSpaceOnUse" gradientTransform="translate(164.204 48.7314) rotate(59.659) scale(15.3166 11.286)">
<stop stop-color="#E68C53"/>
<stop offset="1" stop-color="#9F4507"/>
</radialGradient>
<radialGradient id="paint24_radial" cx="0" cy="0" r="1" gradientUnits="userSpaceOnUse" gradientTransform="translate(132.201 5.44993) rotate(124.907) scale(17.8405 16.076)">
<stop stop-color="#B8642A"/>
<stop offset="0.1529" stop-color="#D39268"/>
<stop offset="0.5395" stop-color="#9F4405"/>
<stop offset="0.6763" stop-color="#A34300"/>
<stop offset="1" stop-color="#8C3D06"/>
</radialGradient>
<radialGradient id="paint25_radial" cx="0" cy="0" r="1" gradientUnits="userSpaceOnUse" gradientTransform="translate(131.345 15.0771) rotate(-155.791) scale(19.8529 18.7086)">
<stop stop-color="#802D03"/>
<stop offset="0.5879" stop-color="#8C3604"/>
<stop offset="1" stop-color="#8F3806"/>
</radialGradient>
<radialGradient id="paint26_radial" cx="0" cy="0" r="1" gradientUnits="userSpaceOnUse" gradientTransform="translate(123.612 2.47619) rotate(48.0072) scale(7.1261 11.4579)">
<stop stop-color="#DFD0C3"/>
<stop offset="0.5303" stop-color="#C49978"/>
<stop offset="1" stop-color="#B26F3F"/>
</radialGradient>
<radialGradient id="paint27_radial" cx="0" cy="0" r="1" gradientUnits="userSpaceOnUse" gradientTransform="translate(132.44 5.12478) rotate(-119.224) scale(4.80824 7.87846)">
<stop stop-color="#DCAE92"/>
<stop offset="0.5135" stop-color="#D39269"/>
<stop offset="1" stop-color="#D59062"/>
</radialGradient>
<linearGradient id="paint28_linear" x1="136.196" y1="11.7704" x2="129.418" y2="3.24242" gradientUnits="userSpaceOnUse">
<stop stop-color="#642703"/>
<stop offset="1" stop-color="#B15C20"/>
</linearGradient>
<radialGradient id="paint29_radial" cx="0" cy="0" r="1" gradientUnits="userSpaceOnUse" gradientTransform="translate(133.173 17.0556) rotate(-146.227) scale(20.3749 9.74986)">
<stop stop-color="#4C2103"/>
<stop offset="1" stop-color="#772B03"/>
</radialGradient>
<linearGradient id="paint30_linear" x1="131.429" y1="13.7124" x2="122.86" y2="7.26603" gradientUnits="userSpaceOnUse">
<stop stop-color="#652703"/>
<stop offset="1" stop-color="#802D03"/>
</linearGradient>
<radialGradient id="paint31_radial" cx="0" cy="0" r="1" gradientUnits="userSpaceOnUse" gradientTransform="translate(136.263 6.1329) rotate(59.659) scale(7.29877 5.37809)">
<stop stop-color="#E68C53"/>
<stop offset="1" stop-color="#9F4507"/>
</radialGradient>
<linearGradient id="paint32_linear" x1="106.077" y1="156.458" x2="106.248" y2="178.375" gradientUnits="userSpaceOnUse">
<stop stop-color="#743303"/>
<stop offset="0.5792" stop-color="#652C03"/>
<stop offset="1" stop-color="#8D3E04"/>
</linearGradient>
<linearGradient id="paint33_linear" x1="114.799" y1="158.457" x2="49.6383" y2="145.827" gradientUnits="userSpaceOnUse">
<stop stop-color="#723204"/>
<stop offset="0.5479" stop-color="#743303"/>
<stop offset="1" stop-color="#753304"/>
</linearGradient>
<linearGradient id="paint34_linear" x1="130.887" y1="111.327" x2="55.7119" y2="175.216" gradientUnits="userSpaceOnUse">
<stop stop-color="#F1D5A3"/>
<stop offset="1" stop-color="#FAEED5"/>
</linearGradient>
<radialGradient id="paint35_radial" cx="0" cy="0" r="1" gradientUnits="userSpaceOnUse" gradientTransform="translate(111.061 122.786) rotate(132.557) scale(54.9396 26.6283)">
<stop stop-color="#96450C"/>
<stop offset="1" stop-color="#F1D5A3"/>
</radialGradient>
<linearGradient id="paint36_linear" x1="137.462" y1="154.097" x2="96.8206" y2="176.885" gradientUnits="userSpaceOnUse">
<stop stop-color="#B45312"/>
<stop offset="1" stop-color="#953F05"/>
</linearGradient>
</defs>
</svg>
