<svg width="140" height="197" viewBox="0 0 140 197" fill="none" xmlns="http://www.w3.org/2000/svg">
<g clip-path="url(#clip0)">
<path d="M24.3775 41.6551C25.3032 41.8167 25.7906 42.2372 26.9108 41.9298C26.8452 41.0241 27.0234 40.3286 26.5031 39.4553C26.243 39.0186 25.9992 38.8084 25.7391 38.3717C25.7227 38.1453 26.8265 37.6115 26.3063 36.7382C26.2407 35.8325 26.4024 34.9105 26.3368 34.0048C26.5805 34.2151 26.8406 34.6517 27.2953 34.6193C27.7663 34.8134 28.5138 35.6705 29.1466 34.9427C29.3247 34.2472 29.3716 31.7403 29.9552 30.3331C30.1825 30.3169 30.4098 30.3007 30.8645 30.2684C31.0426 29.5729 30.9934 28.8936 31.6425 28.3922C32.0972 28.3598 32.5682 28.5538 33.0065 28.295C32.9244 27.1629 32.5495 25.1412 32.662 23.54C32.8893 23.5238 33.1166 23.5076 33.5713 23.4752C34.204 22.7474 34.5767 21.5828 35.4368 20.8388C35.6313 20.3697 35.1274 19.7228 35.7766 19.2214C36.4585 19.1728 37.1569 19.3506 38.0498 19.0594C38.0006 18.3802 37.6584 16.8114 37.56 15.4528C38.2584 15.6307 38.9732 16.0349 39.6715 16.2128C39.6223 15.5335 39.5731 14.8542 39.7512 14.1588C40.2059 14.1264 40.6605 14.0939 41.3589 14.2718C41.326 13.8189 41.2769 13.1397 41.4714 12.6706L43.8266 13.6409C44.3304 14.2878 44.3797 14.967 45.76 15.0963C45.6944 14.1906 45.6452 13.5113 45.596 12.832C46.0506 12.7996 46.9927 13.1877 47.8856 12.8965C47.3325 11.5703 46.6177 11.1661 46.9576 9.54866C47.4286 9.74271 48.1106 9.69417 48.598 10.1146C48.5324 9.20893 48.7105 8.51344 48.6449 7.60772C49.1324 8.02819 50.0745 8.41624 50.5783 9.06315L50.6088 6.32985C51.3235 6.73413 51.5837 7.1708 52.7367 7.31627C52.6875 6.63698 52.1836 5.99009 52.5891 5.27842C53.0601 5.47246 53.3202 5.9091 54.0022 5.86053C54.6185 4.90623 54.8131 4.43717 55.6403 3.24026L55.5442 5.06792C55.7715 5.05173 56.0153 5.26191 56.4699 5.22953C56.73 5.66619 57.2503 6.53958 57.5268 7.20268C57.9487 6.71744 58.565 5.7631 58.9868 5.27786C58.9868 5.27786 59.5563 6.83047 59.5891 7.28332C59.9946 6.57165 60.6437 6.07025 61.2764 5.34239C61.9748 5.52024 61.9912 5.74668 62.8841 5.45548C63.0786 4.98643 63.0294 4.30712 63.2239 3.83807C63.9059 3.78949 64.4262 4.66284 65.0589 3.93497C65.0425 3.70855 65.237 3.23951 65.2206 3.01308C65.6752 2.9807 66.3572 2.93214 66.8282 3.12618C67.4446 2.17189 67.6227 1.4764 68.4664 0.505912C68.7921 1.84829 68.6468 2.99659 69.1999 4.32278C69.6709 4.51683 70.0927 4.03161 70.3693 4.69471C70.6294 5.13137 70.6622 5.58424 70.9224 6.02091C71.3606 5.7621 71.5551 5.29301 72.237 5.24443C72.4644 5.22824 73.1955 5.85899 73.8775 5.81042C74.072 5.34137 74.0228 4.66207 74.6884 4.38706C75.143 4.35468 75.6141 4.54872 75.825 4.3061C76.0359 4.06348 76.3921 2.67249 77.3014 2.60773C77.3014 2.60773 77.8545 3.93393 78.7638 3.86916L79.673 3.8044C79.7222 4.48368 79.5441 5.1792 79.8042 5.61587C80.4698 5.34086 80.6643 4.87177 81.5736 4.807C81.9954 4.32176 82.1736 3.62627 82.6118 3.36746C82.8555 3.57769 83.1485 4.46727 83.814 4.19227C84.2523 3.93346 84.6905 3.67459 85.1123 3.18935C85.5669 3.15696 84.6249 2.76887 86.0216 3.12458L85.9747 5.6315L86.884 5.56674C87.5496 5.29173 88.1987 4.79028 89.3681 5.16218C89.7899 4.67694 90.4555 4.40199 90.4063 3.7227C91.1703 4.80627 90.9922 5.5017 93.0052 4.90311C93.4271 4.41787 94.0598 3.69001 94.9691 3.62524C95.2128 3.83548 95.473 4.27218 95.7003 4.25599C96.7549 3.04289 97.1275 1.87834 98.475 1.55476C98.5078 2.00762 98.9953 2.42812 98.8172 3.1236C99.9045 2.36336 100.765 1.61926 102.323 1.05306L103.232 0.98829C103.914 0.939714 104.645 1.57044 105.295 1.069C105.506 0.826383 105.7 0.357346 105.911 0.114725C106.138 0.0985331 106.853 0.502831 107.746 0.211635C108.639 -0.0795625 109.759 -0.386966 110.685 -0.225304C110.345 1.39208 109.729 2.34639 108.447 3.57569C107.781 3.85069 107.116 4.12568 106.466 4.62712L106.354 6.22827C105.006 6.55185 104.73 5.88881 103.692 7.32835L103.579 8.9295C102.703 9.44713 102.037 9.72217 101.664 10.8867C101.908 11.0969 101.908 11.0969 102.412 11.7438C101.779 12.4717 101.163 13.4259 100.79 14.5905C101.278 15.0109 101.96 14.9624 102.464 15.6093C101.847 16.5636 101.669 17.2591 100.305 17.3562C101.02 17.7605 101.913 17.4693 102.222 18.5853C102.904 18.5367 103.342 18.2779 104.041 18.4557C103.846 18.9248 103.197 19.4262 103.717 20.2995L103.459 23.0491C103.281 23.7446 103.087 24.2136 102.909 24.9091L104.744 25.006L104.826 26.1381C105.735 26.0734 106.644 26.0086 107.586 26.3967C107.164 26.882 107.003 27.8038 106.093 27.8686C106.11 28.095 106.825 28.4993 106.419 29.211L105.397 30.877C105.674 31.5401 106.616 31.9282 106.487 33.3029C106.487 33.3029 105.416 34.2896 104.507 34.3544C105.416 34.2896 106.082 34.0146 107.024 34.4027C107.057 34.8555 107.333 35.5186 107.139 35.9877C108.081 36.3757 109.023 36.7638 110.176 36.9093C109.527 37.4107 108.439 38.171 107.335 38.7048C107.806 38.8989 108.456 38.3974 108.749 39.2869C107.872 39.8046 107.207 40.0796 106.574 40.8074L107.71 40.7265C106.639 41.7132 105.99 42.2146 104.448 43.0072C104.919 43.2013 105.99 42.2146 105.878 43.8158C105.018 44.5598 104.385 45.2877 104.24 46.436C104.711 46.6301 104.565 47.7785 105.425 47.0344C105.004 47.5196 104.16 48.4901 103.251 48.5548C103.267 48.7813 104.42 48.9268 103.998 49.412C103.56 49.6709 102.911 50.1723 102.262 50.6737C103.431 51.0456 104.6 51.4175 105.721 51.1101C104 52.5982 102.784 54.7332 100.511 54.8951C100.771 55.3318 101.259 55.7523 101.308 56.4316C100.659 56.933 100.009 57.4344 99.133 57.952C99.1494 58.1785 100.124 59.0195 99.7188 59.7311C98.3549 59.8283 96.7473 59.7152 95.3669 59.5859C95.6434 60.249 96.3418 60.4269 95.9528 61.365L92.7539 61.3652C92.7867 61.8181 93.9233 61.7371 93.0632 62.4812L91.9758 63.2414C91.7813 63.7105 92.2852 64.3574 91.6196 64.6324C90.2721 64.956 89.412 65.7 87.788 65.3605C87.0896 65.1827 86.4404 65.684 85.9858 65.7164C86.0842 67.075 87.1716 66.3148 87.6426 66.5089C88.5355 66.2177 89.2667 66.8483 89.2667 66.8483C88.8776 67.7864 87.5301 68.11 87.3028 68.1262C86.881 68.6114 87.1411 69.0481 87.1903 69.7274C86.7521 69.9862 86.0701 70.0348 85.4045 70.3098C84.3827 71.9757 85.4373 70.7627 85.2756 71.6846C83.9773 72.6874 82.5806 72.3317 80.9893 72.4451C81.0221 72.898 81.0549 73.3508 81.0877 73.8037C80.6495 74.0625 80.1949 74.0948 79.7566 74.3537C79.384 75.5182 79.1075 74.8551 78.4583 75.3565C77.0944 75.4537 75.6977 75.098 74.3173 74.9687C74.2048 76.5699 75.325 76.2625 75.8289 76.9094C75.1633 77.1844 74.4814 77.233 73.8158 77.508C69.1054 75.5676 72.9557 78.2521 72.5175 78.5109C72.0792 78.7697 71.6082 78.5756 70.9262 78.6242C70.9427 78.8506 70.9591 79.0771 70.9919 79.5299C70.1154 80.0475 69.1897 79.8859 68.0531 79.9668C67.6805 81.1314 68.6389 81.7459 68.8991 82.1826C67.8281 83.1692 66.4477 83.0399 64.8729 83.3797C64.6784 83.8488 64.9385 84.2854 65.1986 84.7221C64.2894 84.7869 63.3637 84.6252 62.6817 84.6738C62.7145 85.1266 62.7637 85.806 62.7965 86.2588C61.449 86.5824 60.296 86.4369 58.9321 86.5341C58.9813 87.2134 59.4687 87.6338 59.7289 88.0705C60.0054 88.7336 60.2491 88.9438 60.5092 89.3805C59.6163 89.6717 58.918 89.4938 58.236 89.5424C57.7978 89.8012 58.2852 90.2217 58.3016 90.4481C57.6196 90.4967 56.012 90.3836 55.7847 90.3998C55.8339 91.0791 55.8503 91.3055 55.8995 91.9848C55.2176 92.0334 53.6099 91.9203 53.3826 91.9365C52.7498 92.6643 52.9936 92.8746 53.2865 93.7641C52.6373 94.2656 51.939 94.0877 51.257 94.1363C51.2734 94.3627 51.0789 94.8318 51.0953 95.0582C50.4625 95.7861 49.7642 95.6082 49.0658 95.4304C48.6604 96.142 49.3587 96.3198 49.6188 96.7565C49.197 97.2417 48.0604 97.3227 48.0604 97.3227C47.655 98.0344 47.7534 99.393 47.7698 99.6194C46.4387 100.169 45.2528 99.5711 44.0998 99.4256C43.9381 100.348 44.442 100.994 44.7349 101.884C44.3295 102.596 43.842 102.175 43.4038 102.434C43.2257 103.129 42.8039 103.615 42.6258 104.31C42.3656 103.873 41.6016 102.79 41.6016 102.79C41.4399 103.712 40.9853 103.744 40.5798 104.456C39.6706 104.521 39.1831 104.1 38.7121 103.906C37.5755 103.987 36.6662 104.052 35.5296 104.133C35.2367 103.243 34.9929 103.033 34.2618 102.402C32.4268 102.305 31.1918 101.028 30.4442 100.171C28.5295 102.128 27.8007 104.683 27.039 106.786C26.1297 106.851 24.4565 105.832 24.2292 105.848C25.8509 103.001 26.3032 99.7829 28.1851 97.3728C25.701 97.7774 23.7676 96.322 21.8506 95.0929C22.549 95.2708 22.7435 94.8017 23.1817 94.5429C21.0702 93.7829 20.9554 92.1979 20.1258 90.2086C19.8001 88.8662 18.776 87.346 18.4831 86.4564C18.9213 86.1976 19.1159 85.7286 19.5541 85.4698C18.5792 84.6288 17.7988 83.3188 17.2786 82.4455C17.9769 82.6234 18.1551 81.9279 18.5933 81.6691C17.602 80.6017 17.2763 79.2593 17.1615 77.6743C17.4052 77.8845 17.8762 78.0786 18.1199 78.2888C17.827 77.3993 17.5341 76.5098 17.0302 75.8629C17.6958 75.5879 18.1668 75.7819 18.8488 75.7333C17.8903 75.1188 17.1099 73.8088 16.6061 73.1619C17.288 73.1133 17.9864 73.2912 18.6684 73.2426C17.6607 71.9488 16.9131 71.0917 16.5546 69.2964C17.0092 69.2641 17.4639 69.2317 17.6912 69.2155C17.6256 68.3098 16.8944 67.6791 16.3906 67.0322C16.3578 66.5793 16.5687 66.3367 16.7632 65.8676C16.6976 64.9619 16.6647 64.509 16.3882 63.8459C17.0866 64.0238 17.8014 64.4281 18.4997 64.6059C17.0538 63.571 17.3608 61.5007 17.4569 59.6731C17.3749 58.5409 17.3093 57.6352 17.2437 56.7295C17.1617 55.5974 17.5343 54.4328 17.6796 53.2845C18.378 53.4623 19.1584 54.7723 19.4021 54.9826C19.5474 53.8342 19.7091 52.9123 19.8708 51.9904C20.3091 51.7316 20.7801 51.9257 21.2347 51.8933C21.1527 50.7611 21.0871 49.8554 21.2324 48.707C21.6707 48.4482 22.1417 48.6422 22.5964 48.6099C22.0433 47.2837 22.1886 46.1354 22.0902 44.7768C23.4705 44.9061 23.5994 43.5313 23.7448 42.383C23.6463 41.0244 24.1338 41.4448 24.3775 41.6551Z" fill="url(#paint0_radial)"/>
<path d="M97.6055 55.7848C90.3009 59.0362 82.3612 59.8294 75.4456 62.1427C77.0578 68.6281 80.156 64.0831 82.5275 65.2798C78.2905 66.7195 73.1255 64.8115 68.9682 64.1973C63.2876 67.7882 56.972 68.9208 50.6235 69.6006C48.9362 71.5416 47.7199 73.6766 46.2763 75.8277C51.4249 77.5093 55.3362 74.7272 59.8497 73.9505L78.8295 71.0054C72.8067 73.0276 66.2802 74.4029 60.4519 75.956C63.618 75.5029 66.2005 76.4569 68.5556 77.4271C61.1831 76.5867 53.0653 78.0753 48.001 80.712C48.6197 82.9438 50.7311 83.7038 52.2098 85.1916C49.0133 88.378 44.1249 87.1331 40.3753 88.9933C38.3787 89.8183 37.8115 91.4519 36.7733 92.8914C40.2323 93.3278 43.1382 92.438 46.3207 92.2113C41.793 95.9478 34.3736 97.6142 30.3944 96.3045C29.2017 86.1477 45.7163 64.9431 53.4569 58.2467C57.872 56.1115 58.2095 51.308 61.6825 48.7847C66.4539 45.2585 68.0733 39.2257 72.4064 35.9583C76.545 33.16 78.4737 28.2431 80.761 25.1215C82.9357 23.601 83.5193 22.1939 84.9793 20.2691C90.8052 15.5299 96.0124 8.5588 102.391 5.14571C95.3633 9.06023 92.9002 16.0635 87.8383 21.8863C91.1332 20.0584 95.3866 18.8451 98.5199 17.9391C91.0207 21.6596 84.3511 27.3693 78.7197 31.6395C86.0408 28.6145 94.1422 26.8995 100.099 23.9716C87.939 26.431 76.8918 41.1011 68.5325 45.5656C80.4491 42.896 90.1207 34.469 100.641 31.4437C87.5756 40.3401 77.0745 46.7779 63.7307 51.8251C61.3778 54.041 52.7608 61.255 58.7039 61.2869C72.1483 60.7844 84.55 55.3492 97.6055 55.7848Z" fill="url(#paint1_radial)"/>
<path d="M105.647 37.4608C101.703 39.7902 96.6711 42.8799 91.834 45.5005C93.0034 45.8724 93.6362 45.1445 94.6439 46.4384C91.0067 46.6974 87.8569 47.377 84.7563 48.7358C80.3574 51.0976 74.5617 53.1037 69.7081 55.4978C65.4545 56.7112 61.4118 57.682 57.2566 60.254C58.8925 54.4474 74.4305 51.2922 78.6959 43.9326C82.073 43.2369 85.5157 43.4468 89.1201 42.7349C93.5683 41.0524 99.0054 37.2511 102.624 33.5793L102.593 36.3127C104.007 36.8949 104.656 36.3934 105.647 37.4608ZM104.455 5.22594C100.25 7.11865 96.1934 11.0493 92.0874 14.3006C89.7837 17.196 88.6493 20.4632 84.3793 21.4502C82.5958 25.2189 79.6593 28.8422 76.2189 31.8185C74.2572 36.2827 70.9316 40.844 66.1109 43.691C63.7602 49.0934 59.9964 53.9136 55.7287 58.0868C53.5725 63.0201 51.1726 67.7431 46.1245 70.6064C44.0973 74.1648 42.6723 79.7288 37.7695 81.4437C36.7641 83.3361 40.1107 85.3738 34.9806 87.1048C33.537 89.2561 31.5753 93.7203 28.9786 95.7261C23.4899 95.6619 11.5964 86.0392 20.4555 53.7712C23.3849 62.6667 25.7307 72.9694 32.8809 80.1986C32.8739 70.6398 27.3783 61.0166 27.5331 50.5358C27.5964 48.2552 27.6433 45.7482 28.6487 43.8558C29.7126 55.3878 31.4912 67.3242 37.9289 77.3354C31.114 62.1161 37.8074 44.1139 34.5805 27.9562C35.4593 30.6249 36.5818 33.5038 38.3372 35.6548C38.3818 29.9615 36.0734 26.4843 35.9071 21.0336C36.6875 22.3436 37.435 23.2008 38.6537 24.252C39.2044 22.392 39.4951 20.0952 40.2732 18.2189C41.9908 35.6221 34.5849 56.4064 40.2655 74.8929C44.8005 58.6376 47.6294 40.9106 46.3664 23.475C47.2757 23.4103 48.2179 23.7983 49.3053 23.0381L49.3194 20.0782C48.6843 17.6198 47.1563 15.4526 47.8524 12.4442C48.5836 13.0749 49.5749 14.1423 50.5498 14.9833C50.906 13.5923 51.0349 12.2175 52.0896 11.0044C51.9066 27.4049 45.8951 45.3586 48.9439 62.2118C50.4204 60.5134 52.5132 57.8606 54.2006 55.9196C59.0122 40.3274 58.0585 24.0078 62.9521 9.54779C63.245 10.4373 63.0341 10.68 63.7817 11.5371C64.3817 10.3564 64.7051 8.51252 65.7597 7.29938C62.8957 21.3872 57.353 36.3487 58.6793 51.5038C62.0213 47.1688 65.7031 41.2165 65.6329 33.9381C66.1203 34.3586 66.3149 33.8896 66.6242 35.0055C70.1092 26.336 73.252 16.0974 74.82 6.19878C73.5614 17.2134 71.377 28.0664 67.7959 38.5637C69.3708 38.2239 70.4911 37.9166 72.0168 36.8975C72.0309 33.9376 71.3465 30.7999 72.7738 28.4222C72.8886 30.0072 72.8089 32.0613 74.0112 32.8861C77.7727 24.8796 78.204 15.0619 82.8093 6.08494C82.1647 12.959 78.061 19.3966 78.6187 27.0954C81.0045 25.3323 82.7411 24.0705 83.388 20.3828C83.9528 15.5628 86.1582 11.3089 88.5745 6.81231C87.4237 9.85313 86.3386 13.7997 87.0885 17.8431C87.494 17.1314 88.5814 16.3712 88.7431 15.4492C90.1868 13.298 90.7047 10.985 91.45 8.65591C91.2883 9.57785 91.143 10.7262 91.225 11.8584C95.3474 8.8335 99.519 6.48792 104.455 5.22594ZM90.9954 8.6883C91.1571 7.76636 91.5461 6.82825 91.757 6.58562C91.5789 7.28112 91.1735 7.9928 90.9954 8.6883ZM102.603 26.9802C100.252 32.3826 95.6752 35.4399 89.1483 36.8152C82.7527 40.002 75.6094 42.3317 69.9449 46.1492C76.1273 40.0187 85.2182 36.1847 92.0498 29.5528C91.6935 30.9438 95.3636 31.1376 90.9318 33.0465C95.6073 31.3479 98.6587 29.3096 102.603 26.9802ZM101.412 20.0094C97.2268 25.3148 91.9818 25.4608 86.0736 29.0681C83.6058 29.6991 80.7162 30.8153 78.4593 31.2036C79.7577 30.2007 81.2506 28.7288 82.7598 27.4833C89.9687 26.0594 95.7972 24.5062 101.412 20.0094ZM100.578 11.6474C97.3323 14.1546 94.4099 14.818 92.5936 18.1339C95.516 17.4705 97.7729 17.0821 100.419 15.7556C96.2964 18.7805 92.1084 20.8997 86.7674 22.8733C89.7695 20.1558 92.7389 16.9855 95.2208 13.3946C97.2667 13.2489 98.5815 12.4724 100.578 11.6474Z" fill="#508A0F"/>
<path d="M68.706 6.86611C67.5858 7.17349 67.1804 7.88513 65.8165 7.98228C64.4713 11.492 62.8824 14.7915 62.2355 18.479C60.8575 21.5359 60.8599 24.722 59.7092 27.7627C58.9968 30.5446 57.0117 47.3003 58.3615 50.1629C58.1318 46.9929 59.3389 32.1134 61.4316 29.4608C62.4511 24.6087 62.7886 19.8052 65.1883 15.0824C65.7555 13.4489 66.1117 12.0579 67.881 11.2491L68.706 6.86611ZM75.9801 6.34797C75.9824 9.53411 75.2371 11.8632 74.2482 13.9819C74.138 18.7692 68.1222 30.3498 69.165 35.2825C69.6173 32.064 72.3686 19.5781 76.9759 13.7876C77.3486 12.6231 77.7376 11.685 78.1102 10.5205C78.6938 9.11337 79.521 7.91651 79.4062 6.33154C78.0423 6.42869 76.9057 6.50963 75.9801 6.34797ZM91.9414 5.89388C90.8212 6.20126 90.1392 6.24982 89.0519 7.01005C88.5503 9.5493 87.7887 11.6519 87.4981 13.9485C87.9199 13.4633 89.1221 14.288 89.3963 11.765C90.1579 9.6624 90.936 7.78623 91.9414 5.89388ZM84.4563 6.65457C83.8564 7.83527 83.2072 8.33674 83.3057 9.69528C82.5112 11.345 81.7168 12.9947 81.6371 15.0487C80.7465 18.5261 79.1248 21.3727 78.7217 25.2705L79.3872 24.9955C80.6996 21.033 81.8503 17.9923 83.6337 14.2238C84.2172 12.8167 84.7844 11.1831 84.8969 9.58194C84.8969 9.58194 85.9187 7.916 87.0716 8.06146C86.3241 7.20434 85.382 6.81623 84.4563 6.65457ZM52.8126 11.4121C52.9789 16.8625 50.6142 25.2242 50.3236 27.5209C49.8713 30.7394 48.948 33.7639 47.9754 36.1091L48.0292 43.1607C47.1246 49.5977 47.162 56.4228 49.3742 61.7275C49.3062 57.6356 47.6776 50.9239 48.3386 44.2766C48.6761 39.4731 48.8706 39.004 50.1502 34.5886C49.2878 32.1465 53.9889 21.3424 54.3451 19.9515C55.6247 15.5361 52.8126 11.4121 52.8126 11.4121Z" fill="url(#paint2_linear)"/>
<path d="M93.7923 45.0137C74.9076 41.4083 47.7446 65.8732 50.0729 87.5053C50.3316 102.957 61.9728 114.03 71.5445 123.559C87.0662 136.178 114.229 133.602 130.009 118.408C143.462 99.0939 140.099 72.8263 133.373 50.9367C132.596 45.7862 104.399 45.5287 93.7923 45.0137Z" fill="url(#paint3_radial)"/>
<path d="M67.4047 53.7695C56.7982 62.2679 48.7787 75.4017 50.3309 87.5054C50.5896 102.957 62.2308 114.03 71.8025 123.559C87.3242 136.178 114.487 133.602 130.267 118.408C134.665 112.228 137.252 105.275 138.546 98.0639C138.804 95.2311 138.804 92.1408 138.546 89.0505C137.511 100.382 130.785 112.228 120.696 118.151C131.82 107.077 140.098 79.0071 130.785 63.5556C125.611 83.9001 119.144 102.442 93.7915 108.107C110.348 99.094 124.835 78.492 125.352 59.1776C118.109 77.4619 104.139 98.0639 80.5981 99.6091C86.5481 94.9736 95.6024 90.8531 98.4481 83.3849C90.6872 89.0504 82.1503 93.1708 72.5786 94.9735C84.9959 86.2177 99.2241 76.9468 106.726 63.8131C93.5329 75.4017 78.2699 83.1275 63.783 92.6559C66.8873 82.0974 73.096 72.5689 81.8916 63.8131C74.3894 68.191 61.7134 80.8098 56.0221 88.0205C58.0917 80.8098 64.0417 67.9334 73.8721 60.2077C64.3004 63.298 52.9178 79.5221 52.9178 91.3683C53.4352 89.3081 52.6591 68.4485 71.2851 54.0272C69.733 54.0272 68.4395 53.7695 67.4047 53.7695Z" fill="url(#paint4_radial)"/>
<path d="M93.2747 45.0137C93.016 45.0137 93.016 45.0137 92.7573 45.0137C93.7921 46.8164 94.5682 45.2712 95.8617 46.5588L104.14 47.3314L96.6377 48.8766C97.9312 48.8766 102.07 49.9067 103.105 49.3917C106.468 48.3616 109.314 49.6491 111.901 50.4217C108.279 51.9668 108.538 52.2245 105.175 53.2546L100.259 56.6024C101.553 56.0873 105.175 55.3147 105.433 55.3147C108.02 55.5723 110.349 54.2845 112.677 53.7695C113.712 53.2544 114.746 52.997 115.522 52.7395C111.125 54.2846 108.796 55.3146 105.175 58.92C104.14 60.2076 103.364 59.6926 102.588 60.2076C105.433 60.4651 107.244 59.9501 109.314 58.92C111.383 58.4049 112.935 58.405 114.746 57.89L113.453 58.92C115.264 58.6625 116.557 58.1474 118.368 57.6324C119.144 59.1775 118.109 59.4352 118.109 60.9803C119.144 60.2077 119.662 60.7227 120.955 60.2076C122.507 60.4651 123.801 59.1775 124.577 58.92V64.8432C126.129 65.3582 126.646 63.813 127.94 63.2979C127.164 67.4183 128.716 70.7662 128.716 74.8866C128.457 79.7795 125.353 83.9 124.059 88.0204C125.353 86.7328 127.422 85.4451 128.716 84.415C128.198 82.8699 128.975 81.8397 128.975 80.8096C131.303 80.037 131.82 77.9768 133.114 75.6591C132.855 73.5989 133.631 69.7361 133.89 68.9635V73.5989C135.701 76.1742 135.442 79.007 135.442 82.3548C136.735 80.5522 137.511 79.522 138.288 77.4618C138.288 81.5822 138.805 84.9301 139.581 88.793C140.098 76.1742 137.253 63.2979 133.631 51.7093C132.855 46.5588 104.657 46.3013 94.3095 45.7863C93.7921 45.0137 93.5334 45.0137 93.2747 45.0137Z" fill="url(#paint5_radial)"/>
<path d="M91.9816 46.5589C81.3751 46.3013 72.5795 50.9368 66.1121 57.3749C70.5099 56.0873 76.2012 52.7395 81.1164 52.7395C78.7881 54.5422 75.6838 55.5723 73.8729 58.6626C78.5294 56.0873 82.4098 53.7695 87.8424 53.7695C90.4294 51.9669 91.4642 50.4218 95.0859 50.1643C90.1707 50.1643 85.7729 50.4217 81.1164 51.7094C85.2555 50.6793 88.3598 49.6492 91.9816 46.5589ZM103.881 60.4653C98.1902 63.5556 76.9773 75.6593 71.5447 86.7329C78.012 78.2345 92.7576 67.676 103.881 60.4653ZM119.403 60.7227C113.453 69.4786 108.538 75.6592 104.14 85.1876C112.418 80.0371 116.816 70.2512 119.403 60.7227ZM111.125 62.5254C102.329 70.2512 96.3794 81.5823 85.5142 89.0505C95.3446 82.8699 109.314 74.3716 111.125 62.5254ZM85.5142 88.793C84.2207 89.5656 82.9272 90.3381 81.8925 91.1106C83.1859 90.5956 84.2207 89.8231 85.5142 88.793ZM86.0316 63.5556C76.7186 65.6158 69.7338 74.6291 65.5947 81.8398C71.0273 74.8866 81.3751 68.1911 86.0316 63.5556ZM89.912 65.8732C78.2707 70.2512 69.4751 80.5521 66.8882 88.5354C72.5795 81.5822 81.1164 72.5689 89.912 65.8732ZM100.518 68.191C88.8772 74.1141 74.649 84.1575 66.3708 94.7161C71.5447 86.9903 84.9968 79.7796 100.518 68.191Z" fill="#BC682A"/>
<path d="M88.6182 49.9067C80.8574 51.7094 70.2509 53.7696 65.8531 62.0104C68.6987 61.4954 71.2857 59.9503 74.6487 59.1777C71.2857 60.9804 64.5596 68.4486 61.9727 74.6292C66.1118 70.5088 72.5791 63.0406 78.7878 61.2379C71.803 66.3884 69.4748 70.7663 66.1118 75.4018C69.9922 71.5389 72.3204 68.191 80.0813 65.8733C75.9422 68.7061 69.2161 81.0673 68.9574 81.3248C73.3552 73.084 91.9812 60.4653 101.036 56.0874C96.379 56.3449 91.4639 57.6325 87.5834 58.9201C90.1704 56.8599 94.3095 54.5422 98.966 52.482C93.2747 52.997 85.7726 55.5724 82.6682 57.1176C85.7726 54.5423 93.2747 52.7396 98.1899 50.9369C95.3443 51.4519 92.7573 51.967 89.9117 52.7396C91.2051 51.967 97.1551 50.1643 98.7073 49.9067C90.429 49.3917 81.6335 53.5121 77.2357 55.0572C80.34 52.997 84.9965 50.9368 88.6182 49.9067ZM102.588 59.6928C97.4138 60.7229 84.2204 69.9938 78.2704 76.4319C88.1008 70.5089 95.3442 65.3584 102.588 59.6928Z" fill="url(#paint6_radial)"/>
<path d="M123.024 70.7662C117.592 76.9468 111.9 84.415 105.692 91.3682C105.692 91.1107 105.95 90.8532 105.95 90.5956C96.8959 98.5789 81.1156 102.699 69.4744 106.82C72.32 105.532 74.6482 105.275 76.7178 102.957C88.1003 98.0638 100.259 88.2778 106.468 77.4618C102.587 83.1273 101.294 85.4451 94.8264 88.0204C84.4786 93.6859 74.1309 101.154 61.7135 100.382C74.9069 91.1107 90.946 87.2478 100 72.5689C87.8416 81.5823 75.683 90.0806 62.2309 96.5187C60.42 97.2913 58.8679 97.5488 57.057 99.0939C58.8679 90.3381 61.7135 82.8698 66.8874 75.4016C61.4548 81.5822 55.7635 87.7628 53.694 96.5187C53.1766 90.0806 53.4353 83.3849 53.4353 76.6892C51.8831 80.5521 50.8483 83.6424 50.0723 86.2177C50.0723 86.7327 50.0723 86.9903 50.0723 87.5053C50.331 102.957 61.9722 114.03 71.5439 123.559C87.0655 136.178 114.228 133.602 130.009 118.408C130.526 117.636 130.785 116.863 131.302 116.348C120.437 121.756 113.452 124.846 100.518 124.331C106.985 121.499 113.711 117.893 117.85 111.455C109.313 119.953 93.0156 118.408 81.1156 118.923C101.811 109.652 123.024 114.803 130.268 83.1273C125.352 96.5187 106.726 115.576 89.6525 110.167C105.174 103.472 117.592 84.415 123.024 70.7662Z" fill="#802D03"/>
<path d="M80.34 56.6024C71.8031 58.6626 66.8879 62.783 63.5249 70.7663C68.9575 64.5857 72.8379 60.2078 80.34 56.6024ZM102.846 57.6324C89.9117 60.7227 85.5139 65.6157 80.34 71.0238C89.9117 64.0706 98.9661 58.92 102.846 57.6324Z" fill="#CF8D5E"/>
<path d="M93.7921 48.619C82.9269 47.8465 74.39 50.6792 67.4053 58.92C74.39 53.7695 84.4791 50.4217 93.7921 48.619ZM69.2161 61.4953C75.9422 57.1174 88.3595 51.7094 94.0508 50.9368C83.4443 51.7094 73.3552 54.5421 69.2161 61.4953Z" fill="#CF8D5E"/>
<path d="M53.436 98.8364C56.023 91.3682 61.7143 82.6124 66.6295 76.9468C63.7838 80.8097 61.4556 89.3081 61.4556 89.3081C64.0425 86.4754 72.5795 71.0237 94.5685 64.0706C69.4751 79.7796 58.8686 102.442 60.6795 106.047C59.386 108.623 56.2817 99.3515 53.436 98.8364Z" fill="url(#paint7_linear)"/>
<path d="M88.8772 80.2947C70.7686 93.686 59.9034 96.5187 58.0926 100.382C58.0926 94.9736 59.1273 89.5656 61.1969 84.1576C58.3512 89.5656 55.2469 94.716 55.5056 101.927C53.9534 99.0939 52.9187 95.7462 52.1426 91.8833C52.1426 93.9435 52.1426 95.7462 52.4013 97.8064C56.2817 108.107 64.5599 116.348 71.8034 123.559C85.2555 134.375 106.727 134.117 122.508 124.331C111.901 127.422 99.225 128.709 88.6185 125.362C98.9663 127.422 114.488 123.816 120.438 111.97C116.299 117.121 100.001 124.074 89.6533 121.499C101.295 120.726 124.577 111.455 129.234 89.5655C120.697 111.97 81.3751 121.499 77.236 118.408C85.5142 116.863 98.9663 113.515 105.951 109.137C97.4141 111.713 89.3946 114.545 79.5642 113.515C97.1554 107.077 113.195 97.8064 120.438 79.0071C112.418 93.4285 97.4142 109.653 75.1664 108.107C81.1164 106.562 86.8077 103.729 92.4989 99.6091C84.4794 103.214 72.3208 107.592 63.0078 105.274C67.6643 103.987 87.0664 98.5789 92.7577 90.8532C84.7381 96.7762 72.5795 102.699 66.8882 99.6091C76.9773 94.4586 82.1512 90.0806 88.8772 80.2947ZM61.1969 83.9C61.7143 82.6123 62.4904 81.3247 63.0078 80.0371C62.4904 81.3247 61.7143 82.6123 61.1969 83.9Z" fill="url(#paint8_radial)"/>
<path d="M51.8837 75.6591C54.7294 62.7828 68.9576 49.9067 77.7532 48.104C66.1119 56.3448 52.1424 77.2043 51.3664 88.0204C50.0729 86.4752 52.1424 77.7193 51.8837 75.6591Z" fill="#BC682A"/>
<path d="M71.5445 55.8298C62.4902 59.1777 57.3163 68.706 55.7642 76.6893C57.8337 66.9034 68.6989 63.0405 71.5445 55.8298Z" fill="#CF8D5E"/>
<path d="M71.0269 105.532C87.3246 105.017 101.553 94.4584 112.935 83.8998C105.692 99.6089 87.5833 108.365 71.0269 105.532Z" fill="url(#paint9_linear)"/>
<path d="M138.029 78.2343C136.994 79.2644 136.736 81.8398 135.96 82.8699C137.771 101.154 127.94 116.606 120.438 124.074C137.512 116.091 140.875 95.231 138.029 78.2343Z" fill="#BC682A"/>
<path d="M64.8184 59.6927C59.9033 61.2378 56.7989 66.6459 54.7293 71.2813C56.7989 67.1609 60.938 63.5556 64.8184 59.6927ZM71.5445 60.2076C58.0924 63.0404 51.3663 81.8397 50.3315 89.0504C53.9533 79.7795 60.938 64.5855 71.5445 60.2076Z" fill="url(#paint10_radial)"/>
<path d="M56.5402 67.6759C51.1076 74.8866 49.5554 82.6124 51.1076 91.3683C52.4011 81.0673 56.0228 71.0238 62.2315 63.0405C59.3858 64.5857 56.5402 67.4184 56.5402 67.6759Z" fill="#A14302"/>
<path d="M3.63532 88.7582C0.215653 103.964 0.671612 116.446 7.9669 128.928C17.9979 147.764 36.9201 153.438 51.9666 145.268C62.6816 145.949 70.8888 142.545 74.9924 132.559C81.8317 125.07 85.4794 117.807 86.3913 107.822C80.6918 94.4319 7.51094 75.5953 3.63532 88.7582Z" fill="#953F05"/>
<path d="M7.51093 118.942C7.28295 120.985 6.827 123.027 6.14307 125.297C6.59902 126.432 7.28296 127.793 7.9669 128.928C17.9979 147.765 36.9201 153.438 51.9666 145.268C62.6816 145.949 70.8888 142.545 74.9924 132.559C77.0442 130.29 78.868 128.02 80.4638 125.524C80.2358 125.297 80.2358 125.297 80.0079 125.07C76.8162 129.382 72.9405 131.651 67.2411 128.701C63.8214 130.517 59.7179 131.651 55.6143 132.105C54.9303 132.786 53.5625 133.24 53.3345 134.375C36.9201 147.084 7.05497 137.098 7.51093 118.942Z" fill="url(#paint11_linear)"/>
<path d="M39.884 133.921C35.3244 136.644 24.3815 133.694 18.4541 133.694C25.9774 138.46 41.9358 140.275 48.7751 136.417C50.371 135.963 51.7388 134.602 52.6508 133.921C52.8787 136.417 51.2829 138.46 50.599 140.048C54.4746 139.594 57.6663 135.509 59.0341 132.105C63.1377 131.651 66.1014 130.97 69.5211 128.928C77.7283 126.658 82.5158 120.304 85.4795 113.949C79.7801 121.439 36.6923 127.339 36.6923 127.339C35.3244 123.254 19.138 123.935 16.1743 125.524C21.8738 133.013 31.9048 133.467 39.884 133.921Z" fill="url(#paint12_linear)"/>
<path d="M13.8945 72.191C13.2106 74.6875 12.7546 76.73 10.4748 77.8647C-0.924046 87.1695 0.443828 94.8858 0.899784 106.006C4.77541 125.524 37.1482 137.325 55.3865 129.155C57.2103 128.701 59.0341 128.701 60.858 128.247C66.5574 128.928 71.5729 124.843 75.6765 122.8C86.3915 117.127 90.951 101.467 79.5521 95.7936C72.2568 81.269 66.3294 81.4959 53.1067 78.7726C47.6352 78.3187 41.9358 78.3186 37.1482 76.0492C29.8529 73.7797 17.9981 72.191 13.8945 72.191Z" fill="url(#paint13_linear)"/>
<path d="M16.6304 78.7726C13.2107 80.5882 10.703 83.7654 7.73927 86.2618C1.12791 102.602 3.63566 97.1553 4.77555 99.6517C7.28331 95.3397 11.1589 95.5666 15.2625 95.1127C20.962 94.8858 24.6096 96.0205 29.3972 98.0631C29.6251 92.8433 28.9412 88.7582 27.8013 83.9923C31.9049 83.5384 36.0085 86.7157 39.6562 88.5313C44.4437 89.4391 48.3193 90.3468 53.1068 90.8007C55.6146 89.666 63.8218 88.5313 64.2778 88.5313C60.6301 82.4037 51.511 81.4959 46.4955 80.3612C45.5836 81.7229 44.8996 83.5384 44.2157 84.9001C37.8323 81.9498 27.5733 81.042 25.7495 80.3612C19.3661 84.6732 17.7703 78.9995 16.6304 78.7726Z" fill="#F8E8C7"/>
<path d="M31.9048 84.2193C35.5524 86.0349 37.8322 87.8504 40.5679 89.4391C43.0757 90.8007 46.2674 91.9355 48.3192 93.2972C50.143 94.205 51.9669 95.7936 53.3347 97.1552C53.1067 99.1978 53.7907 101.013 54.4746 102.829C55.3865 103.964 56.2984 105.098 57.2103 105.779C56.5264 108.956 55.8425 111.907 55.6145 115.311C55.6145 115.992 55.8425 116.673 56.0704 117.354C52.1948 112.361 47.4073 106.233 42.6198 101.467C38.5162 96.4744 34.8685 88.7582 31.9048 84.2193Z" fill="#F8E8C7"/>
<path d="M35.0965 98.7439C35.7804 102.148 37.1483 104.645 38.7441 107.141C45.3555 109.864 52.4228 112.588 56.0704 118.261C55.6145 113.722 53.1067 108.73 52.8788 105.552C48.3192 93.751 33.5006 89.2121 27.3452 81.2689C33.2726 86.4887 33.9566 91.7085 35.0965 98.7439Z" fill="url(#paint14_radial)"/>
<path d="M69.2931 87.8505C67.0133 88.5313 65.4174 88.9852 64.0496 90.8007C59.0341 92.1624 55.3864 92.8433 51.7388 92.8433C54.9305 95.3397 57.6662 97.1553 62.2257 97.3823C64.2775 96.4745 65.4174 95.7936 67.0133 94.4319C68.3812 95.3397 69.521 96.2475 71.3448 96.4744C73.1687 96.2475 74.7645 96.2475 76.5883 95.1127C75.4485 93.2971 74.0806 90.5738 72.9407 88.3043C71.5728 88.0774 70.433 88.5313 69.2931 87.8505ZM30.3088 95.7936C29.6249 98.0631 28.941 100.333 29.3969 103.056C28.485 103.056 27.8011 102.375 26.8892 102.829C23.9255 103.737 20.7338 104.871 17.998 107.141C19.5939 106.914 21.6457 106.46 23.4695 106.914C27.3451 106.914 31.4487 107.141 35.3243 106.687C33.7285 102.602 33.0446 98.29 30.3088 95.7936Z" fill="#EFCD92"/>
<path d="M0.899091 104.191C0.443136 109.41 1.35505 114.403 4.31876 116.446C5.9146 117.354 6.14257 119.396 8.65032 118.715C10.0182 123.027 8.87831 123.708 13.8938 124.843C17.0855 126.204 18.9093 127.112 22.557 128.247C25.0647 129.155 27.5725 130.063 29.8523 130.29C30.7642 130.29 31.6761 130.063 32.816 130.063C38.5154 130.97 45.3547 132.786 51.9661 130.97C54.0179 129.836 55.8417 128.701 58.3495 128.02C60.4013 128.247 62.4531 128.701 64.5049 128.474C65.4168 127.566 66.3287 127.339 66.3287 125.524C67.6966 125.297 69.2924 125.297 70.8883 125.297C78.4115 121.666 83.883 115.992 85.7068 107.368C82.0592 110.091 78.6395 114.63 72.7121 114.857C69.7484 115.992 67.4686 115.311 64.0489 113.949C63.8209 112.815 63.593 110.772 63.8209 109.183C61.9971 112.588 57.6656 114.176 57.4376 118.261C58.1215 120.077 58.3495 120.077 60.1733 121.212C58.8054 122.12 57.4376 123.027 56.0697 123.935C53.106 124.843 49.6863 126.204 46.0387 125.524C44.4429 125.751 42.847 125.524 41.7071 126.885C34.4118 126.885 26.4326 124.843 19.1373 122.573C18.6814 121.666 17.9974 120.985 17.3135 120.077C15.4897 118.942 12.7539 119.169 11.614 116.673C8.87831 113.949 6.8265 113.495 7.28246 108.503C5.91459 108.276 4.31874 108.276 2.95088 108.049C1.12706 105.325 0.899091 105.779 0.899091 104.191Z" fill="#FAEED5"/>
<path d="M43.9878 91.4816C46.4956 94.8858 51.967 94.8858 55.8426 97.6092C56.0706 98.7439 56.2986 99.8787 56.5266 100.786L56.7546 101.013C57.2105 101.921 57.8945 102.829 58.3504 103.51C57.4385 107.595 56.7546 110.091 56.2986 114.176C56.5266 109.637 54.7028 106.46 53.3349 103.51C52.423 97.3822 47.4075 94.6588 43.9878 91.4816Z" fill="#CB9E74"/>
<path d="M27.5732 142.545C36.6924 146.403 45.5835 143.679 53.5627 138.233C49.0031 147.991 34.1846 149.126 27.5732 142.545Z" fill="#8E3F05"/>
<path d="M4.31954 116.9C3.86359 116.9 3.40762 116.9 2.95166 117.127C3.86357 121.212 5.45943 125.07 7.73921 128.928C12.9827 138.914 20.7339 145.041 29.1691 147.538C29.6251 147.311 39.6561 148.672 40.112 148.218C29.1691 147.537 17.7702 141.183 14.8065 135.736C18.9101 141.183 34.8685 146.403 45.5835 142.999C36.4644 143.452 17.7702 138.006 11.1589 129.609C18.9101 136.417 31.9048 137.325 30.7649 136.417C24.6095 135.509 10.9309 129.609 8.8791 123.935C7.05527 122.573 5.45943 118.715 4.31954 116.9Z" fill="url(#paint15_linear)"/>
<path d="M7.96723 86.4889C7.05532 81.9499 9.10713 79.9074 12.9827 78.0918C13.4387 76.957 14.8066 74.9146 15.2625 74.2337C17.7703 73.7798 18.9102 74.6876 20.962 75.5953C24.1537 76.0492 27.1174 77.184 30.309 78.0918C27.5733 78.0918 24.8376 78.0918 21.8739 78.0918C20.05 78.0918 19.5941 79.4535 18.2262 80.3612C13.4387 81.0421 11.3869 83.5385 7.96723 86.4889Z" fill="#ECC37D"/>
<path d="M1.8115 107.141C2.49543 100.786 3.8633 95.7936 3.8633 89.4391C5.23117 85.8079 7.28298 83.9923 9.56276 82.4037C11.6146 79.6803 14.3503 77.6379 16.6301 75.3684C19.1378 74.4606 21.4176 74.2337 24.1533 74.2337C21.1896 72.872 18.6819 72.418 15.2622 72.1911C14.3503 69.6947 13.6663 72.4181 13.2104 72.645C12.5265 76.2762 9.33476 78.7726 7.51094 80.3612C4.31925 83.0846 3.40735 84.9002 2.26746 87.8505C0.44364 93.0703 1.12757 99.1978 1.12757 104.872C1.35555 109.184 1.8115 107.822 1.8115 107.141Z" fill="#EABF73"/>
<path d="M54.9305 117.808C56.0704 121.893 58.8061 122.8 60.8579 126.204C64.2776 126.431 46.9513 129.155 47.8632 128.474C45.5834 127.793 60.8579 126.205 45.1274 114.403L54.9305 117.808Z" fill="#EFCD92"/>
</g>
<g filter="url(#filter0_f)">
<path d="M118.433 156.552C104.684 146.068 105.559 162.801 110.732 167.34C114.711 167.994 122.883 164.556 129.026 162.397C132.145 156.594 122.655 159.027 118.433 156.552Z" fill="url(#paint16_linear)"/>
<path d="M132.511 155.535C128.332 155.919 122.281 153.685 119.3 152.9C117.693 152.269 116.274 151.783 114.834 151.131C112.383 151.791 112.814 153.756 111.937 156.062C111.747 158.446 112.244 160.907 112.575 163.391C113.138 166.349 115.278 165.898 117.838 166.066C121.232 163.596 125.135 162.406 129.459 161.835C132.862 160.712 133.495 159.112 132.511 155.535Z" fill="url(#paint17_linear)"/>
<path d="M114.003 151.24C112.13 151.15 111.098 152.297 109.834 152.97C109.046 153.411 108.636 154.139 108.037 154.723C107.736 156.279 108.101 157.747 108.3 159.237C110.037 163.389 111.566 164.703 113.527 165.455C111.491 160.332 114.122 155.941 114.003 151.24Z" fill="#975D35"/>
<path d="M132.678 155.513C131.225 156.042 132.355 156.903 132.111 157.61C131.312 159.231 130.47 157.995 129.472 158.126C127.755 156.668 126.547 156.491 124.984 156.192C122.536 154.325 119.288 154.08 115.962 154.519C114.067 154.264 114.311 153.558 114.091 151.902C114.401 151.693 114.545 151.505 114.878 151.461C119.809 154.18 128.577 155.212 132.678 155.513Z" fill="#F1D5A3"/>
<path d="M128.772 161.757C129.172 159.682 127.399 159.074 127 158.621C125.205 157.848 123.73 158.211 121.901 158.452C122.178 159.258 121.036 159.577 120.747 159.953C120.946 161.443 117.119 164.475 117.462 165.778C118.628 163.097 125.69 161.49 128.772 161.757Z" fill="#B86E28"/>
</g>
<g filter="url(#filter1_f)">
<path d="M120.957 181.873C118.194 188.172 122.729 191.344 108.274 191.209C102.777 188.969 97.6081 183.121 104.111 172.647C111.092 168.182 116.448 176.811 120.957 181.873Z" fill="url(#paint18_linear)"/>
<path d="M105.346 171.516C108.222 171.692 109.114 171.423 111.84 172.074C116.876 171.713 122.632 176.813 121.619 180.608C121.499 185.32 115.952 185.85 111.486 186.11C109.051 185.901 106.437 184.301 104.415 183.381C100.192 178.963 99.3856 178.792 105.346 171.516Z" fill="url(#paint19_radial)"/>
<path d="M116.494 185.071C115.844 185.51 112.427 181.264 111.723 181.533C108.917 181.222 106.408 182.436 104.053 181.888C103.586 182.429 104.059 182.973 104.21 183.685C106.345 184.843 108.202 187.73 110.02 188.955C111.164 188.652 116.802 187.581 117.828 187.142C120.235 185.487 120.512 182.571 122.311 180.541C121.683 181.761 118.525 184.601 116.494 185.071Z" fill="#C17F3C"/>
<path d="M104.876 173.879C104.746 175.323 104.443 177.042 104.313 178.485C104.141 178.761 104.418 178.931 104.247 179.207C107.041 179.021 108.873 179.768 111.087 181.131C111.404 182.469 109.955 182.339 109.784 182.614C107.952 181.868 105.264 182.499 104.645 182.88C102.365 182.238 102.153 181.346 101.388 180.114C102.098 177.122 103.573 175.363 104.876 173.879Z" fill="#F1D5A3"/>
</g>
<g filter="url(#filter2_f)">
<path d="M99.3521 173.296C99.3521 173.296 100.15 188.982 82.4884 181.729C76.7429 179.278 78.1148 171.802 78.5977 163.416C85.7533 159.499 94.7061 167.904 99.3521 173.296Z" fill="url(#paint20_linear)"/>
<path d="M97.9819 158.35C99.7555 161.685 100.788 162.585 101.749 165.949C100.751 169.691 100.081 179.31 95.9638 180.604C88.8603 182.436 84.1445 176.365 80.5937 171.408C79.1811 168.558 79.7131 164.925 79.6521 162.248C85.7946 157.052 91.3528 159.418 97.9819 158.35Z" fill="url(#paint21_radial)"/>
<path d="M85.6886 176.655C84.5742 176.101 84.33 172.651 83.2749 172.001C81.7524 168.688 82.4117 164.21 81.4648 161.251C80.3277 160.947 79.8533 161.711 78.8993 162.18C78.6865 165.085 78.355 168.181 77.8178 170.754C79.0788 171.927 82.0139 178.089 83.3934 179.07C87.5634 181.109 92.1013 180.206 96.3986 181.399C94.3528 181.064 87.8267 178.763 85.6886 176.655Z" fill="#C17F3C"/>
<path d="M82.8037 166.005C83.4538 164.958 84.1039 163.911 84.4911 162.702C88.2194 161.379 92.2107 160.218 95.9773 160.004C95.9391 158.895 97.3157 159.019 97.6408 158.495C95.2126 157.724 91.8092 158.524 89.5818 158.6C87.1918 158.938 85.5905 159.761 83.5256 159.575C82.7751 160.199 81.8622 161.084 81.1117 161.707C81.5132 163.402 82.0772 164.834 82.8037 166.005Z" fill="#F1D5A3"/>
</g>
<defs>
<filter id="filter0_f" x="105.248" y="149.131" width="29.6848" height="20.2911" filterUnits="userSpaceOnUse" color-interpolation-filters="sRGB">
<feFlood flood-opacity="0" result="BackgroundImageFix"/>
<feBlend mode="normal" in="SourceGraphic" in2="BackgroundImageFix" result="shape"/>
<feGaussianBlur stdDeviation="1" result="effect1_foregroundBlur"/>
</filter>
<filter id="filter1_f" x="99.0615" y="169.405" width="25.2498" height="23.8081" filterUnits="userSpaceOnUse" color-interpolation-filters="sRGB">
<feFlood flood-opacity="0" result="BackgroundImageFix"/>
<feBlend mode="normal" in="SourceGraphic" in2="BackgroundImageFix" result="shape"/>
<feGaussianBlur stdDeviation="1" result="effect1_foregroundBlur"/>
</filter>
<filter id="filter2_f" x="75.8179" y="156.162" width="27.9311" height="29.4821" filterUnits="userSpaceOnUse" color-interpolation-filters="sRGB">
<feFlood flood-opacity="0" result="BackgroundImageFix"/>
<feBlend mode="normal" in="SourceGraphic" in2="BackgroundImageFix" result="shape"/>
<feGaussianBlur stdDeviation="1" result="effect1_foregroundBlur"/>
</filter>
<radialGradient id="paint0_radial" cx="0" cy="0" r="1" gradientUnits="userSpaceOnUse" gradientTransform="translate(64.0255 47.6459) rotate(-154.241) scale(57.8726 144.926)">
<stop stop-color="#5D931E"/>
<stop offset="0.6585" stop-color="#699D22"/>
<stop offset="1" stop-color="#86B52C"/>
</radialGradient>
<radialGradient id="paint1_radial" cx="0" cy="0" r="1" gradientUnits="userSpaceOnUse" gradientTransform="translate(79.7938 34.0239) rotate(122.615) scale(129.843 56.2434)">
<stop stop-color="#A1C43E"/>
<stop offset="1" stop-color="#71A125"/>
</radialGradient>
<linearGradient id="paint2_linear" x1="68.5441" y1="8.264" x2="67.4816" y2="55.1164" gradientUnits="userSpaceOnUse">
<stop stop-color="#A1C43E"/>
<stop offset="1" stop-color="#71A125"/>
</linearGradient>
<radialGradient id="paint3_radial" cx="0" cy="0" r="1" gradientUnits="userSpaceOnUse" gradientTransform="translate(83.1635 61.3292) rotate(54.8854) scale(86.4313 78.0881)">
<stop stop-color="#B8642A"/>
<stop offset="0.1529" stop-color="#D39268"/>
<stop offset="0.5395" stop-color="#9F4405"/>
<stop offset="0.6763" stop-color="#A34300"/>
<stop offset="1" stop-color="#8C3D06"/>
</radialGradient>
<radialGradient id="paint4_radial" cx="0" cy="0" r="1" gradientUnits="userSpaceOnUse" gradientTransform="translate(87.3329 107.851) rotate(-24.0444) scale(96.5542 90.5241)">
<stop stop-color="#802D03"/>
<stop offset="0.5879" stop-color="#8C3604"/>
<stop offset="1" stop-color="#8F3806"/>
</radialGradient>
<radialGradient id="paint5_radial" cx="0" cy="0" r="1" gradientUnits="userSpaceOnUse" gradientTransform="translate(124.99 46.9597) rotate(132.212) scale(34.5556 55.6043)">
<stop stop-color="#DFD0C3"/>
<stop offset="0.5303" stop-color="#C49978"/>
<stop offset="1" stop-color="#B26F3F"/>
</radialGradient>
<radialGradient id="paint6_radial" cx="0" cy="0" r="1" gradientUnits="userSpaceOnUse" gradientTransform="translate(82.0026 59.7581) rotate(-60.588) scale(23.2783 38.2953)">
<stop stop-color="#DCAE92"/>
<stop offset="0.5135" stop-color="#D39269"/>
<stop offset="1" stop-color="#D59062"/>
</radialGradient>
<linearGradient id="paint7_linear" x1="63.7103" y1="91.8724" x2="96.4098" y2="50.4165" gradientUnits="userSpaceOnUse">
<stop stop-color="#642703"/>
<stop offset="1" stop-color="#B15C20"/>
</linearGradient>
<radialGradient id="paint8_radial" cx="0" cy="0" r="1" gradientUnits="userSpaceOnUse" gradientTransform="translate(78.4332 117.412) rotate(-33.5697) scale(98.986 47.2269)">
<stop stop-color="#4C2103"/>
<stop offset="1" stop-color="#772B03"/>
</radialGradient>
<linearGradient id="paint9_linear" x1="86.9227" y1="101.257" x2="128.417" y2="69.7986" gradientUnits="userSpaceOnUse">
<stop stop-color="#652703"/>
<stop offset="1" stop-color="#802D03"/>
</linearGradient>
<radialGradient id="paint10_radial" cx="0" cy="0" r="1" gradientUnits="userSpaceOnUse" gradientTransform="translate(63.382 64.6294) rotate(120.534) scale(35.3404 26.1382)">
<stop stop-color="#E68C53"/>
<stop offset="1" stop-color="#9F4507"/>
</radialGradient>
<linearGradient id="paint11_linear" x1="43.0058" y1="130.519" x2="42.8194" y2="154.514" gradientUnits="userSpaceOnUse">
<stop stop-color="#743303"/>
<stop offset="0.5792" stop-color="#652C03"/>
<stop offset="1" stop-color="#8D3E04"/>
</linearGradient>
<linearGradient id="paint12_linear" x1="33.383" y1="132.708" x2="105.233" y2="118.674" gradientUnits="userSpaceOnUse">
<stop stop-color="#723204"/>
<stop offset="0.5479" stop-color="#743303"/>
<stop offset="1" stop-color="#753304"/>
</linearGradient>
<linearGradient id="paint13_linear" x1="15.6345" y1="81.11" x2="98.0364" y2="151.682" gradientUnits="userSpaceOnUse">
<stop stop-color="#F1D5A3"/>
<stop offset="1" stop-color="#FAEED5"/>
</linearGradient>
<radialGradient id="paint14_radial" cx="0" cy="0" r="1" gradientUnits="userSpaceOnUse" gradientTransform="translate(37.507 93.6552) rotate(47.2236) scale(60.3614 29.2745)">
<stop stop-color="#96450C"/>
<stop offset="1" stop-color="#F1D5A3"/>
</radialGradient>
<linearGradient id="paint15_linear" x1="8.38026" y1="127.934" x2="53.0527" y2="153.176" gradientUnits="userSpaceOnUse">
<stop stop-color="#B45312"/>
<stop offset="1" stop-color="#953F05"/>
</linearGradient>
<linearGradient id="paint16_linear" x1="120.815" y1="154.936" x2="130.293" y2="181.643" gradientUnits="userSpaceOnUse">
<stop stop-color="#472215"/>
<stop offset="1" stop-color="#60301D"/>
</linearGradient>
<linearGradient id="paint17_linear" x1="122.516" y1="164.166" x2="113.285" y2="156.907" gradientUnits="userSpaceOnUse">
<stop stop-color="#B86E28"/>
<stop offset="1" stop-color="#DFB47B"/>
</linearGradient>
<linearGradient id="paint18_linear" x1="122.022" y1="172.711" x2="74.1747" y2="215.422" gradientUnits="userSpaceOnUse">
<stop stop-color="#472215"/>
<stop offset="1" stop-color="#60301D"/>
</linearGradient>
<radialGradient id="paint19_radial" cx="0" cy="0" r="1" gradientUnits="userSpaceOnUse" gradientTransform="translate(114.002 177.134) rotate(-21.5103) scale(4.2358 6.3802)">
<stop stop-color="#B0631F"/>
<stop offset="0.5202" stop-color="#B36925"/>
<stop offset="1" stop-color="#F5DBA7"/>
</radialGradient>
<linearGradient id="paint20_linear" x1="100.189" y1="164.137" x2="53.022" y2="207.481" gradientUnits="userSpaceOnUse">
<stop stop-color="#472215"/>
<stop offset="1" stop-color="#60301D"/>
</linearGradient>
<radialGradient id="paint21_radial" cx="0" cy="0" r="1" gradientUnits="userSpaceOnUse" gradientTransform="translate(93.053 168.976) rotate(84.6203) scale(11.8924 14.6563)">
<stop stop-color="#B0631F"/>
<stop offset="1" stop-color="#F5DBA7"/>
</radialGradient>
<clipPath id="clip0">
<rect width="138.668" height="148.837" fill="white" transform="translate(0.63623)"/>
</clipPath>
</defs>
</svg>
