<svg width="25" height="25" viewBox="0 0 25 25" fill="none" xmlns="http://www.w3.org/2000/svg">
<path d="M24.5193 7.31136C24.5057 6.28905 24.314 5.2769 23.9528 4.32019C23.6396 3.51321 23.1613 2.78033 22.5483 2.16837C21.9353 1.55642 21.2012 1.07884 20.3929 0.766157C19.4469 0.41164 18.4475 0.219947 17.4373 0.199239C16.1366 0.141198 15.7242 0.125 12.4225 0.125C9.12082 0.125 8.69763 0.125 7.40641 0.199239C6.39665 0.220099 5.39774 0.41179 4.45218 0.766157C3.64373 1.07862 2.90952 1.55612 2.29651 2.16811C1.68351 2.78009 1.20521 3.51309 0.892225 4.32019C0.536407 5.26388 0.34481 6.26136 0.325715 7.26951C0.267577 8.56937 0.25 8.98106 0.25 12.2773C0.25 15.5735 0.25 15.9946 0.325715 17.2851C0.345996 18.2947 0.536635 19.2909 0.892225 20.2371C1.20574 21.0439 1.68439 21.7766 2.2976 22.3884C2.91081 23.0001 3.64509 23.4774 4.45353 23.7898C5.3965 24.1585 6.39558 24.3639 7.40777 24.3972C8.70979 24.4552 9.12217 24.4728 12.4239 24.4728C15.7256 24.4728 16.1488 24.4728 17.44 24.3972C18.4502 24.3773 19.4496 24.1861 20.3956 23.8316C21.2037 23.5186 21.9376 23.0409 22.5505 22.4289C23.1635 21.817 23.642 21.0843 23.9555 20.2776C24.3111 19.3327 24.5018 18.3366 24.522 17.3256C24.5802 16.027 24.5978 15.6154 24.5978 12.3178C24.5951 9.02156 24.5951 8.60312 24.5193 7.31136ZM12.4144 18.5107C8.96128 18.5107 6.16388 15.7179 6.16388 12.2705C6.16388 8.82314 8.96128 6.03039 12.4144 6.03039C14.0722 6.03039 15.662 6.68784 16.8342 7.85809C18.0064 9.02834 18.665 10.6155 18.665 12.2705C18.665 13.9255 18.0064 15.5127 16.8342 16.683C15.662 17.8532 14.0722 18.5107 12.4144 18.5107ZM18.9137 7.25466C18.1066 7.25466 17.4562 6.60406 17.4562 5.79958C17.4562 5.60858 17.4939 5.41945 17.5671 5.243C17.6403 5.06654 17.7476 4.90621 17.8829 4.77115C18.0182 4.6361 18.1788 4.52896 18.3556 4.45587C18.5323 4.38278 18.7217 4.34516 18.9131 4.34516C19.1044 4.34516 19.2938 4.38278 19.4706 4.45587C19.6473 4.52896 19.8079 4.6361 19.9432 4.77115C20.0785 4.90621 20.1858 5.06654 20.259 5.243C20.3322 5.41945 20.3699 5.60858 20.3699 5.79958C20.3699 6.60406 19.7182 7.25466 18.9137 7.25466Z" fill="#9A4084"/>
<path d="M12.424 16.0448C14.4928 16.0448 16.1698 14.3678 16.1698 12.299C16.1698 10.2303 14.4928 8.55322 12.424 8.55322C10.3553 8.55322 8.67822 10.2303 8.67822 12.299C8.67822 14.3678 10.3553 16.0448 12.424 16.0448Z" fill="#9A4084"/>
</svg>
