<svg width="1920" height="117" viewBox="0 0 1920 117" fill="none" xmlns="http://www.w3.org/2000/svg">
<path d="M153.6 53.8099C176.64 41.4699 198.4 26.1496 222.72 15.5096C284.587 -10.8704 360.533 -0.660126 413.013 41.0399C432.213 56.3599 449.707 76.3599 474.027 81.0399C507.733 87.4299 539.733 61.8998 573.867 63.1698C610.133 64.4498 638.293 94.6597 672.427 106.15C735.147 127.43 799.147 84.4499 862.72 66.5799C913.92 52.1099 969.813 54.6598 1019.73 72.9598C1050.88 84.4498 1081.6 102.32 1114.88 98.4901C1138.77 95.9401 1159.68 81.0399 1182.72 73.8099C1297.49 36.7899 1350.4 113.38 1472.85 113.81C1530.45 113.81 1520.21 77.6399 1573.12 41.0399C1590.61 29.1299 1611.95 23.6 1632.85 27.43C1653.76 31.26 1672.53 41.4701 1689.17 54.2401C1701.97 64.0201 1714.35 75.0897 1729.71 79.3397C1750.19 85.2997 1772.37 78.4896 1791.57 68.2796C1810.77 58.0696 1827.84 44.8799 1847.47 36.7899C1870.08 27.4299 1896.11 25.7296 1920 31.2596V207H0V31.2596C9.38667 33.3896 18.7733 36.7899 27.3066 41.0399C83.6266 69.9799 127.147 62.7499 153.6 53.8099Z" fill="white"/>
</svg>
